<svg xmlns="http://www.w3.org/2000/svg" width="100" height="100" fill="#0097A7" viewBox="0 0 496 496"><path d="M288 97.472V72c0-22.056-17.944-40-40-40s-40 17.944-40 40v25.472c-9.288 3.312-16 12.112-16 22.528v64c0 13.232 10.768 24 24 24h64c13.232 0 24-10.768 24-24v-64c0-10.416-6.712-19.216-16-22.528zM224 72c0-13.232 10.768-24 24-24s24 10.768 24 24v24h-48V72zm64 112c0 4.408-3.592 8-8 8h-64c-4.408 0-8-3.592-8-8v-64c0-4.408 3.592-8 8-8h64c4.408 0 8 3.592 8 8v64z"/><path d="M248 120c-13.232 0-24 10.768-24 24 0 10.416 6.712 19.216 16 22.528V184h16v-17.472c9.288-3.312 16-12.112 16-22.528 0-13.232-10.768-24-24-24zm0 32c-4.408 0-8-3.592-8-8s3.592-8 8-8 8 3.592 8 8-3.592 8-8 8zM24 336c-13.232 0-24 10.768-24 24 0 10.416 6.712 19.216 16 22.528V472h16v-89.472c9.288-3.312 16-12.112 16-22.528 0-13.232-10.768-24-24-24zm0 32c-4.408 0-8-3.584-8-8s3.592-8 8-8 8 3.584 8 8-3.592 8-8 8zm56 81.472V360H64v89.472c-9.288 3.312-16 12.112-16 22.528 0 13.232 10.768 24 24 24s24-10.768 24-24c0-10.416-6.712-19.216-16-22.528zM72 480c-4.408 0-8-3.584-8-8s3.592-8 8-8 8 3.584 8 8-3.592 8-8 8zm400-144c-13.232 0-24 10.768-24 24 0 10.416 6.712 19.216 16 22.528V472h16v-89.472c9.288-3.312 16-12.112 16-22.528 0-13.232-10.768-24-24-24zm0 32c-4.408 0-8-3.584-8-8s3.592-8 8-8c4.408 0 8 3.584 8 8s-3.592 8-8 8zm-40 81.472V360h-16v89.472c-9.288 3.312-16 12.112-16 22.528 0 13.232 10.768 24 24 24s24-10.768 24-24c0-10.416-6.712-19.216-16-22.528zM424 480c-4.408 0-8-3.584-8-8s3.592-8 8-8c4.408 0 8 3.584 8 8s-3.592 8-8 8zM168 256h16v16h-16zm144 0h16v16h-16zm-144 96h16v16h-16zm32 0h16v16h-16zm112 96h16v16h-16zm-32 0h16v16h-16zm144-176c0 17.648-14.352 32-32 32v16c26.472 0 48-21.528 48-48h-16z"/><path d="M399.632 192.36c-1.832-19.048-10.544-36.888-24.464-50.184.52-4.664.832-9.384.832-14.176C376 57.424 318.576 0 248 0c-66.856 0-121.824 51.552-127.44 116.984-14.336 16.984-22.864 38.032-24.312 60.424C54.592 184.872 24 220.928 24 264c0 48.52 39.48 88 88 88h24v48h24v16h-24v80h224v-80h-24v-16h24v-48h32c44.112 0 80-35.888 80-80 0-41.536-31.824-75.784-72.368-79.64zM248 16c61.76 0 112 50.24 112 112s-50.24 112-112 112-112-50.24-112-112S186.24 16 248 16zm-96 272v-48h34.168c18.344 10.168 39.408 16 61.832 16s43.488-5.832 61.832-16H344v48H152zm168 16v16H176v-16h144zm-184 32h-24c-39.696 0-72-32.296-72-72 0-37.176 27.864-67.976 64.808-71.64l7.192-1.112V184c0-13.72 3.224-27.104 9.232-39.184 4.152 31.416 19.696 59.216 42.384 79.184H136v80h24v16h-24v16zm208 96v48H152v-48h192zm-168-16v-16h144v16H176zm168-32H152v-48h192v48zm48-48h-32v-16h-24v-16h24v-80h-27.624c18.496-16.28 32.232-37.76 38.936-62.184C379.464 172.776 384 186.152 384 200v8h8c35.288 0 64 28.712 64 64s-28.712 64-64 64z"/></svg>