<svg xmlns="http://www.w3.org/2000/svg" width="100" height="100" fill="#0097A7" viewBox="0 0 512 512"><path d="M119.467 162.133h-51.2c-4.713 0-8.533 3.82-8.533 8.533s3.82 8.533 8.533 8.533h51.2c4.713 0 8.533-3.82 8.533-8.533s-3.82-8.533-8.533-8.533zm0 34.134h-51.2c-4.713 0-8.533 3.82-8.533 8.533s3.82 8.533 8.533 8.533h51.2a8.533 8.533 0 0 0 0-17.066zm-25.6 51.2c-18.851 0-34.133 15.282-34.133 34.133s15.282 34.133 34.133 34.133c18.842-.022 34.112-15.291 34.133-34.133 0-18.851-15.282-34.133-34.133-34.133zm0 51.2c-9.422-.009-17.057-7.645-17.067-17.067 0-9.426 7.641-17.067 17.067-17.067s17.067 7.641 17.067 17.067c-.001 9.426-7.642 17.067-17.067 17.067zM102.4 85.333H42.667a8.533 8.533 0 0 0 0 17.066H102.4a8.533 8.533 0 0 0 0-17.066z"/><path d="M486.4 366.933c14.132-.015 25.585-11.468 25.6-25.6V68.267c-.015-14.132-11.468-25.585-25.6-25.6H366.933V25.6c-.015-14.132-11.468-25.585-25.6-25.6H170.667c-14.132.015-25.585 11.468-25.6 25.6v17.067H25.6C11.468 42.682.015 54.135 0 68.267v273.067c.015 14.132 11.468 25.585 25.6 25.6h59.733V460.8H68.267c-9.422.009-17.057 7.645-17.067 17.067H8.533C3.82 477.867 0 481.687 0 486.4s3.82 8.533 8.533 8.533H51.2c.009 9.422 7.645 17.057 17.067 17.067h51.2c9.422-.009 17.057-7.645 17.067-17.067h76.8c.009 9.422 7.645 17.057 17.067 17.067h51.2c9.422-.009 17.057-7.645 17.067-17.067h76.8c.009 9.422 7.645 17.057 17.067 17.067h51.2c9.422-.009 17.057-7.645 17.067-17.067h42.667c4.713 0 8.533-3.82 8.533-8.533s-3.82-8.533-8.533-8.533H460.8c-.009-9.422-7.645-17.057-17.067-17.067h-17.067v-93.867H486.4zM366.933 102.4h59.733a8.533 8.533 0 0 0 0-17.066h-59.733v-25.6H486.4a8.544 8.544 0 0 1 8.533 8.533V128h-128v-25.6zm-204.8-76.8a8.544 8.544 0 0 1 8.533-8.533h170.667a8.544 8.544 0 0 1 8.533 8.533v76.8H162.133V25.6zm0 93.867h187.733V384a8.544 8.544 0 0 1-8.533 8.533H170.667a8.544 8.544 0 0 1-8.533-8.533V119.467zm-145.066-51.2a8.544 8.544 0 0 1 8.533-8.533h119.467v25.6h-8.533a8.533 8.533 0 0 0 0 17.066h8.533V128h-128V68.267zm8.533 281.6a8.544 8.544 0 0 1-8.533-8.533V145.067h128v204.8H25.6zm42.667 145.066v-17.067h51.2l.006 8.503-.006.031.006.031.006 8.502H68.267zm145.066-17.066h-76.8c-.009-9.422-7.645-17.057-17.067-17.067H102.4v-93.867h42.667V384c.015 14.132 11.468 25.585 25.6 25.6h76.8v51.2H230.4c-9.422.009-17.057 7.645-17.067 17.067zm17.067 17.066v-17.067h51.2l.006 8.503-.006.031.006.031.006 8.502H230.4zm145.067-17.066h-76.8c-.009-9.422-7.645-17.057-17.067-17.067h-17.067v-51.2h76.8c14.132-.015 25.585-11.468 25.6-25.6v-17.067H409.6V460.8h-17.067c-9.421.009-17.057 7.645-17.066 17.067zm68.266 0l.006 8.503-.006.031.006.031.006 8.502h-51.213v-17.067h51.201zm-76.8-128v-204.8h128v196.267a8.544 8.544 0 0 1-8.533 8.533H366.933z"/><path d="M443.733 162.133h-51.2a8.533 8.533 0 0 0 0 17.066h51.2c4.713 0 8.533-3.82 8.533-8.533s-3.82-8.533-8.533-8.533zm0 34.134h-51.2a8.533 8.533 0 0 0 0 17.066h51.2a8.533 8.533 0 0 0 0-17.066zm-25.6 51.2c-18.851 0-34.133 15.282-34.133 34.133s15.282 34.133 34.133 34.133 34.133-15.282 34.133-34.133c-.021-18.842-15.29-34.112-34.133-34.133zm0 51.2c-9.426 0-17.067-7.641-17.067-17.067s7.641-17.067 17.067-17.067S435.2 272.174 435.2 281.6c-.009 9.422-7.645 17.057-17.067 17.067zM256 290.133c-18.851 0-34.133 15.282-34.133 34.133 0 18.851 15.282 34.133 34.133 34.133 18.851 0 34.133-15.282 34.133-34.133-.021-18.842-15.291-34.111-34.133-34.133zm0 51.2c-9.426 0-17.067-7.641-17.067-17.067S246.574 307.2 256 307.2s17.067 7.641 17.067 17.067c-.01 9.421-7.645 17.057-17.067 17.066zm213.333-256H460.8a8.533 8.533 0 0 0 0 17.066h8.533a8.533 8.533 0 0 0 0-17.066zM281.6 51.2h-93.867c-4.713 0-8.533 3.82-8.533 8.533s3.82 8.533 8.533 8.533H281.6c4.713 0 8.533-3.82 8.533-8.533s-3.82-8.533-8.533-8.533zm42.667 0h-8.533c-4.713 0-8.533 3.82-8.533 8.533s3.82 8.533 8.533 8.533h8.533a8.533 8.533 0 0 0 0-17.066zM213.333 153.6h85.333a8.533 8.533 0 0 0 0-17.066h-85.333a8.533 8.533 0 0 0 0 17.066zm0 34.133h85.333c4.713 0 8.533-3.82 8.533-8.533s-3.82-8.533-8.533-8.533h-85.333a8.533 8.533 0 0 0 0 17.066zm0 34.134h85.333a8.533 8.533 0 0 0 0-17.066h-85.333a8.533 8.533 0 0 0 0 17.066z"/></svg>