<svg xmlns="http://www.w3.org/2000/svg" width="120" height="120" viewBox="0 0 512 512"><circle cx="256" cy="256" r="256" fill="#6fb1e1"/><path d="M323.62 405.448c0 21.652-29.372 39.204-65.608 39.204s-65.608-17.552-65.608-39.204v-15.512h131.212v15.512h.004z" fill="#e8bb20"/><ellipse cx="258" cy="389.92" rx="65.608" ry="39.204" fill="#f5ea07"/><path d="M323.62 380.448c0 21.652-29.372 39.204-65.608 39.204s-65.608-17.552-65.608-39.204v-15.512h131.212v15.512h.004z" fill="#e8bb20"/><ellipse cx="258" cy="364.92" rx="65.608" ry="39.204" fill="#f5ea07"/><path d="M323.62 355.448c0 21.652-29.372 39.204-65.608 39.204s-65.608-17.552-65.608-39.204v-15.512h131.212v15.512h.004z" fill="#e8bb20"/><ellipse cx="258" cy="339.94" rx="65.608" ry="39.204" fill="#f5ea07"/><path d="M323.62 330.452c0 21.652-29.372 39.204-65.608 39.204s-65.608-17.552-65.608-39.204V314.94h131.212v15.512h.004z" fill="#e8bb20"/><ellipse cx="258" cy="314.92" rx="65.608" ry="39.204" fill="#f5ea07"/><path d="M323.62 305.452c0 21.652-29.372 39.204-65.608 39.204s-65.608-17.552-65.608-39.204V289.94h131.212v15.512h.004z" fill="#e8bb20"/><ellipse cx="258" cy="289.96" rx="65.608" ry="39.204" fill="#f5ea07"/><path d="M258.012 320.98c-30.996 0-56.22-13.924-56.22-31.036s25.22-31.036 56.22-31.036 56.22 13.924 56.22 31.036-25.224 31.036-56.22 31.036zm0-56.6c-25.532 0-46.304 11.468-46.304 25.564s20.772 25.564 46.304 25.564 46.304-11.468 46.304-25.564-20.772-25.564-46.304-25.564zm213.86 141.068c0 21.652-29.372 39.204-65.608 39.204s-65.608-17.552-65.608-39.204v-15.512h131.212v15.512h.004z" fill="#e8bb20"/><ellipse cx="406.28" cy="389.92" rx="65.608" ry="39.204" fill="#f5ea07"/><path d="M471.872 380.448c0 21.652-29.372 39.204-65.608 39.204s-65.608-17.552-65.608-39.204v-15.512h131.212v15.512h.004z" fill="#e8bb20"/><ellipse cx="406.28" cy="364.92" rx="65.608" ry="39.204" fill="#f5ea07"/><path d="M471.872 355.448c0 21.652-29.372 39.204-65.608 39.204s-65.608-17.552-65.608-39.204v-15.512h131.212v15.512h.004z" fill="#e8bb20"/><ellipse cx="406.28" cy="339.94" rx="65.608" ry="39.204" fill="#f5ea07"/><path d="M471.872 330.452c0 21.652-29.372 39.204-65.608 39.204s-65.608-17.552-65.608-39.204V314.94h131.212v15.512h.004z" fill="#e8bb20"/><ellipse cx="406.28" cy="314.92" rx="65.608" ry="39.204" fill="#f5ea07"/><path d="M471.872 305.452c0 21.652-29.372 39.204-65.608 39.204s-65.608-17.552-65.608-39.204V289.94h131.212v15.512h.004z" fill="#e8bb20"/><ellipse cx="406.28" cy="289.96" rx="65.608" ry="39.204" fill="#f5ea07"/><path d="M471.872 280.456c0 21.652-29.372 39.204-65.608 39.204s-65.608-17.552-65.608-39.204v-15.512h131.212v15.512h.004z" fill="#e8bb20"/><ellipse cx="406.28" cy="264.96" rx="65.608" ry="39.204" fill="#f5ea07"/><path d="M471.872 255.456c0 21.652-29.372 39.204-65.608 39.204s-65.608-17.552-65.608-39.204v-15.512h131.212v15.512h.004z" fill="#e8bb20"/><ellipse cx="406.28" cy="239.948" rx="65.608" ry="39.204" fill="#f5ea07"/><path d="M471.872 230.46c0 21.652-29.372 39.204-65.608 39.204s-65.608-17.552-65.608-39.204v-15.512h131.212v15.512h.004z" fill="#e8bb20"/><ellipse cx="406.28" cy="214.948" rx="65.608" ry="39.204" fill="#f5ea07"/><path d="M406.26 245.984c-30.996 0-56.22-13.924-56.22-31.036s25.22-31.036 56.22-31.036 56.22 13.924 56.22 31.036-25.22 31.036-56.22 31.036zm0-56.6c-25.532 0-46.304 11.468-46.304 25.564s20.772 25.564 46.304 25.564 46.304-11.468 46.304-25.564-20.768-25.564-46.304-25.564zM171.344 405.448c0 21.652-29.372 39.204-65.608 39.204S40.128 427.1 40.128 405.448v-15.512H171.34v15.512h.004z" fill="#e8bb20"/><ellipse cx="105.736" cy="389.92" rx="65.608" ry="39.204" fill="#f5ea07"/><path d="M171.344 380.448c0 21.652-29.372 39.204-65.608 39.204S40.128 402.1 40.128 380.448v-15.512H171.34v15.512h.004z" fill="#e8bb20"/><ellipse cx="105.736" cy="364.92" rx="65.608" ry="39.204" fill="#f5ea07"/><path d="M171.344 355.448c0 21.652-29.372 39.204-65.608 39.204S40.128 377.1 40.128 355.448v-15.512H171.34v15.512h.004z" fill="#e8bb20"/><ellipse cx="105.736" cy="339.94" rx="65.608" ry="39.204" fill="#f5ea07"/><path d="M105.736 370.976c-30.996 0-56.22-13.924-56.22-31.036s25.22-31.036 56.22-31.036 56.22 13.924 56.22 31.036-25.224 31.036-56.22 31.036zm0-56.6c-25.532 0-46.304 11.468-46.304 25.564s20.772 25.564 46.304 25.564 46.304-11.468 46.304-25.564-20.772-25.564-46.304-25.564z" fill="#e8bb20"/><g fill="#f1592f"><path d="M99.188 269.78a9.23 9.23 0 0 1 0-13.052l63.384-63.384c15.724-15.728 41.184-15.728 56.908 0l16.204 16.204c8.492 8.492 22.312 8.492 30.808 0l95.232-95.232c8.616-8.624 21.684 4.42 13.052 13.052L279.544 222.6c-15.688 15.688-41.22 15.692-56.908 0l-16.204-16.208c-8.492-8.488-22.312-8.488-30.808 0L112.24 269.78a9.23 9.23 0 0 1-13.052 0z"/><path d="M386.572 96.488l-63.152 9.184c-3.316.48-4.66 4.536-2.292 6.908l53.972 53.972c2.368 2.368 6.424 1.024 6.908-2.292l9.184-63.152c.384-2.7-1.928-5.012-4.62-4.62z"/></g></svg>