<svg xmlns="http://www.w3.org/2000/svg" width="100" height="100" fill="#0097A7" viewBox="0 0 60 60"><path d="M59 52.5v-4h-2v-2c0-1.103-.897-2-2-2v-16c1.103 0 2-.897 2-2v-2h2.618l-3-6h-6.877l-2.024-6H46.43c-.703-6.15-7.797-11-16.43-11-8.699 0-15.847 4.85-16.555 11h-1.163l-2.024 6H3.382l-3 6H3v2c0 1.103.897 2 2 2v16c-1.103 0-2 .897-2 2v2H1v4H0v6h60v-6h-1zm-4-26c-1.103 0-2 .897-2 2v16c0 1.103.897 2 2 2v2h-6v-2c1.103 0 2-.897 2-2v-16c0-1.103-.897-2-2-2v-2h6v2zm-44 18v-16c1.103 0 2-.897 2-2v-2h1v2c0 1.103.897 2 2 2v16c-1.103 0-2 .897-2 2v2h-1v-2c0-1.103-.897-2-2-2zm5 2c1.103 0 2-.897 2-2v-16c0-1.103-.897-2-2-2v-2h6v2c-1.103 0-2 .897-2 2v16c0 1.103.897 2 2 2v2h-6v-2zm6-2v-16c1.103 0 2-.897 2-2v-2h1v2c0 1.103.897 2 2 2v16c-1.103 0-2 .897-2 2v2h-1v-2c0-1.103-.897-2-2-2zm5 2c1.103 0 2-.897 2-2v-16c0-1.103-.897-2-2-2v-2h6v2c-1.103 0-2 .897-2 2v16c0 1.103.897 2 2 2v2h-6v-2zm6-2v-16c1.103 0 2-.897 2-2v-2h1v2c0 1.103.897 2 2 2v16c-1.103 0-2 .897-2 2v2h-1v-2c0-1.103-.897-2-2-2zm5 2c1.103 0 2-.897 2-2v-16c0-1.103-.897-2-2-2v-2h6v2c-1.103 0-2 .897-2 2v16c0 1.103.897 2 2 2v2h-6v-2zm6-2v-16c1.103 0 2-.897 2-2v-2h1v2c0 1.103.897 2 2 2v16c-1.103 0-2 .897-2 2v2h-1v-2c0-1.103-.897-2-2-2zM15.674 15.638l-2.908 1.684.951-2.822h3.923l-1.966 1.138zm1.631 1.368L30 9.655 45.276 18.5H14.724l2.581-1.494zm29.928.316l-2.908-1.684-1.966-1.138h3.923l.951 2.822zM30 3.5c7.506 0 13.698 3.954 14.428 9h-5.522L30 7.345 21.095 12.5h-5.644c.761-4.973 7.114-9 14.549-9zm-25.382 17h6.218l.219.124.215-.124h37.497l.228.117.192-.117h6.196l1 2H3.618l1-2zM5 46.5c1.103 0 2-.897 2-2v-16c0-1.103-.897-2-2-2v-2h6v2c-1.103 0-2 .897-2 2v16c0 1.103.897 2 2 2v2H5v-2zm-2 4h54v2H3v-2zm55 6H2v-2h56v2z"/></svg>