<svg xmlns="http://www.w3.org/2000/svg" width="100" height="100" fill="#0097A7" viewBox="0 0 512 512"><path d="M502 .007H10.013c-5.522 0-10 4.477-10 10V384.08c0 5.522 4.478 10 10 10h18.031a78.724 78.724 0 0 0-8.069 34.775v28.126c0 .408.032.807.079 1.202C7.783 468.828 0 484.514 0 501.994c0 5.522 4.478 10 10 10h347.337c5.522 0 10-4.478 10-10v-40.062c0-5.522-4.478-10-10-10h-43.682v-23.077a78.72 78.72 0 0 0-8.069-34.775H502c5.522 0 10-4.478 10-10V10.006c0-5.523-4.478-9.999-10-9.999zM347.337 471.932v20.063h-23.182a49.867 49.867 0 0 0-9.054-20.063h32.236zM20.013 374.08v-54.082h39.785c-2.009 13.455-3.053 27.044-3.053 40.614v1.623a78.813 78.813 0 0 0-14.628 11.85c-.035 0-.07-.005-.105-.005H20.013zm36.732 13.649v56.293a57.681 57.681 0 0 0-16.771 2.852v-18.018c0-15.666 6.164-30.325 16.771-41.127zm169.296 104.265H21.334c4.4-16.121 19.174-28.005 36.67-28.005a37.68 37.68 0 0 1 15.378 3.253 9.998 9.998 0 0 0 13.56-6.027c12.318-37.618 47.207-62.893 86.817-62.893 35.161 0 66.615 19.632 82.088 51.232a10.04 10.04 0 0 0 1.038 1.676v4.149c-15.611 6.12-27.432 19.852-30.844 36.615zm29.574-246.2h-3.727c-.761-1.669-1.518-3.339-2.313-4.992-3.938-8.192-8.318-16.181-13.061-23.954l19.1-19.101v48.047zm1.27 114.843v54.946a111.795 111.795 0 0 0-23.399-19.901c-17.837-11.358-38.489-17.361-59.727-17.361-40.854 0-77.582 22.066-97.016 56.638v-74.347c0-75.667 32.721-146.354 90.057-195.207 57.353 48.853 90.085 119.551 90.085 195.232zm-10.138 131.357c4.13-11.676 15.279-20.063 28.352-20.063 13.074 0 24.222 8.387 28.352 20.063h-56.704zm68.849-226.201l.019.001.019-.001h99.958l.019.001.019-.001h76.368v34.206H270.102a279.066 279.066 0 0 0-10.037-34.206h55.531zm-39.98-19.999v-68.046l29.999-29.999v98.045h-29.999zm49.999 0V132.722l29.999 29.999v83.073h-29.999zm49.998 0v-87.016l29.999-29.999v117.015h-29.999zm-98.728 206.139v-64.205a57.918 57.918 0 0 1 2.419 2.639c.054.067.111.131.166.196a58.588 58.588 0 0 1 14.186 38.292v23.077h-16.771zm14.622-77.853a78.755 78.755 0 0 0-14.623-11.845v-1.598c0-13.579-1.045-27.176-3.057-40.639H492v54.082H291.507zM492 245.794h-16.39v-72.291c0-5.523-4.478-10-10-10s-10 4.477-10 10v72.291h-29.999V111.172c0-.74-.086-1.459-.239-2.153l30.238-30.238v11.934c0 5.523 4.478 10 10 10s10-4.477 10-10V54.639c0-5.523-4.478-10-10-10h-36.075c-5.522 0-10 4.477-10 10s4.478 10 10 10h11.933l-77.827 77.827-33.441-33.443c-3.906-3.905-10.236-3.905-14.143 0L225.26 199.82c-14.797-20.672-32.416-39.353-52.217-55.188a10 10 0 0 0-12.493.001c-32.192 25.753-58.648 59.007-76.508 96.165-9.05 18.83-15.929 38.76-20.521 59.202H20.013V20.007H492v225.787z"/><path d="M166.814 245.794c-31.98 0-57.999 26.018-57.999 57.999 0 31.98 26.018 57.998 57.999 57.998 31.98 0 57.998-26.018 57.998-57.998 0-31.98-26.018-57.999-57.998-57.999zm0 95.998c-20.953 0-37.999-17.047-37.999-37.999s17.047-38 37.999-38 37.999 17.048 37.999 38-17.047 37.999-37.999 37.999zM142.768 90.493H50.771c-5.522 0-10 4.477-10 10s4.478 10 10 10h91.998c5.522 0 10-4.477 10-10-.001-5.523-4.479-10-10.001-10zm-7.899 42.93c-1.859-1.86-4.439-2.93-7.069-2.93s-5.21 1.07-7.07 2.93c-1.86 1.86-2.93 4.44-2.93 7.07s1.069 5.21 2.93 7.07c1.86 1.86 4.44 2.93 7.07 2.93s5.21-1.07 7.069-2.93c1.87-1.86 2.931-4.44 2.931-7.07s-1.061-5.21-2.931-7.07zm-50.463-2.931H50.771c-5.522 0-10 4.477-10 10s4.478 10 10 10h33.635c5.522 0 10-4.477 10-10s-4.478-10-10-10zm21.697-79.998H50.771c-5.522 0-10 4.477-10 10s4.478 10 10 10h55.333c5.522 0 10-4.477 10-10s-4.479-10-10.001-10zm366.577 82.929a10.076 10.076 0 0 0-7.07-2.93c-2.63 0-5.21 1.07-7.069 2.93-1.86 1.86-2.931 4.44-2.931 7.07s1.07 5.21 2.931 7.07a10.072 10.072 0 0 0 7.069 2.93c2.631 0 5.21-1.07 7.07-2.93 1.86-1.86 2.93-4.44 2.93-7.07s-1.069-5.21-2.93-7.07z"/></svg>