<svg xmlns="http://www.w3.org/2000/svg" width="100" height="100" fill="#1fa1af" viewBox="0 0 512 512"><path d="M469.984.008H159.981c-5.523 0-10 4.478-10 10s4.477 10 10 10h274.247a41.736 41.736 0 0 0-6.242 21.999v130.982c0 5.522 4.477 10 10 10s10-4.478 10-10v-30.985h53.998c5.523 0 10-4.478 10-10V42.007c-.001-23.158-18.841-41.999-42-41.999zm22 121.996h-43.999V42.007c0-12.131 9.869-21.999 21.999-21.999s21.999 9.869 21.999 21.999v79.997zm9.088 285.52l-65.32-65.32c7.538-15.374 11.778-32.645 11.778-50.89 0-63.961-52.036-115.996-115.996-115.996s-115.996 52.035-115.996 115.996c0 14.623 2.727 28.62 7.688 41.518l-11.705 11.705-48.143-48.144a10.001 10.001 0 0 0-14.142 0l-11.255 11.255v-91.312c0-5.522-4.477-10-10-10s-10 4.478-10 10v111.312l-90.415 90.416c-3.905 3.905-3.905 10.237 0 14.143 1.953 1.952 4.512 2.929 7.071 2.929s5.119-.977 7.071-2.929l76.273-76.273v72.064H73.989c-5.523 0-10 4.478-10 10v31.999c0 23.158 18.84 41.999 41.999 41.999h299.998c23.159 0 42-18.841 42-42.001v-8.585c6.996 6.791 16.218 10.525 26.067 10.525l.188-.001c10.072-.049 19.533-3.991 26.643-11.101 14.748-14.751 14.833-38.664.188-53.309zM331.533 195.317c52.933 0 95.997 43.064 95.997 95.997s-43.064 95.997-95.997 95.997c-36.348 0-68.041-20.306-84.333-50.169l57.79-57.79v22.687c0 5.522 4.477 10 10 10s10-4.478 10-10v-47.992c0-5.522-4.477-10-10-10h-47.993c-5.523 0-10 4.478-10 10s4.477 10 10 10h25.015l-52.974 52.974a95.744 95.744 0 0 1-3.501-25.706c-.001-52.935 43.063-95.998 95.996-95.998zM105.987 491.993c-12.131-.001-21.999-9.87-21.999-22v-21.999h279.997v12c0 .327.018.65.049.969a10.01 10.01 0 0 0-.049.969v8.061a41.732 41.732 0 0 0 6.243 22.001H105.987zm321.999-22.003c0 12.133-9.87 22.002-22 22.002-12.132 0-22.001-9.87-22.001-22.001v-8.061c0-.327-.018-.65-.049-.969.031-.319.049-.642.049-.969v-21.999c0-5.522-4.477-10-10-10H137.981V335.93l18.325-18.325 48.143 48.144a10.001 10.001 0 0 0 14.142 0l13.982-13.982c20.41 33.288 57.134 55.542 98.96 55.542 18.157 0 35.352-4.198 50.669-11.668l45.784 45.784v28.565zm58.756-23.303c-3.358 3.358-7.833 5.221-12.599 5.243l-.089.001c-4.696 0-9.074-1.794-12.335-5.056l-61.876-61.876a116.996 116.996 0 0 0 25.237-25.185l61.85 61.85c6.847 6.848 6.763 18.074-.188 25.023z"/><path d="M394.846 281.315c-5.523 0-10 4.478-10 10 0 29.396-23.916 53.312-53.313 53.312-5.523 0-10 4.477-10 10 0 5.522 4.477 10 10 10 40.425 0 73.313-32.888 73.313-73.312 0-5.522-4.477-10-10-10zM256.118 172.003h-9.127v-66.998c0-5.522-4.477-10-10-10h-45.922c-5.523 0-10 4.478-10 10v66.998h-16.076V64.006c0-5.522-4.477-10-10-10h-43.999c-5.523 0-10 4.478-10 10v107.996H84.997v-43.999c0-5.522-4.477-10-10-10H30.999c-5.523 0-10 4.478-10 10v43.999H10c-5.523 0-10 4.478-10 10s4.477 10 10 10h246.119c5.523 0 10-4.478 10-10-.001-5.522-4.478-9.999-10.001-9.999zm-191.12 0H40.999v-33.999h23.999v33.999zm79.997 0h-23.999V74.006h23.999v97.997zm81.997 0H201.07v-56.998h25.922v56.998zM337.451 54.006h-77.459c-5.523 0-10 4.478-10 10s4.477 10 10 10h77.459c5.523 0 10-4.478 10-10-.001-5.522-4.477-10-10-10zm56.536 2.929a10.076 10.076 0 0 0-7.07-2.93c-2.63 0-5.21 1.069-7.07 2.93a10.077 10.077 0 0 0-2.93 7.07c0 2.63 1.07 5.21 2.93 7.069a10.077 10.077 0 0 0 7.07 2.931c2.63 0 5.21-1.07 7.07-2.931a10.072 10.072 0 0 0 2.93-7.069 10.08 10.08 0 0 0-2.93-7.07zm-95.266 41.07h-16.397c-5.523 0-10 4.478-10 10s4.477 10 10 10h16.397c5.523 0 10-4.478 10-10s-4.477-10-10-10zm88.194 0h-49.464c-5.523 0-10 4.478-10 10s4.477 10 10 10h49.464c5.523 0 10-4.478 10-10s-4.477-10-10-10zM17.079 442.694a10.077 10.077 0 0 0-7.07-2.931c-2.64 0-5.21 1.07-7.07 2.931a10.029 10.029 0 0 0-2.93 7.069c0 2.63 1.06 5.21 2.93 7.07 1.86 1.86 4.43 2.93 7.07 2.93 2.63 0 5.2-1.069 7.07-2.93 1.86-1.86 2.93-4.44 2.93-7.07 0-2.631-1.07-5.211-2.93-7.069z"/></svg>