<svg xmlns="http://www.w3.org/2000/svg" width="100" height="100" viewBox="0 0 512 512"><path d="M104.727 383.851h34.909c6.982 0 11.636-4.655 11.636-11.636v-23.273h-46.545v34.909z" fill="#0261a5"/><path d="M465.455 209.306c25.6 0 46.545 20.945 46.545 46.545s-20.945 46.545-46.545 46.545v-93.09z" fill="#99b4cd"/><path d="M465.455 279.124v23.273c25.6 0 46.545-20.945 46.545-46.545 0-3.491-1.164-8.145-1.164-11.636-5.818 19.78-23.272 34.908-45.381 34.908z" fill="#6c9abb"/><path d="M34.909 302.396H11.636C4.655 302.396 0 297.742 0 290.76v-69.818c0-6.982 4.655-11.636 11.636-11.636h23.273v93.09z" fill="#d5e3ef"/><path d="M23.273 209.306v46.545c0 6.982-4.655 11.636-11.636 11.636H0v23.273c0 6.982 4.655 11.636 11.636 11.636h23.273v-93.091H23.273z" fill="#b0c4d9"/><path d="M197.818 348.942H46.545c-6.982 0-11.636-4.655-11.636-11.636v-162.91c0-6.982 4.655-11.636 11.636-11.636h151.273c6.982 0 11.636 4.655 11.636 11.636v162.909c.001 6.982-4.654 11.637-11.636 11.637z" fill="#4c9cd6"/><path d="M197.818 162.76c-6.982 0-11.636 4.655-11.636 11.636v104.727c0 6.982-4.655 11.636-11.636 11.636h-128c-6.982 0-11.636 4.655-11.636 11.636v34.909c0 6.982 4.655 11.636 11.636 11.636h151.273c6.982 0 11.636-4.655 11.636-11.636V174.396c0-6.981-4.655-11.636-11.637-11.636z" fill="#3689c9"/><path d="M418.909 418.76l-2.327-2.327c-54.691-58.182-129.164-90.764-207.127-90.764V186.033c77.964 0 152.436-32.582 207.127-90.764l2.327-2.327V418.76z" fill="#d5e3ef"/><path d="M320 191.851c-2.327 0-4.655-1.164-5.818-3.491-1.164-3.491 1.164-5.818 3.491-6.982 27.927-9.309 54.691-25.6 75.636-47.709 2.327-2.327 5.818-2.327 8.145 0s2.327 5.818 0 8.145c-22.109 23.273-50.036 41.891-80.291 51.2.001-1.163.001-1.163-1.163-1.163z" fill="#fff"/><path d="M232.727 267.487v-59.345c0-12.8-10.473-22.109-23.273-22.109v139.636c77.964 0 152.436 32.582 207.127 90.764l2.327 2.327v-76.8c-46.545-37.236-103.564-48.873-164.073-50.036-12.799-1.164-22.108-11.637-22.108-24.437z" fill="#b0c4d9"/><path d="M442.182 442.033c-12.8 0-23.273-10.473-23.273-23.273V92.942c0-12.8 10.473-23.273 23.273-23.273 12.8 0 23.273 10.473 23.273 23.273V418.76c0 12.8-10.473 23.273-23.273 23.273z" fill="#4c9cd6"/><path d="M95.418 442.033c-8.145 0-13.964-5.818-13.964-13.964v-79.127h58.182l-31.418 83.782c-2.327 5.818-6.982 9.309-12.8 9.309z" fill="#3689c9"/><path d="M81.455 348.942v11.636h5.818c15.127 0 25.6 13.964 23.273 27.927L98.91 440.869c3.491-1.164 6.982-4.655 8.145-8.145l32.582-83.782H81.455z" fill="#1470b8"/><path d="M442.182 69.669v314.182c0 12.8-10.473 23.273-23.273 23.273v10.473c0 11.636 8.145 22.109 19.782 24.436 15.127 2.327 26.764-9.309 26.764-23.273V92.942c0-12.8-10.473-23.273-23.273-23.273z" fill="#3689c9"/><path d="M430.545 267.487c-6.982 0-11.636-4.655-11.636-11.636V116.215c0-6.982 4.655-11.636 11.636-11.636 6.982 0 11.636 4.655 11.636 11.636v139.636c.001 6.982-4.654 11.636-11.636 11.636z" fill="#70b7e5"/><path d="M453.818 407.124c-6.982 0-11.636-4.655-11.636-11.636v-81.455c0-6.982 4.655-11.636 11.636-11.636 6.982 0 11.636 4.655 11.636 11.636v81.455c.001 6.981-4.654 11.636-11.636 11.636zM87.273 220.942h69.818c3.491 0 5.818 2.327 5.818 5.818 0 3.491-2.327 5.818-5.818 5.818H87.273c-3.491 0-5.818-2.327-5.818-5.818 0-3.491 2.327-5.818 5.818-5.818z" fill="#1470b8"/><path d="M52.364 174.396h69.818c3.491 0 5.818 2.327 5.818 5.818 0 3.491-2.327 5.818-5.818 5.818H52.364c-3.491 0-5.818-2.327-5.818-5.818-.001-3.49 2.327-5.818 5.818-5.818z" fill="#70b7e5"/><path d="M87.273 244.215h69.818c3.491 0 5.818 2.327 5.818 5.818 0 3.491-2.327 5.818-5.818 5.818H87.273c-3.491 0-5.818-2.327-5.818-5.818 0-3.491 2.327-5.818 5.818-5.818zm0 23.272h69.818c3.491 0 5.818 2.327 5.818 5.818 0 3.491-2.327 5.818-5.818 5.818H87.273c-3.491 0-5.818-2.327-5.818-5.818 0-3.49 2.327-5.818 5.818-5.818z" fill="#1470b8"/><path d="M145.455 186.033c-3.491 0-5.818-2.327-5.818-5.818 0-3.491 2.327-5.818 5.818-5.818 3.491 0 5.818 2.327 5.818 5.818 0 3.491-2.328 5.818-5.818 5.818z" fill="#70b7e5"/></svg>