<svg xmlns="http://www.w3.org/2000/svg" width="100" height="100" fill="#0097A7" viewBox="0 0 480 480"><path d="M232 400h16v16h-16z"/><path d="M472 416h-8V128c0-17.673-14.327-32-32-32h-48V32c0-17.673-14.327-32-32-32H128c-17.673 0-32 14.327-32 32v64H48c-17.673 0-32 14.327-32 32v288H8a8 8 0 0 0-8 8v24c0 17.673 14.327 32 32 32h416c17.673 0 32-14.327 32-32v-24a8 8 0 0 0-8-8zM112 32c0-8.837 7.163-16 16-16h224c8.837 0 16 7.163 16 16v32H112V32zm0 48h256v232c0 8.837-7.163 16-16 16H128c-8.837 0-16-7.163-16-16V80zm16 264h224c17.673 0 32-14.327 32-32V144h32v224H64V144h32v168c0 17.673 14.327 32 32 32zM32 128c0-8.837 7.163-16 16-16h48v16H56a8 8 0 0 0-8 8v240a8 8 0 0 0 8 8h368a8 8 0 0 0 8-8V136a8 8 0 0 0-8-8h-40v-16h48c8.837 0 16 7.163 16 16v288H312a8 8 0 0 0-5.656 2.336L292.688 432H187.312l-13.656-13.664A8 8 0 0 0 168 416H32V128zm432 320c0 8.837-7.163 16-16 16H32c-8.837 0-16-7.163-16-16v-16h148.688l13.656 13.656A8 8 0 0 0 184 448h112a8 8 0 0 0 5.656-2.344L315.312 432H464v16z"/><path d="M136 256h208v16H136zm0 32h192v16H136zm48-64h160v16H184zM128 32h16v16h-16zm32 0h16v16h-16zm32 0h16v16h-16zm-40 192h16v16h-16zm60.8-89.6l-9.6-12.8-32 24a8 8 0 0 0 0 12.8l32 24 9.6-12.8-23.464-17.6 23.464-17.6zm97.6 12.8a8.032 8.032 0 0 0-1.6-1.6l-32-24-9.6 12.8 23.464 17.6-23.464 17.6 9.6 12.8 32-24a8 8 0 0 0 1.6-11.2zm-93.828 41.836l32.008-79.99 14.855 5.943-32.009 79.991z"/></svg>