<svg xmlns="http://www.w3.org/2000/svg" width="120" height="120" viewBox="0 0 512 512"><circle cx="256" cy="256" r="256" fill="#70b1e1"/><path d="M190.38 202.552c-2.568 6.136-3.72 12.356-5.068 19.016-1.72 8.396-8.136 15.076-10.88 23.148-5.244 15.36-3.004 31.436-.48 47.104H121.98c.412-5.048-2.152-9.944-8.768-10.988a36.522 36.522 0 0 1-2.676-.436c.588-.348.588-1.48-.02-3.48.132-4.568-.48-9.008-1.412-13.468-1.784-8.396.196-15.992-3.592-24.084-2.96-6.332-8.788-7.352-13.748-5.308v-26.152c2.416-1.304 4.568-2.544 6.396-3.7a39.931 39.931 0 0 0 3.112-2.112 26.243 26.243 0 0 0 2.328-1.98 27.258 27.258 0 0 0 6.308-8.572c5.352-11.38 1.652-23.408 1.652-23.408h67.9s-3.48 11.268 1.196 22.344a27.575 27.575 0 0 0 4.024 6.724 29.454 29.454 0 0 0 5.068 4.896c.196.152.436.304.632.456z" fill="#e8e7e8"/><path d="M174.832 221.412c2.876-3.088 7.212-4.072 11.16-3.208 1.104-5.404 2.256-10.56 4.392-15.656-.212-.152-.444-.304-.636-.452a29.454 29.454 0 0 1-5.068-4.896 27.45 27.45 0 0 1-4.024-6.724c-4.676-11.072-1.196-22.344-1.196-22.344h-67.904s3.7 12.032-1.652 23.408a27.258 27.258 0 0 1-6.308 8.572c-.72.696-1.5 1.348-2.328 1.98a39.931 39.931 0 0 1-3.112 2.112c-1.816 1.152-3.984 2.4-6.384 3.704v11.596c1.952-3.004 4.768-5.832 8.556-8.42 6.588-4.5 12.952-1.28 15.944 4.124 6.112-3.136 14.124-1.856 16.064 6.104a12.975 12.975 0 0 1 4.272.24c3.308.724 8.548 4.416 11.86 3.508 5.192-1.424 9.948-3.968 15.132-5.412 4.464-1.248 8.16-.072 10.772 2.3.156-.176.3-.36.46-.536z" fill="#f0b97c"/><path d="M115.528 278.408c-.02-3.176-.252-6.344-.272-9.52-.004-.72.068-1.424.192-2.112a6.643 6.643 0 0 1-.304-1.188 56.34 56.34 0 0 1-.612-7.58h-3.18v-8.196c-2.276-2.216-3.712-5.296-3.712-8.664 0-.472.016-.94.02-1.412-2.168-2.336-3.956-5.44-4.48-8.416a19.84 19.84 0 0 1-.328-3.264 10.802 10.802 0 0 1-1.44-1.996c-.868-1.584-1.576-3.312-2-5.076a36.832 36.832 0 0 0-.292-1.144 11.809 11.809 0 0 1-.828-2.896c-.732-1.144-1.3-2.504-1.64-4.12-.572-2.748-.668-5.18-.432-7.448-3.04 1.816-6.728 3.804-10.92 5.872-14.208 7.116-33.7 15.36-49.3 21.692-15.728 6.396-26 21.648-26 38.616v20.256h113.86v-1.908c-4.8-1.616-8.3-6.204-8.332-11.496zm59.964 0c.02-3.176.252-6.344.272-9.52.004-.72-.068-1.424-.192-2.112.136-.392.244-.788.304-1.188.388-2.6.576-5.084.612-7.58h3.18v-8.196c2.276-2.216 3.712-5.296 3.712-8.664 0-.472-.016-.94-.02-1.412 2.168-2.336 3.956-5.44 4.48-8.416.2-1.12.316-2.204.328-3.264.54-.604 1.036-1.26 1.44-1.996.868-1.584 1.576-3.312 2-5.076.092-.384.188-.764.292-1.144.404-.932.672-1.896.828-2.896.732-1.144 1.3-2.504 1.64-4.12.572-2.748.668-5.18.432-7.448 3.04 1.816 6.728 3.804 10.92 5.872 14.208 7.116 33.7 15.36 49.3 21.692 15.728 6.396 26 21.648 26 38.616v20.256H167.156v-1.908c4.8-1.616 8.3-6.204 8.336-11.496z" fill="#4d535f"/><path fill="#5f87c4" d="M166.972 291.82h-44.864l13.512-52.652h15.556z"/><path d="M136.928 249.764s-18.832-3.74-6.996-31.152l14.324-9.032 11.22 4.516 8.1 13.864s-5.34 23.6-18.068 21.808h-8.58v-.004z" fill="#70b1e1"/><g fill="#f7cfa3"><path d="M88.1 117.624c0 41.232 24.776 74.656 55.34 74.656s55.34-33.424 55.34-74.656l-6.3-34.384s-13.424-10.412-15.344-12.328-20.82-6.3-20.82-6.3l-42.264 2.74-15.54 13.152-5.204 19.452-5.208 17.668z"/><path d="M98.012 150.168c-10.804 4.08-24.184-31.364-13.38-35.444s24.184 31.364 13.38 35.444zm91.004-20.82c-3.696 9.788-3.016 19.108 1.512 20.816 10.804 4.08 24.184-31.364 13.38-35.444-4.532-1.708-11.196 4.84-14.892 14.628z"/></g><path d="M144.256 209.58l-21.8 31.764-24.3-37.14a39.931 39.931 0 0 0 3.112-2.112c4.156-3.156 6.876-6.808 8.636-10.552l34.352 18.04zm46.864-6.504l-25.04 38.268-21.82-31.764 36.4-19.104c1.72 4.092 4.548 8.16 9.092 11.62.412.328.868.652 1.368.98z" fill="#fdfeff"/><path d="M132.748 291.82h-27.696l-18.428-34.572 17.752-13.708-21.496 2.176 2.416-34.46c5.112-2.524 9.528-4.94 12.856-7.048a39.931 39.931 0 0 0 3.112-2.112 26.243 26.243 0 0 0 2.328-1.98l29.156 91.704zm50.236-48.276l17.752 13.708-18.428 34.572h-27.696L184.68 197.2a29.454 29.454 0 0 0 5.068 4.896c.412.328.872.652 1.372.98 2.696 1.848 6.416 3.98 10.812 6.264l2.544 36.376-21.492-2.172zM174.96 77.6s24.604 3.668 15.004 50.844h7s13.604-33.24 2-53.844l-24.004 3z" fill="#656d7a"/><path d="M204.316 74.388s-35.548 44.072-102.264 9.252c0 0-14.852 8.28-5.6 44.8h-8.524s-10.312-37.476-.648-52.696c0 0-6.68-7.356-4.136-14.86 0 0 3.484 7.068 8.392 8.8 0 0-9.592-10.532-1.732-21.424 0 0 .144 10.82 6.852 13.776 0 .004 53.9-55.252 107.66 12.352z" fill="#4d535f"/><path d="M134.84 118.976c-.84 6.244-6.264 18.092-19.336 18.092h-3.832c-6.584 0-12.116-4.396-13.072-12.572v-9.672s-.284-8.872 11.604-8.36h12.008s10.86 1.08 12.628 7.108v5.404zm53.136-4.152v9.672c-.948 8.144-6.456 12.572-13.068 12.572h-3.836c-11.572 0-18.224-9.808-19.336-18.092v-5.404c1.764-6.028 12.632-7.108 12.632-7.108h12c11.892-.512 11.608 8.36 11.608 8.36z" fill="#fdfeff"/><path d="M158.012 105.028c-9.592 2.484-20.192 2.46-29.692 0-18.94-4.9-44.484 1.796-44.484 1.796l.716 5.168c2.44-.228 4.308.08 5.692.584a5.612 5.612 0 0 1 3.676 4.896l.324 4.856c1.264 17.44 15.5 16.796 15.5 16.796h8.152c13.364 0 19.816-12.668 20.756-18.896.812-5.328 4.512-5.652 4.512-5.652s3.7.324 4.504 5.652c.936 6.144 7.28 18.896 21.264 18.896h7.644s14.236.644 15.508-16.796l.324-4.856a5.598 5.598 0 0 1 3.668-4.896c1.396-.5 3.252-.812 5.7-.584l.94-5.168c.004 0-25.768-6.696-44.704-1.796zm-23.172 13.948c-.84 6.244-6.264 18.092-19.336 18.092h-3.832c-6.584 0-12.116-4.396-13.072-12.572v-9.672s-.284-8.872 11.604-8.36h12.008s10.86 1.08 12.628 7.108v5.404zm53.136-4.152v9.672c-.948 8.144-6.456 12.572-13.068 12.572h-3.836c-11.572 0-18.224-9.808-19.336-18.092v-5.404c1.764-6.028 12.632-7.108 12.632-7.108h12c11.892-.512 11.608 8.36 11.608 8.36z" fill="#353944"/><path d="M154.032 169.776h-21.184a3.704 3.704 0 0 1-3.704-3.704v-.312a3.704 3.704 0 0 1 3.704-3.704h21.184a3.704 3.704 0 0 1 3.704 3.704v.312a3.706 3.706 0 0 1-3.704 3.704z" fill="#f0b97c"/><ellipse cx="368.92" cy="363" rx="59.852" ry="103.24" fill="#da8d27"/><path d="M411.364 401.808c-2.568 6.136-3.72 12.356-5.068 19.016-1.72 8.396-8.136 15.076-10.88 23.148-5.244 15.36-3.004 31.436-.48 47.104h-51.972c.412-5.048-2.152-9.944-8.768-10.988a36.522 36.522 0 0 1-2.676-.436c.588-.348.588-1.48-.02-3.48.132-4.568-.48-9.008-1.412-13.468-1.784-8.396.196-15.992-3.592-24.084-2.96-6.332-8.788-7.352-13.748-5.308V407.16c2.416-1.304 4.568-2.544 6.396-3.7a39.931 39.931 0 0 0 3.112-2.112 26.243 26.243 0 0 0 2.328-1.98 27.258 27.258 0 0 0 6.308-8.572c5.352-11.38 1.652-23.408 1.652-23.408h67.9s-3.48 11.268 1.196 22.344a27.575 27.575 0 0 0 4.024 6.724 29.454 29.454 0 0 0 5.068 4.896c.196.152.436.304.632.456z" fill="#e8e7e8"/><path d="M395.816 420.668c2.876-3.088 7.212-4.072 11.16-3.208 1.104-5.404 2.256-10.56 4.392-15.656-.212-.152-.444-.304-.636-.452a29.454 29.454 0 0 1-5.068-4.896 27.45 27.45 0 0 1-4.024-6.724c-4.676-11.072-1.196-22.344-1.196-22.344H332.54s3.7 12.032-1.652 23.408a27.258 27.258 0 0 1-6.308 8.572c-.72.696-1.5 1.348-2.328 1.98a39.931 39.931 0 0 1-3.112 2.112c-1.816 1.152-3.984 2.4-6.384 3.704v11.596c1.952-3.004 4.768-5.832 8.556-8.42 6.588-4.5 12.952-1.28 15.944 4.124 6.112-3.136 14.124-1.856 16.064 6.104a12.975 12.975 0 0 1 4.272.24c3.308.724 8.548 4.416 11.86 3.508 5.192-1.424 9.948-3.968 15.132-5.412 4.464-1.248 8.16-.072 10.772 2.3.156-.176.296-.36.46-.536z" fill="#f0b97c"/><path d="M336.508 477.664c-.016-2.424-.468-9.468-.08-11.632-.628-1.808-.888-6.832-.916-8.764h-3.18v-8.196c-3.148-3.064-3.736-6.164-3.692-10.076-3.32-3.58-4.76-7.46-4.812-11.68-2.26-2.532-4.088-8.16-4.56-11.108-1.968-3.08-2.448-7.948-2.072-11.568-3.04 1.816-6.728 3.804-10.92 5.872-14.208 7.116-33.7 15.36-49.3 21.692-15.728 6.396-26 21.648-26 38.616v20.256h113.86v-1.908c-4.792-1.624-8.292-6.212-8.328-11.504zm59.964 0c.016-2.424.468-9.468.08-11.632.628-1.808.888-6.832.916-8.764h3.18v-8.196c3.148-3.064 3.736-6.164 3.692-10.076 3.32-3.58 4.76-7.46 4.812-11.68 2.352-2.636 4.124-8.388 4.56-11.108 1.968-3.08 2.448-7.948 2.072-11.568 3.04 1.816 6.728 3.804 10.92 5.872 14.208 7.116 33.7 15.36 49.3 21.692 15.728 6.396 26 21.648 26 38.616v20.256H388.14v-1.908c4.8-1.624 8.3-6.212 8.332-11.504z" fill="#4d535f"/><path fill="#5f87c4" d="M387.952 491.076h-44.86l13.512-52.652h15.556z"/><path d="M357.912 449.02s-18.832-3.74-6.996-31.152l14.324-9.032 11.22 4.516 8.1 13.864s-5.34 23.6-18.068 21.808h-8.58v-.004z" fill="#70b1e1"/><g fill="#f7cfa3"><path d="M309.084 316.88c0 41.232 24.776 74.656 55.34 74.656s55.34-33.424 55.34-74.656l-6.3-34.384s-13.424-10.412-15.344-12.328-20.82-6.3-20.82-6.3l-42.264 2.74-15.54 13.152-5.204 19.452-5.208 17.668z"/><path d="M318.992 349.424c-10.804 4.08-24.184-31.364-13.38-35.444 10.808-4.08 24.184 31.364 13.38 35.444zM410 328.604c-3.696 9.788-3.016 19.108 1.512 20.816 10.804 4.08 24.184-31.364 13.38-35.444-4.532-1.708-11.2 4.84-14.892 14.628z"/></g><path d="M365.24 408.836l-21.8 31.764-24.3-37.14a39.931 39.931 0 0 0 3.112-2.112c4.156-3.156 6.876-6.808 8.636-10.552l34.352 18.04zm46.864-6.504l-25.04 38.268-21.82-31.764 36.4-19.104c1.72 4.092 4.548 8.16 9.092 11.62.412.328.868.652 1.368.98z" fill="#fdfeff"/><path d="M353.732 491.076h-27.696l-18.428-34.572 17.752-13.708-21.496 2.176 2.416-34.46c5.112-2.524 9.528-4.94 12.86-7.048a39.931 39.931 0 0 0 3.112-2.112 26.243 26.243 0 0 0 2.328-1.98l29.152 91.704zm50.236-48.28l17.752 13.708-18.428 34.572h-27.696l30.068-94.616a29.454 29.454 0 0 0 5.068 4.896c.412.328.872.652 1.372.98 2.696 1.848 6.416 3.98 10.812 6.264l2.544 36.376-21.492-2.18z" fill="#656d7a"/><path d="M355.824 318.228c-.84 6.244-6.264 18.092-19.336 18.092h-3.832c-6.584 0-12.116-4.396-13.072-12.572v-9.668s-.284-8.872 11.604-8.36h12.008s10.86 1.08 12.628 7.108v5.4zm53.136-4.148v9.672c-.948 8.144-6.456 12.572-13.068 12.572h-3.836c-11.572 0-18.224-9.808-19.336-18.092v-5.404c1.764-6.028 12.632-7.108 12.632-7.108h12c11.892-.512 11.608 8.36 11.608 8.36z" fill="#fdfeff"/><path d="M378.996 304.284c-9.592 2.484-20.192 2.46-29.692 0-18.94-4.9-44.484 1.796-44.484 1.796l.716 5.168c2.44-.228 4.308.08 5.692.584a5.612 5.612 0 0 1 3.676 4.896l.324 4.856c1.264 17.44 15.5 16.796 15.5 16.796h8.152c13.364 0 19.816-12.668 20.756-18.896.812-5.328 4.512-5.652 4.512-5.652s3.7.324 4.504 5.652c.936 6.144 7.28 18.896 21.264 18.896h7.644s14.236.644 15.508-16.796l.324-4.856a5.598 5.598 0 0 1 3.668-4.896c1.396-.5 3.252-.812 5.7-.584l.94-5.168s-25.772-6.696-44.704-1.796zm-23.172 13.944c-.84 6.244-6.264 18.092-19.336 18.092h-3.832c-6.584 0-12.116-4.396-13.072-12.572v-9.668s-.284-8.872 11.604-8.36h12.008s10.86 1.08 12.628 7.108v5.4zm53.136-4.148v9.672c-.948 8.144-6.456 12.572-13.068 12.572h-3.836c-11.572 0-18.224-9.808-19.336-18.092v-5.404c1.764-6.028 12.632-7.108 12.632-7.108h12c11.892-.512 11.608 8.36 11.608 8.36z" fill="#353944"/><path d="M375.528 369.032H353.32a3.193 3.193 0 0 1-3.192-3.192v-1.34a3.193 3.193 0 0 1 3.192-3.192h22.208a3.193 3.193 0 0 1 3.192 3.192v1.34a3.193 3.193 0 0 1-3.192 3.192z" fill="#f0b97c"/><path d="M340.976 267s93.856 32.724 79.684 143.48c0 0 51.404-103.436-12.168-158.576-17.428-15.116-36.152-13.244-44.656-13L340.976 267z" fill="#e8bb20"/><path d="M316.244 410.48c-8.1-9.26-63.448-164.372 47.588-171.576-21.824 36.284-59.896 80.956-47.588 171.576zm66.408-391.912c-61.856 0-112 37.14-112 82.952 0 14.38 4.944 27.9 13.636 39.692l-48.46 39.076 84.968-9.62c17.728 8.716 38.984 13.804 61.856 13.804 61.856 0 112-37.14 112-82.952s-50.144-82.952-112-82.952z" fill="#f5ea07"/><path d="M185.524 341.332c-17.728-8.716-38.984-13.804-61.856-13.804-61.856 0-112 37.14-112 82.952s50.144 82.952 112 82.952 112-37.14 112-82.952c0-14.38-4.944-27.9-13.636-39.692l48.46-39.076-84.968 9.62zm181.02-202.208h-.092a9.542 9.542 0 0 1-6.78-2.924l-29.76-30.92c-3.652-3.792-3.536-9.832.26-13.484 3.792-3.652 9.832-3.54 13.484.26l23.016 23.912 55.1-55.1c3.72-3.728 9.764-3.728 13.488 0a9.531 9.531 0 0 1 0 13.488l-61.972 61.976a9.516 9.516 0 0 1-6.744 2.792z" fill="#f1592f"/><path d="M100.684 445.156l-29.76-30.92c-3.652-3.792-3.536-9.832.26-13.484 3.792-3.652 9.832-3.54 13.484.26l23.016 23.912 55.1-55.1c3.72-3.728 9.764-3.728 13.488 0 3.724 3.724 3.724 9.764 0 13.488L114.3 445.288c-3.76 3.768-9.908 3.724-13.616-.132z" fill="#fdfeff"/></svg>