<svg xmlns="http://www.w3.org/2000/svg" width="100" height="100" fill="#0097A7" viewBox="0 0 59 59"><path d="M30.5 10c1.93 0 3.5-1.57 3.5-3.5S32.43 3 30.5 3 27 4.57 27 6.5s1.57 3.5 3.5 3.5zm0-5c.827 0 1.5.673 1.5 1.5S31.327 8 30.5 8 29 7.327 29 6.5 29.673 5 30.5 5zm-21 5c1.93 0 3.5-1.57 3.5-3.5S11.43 3 9.5 3 6 4.57 6 6.5 7.57 10 9.5 10zm0-5c.827 0 1.5.673 1.5 1.5S10.327 8 9.5 8 8 7.327 8 6.5 8.673 5 9.5 5zm0 43C7.57 48 6 49.57 6 51.5S7.57 55 9.5 55s3.5-1.57 3.5-3.5S11.43 48 9.5 48zm0 5c-.827 0-1.5-.673-1.5-1.5S8.673 50 9.5 50s1.5.673 1.5 1.5-.673 1.5-1.5 1.5z"/><path d="M46 17.016V0H3v58h24.039c1.584.632 3.444 1 5.461 1 2.488 0 4.742-.554 6.523-1.484C40.865 58.473 43.136 59 45.5 59c5.888 0 10.5-3.075 10.5-7V24c0-3.813-4.355-6.814-10-6.984zM54 24c0 2.71-3.893 5-8.5 5S37 26.71 37 24c0-.167.015-.332.044-.495.008-.047.025-.093.036-.139.026-.116.053-.233.093-.347.018-.051.045-.101.066-.152.044-.107.087-.215.144-.32.031-.058.071-.113.106-.17.057-.095.113-.19.18-.282.054-.074.118-.146.179-.219.058-.071.112-.142.176-.211.098-.106.208-.209.32-.311.035-.032.066-.066.102-.097.309-.27.665-.526 1.067-.764a9.241 9.241 0 0 1 1.254-.615l.081-.031c.44-.174.902-.325 1.39-.447.017-.004.035-.007.052-.012a12.65 12.65 0 0 1 1.28-.245l.053-.008a14.12 14.12 0 0 1 1.412-.118l.47-.017C50.11 19.002 54 21.29 54 24zm-.065 24.578c-.017.084-.042.167-.067.251-.023.078-.045.156-.074.232a3.517 3.517 0 0 1-.11.244c-.036.075-.07.15-.112.224a3.677 3.677 0 0 1-.149.234c-.048.072-.094.145-.148.215a3.93 3.93 0 0 1-.188.225c-.059.068-.115.137-.179.203-.071.074-.149.145-.226.216-.068.064-.134.128-.207.19-.082.07-.172.136-.26.203-.078.059-.153.119-.235.177-.093.065-.193.126-.292.188-.086.055-.17.11-.26.163-.103.06-.212.115-.32.172-.095.05-.187.101-.285.148-.113.054-.232.104-.35.155-.1.044-.198.089-.302.13-.124.049-.255.093-.384.139-.104.037-.205.076-.312.11-.133.043-.273.08-.41.118-.109.031-.215.064-.326.092-.143.036-.291.065-.437.096-.111.024-.219.051-.332.071-.159.029-.322.051-.484.075-.105.016-.209.035-.316.048-.181.022-.366.036-.55.051-.092.008-.182.019-.275.025-.278.018-.56.027-.845.027a13.838 13.838 0 0 1-1.468-.084 13.006 13.006 0 0 1-.953-.136c-.046-.008-.093-.014-.14-.023.039-.249.061-.501.061-.757v-1.2c.07.011.141.015.211.025.27.04.542.073.815.098.113.011.225.023.338.031.377.028.755.046 1.136.046.409 0 .81-.018 1.206-.047.128-.009.251-.025.378-.037.267-.026.531-.056.79-.094.142-.021.281-.046.42-.07a14.064 14.064 0 0 0 1.814-.447c.112-.036.226-.068.335-.106.32-.112.632-.232.93-.364l.036-.014c.309-.138.603-.289.887-.448.091-.051.175-.106.263-.159.189-.114.374-.23.55-.352.094-.066.184-.134.275-.202.161-.121.314-.246.462-.374.044-.039.096-.073.139-.112a2.325 2.325 0 0 1-.015.166c-.01.078-.019.158-.035.238zm-13 0c-.017.084-.042.167-.067.251-.023.078-.045.156-.074.232a3.517 3.517 0 0 1-.11.244c-.036.075-.07.15-.112.224a3.677 3.677 0 0 1-.149.234c-.048.072-.094.145-.148.215a3.93 3.93 0 0 1-.188.225c-.059.068-.115.137-.179.203-.071.074-.149.145-.226.216-.068.064-.134.128-.207.19-.082.07-.172.136-.26.203-.078.059-.153.119-.235.177-.093.065-.193.126-.292.188-.086.055-.17.11-.26.163-.103.06-.212.115-.32.172-.095.05-.187.101-.285.148-.113.054-.232.104-.35.155-.1.044-.198.089-.302.13-.124.049-.255.093-.384.139-.104.037-.205.076-.312.11-.133.043-.273.08-.41.118-.109.031-.215.064-.326.092-.143.036-.291.065-.437.096-.111.024-.219.051-.332.071-.159.029-.322.051-.484.075-.105.016-.209.035-.316.048-.181.022-.366.036-.55.051-.092.008-.182.019-.275.025a13.083 13.083 0 0 1-1.691.001c-.093-.006-.183-.017-.275-.025-.185-.015-.37-.029-.55-.051-.107-.013-.21-.032-.316-.048-.162-.024-.325-.046-.484-.075-.112-.021-.22-.048-.331-.071-.147-.031-.295-.061-.439-.097-.111-.028-.216-.061-.324-.091-.138-.039-.278-.076-.412-.119-.107-.034-.208-.073-.312-.11-.129-.046-.259-.089-.384-.139-.104-.041-.201-.087-.302-.13-.117-.051-.237-.101-.35-.155-.098-.047-.19-.099-.285-.148-.108-.057-.217-.112-.32-.172-.09-.052-.174-.108-.26-.163-.098-.062-.199-.123-.292-.188-.082-.057-.157-.117-.235-.177-.088-.067-.178-.133-.26-.203-.073-.062-.139-.126-.207-.19-.077-.071-.155-.142-.226-.216-.063-.066-.12-.135-.178-.202-.064-.075-.13-.149-.188-.226-.053-.07-.099-.142-.147-.214-.052-.078-.105-.156-.15-.235-.042-.073-.076-.149-.112-.224a3.517 3.517 0 0 1-.11-.244c-.029-.076-.051-.154-.074-.232-.025-.083-.05-.166-.067-.251-.016-.079-.025-.16-.035-.24a3.01 3.01 0 0 1-.015-.166c.043.039.094.074.138.112.148.129.302.254.463.375.09.068.18.136.274.201.176.123.361.239.551.353.088.053.172.108.263.159.284.159.578.31.887.448l.033.013c.3.133.612.254.933.365.109.038.223.07.335.106.23.073.463.143.703.206a15.832 15.832 0 0 0 1.111.24 13.615 13.615 0 0 0 1.21.164c.126.012.25.028.377.037a15.512 15.512 0 0 0 2.414.002c.128-.009.251-.025.378-.037.267-.026.531-.056.79-.094.142-.021.281-.046.42-.07a14.064 14.064 0 0 0 1.814-.447c.112-.036.226-.068.335-.106.32-.112.632-.232.93-.364l.036-.014c.309-.138.603-.289.887-.448.091-.051.175-.106.263-.159.189-.114.374-.23.55-.352.094-.066.184-.134.275-.202.161-.121.314-.246.462-.374.044-.039.096-.073.139-.112a2.325 2.325 0 0 1-.015.166c-.01.078-.019.158-.035.238zM10 19.213v-6.232A6.51 6.51 0 0 0 15.981 7h8.037a6.511 6.511 0 0 0 5.981 5.981v6.232l-.046-.043c-.168-.17-.348-.327-.525-.488-.171-.157-.337-.32-.514-.468-.065-.054-.135-.1-.201-.152a13.867 13.867 0 0 0-7.189-2.975c-.033-.004-.064-.011-.097-.015a14.337 14.337 0 0 0-2.855 0c-.033.003-.064.011-.097.015a13.858 13.858 0 0 0-7.189 2.975c-.066.052-.136.099-.201.152-.178.148-.344.311-.514.468-.176.161-.357.318-.525.488l-.046.043zm24.121 11.884l.045.004c.528.065 1.047.161 1.556.287a11.323 11.323 0 0 1 1.823.625c.102.045.208.088.306.136a8.5 8.5 0 0 1 .784.436c.056.034.109.07.163.105a6.138 6.138 0 0 1 1.36 1.191l.031.037c.121.15.227.302.32.455l.033.052c.086.145.155.292.217.439.012.029.027.056.038.085.053.138.09.277.122.417.008.036.022.072.029.108.034.176.052.35.052.526 0 2.71-3.893 5-8.5 5S24 38.71 24 36c0-.435.11-.857.298-1.263.274-.594.741-1.156 1.367-1.658l.123-.096c.175-.134.363-.263.561-.387C27.911 31.622 30.106 31 32.5 31c.546 0 1.087.034 1.621.097zm3.496-2.438c.09.068.18.136.274.201.176.123.361.239.551.353.088.053.172.108.263.159.284.159.578.31.887.448l.033.013c.3.133.612.254.933.365.109.038.223.07.335.106.23.073.463.143.703.206a15.832 15.832 0 0 0 1.111.24 13.615 13.615 0 0 0 1.21.164c.126.012.25.028.377.037a15.42 15.42 0 0 0 2.412.002c.128-.009.251-.025.378-.037.267-.026.531-.056.79-.094.142-.021.281-.046.42-.07a14.064 14.064 0 0 0 1.814-.447c.112-.036.226-.068.335-.106.32-.112.632-.232.93-.364l.036-.014c.309-.138.603-.289.887-.448.091-.051.175-.106.263-.159.189-.114.374-.23.55-.352.094-.066.184-.134.275-.202.161-.121.314-.246.462-.374.044-.039.096-.073.139-.112a2.325 2.325 0 0 1-.015.166c-.01.08-.018.161-.035.24-.017.084-.042.167-.067.251-.023.078-.045.156-.074.232a3.517 3.517 0 0 1-.11.244c-.036.075-.07.15-.112.224a3.677 3.677 0 0 1-.149.234c-.048.072-.094.145-.148.215a3.93 3.93 0 0 1-.188.225c-.059.068-.115.137-.179.203-.071.074-.149.145-.226.216-.068.064-.134.128-.207.19-.082.07-.172.136-.26.203-.078.059-.153.119-.235.177-.093.065-.193.126-.292.188-.086.055-.17.11-.26.163-.103.06-.212.115-.32.172-.095.05-.187.101-.285.148-.113.054-.232.104-.35.155-.1.044-.198.089-.302.13-.124.049-.255.093-.384.139-.104.037-.205.076-.312.11-.133.043-.273.08-.41.118-.109.031-.215.064-.326.092-.143.036-.291.065-.437.096-.111.024-.219.051-.332.071-.159.029-.322.051-.484.075-.105.016-.209.035-.316.048-.181.022-.366.036-.55.051-.092.008-.182.019-.275.025a14.07 14.07 0 0 1-1.915-.017c-.113-.009-.223-.026-.335-.037-.24-.024-.479-.049-.714-.085-.131-.02-.258-.049-.388-.073-.211-.039-.423-.078-.629-.128-.132-.032-.26-.071-.389-.106a11.296 11.296 0 0 1-.44-.13c-.934-1.056-2.267-1.926-3.88-2.521-.397-.554-.616-1.129-.65-1.714.046.042.101.079.149.121.148.128.302.253.463.374zm15.492 4.202c.094-.066.184-.134.275-.202.161-.121.314-.246.462-.374.044-.039.096-.073.139-.112a2.325 2.325 0 0 1-.015.166c-.01.08-.018.161-.035.24-.017.084-.042.167-.067.251-.023.078-.045.156-.074.232a3.517 3.517 0 0 1-.11.244c-.036.075-.07.15-.112.224a3.677 3.677 0 0 1-.149.234c-.048.072-.094.145-.148.215a3.93 3.93 0 0 1-.188.225c-.059.068-.115.137-.179.203-.071.074-.149.145-.226.216-.068.064-.134.128-.207.19-.082.07-.172.136-.26.203-.078.059-.153.119-.235.177-.093.065-.193.126-.292.188-.086.055-.17.11-.26.163-.103.06-.212.115-.32.172-.095.05-.187.101-.285.148-.113.054-.232.104-.35.155-.1.044-.198.089-.302.13-.124.049-.255.093-.384.139-.104.037-.205.076-.312.11-.133.043-.273.08-.41.118-.109.031-.215.064-.326.092-.143.036-.291.065-.437.096-.111.024-.219.051-.332.071-.159.029-.322.051-.484.075-.105.016-.209.035-.316.048-.181.022-.366.036-.55.051-.092.008-.182.019-.275.025-.278.017-.56.026-.845.026a13.71 13.71 0 0 1-1.494-.09c-.147-.016-.293-.04-.439-.061-.191-.027-.378-.069-.567-.105V36c0-.219-.018-.438-.048-.656-.018-.137-.05-.27-.08-.405-.012-.055-.018-.11-.032-.164l.069.009c.283.047.572.078.86.11.142.016.281.039.424.051a15.774 15.774 0 0 0 2.513.008c.128-.009.251-.025.378-.037.267-.026.531-.056.79-.094.142-.021.281-.046.42-.07a14.064 14.064 0 0 0 1.814-.447c.112-.036.226-.068.335-.106.32-.112.632-.232.93-.364l.036-.014c.309-.138.603-.289.887-.448.091-.051.175-.106.263-.159.189-.114.374-.231.55-.353zm0 4c.094-.066.184-.134.275-.202.161-.121.314-.246.462-.374.044-.039.096-.073.139-.112a2.325 2.325 0 0 1-.015.166c-.01.08-.018.161-.035.24-.017.084-.042.167-.067.251-.023.078-.045.156-.074.232a3.517 3.517 0 0 1-.11.244c-.036.075-.07.15-.112.224a3.677 3.677 0 0 1-.149.234c-.048.072-.094.145-.148.215a3.93 3.93 0 0 1-.188.225c-.059.068-.115.137-.179.203-.071.074-.149.145-.226.216-.068.064-.134.128-.207.19-.082.07-.172.136-.26.203-.078.059-.153.119-.235.177-.093.065-.193.126-.292.188-.086.055-.17.11-.26.163-.103.06-.212.115-.32.172-.095.05-.187.101-.285.148-.113.054-.232.104-.35.155-.1.044-.198.089-.302.13-.124.049-.255.093-.384.139-.104.037-.205.076-.312.11-.133.043-.273.08-.41.118-.109.031-.215.064-.326.092-.143.036-.291.065-.437.096-.111.024-.219.051-.332.071-.159.029-.322.051-.484.075-.105.016-.209.035-.316.048-.181.022-.366.036-.55.051-.092.008-.182.019-.275.025-.278.017-.56.026-.845.026a13.71 13.71 0 0 1-1.494-.09c-.147-.016-.293-.04-.439-.061-.191-.027-.378-.069-.567-.105V38.8c.07.011.141.015.211.025.27.04.542.073.815.098.113.011.225.023.338.031.377.028.755.046 1.136.046.409 0 .81-.018 1.206-.047.128-.009.251-.025.378-.037.267-.026.531-.056.79-.094.142-.021.281-.046.42-.07a14.064 14.064 0 0 0 1.814-.447c.112-.036.226-.068.335-.106.32-.112.632-.232.93-.364l.036-.014c.309-.138.603-.289.887-.448.091-.051.175-.106.263-.159.189-.114.374-.231.55-.353zm0 4c.094-.066.184-.134.275-.202.161-.121.314-.246.462-.374.044-.039.096-.073.139-.112a2.325 2.325 0 0 1-.015.166c-.01.08-.018.161-.035.24-.017.084-.042.167-.067.251-.023.078-.045.156-.074.232a3.517 3.517 0 0 1-.11.244c-.036.075-.07.15-.112.224a3.677 3.677 0 0 1-.149.234c-.048.072-.094.145-.148.215a3.93 3.93 0 0 1-.188.225c-.059.068-.115.137-.179.203-.071.074-.149.145-.226.216-.068.064-.134.128-.207.19-.082.07-.172.136-.26.203-.078.059-.153.119-.235.177-.093.065-.193.126-.292.188-.086.055-.17.11-.26.163-.103.06-.212.115-.32.172-.095.05-.187.101-.285.148-.113.054-.232.104-.35.155-.1.044-.198.089-.302.13-.124.049-.255.093-.384.139-.104.037-.205.076-.312.11-.133.043-.273.08-.41.118-.109.031-.215.064-.326.092-.143.036-.291.065-.437.096-.111.024-.219.051-.332.071-.159.029-.322.051-.484.075-.105.016-.209.035-.316.048-.181.022-.366.036-.55.051-.092.008-.182.019-.275.025-.278.017-.56.026-.845.026a13.71 13.71 0 0 1-1.494-.09c-.147-.016-.293-.04-.439-.061-.191-.027-.378-.069-.567-.105V42.8c.07.011.141.015.211.025.27.04.542.073.815.098.113.011.225.023.338.031.377.028.755.046 1.136.046.409 0 .81-.018 1.206-.047.128-.009.251-.025.378-.037.267-.026.531-.056.79-.094.142-.021.281-.046.42-.07a14.064 14.064 0 0 0 1.814-.447c.112-.036.226-.068.335-.106.32-.112.632-.232.93-.364l.036-.014c.309-.138.603-.289.887-.448.091-.051.175-.106.263-.159.189-.114.374-.231.55-.353zm0 4c.094-.066.184-.134.275-.202.161-.121.314-.246.462-.374.044-.039.096-.073.139-.112a2.325 2.325 0 0 1-.015.166c-.01.08-.018.161-.035.24-.017.084-.042.167-.067.251-.023.078-.045.156-.074.232a3.517 3.517 0 0 1-.11.244c-.036.075-.07.15-.112.224a3.677 3.677 0 0 1-.149.234c-.048.072-.094.145-.148.215a3.93 3.93 0 0 1-.188.225c-.059.068-.115.137-.179.203-.071.074-.149.145-.226.216-.068.064-.134.128-.207.19-.082.07-.172.136-.26.203-.078.059-.153.119-.235.177-.093.065-.193.126-.292.188-.086.055-.17.11-.26.163-.103.06-.212.115-.32.172-.095.05-.187.101-.285.148-.113.054-.232.104-.35.155-.1.044-.198.089-.302.13-.124.049-.255.093-.384.139-.104.037-.205.076-.312.11-.133.043-.273.08-.41.118-.109.031-.215.064-.326.092-.143.036-.291.065-.437.096-.111.024-.219.051-.332.071-.159.029-.322.051-.484.075-.105.016-.209.035-.316.048-.181.022-.366.036-.55.051-.092.008-.182.019-.275.025-.278.017-.56.026-.845.026a13.71 13.71 0 0 1-1.494-.09c-.147-.016-.293-.04-.439-.061-.191-.027-.378-.069-.567-.105V46.8c.07.011.141.015.211.025.27.04.542.073.815.098.113.011.225.023.338.031.377.028.755.046 1.136.046.409 0 .81-.018 1.206-.047.128-.009.251-.025.378-.037.267-.026.531-.056.79-.094.142-.021.281-.046.42-.07a14.064 14.064 0 0 0 1.814-.447c.112-.036.226-.068.335-.106.32-.112.632-.232.93-.364l.036-.014c.309-.138.603-.289.887-.448.091-.051.175-.106.263-.159.189-.114.374-.231.55-.353zm-12.174-.283c-.017.084-.042.167-.067.251-.023.078-.045.156-.074.232a3.517 3.517 0 0 1-.11.244c-.036.075-.07.15-.112.224a3.677 3.677 0 0 1-.149.234c-.048.072-.094.145-.148.215a3.93 3.93 0 0 1-.188.225c-.059.068-.115.137-.179.203-.071.074-.149.145-.226.216-.068.064-.134.128-.207.19-.082.07-.172.136-.26.203-.078.059-.153.119-.235.177-.093.065-.193.126-.292.188-.086.055-.17.11-.26.163-.103.06-.212.115-.32.172-.095.05-.187.101-.285.148-.113.054-.232.104-.35.155-.1.044-.198.089-.302.13-.124.049-.255.093-.384.139-.104.037-.205.076-.312.11-.133.043-.273.08-.41.118-.109.031-.215.064-.326.092-.143.036-.291.065-.437.096-.111.024-.219.051-.332.071-.159.029-.322.051-.484.075-.105.016-.209.035-.316.048-.181.022-.366.036-.55.051-.092.008-.182.019-.275.025a13.083 13.083 0 0 1-1.691.001c-.093-.006-.183-.017-.275-.025-.185-.015-.37-.029-.55-.051-.107-.013-.21-.032-.316-.048-.162-.024-.325-.046-.484-.075-.112-.021-.22-.048-.331-.071-.147-.031-.295-.061-.439-.097-.111-.028-.216-.061-.324-.091-.138-.039-.278-.076-.412-.119-.107-.034-.208-.073-.312-.11-.129-.046-.259-.089-.384-.139-.104-.041-.201-.087-.302-.13-.117-.051-.237-.101-.35-.155-.098-.047-.19-.099-.285-.148-.108-.057-.217-.112-.32-.172-.09-.052-.174-.108-.26-.163-.098-.062-.199-.123-.292-.188-.082-.057-.157-.117-.235-.177-.088-.067-.178-.133-.26-.203-.073-.062-.139-.126-.207-.19-.077-.071-.155-.142-.226-.216-.063-.066-.12-.135-.178-.202-.064-.075-.13-.149-.188-.226-.053-.07-.099-.142-.147-.214-.052-.078-.105-.156-.15-.235-.042-.073-.076-.149-.112-.224a3.517 3.517 0 0 1-.11-.244c-.029-.076-.051-.154-.074-.232-.025-.083-.05-.166-.067-.251-.016-.079-.025-.16-.035-.24a3.01 3.01 0 0 1-.015-.166c.043.039.094.074.138.112.148.129.302.254.463.375.09.068.18.136.274.201.176.123.361.239.551.353.088.053.172.108.263.159.284.159.578.31.887.448l.033.013c.3.133.612.254.933.365.109.038.223.07.335.106.23.073.463.143.703.206a15.832 15.832 0 0 0 1.111.24 13.615 13.615 0 0 0 1.21.164c.126.012.25.028.377.037a15.512 15.512 0 0 0 2.414.002c.128-.009.251-.025.378-.037.267-.026.531-.056.79-.094.142-.021.281-.046.42-.07a14.064 14.064 0 0 0 1.814-.447c.112-.036.226-.068.335-.106.32-.112.632-.232.93-.364l.036-.014c.309-.138.603-.289.887-.448.091-.051.175-.106.263-.159.189-.114.374-.23.55-.352.094-.066.184-.134.275-.202.161-.121.314-.246.462-.374.044-.039.096-.073.139-.112a2.325 2.325 0 0 1-.015.166c-.01.078-.019.158-.035.238zm-19.741-3.649A11.71 11.71 0 0 1 20 41c-.472 0-.938-.035-1.399-.089-.148-.017-.294-.045-.44-.067a11.888 11.888 0 0 1-1.42-.306c-.29-.082-.575-.178-.857-.281-.15-.055-.303-.104-.451-.165a11.634 11.634 0 0 1-1.167-.554c-.116-.064-.225-.139-.339-.206a12.217 12.217 0 0 1-.815-.521c-.133-.094-.261-.193-.39-.292a12.314 12.314 0 0 1-.749-.624c-.092-.083-.186-.164-.275-.25-.203-.196-.39-.411-.58-.622l3.09-3.396c.418-.458.989-.691 1.478-.603.046.008.092.018.138.03.151.118.476.416.698.621.545.503.901.821 1.189 1.015.565 1.088 1.348 1.52 1.929 1.688.704.204 1.495.141 2.359-.171v4.601c-.108.018-.215.042-.323.057-.16.024-.322.047-.482.064zM8.056 27.9c.008-.092.019-.183.029-.274.036-.316.083-.628.143-.936.009-.047.015-.094.025-.14.074-.354.165-.703.269-1.045.022-.072.048-.143.071-.215.087-.266.183-.527.288-.785.039-.096.077-.192.118-.286.119-.272.248-.538.385-.799.072-.135.149-.267.226-.4.084-.145.171-.287.261-.428l.007-.01 2.885 3.166c.738.811 1.719 1.245 2.7 1.25a3.398 3.398 0 0 0 1.057-.184c.415-.144.693-.472.987-.819.496-.581.892-.995 1.493-.995a3.99 3.99 0 0 1 2.689 1.045l1.07 1.101.502-1.42c.24-.298 1.368-.692 2.058-.77.389 1.047 1.076 3.568-.146 5.992-.069.045-.139.089-.206.135-.123.084-.237.172-.354.26-.102.077-.206.152-.303.232-.111.092-.213.189-.317.284-.09.083-.183.163-.267.249-.099.1-.187.205-.278.309-.077.087-.158.173-.229.263-.086.108-.16.221-.237.333-.063.091-.131.18-.188.273-.073.119-.133.242-.196.363l-.012.023c-.995.652-1.863.938-2.389.783-.121-.035-.486-.14-.804-.889l-.229-.538-.402-.045c-.211-.158-.624-.539-.885-.779-.697-.641-.993-.906-1.325-1.018a3.459 3.459 0 0 0-.521-.132c-1.181-.208-2.415.252-3.301 1.227l-2.852 3.135-.007-.009a13.236 13.236 0 0 1-.498-.851 11.412 11.412 0 0 1-.372-.772c-.043-.097-.081-.196-.121-.294a12.203 12.203 0 0 1-.285-.777c-.024-.073-.05-.146-.073-.22a12.074 12.074 0 0 1-.269-1.043c-.01-.047-.016-.095-.025-.142-.06-.307-.107-.62-.143-.935-.01-.091-.021-.182-.029-.274C8.023 29.737 8 29.371 8 29s.023-.737.056-1.1zm16.561 12.759c.09.068.18.136.274.201.176.123.361.239.551.353.088.053.172.108.263.159.284.159.578.31.887.448l.033.013c.3.133.612.254.933.365.109.038.223.07.335.106.23.073.463.143.703.206a15.832 15.832 0 0 0 1.111.24 13.615 13.615 0 0 0 1.21.164c.126.012.25.028.377.037a15.42 15.42 0 0 0 2.412.002c.128-.009.251-.025.378-.037.267-.026.531-.056.79-.094.142-.021.281-.046.42-.07a14.064 14.064 0 0 0 1.814-.447c.112-.036.226-.068.335-.106.32-.112.632-.232.93-.364l.036-.014c.309-.138.603-.289.887-.448.091-.051.175-.106.263-.159.189-.114.374-.23.55-.352.094-.066.184-.134.275-.202.161-.121.314-.246.462-.374.044-.039.096-.073.139-.112a2.325 2.325 0 0 1-.015.166c-.01.08-.018.161-.035.24-.017.084-.042.167-.067.251-.023.078-.045.156-.074.232a3.517 3.517 0 0 1-.11.244c-.036.075-.07.15-.112.224a3.677 3.677 0 0 1-.149.234c-.048.072-.094.145-.148.215a3.93 3.93 0 0 1-.188.225c-.059.068-.115.137-.179.203-.071.074-.149.145-.226.216-.068.064-.134.128-.207.19-.082.07-.172.136-.26.203-.078.059-.153.119-.235.177-.093.065-.193.126-.292.188-.086.055-.17.11-.26.163-.103.06-.212.115-.32.172-.095.05-.187.101-.285.148-.113.054-.232.104-.35.155-.1.044-.198.089-.302.13-.124.049-.255.093-.384.139-.104.037-.205.076-.312.11-.133.043-.273.08-.41.118-.109.031-.215.064-.326.092-.143.036-.291.065-.437.096-.111.024-.219.051-.332.071-.159.029-.322.051-.484.075-.105.016-.209.035-.316.048-.181.022-.366.036-.55.051-.092.008-.182.019-.275.025a14.707 14.707 0 0 1-1.691-.001c-.093-.006-.183-.017-.275-.025-.185-.015-.37-.029-.55-.051-.107-.013-.21-.032-.316-.048-.162-.024-.325-.046-.484-.075-.112-.021-.22-.048-.331-.071-.147-.031-.295-.061-.439-.097-.111-.028-.216-.061-.324-.091-.138-.039-.278-.076-.412-.119-.107-.034-.208-.073-.312-.11-.129-.046-.259-.089-.384-.139-.104-.041-.201-.087-.302-.13-.117-.051-.237-.101-.35-.155-.098-.047-.19-.099-.285-.148-.108-.057-.217-.112-.32-.172-.09-.052-.174-.108-.26-.163-.098-.062-.199-.123-.292-.188-.082-.057-.157-.117-.235-.177-.088-.067-.178-.133-.26-.203-.073-.062-.139-.126-.207-.19-.077-.071-.155-.142-.226-.216-.063-.066-.12-.135-.178-.202-.064-.075-.13-.149-.188-.226-.053-.07-.099-.142-.147-.214-.052-.078-.105-.156-.15-.235-.042-.073-.076-.149-.112-.224a3.517 3.517 0 0 1-.11-.244c-.029-.076-.051-.154-.074-.232-.025-.083-.05-.166-.067-.251-.016-.079-.025-.16-.035-.24a3.01 3.01 0 0 1-.015-.166c.043.039.094.074.138.112.15.129.304.254.465.375zm6.575-11.602a18.829 18.829 0 0 0-1.032.115 14.47 14.47 0 0 0-.527.088c-.156.029-.312.057-.465.091-.171.037-.338.078-.504.121a11.69 11.69 0 0 0-.923.27l-.053.017c.678-3.266-.726-6.071-.8-6.216l-.196-.382-.412-.121c-.859-.251-2.836.118-4.011.934A5.965 5.965 0 0 0 19 23c-1.573 0-2.514 1.108-3.018 1.704-.082.096-.151.185-.218.252a1.393 1.393 0 0 1-.333.043c-.429-.015-.838-.211-1.189-.597l-3.122-3.426c.19-.211.376-.426.579-.621.089-.086.183-.167.275-.25.241-.219.492-.426.749-.624.129-.099.257-.198.39-.292.264-.186.537-.357.815-.521.114-.067.223-.143.339-.206a12.09 12.09 0 0 1 1.167-.554c.147-.061.3-.11.451-.165.282-.103.567-.199.857-.281a11.888 11.888 0 0 1 1.42-.306c.147-.023.292-.05.44-.067.46-.054.926-.089 1.398-.089s.938.035 1.399.089c.148.017.294.045.44.067a11.888 11.888 0 0 1 1.42.306c.29.082.575.178.857.281.15.055.303.104.451.165.399.164.789.347 1.167.554.116.064.225.139.339.206.277.164.551.335.815.521.133.094.261.193.39.292.257.198.507.405.749.624.092.083.186.164.275.25a12.208 12.208 0 0 1 1.828 2.238A11.925 11.925 0 0 1 32 29v.007c-.104.003-.204.014-.308.019-.168.008-.334.018-.5.031zM10 38.787c.013.014.029.025.042.038.35.354.716.691 1.102 1.007.136.112.281.209.421.315.255.193.511.384.779.56.186.122.377.233.569.346a13.03 13.03 0 0 0 2.132 1.024c.205.078.409.158.618.226.295.097.598.175.902.252.188.048.372.105.562.145.48.1.967.178 1.463.228.164.016.331.015.496.025.303.02.605.047.914.047.048 0 .098-.008.147-.009.277-.003.556-.031.835-.051.26-.019.519-.032.782-.067.079-.01.158-.009.237-.02V51h-6.019a6.511 6.511 0 0 0-5.981-5.981v-6.232zM44 2v15.076a15.17 15.17 0 0 0-1 .124V2h1zm-3 0v15.661c-.345.107-.678.225-1 .355V2h1zm-3 0v17.059a8.495 8.495 0 0 0-1 .795V2h1zM5 56V2h30v27.2h-.003a15.907 15.907 0 0 0-1.001-.124c.001-.026.004-.05.004-.076 0-2.624-.739-5.073-2-7.174V10.879l-1.092.1c-.135.012-.27.021-.408.021A4.505 4.505 0 0 1 26 6.5c0-.139.01-.276.021-.412L26.118 5H13.882l.097 1.088c.011.136.021.273.021.412 0 2.481-2.019 4.5-4.5 4.5-.138 0-.273-.009-.408-.021L8 10.879v10.947a14.169 14.169 0 0 0-.859 1.648c-.049.112-.089.228-.135.342-.117.29-.226.582-.322.879-.04.125-.076.251-.113.377a13.497 13.497 0 0 0-.456 2.227c-.015.126-.035.249-.047.376C6.026 28.113 6 28.554 6 29s.026.887.067 1.325c.012.127.032.25.047.376.038.315.084.627.143.937a13.497 13.497 0 0 0 .313 1.29c.037.126.073.252.113.377.096.297.206.589.322.879.046.114.086.23.135.342A14.03 14.03 0 0 0 8 36.174v10.947l1.092-.1c.135-.012.27-.021.408-.021 2.481 0 4.5 2.019 4.5 4.5 0 .139-.01.276-.021.412L13.882 53h8.226c.018.084.04.167.062.25.026.101.053.201.086.3.027.081.059.16.09.24.308.805.812 1.551 1.491 2.21H5zm22.375-.048a10.021 10.021 0 0 1-.697-.349c-.087-.049-.168-.1-.251-.151a7.205 7.205 0 0 1-.657-.449c-.069-.053-.144-.104-.209-.159-.092-.077-.174-.157-.259-.237a5.601 5.601 0 0 1-.233-.228 5.339 5.339 0 0 1-.415-.506c-.049-.069-.099-.139-.143-.209a3.668 3.668 0 0 1-.201-.374c-.022-.046-.049-.09-.068-.137a3.171 3.171 0 0 1-.17-.533c-.01-.046-.012-.094-.02-.14a2.859 2.859 0 0 1-.032-.306c.042.038.092.072.135.11.148.129.302.254.463.375.09.068.18.136.274.201.176.123.361.239.551.353.088.053.172.108.263.159.284.159.578.31.887.448l.033.013c.3.133.612.254.933.365.109.038.223.07.335.106.23.073.463.143.703.206a15.832 15.832 0 0 0 1.111.24 13.615 13.615 0 0 0 1.21.164c.126.012.25.028.377.037a15.375 15.375 0 0 0 2.411.002c.128-.009.251-.025.378-.037.267-.026.531-.056.79-.094.142-.021.281-.046.42-.07a14.064 14.064 0 0 0 1.814-.447c.112-.036.226-.068.335-.106.32-.112.632-.232.93-.364l.036-.014c.309-.138.603-.289.887-.448.091-.051.175-.106.263-.159.189-.114.374-.23.55-.352.094-.066.184-.134.275-.202.161-.121.314-.246.462-.374.043-.038.093-.071.135-.11-.007.103-.014.207-.033.312-.004.026-.006.052-.011.077a3.38 3.38 0 0 1-.171.549l-.002.005c-.27.665-.775 1.291-1.476 1.843l-.06.045a7.45 7.45 0 0 1-.685.465c-.049.03-.094.062-.145.09l-.021.012C36.837 56.452 34.754 57 32.5 57c-1.907 0-3.688-.396-5.125-1.048zM45.5 57c-1.63 0-3.198-.281-4.556-.803.522-.47.961-.985 1.293-1.539l.054.009c.462.098.933.171 1.409.225.105.012.21.021.315.031.49.046.984.077 1.485.077.409 0 .81-.018 1.206-.047.128-.009.251-.025.378-.037.267-.026.531-.056.79-.094.142-.021.281-.046.42-.07a14.064 14.064 0 0 0 1.814-.447c.112-.036.226-.068.335-.106.32-.112.632-.232.93-.364l.036-.014c.309-.138.603-.289.887-.448.091-.051.175-.106.263-.159.189-.114.374-.23.55-.352.094-.066.184-.134.275-.202.161-.121.314-.246.462-.374.048-.042.103-.079.149-.121C53.843 54.802 50.015 57 45.5 57z"/></svg>