<svg xmlns="http://www.w3.org/2000/svg" width="100" height="100" fill="#0097A7" viewBox="0 0 512 512"><path d="M302.541 0H72.934C56.243 0 42.667 13.577 42.667 30.268V76.8a8.536 8.536 0 0 0 8.533 8.533h273.067A8.536 8.536 0 0 0 332.8 76.8V30.268C332.8 13.577 319.223 0 302.541 0zm13.192 68.267h-256V30.268c0-7.279 5.922-13.201 13.201-13.201h229.598c7.279 0 13.201 5.922 13.201 13.201v37.999zm8.534 358.4H51.2a8.536 8.536 0 0 0-8.533 8.533v46.532c0 16.691 13.576 30.268 30.268 30.268h229.598c16.691 0 30.268-13.576 30.268-30.268V435.2c-.001-4.71-3.824-8.533-8.534-8.533zm-8.534 55.065c0 7.279-5.922 13.201-13.193 13.201H72.934c-7.279 0-13.201-5.922-13.201-13.201v-37.999h256v37.999z"/><path d="M187.733 426.667c-23.526 0-42.667 19.14-42.667 42.667 0 23.526 19.14 42.667 42.667 42.667 23.526 0 42.667-19.14 42.667-42.667s-19.14-42.667-42.667-42.667zm0 68.266c-14.114 0-25.6-11.486-25.6-25.6s11.486-25.6 25.6-25.6 25.6 11.486 25.6 25.6-11.486 25.6-25.6 25.6zm25.6-460.8h-51.2a8.536 8.536 0 0 0-8.533 8.533 8.536 8.536 0 0 0 8.533 8.533h51.2a8.536 8.536 0 0 0 8.533-8.533c.001-4.71-3.822-8.533-8.533-8.533zm25.344 358.4H85.333c-4.71 0-8.533 3.823-8.533 8.533s3.823 8.533 8.533 8.533h153.344c4.71 0 8.533-3.823 8.533-8.533s-3.822-8.533-8.533-8.533zm51.456 0h-17.067c-4.71 0-8.533 3.823-8.533 8.533s3.823 8.533 8.533 8.533h17.067c4.71 0 8.533-3.823 8.533-8.533s-3.822-8.533-8.533-8.533zm0-34.133H256c-4.71 0-8.533 3.823-8.533 8.533s3.823 8.533 8.533 8.533h34.133c4.71 0 8.533-3.823 8.533-8.533s-3.822-8.533-8.533-8.533zm-187.733 0H85.333c-4.71 0-8.533 3.823-8.533 8.533s3.823 8.533 8.533 8.533H102.4c4.71 0 8.533-3.823 8.533-8.533s-3.823-8.533-8.533-8.533zm119.467 0h-85.333c-4.71 0-8.533 3.823-8.533 8.533s3.823 8.533 8.533 8.533h85.333c4.71 0 8.533-3.823 8.533-8.533s-3.823-8.533-8.533-8.533zm8.533-170.667h-25.6v-25.6h25.6a8.536 8.536 0 0 0 8.533-8.533 8.536 8.536 0 0 0-8.533-8.533h-34.133a8.536 8.536 0 0 0-8.533 8.533v42.667a8.536 8.536 0 0 0 8.533 8.533h25.6v25.6h-25.6c-4.71 0-8.533 3.823-8.533 8.533s3.823 8.533 8.533 8.533H230.4a8.536 8.536 0 0 0 8.533-8.533v-42.667a8.536 8.536 0 0 0-8.533-8.533zm187.733 0h-25.6v-25.6h25.6a8.536 8.536 0 0 0 8.533-8.533 8.536 8.536 0 0 0-8.533-8.533H384a8.536 8.536 0 0 0-8.533 8.533v42.667A8.536 8.536 0 0 0 384 204.8h25.6v25.6H384c-4.71 0-8.533 3.823-8.533 8.533s3.823 8.533 8.533 8.533h34.133a8.536 8.536 0 0 0 8.533-8.533v-42.667c.001-4.71-3.822-8.533-8.533-8.533zm-145.066-42.666a8.536 8.536 0 0 0-8.533 8.533v85.333a8.536 8.536 0 0 0 8.533 8.533 8.536 8.536 0 0 0 8.533-8.533V153.6a8.536 8.536 0 0 0-8.533-8.533z"/><path d="M313.873 190.942l-34.133-42.667c-2.944-3.678-8.32-4.284-11.998-1.331-3.678 2.935-4.275 8.311-1.331 11.989l34.133 42.667a8.5 8.5 0 0 0 6.665 3.2 8.568 8.568 0 0 0 5.333-1.869c3.678-2.935 4.275-8.311 1.331-11.989zm27.46-45.875a8.536 8.536 0 0 0-8.533 8.533v85.333c0 4.71 3.823 8.533 8.533 8.533s8.533-3.823 8.533-8.533V153.6c.001-4.71-3.822-8.533-8.533-8.533z"/><path d="M346.667 146.944c-3.686-2.953-9.054-2.347-11.998 1.331l-34.133 42.667a8.53 8.53 0 0 0 6.656 13.858 8.517 8.517 0 0 0 6.673-3.2l34.133-42.667a8.53 8.53 0 0 0-1.331-11.989z"/><path d="M460.8 110.933H153.6a8.536 8.536 0 0 0-8.533 8.533v204.8a8.541 8.541 0 0 0 8.534 8.533c2.219 0 4.403-.87 6.033-2.5l48.7-48.7H460.8a8.536 8.536 0 0 0 8.533-8.533v-153.6a8.536 8.536 0 0 0-8.533-8.533zm-8.533 153.6H204.8a8.513 8.513 0 0 0-6.033 2.5l-36.634 36.634V128h290.133v136.533z"/><path d="M324.267 128a8.536 8.536 0 0 0 8.533-8.533V30.268C332.8 13.577 319.223 0 302.541 0H72.934C56.243 0 42.667 13.577 42.667 30.268v451.465c0 16.691 13.576 30.268 30.268 30.268h229.598c16.691 0 30.268-13.576 30.268-30.268V273.067a8.536 8.536 0 0 0-8.533-8.533H204.8a8.513 8.513 0 0 0-6.033 2.5l-36.634 36.634V128h162.134zM150.332 332.151a8.55 8.55 0 0 0 9.301-1.852l48.7-48.7h107.401v200.132c0 7.279-5.922 13.201-13.193 13.201H72.934c-7.279 0-13.201-5.922-13.201-13.201V30.268c0-7.279 5.922-13.201 13.201-13.201h229.598c7.279 0 13.201 5.922 13.201 13.201v80.666H153.6a8.536 8.536 0 0 0-8.533 8.533v204.8a8.546 8.546 0 0 0 5.265 7.884z"/></svg>