<svg xmlns="http://www.w3.org/2000/svg" width="100" height="100" fill="#0097A7" viewBox="0 0 496 496"><path d="M232 112c-4.408 0-8-3.592-8-8s3.592-8 8-8 8 3.592 8 8h16c0-10.416-6.712-19.216-16-22.528V64h-16v17.472c-9.288 3.312-16 12.112-16 22.528 0 13.232 10.768 24 24 24 4.408 0 8 3.592 8 8s-3.592 8-8 8-8-3.592-8-8h-16c0 10.416 6.712 19.216 16 22.528V176h16v-17.472c9.288-3.312 16-12.112 16-22.528 0-13.232-10.768-24-24-24zM32 32v48h16V48h32V32zm16 160v-32H32v48h48v-16zM384 32v16h32v32h16V32z"/><path d="M464 160.808V0H0v240h256v216c0 22.056 17.944 40 40 40h160c22.056 0 40-17.944 40-40V200c0-19.312-13.768-35.472-32-39.192zM256 224H16V16h432v144H310.304c6.36-12.336 9.696-25.92 9.696-40 0-48.52-39.48-88-88-88s-88 39.48-88 88 39.48 88 88 88c8.184 0 16.2-1.24 24-3.48V224zm2.408-37.168C249.936 190.2 241.08 192 232 192c-39.696 0-72-32.304-72-72s32.304-72 72-72 72 32.304 72 72c0 14.544-4.384 28.448-12.616 40.464a39.846 39.846 0 0 0-32.976 26.368zM480 456c0 13.232-10.768 24-24 24H296c-13.232 0-24-10.768-24-24V200c0-13.232 10.768-24 24-24h160c13.232 0 24 10.768 24 24v256z"/><path d="M416 352v112h48V352h-48zm32 96h-16v-80h16v80zm-96-32v48h48v-48h-48zm32 32h-16v-16h16v16zm-96-32v48h48v-48h-48zm32 32h-16v-16h16v16zm32-96v48h48v-48h-48zm32 32h-16v-16h16v16zm-96-32v48h48v-48h-48zm32 32h-16v-16h16v16zm32-96v48h48v-48h-48zm32 32h-16v-16h16v16zm32-32v48h48v-48h-48zm32 32h-16v-16h16v16zm-160-32v48h48v-48h-48zm32 32h-16v-16h16v16zm-32-128v80h176v-80H288zm160 64H304v-48h144v48zm-248 16c-13.232 0-24 10.768-24 24 0 .32.08.624.096.944l-38.16 15.264C133.536 307.216 127.168 304 120 304c-5.784 0-11.032 2.144-15.176 5.56L63.52 284.784c.312-1.552.48-3.144.48-4.784 0-13.232-10.768-24-24-24s-24 10.768-24 24 10.768 24 24 24c5.784 0 11.032-2.144 15.176-5.56l41.304 24.784A24.055 24.055 0 0 0 96 328c0 13.232 10.768 24 24 24s24-10.768 24-24c0-.32-.08-.624-.096-.944l38.16-15.264c4.4 4.992 10.768 8.208 17.936 8.208 13.232 0 24-10.768 24-24s-10.768-24-24-24zM40 288c-4.408 0-8-3.592-8-8 0-4.408 3.592-8 8-8s8 3.592 8 8c0 4.408-3.592 8-8 8zm80 48c-4.408 0-8-3.592-8-8 0-4.408 3.592-8 8-8s8 3.592 8 8c0 4.408-3.592 8-8 8zm80-32c-4.408 0-8-3.592-8-8 0-4.408 3.592-8 8-8s8 3.592 8 8c0 4.408-3.592 8-8 8z"/><path d="M224 480V336h-48v144h-32V368H96v112H64V320H16v160H0v16h240v-16h-16zm-176 0H32V336h16v144zm80 0h-16v-96h16v96zm80 0h-16V352h16v128zm64-368h16v16h-16zm-96 0h16v16h-16z"/></svg>