<svg xmlns="http://www.w3.org/2000/svg" fill="#fff" width="60" height="60" viewBox="0 0 512 512"><path d="M240.559 160.131C250.15 149.493 256 135.418 256 120c0-33.084-26.916-60-60-60-16.003 0-31.19 6.185-42.765 17.415C141.476 88.823 135 103.947 135 120c0 15.016 5.668 29.217 16.024 40.327C116.38 177.114 90 213.637 90 257v30c0 8.284 6.716 15 15 15h182c8.284 0 15-6.716 15-15v-30c0-43.122-26.212-79.992-61.441-96.869zM196 90c16.542 0 30 13.458 30 30s-13.458 30-30 30c-16.804 0-31-13.738-31-30s14.196-30 31-30zm76 182H120v-15c0-41.738 34.804-77 76-77s76 35.262 76 77v15z"/><path d="M392 272V15c0-8.284-6.716-15-15-15H117.426c-12.02 0-23.32 4.681-31.819 13.18L13.18 85.607C4.681 94.106 0 105.406 0 117.426V467c0 8.284 6.716 15 15 15h297.721c21.158 18.66 48.917 30 79.279 30 66.168 0 120-53.832 120-120s-53.832-120-120-120zM90 51.213V90H51.213L90 51.213zM30 452V120h75c8.284 0 15-6.716 15-15V30h242v245.797c-31.487 8.134-58.002 28.763-73.923 56.257-.357-.025-.713-.054-1.077-.054H105c-8.284 0-15 6.716-15 15s6.716 14.9 15 14.9h170.797C273.319 371.492 272 381.645 272 392H105c-8.284 0-15 6.716-15 15s6.716 15 15 15h170.797a119.28 119.28 0 0 0 12.312 30H30zm362 30c-49.626 0-90-40.374-90-90s40.374-90 90-90 90 40.374 90 90-40.374 90-90 90z"/><path d="M447.606 351.393c-5.857-5.858-15.355-5.858-21.212.001L377 400.787l-19.394-19.393c-5.857-5.858-15.355-5.858-21.213 0-5.858 5.858-5.858 15.355 0 21.213l30 30C369.322 435.536 373.161 437 377 437s7.678-1.464 10.606-4.394l60-60c5.858-5.858 5.858-15.355 0-21.213z"/></svg>