<svg width="806" height="428" fill="none" xmlns="http://www.w3.org/2000/svg"><path fill-rule="evenodd" clip-rule="evenodd" d="M805.27 186.12c-1.372-5.13-6.026-8.916-11.586-8.916-.253 0-.493.01-.746.024-1.2-5.101-5.787-8.899-11.254-8.899a11.54 11.54 0 0 0-7.973 3.188c-1.68-5.016-6.414-8.633-11.987-8.633-.413 0-.827.021-1.24.061a13.66 13.66 0 0 0-12.266-7.62c-6.32 0-11.64 4.287-13.2 10.114a10.894 10.894 0 0 0-4.16-.824c-4.334 0-8.067 2.53-9.827 6.186a11.995 11.995 0 0 0-5.453-1.294c-5.454 0-10.014 3.565-11.187 8.344-.333-.031-.68-.05-1.027-.05-5.226 0-9.626 3.522-10.973 8.319h112.88M797.11 42.348c-1.853-6.985-8.2-12.139-15.773-12.139a16.7 16.7 0 0 0-1 .034c-1.653-6.946-7.88-12.115-15.333-12.115a15.693 15.693 0 0 0-10.854 4.34c-2.28-6.828-8.72-11.753-16.32-11.753-.56 0-1.12.029-1.68.084C733.11 4.65 726.777.423 719.457.423c-8.613 0-15.853 5.838-17.986 13.769a14.794 14.794 0 0 0-5.654-1.121c-5.893 0-10.973 3.444-13.373 8.424a16.4 16.4 0 0 0-7.44-1.764c-7.413 0-13.627 4.854-15.213 11.358a15.928 15.928 0 0 0-1.414-.066c-7.106 0-13.093 4.794-14.933 11.325H797.11M112.876 185.796c-1.364-5.13-6.027-8.916-11.586-8.916-.249 0-.494.01-.74.024-1.208-5.101-5.789-8.897-11.26-8.897a11.534 11.534 0 0 0-7.973 3.186c-1.675-5.016-6.407-8.632-11.985-8.632-.418 0-.828.022-1.235.06-2.234-4.514-6.886-7.62-12.266-7.62-6.323 0-11.64 4.288-13.21 10.114a10.877 10.877 0 0 0-4.154-.824c-4.331 0-8.062 2.53-9.823 6.188a12.027 12.027 0 0 0-5.46-1.296c-5.453 0-10.015 3.566-11.18 8.344-.341-.031-.685-.05-1.035-.05-5.228 0-9.622 3.522-10.969 8.319h112.876M170.921 70.93c-1.899-7.147-8.393-12.42-16.137-12.42-.347 0-.69.013-1.031.033-1.683-7.106-8.064-12.395-15.685-12.395-4.306 0-8.214 1.69-11.106 4.44-2.333-6.987-8.924-12.025-16.696-12.025-.58 0-1.153.03-1.718.085-3.113-6.29-9.593-10.616-17.087-10.616-8.806 0-16.213 5.973-18.4 14.088a15.145 15.145 0 0 0-5.788-1.147c-6.032 0-11.228 3.524-13.681 8.619a16.756 16.756 0 0 0-7.605-1.804c-7.596 0-13.951 4.967-15.574 11.621a16.134 16.134 0 0 0-1.442-.066c-7.28 0-13.403 4.904-15.278 11.586h157.228z" fill="#F4F5F5"/><path fill-rule="evenodd" clip-rule="evenodd" d="M254.992 279.076l5.913-13.639-3.028-4.174 4.228 2.2c.927-4.71 2.738-9.77 4.942-14.212-1.37-2.288-2.68-4.45-2.68-4.45l3.448 2.955c2.545-4.772 5.51-8.64 8.225-10.272-13.55-10.095-29.985 19.215-21.048 41.592z" fill="#598F36"/><path fill-rule="evenodd" clip-rule="evenodd" d="M254.992 279.076c.184-19.487-.022-28.825 11.91-39.84-1.952.368-4.018.916-6.388 1.707-6.996 8.302-10.966 24.504-5.522 38.133z" fill="#538238"/><path fill-rule="evenodd" clip-rule="evenodd" d="M270.953 239.967c17.187 35.239 31.65 68.61 37.92 107.677 0 0 3.336-.235 7.179-1.043 3.84-.808 3.91-1.374 3.91-1.374-11.786-35.262-27.986-74.07-46.781-106.123l-2.228.863z" fill="#AE7B3F"/><path fill-rule="evenodd" clip-rule="evenodd" d="M271.615 241.324c16.895 34.74 31.07 67.756 37.259 106.32 0 0 2.058-.145 4.804-.599-1.52-7.489-4.98-22.397-11.336-39.608-9.143-24.756-27.798-63.418-27.798-63.418l-2.929-2.695z" fill="#956B34"/><path fill-rule="evenodd" clip-rule="evenodd" d="M224.849 263.545c1.639-27.25 30.256-41.507 47.897-21.764l.01.004c.253.281.425.475.498.561-5.664-.953-10.996-1.608-20.77 1.207l1.029-6.193-2.347 6.605a33.212 33.212 0 0 0-4.49 1.913c.28-2.656.776-7.272.856-7.61.074-.324-1.42 4.986-2.392 8.442-2.527 1.443-4.864 3.138-7.006 4.894.24-3.314.716-9.768.816-10.192.099-.42-1.288 6.928-2.134 11.3-5.379 4.629-9.411 9.388-11.967 10.833m88.599 1.548l-11.934-8.865.542-5.128-2.566 4.016c-3.154-3.619-7.248-7.1-11.374-9.85.042-2.666.1-5.193.1-5.193l-1.514 4.281c-4.586-2.862-9.088-4.736-12.253-4.794 6.703-15.512 35.573 1.682 38.999 25.533" fill="#598F36"/><path fill-rule="evenodd" clip-rule="evenodd" d="M273.071 241.659c.512-1.153 1.227-5.835 7.075-11.881 20.956-21.664 41.846 9.865 41.71 9.614-8.784-4.561-12.668-5.046-18.686-5.601.176-2.31.377-4.912.434-5.367.058-.454-.943 2.891-1.647 5.298a45.798 45.798 0 0 0-8.32.388c.045-2.546.1-5.948.063-6.311-.036-.363-.816 3.573-1.392 6.512-8.961 1.51-13.058 3.516-19.237 7.348zm-.001 0c-3.606-19.876-35.547-28.737-50.891-8.147 6.177-1.565 11.772-2.037 17.09-1.728 1.38-2.877 3.065-6.349 2.789-5.54-.27.791-1.087 3.52-1.708 5.615 2.805.221 5.537.655 8.245 1.259l4.76-5.24-2.381 5.813c2.686.695 5.36 1.544 8.068 2.5 1.34-1.77 2.757-3.54 2.654-2.94-.074.437-.617 1.865-1.25 3.444 4.068 1.484 8.225 3.19 12.625 4.964" fill="#5D9B36"/><path fill-rule="evenodd" clip-rule="evenodd" d="M273.07 241.659c-4.1-21.224 24.204-41.07 42.87-37.897-1.719 1.306-10.011 7.652-14.642 10.74l-.669-2.623-.263 3.245c-1.336.895-2.78 1.87-4.297 2.904l-1.213-3.54-.45 4.68c-1.221.84-2.481 1.712-3.76 2.608-.8.56-1.585 1.163-2.356 1.795-.342-2.424-.625-5.035-.625-5.035s-.416 3.526-.759 6.218c-7.968 7.082-13.836 16.905-13.836 16.905" fill="#598F36"/><path fill-rule="evenodd" clip-rule="evenodd" d="M273.07 241.659c1.787-25.53-17.262-41.585-34.461-41.361 0 0 5.56 5.322 11.143 11.272 2.64-1.015 5.144-1.964 4.873-1.918-.297.05-2.273 1.523-4.003 2.851 2.694 2.901 5.324 5.892 7.27 8.441l4.064-2.485-3.394 3.388c.374.513.715 1.005 1.014 1.47a141.903 141.903 0 0 0 3.526 5.163c1.924-1.264 4.12-2.83 4.12-2.83l-3.401 3.834c4.485 6.227 9.25 12.175 9.25 12.175" fill="#598F36"/><path fill-rule="evenodd" clip-rule="evenodd" d="M275.093 240.007c-14.358-19.219-.482-45.867 13.488-51.275l1.032.398c-.861 2.118-3.154 7.848-5.302 13.942-2.826.136-5.5.275-5.232.208.29-.074 2.694.48 4.81.996-1.294 3.74-2.498 7.54-3.25 10.656l-4.722-.637 4.47 1.733a32.246 32.246 0 0 0-.335 1.754c-.308 1.92-.707 4.024-1.147 6.148-2.27-.382-4.91-.931-4.91-.931l4.657 2.139c-1.596 7.505-3.559 14.869-3.559 14.869z" fill="#5D9B36"/><path fill-rule="evenodd" clip-rule="evenodd" d="M313.447 265.093c-9.886-16.793-14.368-24.988-30.204-28.577 1.875-.654 3.937-1.21 6.387-1.71 10.206 3.703 21.731 15.76 23.817 30.287z" fill="#538238"/><path fill-rule="evenodd" clip-rule="evenodd" d="M286.94 224.494c18.222-9.788 34.628 14.51 34.914 14.895-.211-.213-10.784-10.85-17.196-12.543-6.478-1.71-14.24.008-17.899 1.408-3.657 1.4-9.656 7.47-9.656 7.47 2.457-3.32 5.876-7.478 9.805-10.97l.032-.26zm-7.221-4.757c8.901-10.848 24.47-17.973 36.221-15.976-19.576 3.696-30.332 10.326-38.409 26.403.375-1.61.757-3.315 1.121-5.027l-2.069-.949c.121-.204.244-.407.37-.608a114.8 114.8 0 0 0 1.953.35c.294-1.423.57-2.838.813-4.193" fill="#538238"/><path fill-rule="evenodd" clip-rule="evenodd" d="M269.063 220.15c.59-14.282 10.032-27.746 19.519-31.42l.47.182c-1.64 1.236-5.308 4.354-9.665 10.27-5.927 8.044-7.974 20.708-7.473 24.818.238 1.958.804 5.365 1.33 8.396a579.947 579.947 0 0 0 1.11 6.213l-.175-.087-.196-.102a31.022 31.022 0 0 1-1.281-2.139 29.836 29.836 0 0 1-1.42-2.996c-1.746-4.283-2.4-8.747-2.219-13.135m-13.126 15.182c-13.175-.735-24.137 8.834-31.088 28.213.955-15.876 11.067-27.341 22.832-30.244 1.439.235 2.861.535 4.277.89l1.375-1.606c.496-.004.992.007 1.49.035l-.798 2.13a66.28 66.28 0 0 1 1.912.582" fill="#538238"/><path fill-rule="evenodd" clip-rule="evenodd" d="M238.609 200.297c11.655-.15 24.159 7.172 30.453 19.854a32.83 32.83 0 0 0 .244 5.633c-2.846-4.012-10.084-13.745-16.436-18.413-8.117-5.966-14.261-7.074-14.261-7.074m27.298 32.039c-15.984-9.461-25.792-9.839-43.728 1.176 10.121-13.581 27.464-14.35 39.133-7.593.578.842 1.179 1.702 1.79 2.561a87.45 87.45 0 0 0 1.038-.69c.239.177.472.36.703.545l-1.021 1.15c.694.963 1.396 1.922 2.085 2.851" fill="#538238"/><path fill-rule="evenodd" clip-rule="evenodd" d="M270.493 243.765a2.728 2.728 0 1 0 2.59-4.804 2.729 2.729 0 1 0-2.59 4.804" fill="#C1E01C"/><path fill-rule="evenodd" clip-rule="evenodd" d="M274.48 241.812a2.731 2.731 0 0 1-4.777-2.21 2.736 2.736 0 0 0-.259 3.16c.228.382.552.714.96.953l.09.05a2.73 2.73 0 0 0 3.986-1.953" fill="#B4CE1E"/><path fill-rule="evenodd" clip-rule="evenodd" d="M278.29 243.705a2.73 2.73 0 1 0-1.668-5.197 2.73 2.73 0 0 0 1.669 5.197z" fill="#C1E01C"/><path fill-rule="evenodd" clip-rule="evenodd" d="M279.645 239.476a2.732 2.732 0 0 1-4.905 1.911 2.704 2.704 0 0 0 .812 1.674 2.721 2.721 0 0 0 2.639.673l.1-.03a2.731 2.731 0 0 0 1.354-4.228" fill="#B4CE1E"/><path fill-rule="evenodd" clip-rule="evenodd" d="M275.242 240.59a2.73 2.73 0 1 0-1.67-5.198 2.73 2.73 0 0 0 1.67 5.197" fill="#C1E01C"/><path fill-rule="evenodd" clip-rule="evenodd" d="M276.596 236.36a2.731 2.731 0 0 1-4.904 1.912 2.728 2.728 0 0 0 3.45 2.346l.1-.03a2.73 2.73 0 0 0 1.354-4.228" fill="#B4CE1E"/><path fill-rule="evenodd" clip-rule="evenodd" d="M275.35 244a2.73 2.73 0 1 0-1.668-5.199 2.73 2.73 0 0 0 1.669 5.2z" fill="#C1E01C"/><path fill-rule="evenodd" clip-rule="evenodd" d="M276.706 239.77a2.732 2.732 0 0 1-4.905 1.913 2.72 2.72 0 0 0 2.099 2.377c.433.101.897.097 1.352-.03l.098-.03a2.73 2.73 0 0 0 1.356-4.23" fill="#B4CE1E"/><path fill-rule="evenodd" clip-rule="evenodd" d="M267.056 246.356a2.729 2.729 0 1 0 2.912-4.616 2.729 2.729 0 0 0-2.912 4.616" fill="#C1E01C"/><path fill-rule="evenodd" clip-rule="evenodd" d="M271.168 244.679a2.732 2.732 0 0 1-3.895.023 2.732 2.732 0 0 1-.72-2.555 2.715 2.715 0 0 0-.476 3.136c.202.396.502.749.892 1.015l.087.058a2.729 2.729 0 0 0 4.112-1.677" fill="#B4CE1E"/><path fill-rule="evenodd" clip-rule="evenodd" d="M268.106 241.76a2.73 2.73 0 1 0 2.911-4.618 2.73 2.73 0 0 0-2.91 4.618" fill="#C1E01C"/><path fill-rule="evenodd" clip-rule="evenodd" d="M272.217 240.082a2.73 2.73 0 0 1-4.615-2.532 2.718 2.718 0 0 0-.763 1.696 2.725 2.725 0 0 0 1.18 2.456l.087.058a2.73 2.73 0 0 0 4.11-1.678" fill="#B4CE1E"/><path fill-rule="evenodd" clip-rule="evenodd" d="M308.525 333.19c.212-.03 5.824-1.449 5.696-1.414-.128.033-6.048 2.248-6.048 2.248l.352-.835m-2.833-7.469c.16-.015 6.219-1.663 6.219-1.663l-5.783 2.78-.436-1.117m-1.772-5.805c.256-.068 5.208-1.748 5.208-1.748l-4.476 2.54-.732-.792zm-2.099-8.46l4.733-1.375-4.497 2.052-.236-.677zm-1.877-6.819l3.898-1.207-3.905 2.415.007-1.208m-2.661-5.95s3.708-1.102 3.555-1.062c-.154.042-3.154 1.639-3.154 1.639l-.401-.577zm-2.315-5.579l3.99-1.178-3.343 1.855-.647-.677zm-1.74-5.376l3.455-.924-2.98 1.88-.475-.956zm-2.431-6.014l2.901-.94-2.701 1.792-.2-.852zm-1.908-4.261l3.17-.654-2.62 1.577-.55-.923m-1.662-4.682l.328.817s2.857-1.668 2.701-1.585c-.156.082-3.029.768-3.029.768m-1.896-3.757l.4.88 2.585-1.405-2.985.525zm-1.986-4.912l.397.771 2.443-1.173-2.84.402m-2.549-5.433l.512 1.097 1.801-1.468-2.313.37zm-2.349-4.992l.37 1.08 2.018-1.581-2.388.501z" fill="#956B34"/><path fill-rule="evenodd" clip-rule="evenodd" d="M552.777 276l-5.827-14.056 3.173-4.22-4.36 2.179c-.866-4.836-2.64-10.043-4.813-14.626 1.44-2.32 2.814-4.509 2.814-4.509l-3.574 2.965c-2.533-4.925-5.493-8.933-8.253-10.649 14.04-10.1 30.36 20.17 20.84 42.916" fill="#598F36"/><path fill-rule="evenodd" clip-rule="evenodd" d="M552.777 276c.133-19.943.507-29.495-11.52-40.968 2 .41 4.107 1.005 6.52 1.853 7.013 8.616 10.8 25.26 5 39.115z" fill="#538238"/><path fill-rule="evenodd" clip-rule="evenodd" d="M537.11 235.711c-18.19 35.767-33.557 69.67-40.634 109.536 0 0-3.411-.296-7.33-1.188-3.917-.892-3.977-1.473-3.977-1.473 12.66-35.882 29.896-75.316 49.675-107.796l2.266.921z" fill="#AE7B3F"/><path fill-rule="evenodd" clip-rule="evenodd" d="M536.404 237.089c-17.876 35.26-32.943 68.803-39.928 108.158 0 0-2.106-.183-4.907-.693 1.681-7.639 5.476-22.834 12.272-40.338 9.776-25.174 29.523-64.42 29.523-64.42l3.04-2.707" fill="#956B34"/><path fill-rule="evenodd" clip-rule="evenodd" d="M583.884 260.62c-1.213-27.91-30.253-42.985-48.64-23.083l-.013.003c-.267.285-.44.48-.52.567 5.813-.88 11.28-1.459 21.227 1.586l-.947-6.354 2.293 6.798a33.242 33.242 0 0 1 4.56 2.035c-.24-2.723-.666-7.455-.746-7.801-.067-.334 1.373 5.125 2.306 8.678 2.56 1.519 4.92 3.294 7.08 5.127-.186-3.395-.56-10.008-.653-10.443-.093-.432 1.2 7.111 1.987 11.598 5.426 4.829 9.466 9.766 12.066 11.289m-90.688.08l12.36-8.87-.465-5.255 2.556 4.152c3.289-3.65 7.537-7.142 11.806-9.884.002-2.73-.013-5.316-.013-5.316l1.475 4.406c4.742-2.852 9.38-4.692 12.622-4.698-6.597-15.986-36.432 1.117-40.341 25.465z" fill="#598F36"/><path fill-rule="evenodd" clip-rule="evenodd" d="M534.91 237.405c-.506-1.188-1.16-5.99-7.038-12.277-21.075-22.523-42.988 9.384-42.844 9.129 9.066-4.517 13.049-4.95 19.217-5.413-.141-2.368-.303-5.034-.353-5.499-.05-.467.914 2.973 1.594 5.448 2.986-.081 5.818.12 8.508.539-.004-2.606 0-6.088.042-6.459.044-.37.774 3.67 1.313 6.687 9.144 1.698 13.304 3.82 19.561 7.845m.001.002c4.027-20.277 36.867-28.804 52.213-7.473-6.293-1.706-12.013-2.284-17.453-2.058-1.373-2.968-3.027-6.549-2.76-5.717.253.815 1.053 3.62 1.653 5.776a60.29 60.29 0 0 0-8.466 1.147l-4.774-5.443 2.334 5.988c-2.76.667-5.507 1.49-8.294 2.423-1.346-1.835-2.773-3.67-2.666-3.054.066.45.6 1.919 1.213 3.546-4.187 1.448-8.467 3.124-13 4.865" fill="#5D9B36"/><path fill-rule="evenodd" clip-rule="evenodd" d="M534.91 237.405c4.56-21.647-24.068-42.436-43.223-39.505 1.737 1.365 10.115 7.998 14.801 11.237l.728-2.673.215 3.326c1.352.938 2.813 1.96 4.347 3.044l1.302-3.6.38 4.794c1.236.88 2.51 1.796 3.803 2.734.81.587 1.604 1.216 2.38 1.876.392-2.473.725-5.14.725-5.14s.367 3.614.67 6.375c8.034 7.381 13.873 17.532 13.873 17.532" fill="#598F36"/><path fill-rule="evenodd" clip-rule="evenodd" d="M534.91 237.405c-1.4-26.153 18.374-42.259 35.96-41.737 0 0-5.773 5.352-11.586 11.345-2.68-1.083-5.227-2.097-4.96-2.045.306.054 2.306 1.597 4.053 2.984-2.813 2.924-5.547 5.938-7.587 8.514l-4.12-2.61 3.427 3.522c-.4.52-.76 1.018-1.067 1.487-1.106 1.653-2.386 3.439-3.693 5.225-1.947-1.326-4.173-2.966-4.173-2.966l3.413 3.981c-4.693 6.295-9.667 12.3-9.667 12.3" fill="#598F36"/><path fill-rule="evenodd" clip-rule="evenodd" d="M532.871 235.68c15.013-19.42 1.267-46.925-12.933-52.696l-1.063.39c.845 2.182 3.093 8.083 5.19 14.357 2.887.186 5.622.376 5.35.301-.297-.081-2.765.445-4.94.939 1.261 3.85 2.428 7.756 3.145 10.957l4.837-.57-4.598 1.697c.128.637.233 1.24.313 1.798a145.04 145.04 0 0 0 1.068 6.312c2.324-.352 5.044-.869 5.044-.869l-4.804 2.11c1.506 7.706 3.391 15.274 3.391 15.274" fill="#5D9B36"/><path fill-rule="evenodd" clip-rule="evenodd" d="M493.196 260.7c10.401-17.016 15.127-25.325 31.393-28.73-1.908-.7-4.01-1.306-6.506-1.857-10.507 3.615-22.506 15.758-24.887 30.587" fill="#538238"/><path fill-rule="evenodd" clip-rule="evenodd" d="M521.01 219.607c-18.48-10.325-35.68 14.259-35.978 14.648.219-.213 11.219-10.917 17.81-12.541 6.655-1.64 14.57.249 18.289 1.744 3.718 1.496 9.753 7.808 9.753 7.808-2.457-3.439-5.884-7.752-9.845-11.392l-.03-.267zm7.47-4.746c-8.925-11.25-24.734-18.806-36.793-16.96 19.97 4.112 30.864 11.079 38.855 27.667a274.432 274.432 0 0 1-1.062-5.163l2.137-.936c-.12-.21-.253-.42-.373-.628-.652.111-1.343.224-2.004.324a163.58 163.58 0 0 1-.76-4.304z" fill="#538238"/><path fill-rule="evenodd" clip-rule="evenodd" d="M539.378 215.465c-.36-14.624-9.795-28.562-19.44-32.48l-.483.176c1.655 1.294 5.356 4.547 9.713 10.672 5.93 8.334 7.81 21.327 7.223 25.524-.28 1.999-.907 5.475-1.493 8.568-.254 1.278-.48 2.488-.68 3.504-.227 1.128-.4 2.015-.494 2.479-.053.23-.08.356-.08.356l.187-.085.2-.102a31.005 31.005 0 0 0 2.853-5.209c1.854-4.352 2.6-8.91 2.494-13.403m13.173 15.758c13.493-.528 24.547 9.45 31.333 29.397-.706-16.261-10.866-28.165-22.853-31.333-1.48.214-2.933.497-4.387.836l-1.386-1.667a24.072 24.072 0 0 0-1.52.01l.773 2.193c-.653.177-1.307.365-1.96.564z" fill="#538238"/><path fill-rule="evenodd" clip-rule="evenodd" d="M570.87 195.668c-11.919-.352-24.84 6.928-31.492 19.798a34.84 34.84 0 0 1-.347 5.761c2.987-4.057 10.547-13.895 17.133-18.564 8.4-5.967 14.707-6.995 14.707-6.995m-28.467 32.32c16.507-9.409 26.56-9.629 44.72 1.947-10.134-14.07-27.853-15.15-39.92-8.436-.6.853-1.227 1.723-1.867 2.592a82.75 82.75 0 0 1-1.053-.725c-.253.178-.493.361-.733.546l1.026 1.195c-.72.973-1.453 1.941-2.173 2.881" fill="#538238"/><path fill-rule="evenodd" clip-rule="evenodd" d="M537.51 239.606a2.787 2.787 0 0 1-3.76-1.196 2.8 2.8 0 0 1 1.187-3.764 2.802 2.802 0 0 1 3.773 1.196 2.793 2.793 0 0 1-1.2 3.764" fill="#C1E01C"/><path fill-rule="evenodd" clip-rule="evenodd" d="M533.471 237.54a2.781 2.781 0 0 0 3.96.362 2.774 2.774 0 0 0 .96-2.544 2.724 2.724 0 0 1 .627 1.796c0 .51-.147 1.01-.414 1.442-.24.388-.573.72-1 .96l-.093.05a2.787 2.787 0 0 1-4.04-2.067" fill="#B4CE1E"/><path fill-rule="evenodd" clip-rule="evenodd" d="M529.535 239.41a2.792 2.792 0 0 1-1.747-3.542 2.789 2.789 0 0 1 3.536-1.746 2.78 2.78 0 0 1 1.747 3.542 2.784 2.784 0 0 1-3.536 1.747z" fill="#C1E01C"/><path fill-rule="evenodd" clip-rule="evenodd" d="M528.22 235.062a2.792 2.792 0 0 0 4.984 2.038 2.86 2.86 0 0 1-.133.564 2.74 2.74 0 0 1-.72 1.136c-.374.35-.84.59-1.332.698a2.78 2.78 0 0 1-1.384-.055l-.1-.032a2.792 2.792 0 0 1-1.315-4.35z" fill="#B4CE1E"/><path fill-rule="evenodd" clip-rule="evenodd" d="M532.71 236.275a2.79 2.79 0 0 1-1.75-3.543 2.79 2.79 0 0 1 3.538-1.746 2.78 2.78 0 0 1 1.746 3.542 2.785 2.785 0 0 1-3.533 1.747" fill="#C1E01C"/><path fill-rule="evenodd" clip-rule="evenodd" d="M531.39 231.924a2.787 2.787 0 0 0 1.88 2.979c.2.07.4.113.614.135a2.802 2.802 0 0 0 2.494-1.074 2.86 2.86 0 0 1-.134.564c-.146.448-.4.832-.72 1.135a2.792 2.792 0 0 1-2.72.644l-.093-.032a2.79 2.79 0 0 1-1.75-3.543 2.6 2.6 0 0 1 .43-.808" fill="#B4CE1E"/><path fill-rule="evenodd" clip-rule="evenodd" d="M532.538 239.763a2.789 2.789 0 0 1-1.748-3.543 2.795 2.795 0 0 1 5.294 1.796c-.506 1.46-2.093 2.243-3.546 1.747z" fill="#C1E01C"/><path fill-rule="evenodd" clip-rule="evenodd" d="M531.218 235.412a2.802 2.802 0 0 0 2.493 3.114 2.8 2.8 0 0 0 2.493-1.075c-.013.19-.066.377-.12.565-.16.448-.413.832-.733 1.135a2.78 2.78 0 0 1-1.333.699 2.79 2.79 0 0 1-1.387-.055l-.093-.032a2.789 2.789 0 0 1-1.748-3.543c.1-.3.249-.57.428-.808" fill="#B4CE1E"/><path fill-rule="evenodd" clip-rule="evenodd" d="M540.99 242.314a2.796 2.796 0 0 1-3.84-.936 2.791 2.791 0 0 1 .934-3.837 2.795 2.795 0 0 1 3.84.936 2.803 2.803 0 0 1-.934 3.837z" fill="#C1E01C"/><path fill-rule="evenodd" clip-rule="evenodd" d="M536.804 240.53a2.8 2.8 0 0 0 3.493.474 2.823 2.823 0 0 0 1.28-2.988c.12.138.24.292.347.461.24.404.373.845.4 1.288.027.51-.08 1.017-.32 1.468a2.73 2.73 0 0 1-.933 1.024l-.08.057a2.796 2.796 0 0 1-3.84-.936 2.645 2.645 0 0 1-.347-.849" fill="#B4CE1E"/><path fill-rule="evenodd" clip-rule="evenodd" d="M539.99 237.593a2.795 2.795 0 0 1-2.906-4.773 2.795 2.795 0 0 1 2.906 4.773z" fill="#C1E01C"/><path fill-rule="evenodd" clip-rule="evenodd" d="M535.804 235.808a2.805 2.805 0 0 0 3.493.475 2.823 2.823 0 0 0 1.28-2.988 2.857 2.857 0 0 1 .747 1.75 2.8 2.8 0 0 1-.32 1.466 2.8 2.8 0 0 1-.92 1.025l-.093.057a2.796 2.796 0 0 1-3.84-.936c-.16-.27-.28-.557-.347-.849" fill="#B4CE1E"/><path fill-rule="evenodd" clip-rule="evenodd" d="M497.076 330.463c-.216-.033-5.934-1.581-5.804-1.543.13.036 6.15 2.403 6.15 2.403l-.346-.86m3.027-7.595c-.164-.019-6.335-1.807-6.335-1.807l5.87 2.943.465-1.136m1.912-5.909c-.261-.075-5.3-1.879-5.3-1.879l4.536 2.675.764-.796zm2.291-8.622l-4.819-1.488 4.565 2.176.254-.688m2.036-6.945l-3.969-1.303 3.956 2.539.013-1.236zm2.825-6.045s-3.776-1.19-3.62-1.145c.157.044 3.2 1.729 3.2 1.729l.42-.584m2.463-5.67l-4.062-1.27 3.39 1.953.673-.683zm1.872-5.471l-3.519-1.004 3.016 1.975.503-.97m2.59-6.112l-2.953-1.01 2.733 1.878.22-.868zm2.023-4.328l-3.232-.724 2.656 1.66.576-.936zm1.782-4.763l-.35.831s-2.895-1.756-2.738-1.67c.159.089 3.088.84 3.088.84zm2.003-3.812l-.424.893-2.621-1.48 3.045.587zm2.116-4.992l-.421.781-2.479-1.243 2.9.462zm2.701-5.516l-.544 1.113-1.817-1.533 2.361.42zm2.489-5.069l-.398 1.1-2.037-1.653 2.435.553z" fill="#956B34"/><path fill-rule="evenodd" clip-rule="evenodd" d="M262.45 249.495l11.93-18.34-3.37-6.8 5.595 4.23c2.503-6.609 6.37-13.507 10.657-19.413-1.424-3.657-2.794-7.116-2.794-7.116l4.278 5.135c4.864-6.299 10.116-11.185 14.456-12.888-17.186-17.974-48.23 20.525-40.752 55.192z" fill="#598F36"/><path fill-rule="evenodd" clip-rule="evenodd" d="M262.452 249.495c5.048-28.233 7.041-41.836 27.06-54.892-2.924.056-6.056.344-9.69.91-12.19 10.331-21.926 32.867-17.37 53.982z" fill="#538238"/><path fill-rule="evenodd" clip-rule="evenodd" d="M295.212 196.659c16.292 55.355 29.095 107.333 28.604 165.562 0 0 4.9.48 10.675.25 5.773-.23 6.01-1.036 6.01-1.036-8.45-54.064-22.437-114.355-41.844-165.483l-3.445.707" fill="#AE7B3F"/><path fill-rule="evenodd" clip-rule="evenodd" d="M295.839 198.791c15.992 54.559 28.461 105.95 27.977 163.43 0 0 3.024.295 7.12.311-.366-11.241-1.73-33.724-6.732-60.26-7.192-38.168-24.776-98.852-24.776-98.852l-3.589-4.629" fill="#956B34"/><path fill-rule="evenodd" clip-rule="evenodd" d="M222.521 219.561c9.063-39.141 54.09-52.81 74.848-19.83l.014.007c.296.472.498.795.584.938-7.986-2.774-15.562-5.032-30.437-3.346l3.012-8.736-5.026 9.01a49.17 49.17 0 0 0-6.986 1.674c1.06-3.784 2.91-10.362 3.108-10.833.19-.452-3.284 6.888-5.541 11.664-4.021 1.473-7.83 3.36-11.367 5.383 1.162-4.748 3.436-13.999 3.684-14.59.247-.585-3.568 9.736-5.87 15.874-8.94 5.397-15.96 11.314-20.023 12.785m128.192 23.988l-15.141-15.795 2.043-7.309-4.708 5.199c-3.69-6.026-8.776-12.082-14.091-17.083.719-3.859 1.42-7.513 1.42-7.513l-3.247 5.842c-5.953-5.28-12.024-9.102-16.605-9.965 13.535-20.865 51.212 11.17 50.33 46.624" fill="#598F36"/><path fill-rule="evenodd" clip-rule="evenodd" d="M297.869 199.632c1.027-1.547 3.21-8.165 13.181-15.504 35.728-26.296 58.308 24.585 58.172 24.187-11.63-8.775-17.147-10.432-25.744-12.715.823-3.31 1.752-7.036 1.947-7.68.195-.645-2.077 3.964-3.69 7.284a67.327 67.327 0 0 0-12.17-1.48c.69-3.683 1.605-8.607 1.643-9.143.036-.534-2.062 4.986-3.618 9.11-13.376-.007-19.816 1.897-29.721 5.941" fill="#5D9B36"/><path fill-rule="evenodd" clip-rule="evenodd" d="M297.87 199.633c-.356-29.73-44.534-50.427-71.855-24.31 9.348-.757 17.583-.069 25.227 1.686 2.706-3.837 6.002-8.463 5.405-7.357-.587 1.082-2.441 4.841-3.859 7.73 4.018 1.008 7.878 2.308 11.658 3.848l8.194-6.436-4.881 7.852c3.727 1.668 7.4 3.558 11.093 5.608 2.378-2.241 4.87-4.46 4.574-3.613-.216.616-1.352 2.555-2.658 4.69 5.538 3.151 11.151 6.647 17.102 10.302" fill="#5D9B36"/><path fill-rule="evenodd" clip-rule="evenodd" d="M297.87 199.632c-.743-31.804 45.201-53.66 71.51-44.475-2.814 1.475-16.405 8.648-23.884 11.992l-.326-3.97-1.178 4.645a908.53 908.53 0 0 0-6.949 3.16l-.892-5.436-1.8 6.68c-1.979.92-4.02 1.877-6.097 2.865a57.675 57.675 0 0 0-3.859 2.024c.097-3.6.33-7.458.33-7.458s-1.471 5.013-2.627 8.837c-13.301 8.321-24.228 21.136-24.228 21.136" fill="#598F36"/><path fill-rule="evenodd" clip-rule="evenodd" d="M297.87 199.632c8.857-36.61-14.848-64.583-39.859-68.478 0 0 6.761 9.089 13.403 19.093 4.08-.826 7.946-1.588 7.54-1.588-.442-.002-3.671 1.653-6.506 3.153 3.196 4.872 6.282 9.859 8.478 14.035l6.508-2.608-5.756 4.082c.416.838.79 1.635 1.11 2.382 1.13 2.63 2.459 5.488 3.85 8.36 3.102-1.362 6.674-3.096 6.674-3.096l-5.877 4.73c4.981 10.134 10.435 19.935 10.435 19.935" fill="#598F36"/><path fill-rule="evenodd" clip-rule="evenodd" d="M301.21 197.731c-16.122-31.412 10.555-66.678 32.156-71.098l1.399.83c-1.768 2.863-6.503 10.615-11.117 18.932-4.132-.497-8.047-.95-7.643-.983.441-.036 3.792 1.358 6.737 2.627-2.798 5.11-5.476 10.327-7.332 14.665l-6.696-2.082 6.062 3.612a47.787 47.787 0 0 0-.916 2.461c-.919 2.712-2.015 5.667-3.172 8.641a227.874 227.874 0 0 1-6.9-2.556l6.234 4.248c-4.157 10.499-8.813 20.703-8.813 20.703z" fill="#5D9B36"/><path fill-rule="evenodd" clip-rule="evenodd" d="M350.712 243.549c-10.224-26.796-14.718-39.788-36.821-48.883 2.883-.489 6.013-.792 9.69-.913 13.903 7.877 27.67 28.203 27.131 49.796z" fill="#538238"/><path fill-rule="evenodd" clip-rule="evenodd" d="M322.208 178.128c28.844-9.734 46.69 29.552 47.01 30.181-.254-.359-12.988-18.39-21.877-22.42-8.98-4.072-20.667-3.484-26.319-2.35-5.652 1.135-15.845 8.471-15.845 8.471 4.379-4.214 10.36-9.41 16.92-13.514l.11-.368zm-9.312-8.676c15.58-13.557 39.922-20.077 56.484-14.294-29.316.558-46.552 7.54-62.219 28.889a409.766 409.766 0 0 0 2.861-7.019l-2.769-1.886c.225-.266.453-.53.685-.791.894.328 1.842.67 2.75.985a236.425 236.425 0 0 0 2.208-5.884" fill="#538238"/><path fill-rule="evenodd" clip-rule="evenodd" d="M297.33 167.438c4.362-20.582 21.368-37.804 36.035-40.805l.636.377c-2.68 1.393-8.77 5.017-16.543 12.53-10.576 10.222-16.654 28.096-16.936 34.184-.133 2.899-.15 7.982-.13 12.51a927.373 927.373 0 0 0 .086 9.289s-.082-.056-.233-.168l-.259-.197a45.016 45.016 0 0 1-1.333-3.418 44.379 44.379 0 0 1-1.327-4.697c-1.481-6.643-1.334-13.283.004-19.605m-22.772 18.808c-18.938-4.298-37.194 6.898-52.037 33.315 5.28-22.805 22.77-36.963 40.553-38.287a76.908 76.908 0 0 1 5.99 2.34l2.389-1.993c.72.116 1.439.255 2.153.416l-1.681 2.895a98.82 98.82 0 0 1 2.633 1.314" fill="#538238"/><path fill-rule="evenodd" clip-rule="evenodd" d="M258.011 131.153c16.948 2.641 33.297 16.336 39.32 36.284a48.504 48.504 0 0 0-1.03 8.236c-3.146-6.521-11.26-22.421-19.331-30.756-10.316-10.65-18.959-13.764-18.959-13.764m31.749 53.192c-20.875-17.652-35.014-20.605-63.747-9.023 18.023-17.226 43.379-14.085 58.655-1.418.63 1.366 1.293 2.761 1.97 4.158.55-.241 1.118-.496 1.675-.749.301.317.596.639.884.965l-1.763 1.419c.772 1.568 1.554 3.13 2.326 4.648" fill="#538238"/><path fill-rule="evenodd" clip-rule="evenodd" d="M293.612 202.057a4.014 4.014 0 0 0 5.636-.7 4.016 4.016 0 1 0-6.337-4.936 4.015 4.015 0 0 0 .701 5.636z" fill="#C1E01C"/><path fill-rule="evenodd" clip-rule="evenodd" d="M299.877 200.201a4.017 4.017 0 0 1-5.06.099 4.036 4.036 0 0 1-.648-.63 4.027 4.027 0 0 1-.682-3.85 4.046 4.046 0 0 0-1.364 2.375 4.01 4.01 0 0 0 1.37 3.768l.119.094a4.014 4.014 0 0 0 6.265-1.856" fill="#B4CE1E"/><path fill-rule="evenodd" clip-rule="evenodd" d="M304.942 203.883a4.018 4.018 0 1 0-1.148-7.953 4.018 4.018 0 0 0 1.148 7.953z" fill="#C1E01C"/><path fill-rule="evenodd" clip-rule="evenodd" d="M307.946 198.08a4.017 4.017 0 0 1-7.587 1.57 3.99 3.99 0 0 0 .765 2.628 4.027 4.027 0 0 0 1.696 1.337 3.982 3.982 0 0 0 1.97.287l.152-.019a4.016 4.016 0 0 0 3.004-5.804" fill="#B4CE1E"/><path fill-rule="evenodd" clip-rule="evenodd" d="M301.282 198.613a4.017 4.017 0 1 0-1.146-7.951 4.017 4.017 0 0 0 1.146 7.951z" fill="#C1E01C"/><path fill-rule="evenodd" clip-rule="evenodd" d="M304.287 192.81a4.019 4.019 0 0 1-7.587 1.57 4.003 4.003 0 0 0 .765 2.63 4.005 4.005 0 0 0 3.665 1.624l.152-.02a4.017 4.017 0 0 0 3.005-5.804" fill="#B4CE1E"/><path fill-rule="evenodd" clip-rule="evenodd" d="M300.604 203.59a4.017 4.017 0 1 0-1.147-7.952 4.017 4.017 0 0 0 1.147 7.951z" fill="#C1E01C"/><path fill-rule="evenodd" clip-rule="evenodd" d="M303.609 197.786a4.021 4.021 0 0 1-4.34 3.745 4.024 4.024 0 0 1-3.248-2.176c-.017.273-.007.552.035.832a4 4 0 0 0 .73 1.797 4.04 4.04 0 0 0 1.698 1.338c.604.252 1.276.36 1.969.286l.15-.018a4.017 4.017 0 0 0 3.006-5.804" fill="#B4CE1E"/><path fill-rule="evenodd" clip-rule="evenodd" d="M287.988 204.974a4.016 4.016 0 1 0 5.359-5.984 4.016 4.016 0 0 0-5.36 5.984" fill="#C1E01C"/><path fill-rule="evenodd" clip-rule="evenodd" d="M294.367 203.55a4.02 4.02 0 0 1-6.076-4.809 4.004 4.004 0 0 0-1.459 4.433 3.98 3.98 0 0 0 1.045 1.695l.112.104a4.017 4.017 0 0 0 6.378-1.424" fill="#B4CE1E"/><path fill-rule="evenodd" clip-rule="evenodd" d="M290.64 198.56a4.015 4.015 0 0 0 5.67-.314 4.016 4.016 0 1 0-5.984-5.357 4.015 4.015 0 0 0 .314 5.67z" fill="#C1E01C"/><path fill-rule="evenodd" clip-rule="evenodd" d="M297.019 197.136a4.019 4.019 0 0 1-6.076-4.806 4.001 4.001 0 0 0-1.524 2.275 4.024 4.024 0 0 0 1.11 3.851l.111.104a4.016 4.016 0 0 0 6.379-1.424z" fill="#B4CE1E"/><path fill-rule="evenodd" clip-rule="evenodd" d="M326.86 341.16c.315.01 8.807-.672 8.612-.653-.193.018-9.328 1.777-9.328 1.777l.716-1.124m-2.28-11.533c.237.017 9.432-.887 9.432-.887l-9.073 2.615-.359-1.728m-1.147-8.86c.388-.036 7.987-1.26 7.987-1.26l-7.118 2.588-.869-1.328zm-.969-12.792l7.205-.835-7.03 1.876-.175-1.041m-1.052-10.356l5.955-.795-6.26 2.547.305-1.752zm-2.401-9.289s5.652-.688 5.419-.667c-.232.021-4.979 1.604-4.979 1.604l-.44-.937zm-1.991-8.664l6.08-.728-5.307 1.869-.773-1.141m-1.205-8.228l5.24-.493-4.785 1.996-.455-1.503zm-2.052-9.323l4.441-.652-4.36 1.937-.081-1.285m-1.722-6.651l4.76-.175-4.192 1.648-.568-1.473zm-1.265-7.204l.276 1.267s4.556-1.721 4.31-1.639c-.247.082-4.586.372-4.586.372zm-1.829-5.917l.364 1.376 4.097-1.404-4.461.028zm-1.676-7.615l.388 1.216 3.832-1.104-4.22-.112m-2.367-8.509l.475 1.717 2.973-1.69-3.448-.027m-2.184-7.823l.273 1.659 3.315-1.8-3.588.141z" fill="#956B34"/><path fill-rule="evenodd" clip-rule="evenodd" d="M530.78 240.372l-10.936-16.813 3.089-6.234-5.13 3.876c-2.293-6.057-5.84-12.38-9.77-17.794 1.305-3.354 2.563-6.524 2.563-6.524l-3.923 4.708c-4.459-5.775-9.275-10.255-13.252-11.816 15.756-16.479 44.21 18.817 37.358 50.597" fill="#598F36"/><path fill-rule="evenodd" clip-rule="evenodd" d="M530.78 240.373c-4.628-25.884-6.456-38.353-24.808-50.323 2.68.051 5.552.315 8.883.834 11.176 9.472 20.096 30.132 15.925 49.489" fill="#538238"/><path fill-rule="evenodd" clip-rule="evenodd" d="M500.747 191.936c-14.936 50.746-26.674 98.398-26.223 151.78 0 0-4.493.438-9.786.228-5.294-.212-5.511-.949-5.511-.949 7.748-49.564 20.57-104.836 38.361-151.706l3.159.647z" fill="#AE7B3F"/><path fill-rule="evenodd" clip-rule="evenodd" d="M500.173 193.89c-14.661 50.017-26.093 97.129-25.649 149.825 0 0-2.773.272-6.528.285.337-10.305 1.587-30.917 6.172-55.244 6.593-34.99 22.713-90.622 22.713-90.622l3.292-4.244" fill="#956B34"/><path fill-rule="evenodd" clip-rule="evenodd" d="M567.39 212.931c-8.306-35.883-49.593-48.413-68.62-18.179l-.015.007a69.75 69.75 0 0 0-.535.86c7.321-2.544 14.266-4.613 27.904-3.068l-2.763-8.008 4.608 8.259c2.186.352 4.328.877 6.408 1.536-.973-3.47-2.667-9.5-2.853-9.932-.174-.415 3.013 6.314 5.08 10.693 3.693 1.35 7.173 3.08 10.427 4.935-1.067-4.354-3.16-12.834-3.387-13.376-.227-.536 3.28 8.926 5.387 14.552 8.2 4.949 14.626 10.373 18.36 11.721m-117.526 21.992l13.881-14.48-1.873-6.7 4.316 4.765c3.383-5.524 8.045-11.076 12.917-15.66-.657-3.54-1.301-6.889-1.301-6.889l2.976 5.357c5.457-4.842 11.024-8.345 15.224-9.137-12.408-19.128-46.95 10.241-46.14 42.744" fill="#598F36"/><path fill-rule="evenodd" clip-rule="evenodd" d="M498.31 194.66c-.94-1.418-2.943-7.486-12.085-14.214-32.753-24.106-53.453 22.539-53.327 22.175 10.66-8.045 15.718-9.565 23.6-11.656-.754-3.035-1.606-6.45-1.785-7.041-.178-.592 1.904 3.633 3.382 6.677 3.85-.827 7.57-1.25 11.158-1.357-.634-3.376-1.472-7.89-1.505-8.382-.033-.49 1.89 4.57 3.316 8.35 12.261-.004 18.165 1.74 27.247 5.449" fill="#5D9B36"/><path fill-rule="evenodd" clip-rule="evenodd" d="M498.311 194.661c.325-27.255 40.827-46.23 65.867-22.287-8.56-.693-16.107-.062-23.12 1.547-2.48-3.517-5.507-7.759-4.96-6.745.546.992 2.24 4.438 3.546 7.086-3.693.926-7.226 2.118-10.692 3.528l-7.513-5.898 4.476 7.197c-3.417 1.53-6.784 3.261-10.17 5.141-2.18-2.054-4.465-4.089-4.193-3.313.199.565 1.24 2.343 2.436 4.301-5.076 2.888-10.222 6.092-15.677 9.443" fill="#5D9B36"/><path fill-rule="evenodd" clip-rule="evenodd" d="M498.31 194.661c.68-29.157-41.438-49.193-65.558-40.773 2.581 1.352 15.041 7.928 21.896 10.994l.3-3.64 1.08 4.258c1.979.89 4.119 1.862 6.37 2.897l.818-4.983 1.65 6.124c1.814.843 3.686 1.72 5.589 2.626 1.19.565 2.372 1.19 3.537 1.856-.088-3.3-.3-6.838-.3-6.838s1.347 4.596 2.408 8.102c12.193 7.629 22.21 19.377 22.21 19.377" fill="#598F36"/><path fill-rule="evenodd" clip-rule="evenodd" d="M498.31 194.661c-8.12-33.563 13.611-59.207 36.547-62.779 0 0-6.203 8.332-12.293 17.504-3.741-.756-7.285-1.456-6.915-1.456.407 0 3.367 1.516 5.967 2.892-2.93 4.466-5.759 9.036-7.772 12.866l-5.967-2.39 5.278 3.742a44.33 44.33 0 0 0-1.019 2.182 189.117 189.117 0 0 1-3.53 7.664 206.118 206.118 0 0 1-6.118-2.838l5.388 4.337c-4.565 9.29-9.565 18.276-9.565 18.276z" fill="#598F36"/><path fill-rule="evenodd" clip-rule="evenodd" d="M495.248 192.919c14.78-28.799-9.676-61.13-29.48-65.181l-1.283.761c1.621 2.625 5.961 9.732 10.192 17.356 3.788-.455 7.377-.87 7.007-.9-.404-.035-3.476 1.244-6.178 2.408 2.566 4.685 5.022 9.467 6.723 13.444l6.139-1.91-5.558 3.311c.319.796.602 1.552.84 2.258a193.58 193.58 0 0 0 2.908 7.921c2.936-1.019 6.326-2.343 6.326-2.343l-5.715 3.894c3.81 9.625 8.079 18.981 8.079 18.981" fill="#5D9B36"/><path fill-rule="evenodd" clip-rule="evenodd" d="M449.867 234.923c9.373-24.567 13.493-36.477 33.756-44.815-2.643-.448-5.513-.725-8.883-.837-12.746 7.223-25.366 25.856-24.873 45.652" fill="#538238"/><path fill-rule="evenodd" clip-rule="evenodd" d="M475.997 174.947c-26.443-8.923-42.804 27.092-43.096 27.669.232-.33 11.905-16.859 20.056-20.555 8.232-3.732 18.945-3.193 24.127-2.152 5.18 1.04 14.526 7.764 14.526 7.764-4.014-3.862-9.498-8.626-15.51-12.389l-.103-.337m8.538-7.954c-14.283-12.429-36.599-18.405-51.783-13.105 26.876.512 42.677 6.912 57.039 26.484a366.51 366.51 0 0 1-2.622-6.435l2.538-1.729a39.304 39.304 0 0 0-.628-.724c-.82.3-1.687.613-2.52.903a222.317 222.317 0 0 1-2.024-5.394" fill="#538238"/><path fill-rule="evenodd" clip-rule="evenodd" d="M498.804 165.145c-3.998-18.868-19.588-34.656-33.035-37.408l-.584.345c2.457 1.278 8.04 4.6 15.167 11.49 9.696 9.37 15.268 25.756 15.525 31.337.123 2.659.137 7.317.12 11.468a1134.7 1134.7 0 0 1-.033 4.705c-.016 1.518-.03 2.708-.039 3.332l-.007.479s.075-.052.214-.155l.237-.18a41.927 41.927 0 0 0 1.223-3.133 40.72 40.72 0 0 0 1.216-4.307c1.357-6.089 1.224-12.176-.004-17.973m20.877 17.245c17.363-3.942 34.096 6.324 47.71 30.541-4.84-20.907-20.88-33.885-37.183-35.099a69.945 69.945 0 0 0-5.491 2.146l-2.19-1.828c-.66.106-1.318.233-1.973.381l1.54 2.653a88.92 88.92 0 0 0-2.413 1.206" fill="#538238"/><path fill-rule="evenodd" clip-rule="evenodd" d="M534.857 131.883c-15.544 2.42-30.532 14.976-36.053 33.262.523 2.472.848 4.996.943 7.551 2.885-5.979 10.324-20.555 17.724-28.196 9.457-9.761 17.386-12.617 17.386-12.617zm-29.113 48.764c19.137-16.183 32.1-18.89 58.433-8.272-16.52-15.792-39.76-12.912-53.764-1.3a233.898 233.898 0 0 1-1.806 3.812c-.506-.221-1.024-.453-1.536-.687a36.2 36.2 0 0 0-.811.886l1.616 1.3a342.863 342.863 0 0 1-2.132 4.261" fill="#538238"/><path fill-rule="evenodd" clip-rule="evenodd" d="M502.213 196.885a3.683 3.683 0 1 1-4.525-5.813 3.683 3.683 0 0 1 4.525 5.813z" fill="#C1E01C"/><path fill-rule="evenodd" clip-rule="evenodd" d="M496.469 195.181a3.684 3.684 0 0 0 5.859-4.015 3.698 3.698 0 0 1 1.25 2.176 3.693 3.693 0 0 1-.194 1.971 3.67 3.67 0 0 1-1.063 1.484l-.108.088a3.683 3.683 0 0 1-5.744-1.704" fill="#B4CE1E"/><path fill-rule="evenodd" clip-rule="evenodd" d="M491.827 198.559a3.683 3.683 0 1 1 1.053-7.29 3.683 3.683 0 0 1-1.053 7.29z" fill="#C1E01C"/><path fill-rule="evenodd" clip-rule="evenodd" d="M489.072 193.237a3.689 3.689 0 0 0 3.979 3.433 3.688 3.688 0 0 0 2.977-1.994 3.678 3.678 0 0 1-4.063 3.9l-.138-.018a3.683 3.683 0 0 1-2.755-5.321" fill="#B4CE1E"/><path fill-rule="evenodd" clip-rule="evenodd" d="M495.182 193.727a3.683 3.683 0 1 1 1.05-7.29 3.683 3.683 0 0 1-1.05 7.29z" fill="#C1E01C"/><path fill-rule="evenodd" clip-rule="evenodd" d="M492.428 188.405a3.684 3.684 0 0 0 6.954 1.44 3.672 3.672 0 0 1-2.256 3.635c-.554.232-1.17.33-1.806.264l-.138-.018a3.682 3.682 0 0 1-2.754-5.321z" fill="#B4CE1E"/><path fill-rule="evenodd" clip-rule="evenodd" d="M495.803 198.289a3.683 3.683 0 1 1 1.053-7.29 3.683 3.683 0 0 1-1.053 7.29z" fill="#C1E01C"/><path fill-rule="evenodd" clip-rule="evenodd" d="M493.048 192.968a3.686 3.686 0 0 0 3.979 3.433 3.688 3.688 0 0 0 2.977-1.994 3.678 3.678 0 0 1-4.063 3.9l-.138-.018a3.684 3.684 0 0 1-2.755-5.321" fill="#B4CE1E"/><path fill-rule="evenodd" clip-rule="evenodd" d="M507.37 199.558a3.682 3.682 0 1 1-4.914-5.487 3.682 3.682 0 0 1 4.914 5.487z" fill="#C1E01C"/><path fill-rule="evenodd" clip-rule="evenodd" d="M501.521 198.252a3.687 3.687 0 0 0 5.187-.845 3.686 3.686 0 0 0 .384-3.563 3.71 3.71 0 0 1 1.396 2.085 3.68 3.68 0 0 1-1.016 3.533l-.103.095a3.684 3.684 0 0 1-5.848-1.305" fill="#B4CE1E"/><path fill-rule="evenodd" clip-rule="evenodd" d="M504.938 193.678a3.682 3.682 0 1 1-4.912-5.487 3.682 3.682 0 0 1 4.912 5.487" fill="#C1E01C"/><path fill-rule="evenodd" clip-rule="evenodd" d="M499.091 192.373a3.684 3.684 0 0 0 5.57-4.408A3.673 3.673 0 0 1 506 192.03a3.666 3.666 0 0 1-.96 1.552l-.101.096a3.684 3.684 0 0 1-5.848-1.305" fill="#B4CE1E"/><path fill-rule="evenodd" clip-rule="evenodd" d="M471.733 324.407c-.29.01-8.073-.615-7.896-.599.179.018 8.552 1.631 8.552 1.631l-.656-1.032zm2.09-10.573c-.218.016-8.647-.814-8.647-.814l8.319 2.399.328-1.585m1.052-8.122c-.356-.034-7.323-1.156-7.323-1.156l6.525 2.373.798-1.217zm.887-11.726l-6.605-.766 6.444 1.719.161-.953m.966-9.496l-5.46-.729 5.739 2.335-.279-1.605m2.202-8.517s-5.183-.632-4.969-.612c.212.022 4.565 1.471 4.565 1.471l.403-.859zm1.823-7.942l-5.573-.668 4.865 1.715.708-1.047zm1.106-7.542l-4.804-.453 4.387 1.831.417-1.379m1.881-8.546l-4.072-.599 3.997 1.776.075-1.177m1.579-6.098l-4.364-.16 3.843 1.511.52-1.35zm1.16-6.605l-.253 1.161s-4.178-1.577-3.951-1.503c.225.076 4.204.342 4.204.342m1.675-5.424l-.333 1.261-3.756-1.287 4.09.026zm1.538-6.981l-.356 1.116-3.513-1.013 3.87-.103zm2.169-7.802l-.436 1.575-2.725-1.548 3.161-.027m2.003-7.17l-.251 1.521-3.04-1.65 3.29.129" fill="#956B34"/><path fill-rule="evenodd" clip-rule="evenodd" d="M486.267 324.204a2.97 2.97 0 0 1 1.127 4.045l-.041.071c.484.475.733 1.132.701 1.795a4.763 4.763 0 0 1 5.865 5.261 4.763 4.763 0 0 1 .44 5.327l-.129.213a5.398 5.398 0 0 1 4 8.004 5.399 5.399 0 0 1-9.384.03 6.708 6.708 0 0 1-5.982-.313 6.694 6.694 0 0 1-2.766-2.962 8.54 8.54 0 0 1-7.681-.364 8.518 8.518 0 0 1-3.116-3.024 7.864 7.864 0 0 1-6.423-.595 7.854 7.854 0 0 1-2.376-2.059c-.62.196-1.27.295-1.924.288l-.165.31a8.088 8.088 0 0 1-14.025.113 7.173 7.173 0 0 1-6.11-2.421 6.348 6.348 0 1 1-.465-12.355 3.842 3.842 0 0 1 7.077-2.621 5.582 5.582 0 0 1 7.52-1.976 5.567 5.567 0 0 1 2.796 4.186 3.072 3.072 0 0 1 3.908-.754l.128.074a4.966 4.966 0 0 1 8.472-1.293 5.017 5.017 0 0 1 9.63 2.017 3.79 3.79 0 0 1 5.002-.072 2.971 2.971 0 0 1 3.921-.925" fill="#72C62C"/><path fill-rule="evenodd" clip-rule="evenodd" d="M509.204 336.185a2.97 2.97 0 0 1 1.126 4.045l-.041.07c.484.474.733 1.132.701 1.795a4.763 4.763 0 0 1 5.865 5.261 4.763 4.763 0 0 1 .44 5.327l-.129.213a5.398 5.398 0 0 1 4 8.004 5.397 5.397 0 0 1-9.384.03 6.708 6.708 0 0 1-5.982-.312 6.694 6.694 0 0 1-2.766-2.963 8.539 8.539 0 0 1-7.681-.364 8.507 8.507 0 0 1-3.116-3.024 7.864 7.864 0 0 1-6.423-.595 7.873 7.873 0 0 1-2.376-2.058 6.194 6.194 0 0 1-1.924.288l-.165.31a8.089 8.089 0 0 1-14.025.112 7.174 7.174 0 0 1-6.11-2.421 6.348 6.348 0 1 1-.465-12.355 3.842 3.842 0 0 1 7.077-2.621 5.581 5.581 0 0 1 10.316 2.21 3.073 3.073 0 0 1 3.908-.755l.128.076a4.966 4.966 0 0 1 8.472-1.293 5.017 5.017 0 0 1 9.63 2.017 3.79 3.79 0 0 1 5.002-.072 2.971 2.971 0 0 1 3.922-.925" fill="#66AE30"/><path fill-rule="evenodd" clip-rule="evenodd" d="M344.442 319.776a2.97 2.97 0 0 1 2.628 3.276l-.009.08a2.36 2.36 0 0 1 1.35 1.374 4.763 4.763 0 0 1 7.463 2.528 4.763 4.763 0 0 1 2.499 4.726l-.032.245a5.396 5.396 0 1 1-1.788 9.504 6.711 6.711 0 0 1-5.623 2.068 6.687 6.687 0 0 1-3.709-1.636 8.536 8.536 0 0 1-7.204 2.69 8.521 8.521 0 0 1-4.056-1.554 7.86 7.86 0 0 1-6.137 1.98 7.836 7.836 0 0 1-2.995-.957c-.493.424-1.05.77-1.656 1.022l-.03.35a8.09 8.09 0 0 1-12.849 5.623 7.143 7.143 0 0 1-4.238.846 7.208 7.208 0 0 1-2.33-.667 6.347 6.347 0 0 1-10.263-5.66 6.35 6.35 0 0 1 4.971-5.514 3.841 3.841 0 0 1 5.476-5.196 5.579 5.579 0 0 1 10.354-2.028 3.072 3.072 0 0 1 3.294-2.232l.148.02a4.965 4.965 0 0 1 7.279-4.524 5.015 5.015 0 0 1 5.564-4.99 5.015 5.015 0 0 1 4.084 3.055 3.788 3.788 0 0 1 4.57-2.036 2.97 2.97 0 0 1 3.24-2.393" fill="#72C62C"/><path fill-rule="evenodd" clip-rule="evenodd" d="M324.066 334.478a2.97 2.97 0 0 1 2.628 3.276l-.01.08c.632.245 1.12.752 1.352 1.374a4.763 4.763 0 0 1 7.463 2.528 4.766 4.766 0 0 1 2.5 4.726l-.034.245a5.395 5.395 0 0 1 6.825 5.784 5.396 5.396 0 0 1-8.613 3.72 6.711 6.711 0 0 1-5.623 2.068 6.687 6.687 0 0 1-3.709-1.636 8.536 8.536 0 0 1-7.204 2.69 8.522 8.522 0 0 1-4.056-1.554 7.862 7.862 0 0 1-6.137 1.98 7.829 7.829 0 0 1-2.995-.957c-.493.424-1.05.77-1.656 1.022l-.03.35a8.09 8.09 0 0 1-12.849 5.622 7.133 7.133 0 0 1-4.238.847 7.208 7.208 0 0 1-2.33-.667 6.347 6.347 0 0 1-10.263-5.66 6.349 6.349 0 0 1 4.971-5.514 3.84 3.84 0 0 1 5.476-5.196 5.58 5.58 0 0 1 10.354-2.028 3.072 3.072 0 0 1 3.294-2.232l.148.02a4.964 4.964 0 0 1 7.279-4.524 5.017 5.017 0 0 1 9.647-1.936 3.792 3.792 0 0 1 4.57-2.035 2.97 2.97 0 0 1 3.24-2.393" fill="#66AE30"/><path fill-rule="evenodd" clip-rule="evenodd" d="M405.737 334.128c93.901 0 171.626 34.997 185.053 80.617a.929.929 0 0 1 .147.472c0 6.89-82.915 12.476-185.2 12.476-102.285 0-185.202-5.585-185.202-12.476a.99.99 0 0 1 .144-.472c13.43-45.62 91.157-80.617 185.058-80.617z" fill="#F9B372"/><path fill-rule="evenodd" clip-rule="evenodd" d="M548.87 367.826c-43.181 22.758-114.862 37.643-195.986 37.643-44.05 0-85.317-4.39-120.749-12.045-5.383 6.756-9.27 13.898-11.456 21.321a.993.993 0 0 0-.144.472c0 6.89 82.917 12.476 185.202 12.476s185.2-5.585 185.2-12.476a.929.929 0 0 0-.147-.472c-5.213-17.717-20.12-33.833-41.92-46.919z" fill="#EFA262"/></svg>