<svg xmlns="http://www.w3.org/2000/svg" width="42" height="37" fill="none" viewBox="0 0 42 37"><path fill="#F2CE00" d="M36.9492 13.2266C36.8277 12.8579 36.5088 12.5946 36.1215 12.5344L24.5785 10.9093L19.3842 0.564273C19.2095 0.218186 18.8526 1.72203e-08 18.4653 1.72203e-08C18.078 1.72203e-08 17.7211 0.218186 17.5464 0.571797L12.4204 10.9469L0.877414 12.6472C0.490116 12.7074 0.171165 12.9708 0.0496603 13.3394C-0.0718448 13.7081 0.0344721 14.1144 0.315453 14.3777L8.69171 22.4205L6.75522 33.8113C6.68687 34.195 6.84635 34.5787 7.1653 34.8044C7.33996 34.9323 7.5526 35 7.76523 35C7.9323 35 8.09178 34.9624 8.24366 34.8796L18.5488 29.4701L28.8843 34.8194C29.0362 34.8947 29.1957 34.9323 29.3552 34.9323C29.9171 34.9323 30.3804 34.4733 30.3804 33.9166C30.3804 33.8338 30.3728 33.7586 30.35 33.6834L28.3527 22.3603L36.6758 14.2724C36.972 14.0015 37.0707 13.5952 36.9492 13.2266V13.2266ZM26.5454 21.2844C26.3023 21.5176 26.196 21.8562 26.2568 22.1872L27.9958 32.0658L19.0196 27.4237C18.7235 27.2657 18.3666 27.2732 18.0628 27.4237L9.11698 32.1184L10.7953 22.2248C10.8484 21.8938 10.7421 21.5628 10.4991 21.3295L3.23917 14.3476L13.2557 12.873C13.5899 12.8203 13.8785 12.6172 14.0227 12.3162L18.4729 3.3104L22.9837 12.2936C23.1356 12.5946 23.4242 12.7977 23.7583 12.8504L33.7825 14.2648L26.5454 21.2844V21.2844Z" transform="translate(0 1)"/></svg>