<svg xmlns="http://www.w3.org/2000/svg" viewBox="0 0 112.196 112.196" width="32" height="32"><circle cx="56.098" cy="56.098" r="56.098" fill="#fff"/><path d="M53.98 80.702h4.402s1.33-.146 2.01-.878c.624-.672.604-1.934.604-1.934s-.086-5.908 2.656-6.778c2.703-.857 6.174 5.71 9.853 8.235 2.782 1.91 4.896 1.492 4.896 1.492l9.838-.138s5.146-.317 2.706-4.363c-.2-.332-1.42-2.994-7.314-8.464-6.168-5.725-5.342-4.8 2.088-14.702 4.525-6.03 6.334-9.713 5.77-11.29-.54-1.502-3.868-1.105-3.868-1.105l-11.076.068s-.82-.112-1.43.252c-.595.357-.978 1.19-.978 1.19s-1.753 4.666-4.09 8.635c-4.933 8.375-6.905 8.817-7.71 8.297-1.876-1.212-1.408-4.87-1.408-7.467 0-8.116 1.23-11.5-2.397-12.376-1.203-.292-2.09-.484-5.168-.515-3.952-.04-7.297.012-9.19.94-1.26.617-2.233 1.992-1.64 2.07.73.1 2.39.448 3.268 1.645 1.135 1.544 1.095 5.012 1.095 5.012s.652 9.554-1.523 10.74c-1.493.815-3.54-.847-7.938-8.445-2.253-3.892-3.954-8.194-3.954-8.194s-.328-.804-.913-1.234c-.71-.522-1.702-.688-1.702-.688l-10.525.07s-1.58.043-2.16.73c-.516.61-.04 1.875-.04 1.875s8.24 19.278 17.57 28.993c8.554 8.907 18.27 8.322 18.27 8.322z" fill-rule="evenodd" clip-rule="evenodd" fill="#4e77a3"/></svg>