<svg xmlns="http://www.w3.org/2000/svg" width="80" height="80" fill="#1fa1af" viewBox="0 0 59.65 59.65"><path d="M35.033 49.65c-1.93 0-3.5 1.57-3.5 3.5s1.57 3.5 3.5 3.5 3.5-1.57 3.5-3.5-1.57-3.5-3.5-3.5zm0 5c-.827 0-1.5-.673-1.5-1.5s.673-1.5 1.5-1.5 1.5.673 1.5 1.5-.672 1.5-1.5 1.5zM13.568 21.211l3.535 3.535a.997.997 0 0 0 1.414 0 .999.999 0 0 0 0-1.414l-2.192-2.192a5.017 5.017 0 0 0 0-5.515l4.384-4.385c1.621 1.078 3.893 1.078 5.516 0l2.192 2.192a.999.999 0 1 0 1.414-1.414l-3.536-3.536-.707.707c-1.134 1.133-3.109 1.133-4.243 0l-.707-.707-7.071 7.071.707.707a3.005 3.005 0 0 1 0 4.243l-.706.708zm29.769 7.142a5.017 5.017 0 0 0 0 5.515l-4.384 4.385c-1.623-1.079-3.895-1.079-5.516 0l-2.192-2.192a.999.999 0 1 0-1.414 1.414l3.536 3.536.707-.707c1.134-1.134 3.109-1.132 4.243 0l.707.707 7.071-7.071-.707-.707a3.005 3.005 0 0 1 0-4.243l.707-.707-3.535-3.535a.999.999 0 1 0-1.414 1.414l2.191 2.191z"/><circle cx="47.509" cy="31.11" r="1"/><circle cx="36.195" cy="42.424" r="1"/><path d="M24.174 7.776c.391-.391.758-1.024.368-1.414a.999.999 0 0 0-1.414 0c-.391.391-.758 1.024-.368 1.414a1 1 0 0 0 1.414 0z"/><circle cx="12.154" cy="18.382" r="1"/><path d="M51.533 37.15a8.37 8.37 0 0 0-.413-2.58l3.455-3.455-4.555-4.612a4.493 4.493 0 0 0 1.513-3.353c0-2.481-2.019-4.5-4.5-4.5a4.4 4.4 0 0 0-.54.04c.022-.178.04-.357.04-.54 0-2.481-2.019-4.5-4.5-4.5a4.4 4.4 0 0 0-.54.04c.022-.178.04-.357.04-.54 0-2.481-2.019-4.5-4.5-4.5a4.4 4.4 0 0 0-.54.04c.022-.178.04-.357.04-.54 0-2.607-1.738-4.5-4.132-4.5-1.308 0-2.628.566-3.544 1.422L23.847 0 5.075 18.374l9.243 9.244a4.468 4.468 0 0 0-.784 2.532c0 1.564.804 2.942 2.019 3.748.06.08.132.161.226.241l10.755 10.715v1.796h-2v13h26v-13h-2v-3.029a8.42 8.42 0 0 0 2.999-6.471zm-36-7c0-.657.26-1.251.675-1.697l.153-.14a2.523 2.523 0 0 1 1.207-.616 2.45 2.45 0 0 1 .464-.047h10c1.378 0 2.5 1.121 2.5 2.5 0 .162-.018.319-.048.473a2.526 2.526 0 0 1-2.22 1.999l-.297.028h-9.935a2.503 2.503 0 0 1-2.499-2.5zm8.642-11.061c3.119-3.119 8.194-3.119 11.313 0 1.511 1.511 2.343 3.521 2.343 5.657s-.832 4.146-2.343 5.657a7.967 7.967 0 0 1-3.598 2.065c.108-.179.202-.367.285-.561.005-.012.008-.026.014-.038a4.53 4.53 0 0 0 .263-.906c.048-.265.082-.534.082-.813 0-2.481-2.019-4.5-4.5-4.5h-6.145a7.962 7.962 0 0 1 2.286-6.561zm25.358 4.061c0 .758-.347 1.462-.919 1.928l-3.488-3.532a2.492 2.492 0 0 1 1.907-.897 2.504 2.504 0 0 1 2.5 2.501zm-5-5a2.49 2.49 0 0 1-.888 1.897l-3.488-3.532a2.488 2.488 0 0 1 1.876-.866 2.504 2.504 0 0 1 2.5 2.501zm-5-5c0 .727-.326 1.4-.857 1.866l-3.488-3.531a2.484 2.484 0 0 1 1.844-.834 2.5 2.5 0 0 1 2.501 2.499zm-7.132-7.5c1.473 0 2.132 1.256 2.132 2.5 0 .712-.314 1.369-.825 1.834l-3.45-3.493c.544-.493 1.36-.841 2.143-.841zm-8.578-2.828l3.904 3.952-.086.196 5 5 .573.573 4.427 4.427.573.573 4.427 4.427.573.573 5 5 .016-.007 3.526 3.57L36.212 46.65h-.033l-12-12h3.854c.102 0 .198-.023.299-.03.498.076.997.117 1.494.117 2.633 0 5.193-1.038 7.075-2.92 1.889-1.889 2.929-4.4 2.929-7.071s-1.04-5.183-2.929-7.071c-3.898-3.898-10.243-3.898-14.142 0a9.95 9.95 0 0 0-2.88 7.976h-1.847c-.264 0-.523.032-.78.079a4.483 4.483 0 0 0-1.241.423c-.073.038-.149.069-.22.11L7.919 18.39 23.823 2.822zm4.358 40.812c-.045-.039-.092-.074-.18-.14l-8.877-8.844h2.227l12 12h-4.817v-2.718l-.353-.298zM26.533 57.65v-9h8.425c.139 0 .276.011.412.021l.824.824.547-.547c2.201.746 3.791 2.827 3.791 5.276v3.426H26.533zm22 0h-6v-3.426a7.546 7.546 0 0 0-2.464-5.574h8.464v9zm-9.493-11l3.729-3.729 6.697-6.697a6.447 6.447 0 0 1-2.535 6.117l-.398.3v4.009H39.04z"/></svg>