<svg xmlns="http://www.w3.org/2000/svg" width="48" height="48" viewBox="0 0 512 512"><path d="M496.11 303.669c2.648-15.007 4.414-30.897 4.414-46.786 0-133.297-108.579-241.876-242.759-241.876-15.89 0-31.779 1.766-46.786 4.414C189.793 7.062 165.959 0 140.359 0 62.676 0 0 62.676 0 140.359c0 25.6 7.062 50.317 19.421 70.621-2.648 15.007-4.414 30.897-4.414 46.786 0 134.179 108.579 242.759 242.759 242.759 15.89 0 31.779-1.766 46.786-4.414 20.303 12.359 45.021 15.89 70.621 15.89C451.972 512 512 451.972 512 374.29c0-25.6-4.414-49.435-15.89-70.621" fill="#00b5eb"/><path d="M262.179 424.607c-86.51 0-129.766-32.662-143.007-73.269s15.89-52.083 24.717-52.966c8.828-.883 28.248 1.766 34.428 18.538 6.179 17.655 24.717 52.083 66.207 56.497s68.855-15.007 76.8-34.428c7.945-20.303-7.062-47.669-70.621-56.497s-130.648-37.076-130.648-101.517 74.152-90.041 143.89-90.041 105.048 39.724 112.993 54.731c9.71 19.421 6.179 51.2-16.772 56.497-23.834 6.179-36.193-7.062-53.848-39.724-17.655-33.545-82.097-24.717-103.283-6.179-21.186 19.421-15.89 46.786 74.152 63.559 89.159 17.655 122.703 49.434 122.703 100.634-.883 50.317-51.2 104.165-137.711 104.165" fill="#fff"/></svg>