<svg xmlns="http://www.w3.org/2000/svg" width="60" height="60" fill="#0097A7" viewBox="0 0 512 512"><path d="M437.02 74.98C388.667 26.628 324.38 0 256 0S123.333 26.628 74.98 74.98C26.628 123.333 0 187.62 0 256s26.628 132.667 74.98 181.02C123.333 485.372 187.62 512 256 512s132.667-26.628 181.02-74.98C485.372 388.667 512 324.38 512 256s-26.628-132.667-74.98-181.02zM256 491.602c-129.911 0-235.602-105.69-235.602-235.602S126.089 20.398 256 20.398 491.602 126.089 491.602 256 385.911 491.602 256 491.602z"/><path d="M256 40.201C137.008 40.201 40.201 137.008 40.201 256S137.008 471.799 256 471.799 471.799 374.992 471.799 256 374.992 40.201 256 40.201zm174.07 304.522l-29.412-16.982c-4.877-2.815-11.115-1.145-13.932 3.733s-1.145 11.116 3.733 13.932l29.376 16.96a196.985 196.985 0 0 1-57.467 57.467l-16.96-29.376c-2.817-4.879-9.055-6.55-13.932-3.733-4.878 2.816-6.55 9.054-3.733 13.932l16.982 29.412c-23.785 12.172-50.376 19.611-78.524 21.065v-33.988c0-5.633-4.566-10.199-10.199-10.199s-10.199 4.566-10.199 10.199v33.988c-28.148-1.454-54.738-8.893-78.524-21.065l16.982-29.412c2.817-4.878 1.145-11.116-3.733-13.932-4.877-2.815-11.116-1.145-13.932 3.733l-16.96 29.376a196.961 196.961 0 0 1-57.467-57.467l29.376-16.96c4.878-2.816 6.55-9.054 3.733-13.932-2.816-4.878-9.055-6.55-13.932-3.733L81.93 344.723c-12.172-23.785-19.611-50.376-21.065-78.524h33.988c5.633 0 10.199-4.566 10.199-10.199s-4.566-10.199-10.199-10.199H60.865c1.454-28.148 8.893-54.738 21.065-78.524l29.412 16.982a10.194 10.194 0 0 0 13.932-3.733c2.817-4.878 1.145-11.116-3.733-13.932l-29.376-16.96a196.961 196.961 0 0 1 57.467-57.467l16.96 29.376a10.194 10.194 0 0 0 13.932 3.733c4.878-2.816 6.55-9.054 3.733-13.932l-16.98-29.414c23.784-12.172 50.376-19.611 78.524-21.065v33.988c0 5.633 4.566 10.199 10.199 10.199s10.199-4.566 10.199-10.199V60.865c28.148 1.454 54.738 8.893 78.524 21.065l-16.982 29.412c-2.817 4.878-1.145 11.116 3.733 13.932a10.194 10.194 0 0 0 13.932-3.733l16.96-29.376a196.961 196.961 0 0 1 57.467 57.467l-29.376 16.96c-4.878 2.816-6.55 9.054-3.733 13.932a10.194 10.194 0 0 0 13.932 3.733l29.412-16.982c12.172 23.785 19.611 50.376 21.065 78.524h-33.988c-5.633 0-10.199 4.566-10.199 10.199s4.566 10.199 10.199 10.199h33.988c-1.452 28.15-8.89 54.74-21.063 78.526z"/><path d="M266.199 227.604v-65.437c0-5.633-4.566-10.199-10.199-10.199s-10.199 4.566-10.199 10.199v65.437c-11.633 4.191-19.974 15.336-19.974 28.396 0 7.418 2.696 14.215 7.153 19.474l-16.189 28.041c-2.817 4.878-1.145 11.116 3.733 13.932a10.194 10.194 0 0 0 13.932-3.733l16.181-28.027c1.742.314 3.532.487 5.363.487 16.638 0 30.173-13.535 30.173-30.173 0-13.06-8.341-24.205-19.974-28.397zM256 265.775c-5.39 0-9.775-4.385-9.775-9.775 0-5.39 4.385-9.775 9.775-9.775 5.39 0 9.775 4.385 9.775 9.775 0 5.39-4.385 9.775-9.775 9.775zm0-147.464c-5.633 0-10.199 4.566-10.199 10.199v4.08c0 5.633 4.566 10.199 10.199 10.199s10.199-4.566 10.199-10.199v-4.08c0-5.633-4.566-10.199-10.199-10.199z"/></svg>