<?xml version="1.0" encoding="iso-8859-1"?>
<!-- Generator: Adobe Illustrator 19.0.0, SVG Export Plug-In . SVG Version: 6.00 Build 0)  -->
<svg version="1.1" id="Capa_1" xmlns="http://www.w3.org/2000/svg" xmlns:xlink="http://www.w3.org/1999/xlink" x="0px" y="0px" width="100" height="100"
	 viewBox="0 0 512 512" style="enable-background:new 0 0 512 512;" xml:space="preserve">
<rect x="234.16" y="140.4" style="fill:#3E4347;" width="46.64" height="46.32"/>
<path style="fill:#5A5F63;" d="M451.408,430.56H60.592C27.12,430.56,0,457.68,0,491.152l0,0h512l0,0
	C512,457.68,484.88,430.56,451.408,430.56z"/>
<rect x="114.96" y="410.416" style="fill:#3E4347;" width="285.04" height="34.144"/>
<path style="fill:#D3D9DD;" d="M478.192,386.928v6.24c0,9.6-7.68,17.28-17.28,17.28H54.032c-9.6,0-17.28-7.68-17.28-17.28
	c0-118.72,91.36-220.96,210.08-226.56C373.552,160.544,478.192,261.504,478.192,386.928z"/>
<path style="fill:#E9EFF4;" d="M257.488,166.304c-3.6,0-7.12,0.416-10.672,0.736c74.32,7.488,133.152,102.96,133.152,219.952v23.44
	H420v-23.44C420,265.104,347.248,166.304,257.488,166.304z"/>
<path style="fill:#BBC7D1;" d="M297.76,153.712H217.2c-11.28,0-20.432-9.152-20.432-20.432l0,0c0-11.28,9.136-20.432,20.432-20.432
	h80.56c11.28,0,20.432,9.136,20.432,20.432l0,0C318.192,144.56,309.04,153.712,297.76,153.712z"/>
<g>
	<path style="fill:#F3C432;" d="M362.672,81.808l-27.52,27.68c-5.84,5.52-14.608,5.552-20.48,0c-5.6-5.76-5.6-14.88,0-20.48
		l27.52-27.52c5.44-5.44,15.04-5.44,20.48,0C367.92,66.752,368.512,75.968,362.672,81.808z"/>
	<path style="fill:#F3C432;" d="M197.232,89.008c5.6,5.6,5.6,14.72,0,20.32c-5.312,5.632-14.32,5.824-20.32,0.16l-27.52-27.68
		c-5.84-5.84-5.264-15.056,0-20.32c5.44-5.44,14.88-5.44,20.32,0L197.232,89.008z"/>
	<path style="fill:#F3C432;" d="M270.352,35.248v38.88c0,8-6.4,14.4-14.4,14.4c-7.84,0-14.4-6.4-14.4-14.4v-38.88
		c0-8,6.56-14.4,14.4-14.4C263.952,20.848,270.352,27.248,270.352,35.248z"/>
</g>
</svg>
