<?xml version="1.0" encoding="iso-8859-1"?>
<!-- Generator: Adobe Illustrator 19.0.0, SVG Export Plug-In . SVG Version: 6.00 Build 0)  -->
<svg version="1.1" id="Capa_1" xmlns="http://www.w3.org/2000/svg" xmlns:xlink="http://www.w3.org/1999/xlink" x="0px" y="0px" width="100" height="100"
	 viewBox="0 0 509.414 509.414" style="enable-background:new 0 0 509.414 509.414;" xml:space="preserve">
<path style="fill:#FFD436;" d="M329.28,57.866c-8.928,4.224-17.392,9.632-25.392,16.224c1.76,1.056,3.296,2.352,4.704,3.76
	c1.648,1.648,3.056,3.52,4.224,5.408c7.872-6.224,16.336-11.408,25.04-15.392C335.28,64.33,332.464,61.034,329.28,57.866z"/>
<polygon style="fill:#FFD93B;" points="0,322.026 3.248,377.834 57.328,379.338 69.216,367.45 69.216,336.602 100.064,336.602 
	110.032,326.634 110.016,295.786 140.88,295.786 179.056,257.61 121.728,200.282 "/>
<path style="fill:#F4C534;" d="M106.192,253.642c-78.784,78.784-87.312,70.256-8.528-8.528l57.904-57.904l8.528,8.528
	L106.192,253.642z"/>
<path style="fill:#5A5F63;" d="M164.144,54.01c-29.792,29.792-39.584,72.048-29.488,110.032l-24.544,24.544l80.656,80.64
	l24.544-24.544c38,10.096,80.256,0.304,110.032-29.488c44.528-44.528,44.528-116.768,0-161.296
	C280.912,9.482,208.672,9.482,164.144,54.01z M304.352,136.842l-61.84-61.84c17.12-17.12,44.736-17.024,61.744,0
	C321.376,92.106,321.472,119.722,304.352,136.842z"/>
<path style="fill:#3E4347;" d="M489.936,276.25l-61.072-61.072c-25.968-25.968-68.064-25.968-94.032,0l-99.056,99.056
	c-25.968,25.968-25.968,68.064,0,94.032l61.088,61.072c25.968,25.968,68.064,25.968,94.032,0l99.056-99.056
	C515.904,344.33,515.904,302.218,489.936,276.25z M431.36,322.858l-47.6-47.6c-5.152-5.152-5.152-13.584,0-18.736
	c5.152-5.152,13.584-5.152,18.736,0l47.6,47.6c5.152,5.152,5.152,13.584,0,18.736C444.944,328.01,436.512,328.01,431.36,322.858z"/>
<path style="fill:#ED2B35;" d="M393.264,284.746c-29.072,2.576-58.992-6.208-82.432-26.352c-4.064,2.08-8.064,4.224-11.92,6.464
	c29.328,27.248,68.704,37.68,105.76,31.296L393.264,284.746z"/>
<path style="fill:#DAE5EF;" d="M471.136,85.866c-38.24-38.24-95.68-46.24-141.92-23.84c-8.8,4.32-17.28,9.76-25.28,16.32
	c-2.88,2.24-5.6,4.96-8.32,7.52c-7.36,7.36-13.6,15.36-18.56,23.68l9.44,9.44c4.64-8.64,10.72-16.64,18.08-24
	c2.56-2.56,5.44-5.12,8.32-7.52c7.84-6.24,16.32-11.36,24.96-15.36c40.96-18.24,90.72-10.56,124.32,22.88
	c42.72,42.72,43.36,111.84,2.08,155.68l8.96,8.96C519.776,211.146,518.816,133.706,471.136,85.866z M423.616,277.706
	c-9.76,3.84-20,6.24-30.4,7.04c-28.96,2.72-59.04-6.08-82.4-26.24c-2.08-1.92-4.16-3.84-6.4-5.92c-6.24-6.24-11.68-13.44-16.32-20.8
	c-4,1.28-8.48,2.4-12.8,3.2c5.28,9.44,12.32,18.56,20.32,26.56l3.2,3.36c29.44,27.2,68.8,37.6,105.76,31.2
	c9.92-1.6,19.68-4.64,28.8-8.64L423.616,277.706z"/>
<ellipse style="fill:#E24B4B;" cx="289.448" cy="351.282" rx="30.608" ry="30.608"/>
<ellipse style="fill:#65B1EF;" cx="355.2" cy="417.12" rx="30.608" ry="30.608"/>
<g>
</g>
<g>
</g>
<g>
</g>
<g>
</g>
<g>
</g>
<g>
</g>
<g>
</g>
<g>
</g>
<g>
</g>
<g>
</g>
<g>
</g>
<g>
</g>
<g>
</g>
<g>
</g>
<g>
</g>
</svg>
