<?xml version="1.0" encoding="iso-8859-1"?>
<!-- Generator: Adobe Illustrator 19.0.0, SVG Export Plug-In . SVG Version: 6.00 Build 0)  -->
<svg version="1.1" id="Capa_1" xmlns="http://www.w3.org/2000/svg" xmlns:xlink="http://www.w3.org/1999/xlink" x="0px" y="0px" width="100" height="100" fill="#1fa1af"
	 viewBox="0 0 513.164 513.164" style="enable-background:new 0 0 513.164 513.164;" xml:space="preserve">
<g>
	<g>
		<circle cx="256.582" cy="244.364" r="11.636"/>
	</g>
</g>
<g>
	<g>
		<polygon points="233.309,116.364 244.945,209.455 268.218,209.455 279.855,116.364 		"/>
	</g>
</g>
<g>
	<g>
		<path d="M256.582,0c-89.6,0-162.909,73.309-162.909,162.909c0,51.2,22.109,97.745,60.509,126.836
			c20.945,15.127,31.418,37.236,32.582,66.327c-6.982,5.818-11.636,13.964-11.636,23.273c0,6.982,2.327,12.8,5.818,17.455
			c-3.491,4.655-5.818,10.473-5.818,17.455c0,6.982,2.327,12.8,5.818,17.455c-3.491,4.655-5.818,10.473-5.818,17.455
			c0,16.291,12.8,29.091,29.091,29.091h9.309l9.309,26.764c1.164,4.655,5.818,8.145,10.473,8.145h46.545
			c4.655,0,9.309-3.491,10.473-8.145l9.309-26.764h9.309c16.291,0,29.091-12.8,29.091-29.091c0-6.982-2.327-12.8-5.818-17.455
			c3.491-4.655,5.818-10.473,5.818-17.455c0-6.982-2.327-12.8-5.818-17.455c3.491-4.655,5.818-10.473,5.818-17.455
			c0-16.291-12.8-29.091-29.091-29.091h-52.364c-6.982,0-11.636,4.655-11.636,11.636c0,6.982,4.655,11.636,11.636,11.636h52.364
			c3.491,0,5.818,2.327,5.818,5.818S312.436,384,308.945,384c-6.982,0-11.636,4.655-11.636,11.636
			c0,6.982,4.655,11.636,11.636,11.636c3.491,0,5.818,2.327,5.818,5.818s-2.327,5.818-5.818,5.818h-52.364
			c-6.982,0-11.636,4.655-11.636,11.636s4.655,11.636,11.636,11.636h52.364c3.491,0,5.818,2.327,5.818,5.818
			s-2.327,5.818-5.818,5.818H204.218c-3.491,0-5.818-2.327-5.818-5.818s2.327-5.818,5.818-5.818c6.982,0,11.636-4.655,11.636-11.636
			s-4.655-11.636-11.636-11.636c-3.491,0-5.818-2.327-5.818-5.818s2.327-5.818,5.818-5.818h64c6.982,0,11.636-4.655,11.636-11.636
			c0-6.982-4.655-11.636-11.636-11.636h-64c-3.491,0-5.818-2.327-5.818-5.818s2.327-5.818,5.818-5.818
			c6.982,0,11.636-4.655,11.636-11.636c0-4.655-2.327-8.145-5.818-10.473c-2.327-34.909-16.291-61.673-41.891-80.291
			c-32.582-24.436-51.2-64-51.2-107.055c0-76.8,62.836-139.636,139.636-139.636s139.636,62.836,139.636,139.636
			c0,43.055-18.618,83.782-51.2,107.055c-18.618,13.964-30.255,31.418-37.236,52.364c-2.327,5.818,1.164,12.8,8.145,13.964
			c5.818,2.327,12.8-1.164,13.964-8.146c4.655-16.291,13.964-30.255,29.091-40.727c38.4-26.764,60.509-74.473,60.509-124.509
			C419.491,73.309,346.182,0,256.582,0z M275.2,477.091l-3.491,11.636h-30.255l-3.491-11.636H275.2z"/>
	</g>
</g>
<g>
</g>
<g>
</g>
<g>
</g>
<g>
</g>
<g>
</g>
<g>
</g>
<g>
</g>
<g>
</g>
<g>
</g>
<g>
</g>
<g>
</g>
<g>
</g>
<g>
</g>
<g>
</g>
<g>
</g>
</svg>
