<?xml version="1.0" encoding="iso-8859-1"?>
<!-- Generator: Adobe Illustrator 19.0.0, SVG Export Plug-In . SVG Version: 6.00 Build 0)  -->
<svg version="1.1" id="Capa_1" xmlns="http://www.w3.org/2000/svg" xmlns:xlink="http://www.w3.org/1999/xlink" x="0px" y="0px" width="100" height="100"
	 viewBox="0 0 488.727 488.727" style="enable-background:new 0 0 488.727 488.727;" xml:space="preserve">
<g>
	<path style="fill:#697F90;" d="M384,342.691l31.418-31.418c2.327-2.327,4.655-3.491,8.145-3.491h25.6
		c3.491,0,5.818-1.164,8.145-3.491l31.418-31.418v197.818H384L384,342.691L384,342.691z"/>
	<path style="fill:#697F90;" d="M0,261.236h95.418c5.818,0,11.636,2.327,16.291,6.982l51.2,51.2v151.273H0V261.236z"/>
</g>
<path style="fill:#C97629;" d="M244.364,226.327c-6.982,0-11.636-4.655-11.636-11.636V28.509c0-6.982,4.655-11.636,11.636-11.636
	c6.982,0,11.636,4.655,11.636,11.636v186.182C256,221.673,251.345,226.327,244.364,226.327z"/>
<path style="fill:#B06328;" d="M244.364,214.691V34.327c0-3.491,2.327-5.818,5.818-5.818l0,0c3.491,0,5.818,3.491,5.818,5.818
	v180.364c0,3.491-2.327,5.818-5.818,5.818l0,0C246.691,220.509,244.364,218.182,244.364,214.691z"/>
<polyline style="fill:#F04B4D;" points="256,40.145 360.727,40.145 337.455,86.691 360.727,133.236 256,133.236 "/>
<path style="fill:#697F90;" d="M244.364,214.691h32.582c9.309,0,17.455,4.655,20.945,12.8L320,271.709
	c3.491,8.145,11.636,12.8,20.945,12.8H371.2c8.145,0,16.291,4.655,19.782,11.636l55.855,94.255
	c4.655,6.982,11.636,11.636,19.782,11.636l0,0c11.636,0,22.109,9.309,22.109,22.109v47.709H0v-47.709
	c0-11.636,9.309-22.109,22.109-22.109h1.164c8.145,0,15.127-3.491,19.782-10.473l55.855-83.782
	c4.655-6.982,11.636-10.473,19.782-10.473h30.255c9.309,0,17.455-5.818,20.945-13.964l23.273-53.527
	c3.491-8.145,11.636-13.964,20.945-13.964"/>
<path style="fill:#7B93A3;" d="M80.291,400.873L80.291,400.873c8.145,0,16.291-3.491,19.782-10.473l32.582-83.782
	c4.655-6.982,11.636-10.473,19.782-10.473h30.255c9.309,0,17.455-5.818,20.945-13.964l29.091-67.491h-19.782
	c-9.309,0-17.455,5.818-20.945,13.964l-23.273,53.527c-3.491,8.145-11.636,13.964-20.945,13.964h-30.255
	c-8.145,0-15.127,3.491-19.782,10.473L41.891,390.4c-4.655,6.982-11.636,10.473-19.782,10.473h0C10.473,400.873,0,410.182,0,422.982
	v47.709h58.182v-47.709C58.182,410.182,67.491,400.873,80.291,400.873z"/>
<g>
	<path style="fill:#4F6473;" d="M466.618,400.873c-8.145,0-16.291-4.655-19.782-11.636l-55.855-94.255
		c-4.655-6.982-11.636-11.636-19.782-11.636h-30.255c-9.309,0-17.455-4.655-20.945-12.8l-22.109-44.218
		c-3.491-8.145-11.636-12.8-20.945-12.8H256l27.927,57.018c3.491,8.145,11.636,12.8,20.945,12.8h30.255
		c8.145,0,16.291,4.655,19.782,11.636l32.582,94.255c4.655,6.982,11.636,11.636,19.782,11.636c11.636,0,22.109,9.309,22.109,22.109
		v47.709h58.182v-47.709C488.727,410.182,479.418,400.873,466.618,400.873z"/>
	<circle style="fill:#4F6473;" cx="174.545" cy="377.6" r="11.636"/>
	<circle style="fill:#4F6473;" cx="267.636" cy="342.691" r="11.636"/>
	<circle style="fill:#4F6473;" cx="290.909" cy="435.782" r="11.636"/>
	<circle style="fill:#4F6473;" cx="320" cy="406.691" r="5.818"/>
</g>
<circle style="fill:#697F90;" cx="87.273" cy="371.782" r="5.818"/>
<circle style="fill:#4F6473;" cx="343.273" cy="371.782" r="5.818"/>
<circle style="fill:#697F90;" cx="29.091" cy="429.964" r="5.818"/>
<g>
	<circle style="fill:#4F6473;" cx="238.545" cy="395.055" r="5.818"/>
	<circle style="fill:#4F6473;" cx="192" cy="429.964" r="5.818"/>
	<circle style="fill:#4F6473;" cx="331.636" cy="336.873" r="5.818"/>
	<circle style="fill:#4F6473;" cx="110.545" cy="441.6" r="5.818"/>
	<circle style="fill:#4F6473;" cx="226.909" cy="278.691" r="5.818"/>
	<circle style="fill:#4F6473;" cx="366.545" cy="429.964" r="5.818"/>
	<circle style="fill:#4F6473;" cx="215.273" cy="325.236" r="5.818"/>
</g>
<path style="fill:#DE333F;" d="M337.455,86.691h-58.182c-6.982,0-11.636-4.655-11.636-11.636V40.145H256v93.091h11.636h93.091
	L337.455,86.691z"/>
<g>
</g>
<g>
</g>
<g>
</g>
<g>
</g>
<g>
</g>
<g>
</g>
<g>
</g>
<g>
</g>
<g>
</g>
<g>
</g>
<g>
</g>
<g>
</g>
<g>
</g>
<g>
</g>
<g>
</g>
</svg>
