<?xml version="1.0" encoding="iso-8859-1"?>
<!-- Generator: Adobe Illustrator 19.0.0, SVG Export Plug-In . SVG Version: 6.00 Build 0)  -->
<svg version="1.1" id="Capa_1" xmlns="http://www.w3.org/2000/svg" xmlns:xlink="http://www.w3.org/1999/xlink" x="0px" y="0px" width="100" height="100"
	 viewBox="0 0 512 512" style="enable-background:new 0 0 512 512;" xml:space="preserve">
<path style="fill:#428DC3;" d="M512,88.648v334.72c0,10.16-8.512,17.968-18.848,17.376L13.408,412.68
	c-4.432-0.256-8.336-2.976-10.736-6.832c-1.6-2.72-2.672-6.032-2.672-9.44v-280.8c0-8.528,6.016-15.856,13.408-16.288
	l479.744-28.064C503.488,70.664,512,78.488,512,88.648z"/>
<path style="fill:#59A5E0;" d="M512,112.28v311.088c0,10.16-8.512,17.968-18.848,17.376L13.408,412.68
	c-4.432-0.256-8.336-2.976-10.736-6.832c-1.6-2.72-2.672-6.032-2.672-9.44v-2.32c41.456-113.52,197.168-222.608,421.376-267.632
	C451.36,120.472,481.568,115.672,512,112.28z"/>
<path style="fill:#65B1EF;" d="M512,247.88v175.488c0,10.16-8.512,17.968-18.848,17.376L13.408,412.68
	c-4.432-0.256-8.336-2.976-10.736-6.832c51.376-69.68,158.192-129.632,298.656-153.12C372.576,240.824,444.448,239.56,512,247.88z"
	/>
<path style="fill:#E9EFF4;" d="M82.96,213.016l-37.44,0.592c-7.6,0.112-13.728-6.8-13.728-15.472V156.2
	c0-8.656,6.128-15.936,13.728-16.272l37.424-1.6c7.856-0.336,14.256,6.576,14.256,15.456v42.96
	C97.216,205.608,90.816,212.888,82.96,213.016z"/>
</svg>
