<?xml version="1.0" encoding="iso-8859-1"?>
<!-- Generator: Adobe Illustrator 19.0.0, SVG Export Plug-In . SVG Version: 6.00 Build 0)  -->
<svg version="1.1" id="Capa_1" xmlns="http://www.w3.org/2000/svg" xmlns:xlink="http://www.w3.org/1999/xlink" x="0px" y="0px" width="100" height="100"
	 viewBox="0 0 512 512" style="enable-background:new 0 0 512 512;" xml:space="preserve">
<path style="fill:#B0C4D8;" d="M290.909,488.727l-8.145,16.291c-2.327,3.491-5.818,6.982-10.473,6.982h-32.582
	c-4.655,0-8.145-2.327-10.473-6.982l-8.145-16.291H290.909z"/>
<path style="fill:#FFE27A;" d="M256,0c89.6,0,162.909,72.145,162.909,160.582c0,50.036-22.109,96.582-60.509,124.509
	c-31.418,23.273-44.218,53.527-44.218,87.273H197.818c0-33.745-13.964-64-44.218-87.273c-38.4-27.927-60.509-74.473-60.509-124.509
	C93.091,72.145,166.4,0,256,0z"/>
<path style="fill:#FFEDA9;" d="M215.273,325.818c-4.655,0-8.145-2.327-10.473-5.818c-8.145-16.291-20.945-30.255-37.236-43.055
	c-4.655-3.491-5.818-11.636-2.327-16.291c3.491-4.655,11.636-5.818,16.291-2.327c18.618,13.964,33.745,31.418,44.218,51.2
	c3.491,5.818,1.164,12.8-4.655,15.127C218.764,325.818,216.436,325.818,215.273,325.818z"/>
<g>
	<path style="fill:#FFFCD5;" d="M186.182,67.491c-3.491,0-6.982-2.327-9.309-5.818c-3.491-5.818-2.327-12.8,3.491-16.291
		C202.473,31.418,229.236,23.273,256,23.273c6.982,0,11.636,4.655,11.636,11.636S262.982,46.545,256,46.545
		c-22.109,0-44.218,6.982-64,18.618C190.836,66.327,188.509,67.491,186.182,67.491z"/>
	<path style="fill:#FFFCD5;" d="M148.945,104.727c-2.327,0-4.655-1.164-5.818-2.327c-5.818-3.491-6.982-10.473-3.491-16.291
		c2.327-4.655,5.818-8.145,9.309-12.8c4.655-4.655,11.636-5.818,16.291-1.164c4.655,4.655,5.818,11.636,1.164,16.291
		c-2.327,3.491-5.818,6.982-8.145,10.473S152.436,104.727,148.945,104.727z"/>
</g>
<path style="fill:#FFCB5B;" d="M325.818,16.291c36.073,33.745,46.545,82.618,46.545,134.982c0,57.018-26.764,107.055-69.818,139.636
	c-29.091,22.109-6.982,50.036-11.636,81.455h23.273c0-33.745,13.964-64,44.218-87.273c37.236-27.927,60.509-74.473,60.509-124.509
	C418.909,96.582,380.509,41.891,325.818,16.291z"/>
<path style="fill:#C4D7E5;" d="M314.182,488.727H197.818c-6.982,0-11.636-4.655-11.636-11.636V384
	c0-6.982,4.655-11.636,11.636-11.636h116.364c6.982,0,11.636,4.655,11.636,11.636v93.091
	C325.818,484.073,321.164,488.727,314.182,488.727z"/>
<path style="fill:#B0C9DB;" d="M314.182,372.364h-46.545c6.982,0,11.636,4.655,11.636,11.636v93.091
	c0,6.982-4.655,11.636-11.636,11.636h46.545c6.982,0,11.636-4.655,11.636-11.636V384
	C325.818,377.018,321.164,372.364,314.182,372.364z"/>
<path style="fill:#D5E3EF;" d="M197.818,488.727h11.636c-6.982,0-11.636-4.655-11.636-11.636V384
	c0-6.982,4.655-11.636,11.636-11.636h-11.636c-6.982,0-11.636,4.655-11.636,11.636v93.091
	C186.182,484.073,190.836,488.727,197.818,488.727z"/>
<path style="fill:#99B4CD;" d="M325.818,384h-87.273c-3.491,0-5.818,2.327-5.818,5.818c0,3.491,2.327,5.818,5.818,5.818h87.273V384z
	"/>
<rect x="279.273" y="384" style="fill:#82A7C4;" width="46.545" height="11.636"/>
<path style="fill:#99B4CD;" d="M325.818,430.545H215.273c-3.491,0-5.818,2.327-5.818,5.818s2.327,5.818,5.818,5.818h110.545V430.545
	z"/>
<rect x="279.273" y="430.545" style="fill:#82A7C4;" width="46.545" height="11.636"/>
<path style="fill:#99B4CD;" d="M186.182,418.909h110.545c3.491,0,5.818-2.327,5.818-5.818s-2.327-5.818-5.818-5.818H186.182V418.909
	z"/>
<rect x="186.182" y="407.273" style="fill:#B0C4D9;" width="11.636" height="11.636"/>
<path style="fill:#99B4CD;" d="M186.182,465.455h87.273c3.491,0,5.818-2.327,5.818-5.818s-2.327-5.818-5.818-5.818h-87.273V465.455z
	"/>
<rect x="186.182" y="453.818" style="fill:#B0C4D9;" width="11.636" height="11.636"/>
<path style="fill:#99B4CD;" d="M290.909,488.727h-23.273h-46.545l5.818,11.636h34.909l-2.327,4.655
	c-2.327,3.491-5.818,6.982-10.473,6.982h23.273c4.655,0,8.145-2.327,10.473-6.982L290.909,488.727L290.909,488.727z"/>
<g>
	<circle style="fill:#F19920;" cx="256" cy="244.364" r="11.636"/>
	<polygon style="fill:#F19920;" points="267.636,209.455 244.364,209.455 232.727,116.364 279.273,116.364 	"/>
</g>
<g>
</g>
<g>
</g>
<g>
</g>
<g>
</g>
<g>
</g>
<g>
</g>
<g>
</g>
<g>
</g>
<g>
</g>
<g>
</g>
<g>
</g>
<g>
</g>
<g>
</g>
<g>
</g>
<g>
</g>
</svg>
