<svg width="106" height="60" viewBox="0 0 102 58" xmlns="http://www.w3.org/2000/svg" xmlns:xlink="http://www.w3.org/1999/xlink"><defs><path id="a" d="M.03 34.33V.165h101.478V34.33H.03z"/></defs><g fill="none" fill-rule="evenodd"><path d="M86.908 38.637a35.94 35.94 0 0 1-.556 3.278c-.967-.317-2.082-.825-3.657-.72-.94.064-2.05.427-2.066 1.28-.017.944 1.526 1.506 2.384 1.919 1.548.745 3.209 1.738 3.339 3.758.099 1.553-.618 2.904-1.431 3.678-2.166 2.06-6.973 2.278-10.253.96.204-1.1.39-2.22.557-3.359 1.27.544 3.014 1.277 4.927 1.04.871-.109 1.938-.62 1.908-1.519-.038-1.098-2.074-1.75-3.1-2.319-1.192-.66-2.549-1.76-2.623-3.438-.05-1.118.383-2.165.954-2.879 1.693-2.117 6.046-2.87 9.617-1.679M47.955 17.224h4.382L49.639 34.33h-4.383l2.699-17.106m-11.338 3.4l-.677 4.293h1.267c1.232 0 2.397-.965 2.59-2.147.194-1.18-.656-2.146-1.887-2.146h-1.293zm-3.846-3.401h6.71c4.269 0 5.377 2.473 4.911 5.426-.389 2.467-2.15 4.114-4.439 4.7l4.25 6.981h-5.501l-3.187-6.718-1.06 6.718h-4.382l2.698-17.107zm35.196.001h4.383L69.652 34.33h-4.383l2.698-17.106m7.712-.001H85.3l-.587 3.72h-5.238l-.461 2.923h4.98l-.587 3.72h-4.98l-.477 3.025h5.239l-.587 3.72H72.98l2.698-17.108m-55.134 0h9.621l-.586 3.72H24.34l-.461 2.923h4.98l-.586 3.72h-4.98l-.478 3.025h5.239l-.586 3.72h-9.622l2.698-17.108" fill="#1976D2"/><mask id="b" fill="#fff"><use xlink:href="#a"/></mask><path fill="#1976D2" mask="url(#b)" d="M55.656 17.223h9.728l-.586 3.72h-5.347l-.468 2.923h4.865l-.589 3.72h-4.863l-1.064 6.744h-4.375l2.699-17.107m36.018 3.719h.906c3.35 0 4.659 2.377 4.298 4.67-.486 3.077-2.684 4.999-5.557 4.999h-1.172l1.525-9.669zm-3.795-3.72h5.71c6.805 0 8.355 5.178 7.822 8.559-.762 4.83-5.042 8.55-10.52 8.55h-5.71l2.698-17.108zM0 14.892h8.107L9.07 27.32C14.433 17.98 19.885 8.993 25.376.165h2.644c-5.814 11.279-11.553 22.63-17.112 34.165H4.956l-1.45-13.706c-.36-3.401-1.044-4.846-3.506-5.211v-.52"/><path fill="#EC902D" d="M3.07 7.825l6.911 2.947.6 7.744h.512L17.367 7.83v-.537H3.068l.001.532"/><path d="M31.484 38.353h2.837l-.956 6.742c.81-.786 1.8-1.273 2.908-1.273 2.276 0 3.768 2.206 3.366 4.929-.403 2.722-2.548 4.93-4.823 4.93-1.122 0-1.927-.508-2.475-1.363l-.15 1.07h-2.838l2.131-15.035zm3.54 8.23c1.049 0 1.76.967 1.59 2.158-.169 1.19-1.156 2.156-2.204 2.156-1.048 0-1.76-.966-1.59-2.156.17-1.191 1.157-2.158 2.204-2.158z" fill="#1976D2"/><path fill="#1976D2" d="M39.882 44.052h3.403l1.523 4.779 2.957-4.78h3.289L42.422 58h-3.289l3.64-5.882-2.891-8.066m28.084 9.33l2.493-15.034h4.078l-2.492 15.034h-4.079m-3.409-15.065c-1.406 3.33-2.606 6.868-4.053 10.155l-.426-1.972-.006-.024.072.35c-.315-1.037-.85-2.016-1.533-2.914-.019-.022-.036-.046-.055-.069a12.36 12.36 0 0 0-.375-.454 13.515 13.515 0 0 0-.24-.273c-.987-1.086-2.183-2.024-3.447-2.768l3.625 13.002h4.372c2.057-5.074 4.278-9.982 6.358-15.033h-4.292"/><path d="M56.859 38.32H50.19v.327c3.838.753 8.684 3.992 9.953 8.18l-1.431-7.002c-.196-1.08-.943-1.505-1.854-1.505" fill="#EC902D"/><path d="M94.468 42.482l-2.077 5.59h3.359l-1.282-5.59zm6.19 10.947h-3.736c-.242-.716-.31-1.608-.557-2.319H91.28l-.954 2.32h-4.292l5.563-12.874c.246-.565.688-1.336.875-1.68.283-.52 1.376-.559 1.841-.559H97.4l3.258 15.112z" fill="#1976D2"/></g></svg>