<svg version="1" xmlns="http://www.w3.org/2000/svg" width="192" height="60" viewBox="0 0 1697 531"><g fill="#D32F2F"><path d="M179.6 1.6c-53.4 10-95.9 51.5-107.7 105.2-1.9 8.5-2.2 13.8-2.6 42.9-.5 30.1-.7 33.3-2.2 33.3-2.7.1-9.5 3.6-13.5 7-6 5.3-8.6 10.9-10.2 21.5-2.6 17.6-9 28.9-21.6 38-7 5.1-10.9 10.1-13.2 16.8-2.3 6.7-2 13 1 22.8 2.2 7.1 2.5 9.8 2.1 17.4-.5 9.6-3 18.3-7 24.4-3.6 5.5-4.7 9.7-4.7 18 0 9.4 1.8 13.6 9.4 22.5 10.5 12.5 13 20.2 13.1 40.6 0 13.2.2 14.9 2.3 18.8 4 7.5 8.8 11.8 17.8 16.1 13.8 6.6 23.9 17.6 28.2 30.8 2.9 8.6 4.5 11.4 9.5 16 7 6.4 9.8 7.5 22.7 8.4 18.4 1.3 27.7 5.4 39.5 17.3 9.9 10 14.1 11.8 26.4 11.3 7.7-.3 10.8-.9 15.8-3 12.2-5.4 27.6-5.3 40.2.3 6 2.6 8.1 3 15.8 3 11.4-.1 15.4-1.9 24.8-11.3 11.8-11.9 25.2-17.6 41.5-17.7 5.7 0 8.7-.6 12.5-2.4 9.7-4.5 13.8-9.4 17.8-21.3 4.8-14.2 14.2-24.5 28.3-31.3 9.5-4.5 14.7-9.3 18.1-16.8 2.3-4.9 2.5-6.7 2.7-21 .2-15.4.2-15.9 3.5-23.4 2.1-5 5.2-9.9 8.8-14 8-8.9 9.8-13.4 9.8-23.8-.1-8.2-.3-8.9-4.8-17.5-8-15.1-9.4-28.3-4.7-42 1.3-3.7 2-8.4 2-13 0-6-.5-8.2-3.1-13.4-1.8-3.7-4.7-7.4-7.1-9.4-17.5-13.9-23.6-23.6-25.7-40.5-.6-4.5-1.7-9.7-2.5-11.6-3.2-7.7-15.4-17.6-21.6-17.6-2 0-2-.6-2-30.8 0-34.7-.9-42.8-6.5-59.9-6.6-19.7-16.4-35.9-31.1-51.3-18.3-19-39.7-31.3-66.8-38.2-10.9-2.7-43.1-3.5-55-1.2zm46.2 68.7c26.4 9.3 44.5 33.2 46 60.3l.5 9-7.1 1.4c-13.6 2.5-27.4-.5-39.2-8.5-7.5-5.1-11.8-7-17.6-8-5.7-.9-14.9 1-19.8 4.1-2.3 1.4-6.6 4.1-9.6 6-10.2 6.4-22.6 8.6-35.6 6.3l-7.7-1.3.6-8.7c2.2-29.8 22.4-54.3 51.7-62.4 9-2.4 28.5-1.5 37.8 1.8zm1.3 126.3c26.6 4.5 51.6 17.4 70.9 36.6 32.5 32.3 46 77 36.9 122-10.6 52.7-53.8 94.9-106.9 104.4-13.9 2.5-36.5 2.3-49.7-.5-28.3-5.9-50.6-18.2-70.4-38.8-16.7-17.4-27.6-37.2-33.7-61.3-2.4-9.5-2.6-12.3-2.7-30 0-25.8 2.4-37.3 12.1-57.9 17.3-36.8 51.4-64.3 90.5-73 12.9-2.8 12.6-2.8 29-3 9.4-.1 17.9.5 24 1.5z"/><path d="M189.5 242.5c-13.1 2.1-20.4 4.3-31.5 9.7-9 4.3-11.7 6.2-18.6 13.2-14.5 14.7-19.4 27.7-24 64.6-2.9 23.6-2.8 32.3.5 43 6.1 19.4 26.1 34.3 52.5 38.9 3.4.7 21.1 1.1 41.6 1.1 41 0 41.7-.1 50.4-8.1 5.3-4.8 9.8-12.8 11.2-19.8l.7-3.1h-37.9c-20.9 0-41.2-.5-45.2-1-17.3-2.3-25.5-9.9-26.8-25.3-.7-7 3.7-42.8 6.2-51.7 3.5-12 9.7-20.7 18.2-25.3 9.8-5.3 14.2-5.9 48.2-6.6 30.2-.6 31.7-.7 36.2-2.9 2.6-1.3 6.3-4.1 8.3-6.4 3.7-4 8.7-13.7 9.9-19.1l.6-2.7-46.2.1c-32.2.1-48.7.5-54.3 1.4zm553.3-64.4c-24.2 2.5-43.7 11.2-55.8 24.7-5.8 6.4-13.1 20.5-15.4 29.7-2.2 8.9-6.6 43.7-6.6 52.4 0 15.5 4.6 27 14.6 36.8 7.4 7.2 18.8 13.3 30.9 16.3 25.6 6.5 65.6 4 86.7-5.3 18.4-8.2 31.7-23.4 37.7-43.1 3-9.8 7.1-41.5 7.1-54.9 0-18.1-3.4-27.3-13.9-37.7-16.3-16.1-47.2-23-85.3-18.9zm36.3 30.5c11 3.3 16.9 13 16.9 27.8 0 10.2-4.5 41.7-7 49.2-4.1 12.3-11.3 20-22.7 24.5-5 2-7.6 2.3-19.3 2.3-11.7 0-14.3-.3-19.3-2.3-10.9-4.3-15.3-10.3-16.3-22.5-.7-7.1 3.6-42 6.2-50.6 4.6-15.7 13.4-25.1 26.3-28.6 6.9-1.9 28.6-1.7 35.2.2zm406.7-30.5c-25.4 2.7-47 13.1-58.2 28-9.5 12.7-13 23.1-16.7 50.4-4.3 32.3-2.8 46.7 6.5 59.3 4.9 6.6 14.3 13.8 23 17.7 15.1 6.7 37.5 9.5 61 7.6 43.2-3.4 67.6-20 77-52.2 3.5-12.1 8-49.1 7.2-59.1-1.2-15.1-5.7-25-15.6-34.1-16.2-15.1-47.2-21.5-84.2-17.6zm40.9 32.3c12.6 6.9 14.7 17.4 10.4 50.1-3.3 24.5-6.6 33.8-14.8 41.7-8.9 8.6-23.5 12.2-40.5 10-19.9-2.5-27.3-10.3-27.1-28.7.1-8.3 3.4-35.4 5.4-44 3.7-15.9 12.5-26.3 25.9-30.7 4.5-1.4 8.3-1.7 20.5-1.5 14.4.2 15.2.3 20.2 3.1zm374.8-32.8c-1.6.2-6.6.9-11 1.5-10.4 1.4-23.6 5.7-32.2 10.4-10.3 5.7-21.1 17.2-26.1 27.6-5.2 10.8-6.8 17.1-9.8 39.3-5 37.9-2.4 51.9 12.3 65.7 15.2 14.2 41.5 21.2 72.8 19.4 36.6-2.1 59.6-12.3 72.9-32.3 8.1-12.2 10.6-20.6 14.1-47.6 3.8-29.2 3.3-39.7-2.7-52.4-6.9-14.6-22.9-25.1-45.3-29.8-6.8-1.4-38.7-2.7-45-1.8zm31.9 30.8c10.2 3.1 16.1 11.3 17.2 23.8.7 7.2-3.6 42.1-6.2 50.9-6.5 21.7-22.3 31.5-48 29.5-21.5-1.6-30.4-10.1-30.4-28.8 0-8.9 4.6-42.5 6.6-48.5 4.9-14.5 12.9-22.8 25.9-26.9 5.7-1.8 28.9-1.8 34.9 0zM566.5 181.7c-30.8 4-51.1 16.5-61.6 37.8-5 10.3-6.4 15.9-9.4 38.6-3.8 28.3-3 40.6 3.2 52.1 6.1 11.2 20.8 21.3 37.8 26 7.6 2.1 10 2.2 44 2.3h36l5.1-2.7c8.4-4.4 14-12.4 16.8-24.1l.6-2.7h-36.8c-20.6 0-39.3-.4-42.3-1-7.8-1.5-13.9-4.9-17.4-9.9-2.7-3.8-3-5.2-3.3-13.1-.4-9.2 1.9-30.6 4.5-42.5 2.7-12.2 8.5-21.2 16.7-26 8.4-4.9 15-5.8 45.6-6.4l28.5-.6 4.8-2.8c5.8-3.5 11-10.2 13.7-18.1 1.1-3.3 2-6.4 2-6.8 0-.8-82.5-.9-88.5-.1zm313.7 76c-5.1 42.3-9.5 77.9-9.8 79.2l-.5 2.3 15.3-.4c11.7-.3 16.3-.9 19.6-2.2 5.6-2.4 12.6-10.2 14.2-16.1.7-2.6 3.2-19.8 5.4-38.3l4.2-33.7 4.1 7.5c2.2 4.1 9.1 17.2 15.3 29 6.2 11.8 12.6 22.9 14.2 24.7 5.4 5.6 11.8 5 18.4-1.9 2.3-2.4 13.9-16.6 25.8-31.6s21.6-27 21.6-26.7c0 .4-2.5 20.4-5.5 44.5s-5.5 44.2-5.5 44.5c0 .4 6.6.5 14.8.3 16.4-.5 19.4-1.3 26-7.2 7.2-6.5 7.3-7 16.1-78.6 4.5-36 8.3-67 8.7-68.8l.5-3.4-16.8.4c-25 .5-21-2.2-58.2 39.9-16.8 19.1-31 34.9-31.5 35.1-.5.2-10.6-15.2-22.5-34.2-22.4-35.8-24-37.8-32-40-2-.5-10.1-1-18.1-1h-14.5l-9.3 76.7zm452.1-69.6c.8 9.1 3.7 15.2 9 18.7l4 2.7 35.1.6c33.5.5 35.4.6 40.9 2.8 10.4 4.1 14.8 9.6 16.8 20.9.9 4.8.6 9.2-1.5 24.9-1.4 10.4-3.2 21.1-4 23.6-2.9 9.8-9.1 17.4-17.7 21.8-7.1 3.6-16.2 4.9-34.6 4.9-14.9 0-17.3-.2-17.3-1.5 0-.9 1.6-14.4 3.5-30.1 1.9-15.6 3.5-29.9 3.5-31.7 0-9.4-5.1-16.8-13.3-19.2-6.1-1.8-30.7-2.2-30.7-.4 0 .6-2.5 20.7-5.6 44.7-7.3 57.6-7.1 54.9-4.2 59.2 5.5 8.3 13.2 9.4 60.3 8.7 26.1-.4 38.5-.9 45-2.1 32.4-5.6 49.7-20.3 57.1-48.5 1.9-7.3 6.4-44.3 6.4-52.3-.1-30.9-19.8-48.9-59-53.7-4.7-.6-27.4-1.1-51.4-1.1h-42.9l.6 7.1z"/><path fill="#000" d="M541 376.4c-14.7 3.3-22.2 11.7-22.4 25.1-.2 14.4 5.2 21.1 24 30.1 13.1 6.3 15.6 8.9 13 12.9-.9 1.4-2.8 2.8-4.2 3.1-4.5 1.2-15.7-.4-22.9-3.1-3.8-1.4-7.8-2.9-8.7-3.2-1.6-.5-1.8.5-1.8 11v11.5l6.8 2.4c5.7 2 8.7 2.3 20.2 2.3 12.7 0 13.9-.2 19.5-2.8 7-3.3 11.8-7.6 14.8-13.2 1.7-3.2 2.2-5.7 2.2-12.5 0-14.5-3.3-18.5-23.9-28.8-10.1-5-12.7-6.8-13.2-8.8-1.7-6.6 7.8-8.4 21.2-3.9 4.1 1.4 7.8 2.5 8.3 2.5 1 0 8.7-18.8 8-19.4-1.4-1.1-9.8-3.7-16.2-5-8.9-1.9-17-1.9-24.7-.2zm73 0c-14.9 3.3-22.4 11.9-22.4 26.1-.1 13.3 5.7 20.3 24 29.1 13.1 6.3 15.6 8.9 13 12.9-.9 1.4-2.8 2.8-4.2 3.1-4.5 1.2-15.7-.4-22.9-3.1-3.8-1.4-7.8-2.9-8.7-3.2-1.6-.5-1.8.5-1.8 11v11.5l6.8 2.4c5.7 2 8.7 2.3 20.2 2.3 12.7 0 13.9-.2 19.5-2.8 11-5.1 16.4-12.5 17.3-23.4 1.1-14.6-3.9-21.2-24-31.1-10.3-5-12.9-6.8-13.4-8.8-1.7-6.6 7.8-8.4 21.2-3.9 4.1 1.4 7.8 2.5 8.3 2.5.8 0 8.1-17 8.1-18.8 0-1.1-8.2-3.9-16.5-5.7-8.3-1.7-17-1.8-24.5-.1zm159.2-.3c-11.9 2.3-23.2 10.9-28.1 21.3-3.8 7.9-5.1 14.7-5.1 25.4.1 21.1 7.7 35.3 23 42.6 6.2 3 7 3.1 19.5 3.1 7.5 0 14.8-.6 17.3-1.3 3.8-1.2 4.2-1.6 4.2-4.6v-3.3l-6.7 1.5c-9.7 2-23.3 1.2-30.1-1.8-6.6-2.9-13.3-10.2-16.4-17.8-1.9-4.9-2.2-7.5-2.2-18.7s.3-13.8 2.2-18.7c3-7.5 9.9-15 17-18.5 5.1-2.5 6.7-2.8 15.7-2.8 7.2.1 11.3.6 14.5 1.9 6.5 2.5 7 2.4 8.5-1.1 1.3-3.1 1.3-3.2-2.5-4.7-8.1-3.2-21.6-4.3-30.8-2.5zm417-.1c-20.6 4.4-33.2 22-33.2 46.5 0 24.1 11.4 40.9 30.9 45.5 6.2 1.5 24.6.8 29.9-1 2.7-1 3.2-1.7 3.2-4.4v-3.3l-6.7 1.5c-10.6 2.2-23.6 1.3-30.5-2.1-12-5.9-18.8-19-18.8-36.2 0-17.9 7.6-31.8 20.8-37.8 6.8-3.1 23.4-3.1 30.9.1l5.3 2.2 1.6-3.2c1.3-2.5 1.4-3.2.2-3.9-5.4-3.5-24.8-5.8-33.6-3.9zM668 422v46h60v-21h-35v-71h-25v46zm155 0v46h51v-7h-43v-38h40v-7h-40v-33h43v-7h-51v46zm70 0v46h7v-40h21.6l11.8 20 11.8 20h4.4c5.3 0 6.3 2.6-8.8-22.8-6.1-10.1-10.8-18.5-10.6-18.6.1-.1 2.2-1 4.5-2 9-3.9 13.3-11.3 13.3-22.9 0-19.5-10.6-25.7-44.2-25.7H893v46zm37.6-35.9c5.5 2.8 8.2 5.9 9.5 11.5 2.1 8.9-1.4 17.1-9.1 21.4-4 2.2-5.9 2.5-17.7 2.8l-13.3.4v-39.5l12.9.5c11 .4 13.5.8 17.7 2.9zm25.4-6.6v3.5h29v85h8v-85h29v-7h-66v3.5zm79 42.5v46h7v-92h-7v46zm31 0v46h8v-41h41v-6h-41v-38h43v-7h-51v46zm64 0v46h7v-92h-7v46zm133.1-43.8c-.5 1.3-8.6 21.5-18 45.1-9.4 23.5-17.1 43.2-17.1 43.7 0 .6 1.7 1 3.9 1h3.8l6.2-16 6.3-16 18 .2 18.1.3 6.1 15.7 6.1 15.8h4.3c2.3 0 4.2-.1 4.2-.3 0-.1-8.1-20.7-17.9-45.7-16.9-42.9-18-45.5-20.5-45.8-2-.3-2.8.2-3.5 2zm17.6 50.5c-.2.2-7 .2-14.9.1l-14.5-.3 7.6-19.6 7.6-19.6 7.3 19.5c4 10.7 7.1 19.6 6.9 19.9zm23.3-49.2v3.5h30v85h7v-85h29v-7h-66v3.5zm79 42.5v46h50v-7h-43v-38h41v-7h-41v-33h43v-7h-50v46z"/></g></svg>