<svg xmlns="http://www.w3.org/2000/svg" xmlns:xlink="http://www.w3.org/1999/xlink" id="Capa_1" x="0" y="0" fill="#616161" enable-background="new 0 0 512 512" version="1.1" viewBox="0 0 512 512" xml:space="preserve"><g><g><g><rect width="122" height="40" x="180" y="340"/><rect width="232" height="40" x="180" y="260"/><path d="M452,80h-20V60c0-33.084-26.916-60-60-60H60C26.916,0,0,26.916,0,60v312c0,33.084,26.916,60,60,60h20v20 c0,33.084,26.916,60,60,60h229.828L512,369.145V140C512,106.916,485.084,80,452,80z M80,140v252H60c-11.028,0-20-8.972-20-20V60 c0-11.028,8.972-20,20-20h312c11.028,0,20,8.972,20,20v20H140C106.916,80,80,106.916,80,140z M381.889,443.177v-42.288 c0-11.028,8.972-20,20-20h41.99L381.889,443.177z M472,340.889h-70.111c-33.084,0-60,26.916-60,60V472H140 c-11.028,0-20-8.972-20-20V140c0-11.028,8.972-20,20-20h312c11.028,0,20,8.972,20,20V340.889z"/><rect width="232" height="40" x="180" y="180"/></g></g></g></svg>