<?xml version='1.0' encoding='iso-8859-1'?>
<svg version="1.1" xmlns="http://www.w3.org/2000/svg" viewBox="0 0 355.657 355.657" xmlns:xlink="http://www.w3.org/1999/xlink" enable-background="new 0 0 355.657 355.657">
  <path d="m355.195,92.612l-5.146-87.467-87.467-5.145-39.073,43.497-139.192-39.688-78.613,78.614 137.036,50.987-73.289,81.586-33.931-6.607-35.058,35.056 77.312,34.901 34.9,77.31 35.058-35.057-6.899-35.426 80.952-72.719 50.987,137.037 78.613-78.613-39.687-139.193 43.497-39.073zm-277.157-25.955l17.932-17.932 97.795,27.884-22.289,24.812-93.438-34.764zm51.404,160.021l-14.228-2.771 164.251-182.844 32.741,1.926 1.926,32.741-182.211,163.681-2.479-12.733zm177.027,32.548l-17.932,17.932-34.765-93.437 24.813-22.29 27.884,97.795z"/>
</svg>
