<?xml version="1.0" encoding="iso-8859-1"?>
<!-- Generator: Adobe Illustrator 19.0.0, SVG Export Plug-In . SVG Version: 6.00 Build 0)  -->
<svg version="1.1" id="Layer_1" xmlns="http://www.w3.org/2000/svg" xmlns:xlink="http://www.w3.org/1999/xlink" x="0px" y="0px"
	 viewBox="0 0 512 512" style="enable-background:new 0 0 512 512;" xml:space="preserve">
<g transform="translate(1 1)">
	<g>
		<g>
			<path d="M159,362.52l-4.267,34.133c-0.853,7.68,0.853,15.36,5.973,20.48c4.267,5.12,11.093,8.533,18.773,8.533h29.867
				c7.68,0,16.213-2.56,20.48-8.533s6.827-12.8,5.973-20.48l-4.267-34.133c-1.707-12.8-12.8-22.187-25.6-22.187H184.6
				C171.8,340.333,160.707,349.72,159,362.52z M214.467,365.08l4.267,34.133c0.853,2.56,0,5.12-1.707,6.827s-4.267,2.56-6.827,2.56
				h-29.867c-2.56,0-5.12-0.853-6.827-2.56s-1.707-4.267-1.707-6.827l4.267-34.133c0.853-4.267,4.267-7.68,8.533-7.68h21.333
				C210.2,357.4,213.613,360.813,214.467,365.08z"/>
			<path d="M152.173,280.6h42.667c5.12,0,8.533-3.413,8.533-8.533c0-5.12-3.413-8.533-8.533-8.533h-42.667
				c-5.12,0-8.533,3.413-8.533,8.533C143.64,277.187,147.053,280.6,152.173,280.6z"/>
			<path d="M228.973,280.6h8.533c5.12,0,8.533-3.413,8.533-8.533c0-5.12-3.413-8.533-8.533-8.533h-8.533
				c-5.12,0-8.533,3.413-8.533,8.533C220.44,277.187,223.853,280.6,228.973,280.6z"/>
			<path d="M394.52,442.733h-4.239c0.54-2.751,0.825-5.603,0.825-8.533v-17.067c0-5.12-3.413-8.533-8.533-8.533h-8.533V101.4
				C374.04,45.08,327.96-1,271.64-1s-102.4,46.08-102.4,102.4v51.2c-5.12,0-8.533,3.413-8.533,8.533v32.048
				c-35.935,14.352-59.733,48.575-59.733,87.418V383H92.44c-14.507,0-25.6,11.093-25.6,25.6v59.733c0,14.507,11.093,25.6,25.6,25.6
				h9.909C105.74,504.037,115.083,511,126.573,511h34.133h68.267h34.133h170.667c5.12,0,8.533-3.413,9.387-8.533V487.96
				C443.16,463.213,420.973,442.733,394.52,442.733z M346.727,459.742c-0.02-0.001-0.039-0.003-0.059-0.004
				c-8.579-0.601-15.566-5.546-19.561-12.737c-0.614-0.921-1.342-1.725-2.177-2.386c-1.346-3.157-2.09-6.67-2.09-10.414v-8.533
				h8.533h34.133h8.533v8.533c0,4.403-1.027,8.489-2.857,12.048c-0.193,0.243-0.382,0.49-0.557,0.752
				c-4.794,7.191-11.832,12.136-20.414,12.737c-0.02,0.001-0.04,0.003-0.06,0.004c-0.564,0.038-1.135,0.058-1.713,0.058
				C347.862,459.8,347.291,459.78,346.727,459.742z M194.84,220.867c-9.387,0-17.067-7.68-17.067-17.067v-34.133h34.133v29.013
				v3.413c0,10.064-7.421,17.64-15.776,18.708C195.703,220.833,195.275,220.867,194.84,220.867z M220.44,152.6v-51.2
				c0-28.16,23.04-51.2,51.2-51.2s51.2,23.04,51.2,51.2v307.2c0-14.507-11.093-25.6-25.6-25.6h-8.533V280.6
				c0-38.843-23.798-73.067-59.733-87.418v-32.048C228.973,156.013,225.56,152.6,220.44,152.6z M294.68,442.733
				c-1.707,0-4.267,0-5.973,0v-42.667h8.533c5.12,0,8.533,3.413,8.533,8.533v8.533V434.2v8.533h-2.56H294.68z M186.307,101.4
				c0-46.933,38.4-85.333,85.333-85.333s85.333,38.4,85.333,85.333v307.2h-17.067V101.4c0-37.547-30.72-68.267-68.267-68.267
				c-37.547,0-68.267,30.72-68.267,68.267v51.2h-17.067V101.4z M83.907,468.333V408.6c0-5.12,3.413-8.533,8.533-8.533h8.533v76.8
				H92.44C87.32,476.867,83.907,473.453,83.907,468.333z M118.04,485.4v-93.867V280.6c0-29.867,17.067-56.32,43.52-69.12
				c0.048,0.167,0.101,0.336,0.152,0.504c0.97,3.905,2.613,7.552,4.805,10.804c1.324,2.163,2.816,4.145,4.43,5.759
				c6.827,6.827,16.213,10.24,25.6,9.387c2.885-0.16,5.679-0.682,8.338-1.519c8.784-2.725,16.072-8.924,20.256-16.968
				c0.078-0.149,0.155-0.3,0.231-0.45c0.119-0.237,0.237-0.474,0.35-0.714c0.169-0.354,0.33-0.712,0.487-1.073
				c0.029-0.067,0.06-0.132,0.088-0.199c0.758-1.774,1.374-3.621,1.823-5.53c26.453,11.947,43.52,39.253,43.52,69.12v110.933v62.25
				c-0.597,0.479-1.181,0.97-1.752,1.474c-0.283,0.241-0.556,0.489-0.831,0.735c-0.045,0.041-0.09,0.082-0.134,0.123
				c-6.903,6.24-11.437,14.254-13.331,22.742c-0.029,0.128-0.051,0.259-0.079,0.387c-0.126,0.592-0.249,1.185-0.35,1.782
				c-0.058,0.339-0.099,0.683-0.149,1.025c-0.059,0.41-0.126,0.82-0.172,1.232c-0.058,0.512-0.095,1.03-0.135,1.547
				c-0.02,0.258-0.05,0.516-0.065,0.775c-0.045,0.78-0.068,1.565-0.068,2.355v5.973h-17.067v-10.24
				c0-12.8-10.24-23.893-23.893-23.893h-37.547c-12.8,0-23.893,10.24-23.893,23.893v10.24h-25.6
				C121.453,493.933,118.04,490.52,118.04,485.4z M169.24,493.933c0,0,0-10.24,0-10.24c0-3.413,2.56-6.827,6.827-6.827h37.547
				c3.413,0,6.827,2.56,6.827,6.827v10.24H169.24z M425.24,493.933h-153.6v-5.973c0-15.36,14.507-28.16,31.573-28.16h10.89
				c7.715,10.418,20.118,17.067,34.336,17.067s26.621-6.649,34.336-17.067h10.89c17.067,0,31.573,12.8,31.573,28.16V493.933z"/>
		</g>
	</g>
</g>
<g>
</g>
<g>
</g>
<g>
</g>
<g>
</g>
<g>
</g>
<g>
</g>
<g>
</g>
<g>
</g>
<g>
</g>
<g>
</g>
<g>
</g>
<g>
</g>
<g>
</g>
<g>
</g>
<g>
</g>
</svg>
