<?xml version="1.0" encoding="iso-8859-1"?>
<!-- Generator: Adobe Illustrator 19.0.0, SVG Export Plug-In . SVG Version: 6.00 Build 0)  -->
<svg version="1.1" id="Capa_1" xmlns="http://www.w3.org/2000/svg" xmlns:xlink="http://www.w3.org/1999/xlink" x="0px" y="0px" fill="#707070"
	 viewBox="0 0 383.998 383.998" style="enable-background:new 0 0 383.998 383.998;" xml:space="preserve">
<g>
	<g>
		<path d="M379.311,180.686l-40-40l-136-136c-6.248-6.248-16.376-6.248-22.624,0l-136,136l-40,40
			c-6.248,6.248-6.248,16.376,0,22.624c3.128,3.128,7.216,4.688,11.312,4.688s8.184-1.56,11.312-4.688l12.688-12.688v177.376
			c0,8.832,7.168,16,16,16h88c8.832,0,16-7.168,16-16v-128h64v112h-16c-8.832,0-16,7.168-16,16c0,8.832,7.168,16,16,16h120
			c8.832,0,16-7.168,16-16V190.622l12.688,12.688c3.128,3.128,7.216,4.688,11.312,4.688s8.184-1.56,11.312-4.688
			C385.559,197.062,385.559,186.934,379.311,180.686z M311.999,351.998h-56v-128c0-8.832-7.168-16-16-16h-96
			c-8.832,0-16,7.168-16,16v128h-56V158.63l120-120l120,120V351.998z"/>
	</g>
</g>
<g>
	<g>
		<path d="M191.999,111.998c-13.232,0-24,10.768-24,24s10.768,24,24,24s24-10.768,24-24S205.231,111.998,191.999,111.998z"/>
	</g>
</g>
<g>
</g>
<g>
</g>
<g>
</g>
<g>
</g>
<g>
</g>
<g>
</g>
<g>
</g>
<g>
</g>
<g>
</g>
<g>
</g>
<g>
</g>
<g>
</g>
<g>
</g>
<g>
</g>
<g>
</g>
</svg>
