<?xml version="1.0" encoding="iso-8859-1"?>
<!-- Generator: Adobe Illustrator 19.0.0, SVG Export Plug-In . SVG Version: 6.00 Build 0)  -->
<svg version="1.1" id="Layer_1" xmlns="http://www.w3.org/2000/svg" xmlns:xlink="http://www.w3.org/1999/xlink" x="0px" y="0px"
	 viewBox="0 0 512 512" style="enable-background:new 0 0 512 512;" xml:space="preserve">
<g>
	<g>
		<g>
			<path d="M405.333,229.636V21.333C405.333,9.551,395.782,0,384,0c-48.706,0-85.333,48.834-85.333,106.667v97.963
				c0,13.081,4.904,25.016,12.963,34.089c-8.132,10.733-12.963,24.106-12.963,38.615V448c0,35.355,28.645,64,64,64s64-28.645,64-64
				V277.333C426.667,258.375,418.424,241.354,405.333,229.636z M341.333,106.667c0-24.026,8.938-44.153,21.333-55.103v161.77
				h-12.629c-4.794,0-8.704-3.91-8.704-8.704V106.667z M384,448c0,11.791-9.542,21.333-21.333,21.333s-21.333-9.542-21.333-21.333
				V277.333c0-11.791,9.542-21.333,21.333-21.333S384,265.542,384,277.333V448z"/>
			<path d="M192,0c-11.782,0-21.333,9.551-21.333,21.333V128c0,11.791-9.542,21.333-21.333,21.333S128,139.791,128,128V21.333
				C128,9.551,118.449,0,106.667,0C94.885,0,85.333,9.551,85.333,21.333V128c0,27.872,17.808,51.562,42.667,60.346v28.641
				c-24.858,8.784-42.667,32.474-42.667,60.346V448c0,35.355,28.645,64,64,64s64-28.645,64-64V277.333
				c0-27.872-17.808-51.562-42.667-60.346v-28.641c24.858-8.784,42.667-32.474,42.667-60.346V21.333C213.333,9.551,203.782,0,192,0z
				 M170.667,448c0,11.791-9.542,21.333-21.333,21.333S128,459.791,128,448V277.333c0-11.791,9.542-21.333,21.333-21.333
				s21.333,9.542,21.333,21.333V448z"/>
		</g>
	</g>
</g>
<g>
</g>
<g>
</g>
<g>
</g>
<g>
</g>
<g>
</g>
<g>
</g>
<g>
</g>
<g>
</g>
<g>
</g>
<g>
</g>
<g>
</g>
<g>
</g>
<g>
</g>
<g>
</g>
<g>
</g>
</svg>
