<?xml version="1.0" encoding="iso-8859-1"?>
<!-- Generator: Adobe Illustrator 19.0.0, SVG Export Plug-In . SVG Version: 6.00 Build 0)  -->
<svg version="1.1" id="Layer_1" xmlns="http://www.w3.org/2000/svg" xmlns:xlink="http://www.w3.org/1999/xlink" x="0px" y="0px" fill="#707070"
	 viewBox="0 0 512 512" style="enable-background:new 0 0 512 512;" xml:space="preserve">
<g>
	<g>
		<g>
			<path d="M490.667,149.333H448c-11.782,0-21.333,9.551-21.333,21.333c0,11.782,9.551,21.333,21.333,21.333v21.333H64V192
				c11.782,0,21.333-9.551,21.333-21.333c0-11.782-9.551-21.333-21.333-21.333H21.333C9.551,149.333,0,158.885,0,170.667
				C0,182.449,9.551,192,21.333,192v234.667v64c0,11.782,9.551,21.333,21.333,21.333h426.667c11.782,0,21.333-9.551,21.333-21.333
				v-64V192c11.782,0,21.333-9.551,21.333-21.333C512,158.885,502.449,149.333,490.667,149.333z M320,405.333V256h42.667v149.333
				H320z M234.667,405.333V256h42.667v149.333H234.667z M149.333,405.333V256H192v149.333H149.333z M405.333,256H448v149.333
				h-42.667V256z M106.667,256v149.333H64V256H106.667z M64,448h384v21.333H64V448z"/>
			<path d="M155.582,143.085c8.331,8.331,21.839,8.331,30.17,0c8.331-8.331,8.331-21.839,0-30.17l-2.013-2.013l50.928-30.557V128
				c0,11.782,9.551,21.333,21.333,21.333s21.333-9.551,21.333-21.333V80.345l50.928,30.557l-2.013,2.013
				c-8.331,8.331-8.331,21.839,0,30.17c8.331,8.331,21.839,8.331,30.17,0l42.667-42.667c8.331-8.331,8.331-21.839,0-30.17
				s-21.839-8.331-30.17,0l-9.555,9.555l-82.026-49.216v-9.255C277.333,9.551,267.782,0,256,0s-21.333,9.551-21.333,21.333v9.255
				L152.64,79.804l-9.555-9.555c-8.331-8.331-21.839-8.331-30.17,0s-8.331,21.839,0,30.17L155.582,143.085z"/>
		</g>
	</g>
</g>
<g>
</g>
<g>
</g>
<g>
</g>
<g>
</g>
<g>
</g>
<g>
</g>
<g>
</g>
<g>
</g>
<g>
</g>
<g>
</g>
<g>
</g>
<g>
</g>
<g>
</g>
<g>
</g>
<g>
</g>
</svg>
