<?xml version="1.0" encoding="iso-8859-1"?>
<!-- Generator: Adobe Illustrator 19.0.0, SVG Export Plug-In . SVG Version: 6.00 Build 0)  -->
<svg version="1.1" id="Layer_1" xmlns="http://www.w3.org/2000/svg" xmlns:xlink="http://www.w3.org/1999/xlink" x="0px" y="0px" fill="#707070"
	 viewBox="0 0 512 512" style="enable-background:new 0 0 512 512;" xml:space="preserve">
<g>
	<g>
		<path d="M495.304,0H16.696C7.475,0,0,7.475,0,16.696v267.13c0,9.22,7.475,16.696,16.696,16.696h478.609
			c9.22,0,16.696-7.475,16.696-16.696V16.696C512,7.475,504.525,0,495.304,0z M478.609,267.13H33.391V33.391h445.217V267.13z"/>
	</g>
</g>
<g>
	<g>
		<path d="M428.522,200.348H83.478c-9.22,0-16.696,7.475-16.696,16.696c0,9.22,7.475,16.696,16.696,16.696h345.043
			c9.22,0,16.696-7.475,16.696-16.696C445.217,207.823,437.742,200.348,428.522,200.348z"/>
	</g>
</g>
<g>
	<g>
		<path d="M428.522,133.565H83.478c-9.22,0-16.696,7.475-16.696,16.696s7.475,16.696,16.696,16.696h345.043
			c9.22,0,16.696-7.475,16.696-16.696S437.742,133.565,428.522,133.565z"/>
	</g>
</g>
<g>
	<g>
		<circle cx="328.348" cy="83.478" r="16.696"/>
	</g>
</g>
<g>
	<g>
		<circle cx="428.522" cy="83.478" r="16.696"/>
	</g>
</g>
<g>
	<g>
		<path d="M217.043,333.913c-9.22,0-16.696,7.475-16.696,16.696v100.174c0,9.22,7.475,16.696,16.696,16.696
			c9.22,0,16.696-7.475,16.696-16.696V350.609C233.739,341.388,226.264,333.913,217.043,333.913z"/>
	</g>
</g>
<g>
	<g>
		<path d="M294.957,333.913c-9.22,0-16.696,7.475-16.696,16.696v100.174c0,9.22,7.475,16.696,16.696,16.696
			s16.696-7.475,16.696-16.696V350.609C311.652,341.388,304.177,333.913,294.957,333.913z"/>
	</g>
</g>
<g>
	<g>
		<path d="M430.537,426.507c-6.519-6.519-17.091-6.519-23.611,0s-6.52,17.091,0,23.611c3.16,3.16,4.9,7.349,4.9,11.795
			s-1.74,8.635-4.9,11.795c-3.161,3.161-7.351,4.901-11.796,4.901s-8.634-1.74-11.796-4.902c-3.16-3.16-4.9-7.348-4.9-11.794
			V350.609c0-9.22-7.475-16.696-16.696-16.696s-16.696,7.475-16.696,16.696v111.304c0,13.367,5.215,25.941,14.68,35.405
			C369.19,506.785,381.764,512,395.13,512c13.365,0,25.939-5.215,35.407-14.681c9.466-9.466,14.68-22.041,14.68-35.406
			S440.004,435.974,430.537,426.507z"/>
	</g>
</g>
<g>
	<g>
		<path d="M150.261,333.913c-9.22,0-16.696,7.475-16.696,16.696v111.304c0,4.445-1.74,8.634-4.901,11.795
			c-3.161,3.161-7.349,4.901-11.795,4.901s-8.634-1.74-11.796-4.902c-3.16-3.16-4.9-7.348-4.9-11.794s1.74-8.634,4.9-11.794
			c6.521-6.52,6.521-17.091,0.001-23.612c-6.52-6.518-17.091-6.519-23.611-0.001c-9.466,9.468-14.681,22.042-14.681,35.407
			s5.215,25.939,14.68,35.406C90.93,506.785,103.504,512,116.87,512s25.939-5.215,35.406-14.68
			c9.466-9.468,14.681-22.042,14.681-35.407V350.609C166.957,341.388,159.481,333.913,150.261,333.913z"/>
	</g>
</g>
<g>
</g>
<g>
</g>
<g>
</g>
<g>
</g>
<g>
</g>
<g>
</g>
<g>
</g>
<g>
</g>
<g>
</g>
<g>
</g>
<g>
</g>
<g>
</g>
<g>
</g>
<g>
</g>
<g>
</g>
</svg>
