<?xml version="1.0" encoding="iso-8859-1"?>
<!-- Generator: Adobe Illustrator 19.0.0, SVG Export Plug-In . SVG Version: 6.00 Build 0)  -->
<svg version="1.1" id="Capa_1" xmlns="http://www.w3.org/2000/svg" xmlns:xlink="http://www.w3.org/1999/xlink" x="0px" y="0px"
	 viewBox="0 0 512.004 512.004" style="enable-background:new 0 0 512.004 512.004;" xml:space="preserve">
<g>
	<g>
		<g>
			<path d="M469.338,486.4l-32-183.467c-8.325-51.366-52.498-89.229-104.533-89.6h-12.8V64c0-35.346-28.654-64-64-64
				s-64,28.654-64,64v149.333h-12.8c-52.035,0.371-96.209,38.234-104.533,89.6l-32,183.467c-2.359,11.544,5.087,22.814,16.63,25.172
				c1.547,0.316,3.124,0.459,4.703,0.427h384c11.78,0.239,21.522-9.117,21.761-20.897
				C469.797,489.524,469.654,487.947,469.338,486.4z M234.671,64c0-11.782,9.551-21.333,21.333-21.333S277.338,52.218,277.338,64
				v21.333h-42.667V64z M234.671,128h42.667v21.333h-42.667V128z M234.671,192h42.667v21.333h-42.667V192z M89.604,469.333l25.6-160
				c5.259-31.13,32.432-53.774,64-53.333h153.6c31.568-0.441,58.741,22.204,64,53.333l25.6,160H89.604z"/>
			<path d="M341.338,298.667H170.671c-10.299-0.208-19.275,6.973-21.333,17.067L128.004,422.4l42.667,8.533l17.067-89.6h136.533
				l17.067,89.6l42.667-8.533l-21.333-106.667C360.613,305.64,351.637,298.459,341.338,298.667z"/>
		</g>
	</g>
</g>
<g>
</g>
<g>
</g>
<g>
</g>
<g>
</g>
<g>
</g>
<g>
</g>
<g>
</g>
<g>
</g>
<g>
</g>
<g>
</g>
<g>
</g>
<g>
</g>
<g>
</g>
<g>
</g>
<g>
</g>
</svg>
