<?xml version="1.0" encoding="iso-8859-1"?>
<!-- Generator: Adobe Illustrator 19.0.0, SVG Export Plug-In . SVG Version: 6.00 Build 0)  -->
<svg version="1.1" id="Layer_1" xmlns="http://www.w3.org/2000/svg" xmlns:xlink="http://www.w3.org/1999/xlink" x="0px" y="0px"
	 viewBox="0 0 507.572 507.572" style="enable-background:new 0 0 507.572 507.572;" xml:space="preserve">
<g>
	<g>
		<g>
			<path d="M192.002,264.432c11.782,0,21.333-9.551,21.333-21.333c0-40.199,15.978-64,33.515-64h45.717
				c20.283,0,29.12-25.639,13.144-38.136c-4.339-3.395-10.094-19.208-10.094-30.301c0-11.177,7.532-16.896,24.384-16.896
				c11.782,0,21.333-9.551,21.333-21.333c0-11.782-9.551-21.333-21.333-21.333c-38.256,0-67.051,21.863-67.051,59.563
				c0,8.243,1.316,17.15,3.749,25.771h-9.85c-45.529,0-76.181,45.662-76.181,106.667
				C170.669,254.881,180.22,264.432,192.002,264.432z"/>
			<path d="M505.233,222.512l-22.656-44.373c-2.581-5.077-7.083-8.896-12.501-10.624c-5.419-1.728-11.307-1.237-16.341,1.387
				L229.433,285.766H36.843l-3.669,0.318C13.989,289.433,0,306.822,0,326.854v91.307c0,21.618,16.39,40.531,38.287,38.101h307.427
				C367.61,458.692,384,439.779,384,418.16v-91.307c0-5.534-1.072-10.865-3.023-15.756l115.104-59.978
				C506.47,245.723,510.566,232.944,505.233,222.512z M341.333,413.595H42.667v-85.163h191.996h106.671V413.595z"/>
		</g>
	</g>
</g>
<g>
</g>
<g>
</g>
<g>
</g>
<g>
</g>
<g>
</g>
<g>
</g>
<g>
</g>
<g>
</g>
<g>
</g>
<g>
</g>
<g>
</g>
<g>
</g>
<g>
</g>
<g>
</g>
<g>
</g>
</svg>
