<svg xmlns="http://www.w3.org/2000/svg" xmlns:xlink="http://www.w3.org/1999/xlink" fill="#616161" enable-background="new 0 0 512 512" version="1.1" viewBox="0 0 512 512"><g><g><path d="m480.6,115.7h-171.4l87.9-68.2c8.9-6.9 10.5-19.7 3.6-28.6-6.9-8.9-19.7-10.5-28.6-3.6l-116.1,90-116.1-90c-8.9-6.9-21.7-5.3-28.6,3.6-6.9,8.9-5.3,21.7 3.6,28.6l87.9,68.2h-171.4c-11.3,0-20.4,9.1-20.4,20.4v275.6c0,11.3 9.1,20.4 20.4,20.4h57.1v48.5c0,11.3 9.1,20.4 20.4,20.4h294.1c11.3,0 20.4-9.1 20.4-20.4v-48.5h57.1c11.3,0 20.4-9.1 20.4-20.4v-275.6c0.1-11.2-9-20.4-20.3-20.4zm-98,344.5h-253.2v-28.1h253.2v28.1zm77.6-68.9h-408.4v-234.7h408.3v234.7z"/></g></g></svg>