<?xml version="1.0" encoding="iso-8859-1"?>
<!-- Generator: Adobe Illustrator 19.0.0, SVG Export Plug-In . SVG Version: 6.00 Build 0)  -->
<svg version="1.1" id="Layer_1" xmlns="http://www.w3.org/2000/svg" xmlns:xlink="http://www.w3.org/1999/xlink" x="0px" y="0px" fill="#616161"
	 viewBox="0 0 512 512" style="enable-background:new 0 0 512 512;" xml:space="preserve">
<g>
	<g>
		<path d="M505.233,115.674L396.326,6.767c-9.021-9.022-23.65-9.022-32.672,0L35.704,334.716v0.002l-0.002,0.002l-21.781,21.78
			c-3.986,3.984-6.376,9.289-6.723,14.915L0.044,487.475c-0.408,6.609,2.041,13.076,6.723,17.758
			c4.345,4.345,10.228,6.766,16.334,6.766c0.473,0,0.947-0.014,1.423-0.043l116.061-7.156c5.625-0.347,10.929-2.739,14.915-6.723
			l21.766-21.766c0.006-0.005,0.011-0.009,0.015-0.014c0.005-0.005,0.009-0.011,0.014-0.015l230.998-231
			c0.006-0.005,0.011-0.009,0.015-0.014c0.005-0.005,0.009-0.011,0.014-0.015l96.906-96.907
			C514.256,139.324,514.256,124.696,505.233,115.674z M47.77,464.229l4.922-79.851l74.929,74.929L47.77,464.229z M160.948,427.289
			l-76.236-76.236l198.357-198.355l76.235,76.235L160.948,427.289z M391.975,196.258l-76.235-76.233l64.251-64.249l76.235,76.235
			L391.975,196.258z"/>
	</g>
</g>
</svg>
