<?xml version="1.0" encoding="iso-8859-1"?>
<!-- Generator: Adobe Illustrator 19.0.0, SVG Export Plug-In . SVG Version: 6.00 Build 0)  -->
<svg version="1.1" id="Layer_1" xmlns="http://www.w3.org/2000/svg" xmlns:xlink="http://www.w3.org/1999/xlink" x="0px" y="0px" fill="#707070"
	 viewBox="0 0 350 350" style="enable-background:new 0 0 350 350;" xml:space="preserve">
<g>
	<g>
		<g>
			<path d="M335,9.999H15c-8.284,0-15,6.715-15,15v120c0,8.284,6.716,15,15,15h55v165c0,8.284,6.716,15,15,15h109.967
				c0.006,0,0.011,0.001,0.017,0.001c0.007,0,0.014-0.001,0.021-0.001H265c8.284,0,15-6.716,15-15v-165h55c8.284,0,15-6.716,15-15
				v-120C350,16.715,343.284,9.999,335,9.999z M100,309.999V274.14c16.363,6.548,29.311,19.496,35.858,35.859H100z M250,310h-35.898
				c6.552-16.384,19.515-29.348,35.898-35.9V310z M250,242.61c-16.066,4.275-30.926,12.755-42.779,24.609
				c-11.854,11.853-20.333,26.713-24.609,42.779H167.35c-4.275-16.057-12.749-30.906-24.597-42.754
				c-11.847-11.848-26.697-20.321-42.753-24.596V99.999h150V242.61z M320,129.998h-40V99.127c5.822-2.062,10-7.6,10-14.128
				c0-8.284-6.716-15-15-15h-10H85H75c-8.284,0-15,6.716-15,15c0,6.528,4.178,12.066,10,14.128v30.872H30V39.999h290V129.998z"/>
			<path d="M175.002,238.732c24.178,0,43.117-23.88,43.117-54.365c0-30.487-18.939-54.368-43.117-54.368
				c-24.18,0-43.121,23.881-43.121,54.368C131.881,214.852,150.822,238.732,175.002,238.732z M175.002,159.998
				c5.349,0,13.117,9.493,13.117,24.368c0,14.873-7.768,24.365-13.117,24.365c-5.35,0-13.121-9.492-13.121-24.365
				C161.881,169.492,169.652,159.998,175.002,159.998z"/>
		</g>
	</g>
</g>
<g>
</g>
<g>
</g>
<g>
</g>
<g>
</g>
<g>
</g>
<g>
</g>
<g>
</g>
<g>
</g>
<g>
</g>
<g>
</g>
<g>
</g>
<g>
</g>
<g>
</g>
<g>
</g>
<g>
</g>
</svg>
