<?xml version="1.0" encoding="iso-8859-1"?>
<!-- Generator: Adobe Illustrator 19.0.0, SVG Export Plug-In . SVG Version: 6.00 Build 0)  -->
<svg version="1.1" id="Capa_1" xmlns="http://www.w3.org/2000/svg" xmlns:xlink="http://www.w3.org/1999/xlink" x="0px" y="0px"
	 viewBox="0 0 512 512" style="enable-background:new 0 0 512 512;" xml:space="preserve">
<g>
	<g>
		<path d="M496,0H16C7.168,0,0,7.168,0,16v480c0,8.832,7.168,16,16,16h480c8.832,0,16-7.168,16-16V16C512,7.168,504.832,0,496,0z
			 M480,480H32V32h448V480z"/>
	</g>
</g>
<g>
	<g>
		<path d="M432,64H80c-8.832,0-16,7.168-16,16v352c0,8.832,7.168,16,16,16h352c8.832,0,16-7.168,16-16V80
			C448,71.168,440.832,64,432,64z M240,416H96V272h144V416z M240,240H96V96h144V240z M416,416H272V272h144V416z M416,240H272V96h144
			V240z"/>
	</g>
</g>
<g>
</g>
<g>
</g>
<g>
</g>
<g>
</g>
<g>
</g>
<g>
</g>
<g>
</g>
<g>
</g>
<g>
</g>
<g>
</g>
<g>
</g>
<g>
</g>
<g>
</g>
<g>
</g>
<g>
</g>
</svg>
