<?xml version="1.0" encoding="iso-8859-1"?>
<!-- Generator: Adobe Illustrator 18.0.0, SVG Export Plug-In . SVG Version: 6.00 Build 0)  -->
<!DOCTYPE svg PUBLIC "-//W3C//DTD SVG 1.1//EN" "http://www.w3.org/Graphics/SVG/1.1/DTD/svg11.dtd">
<svg version="1.1" id="Capa_1" xmlns="http://www.w3.org/2000/svg" xmlns:xlink="http://www.w3.org/1999/xlink" x="0px" y="0px" fill="#707070"
	 viewBox="0 0 330 330" style="enable-background:new 0 0 330 330;" xml:space="preserve">
<g>
	<rect x="100" y="165" width="30" height="30"/>
	<rect x="150" y="165" width="30" height="30"/>
	<rect x="100" y="215" width="30" height="30"/>
	<rect x="150" y="215" width="30" height="30"/>
	<rect x="200" y="165" width="30" height="30"/>
	<rect x="200" y="215" width="30" height="30"/>
	<rect x="100" y="55" width="30" height="30"/>
	<rect x="150" y="55" width="30" height="30"/>
	<rect x="200" y="55" width="30" height="30"/>
	<path d="M285,15c0-8.284-6.716-15-15-15H60c-8.284,0-15,6.716-15,15v110v190c0,8.284,6.716,15,15,15h210c8.284,0,15-6.716,15-15
		V125.017c0-0.003,0-0.005,0-0.008s0-0.005,0-0.008V15z M75,30h180v80H75V30z M255,300h-75v-15.001c0-8.284-6.716-15-15-15
		s-15,6.716-15,15V300H75V140.001l180,0.015V300z"/>
</g>
</svg>
