<svg width="37" height="37" viewBox="0 0 37 37" fill="none" xmlns="http://www.w3.org/2000/svg">
<path d="M24.2428 23.611L23.8458 23.597V20.933H24.1287C25.1137 20.933 25.6077 21.328 25.6077 22.117L25.6138 22.309H27.3498V22.066C27.3498 21.017 27.1057 20.303 26.6077 19.919C26.1137 19.532 25.1897 19.343 23.8438 19.343V18.306H22.6318V19.342C21.2178 19.342 20.2528 19.542 19.7348 19.946C19.2138 20.347 18.9538 21.094 18.9538 22.186C18.9538 23.311 19.2158 24.08 19.7278 24.487C20.2488 24.896 21.2138 25.102 22.6318 25.102V27.991L22.3647 27.981C21.6377 27.981 21.1677 27.884 20.9597 27.696C20.7507 27.508 20.6477 27.085 20.6477 26.427V26.24H18.8468L18.8368 26.602C18.8368 27.677 19.0967 28.432 19.6077 28.868C20.1247 29.304 21.0147 29.518 22.2857 29.518L22.6278 29.525V30.716H23.8407V29.525L24.2118 29.518C25.4828 29.518 26.3737 29.289 26.8857 28.835C27.3997 28.383 27.6537 27.594 27.6537 26.466C27.6537 25.422 27.4208 24.702 26.9548 24.31C26.4848 23.919 25.5818 23.685 24.2428 23.611ZM22.6318 23.539C22.4618 23.53 22.3778 23.523 22.3668 23.523C21.3018 23.523 20.7727 23.084 20.7727 22.199C20.7727 21.353 21.3038 20.933 22.3708 20.933L22.6318 20.923V23.539ZM24.1038 27.989H23.8438V25.169C24.6557 25.169 25.1918 25.255 25.4478 25.428C25.7038 25.601 25.8328 25.957 25.8328 26.501C25.8348 27.491 25.2568 27.989 24.1038 27.989ZM30.9548 14.858C30.8038 11.103 29.3137 7.393 26.4527 4.533C20.4097 -1.511 10.5768 -1.511 4.53375 4.533C-1.51125 10.576 -1.51125 20.41 4.53375 26.453C6.74375 28.663 9.46175 30.057 12.3138 30.648C14.4578 34.407 18.4937 36.951 23.1227 36.951C29.9817 36.951 35.5618 31.373 35.5618 24.513C35.5628 20.62 33.7617 17.142 30.9548 14.858ZM26.9137 8.314C27.9157 9.907 28.5477 11.665 28.8177 13.464C27.1187 12.584 25.1968 12.077 23.1558 12.071L26.9137 8.314ZM11.0737 19.914C8.63675 17.476 8.63675 13.513 11.0737 11.075C13.5107 8.637 17.4748 8.637 19.9118 11.075C20.2848 11.447 20.5928 11.857 20.8498 12.291C16.4958 13.099 12.9407 16.179 11.4487 20.254C11.3207 20.144 11.1937 20.034 11.0737 19.914ZM4.07175 22.672C1.33075 18.311 1.32475 12.72 4.05075 8.351L7.92375 12.226C7.02475 14.321 7.03075 16.71 7.94475 18.8L4.07175 22.672ZM22.6728 4.072L18.8018 7.944C16.6848 7.02 14.2608 7.026 12.1488 7.964L8.27975 4.095C12.6567 1.322 18.2848 1.315 22.6728 4.072ZM8.31475 26.915L10.6818 24.547C10.6858 25.854 10.8948 27.109 11.2738 28.295C10.2478 27.959 9.25275 27.504 8.31475 26.915ZM23.1227 34.95C19.8017 34.95 16.8447 33.386 14.9307 30.961C14.4207 30.315 13.9887 29.607 13.6397 28.85C13.0337 27.528 12.6847 26.062 12.6847 24.514C12.6847 24.09 12.7178 23.674 12.7668 23.263C12.8468 22.589 12.9918 21.934 13.1958 21.305C14.4018 17.584 17.6438 14.782 21.6028 14.2C22.1008 14.128 22.6078 14.076 23.1238 14.076C23.2858 14.076 23.4437 14.094 23.6057 14.1C25.5827 14.191 27.4218 14.822 28.9648 15.868C29.6538 16.338 30.2768 16.893 30.8398 17.511C32.5258 19.365 33.5628 21.82 33.5628 24.516C33.5608 30.266 28.8797 34.95 23.1227 34.95Z" transform="translate(1)" fill="black"/>
</svg>
