<?xml version="1.0" encoding="iso-8859-1"?>
<!-- Generator: Adobe Illustrator 19.0.0, SVG Export Plug-In . SVG Version: 6.00 Build 0)  -->
<svg version="1.1" id="Capa_1" xmlns="http://www.w3.org/2000/svg" xmlns:xlink="http://www.w3.org/1999/xlink" x="0px" y="0px" fill="#616161"
	 viewBox="0 0 512 512" style="enable-background:new 0 0 512 512;" xml:space="preserve">
<g>
	<g>
		<g>
			<path d="M78.5,402c23.224,0,44.115-10.081,58.5-26.06c14.385,15.979,35.276,26.06,58.5,26.06c24.319,0,46.09-11.047,60.5-28.354
				C270.41,390.953,292.181,402,316.5,402c23.224,0,44.115-10.081,58.5-26.06c14.385,15.979,35.276,26.06,58.5,26.06
				c43.285,0,78.5-34.991,78.5-78h-40c0,20.953-17.271,38-38.5,38S395,344.953,395,324V60c0-11.028,8.972-20,20-20h35V0h-35
				c-33.084,0-60,26.916-60,60v32H157V60c0-11.028,8.972-20,20-20h35V0h-35c-33.084,0-60,26.916-60,60v264
				c0,20.953-17.271,38-38.5,38S40,344.953,40,324H0C0,367.009,35.215,402,78.5,402z M157,132h198v40H157V132z M157,212h198v40H157
				V212z M157,292h198v32c0,20.953-17.271,38-38.5,38S278,344.953,278,324h-4h-36h-4c0,20.953-17.271,38-38.5,38
				S157,344.953,157,324V292z"/>
			<path d="M433.5,472c-21.229,0-38.5-17.047-38.5-38h-2h-38h-2c0,20.953-17.271,38-38.5,38S276,454.953,276,434h-40
				c0,20.953-17.271,38-38.5,38S159,454.953,159,434h-2h-38h-2c0,20.953-17.271,38-38.5,38S40,454.953,40,434H0
				c0,43.009,35.215,78,78.5,78c23.771,0,45.093-10.568,59.5-27.207C152.407,501.432,173.729,512,197.5,512
				c23.224,0,44.115-10.081,58.5-26.06c14.385,15.979,35.276,26.06,58.5,26.06c23.771,0,45.093-10.568,59.5-27.207
				C388.407,501.432,409.729,512,433.5,512c43.285,0,78.5-34.991,78.5-78h-40C472,454.953,454.729,472,433.5,472z"/>
		</g>
	</g>
</g>
<g>
</g>
<g>
</g>
<g>
</g>
<g>
</g>
<g>
</g>
<g>
</g>
<g>
</g>
<g>
</g>
<g>
</g>
<g>
</g>
<g>
</g>
<g>
</g>
<g>
</g>
<g>
</g>
<g>
</g>
</svg>
