<?xml version="1.0" encoding="iso-8859-1"?>
<!-- Generator: Adobe Illustrator 19.0.0, SVG Export Plug-In . SVG Version: 6.00 Build 0)  -->
<svg version="1.1" id="Capa_1" xmlns="http://www.w3.org/2000/svg" xmlns:xlink="http://www.w3.org/1999/xlink" x="0px" y="0px" fill="#707070"
	 viewBox="0 0 512 512" style="enable-background:new 0 0 512 512;" xml:space="preserve">
<g>
	<g>
		<g>
			<path d="M184,192c8.836,6.627,21.373,4.837,28-4l44-58.667L300,188c6.585,8.779,19.107,10.67,28,4
				c8.837-6.627,10.627-19.164,4-28l-60-80c-3.777-5.036-9.705-8-16-8c-6.295,0-12.223,2.964-16,8l-60,80
				C173.373,172.836,175.163,185.373,184,192z"/>
			<path d="M328,320c-8.837-6.627-21.373-4.837-28,4l-44,58.667L212,324c-6.627-8.836-19.162-10.629-28-4
				c-8.837,6.627-10.627,19.164-4,28l60,80c3.777,5.036,9.705,8,16,8s12.223-2.964,16-8l60-80
				C338.627,339.164,336.837,326.627,328,320z"/>
			<path d="M492,0H20C8.954,0,0,8.954,0,20v472c0,11.046,8.954,20,20,20h472c11.046,0,20-8.954,20-20V20C512,8.954,503.046,0,492,0z
				 M472,472H40V40h432V472z"/>
			<path d="M196,276h120c11.046,0,20-8.954,20-20c0-11.046-8.954-20-20-20H196c-11.046,0-20,8.954-20,20S184.954,276,196,276z"/>
		</g>
	</g>
</g>
</svg>
