<?xml version="1.0" encoding="iso-8859-1"?>
<!-- Generator: Adobe Illustrator 19.0.0, SVG Export Plug-In . SVG Version: 6.00 Build 0)  -->
<svg version="1.1" id="Layer_1" xmlns="http://www.w3.org/2000/svg" xmlns:xlink="http://www.w3.org/1999/xlink" x="0px" y="0px" fill="#616161"
	 viewBox="0 0 330.021 330.021" style="enable-background:new 0 0 330.021 330.021;" xml:space="preserve">
<path id="XMLID_462_" d="M289.9,163.209c-0.853-24.246-17.491-44.531-39.925-50.907V85.014C249.975,38.137,211.839,0,164.962,0
	c-46.877,0-85.014,38.137-85.014,85.014v27.291c-23.032,6.547-39.955,27.757-39.955,52.86c0,25.103,16.923,46.314,39.956,52.86
	l0.002,36.967c0,0.024-0.003,0.047-0.003,0.07c0,0.024,0.003,0.047,0.003,0.07l0.004,59.734c0,0.052-0.008,0.102-0.008,0.154
	c0,8.284,6.716,15,15,15h33.303c8.284,0,15-6.716,15-15c0-8.284-6.716-15-15-15h-18.296l-0.002-29.959h4.978c8.284,0,15-6.716,15-15
	c0-8.284-6.716-15-15-15h-4.98l-0.001-22.036c23.035-6.546,39.962-27.757,39.962-52.861c0-25.105-16.927-46.317-39.963-52.862
	V85.014c0-30.334,24.679-55.014,55.014-55.014c30.334,0,55.014,24.679,55.014,55.014v27.29
	c-23.034,6.546-39.959,27.757-39.959,52.861V315c0,8.284,6.716,15,15,15h80.012c8.284,0,15-6.716,15-15V165.165
	C290.028,164.502,289.985,163.849,289.9,163.209z M119.911,165.165c0,13.762-11.197,24.959-24.959,24.959
	c-13.762,0-24.959-11.197-24.959-24.959c0-13.762,11.197-24.959,24.959-24.959S119.911,151.403,119.911,165.165z M260.028,300
	h-50.012V165.165c0-13.762,11.197-24.959,24.959-24.959c13.762,0,24.959,11.197,24.959,24.959c0,0.566,0.032,1.125,0.094,1.675V300z
	"/>
</svg>
