<?xml version="1.0" encoding="iso-8859-1"?>
<!-- Generator: Adobe Illustrator 19.0.0, SVG Export Plug-In . SVG Version: 6.00 Build 0)  -->
<svg version="1.1" id="Capa_1" xmlns="http://www.w3.org/2000/svg" xmlns:xlink="http://www.w3.org/1999/xlink" x="0px" y="0px"
	 viewBox="0 0 512 512" style="enable-background:new 0 0 512 512;" xml:space="preserve">
<g>
	<g>
		<path d="M490.667,216.553H448v-42.667c0-36.267-27.733-64-64-64V82.153c0-42.667-42.667-72.533-83.2-61.867l-285.867,89.6
			C6.4,114.153,0,122.687,0,131.22v341.333c0,12.8,8.533,21.333,21.333,21.333H384c36.267,0,64-27.733,64-64V387.22h42.667
			c12.8,0,21.333-8.533,21.333-21.333v-128C512,225.087,503.467,216.553,490.667,216.553z M313.6,62.953
			c12.8-4.267,27.733,6.4,27.733,21.333v25.6h-179.2L313.6,62.953z M405.333,429.887c0,12.8-8.533,21.333-21.333,21.333H42.667
			V152.553H384c12.8,0,21.333,8.533,21.333,21.333v42.667c-36.267,0-64,27.733-64,64v42.667c0,36.267,27.733,64,64,64V429.887z
			 M469.333,344.553h-64c-12.8,0-21.333-8.533-21.333-21.333v-42.667c0-12.8,8.533-21.333,21.333-21.333h64V344.553z"/>
	</g>
</g>
<g>
	<g>
		<path d="M277.333,259.22v-21.333c0-23.467-19.2-42.667-42.667-42.667v-21.333H192v21.333c-23.467,0-42.667,19.2-42.667,42.667
			v42.667c0,23.467,19.2,42.667,42.667,42.667h42.667v42.667H192v-21.333h-42.667v21.333c0,23.467,19.2,42.667,42.667,42.667v21.333
			h42.667v-21.333c23.467,0,42.667-19.2,42.667-42.667V323.22c0-23.467-19.2-42.667-42.667-42.667H192v-42.667h42.667v21.333
			H277.333z"/>
	</g>
</g>
<g>
	<g>
		<circle cx="426.667" cy="301.887" r="21.333"/>
	</g>
</g>
<g>
</g>
<g>
</g>
<g>
</g>
<g>
</g>
<g>
</g>
<g>
</g>
<g>
</g>
<g>
</g>
<g>
</g>
<g>
</g>
<g>
</g>
<g>
</g>
<g>
</g>
<g>
</g>
<g>
</g>
</svg>
