<?xml version="1.0" encoding="iso-8859-1"?>
<!-- Generator: Adobe Illustrator 19.0.0, SVG Export Plug-In . SVG Version: 6.00 Build 0)  -->
<svg version="1.1" id="Layer_1" xmlns="http://www.w3.org/2000/svg" xmlns:xlink="http://www.w3.org/1999/xlink" x="0px" y="0px" fill="#707070"
	 viewBox="0 0 512 512" style="enable-background:new 0 0 512 512;" xml:space="preserve">
<g>
	<g>
		<g>
			<path d="M490.667,405.333h-64v-384C426.667,9.551,417.115,0,405.333,0H106.667C94.885,0,85.333,9.551,85.333,21.333v384h-64
				C9.551,405.333,0,414.885,0,426.667v64C0,502.449,9.551,512,21.333,512h85.333h298.667h85.333
				c11.782,0,21.333-9.551,21.333-21.333v-64C512,414.885,502.449,405.333,490.667,405.333z M42.667,448h42.667v21.333H42.667V448z
				 M128,426.667v-384h256v384v42.667H128V426.667z M469.333,469.333h-42.667V448h42.667V469.333z"/>
			<path d="M320,213.333c-11.782,0-21.333,9.551-21.333,21.333V256h-21.333C265.551,256,256,265.551,256,277.333
				c0,11.782,9.551,21.333,21.333,21.333h21.333V320c0,11.782,9.551,21.333,21.333,21.333s21.333-9.551,21.333-21.333v-85.333
				C341.333,222.885,331.782,213.333,320,213.333z"/>
		</g>
	</g>
</g>
</svg>
