<?xml version="1.0" encoding="iso-8859-1"?>
<!-- Generator: Adobe Illustrator 18.0.0, SVG Export Plug-In . SVG Version: 6.00 Build 0)  -->
<!DOCTYPE svg PUBLIC "-//W3C//DTD SVG 1.1//EN" "http://www.w3.org/Graphics/SVG/1.1/DTD/svg11.dtd">
<svg version="1.1" id="Capa_1" xmlns="http://www.w3.org/2000/svg" xmlns:xlink="http://www.w3.org/1999/xlink" x="0px" y="0px" fill="#707070"
	 viewBox="0 0 330 330" style="enable-background:new 0 0 330 330;" xml:space="preserve">
<path d="M315,145h-15V70c0-35.841-29.159-65-65-65c-30.678,0-56.441,21.369-63.233,50H155c-8.284,0-15,6.716-15,15s6.716,15,15,15
	h60c8.284,0,15-6.716,15-15s-6.716-15-15-15h-11.616c5.628-11.813,17.683-20,31.616-20c19.299,0,35,15.701,35,35v75H45H15
	c-8.284,0-15,6.716-15,15s6.716,15,15,15h15v45c0,30.678,21.369,56.441,50,63.233V310c0,8.284,6.716,15,15,15s15-6.716,15-15v-25
	h110v25c0,8.284,6.716,15,15,15s15-6.716,15-15v-26.767c28.631-6.792,50-32.556,50-63.233v-45h15c8.284,0,15-6.716,15-15
	S323.284,145,315,145z M235,255H95c-19.299,0-35-15.701-35-35v-45h210v45C270,239.299,254.299,255,235,255z"/>
</svg>
