<?xml version="1.0" encoding="iso-8859-1"?>
<!-- Generator: Adobe Illustrator 19.0.0, SVG Export Plug-In . SVG Version: 6.00 Build 0)  -->
<svg version="1.1" id="Capa_1" xmlns="http://www.w3.org/2000/svg" xmlns:xlink="http://www.w3.org/1999/xlink" x="0px" y="0px"
	 viewBox="0 0 511.999 511.999" style="enable-background:new 0 0 511.999 511.999;" xml:space="preserve">
<g>
	<g>
		<path d="M264.63,130.894V60.022C264.63,26.926,237.704,0,204.608,0c-33.096,0-60.022,26.926-60.022,60.022v20.007h30.011V60.022
			c0-16.548,13.463-30.011,30.011-30.011c16.548,0,30.011,13.463,30.011,30.011v70.981L0.097,218.275v105.462h52.488v188.262
			h405.113V323.737h54.205V218.082L264.63,130.894z M427.686,481.989H82.595v-30.011h345.092V481.989z M427.686,421.967H82.595
			V293.726h345.092V421.967z M481.891,293.726h-24.194v-30.011H52.584v30.011H30.108v-54.597l219.539-81.695l232.245,81.888V293.726
			z"/>
	</g>
</g>
<g>
</g>
<g>
</g>
<g>
</g>
<g>
</g>
<g>
</g>
<g>
</g>
<g>
</g>
<g>
</g>
<g>
</g>
<g>
</g>
<g>
</g>
<g>
</g>
<g>
</g>
<g>
</g>
<g>
</g>
</svg>
