<?xml version="1.0" encoding="iso-8859-1"?>
<!-- Generator: Adobe Illustrator 19.0.0, SVG Export Plug-In . SVG Version: 6.00 Build 0)  -->
<svg version="1.1" id="Capa_1" xmlns="http://www.w3.org/2000/svg" xmlns:xlink="http://www.w3.org/1999/xlink" x="0px" y="0px"
	 viewBox="0 0 512 512" style="enable-background:new 0 0 512 512;" xml:space="preserve">
<g>
	<g>
		<g>
			<path d="M362.667,160H149.333C137.551,160,128,169.551,128,181.333V288c0,11.782,9.551,21.333,21.333,21.333h213.333
				c11.782,0,21.333-9.551,21.333-21.333V181.333C384,169.551,374.449,160,362.667,160z M341.333,266.667H170.667v-64h170.667
				V266.667z"/>
			<path d="M490.667,181.333H448v-64c0-35.346-28.654-64-64-64h-42.667V32c0-11.782-9.551-21.333-21.333-21.333H192
				c-11.782,0-21.333,9.551-21.333,21.333v21.333H128c-35.346,0-64,28.654-64,64v64H21.333C9.551,181.333,0,190.885,0,202.667V288
				h42.667v-64H64v192c0,11.782,9.551,21.333,21.333,21.333V480c0,11.782,9.551,21.333,21.333,21.333h64
				c11.782,0,21.333-9.551,21.333-21.333v-42.667h128V480c0,11.782,9.551,21.333,21.333,21.333h64
				c11.782,0,21.333-9.551,21.333-21.333v-42.667c11.782,0,21.333-9.551,21.333-21.333V224h21.333v64H512v-85.333
				C512,190.885,502.449,181.333,490.667,181.333z M213.333,53.333h85.333v21.333h-85.333V53.333z M149.333,458.667H128v-21.333
				h21.333V458.667z M384,458.667h-21.333v-21.333H384V458.667z M405.333,394.667H106.667V117.333
				C106.667,105.551,116.218,96,128,96h42.667c0,11.782,9.551,21.333,21.333,21.333h128c11.782,0,21.333-9.551,21.333-21.333H384
				c11.782,0,21.333,9.551,21.333,21.333V394.667z"/>
			<circle cx="362.667" cy="352" r="21.333"/>
			<circle cx="149.333" cy="352" r="21.333"/>
			<rect x="192" y="330.667" width="128" height="42.667"/>
		</g>
	</g>
</g>
<g>
</g>
<g>
</g>
<g>
</g>
<g>
</g>
<g>
</g>
<g>
</g>
<g>
</g>
<g>
</g>
<g>
</g>
<g>
</g>
<g>
</g>
<g>
</g>
<g>
</g>
<g>
</g>
<g>
</g>
</svg>
