<?xml version="1.0" encoding="iso-8859-1"?>
<!-- Generator: Adobe Illustrator 19.0.0, SVG Export Plug-In . SVG Version: 6.00 Build 0)  -->
<svg version="1.1" id="Capa_1" xmlns="http://www.w3.org/2000/svg" xmlns:xlink="http://www.w3.org/1999/xlink" x="0px" y="0px" fill="#707070"
	 viewBox="0 0 512 512" style="enable-background:new 0 0 512 512;" xml:space="preserve">
<g>
	<g>
		<g>
			<path d="M136,162c11.046,0,20-8.954,20-20V20c0-11.046-8.954-20-20-20s-20,8.954-20,20v122C116,153.046,124.954,162,136,162z"/>
			<path d="M211,0c-11.046,0-20,8.954-20,20v125c0,30.327-24.673,55-55,55c-30.327,0-55-24.673-55-55V20C81,8.954,72.046,0,61,0
				S41,8.954,41,20v125c0,45.523,32.189,83.665,75,92.875V492c0,11.046,8.954,20,20,20s20-8.954,20-20V237.875
				c42.811-9.21,75-47.352,75-92.875V20C231,8.954,222.046,0,211,0z"/>
			<path d="M446.567,53.348C427.694,18.945,402.633,0,376,0s-51.694,18.945-70.567,53.348C290.134,81.233,281,115.496,281,145
				c0,45.523,32.189,83.665,75,92.875V492c0,11.046,8.954,20,20,20c11.046,0,20-8.954,20-20V237.875
				c42.811-9.21,75-47.352,75-92.875C471,115.496,461.866,81.233,446.567,53.348z M376,200c-30.327,0-55-24.673-55-55
				c0-22.74,7.473-50.487,19.501-72.413C351.529,52.486,365.131,40,376,40c10.869,0,24.471,12.486,35.499,32.587
				C423.527,94.513,431,122.26,431,145C431,175.327,406.327,200,376,200z"/>
		</g>
	</g>
</g>
<g>
</g>
<g>
</g>
<g>
</g>
<g>
</g>
<g>
</g>
<g>
</g>
<g>
</g>
<g>
</g>
<g>
</g>
<g>
</g>
<g>
</g>
<g>
</g>
<g>
</g>
<g>
</g>
<g>
</g>
</svg>
