<?xml version="1.0" encoding="iso-8859-1"?>
<!-- Generator: Adobe Illustrator 19.0.0, SVG Export Plug-In . SVG Version: 6.00 Build 0)  -->
<svg version="1.1" id="Layer_1" xmlns="http://www.w3.org/2000/svg" xmlns:xlink="http://www.w3.org/1999/xlink" x="0px" y="0px" fill="#616161"
	 viewBox="0 0 512 512" style="enable-background:new 0 0 512 512;" xml:space="preserve">
<g>
	<g>
		<path d="M511.997,64H424V16h-48v48h-96V16h-48v48h-96V16H88v48H0v432h512V64H511.997z M48,112h415.997v48H48V112z M464,448H48V208
			h416V448z"/>
	</g>
</g>
<g>
	<g>
		<rect x="88" y="256" width="48" height="48"/>
	</g>
</g>
<g>
	<g>
		<rect x="184" y="256" width="48" height="48"/>
	</g>
</g>
<g>
	<g>
		<rect x="280" y="256" width="48" height="48"/>
	</g>
</g>
<g>
	<g>
		<rect x="376" y="256" width="48" height="48"/>
	</g>
</g>
<g>
	<g>
		<rect x="88" y="352" width="48" height="48"/>
	</g>
</g>
<g>
	<g>
		<rect x="184" y="352" width="48" height="48"/>
	</g>
</g>
<g>
	<g>
		<rect x="280" y="352" width="48" height="48"/>
	</g>
</g>
<g>
	<g>
		<rect x="376" y="352" width="48" height="48"/>
	</g>
</g>
<g>
</g>
<g>
</g>
<g>
</g>
<g>
</g>
<g>
</g>
<g>
</g>
<g>
</g>
<g>
</g>
<g>
</g>
<g>
</g>
<g>
</g>
<g>
</g>
<g>
</g>
<g>
</g>
<g>
</g>
</svg>
