<?xml version="1.0" encoding="iso-8859-1"?>
<!-- Generator: Adobe Illustrator 19.0.0, SVG Export Plug-In . SVG Version: 6.00 Build 0)  -->
<svg version="1.1" id="Capa_1" xmlns="http://www.w3.org/2000/svg" xmlns:xlink="http://www.w3.org/1999/xlink" x="0px" y="0px"
	 viewBox="0 0 512.037 512.037" style="enable-background:new 0 0 512.037 512.037;" xml:space="preserve">
<g>
	<g>
		<path d="M209.471,4.285c-138.667,25.6-230.4,160-204.8,298.667s160,230.4,298.667,204.8c21.333-4.267,40.533-10.667,59.733-19.2
			l-17.067-38.4c-21.333,10.667-44.8,14.933-68.267,17.067v-61.867h-42.667v61.867c-23.467-2.133-44.8-8.533-66.133-17.067
			l21.333-36.267l-36.267-21.333l-21.333,36.267c-19.2-12.8-34.133-29.867-49.067-49.067l36.267-21.333l-21.333-36.267
			l-36.267,21.333c-8.533-21.333-14.933-42.667-17.067-66.133h61.867v-42.667H45.204c2.133-23.467,8.533-44.8,17.067-66.133
			l36.267,21.333l21.333-36.267l-36.267-21.333c12.8-19.2,29.867-34.133,49.067-49.067l21.333,36.267l36.267-21.333l-21.333-36.267
			c21.333-8.533,42.667-14.933,66.133-17.067v61.867h42.667V44.819c93.867,8.533,170.667,81.067,187.733,172.8l42.667-8.533
			C482.538,70.419,348.138-21.315,209.471,4.285z"/>
	</g>
</g>
<g>
	<g>
		<path d="M322.538,136.552l-74.667,93.867l-68.267-36.267l-19.2,38.4l85.333,42.667c8.533,4.267,19.2,2.133,25.6-6.4
			l85.333-106.667L322.538,136.552z"/>
	</g>
</g>
<g>
	<g>
		<path d="M506.004,390.419c0,0-14.933-19.2-14.933-70.4c0-38.4-25.6-72.533-64-83.2v-23.467h-42.667v23.467
			c-38.4,10.667-64,42.667-64,83.2c2.133,23.467-2.133,49.067-14.933,70.4c-12.8,12.8-4.267,36.267,14.933,36.267h64v21.333h42.667
			v-21.333h64C508.138,426.685,518.804,403.219,506.004,390.419z M354.538,384.019c6.4-21.333,8.533-42.667,8.533-64
			c0-23.467,19.2-42.667,42.667-42.667s42.667,19.2,42.667,42.667c0,21.333,2.133,42.667,8.533,64H354.538z"/>
	</g>
</g>
<g>
</g>
<g>
</g>
<g>
</g>
<g>
</g>
<g>
</g>
<g>
</g>
<g>
</g>
<g>
</g>
<g>
</g>
<g>
</g>
<g>
</g>
<g>
</g>
<g>
</g>
<g>
</g>
<g>
</g>
</svg>
