<?xml version="1.0" encoding="iso-8859-1"?>
<!-- Generator: Adobe Illustrator 19.0.0, SVG Export Plug-In . SVG Version: 6.00 Build 0)  -->
<svg version="1.1" id="Capa_1" xmlns="http://www.w3.org/2000/svg" xmlns:xlink="http://www.w3.org/1999/xlink" x="0px" y="0px" fill="#707070"
	 viewBox="0 0 512 512" style="enable-background:new 0 0 512 512;" xml:space="preserve">
<g>
	<g>
		<path d="M245.333,405.333V234.667H416c11.782,0,21.333-9.551,21.333-21.333C437.333,95.513,341.821,0,224,0
			S10.667,95.513,10.667,213.333c0,11.782,9.551,21.333,21.333,21.333h170.667V400L44.8,281.6l-25.6,34.133l76.8,57.6V512h42.667
			V405.333l51.2,38.4c3.693,2.77,8.184,4.267,12.8,4.267v64h42.667v-64h149.333v64h42.667v-64h64v-42.667H245.333z M393.344,192
			h-84.416c-0.557-47.383-9.364-94.307-26.027-138.667C342.658,75.393,385.213,128.823,393.344,192z M139.072,192H54.656
			c8.131-63.177,50.686-116.607,110.443-138.667C148.436,97.693,139.629,144.617,139.072,192z M181.739,192
			C185.387,93.867,213.76,42.667,224,42.667s38.613,51.2,42.261,149.333H181.739z"/>
	</g>
</g>
<g>
</g>
<g>
</g>
<g>
</g>
<g>
</g>
<g>
</g>
<g>
</g>
<g>
</g>
<g>
</g>
<g>
</g>
<g>
</g>
<g>
</g>
<g>
</g>
<g>
</g>
<g>
</g>
<g>
</g>
</svg>
