<?xml version="1.0" encoding="iso-8859-1"?>
<!-- Generator: Adobe Illustrator 19.0.0, SVG Export Plug-In . SVG Version: 6.00 Build 0)  -->
<svg version="1.1" id="Capa_1" xmlns="http://www.w3.org/2000/svg" xmlns:xlink="http://www.w3.org/1999/xlink" x="0px" y="0px"
	 viewBox="0 0 512 512" style="enable-background:new 0 0 512 512;" xml:space="preserve">
<g>
	<g>
		<path d="M499.202,236.8l-194.133-89.6c22.151-12.786,35.931-36.293,36.267-61.867C341.336,38.205,303.131,0,256.002,0
			s-85.333,38.205-85.333,85.333h42.667c0-23.564,19.103-42.667,42.667-42.667s42.667,19.102,42.667,42.667
			c0,25.6-34.133,36.267-51.2,44.8C121.602,194.133,14.936,236.8,12.802,236.8c-10.611,5.121-15.061,17.874-9.94,28.485
			c3.443,7.135,10.556,11.773,18.474,12.048h42.667v213.333c0,11.782,9.551,21.333,21.333,21.333h213.333
			c11.782,0,21.333-9.551,21.333-21.333V277.333h85.333v149.333h-64v42.667h85.333c11.782,0,21.333-9.551,21.333-21.333V277.333
			h42.667c11.775-0.408,20.99-10.285,20.581-22.06C510.976,247.356,506.337,240.243,499.202,236.8z M277.336,469.333H106.669v-64
			h170.667V469.333z M277.336,362.667H106.669v-85.333h170.667V362.667z M125.869,234.667L256.002,172.8l136.533,61.867H125.869z"/>
	</g>
</g>
<g>
</g>
<g>
</g>
<g>
</g>
<g>
</g>
<g>
</g>
<g>
</g>
<g>
</g>
<g>
</g>
<g>
</g>
<g>
</g>
<g>
</g>
<g>
</g>
<g>
</g>
<g>
</g>
<g>
</g>
</svg>
