<?xml version="1.0" encoding="iso-8859-1"?>
<!-- Generator: Adobe Illustrator 19.0.0, SVG Export Plug-In . SVG Version: 6.00 Build 0)  -->
<svg version="1.1" id="Capa_1" xmlns="http://www.w3.org/2000/svg" xmlns:xlink="http://www.w3.org/1999/xlink" x="0px" y="0px" fill="#707070"
	 viewBox="0 0 512 512" style="enable-background:new 0 0 512 512;" xml:space="preserve">
<g>
	<g>
		<g>
			<path d="M484.117,277.333l-58.795-156.821c-3.123-8.332-11.091-13.851-19.989-13.845h-64v-64
				c0-11.782-9.551-21.333-21.333-21.333H192c-11.782,0-21.333,9.551-21.333,21.333v64h-64c-8.899-0.006-16.866,5.513-19.989,13.845
				L27.883,277.333H0V320h27.883l58.816,156.821c3.121,8.325,11.077,13.842,19.968,13.845h298.667
				c8.899,0.006,16.866-5.513,19.989-13.845L484.117,320H512v-42.667H484.117z M213.333,64h85.333v42.667h-85.333V64z M390.549,448
				H121.451l-48-128h365.099L390.549,448z M73.451,277.333l48-128h269.099l48,128H73.451z"/>
			<rect x="234.667" y="170.667" width="42.667" height="85.333"/>
			<rect x="320" y="170.667" width="42.667" height="85.333"/>
			<rect x="149.333" y="170.667" width="42.667" height="85.333"/>
			<rect x="234.667" y="341.333" width="42.667" height="85.333"/>
			<rect x="320" y="341.333" width="42.667" height="85.333"/>
			<rect x="149.333" y="341.333" width="42.667" height="85.333"/>
		</g>
	</g>
</g>
</svg>
