<svg xmlns="http://www.w3.org/2000/svg" xmlns:xlink="http://www.w3.org/1999/xlink" id="Layer_1" x="0" y="0" fill="#616161" enable-background="new 0 0 511.991 511.991" version="1.1" viewBox="0 0 511.991 511.991" xml:space="preserve"><g><g><path d="M490.658,214.846c-11.782,0-21.333,9.551-21.333,21.333v64h-67.654c-8.784-24.858-32.474-42.667-60.346-42.667 c-9.882,0-19.238,2.241-27.592,6.238l-14.316-14.316l38.687-38.687c8.331-8.33,8.331-21.837,0.002-30.168l-90.496-90.517 c-8.331-8.333-21.839-8.334-30.171-0.003L36.404,271.073c-8.332,8.331-8.332,21.839-0.001,30.171l0.009,0.009L6.245,331.434 c-8.328,8.332-8.326,21.837,0.004,30.166l60.331,60.331c8.331,8.331,21.839,8.331,30.17,0l30.171-30.171l0.001,0.001 c8.331,8.331,21.839,8.331,30.17,0l112.157-112.157l14.316,14.316c-3.997,8.354-6.238,17.71-6.238,27.592 c0,35.355,28.645,64,64,64c27.872,0,51.562-17.808,60.346-42.667h67.654v64c0,11.782,9.551,21.333,21.333,21.333 s21.333-9.551,21.333-21.333V236.179C511.991,224.397,502.44,214.846,490.658,214.846z M96.745,361.595l-15.081,15.081 L51.5,346.512l15.082-15.089l3.04,3.04L96.745,361.595z M142.005,346.506L99.82,304.321l-18.151-18.157 c-0.002-0.002-0.005-0.004-0.007-0.007L232.52,135.316l60.331,60.345l-38.667,38.667c-0.007,0.007-0.015,0.013-0.022,0.02 s-0.013,0.015-0.02,0.022L142.005,346.506z M341.325,342.846c-11.791,0-21.333-9.542-21.333-21.333 c0-5.821,2.332-11.088,6.105-14.935c0.05-0.049,0.104-0.09,0.154-0.139c0.049-0.049,0.09-0.104,0.139-0.154 c3.847-3.773,9.114-6.105,14.935-6.105c11.791,0,21.333,9.542,21.333,21.333S353.116,342.846,341.325,342.846z"/></g></g></svg>