<?xml version="1.0" encoding="iso-8859-1"?>
<!-- Generator: Adobe Illustrator 19.0.0, SVG Export Plug-In . SVG Version: 6.00 Build 0)  -->
<svg version="1.1" id="Capa_1" xmlns="http://www.w3.org/2000/svg" xmlns:xlink="http://www.w3.org/1999/xlink" x="0px" y="0px" fill="#0097A7"
	 viewBox="0 0 512 512" style="enable-background:new 0 0 512 512;" xml:space="preserve">
<g>
	<g>
		<path d="M492.101,254.394v-93.116h-32.54L256.001,0L52.439,161.279h-32.54v93.116h42.269v164.49H19.899V512h472.202v-93.116
			h-42.269v-164.49H492.101z M256.001,38.279l155.246,122.999H100.753L256.001,38.279z M462.098,448.888v33.109H49.902v-33.109
			H462.098z M92.172,418.884v-164.49h33.399v164.49H92.172z M155.574,418.884v-164.49h53.723v164.49H155.574z M239.3,418.884
			v-164.49h33.399v164.49H239.3z M302.703,418.884v-164.49h53.723v164.49H302.703z M386.429,418.884v-164.49h33.399v164.49H386.429z
			 M49.902,224.391v-33.109h412.196v33.109H49.902z"/>
	</g>
</g>
</svg>
