<svg xmlns="http://www.w3.org/2000/svg" xmlns:xlink="http://www.w3.org/1999/xlink" id="Capa_1" x="0" y="0" fill="#616161" enable-background="new 0 0 512 512" version="1.1" viewBox="0 0 512 512" xml:space="preserve"><g><g><g><path d="M452,347c33.084,0,60-26.916,60-60s-26.916-60-60-60s-60,26.916-60,60S418.916,347,452,347z M452,267 c11.028,0,20,8.972,20,20s-8.972,20-20,20s-20-8.972-20-20S440.972,267,452,267z"/><path d="M373,304c0-28.09-19.407-51.724-45.516-58.222l-101.819-90.602C214.666,145.39,200.502,140,185.78,140H101 c-33.084,0-60,26.916-60,60v44H0v268h200v-95h92v-40h-92v-93h113c11.028,0,20,8.972,20,20v113h179v-40H373V304z M160,472H40V284 h120V472z M81,244v-44c0-11.028,8.972-20,20-20h84.78c4.907,0,9.629,1.797,13.295,5.059L265.313,244H81z"/><path d="M141,120c33.084,0,60-26.916,60-60S174.084,0,141,0S81,26.916,81,60S107.916,120,141,120z M141,40 c11.028,0,20,8.972,20,20s-8.972,20-20,20s-20-8.972-20-20S129.972,40,141,40z"/></g></g></g></svg>