<svg xmlns="http://www.w3.org/2000/svg" viewBox="0 0 19 19"><path d="M17.81 19H1.19C.53 19 0 18.47 0 17.81V4.72h.04c-.01-.16.04-.32.17-.45L4.36.17c.11-.11.27-.17.42-.17.15 0 .31.06.42.17l4.29 3.9 3.95-3.9c.12-.11.27-.17.42-.17.16 0 .31.06.43.17l4.5 4.1c.13.13.18.29.17.45H19v13.09c0 .66-.53 1.19-1.19 1.19zm0-14.01l-3.95-3.56-3.73 3.68c-.44.44-.82.44-1.26 0L4.78 1.43 1.19 4.97v12.25c0 .32.26.59.59.59h6.53v-3.57h2.38v3.57h6.53c.33 0 .59-.27.59-.59V4.99zm-4.75 8.06h2.38v2.38h-2.38v-2.38zm0-3.57h2.38v2.38h-2.38V9.48zm1.19-2.38c-.66 0-1.19-.53-1.19-1.19 0-.65.53-1.19 1.19-1.19.66 0 1.19.54 1.19 1.19 0 .66-.53 1.19-1.19 1.19zM8.31 9.48h2.38v2.38H8.31V9.48zm-4.75 3.57h2.38v2.38H3.56v-2.38zm0-3.57h2.38v2.38H3.56V9.48zM4.75 7.1c-.66 0-1.19-.53-1.19-1.19 0-.65.53-1.19 1.19-1.19.66 0 1.19.54 1.19 1.19 0 .66-.53 1.19-1.19 1.19z" fill="#707070"/></svg>