<?xml version="1.0" encoding="iso-8859-1"?>
<!-- Generator: Adobe Illustrator 18.0.0, SVG Export Plug-In . SVG Version: 6.00 Build 0)  -->
<!DOCTYPE svg PUBLIC "-//W3C//DTD SVG 1.1//EN" "http://www.w3.org/Graphics/SVG/1.1/DTD/svg11.dtd">
<svg xmlns="http://www.w3.org/2000/svg" xmlns:xlink="http://www.w3.org/1999/xlink" version="1.1" id="Capa_1" x="0px" y="0px" viewBox="0 0 490.387 490.387" style="enable-background:new 0 0 490.387 490.387;" xml:space="preserve" width="24px" height="24px">
<g id="XMLID_280_">
	<path id="XMLID_283_" d="M450.872,66.294H39.497C17.733,66.294,0,84.014,0,105.797V384.59c0,21.781,17.733,39.503,39.497,39.503   h411.375c21.781,0,39.515-17.722,39.515-39.503V105.797C490.387,84.014,472.653,66.294,450.872,66.294z M348.751,409.006   c-5.672,0-10.286-4.604-10.286-10.287c0-5.683,4.614-10.288,10.286-10.288c5.677,0,10.293,4.605,10.293,10.288   C359.044,404.402,354.428,409.006,348.751,409.006z M414.591,409.006c-5.67,0-10.286-4.604-10.286-10.287   c0-5.683,4.616-10.288,10.286-10.288c5.679,0,10.287,4.605,10.287,10.288C424.878,404.402,420.27,409.006,414.591,409.006z    M441.004,374.712H49.384V115.673h391.62V374.712z" fill="#FFFFFF"/>
	<path id="XMLID_282_" d="M130.111,199.95h25.332v101.631c0,9.139,7.413,16.556,16.56,16.556c9.139,0,16.568-7.417,16.568-16.556   V199.95h25.964c7.649,0,13.857-6.204,13.857-13.848c0-7.651-6.208-13.855-13.857-13.855h-84.424   c-7.636,0-13.842,6.204-13.842,13.855C116.27,193.746,122.475,199.95,130.111,199.95z" fill="#FFFFFF"/>
	<path id="XMLID_281_" d="M282.815,306.782c2.168,6.767,8.477,11.355,15.575,11.355h14.85c7.031,0,13.263-4.476,15.497-11.13   l38.127-113.197c1.675-4.989,0.861-10.479-2.218-14.755c-3.068-4.276-8-6.808-13.27-6.808h-0.392   c-7.132,0-13.465,4.565-15.735,11.332c-7.89,23.542-25.495,76.691-28.343,90.225l-27.339-89.436   c-2.202-7.203-8.858-12.121-16.381-12.121c-5.466,0-10.608,2.612-13.84,7.033c-3.231,4.421-4.148,10.119-2.473,15.328   L282.815,306.782z" fill="#FFFFFF"/>
</g>
<g>
</g>
<g>
</g>
<g>
</g>
<g>
</g>
<g>
</g>
<g>
</g>
<g>
</g>
<g>
</g>
<g>
</g>
<g>
</g>
<g>
</g>
<g>
</g>
<g>
</g>
<g>
</g>
<g>
</g>
</svg>
