<?xml version="1.0" encoding="iso-8859-1"?>
<!-- Generator: Adobe Illustrator 19.0.0, SVG Export Plug-In . SVG Version: 6.00 Build 0)  -->
<svg version="1.1" id="Layer_1" xmlns="http://www.w3.org/2000/svg" xmlns:xlink="http://www.w3.org/1999/xlink" x="0px" y="0px" fill="#707070"
	 viewBox="0 0 360 360" style="enable-background:new 0 0 360 360;" xml:space="preserve">
<path id="XMLID_475_" d="M315,139.994c-5.258,0-10.305,0.915-15,2.58v-40.181c0-23.373-19.023-42.388-42.404-42.388H102.402
	C79.021,60.006,60,79.021,60,102.394v40.181c-4.695-1.665-9.742-2.58-15-2.58c-24.813,0-45,20.187-45,45v40
	c0,24.813,20.187,45,45,45c5.258,0,10.305-0.915,15-2.58v17.58c0,8.284,6.716,15,15,15s15-6.716,15-15v-15h15h150h15v15
	c0,8.284,6.716,15,15,15c8.284,0,15-6.716,15-15v-17.58c4.695,1.665,9.742,2.58,15,2.58c24.813,0,45-20.187,45-45v-40
	C360,160.181,339.813,139.994,315,139.994z M102.402,90.006h155.193c6.84,0,12.404,5.557,12.404,12.388v80.181
	c-4.695-1.665-9.742-2.58-15-2.58H105c-5.258,0-10.305,0.915-15,2.58v-80.181C90,95.563,95.563,90.006,102.402,90.006z M45,239.994
	c-8.271,0-15-6.729-15-15v-40c0-8.271,6.729-15,15-15s15,6.729,15,15v40C60,233.265,53.271,239.994,45,239.994z M105,239.994
	c-8.271,0-15-6.729-15-15c0-8.271,6.729-15,15-15h150c8.271,0,15,6.729,15,15c0,8.271-6.729,15-15,15H105z M330,224.994
	c0,8.271-6.729,15-15,15s-15-6.729-15-15v-40c0-8.271,6.729-15,15-15s15,6.729,15,15V224.994z"/>
<g>
</g>
<g>
</g>
<g>
</g>
<g>
</g>
<g>
</g>
<g>
</g>
<g>
</g>
<g>
</g>
<g>
</g>
<g>
</g>
<g>
</g>
<g>
</g>
<g>
</g>
<g>
</g>
<g>
</g>
</svg>
