<svg xmlns="http://www.w3.org/2000/svg" xmlns:xlink="http://www.w3.org/1999/xlink" id="Capa_1" x="0" y="0" fill="#616161" enable-background="new 0 0 512.001 512.001" version="1.1" viewBox="0 0 512.001 512.001" xml:space="preserve"><g><g><g><path d="M211,120c0-12.923,6.491-22.225,17.963-37.553C243.236,63.376,261,39.641,261,0h-40c0,26.33-11.15,41.229-24.061,58.479 C184.78,74.725,171,93.138,171,120H211z"/><path d="M301,120c0-12.923,6.491-22.225,17.963-37.553C333.236,63.376,351,39.641,351,0h-40c0,26.33-11.15,41.229-24.061,58.479 C274.78,74.725,261,93.138,261,120H301z"/><path d="M138.963,82.447C153.236,63.376,171,39.641,171,0h-40c0,26.33-11.15,41.229-24.061,58.479C94.78,74.725,81,93.138,81,120 h40C121,107.077,127.491,97.776,138.963,82.447z"/><path d="M492.05,262.961C478.952,249.444,461.579,242,443.132,242h-29.131v-82h-414v231.615 c-0.104,32.345,12.326,62.686,35.001,85.434C57.468,499.588,87.414,512,119.322,512h174.679 c63.873,0,116.245-50.165,119.801-113.164c22.242-2.438,42.376-8.672,58.09-18.168c25.865-15.628,40.109-40.016,40.109-68.668 C512.001,293.654,504.916,276.239,492.05,262.961z M374,392c0,44.112-35.888,80-80,80H119.322 c-21.199,0-41.084-8.235-55.989-23.189c-15.116-15.164-23.401-35.431-23.332-57.132V200H374V392z M414.001,358.517V282h29.131 c15.649,0,28.869,13.738,28.869,30C472.001,340.586,444.079,354.289,414.001,358.517z"/></g></g></g></svg>