<?xml version="1.0" encoding="iso-8859-1"?>
<!-- Generator: Adobe Illustrator 19.0.0, SVG Export Plug-In . SVG Version: 6.00 Build 0)  -->
<svg version="1.1" id="Layer_1" xmlns="http://www.w3.org/2000/svg" xmlns:xlink="http://www.w3.org/1999/xlink" x="0px" y="0px" fill="#0097A7"
	 viewBox="0 0 512 512" style="enable-background:new 0 0 512 512;" xml:space="preserve">
<g>
	<g>
		<path d="M341.976,17.155C314.495,5.772,285.595,0,256.082,0C164.852,0,83.346,54.461,48.434,138.745
			c-47.406,114.451,7.139,246.134,121.59,293.541c29.288,12.132,60.123,17.907,91.742,17.077l93.837,59.464
			c3.315,2.102,7.116,3.173,10.934,3.173c2.646,0,5.301-0.513,7.814-1.555c6.141-2.544,10.659-7.915,12.113-14.4l24.303-108.398
			c22.866-21.672,40.61-47.527,52.798-76.95C510.972,196.244,456.426,64.562,341.976,17.155z M425.826,295.063
			c-10.68,25.785-26.562,48.211-47.2,66.655c-3.178,2.839-5.388,6.602-6.321,10.761l-19.351,86.31l-74.715-47.347
			c-3.276-2.076-7.07-3.171-10.932-3.171c-0.383,0-0.767,0.011-1.151,0.033c-3.392,0.191-6.837,0.287-10.243,0.287
			c-24.121,0-47.76-4.725-70.259-14.045c-93.64-38.787-138.266-146.528-99.48-240.17c28.567-68.964,95.259-113.527,169.908-113.527
			c24.122,0,47.761,4.726,70.262,14.045C419.985,93.682,464.613,201.421,425.826,295.063z"/>
	</g>
</g>
<g>
	<g>
		<path d="M364.93,251.953H147.071c-11.28,0-20.424,9.145-20.424,20.424s9.145,20.424,20.424,20.424H364.93
			c11.28,0,20.424-9.145,20.424-20.424S376.209,251.953,364.93,251.953z"/>
	</g>
</g>
<g>
	<g>
		<path d="M364.932,156.642l-217.861-0.001c-11.278,0-20.424,9.145-20.424,20.424s9.145,20.424,20.424,20.424l217.861,0.001
			c11.278,0,20.424-9.145,20.424-20.424C385.357,165.786,376.212,156.642,364.932,156.642z"/>
	</g>
</g>
</svg>
