<?xml version="1.0" encoding="iso-8859-1"?>
<!-- Generator: Adobe Illustrator 19.0.0, SVG Export Plug-In . SVG Version: 6.00 Build 0)  -->
<svg version="1.1" id="Layer_1" xmlns="http://www.w3.org/2000/svg" xmlns:xlink="http://www.w3.org/1999/xlink" x="0px" y="0px"
	 viewBox="0 0 512 512" style="enable-background:new 0 0 512 512;" xml:space="preserve">
<g>
	<g>
		<path d="M490.667,149.333h-21.333V128c0-11.782-9.551-21.333-21.333-21.333c-11.782,0-21.333,9.551-21.333,21.333v21.333h-21.333
			V128c0-35.355-28.645-64-64-64H170.667c-35.355,0-64,28.645-64,64v21.333H85.333V128c0-11.782-9.551-21.333-21.333-21.333
			c-11.782,0-21.333,9.551-21.333,21.333v21.333H21.333C9.551,149.333,0,158.885,0,170.667C0,182.449,9.551,192,21.333,192h21.333
			v21.333c0,11.782,9.551,21.333,21.333,21.333c11.782,0,21.333-9.551,21.333-21.333V192h21.333v149.333v64
			c0,23.558,19.109,42.667,42.667,42.667h128C300.891,448,320,428.891,320,405.333v-64V320h64c11.782,0,21.333-9.551,21.333-21.333
			V192h21.333v21.333c0,11.782,9.551,21.333,21.333,21.333c11.782,0,21.333-9.551,21.333-21.333V192h21.333
			c11.782,0,21.333-9.551,21.333-21.333C512,158.885,502.449,149.333,490.667,149.333z M362.667,128v21.333H320V128
			c0-11.791,9.542-21.333,21.333-21.333C353.125,106.667,362.667,116.209,362.667,128z M149.333,128
			c0-11.791,9.542-21.333,21.333-21.333h110.306c-0.202,0.571-0.384,1.151-0.57,1.729c-0.072,0.225-0.152,0.447-0.222,0.673
			c-0.288,0.933-0.556,1.875-0.802,2.826c-0.06,0.232-0.11,0.469-0.168,0.702c-0.179,0.723-0.349,1.449-0.503,2.182
			c-0.073,0.347-0.136,0.697-0.203,1.046c-0.122,0.631-0.237,1.265-0.34,1.902c-0.061,0.379-0.117,0.759-0.172,1.139
			c-0.09,0.628-0.169,1.26-0.24,1.894c-0.042,0.376-0.086,0.752-0.121,1.13c-0.065,0.684-0.114,1.373-0.157,2.063
			c-0.02,0.327-0.047,0.651-0.063,0.979c-0.048,1.017-0.078,2.039-0.078,3.068v170.667V320h-128V128z M277.333,405.333h-128v-42.667
			h128V405.333z M362.667,277.333H320V192h42.667V277.333z"/>
	</g>
</g>
<g>
</g>
<g>
</g>
<g>
</g>
<g>
</g>
<g>
</g>
<g>
</g>
<g>
</g>
<g>
</g>
<g>
</g>
<g>
</g>
<g>
</g>
<g>
</g>
<g>
</g>
<g>
</g>
<g>
</g>
</svg>
