<?xml version="1.0" encoding="iso-8859-1"?>
<!-- Generator: Adobe Illustrator 18.0.0, SVG Export Plug-In . SVG Version: 6.00 Build 0)  -->
<!DOCTYPE svg PUBLIC "-//W3C//DTD SVG 1.1//EN" "http://www.w3.org/Graphics/SVG/1.1/DTD/svg11.dtd">
<svg version="1.1" id="Capa_1" xmlns="http://www.w3.org/2000/svg" xmlns:xlink="http://www.w3.org/1999/xlink" x="0px" y="0px" fill="#616161"
	 viewBox="0 0 169.984 169.984" style="enable-background:new 0 0 169.984 169.984;" xml:space="preserve">
<g>
	<circle cx="46.402" cy="128.151" r="8.5"/>
	<circle cx="123.583" cy="128.151" r="8.5"/>
	<path d="M62.527,35.984h42.132c4.143,0,7.5-3.358,7.5-7.5s-3.357-7.5-7.5-7.5H62.527c-4.143,0-7.5,3.358-7.5,7.5
		S58.385,35.984,62.527,35.984z"/>
	<path d="M157.742,36.484c-0.251,0-0.499,0.013-0.744,0.038v-5.11C156.998,14.091,142.907,0,125.587,0H44.398
		c-17.32,0-31.412,14.091-31.412,31.412v5.11c-0.245-0.024-0.493-0.038-0.744-0.038c-4.143,0-7.5,3.358-7.5,7.5v37.5
		c0,4.142,3.357,7.5,7.5,7.5c0.251,0,0.499-0.013,0.744-0.038v59.9c0,4.142,3.357,7.5,7.5,7.5H34.38v6.138
		c0,4.142,3.357,7.5,7.5,7.5h9.09c4.143,0,7.5-3.358,7.5-7.5v-6.138h53.045v6.138c0,4.142,3.357,7.5,7.5,7.5h9.091
		c4.143,0,7.5-3.358,7.5-7.5v-6.138h13.893c4.143,0,7.5-3.358,7.5-7.5v-59.9c0.245,0.024,0.493,0.038,0.744,0.038
		c4.143,0,7.5-3.358,7.5-7.5v-37.5C165.242,39.842,161.885,36.484,157.742,36.484z M27.986,58.33h114.012v41.709H27.986V58.33z
		 M44.398,15h81.188c9.049,0,16.411,7.362,16.411,16.412V43.33H27.986V31.412C27.986,22.362,35.348,15,44.398,15z M27.986,141.346
		v-26.307h114.012v26.307H27.986z"/>
</g>
</svg>
