<?xml version="1.0" encoding="iso-8859-1"?>
<!-- Generator: Adobe Illustrator 19.1.0, SVG Export Plug-In . SVG Version: 6.00 Build 0)  -->
<svg version="1.1" id="Capa_1" xmlns="http://www.w3.org/2000/svg" xmlns:xlink="http://www.w3.org/1999/xlink" x="0px" y="0px" fill="#707070"
	 viewBox="0 0 529.578 529.578" style="enable-background:new 0 0 529.578 529.578;" xml:space="preserve">
<g>
	<g>
		<path d="M176.526,250.804h-4.973c-4.973,2.486-9.945,4.973-12.431,9.945c-2.486,4.973-2.486,9.945-2.486,14.918
			c2.486,7.459,9.945,14.918,19.89,14.918h4.973c9.945-2.486,17.404-14.918,12.431-24.863
			C193.93,255.776,183.985,250.804,176.526,250.804z"/>
		<path d="M517.147,332.851h-49.726c-7.459,0-12.431,4.973-12.431,12.431v62.157h-99.451v-49.726c0-2.486,0-2.486,0-4.973
			l27.349-7.459c2.486,0,4.973-2.486,7.459-4.973c2.486-2.486,2.486-7.459,0-9.945l-9.945-37.294l131.773-37.294
			c7.459-2.486,9.945-9.945,7.459-14.918l-62.157-213.82c0-2.486-2.486-4.973-4.973-7.459c-2.486-2.486-7.459-2.486-9.945,0
			L9.945,143.894c-4.973,0-9.945,4.973-9.945,9.945s2.486,9.945,7.459,12.431l57.185,22.377l4.973,17.404
			c-39.781,12.431-62.157,54.698-49.726,94.479c9.945,34.808,39.781,57.185,74.588,57.185c7.459,0,12.431,0,19.89-2.486v4.973
			c2.486,4.973,7.459,9.945,12.431,9.945h2.486l131.773-37.294l9.945,34.808c0,2.486,2.486,4.973,4.973,7.459
			c2.486,0,4.973,2.486,4.973,2.486h2.486l44.753-12.431v59.671c0,7.459,4.973,12.431,12.431,12.431H454.99v62.157
			c0,7.459,4.973,12.431,12.431,12.431h49.726c7.459,0,12.431-4.973,12.431-12.431V350.255
			C529.578,337.824,524.606,332.851,517.147,332.851z M52.212,156.325l387.86-111.883l14.918,47.239L126.8,186.16l-44.753-17.404
			c0-2.486-4.973-2.486-7.459-2.486L52.212,156.325z M42.267,293.071c-7.459-27.349,7.459-54.698,34.808-64.643l29.835,99.451
			C79.561,335.337,49.726,320.42,42.267,293.071z M94.479,198.592l27.349,9.945c2.486,0,4.973,0,7.459,0l330.676-94.479
			L494.77,233.4L134.259,337.824L94.479,198.592z M285.922,320.42l72.102-19.89l7.459,24.863l-72.102,19.89L285.922,320.42z
			 M479.853,407.44h24.863v24.863h-24.863V407.44z M479.853,357.714h24.863v24.863h-24.863V357.714z M504.715,482.028h-24.863
			v-24.863h24.863V482.028z"/>
		<path d="M382.888,191.133L213.82,240.859c-4.973,2.486-7.459,9.945-7.459,17.404c2.486,4.973,7.459,9.945,12.431,9.945h2.486
			l169.067-49.726c7.459-2.486,9.945-9.945,7.459-14.918S390.346,188.647,382.888,191.133z"/>
	</g>
</g>
<g>
</g>
<g>
</g>
<g>
</g>
<g>
</g>
<g>
</g>
<g>
</g>
<g>
</g>
<g>
</g>
<g>
</g>
<g>
</g>
<g>
</g>
<g>
</g>
<g>
</g>
<g>
</g>
<g>
</g>
</svg>
