<svg xmlns="http://www.w3.org/2000/svg" xmlns:xlink="http://www.w3.org/1999/xlink" id="Layer_1" x="0" y="0" fill="#616161" enable-background="new 0 0 326.984 326.984" version="1.1" viewBox="0 0 326.984 326.984" xml:space="preserve"><g id="XMLID_13_"><path id="XMLID_14_" d="M163.492,208.492c-24.813,0-45,20.187-45,45s20.187,45,45,45s45-20.187,45-45 S188.305,208.492,163.492,208.492z M163.492,268.492c-8.271,0-15-6.729-15-15c0-8.271,6.729-15,15-15c8.271,0,15,6.729,15,15 C178.492,261.763,171.763,268.492,163.492,268.492z"/><path id="XMLID_17_" d="M89.246,179.245c-5.858,5.857-5.858,15.355,0,21.213c5.857,5.857,15.354,5.858,21.213,0.001 c29.243-29.242,76.823-29.242,106.066,0c2.929,2.929,6.768,4.393,10.606,4.393c3.839,0,7.678-1.464,10.606-4.394 c5.858-5.858,5.858-15.355,0-21.213C196.799,138.306,130.185,138.306,89.246,179.245z"/><path id="XMLID_18_" d="M46.819,136.819c-5.858,5.858-5.858,15.355,0,21.213c5.858,5.858,15.355,5.858,21.213,0 c52.637-52.637,138.283-52.637,190.92,0c2.929,2.929,6.767,4.394,10.606,4.394s7.678-1.464,10.607-4.394 c5.858-5.858,5.858-15.355,0-21.213C215.832,72.485,111.152,72.485,46.819,136.819z"/><path id="XMLID_19_" d="M322.591,94.393c-42.496-42.497-98.998-65.9-159.099-65.9S46.89,51.896,4.393,94.393 c-5.858,5.858-5.858,15.355,0,21.213c5.857,5.858,15.355,5.858,21.213,0c36.83-36.83,85.799-57.113,137.886-57.113 s101.056,20.283,137.886,57.113c2.929,2.929,6.768,4.394,10.607,4.394s7.678-1.464,10.606-4.394 C328.449,109.748,328.449,100.251,322.591,94.393z"/></g></svg>