<?xml version="1.0" encoding="iso-8859-1"?>
<!-- Generator: Adobe Illustrator 19.0.0, SVG Export Plug-In . SVG Version: 6.00 Build 0)  -->
<svg version="1.1" id="Capa_1" xmlns="http://www.w3.org/2000/svg" xmlns:xlink="http://www.w3.org/1999/xlink" x="0px" y="0px" fill="#616161"
	 viewBox="0 0 512 512" style="enable-background:new 0 0 512 512;" xml:space="preserve">
<g>
	<g>
		<path d="M490.667,384c12.8,0,21.333-8.533,21.333-21.333v-85.333c0-27.733-17.067-51.2-42.667-59.733V192
			c0-36.267-27.733-64-64-64h-128v42.667h128c12.8,0,21.333,8.533,21.333,21.333v21.333H64c-36.267,0-64,27.733-64,64v85.333
			C0,375.467,8.533,384,21.333,384h21.333v64c0,12.8-8.533,21.333-21.333,21.333C8.533,469.333,0,477.867,0,490.667
			S8.533,512,21.333,512h277.333c6.4,0,12.8-2.133,17.067-8.533l25.6-38.4l25.6,38.4C371.2,509.867,377.6,512,384,512h106.667
			c12.8,0,21.333-8.533,21.333-21.333s-8.533-21.333-21.333-21.333S469.333,460.8,469.333,448v-64H490.667z M394.667,469.333
			L358.4,413.867c-8.533-12.8-27.733-12.8-36.267,0L288,469.333H81.067c2.133-6.4,4.267-14.933,4.267-21.333v-64h21.333v42.667
			h42.667V384H192v42.667h42.667V384h192v64c0,6.4,2.133,14.933,4.267,21.333H394.667z M42.667,341.333v-64
			C42.667,264.533,51.2,256,64,256h384c12.8,0,21.333,8.533,21.333,21.333v64H42.667z"/>
	</g>
</g>
<g>
	<g>
		<path d="M170.667,64c-36.267,0-64,27.733-64,64s27.733,64,64,64s64-27.733,64-64S206.933,64,170.667,64z M170.667,149.333
			c-12.8,0-21.333-8.533-21.333-21.333s8.533-21.333,21.333-21.333S192,115.2,192,128S183.467,149.333,170.667,149.333z"/>
	</g>
</g>
<g>
	<g>
		<circle cx="21.333" cy="149.333" r="21.333"/>
	</g>
</g>
<g>
	<g>
		<circle cx="277.333" cy="64" r="21.333"/>
	</g>
</g>
<g>
	<g>
		<circle cx="106.667" cy="21.333" r="21.333"/>
	</g>
</g>
</svg>
