<?xml version="1.0" encoding="iso-8859-1"?>
<!-- Generator: Adobe Illustrator 19.0.0, SVG Export Plug-In . SVG Version: 6.00 Build 0)  -->
<svg version="1.1" id="Layer_1" xmlns="http://www.w3.org/2000/svg" xmlns:xlink="http://www.w3.org/1999/xlink" x="0px" y="0px" fill="#616161"
	 viewBox="0 0 512.009 512.009" style="enable-background:new 0 0 512.009 512.009;" xml:space="preserve">
<g>
	<g>
		<g>
			<path d="M106.675,384.004c-11.776,0-21.333,9.557-21.333,21.333s9.557,21.333,21.333,21.333s21.333-9.557,21.333-21.333
				S118.451,384.004,106.675,384.004z"/>
			<path d="M192.009,384.004c-11.776,0-21.333,9.557-21.333,21.333s9.557,21.333,21.333,21.333s21.333-9.557,21.333-21.333
				S203.785,384.004,192.009,384.004z"/>
			<path d="M256,341.327h-4.671l-13.245-53.001c-4.782-19.001-21.835-32.332-41.39-32.332h-94.699
				c-19.584,0-36.654,13.344-41.392,32.341l-13.246,53.004c0.003-0.012-4.69-0.012-4.69-0.012C19.109,341.327,0,360.436,0,383.994
				v64c0,23.575,19.105,42.667,42.667,42.667h0.009v0.011c0,11.782,9.551,21.333,21.333,21.333c11.782,0,21.333-9.551,21.333-21.333
				v-0.011h128v0.011c0,11.782,9.551,21.333,21.333,21.333c11.782,0,21.333-9.551,21.333-21.333v-0.011
				c23.575-0.005,42.658-19.09,42.658-42.666v-64C298.667,360.432,279.575,341.327,256,341.327z M42.667,383.994h4.693
				c19.553,0,36.607-13.307,41.382-32.276l13.257-53.048c0.002-0.007,94.695-0.009,94.695-0.009
				c-0.022,0,13.244,53.019,13.244,53.019c4.741,18.996,21.811,32.314,41.391,32.314H256v64H42.667V383.994z"/>
			<path d="M490.675,0.004H277.342c-11.782,0-21.333,9.551-21.333,21.333v256c0,11.782,9.551,21.333,21.333,21.333h85.333v192
				c0,11.782,9.551,21.333,21.333,21.333c11.782,0,21.333-9.551,21.333-21.333v-192h85.333c11.782,0,21.333-9.551,21.333-21.333
				v-256C512.009,9.556,502.457,0.004,490.675,0.004z M469.342,256.004H298.675V42.671h170.667V256.004z"/>
			<path d="M341.342,234.671c11.782,0,21.333-9.551,21.333-21.333v-21.333h21.333c35.355,0,64-28.645,64-64s-28.645-64-64-64
				h-42.667c-11.782,0-21.333,9.551-21.333,21.333v85.333v42.667C320.009,225.12,329.56,234.671,341.342,234.671z M405.342,128.004
				c0,11.791-9.542,21.333-21.333,21.333h-21.333v-42.667h21.333C395.8,106.671,405.342,116.213,405.342,128.004z"/>
		</g>
	</g>
</g>
<g>
</g>
<g>
</g>
<g>
</g>
<g>
</g>
<g>
</g>
<g>
</g>
<g>
</g>
<g>
</g>
<g>
</g>
<g>
</g>
<g>
</g>
<g>
</g>
<g>
</g>
<g>
</g>
<g>
</g>
</svg>
