<svg xmlns="http://www.w3.org/2000/svg" xmlns:xlink="http://www.w3.org/1999/xlink" id="Capa_1" x="0" y="0" fill="#616161" enable-background="new 0 0 512 512" version="1.1" viewBox="0 0 512 512" xml:space="preserve"><g><g><rect width="40" height="40" x="196"/></g></g><g><g><rect width="40" height="40" x="276"/></g></g><g><g><path d="M481.459,247.742l-41.071-127.068l-0.146-0.437C431.846,96.17,409.079,80,383.59,80H356V40h-40v40h-40V40h-40v40h-40V40 h-40v40h-27.59c-25.489,0-48.256,16.17-56.651,40.238L30.571,247.726C12.336,258.032,0,277.602,0,300v152 c0,33.084,26.916,60,60,60s60-26.916,60-60v-10h272v10c0,33.084,26.916,60,60,60s60-26.916,60-60V300 C512,277.615,499.677,258.053,481.459,247.742z M109.591,133.23c2.85-7.922,10.388-13.23,18.819-13.23h255.18 c8.434,0,15.972,5.31,18.82,13.233L436.919,240H75.101L109.591,133.23z M80,452c0,11.028-8.972,20-20,20s-20-8.972-20-20v-13.427 C46.258,440.792,52.991,442,60,442h20V452z M472,452c0,11.028-8.972,20-20,20s-20-8.972-20-20v-10h20 c7.009,0,13.742-1.208,20-3.427V452z M472,382c0,11.028-8.972,20-20,20H60c-11.028,0-20-8.972-20-20v-82c0-11.028,8.972-20,20-20 h392c11.028,0,20,8.972,20,20V382z"/></g></g><g><g><rect width="150" height="40" x="181" y="332"/></g></g><g><g><circle cx="412" cy="332" r="20"/></g></g><g><g><circle cx="100" cy="332" r="20"/></g></g></svg>