<?xml version="1.0" encoding="iso-8859-1"?>
<!-- Generator: Adobe Illustrator 19.0.0, SVG Export Plug-In . SVG Version: 6.00 Build 0)  -->
<svg version="1.1" id="Capa_1" xmlns="http://www.w3.org/2000/svg" xmlns:xlink="http://www.w3.org/1999/xlink" x="0px" y="0px" fill="#616161"
	 viewBox="0 0 512.004 512.004" style="enable-background:new 0 0 512.004 512.004;" xml:space="preserve">
<g>
	<g>
		<g>
			<circle cx="420.269" cy="128" r="21.333"/>
			<circle cx="78.936" cy="106.667" r="21.333"/>
			<circle cx="164.269" cy="21.333" r="21.333"/>
			<circle cx="313.602" cy="42.667" r="21.333"/>
			<path d="M420.269,373.333l19.2-115.2h23.467v-44.8h-44.8c-9.781-37.885-44.074-64.264-83.2-64
				c1.402-47.107-35.65-86.432-82.757-87.834c-40.821-1.215-76.781,26.664-85.776,66.5c-47.114-1.178-86.262,36.06-87.44,83.173
				c-0.018,0.72-0.027,1.44-0.027,2.16H36.269V256h25.6l38.4,238.933c2.058,10.093,11.034,17.274,21.333,17.067h256
				c10.299,0.208,19.275-6.973,21.333-17.067l12.8-76.8l40.533,25.6l23.467-34.133L420.269,373.333z M164.269,170.667h14.933
				c11.235,3.547,23.219-2.685,26.766-13.92c0.756-2.395,1.083-4.904,0.967-7.413c0-23.564,19.103-42.667,42.667-42.667
				s42.667,19.102,42.667,42.667c0.092,6.645-1.369,13.22-4.267,19.2c-4.378,10.938,0.94,23.355,11.878,27.733
				c5.089,2.037,10.767,2.037,15.855,0c20.107-9.697,44.289-2.256,55.467,17.067h-249.6
				C121.602,189.769,140.705,170.667,164.269,170.667z M270.936,256v21.333c0,11.782-9.551,21.333-21.333,21.333
				c-11.782,0-21.333-9.551-21.333-21.333V256H270.936z M360.536,469.333H138.669L104.536,256h81.067v21.333
				c0,35.346,28.654,64,64,64c11.231,0.013,22.267-2.93,32-8.533l89.6,59.733L360.536,469.333z M379.736,345.6l-70.4-46.933
				c2.629-6.815,4.072-14.031,4.267-21.333V256h81.067L379.736,345.6z"/>
		</g>
	</g>
</g>
</svg>
