<?xml version="1.0" encoding="iso-8859-1"?>
<!-- Generator: Adobe Illustrator 19.0.0, SVG Export Plug-In . SVG Version: 6.00 Build 0)  -->
<svg version="1.1" id="Layer_1" xmlns="http://www.w3.org/2000/svg" xmlns:xlink="http://www.w3.org/1999/xlink" x="0px" y="0px"
	 viewBox="0 0 512 512" style="enable-background:new 0 0 512 512;" xml:space="preserve">
<g>
	<g>
		<path d="M492.308,370.605h-15.328l-34.887-87.618c-2.983-7.491-10.232-12.407-18.295-12.407h-45.732v-98.681
			c0-10.875-8.817-19.692-19.692-19.692h-194.42V51.819c0-10.875-8.817-19.692-19.692-19.692H19.692C8.817,32.127,0,40.944,0,51.819
			c0,10.875,8.817,19.692,19.692,19.692h104.876v116.866C54.306,198.009,0,258.422,0,331.288
			C0,410.835,64.714,475.55,144.261,475.55s144.262-64.716,144.262-144.262c0-7.245-0.544-14.364-1.579-21.324h51.738v54.46
			c-23.107,8.142-39.717,30.182-39.717,56.039c0,32.759,26.65,59.41,59.409,59.41c32.759,0,59.409-26.652,59.409-59.41
			c0-25.856-16.61-47.896-39.717-56.039v-54.46h32.377l34.887,87.618c2.983,7.491,10.232,12.407,18.296,12.407h28.682
			c10.875,0,19.692-8.817,19.692-19.692C512,379.422,503.183,370.605,492.308,370.605z M144.261,436.164
			c-57.83,0-104.876-47.048-104.876-104.876s47.046-104.877,104.876-104.877c57.83,0,104.877,47.048,104.877,104.877
			S202.089,436.164,144.261,436.164z M338.681,270.578h-63.575c-18.025-38.693-52.708-68.121-94.782-78.988h158.356V270.578z
			 M378.397,420.462c0,11.042-8.982,20.026-20.024,20.026c-11.042,0-20.024-8.984-20.024-20.026
			c0-11.041,8.982-20.023,20.024-20.023C369.415,400.438,378.397,409.421,378.397,420.462z"/>
	</g>
</g>
<g>
</g>
<g>
</g>
<g>
</g>
<g>
</g>
<g>
</g>
<g>
</g>
<g>
</g>
<g>
</g>
<g>
</g>
<g>
</g>
<g>
</g>
<g>
</g>
<g>
</g>
<g>
</g>
<g>
</g>
</svg>
