<?xml version="1.0" encoding="iso-8859-1"?>
<!-- Generator: Adobe Illustrator 19.0.0, SVG Export Plug-In . SVG Version: 6.00 Build 0)  -->
<svg version="1.1" id="Capa_1" xmlns="http://www.w3.org/2000/svg" xmlns:xlink="http://www.w3.org/1999/xlink" x="0px" y="0px" fill="#707070"
	 viewBox="0 0 499.2 499.2" style="enable-background:new 0 0 499.2 499.2;" xml:space="preserve">
<g>
	<g>
		<path d="M469.333,394.667l-49.067,49.067l-70.4-70.4c-8.533-8.533-21.333-8.533-29.867,0l-70.4,70.4l-70.4-70.4
			c-8.533-8.533-21.333-8.533-29.867,0l-70.4,70.4l-49.067-49.067L0,424.533l64,64c8.533,8.533,21.333,8.533,29.867,0l70.4-70.4
			l70.4,70.4c8.533,8.533,21.333,8.533,29.867,0l70.4-70.4l70.4,70.4c8.533,8.533,21.333,8.533,29.867,0l64-64L469.333,394.667z"/>
	</g>
</g>
<g>
	<g>
		<path d="M249.6,4.267c-83.2,0-149.333,66.133-149.333,149.333c0,76.8,119.467,213.333,134.4,228.267
			c4.267,4.267,8.533,6.4,14.933,6.4s10.667-2.133,14.933-6.4c14.933-14.933,134.4-151.467,134.4-228.267
			C398.933,70.4,332.8,4.267,249.6,4.267z M249.6,334.933c-46.933-55.467-106.667-140.8-106.667-181.333
			c0-59.733,46.933-106.667,106.667-106.667S356.267,93.867,356.267,153.6C356.267,194.133,296.533,279.467,249.6,334.933z"/>
	</g>
</g>
<g>
	<g>
		<path d="M249.6,89.6c-36.267,0-64,27.733-64,64s27.733,64,64,64s64-27.733,64-64S285.867,89.6,249.6,89.6z M249.6,174.933
			c-12.8,0-21.333-8.533-21.333-21.333c0-12.8,8.533-21.333,21.333-21.333s21.333,8.533,21.333,21.333
			C270.933,166.4,262.4,174.933,249.6,174.933z"/>
	</g>
</g>
<g>
</g>
<g>
</g>
<g>
</g>
<g>
</g>
<g>
</g>
<g>
</g>
<g>
</g>
<g>
</g>
<g>
</g>
<g>
</g>
<g>
</g>
<g>
</g>
<g>
</g>
<g>
</g>
<g>
</g>
</svg>
