<?xml version="1.0" encoding="iso-8859-1"?>
<!-- Generator: Adobe Illustrator 19.0.0, SVG Export Plug-In . SVG Version: 6.00 Build 0)  -->
<svg version="1.1" id="Capa_1" xmlns="http://www.w3.org/2000/svg" xmlns:xlink="http://www.w3.org/1999/xlink" x="0px" y="0px"
	 viewBox="0 0 70.954 70.954" style="enable-background:new 0 0 70.954 70.954;" xml:space="preserve">
<g>
	<path d="M61.266,17.623c-2.528,2.951-3.167,6.761-3.252,9.5H37.99V0.244h-3C4.546,0.244,0,18.965,0,30.124
		c0,9.506,4.784,17.981,12.217,23.463c-3.085,1.421-5.237,4.534-5.237,8.146c0,4.948,4.026,8.976,8.975,8.976
		c4.948,0,8.974-4.026,8.974-8.976c0-0.884-0.134-1.735-0.373-2.543c2.402,0.537,4.904,0.83,7.48,0.83c2.15,0,4.25-0.201,6.284-0.58
		c-0.195,0.732-0.31,1.5-0.31,2.293c0,4.948,4.024,8.976,8.974,8.976c4.947,0,8.973-4.026,8.973-8.976
		c0-3.346-1.844-6.265-4.565-7.807c7.698-5.466,12.681-14.101,12.681-23.804V29.67l0.02-2.484c0.089-1.826,0.451-4.165,1.732-5.66
		c1.108-1.295,2.787-1.924,5.129-1.924v-6C65.792,13.603,62.835,15.789,61.266,17.623z M15.955,64.708
		c-1.64,0-2.975-1.334-2.975-2.976c0-1.639,1.334-2.973,2.975-2.973c1.64,0,2.974,1.334,2.974,2.973
		C18.928,63.374,17.594,64.708,15.955,64.708z M46.984,64.708c-1.64,0-2.974-1.334-2.974-2.976c0-1.639,1.334-2.973,2.974-2.973
		c1.639,0,2.973,1.334,2.973,2.973C49.956,63.374,48.622,64.708,46.984,64.708z M31.99,6.313v20.811H6.135
		C7.258,14.062,15.932,7.069,31.99,6.313z M32.036,54.022c-13.249,0-24.21-9.134-25.823-20.897H31.99l25.876,0.001
		C56.253,44.89,45.285,54.022,32.036,54.022z"/>
</g>
<g>
</g>
<g>
</g>
<g>
</g>
<g>
</g>
<g>
</g>
<g>
</g>
<g>
</g>
<g>
</g>
<g>
</g>
<g>
</g>
<g>
</g>
<g>
</g>
<g>
</g>
<g>
</g>
<g>
</g>
</svg>
