<?xml version="1.0" encoding="iso-8859-1"?>
<!-- Generator: Adobe Illustrator 18.0.0, SVG Export Plug-In . SVG Version: 6.00 Build 0)  -->
<!DOCTYPE svg PUBLIC "-//W3C//DTD SVG 1.1//EN" "http://www.w3.org/Graphics/SVG/1.1/DTD/svg11.dtd">
<svg version="1.1" id="Capa_1" xmlns="http://www.w3.org/2000/svg" xmlns:xlink="http://www.w3.org/1999/xlink" x="0px" y="0px" fill="#707070"
	 viewBox="0 0 227.52 227.52" style="enable-background:new 0 0 227.52 227.52;" xml:space="preserve">
<path d="M84,4.725H0v218.07h84v-9.035h143.52v-200H84V4.725z M64,202.795H20V24.725h44V202.795z M86.494,33.76H207.52v160H86.494
	V33.76z M190.007,78.094h-90v-20h90V78.094z M100.007,99.76h20v15.25h-20V99.76z M136.007,99.76h20v15.25h-20V99.76z M172.007,99.76
	h20v15.25h-20V99.76z M100.007,123.76h20v15.25h-20V123.76z M136.007,123.76h20v15.25h-20V123.76z M172.007,123.76h20v15.25h-20
	V123.76z M100.007,147.76h20v15.25h-20V147.76z M136.007,147.76h20v15.25h-20V147.76z M172.007,147.76h20v15.25h-20V147.76z"/>
</svg>
