<?xml version="1.0" encoding="iso-8859-1"?>
<!-- Generator: Adobe Illustrator 19.0.0, SVG Export Plug-In . SVG Version: 6.00 Build 0)  -->
<svg version="1.1" id="Layer_1" xmlns="http://www.w3.org/2000/svg" xmlns:xlink="http://www.w3.org/1999/xlink" x="0px" y="0px" fill="#707070"
	 viewBox="0 0 512 512" style="enable-background:new 0 0 512 512;" xml:space="preserve">
<g>
	<g>
		<g>
			<path d="M490.667,170.667H448v-21.333c0-11.782-9.551-21.333-21.333-21.333s-21.333,9.551-21.333,21.333v21.333h-42.667V64
				c0-11.782-9.551-21.333-21.333-21.333H320V21.333C320,9.551,310.449,0,298.667,0c-11.782,0-21.333,9.551-21.333,21.333v21.333
				h-42.667V21.333C234.667,9.551,225.115,0,213.333,0C201.551,0,192,9.551,192,21.333v21.333h-21.333
				c-11.782,0-21.333,9.551-21.333,21.333v106.667h-42.667v-21.333c0-11.782-9.551-21.333-21.333-21.333
				C73.551,128,64,137.551,64,149.333v21.333H21.333C9.551,170.667,0,180.218,0,192v298.667C0,502.449,9.551,512,21.333,512h149.333
				h170.667h149.333c11.782,0,21.333-9.551,21.333-21.333V192C512,180.218,502.449,170.667,490.667,170.667z M42.667,213.333
				h106.667v256H42.667V213.333z M192,192V85.333h128V192v277.333h-42.667v-42.667c0-11.782-9.551-21.333-21.333-21.333
				s-21.333,9.551-21.333,21.333v42.667H192V192z M469.333,469.333H362.667v-256h106.667V469.333z"/>
			<path d="M256,192c11.776,0,21.333-9.557,21.333-21.333s-9.557-21.333-21.333-21.333s-21.333,9.557-21.333,21.333
				S244.224,192,256,192z"/>
			<path d="M256,277.333c11.776,0,21.333-9.557,21.333-21.333s-9.557-21.333-21.333-21.333s-21.333,9.557-21.333,21.333
				S244.224,277.333,256,277.333z"/>
			<path d="M256,362.667c11.776,0,21.333-9.557,21.333-21.333c0-11.776-9.557-21.333-21.333-21.333s-21.333,9.557-21.333,21.333
				C234.667,353.109,244.224,362.667,256,362.667z"/>
			<path d="M405.333,234.667C393.557,234.667,384,244.224,384,256s9.557,21.333,21.333,21.333s21.333-9.557,21.333-21.333
				S417.109,234.667,405.333,234.667z"/>
			<path d="M405.333,320C393.557,320,384,329.557,384,341.333c0,11.776,9.557,21.333,21.333,21.333s21.333-9.557,21.333-21.333
				C426.667,329.557,417.109,320,405.333,320z"/>
			<path d="M106.667,234.667c-11.776,0-21.333,9.557-21.333,21.333s9.557,21.333,21.333,21.333S128,267.776,128,256
				S118.443,234.667,106.667,234.667z"/>
			<path d="M106.667,320c-11.776,0-21.333,9.557-21.333,21.333c0,11.776,9.557,21.333,21.333,21.333S128,353.109,128,341.333
				C128,329.557,118.443,320,106.667,320z"/>
		</g>
	</g>
</g>
</svg>
