<?xml version="1.0" encoding="iso-8859-1"?>
<!-- Generator: Adobe Illustrator 19.0.0, SVG Export Plug-In . SVG Version: 6.00 Build 0)  -->
<svg version="1.1" id="Layer_1" xmlns="http://www.w3.org/2000/svg" xmlns:xlink="http://www.w3.org/1999/xlink" x="0px" y="0px" fill="#707070"
	 viewBox="0 0 512 512" style="enable-background:new 0 0 512 512;" xml:space="preserve">
<g>
	<g>
		<path d="M512,288c0-25.793-18.329-47.319-42.667-52.264V85.333C469.333,38.202,431.131,0,384,0
			c-40.544,0-74.455,28.279-83.15,66.184c-37.905,8.694-66.184,42.606-66.184,83.15c0,11.782,9.551,21.333,21.333,21.333h128
			c11.782,0,21.333-9.551,21.333-21.333c0-38.388-25.345-70.846-60.213-81.57c6.697-14.797,21.579-25.097,38.88-25.097
			c23.567,0,42.667,19.099,42.667,42.667v149.333H253.034c-9.01-31.848-37.664-55.445-72.057-56.831
			c-14.581-17.733-36.343-28.502-60.081-28.502c-39.127,0-71.867,28.942-77.235,67.409l-0.2,2.485l-0.357,16.431
			C18.55,240.433,0,262.054,0,288c0,26.9,19.939,49.15,45.836,52.798l12.519,75.064c3.961,23.865,20.857,42.8,42.794,50.153
			l-9.568,9.568c-8.331,8.331-8.331,21.839,0,30.17c8.331,8.331,21.839,8.331,30.17,0l36.418-36.418h195.66l36.418,36.418
			c8.331,8.331,21.839,8.331,30.17,0c8.331-8.331,8.331-21.839,0-30.17l-9.565-9.565c21.928-7.348,38.816-26.278,42.803-50.15
			l12.503-75.068C492.058,337.152,512,314.902,512,288z M356.96,128h-73.92c7.376-12.754,21.165-21.333,36.96-21.333
			S349.584,115.246,356.96,128z M86.087,221.547C88.985,204.572,103.569,192,120.896,192c12.861,0,24.463,7.032,30.811,18.326
			c4.295,7.641,12.828,11.878,21.512,10.68c0.725-0.102,0.725-0.102,1.365-0.194c0.304-0.044,0.304-0.044,0.588-0.085
			c1.562-0.223,2.229-0.29,2.599-0.29c11.638,0,21.969,5.589,28.457,14.229H85.802L86.087,221.547z M53.333,277.333H64h170.667h224
			c5.882,0,10.667,4.785,10.667,10.667s-4.785,10.667-10.667,10.667h-10.671h-384H53.333c-5.882,0-10.667-4.785-10.667-10.667
			S47.451,277.333,53.333,277.333z M411.571,408.847c-1.717,10.28-10.617,17.82-21.047,17.82h-27.856c-0.001,0-0.002,0-0.003,0
			H149.335c-0.001,0-0.002,0-0.003,0h-27.843c-10.436,0-19.341-7.542-21.045-17.808l-11.262-67.526h333.634L411.571,408.847z"/>
	</g>
</g>
</svg>
