<svg xmlns="http://www.w3.org/2000/svg" xmlns:xlink="http://www.w3.org/1999/xlink" id="Capa_1" x="0" y="0" fill="#616161" enable-background="new 0 0 512 512" version="1.1" viewBox="0 0 512 512" xml:space="preserve"><g><g><g><rect width="194" height="40" x="68" y="192.988"/><path d="M452,16.988H60c-33.084,0-60,26.916-60,60v256c0,33.084,26.916,60,60,60h172v-40H60c-11.028,0-20-8.972-20-20v-170h432 v46.122h40V76.988C512,43.904,485.084,16.988,452,16.988z M472,102.988H40v-26c0-11.028,8.972-20,20-20h392 c11.028,0,20,8.972,20,20V102.988z"/><path d="M478.485,243.961c-24.106-4.333-47.046-18.533-55.79-24.438c-9.121-6.159-19.735-9.414-30.695-9.414 c-10.96,0-21.574,3.255-30.696,9.414c-8.743,5.904-31.683,20.104-55.789,24.438C286.095,247.455,272,264.299,272,284.015v62.396 c0,93.954,107.28,142.923,111.848,144.961l8.152,3.64l8.152-3.64C404.72,489.334,512,440.366,512,346.412v-62.396 C512,264.299,497.905,247.455,478.485,243.961z M472.002,346.412H472c0,55.424-58.155,92.354-79.998,104.268 C370.129,438.75,312,401.824,312,346.412v-62.396c0-0.34,0.245-0.622,0.594-0.685c30.468-5.478,57.621-21.559,71.094-30.656 c2.485-1.678,5.359-2.564,8.313-2.564s5.827,0.887,8.312,2.564c13.474,9.098,40.627,25.179,71.095,30.656 c0.35,0.063,0.594,0.345,0.594,0.685V346.412z"/></g></g></g></svg>