<svg xmlns="http://www.w3.org/2000/svg" xmlns:xlink="http://www.w3.org/1999/xlink" id="Capa_1" width="512" height="512" x="0" y="0" enable-background="new 0 0 601.716 601.717" version="1.1" viewBox="0 0 601.716 601.717" xml:space="preserve"><g><g><path fill="#FFDA44" d="M230.559,348.891h-41.407c-13.596,0-26.381,4.33-36.974,12.523c-9.633,7.453-16.732,17.568-20.529,29.256 c-3.797,11.686-4,24.043-0.586,35.732c3.753,12.855,11.552,23.875,22.551,31.867l33.5,24.338l-12.796,39.381 c-3.046,9.375-3.795,19.381-2.165,28.936c1.538,9.016,5.21,17.719,10.62,25.162c11.432,15.736,29.791,25.131,49.11,25.131 c12.741,0,25.009-4.021,35.478-11.627l33.499-24.34l33.499,24.338c10.47,7.607,22.737,11.629,35.479,11.629 c19.318,0,37.677-9.395,49.109-25.131c5.408-7.443,9.081-16.145,10.619-25.16c1.63-9.555,0.882-19.562-2.164-28.938 l-12.795-39.381l33.499-24.338c11-7.992,18.798-19.012,22.551-31.867c3.414-11.689,3.211-24.047-0.586-35.734 c-3.798-11.686-10.896-21.803-20.529-29.254c-10.593-8.193-23.378-12.525-36.975-12.525h-41.407l-12.796-39.381 c-0.087-0.266-0.185-0.525-0.274-0.791c28.317-3.881,50.205-28.229,50.205-57.596V58.64c0-32.059-26.081-58.14-58.14-58.14 h-98.588c-32.059,0-58.14,26.082-58.14,58.14v192.48c0,29.368,21.888,53.715,50.206,57.596c-0.09,0.266-0.188,0.525-0.275,0.793 L230.559,348.891z M236.264,251.121V58.64c0-8.45,6.85-15.3,15.3-15.3h98.588c8.449,0,15.3,6.85,15.3,15.3v192.48 c0,8.45-6.851,15.3-15.3,15.3h-98.588C243.114,266.421,236.264,259.571,236.264,251.121z M248.88,391.73 c7.635,0,14.401-4.916,16.76-12.178l18.458-56.805c2.638-8.119,9.699-12.178,16.76-12.178c7.061,0,14.122,4.061,16.76,12.178 l18.457,56.805c2.359,7.262,9.126,12.178,16.761,12.178h59.729c17.071,0,24.17,21.846,10.358,31.881l-48.321,35.107 c-6.177,4.486-8.762,12.441-6.402,19.703l18.457,56.805c4.019,12.367-5.807,23.148-16.821,23.148 c-3.445,0-7.006-1.055-10.298-3.445l-48.321-35.107c-3.088-2.244-6.724-3.367-10.358-3.367c-3.635,0-7.27,1.123-10.358,3.367 l-48.322,35.107c-3.29,2.391-6.853,3.445-10.297,3.445c-11.016,0-20.841-10.779-16.822-23.148l18.458-56.805 c2.359-7.262-0.225-15.217-6.402-19.703l-48.321-35.107c-13.812-10.035-6.713-31.881,10.358-31.881H248.88z"/><path fill="#FFDA44" d="M369.835,601.717c-12.847,0-25.217-4.055-35.772-11.725l-33.205-24.124l-33.205,24.126 c-10.556,7.669-22.926,11.723-35.771,11.723c-19.479,0-37.989-9.472-49.515-25.337c-5.454-7.504-9.156-16.277-10.708-25.372 c-1.644-9.633-0.89-19.722,2.182-29.174l12.684-39.035l-33.206-24.125c-11.09-8.058-18.952-19.169-22.737-32.132 c-3.442-11.787-3.238-24.245,0.591-36.026c3.828-11.782,10.985-21.981,20.699-29.497c10.681-8.262,23.572-12.628,37.28-12.628 h41.044l12.684-39.035c0.025-0.077,0.051-0.153,0.077-0.229c-28.566-4.221-50.032-29.049-50.032-58.005V58.64 c0-32.334,26.306-58.64,58.64-58.64h98.588c32.334,0,58.64,26.306,58.64,58.64v192.48c0,28.957-21.467,53.785-50.032,58.005 c0.026,0.075,0.052,0.15,0.077,0.227l12.684,39.036h41.044c13.707,0,26.599,4.367,37.28,12.63 c9.712,7.512,16.869,17.711,20.699,29.495c3.828,11.784,4.032,24.243,0.59,36.028c-3.784,12.963-11.646,24.074-22.736,32.132 l-33.205,24.125l12.683,39.035c3.07,9.451,3.825,19.54,2.182,29.176c-1.551,9.091-5.254,17.863-10.708,25.37 C407.823,592.245,389.313,601.717,369.835,601.717z M300.858,564.632l33.792,24.552c10.384,7.545,22.551,11.533,35.185,11.533 c19.158,0,37.366-9.317,48.705-24.925c5.364-7.383,9.005-16.011,10.53-24.95c1.617-9.477,0.875-19.4-2.146-28.699l-12.907-39.727 l0.294-0.213l33.499-24.338c10.909-7.927,18.644-18.854,22.365-31.604c3.385-11.592,3.184-23.847-0.582-35.439 c-3.768-11.592-10.808-21.624-20.359-29.013c-10.506-8.126-23.186-12.421-36.669-12.421h-41.771l-12.908-39.727 c-0.048-0.145-0.099-0.289-0.149-0.434l-0.317-0.925l0.6-0.082c28.376-3.889,49.773-28.437,49.773-57.101V58.64 c0-31.783-25.857-57.64-57.64-57.64h-98.588c-31.783,0-57.64,25.857-57.64,57.64v192.48c0,28.664,21.398,53.212,49.773,57.101 l0.601,0.082l-0.31,0.902c-0.054,0.151-0.108,0.304-0.158,0.457l-12.908,39.728h-41.771c-13.485,0-26.165,4.294-36.668,12.419 c-9.555,7.392-16.595,17.425-20.36,29.015c-3.767,11.59-3.968,23.845-0.582,35.438c3.722,12.748,11.456,23.677,22.365,31.604 l33.794,24.551l-12.908,39.727c-3.021,9.3-3.764,19.223-2.147,28.697c1.526,8.943,5.167,17.572,10.531,24.952 c11.338,15.607,29.546,24.925,48.706,24.925c12.633,0,24.8-3.987,35.184-11.531L300.858,564.632z M369.834,558.875 c-3.739,0-7.402-1.225-10.592-3.541l-48.321-35.107c-2.945-2.141-6.425-3.271-10.064-3.271c-3.638,0-7.119,1.131-10.064,3.271 l-48.322,35.107c-3.188,2.316-6.851,3.541-10.591,3.541c-5.811,0-11.365-2.869-14.857-7.676 c-3.422-4.711-4.289-10.438-2.44-16.127l18.458-56.805c2.3-7.078-0.2-14.771-6.221-19.145l-48.321-35.107 c-6.471-4.701-9.056-12.655-6.584-20.263c2.472-7.607,9.237-12.522,17.236-12.522h59.73c7.441,0,13.985-4.755,16.285-11.832 l18.458-56.805c2.472-7.607,9.237-12.523,17.236-12.523c7.998,0,14.764,4.916,17.235,12.523l18.457,56.805 c2.3,7.077,8.844,11.832,16.285,11.832h59.729c7.998,0,14.764,4.915,17.235,12.522c2.473,7.607-0.112,15.562-6.583,20.263 l-48.321,35.107c-6.021,4.373-8.521,12.066-6.221,19.145l18.457,56.805c1.849,5.688,0.981,11.416-2.441,16.126 C381.198,556.005,375.645,558.875,369.834,558.875z M300.857,515.955c3.852,0,7.535,1.197,10.652,3.463l48.321,35.107 c3.018,2.191,6.477,3.35,10.004,3.35c5.491,0,10.742-2.716,14.047-7.264c3.229-4.445,4.046-9.854,2.299-15.23l-18.457-56.805 c-2.434-7.491,0.212-15.634,6.584-20.262l48.321-35.107c6.114-4.442,8.556-11.957,6.221-19.145 c-2.336-7.188-8.728-11.832-16.285-11.832h-59.729c-7.876,0-14.803-5.032-17.236-12.523l-18.457-56.805 c-2.336-7.188-8.728-11.832-16.284-11.832c-7.558,0-13.95,4.645-16.285,11.832l-18.458,56.805 c-2.434,7.491-9.36,12.523-17.236,12.523h-59.73c-7.558,0-13.95,4.645-16.285,11.832s0.106,14.702,6.221,19.145l48.321,35.107 c6.372,4.628,9.018,12.771,6.584,20.262l-18.458,56.805c-1.747,5.377-0.931,10.786,2.298,15.23 c3.305,4.548,8.556,7.264,14.048,7.264c3.528,0,6.987-1.158,10.003-3.35l48.322-35.107 C293.323,517.152,297.006,515.955,300.857,515.955z M350.153,266.921h-98.588c-8.712,0-15.8-7.088-15.8-15.8V58.64 c0-8.712,7.088-15.8,15.8-15.8h98.588c8.712,0,15.8,7.088,15.8,15.8v192.48C365.953,259.833,358.865,266.921,350.153,266.921z M251.564,43.84c-8.161,0-14.8,6.639-14.8,14.8v192.48c0,8.161,6.64,14.8,14.8,14.8h98.588c8.161,0,14.8-6.639,14.8-14.8V58.64 c0-8.161-6.639-14.8-14.8-14.8H251.564z"/></g></g></svg>