<?xml version="1.0" encoding="iso-8859-1"?>
<!-- Generator: Adobe Illustrator 19.0.0, SVG Export Plug-In . SVG Version: 6.00 Build 0)  -->
<svg version="1.1" id="Capa_1" xmlns="http://www.w3.org/2000/svg" xmlns:xlink="http://www.w3.org/1999/xlink" x="0px" y="0px" fill="#707070"
	 viewBox="0 0 512 512" style="enable-background:new 0 0 512 512;" xml:space="preserve">
<g>
	<g>
		<g>
			<path d="M469.333,64H42.667C19.103,64,0,83.103,0,106.667v298.667C0,428.898,19.103,448,42.667,448h426.667
				C492.898,448,512,428.898,512,405.333V106.667C512,83.103,492.898,64,469.333,64z M469.333,405.333H42.667V256h426.667V405.333z
				 M469.333,213.333H42.667V192h426.667V213.333z M469.333,149.333H42.667v-42.667h426.667V149.333z"/>
			<rect x="298.667" y="298.667" width="128" height="42.667"/>
			<path d="M85.333,384h149.333c11.782,0,21.333-9.551,21.333-21.333v-64c0-11.782-9.551-21.333-21.333-21.333H85.333
				c-11.782,0-21.333,9.551-21.333,21.333v64C64,374.449,73.551,384,85.333,384z M106.667,320h106.667v21.333H106.667V320z"/>
		</g>
	</g>
</g>
</svg>
