<?xml version="1.0" encoding="iso-8859-1"?>
<!-- Generator: Adobe Illustrator 19.0.0, SVG Export Plug-In . SVG Version: 6.00 Build 0)  -->
<svg version="1.1" id="Layer_1" xmlns="http://www.w3.org/2000/svg" xmlns:xlink="http://www.w3.org/1999/xlink" x="0px" y="0px" fill="#616161"
	 viewBox="0 0 512 512" style="enable-background:new 0 0 512 512;" xml:space="preserve">
<g>
	<g>
		<path d="M490.667,149.333V64c0-11.782-9.551-21.333-21.333-21.333H42.667c-11.782,0-21.333,9.551-21.333,21.333v85.333
			C9.551,149.333,0,158.885,0,170.667V384c0,11.782,9.551,21.333,21.333,21.333h64V448c0,11.782,9.551,21.333,21.333,21.333
			c11.782,0,21.333-9.551,21.333-21.333v-42.667h256V448c0,11.782,9.551,21.333,21.333,21.333c11.782,0,21.333-9.551,21.333-21.333
			v-42.667h64c11.782,0,21.333-9.551,21.333-21.333V170.667C512,158.885,502.449,149.333,490.667,149.333z M448,149.333h-21.333
			c-11.782,0-21.333,9.551-21.333,21.333v42.667h-42.667v-128H448V149.333z M106.667,298.667V256h128v42.667H106.667z M192,213.333
			v-128h128v128H192z M277.333,256h128v42.667h-128V256z M64,85.333h85.333v128h-42.667v-42.667
			c0-11.782-9.551-21.333-21.333-21.333H64V85.333z M469.333,362.667H42.667V192H64v42.667V320c0,11.782,9.551,21.333,21.333,21.333
			h341.333c11.782,0,21.333-9.551,21.333-21.333v-85.333V192h21.333V362.667z"/>
	</g>
</g>
</svg>
