<?xml version="1.0" encoding="iso-8859-1"?>
<!-- Generator: Adobe Illustrator 19.0.0, SVG Export Plug-In . SVG Version: 6.00 Build 0)  -->
<svg version="1.1" id="Capa_1" xmlns="http://www.w3.org/2000/svg" xmlns:xlink="http://www.w3.org/1999/xlink" x="0px" y="0px" fill="#616161"
	 viewBox="0 0 512 512" style="enable-background:new 0 0 512 512;" xml:space="preserve">
<g>
	<g>
		<g>
			<path d="M155.254,61.91C169.917,48.849,190,30.959,190,0h-40c0,12.393-8.113,20.249-21.353,32.042
				C115.885,43.411,100,57.56,100,80h40C140,75.497,147.755,68.59,155.254,61.91z"/>
			<path d="M230,80c0-4.503,7.755-11.41,15.254-18.09C259.917,48.849,280,30.959,280,0h-40c0,12.393-8.113,20.249-21.353,32.042
				C205.885,43.411,190,57.56,190,80H230z"/>
			<path d="M320,80c0-4.503,7.755-11.41,15.254-18.09C349.917,48.849,370,30.959,370,0h-40c0,12.393-8.113,20.249-21.353,32.042
				C295.885,43.411,280,57.56,280,80H320z"/>
			<path d="M452,207h-37v-88H42v146.048C16.051,291.261,0,327.289,0,367c0,79.953,65.047,145,145,145c1.674,0,3.339-0.039,5-0.096
				V512h185c44.112,0,80-35.888,80-80v-33h37c33.084,0,60-26.916,60-60v-72C512,233.916,485.084,207,452,207z M145,472
				c-57.897,0-105-47.103-105-105c0-55.632,43.484-101.298,98.25-104.785c0.512,29.411,20.652,54.124,47.85,61.576
				c2.499,32.783,29.421,58.846,62.56,59.992C240.603,433.732,197.187,472,145,472z M375,432c0,22.056-17.944,40-40,40h-90.1
				c27.767-26.431,45.1-63.729,45.1-105c0-4.222-0.087-8.69-1.128-12.849L285.086,339h-20.542l-3.99,1.843
				c-4.824,2.227-7.253,2.979-9.623,2.979c-13.796,0-25.021-11.224-25.021-25.021c0-2.501,0.284-4.781,0.845-6.776l3.164-11.271
				l-14.665-14.665h-11.992c-13.796,0-25.021-11.224-25.021-25.021c0-3.23,0.649-6.162,2.103-9.51l1.656-3.813v-22.229
				l-17.395-2.286c-6.037-0.793-13-1.23-19.605-1.23c-22.563,0-43.938,5.182-63,14.416V159h293V432z M472,339
				c0,11.028-8.972,20-20,20h-37V247h37c11.028,0,20,8.972,20,20V339z"/>
			<circle cx="101" cy="412" r="20"/>
			<circle cx="165" cy="389" r="20"/>
			<circle cx="114" cy="325" r="20"/>
		</g>
	</g>
</g>
<g>
</g>
<g>
</g>
<g>
</g>
<g>
</g>
<g>
</g>
<g>
</g>
<g>
</g>
<g>
</g>
<g>
</g>
<g>
</g>
<g>
</g>
<g>
</g>
<g>
</g>
<g>
</g>
<g>
</g>
</svg>
