<?xml version="1.0" encoding="UTF-8"?>
<svg xmlns="http://www.w3.org/2000/svg" xmlns:xlink="http://www.w3.org/1999/xlink" width="22px" height="22px" viewBox="0 0 22 22" version="1.1">
    
    <title>36 -Viber- (Outline)</title>
    <desc>Created with Sketch.</desc>
    <defs/>
    <g id="Page-1" stroke="none" stroke-width="1" fill="none" fill-rule="evenodd">
        <g id="36--Viber--(Outline)" fill="#707070">
            <g id="Page-1">
                <g id="Group-3" transform="translate(10.000000, 0.000100)">
                    <path d="M10.8717,11.6318 C10.6487,11.6318 10.4237,11.5578 10.2377,11.4038 C9.8557,11.0908 9.7667,10.5538 10.0027,10.1388 C10.0027,10.0688 9.9987,9.9798 9.9937,9.8618 C9.9387,8.4278 9.6327,7.1538 9.0817,6.0718 C8.6927,5.3128 8.3377,4.8358 7.6707,4.1818 C6.9467,3.4788 6.4417,3.1218 5.5967,2.7178 C4.7247,2.3018 4.1487,2.1788 3.1897,2.0618 C3.0037,2.0408 2.6467,2.0128 2.4047,2.0048 C2.3147,2.0018 2.2427,1.9988 2.1837,1.9988 C1.7777,2.2358 1.2487,2.1638 0.9277,1.7998 C0.5617,1.3868 0.5987,0.7578 1.0107,0.3918 C1.4797,-0.0262 1.9667,-0.0102 2.4697,0.0058 C2.7627,0.0158 3.1907,0.0488 3.4247,0.0758 C4.5427,0.2128 5.3527,0.3858 6.4587,0.9128 C7.5027,1.4128 8.1847,1.8938 9.0677,2.7518 C9.8907,3.5578 10.3757,4.2108 10.8627,5.1628 C11.5477,6.5058 11.9267,8.0608 11.9917,9.7848 C12.0137,10.3258 12.0327,10.7958 11.6447,11.2668 C11.4477,11.5068 11.1607,11.6318 10.8717,11.6318" id="Fill-1"/>
                </g>
                <path d="M17.3873,11.5001 C17.0243,11.5001 16.6733,11.3021 16.4963,10.9571 C16.2873,10.5491 16.3853,10.0641 16.7053,9.7671 C16.7063,9.5841 16.7003,9.3381 16.6813,9.1671 C16.5843,8.3371 16.2983,7.5531 15.8533,6.9051 C15.0453,5.7321 13.8113,5.0191 12.1863,4.7861 C12.0033,4.7591 11.8833,4.7471 11.8053,4.7421 C11.4773,5.0171 10.9933,5.0601 10.6173,4.8121 C10.1553,4.5101 10.0243,3.8911 10.3253,3.4281 C10.8843,2.5741 11.8403,2.7141 12.4733,2.8071 C14.6393,3.1171 16.3783,4.1431 17.5003,5.7711 C18.1303,6.6881 18.5333,7.7841 18.6683,8.9401 C18.6703,8.9551 18.7873,10.0981 18.6013,10.5661 C18.4713,10.8961 18.1733,11.2201 17.8423,11.3901 C17.6973,11.4651 17.5403,11.5001 17.3873,11.5001" id="Fill-4"/>
                <path d="M14.7105,11.5553 C14.4375,11.5553 14.1645,11.4443 13.9675,11.2243 C13.6485,10.8693 13.6295,10.3483 13.8965,9.9743 C13.8925,9.9273 13.8835,9.8613 13.8695,9.7683 C13.7775,9.1553 13.5985,8.7743 13.2465,8.4513 C12.9815,8.2073 12.6655,8.0563 12.2235,7.9653 C12.1275,7.9443 11.9545,7.9263 11.8365,7.9203 L11.7735,7.9173 C11.3085,8.0603 10.7835,7.8493 10.5675,7.3963 C10.3315,6.9003 10.5285,6.3123 11.0225,6.0723 C11.3685,5.9033 11.6255,5.9043 11.9525,5.9233 C12.1595,5.9353 12.4695,5.9723 12.6345,6.0083 C13.4345,6.1743 14.0605,6.4833 14.6015,6.9783 C15.2935,7.6183 15.6895,8.4093 15.8475,9.4693 C15.9125,9.8983 16.0375,10.7053 15.3795,11.2983 C15.1895,11.4703 14.9495,11.5553 14.7105,11.5553" id="Fill-6"/>
                <path d="M11.9029,17.8819 C12.2729,18.1079 12.6499,18.3249 13.0359,18.5329 L13.1909,18.6169 C13.5759,18.8219 13.9689,19.0199 14.3729,19.2089 L14.4949,19.2649 C14.9169,19.4599 15.3439,19.6489 15.7839,19.8259 C16.2439,20.0109 16.2849,20.0089 16.5449,19.9959 C16.6699,19.9909 16.7709,19.9749 16.8669,19.9449 C17.0089,19.9029 17.1709,19.8169 17.3729,19.6769 L17.5109,19.5799 C17.5509,19.5489 17.6019,19.5069 17.6529,19.4629 C17.9429,19.2119 18.2969,18.8229 18.5759,18.4489 C18.7879,18.1639 18.9049,17.9579 18.9439,17.8609 C18.9849,17.7579 19.0049,17.6629 19.0009,17.5799 C18.9979,17.5149 18.9799,17.4679 18.9399,17.4209 C18.7769,17.2529 17.5579,16.2759 16.9499,15.8579 C16.4619,15.5269 15.7569,15.1039 15.4779,14.9639 C15.2059,14.8279 15.0249,14.8579 14.8959,14.8989 C14.8739,14.9279 14.8519,14.9549 14.8339,14.9779 C14.2809,15.6429 14.2509,15.6699 14.1849,15.7279 C14.1359,15.7719 14.0459,15.8359 13.9889,15.8689 C13.9319,15.9039 13.8149,15.9669 13.6989,16.0199 C12.8009,16.4269 11.8419,16.0789 10.9409,15.6419 C10.1439,15.2559 9.4339,14.7669 8.6419,14.0589 C7.9549,13.4449 7.2799,12.6669 6.8829,12.0289 C6.4359,11.3099 5.9499,10.1649 5.9439,9.3529 C5.9439,8.9119 6.1009,8.4009 6.3349,8.0729 C6.3419,8.0619 6.3499,8.0509 6.3579,8.0399 C6.3819,8.0079 6.4469,7.9359 6.4749,7.9069 L6.6449,7.7469 C6.7669,7.6369 6.9539,7.4809 7.1479,7.3259 L7.3669,7.1559 C7.3599,7.1179 7.3319,6.9379 7.1269,6.5479 C6.6139,5.5689 5.0639,3.6889 4.6669,3.4239 C4.6369,3.4049 4.5459,3.3599 4.5119,3.3469 C4.4449,3.3229 4.2969,3.3059 4.2359,3.3129 C4.1629,3.3279 3.9039,3.4629 3.1549,4.0069 C2.7229,4.3219 2.1979,4.8429 2.0989,4.9829 C1.9829,5.1779 1.8889,5.3359 2.2929,6.4229 C2.6709,7.4399 3.1569,8.4669 3.7369,9.4749 C3.8819,9.7229 4.0009,9.9239 4.1249,10.1239 C4.2839,10.3779 4.4109,10.5749 4.5429,10.7719 L4.7409,11.0609 C4.8219,11.1789 4.9029,11.2979 4.9869,11.4149 C5.1469,11.6389 5.3109,11.8609 5.4789,12.0809 C7.2759,14.4189 9.3449,16.2969 11.8039,17.8199 L11.9029,17.8819 Z M16.4139,21.9999 C15.9239,21.9999 15.5939,21.9059 15.0359,21.6799 C14.5649,21.4899 14.1059,21.2889 13.6549,21.0799 C13.6529,21.0789 13.5259,21.0209 13.5249,21.0209 C13.0899,20.8169 12.6659,20.6029 12.2489,20.3809 L12.0809,20.2899 C11.6679,20.0669 11.2589,19.8329 10.8599,19.5879 C10.8579,19.5869 10.7529,19.5209 10.7519,19.5199 C8.0829,17.8679 5.8399,15.8319 3.8919,13.2979 C3.7099,13.0589 3.5339,12.8199 3.3619,12.5809 C3.2689,12.4519 3.1789,12.3199 3.0899,12.1889 L2.9929,12.0479 L2.8779,11.8809 C2.7369,11.6699 2.5979,11.4539 2.4639,11.2369 C2.2919,10.9639 2.1609,10.7449 2.0339,10.5239 C1.3669,9.3669 0.8339,8.2379 0.4179,7.1179 C-0.0601,5.8309 -0.2041,4.9429 0.3949,3.9359 C0.6749,3.4789 1.5069,2.7349 1.9769,2.3909 C2.8309,1.7699 3.3289,1.4569 3.8509,1.3509 C4.2839,1.2569 4.8259,1.3369 5.1659,1.4569 C5.3529,1.5199 5.5929,1.6439 5.7419,1.7359 C6.5529,2.2619 8.3089,4.4949 8.8979,5.6189 C9.1699,6.1359 9.5029,6.9049 9.3039,7.6649 C9.2929,8.1919 8.9709,8.4409 8.6319,8.7049 L8.3879,8.8959 C8.2309,9.0199 8.0779,9.1489 7.9689,9.2449 L7.9669,9.2429 C7.9569,9.2779 7.9449,9.3259 7.9439,9.3509 C7.9459,9.5959 8.1889,10.3419 8.5819,10.9719 C8.8759,11.4449 9.4349,12.0859 9.9749,12.5679 C10.6319,13.1549 11.1819,13.5359 11.8139,13.8419 C12.6189,14.2339 12.8479,14.2009 12.8719,14.2009 L12.8869,14.1929 C12.9539,14.1099 13.1149,13.9159 13.2879,13.7079 C13.3459,13.6359 13.3839,13.5879 13.4069,13.5569 C13.4649,13.4549 13.5429,13.3629 13.6369,13.2849 C13.7579,13.1869 13.8959,13.1199 14.0389,13.0869 C14.1059,13.0579 14.1789,13.0299 14.2589,13.0029 C14.9569,12.7739 15.6849,12.8319 16.3749,13.1759 C16.7609,13.3709 17.5549,13.8519 18.0769,14.2059 C18.6469,14.5959 20.1729,15.7809 20.4719,16.1349 C20.7969,16.5239 20.9759,16.9899 20.9989,17.4889 L20.9989,17.4899 C21.0149,17.8569 20.9489,18.2299 20.8019,18.5999 C20.6839,18.8969 20.4749,19.2469 20.1799,19.6429 C19.8139,20.1339 19.3579,20.6319 18.9609,20.9749 C18.8739,21.0499 18.7859,21.1239 18.7039,21.1849 C18.6299,21.2399 18.5649,21.2849 18.5009,21.3289 C18.1329,21.5829 17.7959,21.7539 17.4469,21.8599 C17.1899,21.9369 16.9269,21.9809 16.6389,21.9939 C16.5599,21.9979 16.4849,21.9999 16.4139,21.9999 L16.4139,21.9999 Z" id="Fill-8"/>
            </g>
        </g>
    </g>

	<metadata>
		<rdf:RDF xmlns:rdf="http://www.w3.org/1999/02/22-rdf-syntax-ns#" xmlns:rdfs="http://www.w3.org/2000/01/rdf-schema#" xmlns:dc="http://purl.org/dc/elements/1.1/">
			<rdf:Description about="https://iconscout.com/legal#licenses" dc:title="36 -Viber- (Outline)" dc:description="36 -Viber- (Outline)" dc:publisher="Iconscout" dc:date="2017-07-09" dc:format="image/svg+xml" dc:language="en">
				<dc:creator>
					<rdf:Bag>
						<rdf:li>Icons24px .</rdf:li>
					</rdf:Bag>
				</dc:creator>
			</rdf:Description>
		</rdf:RDF>
    </metadata></svg>
