<?xml version="1.0" encoding="iso-8859-1"?>
<!-- Generator: Adobe Illustrator 19.0.0, SVG Export Plug-In . SVG Version: 6.00 Build 0)  -->
<svg version="1.1" id="Layer_1" xmlns="http://www.w3.org/2000/svg" xmlns:xlink="http://www.w3.org/1999/xlink" x="0px" y="0px" fill="#0097A7"
	 viewBox="0 0 512 512" style="enable-background:new 0 0 512 512;" xml:space="preserve">
<g>
	<g>
		<path d="M491.243,110.703H469.28c-2.852-8.056-10.517-13.838-19.55-13.838h-41.513c-9.033,0-16.698,5.781-19.55,13.838h-28.882
			v-62.27c0-11.463-9.294-20.757-20.757-20.757H172.973c-11.463,0-20.757,9.294-20.757,20.757v62.27h-28.882
			c-2.852-8.056-10.517-13.838-19.55-13.838H62.27c-9.033,0-16.698,5.781-19.55,13.838H20.757C9.294,110.703,0,119.996,0,131.459
			v332.108c0,11.463,9.294,20.757,20.757,20.757h470.486c11.463,0,20.757-9.294,20.757-20.757V131.459
			C512,119.996,502.707,110.703,491.243,110.703z M193.73,69.189H318.27v41.513H193.73V69.189z M470.487,442.811H41.513V290.595
			H193.73v20.757c0,11.463,9.294,20.757,20.757,20.757h83.027c11.463,0,20.757-9.293,20.757-20.757v-20.757h152.216V442.811z
			 M235.243,290.595v-41.513h41.514v41.513H235.243z M470.487,249.081H318.27v-20.757c0-11.463-9.293-20.757-20.757-20.757h-83.027
			c-11.463,0-20.757,9.294-20.757,20.757v20.757H41.513v-96.865h131.459h166.054h131.459V249.081z"/>
	</g>
</g>
</svg>
