<?xml version="1.0" encoding="iso-8859-1"?>
<!-- Generator: Adobe Illustrator 19.0.0, SVG Export Plug-In . SVG Version: 6.00 Build 0)  -->
<svg version="1.1" id="Layer_1" xmlns="http://www.w3.org/2000/svg" xmlns:xlink="http://www.w3.org/1999/xlink" x="0px" y="0px" fill="#707070"
	 viewBox="0 0 512.001 512.001" style="enable-background:new 0 0 512.001 512.001;" xml:space="preserve">
<g>
	<g>
		<g>
			<rect x="245.551" y="138.449" width="20.898" height="47.02"/>
			<rect x="381.388" y="253.388" width="47.02" height="20.898"/>
			<rect x="83.592" y="253.388" width="47.02" height="20.898"/>
			
				<rect x="339.59" y="178.975" transform="matrix(0.7071 0.7071 -0.7071 0.7071 244.7538 -188.602)" width="20.898" height="44.335"/>
			
				<rect x="134.566" y="190.689" transform="matrix(-0.7071 -0.7071 0.7071 -0.7071 125.3337 454.1906)" width="44.335" height="20.898"/>
			<path d="M512,305.633H370.459c-5.298-58.498-54.604-104.49-114.459-104.49s-109.162,45.992-114.459,104.49H0v20.898h512V305.633z
				 M162.543,305.633c5.214-46.953,45.134-83.592,93.457-83.592s88.243,36.638,93.457,83.592H162.543z"/>
			<path d="M274.662,393.188c9.095-4.931,16.95-9.188,33.583-9.188v-20.898c-21.931,0-33.413,6.222-43.541,11.712
				c-9.094,4.93-16.947,9.186-33.571,9.186c-16.638,0-24.488-4.26-33.578-9.194c-10.108-5.486-21.566-11.704-43.432-11.704
				c-21.927,0-33.407,6.222-43.536,11.711C101.492,379.744,93.639,384,77.01,384c-16.562,0-24.394-4.251-33.463-9.173
				C33.421,369.331,21.943,363.103,0,363.103V384c16.638,0,24.488,4.26,33.578,9.194c10.108,5.486,21.566,11.704,43.432,11.704
				c21.927,0,33.407-6.222,43.535-11.711c9.095-4.93,16.948-9.187,33.577-9.187c16.562,0,24.394,4.251,33.463,9.173
				c10.126,5.496,21.603,11.725,43.547,11.725C253.057,404.898,264.535,398.677,274.662,393.188z"/>
			<path d="M468.46,453.182c-9.095,4.93-16.948,9.186-33.573,9.186c-16.642,0-24.492-4.261-33.584-9.195
				c-10.107-5.486-21.564-11.703-43.426-11.703c-21.931,0-33.413,6.222-43.541,11.712c-9.094,4.93-16.947,9.186-33.572,9.186
				c-16.562,0-24.394-4.251-33.463-9.173c-10.126-5.496-21.604-11.725-43.547-11.725v20.898c16.638,0,24.488,4.26,33.578,9.194
				c10.108,5.486,21.565,11.704,43.432,11.704c21.923,0,33.402-6.221,43.529-11.71c9.095-4.931,16.95-9.188,33.583-9.188
				c16.558,0,24.39,4.251,33.459,9.172c10.126,5.496,21.605,11.726,43.552,11.726c21.923,0,33.402-6.221,43.529-11.71
				c9.095-4.931,16.95-9.188,33.583-9.188V441.47C490.07,441.47,478.588,447.692,468.46,453.182z"/>
			<path d="M374.473,375.55c-7.626-5.546-17.115-12.448-34.881-12.448V384c10.969,0,15.843,3.545,22.589,8.45
				c7.626,5.546,17.115,12.448,34.881,12.448s27.255-6.902,34.881-12.448c6.746-4.905,11.619-8.45,22.589-8.45v-20.898
				c-17.765,0-27.255,6.902-34.881,12.448c-6.746,4.905-11.619,8.45-22.589,8.45S381.219,380.455,374.473,375.55z"/>
			<path d="M114.939,462.368c-10.969,0-15.844-3.545-22.589-8.45c-7.626-5.546-17.115-12.448-34.881-12.448v20.898
				c10.969,0,15.844,3.545,22.589,8.45c7.626,5.546,17.115,12.448,34.881,12.448c17.765,0,27.255-6.902,34.881-12.448
				c6.746-4.905,11.619-8.45,22.589-8.45V441.47c-17.765,0-27.255,6.902-34.881,12.448
				C130.783,458.823,125.908,462.368,114.939,462.368z"/>
			<path d="M370.939,49.633c5.762,0,10.449,4.687,10.449,10.449h20.898c0-5.762,4.687-10.449,10.449-10.449
				c5.762,0,10.449,4.687,10.449,10.449h20.898c0-17.285-14.062-31.347-31.347-31.347c-8.023,0-15.349,3.032-20.898,8.008
				c-5.549-4.976-12.875-8.008-20.898-8.008c-17.285,0-31.347,14.062-31.347,31.347h20.898
				C360.49,54.321,365.177,49.633,370.939,49.633z"/>
			<path d="M245.551,91.429c5.762,0,10.449,4.687,10.449,10.449h20.898c0-5.762,4.687-10.449,10.449-10.449
				c5.762,0,10.449,4.687,10.449,10.449h20.898c0-17.285-14.062-31.347-31.347-31.347c-8.023,0-15.349,3.032-20.898,8.008
				c-5.55-4.976-12.875-8.008-20.898-8.008c-17.285,0-31.347,14.062-31.347,31.347h20.898
				C235.102,96.116,239.789,91.429,245.551,91.429z"/>
			<path d="M88.816,70.531c5.762,0,10.449,4.687,10.449,10.449h20.898c0-5.762,4.687-10.449,10.449-10.449
				c5.762,0,10.449,4.687,10.449,10.449h20.898c0-17.285-14.062-31.347-31.347-31.347c-8.023,0-15.349,3.032-20.898,8.008
				c-5.55-4.976-12.875-8.008-20.898-8.008c-17.285,0-31.347,14.062-31.347,31.347h20.898
				C78.367,75.219,83.055,70.531,88.816,70.531z"/>
		</g>
	</g>
</g>
<g>
</g>
<g>
</g>
<g>
</g>
<g>
</g>
<g>
</g>
<g>
</g>
<g>
</g>
<g>
</g>
<g>
</g>
<g>
</g>
<g>
</g>
<g>
</g>
<g>
</g>
<g>
</g>
<g>
</g>
</svg>
