<?xml version="1.0" encoding="iso-8859-1"?>
<!-- Generator: Adobe Illustrator 19.0.0, SVG Export Plug-In . SVG Version: 6.00 Build 0)  -->
<svg version="1.1" id="Capa_1" xmlns="http://www.w3.org/2000/svg" xmlns:xlink="http://www.w3.org/1999/xlink" x="0px" y="0px" fill="#707070"
	 viewBox="0 0 512 512" style="enable-background:new 0 0 512 512;" xml:space="preserve">
<g>
	<g>
		<path d="M503.6,79.707c-5.272-3.752-12.032-4.724-18.146-2.605L276,149.651V96c0-11.046-8.954-20-20-20h-98V20
			c0-11.046-8.954-20-20-20s-20,8.954-20,20v56H20C8.954,76,0,84.954,0,96v396c0,11.046,8.954,20,20,20c103.016,0,376.178,0,472,0
			c11.046,0,20-8.954,20-20V96C512,89.53,508.87,83.459,503.6,79.707z M118,256v216H40V116h196v120h-98
			C126.954,236,118,244.954,118,256z M276,472h-40v-65.999h40V472z M354,472h-38v-85.999c0-11.046-8.954-20-20-20h-80
			c-11.046,0-20,8.954-20,20V472h-38V276h196V472z M472,472h-78V256c0-11.046-8.954-20-20-20h-98v-44.018l196-67.889V472z"/>
	</g>
</g>
</svg>
