<?xml version="1.0" encoding="iso-8859-1"?>
<!-- Generator: Adobe Illustrator 19.0.0, SVG Export Plug-In . SVG Version: 6.00 Build 0)  -->
<svg version="1.1" id="Capa_1" xmlns="http://www.w3.org/2000/svg" xmlns:xlink="http://www.w3.org/1999/xlink" x="0px" y="0px" fill="#707070"
	 viewBox="0 0 512 512" style="enable-background:new 0 0 512 512;" xml:space="preserve">
<g>
	<g>
		<path d="M452,253h-1V113c0-33.084-26.916-60-60-60H120c-33.084,0-60,26.916-60,60v140c-33.084,0-60,26.916-60,60v110h40v36h40v-36
			h352v36h40v-36h40V313C512,279.916,485.084,253,452,253z M100,113c0-11.028,8.972-20,20-20h271c11.028,0,20,8.972,20,20v140h-38
			v-30c0-33.084-26.916-60-60-60H197c-33.084,0-60,26.916-60,60v30h-37V113z M333,223v30H177v-30c0-11.028,8.972-20,20-20h116
			C324.028,203,333,211.972,333,223z M472,383H40v-70c0-11.028,8.972-20,20-20h392c11.028,0,20,8.972,20,20V383z"/>
	</g>
</g>
<g>
</g>
<g>
</g>
<g>
</g>
<g>
</g>
<g>
</g>
<g>
</g>
<g>
</g>
<g>
</g>
<g>
</g>
<g>
</g>
<g>
</g>
<g>
</g>
<g>
</g>
<g>
</g>
<g>
</g>
</svg>
