<svg xmlns="http://www.w3.org/2000/svg" width="37" height="37" fill="none" viewBox="0 0 37 37"><path fill="#616161" d="M34.0371 14.5072V4.28571C34.0371 1.92257 32.092 0 29.7012 0H7.22656C4.83573 0 2.89062 1.92257 2.89062 4.28571V14.5314C1.20843 15.1212 0 16.7091 0 18.5714V26.4286H2.89062V29H5.78125V26.4286H31.2188V29H34.1094V26.4286H37V18.5714C37 16.6826 35.7568 15.0764 34.0371 14.5072ZM5.78125 4.28571C5.78125 3.498 6.42962 2.85714 7.22656 2.85714H29.7012C30.4981 2.85714 31.1465 3.498 31.1465 4.28571V14.2857H29.6289V12.8571C29.6289 10.494 27.6838 8.57143 25.293 8.57143H21.3906C20.281 8.57143 19.2677 8.98607 18.5 9.66621C17.7323 8.98607 16.719 8.57143 15.6094 8.57143H11.5625C9.17166 8.57143 7.22656 10.494 7.22656 12.8571V14.2857H5.78125V4.28571ZM26.7383 12.8571V14.2857H19.9453V12.8571C19.9453 12.0694 20.5937 11.4286 21.3906 11.4286H25.293C26.0899 11.4286 26.7383 12.0694 26.7383 12.8571ZM17.0547 12.8571V14.2857H10.1172V12.8571C10.1172 12.0694 10.7656 11.4286 11.5625 11.4286H15.6094C16.4063 11.4286 17.0547 12.0694 17.0547 12.8571ZM34.1094 23.5714H2.89062V18.5714C2.89062 17.7837 3.53899 17.1429 4.33594 17.1429H32.6641C33.461 17.1429 34.1094 17.7837 34.1094 18.5714V23.5714Z" transform="translate(0 4)"/><line x2="10" y1="-1.5" y2="-1.5" stroke="#616161" stroke-width="3" transform="translate(17 19) rotate(90)"/></svg>