<svg xmlns="http://www.w3.org/2000/svg" xmlns:xlink="http://www.w3.org/1999/xlink" id="Capa_1" x="0" y="0" fill="#616161" enable-background="new 0 0 507.456 507.456" version="1.1" viewBox="0 0 507.456 507.456" xml:space="preserve"><g><g><g><path d="M486.336,343.104c-31.105-18.396-65.817-29.857-101.76-33.6c28.934-30.525,49.588-67.938,60-108.688l5.408-24.496 l-24.496,5.408c-41.206,10.489-78.996,31.462-109.696,60.88l22.624,22.624c18.807-18.173,40.916-32.581,65.136-42.448 c-9.879,24.209-24.311,46.299-42.512,65.072c-22.482,21.492-49.418,37.776-78.896,47.696 c12.482-28.726,19.139-59.643,19.584-90.96c-0.901-42.508-12.791-84.058-34.512-120.608l-13.488-21.12l-13.488,21.12 c-21.721,36.55-33.611,78.1-34.512,120.608c0.441,31.35,7.103,62.301,19.6,91.056c-29.5-9.907-56.447-26.21-78.912-47.744 c-18.183-18.79-32.597-40.89-42.464-65.104c24.212,9.87,46.307,24.29,65.088,42.48l22.624-22.624 c-30.709-29.389-68.499-50.334-109.696-60.8l-24.496-5.408l5.408,24.496c10.412,40.75,31.066,78.163,60,108.688 c-35.943,3.743-70.655,15.204-101.76,33.6L0,356.592l21.12,13.488c36.55,21.721,78.1,33.611,120.608,34.512 c39.153-0.795,77.551-10.926,112-29.552c34.449,18.626,72.847,28.757,112,29.552c42.508-0.901,84.058-12.791,120.608-34.512 l21.12-13.488L486.336,343.104z M141.728,372.592c-26.121-0.445-51.917-5.875-76-16c24.083-10.125,49.879-15.555,76-16h20.128 c13.28,8.303,27.284,15.388,41.84,21.168C183.759,368.689,162.833,372.346,141.728,372.592z M253.728,320.592 c-10.126-24.083-15.557-49.879-16-76c0.445-26.121,5.875-51.917,16-76c10.125,24.083,15.555,49.879,16,76 C269.285,270.713,263.854,296.509,253.728,320.592z M365.728,372.592c-21.105-0.246-42.031-3.904-61.968-10.832 c14.556-5.78,28.56-12.865,41.84-21.168h20.128c26.121,0.443,51.917,5.874,76,16 C417.645,366.718,391.849,372.149,365.728,372.592z"/><rect width="32" height="32" x="125.728" y="132.592"/><rect width="32" height="32" x="349.728" y="132.592"/></g></g></g></svg>