<svg xmlns="http://www.w3.org/2000/svg" xmlns:xlink="http://www.w3.org/1999/xlink" fill="#616161" enable-background="new 0 0 390 390" version="1.1" viewBox="0 0 390 390"><path d="m320,176.352v-131.352h-85v30h55v43.543l-191,52.091v-45.634h26v-30h-80v30h24v51.531c-39.244,7.509-69,42.07-69,83.469 0,46.869 38.131,85 85,85s85-38.131 85-85c0-27.928-13.542-52.748-34.401-68.252l154.401-42.109v26.713c-39.736,7.108-70,41.899-70,83.648 0,46.869 38.131,85 85,85s85-38.131 85-85c0-41.749-30.264-76.539-70-83.648zm-235,138.648c-30.327,0-55-24.673-55-55 0-24.763 16.453-45.75 39-52.619v57.619h30v-58.189c23.567,6.209 41,27.698 41,53.189 0,30.327-24.673,55-55,55zm220,0c-30.327,0-55-24.673-55-55 0-25.127 16.943-46.356 40-52.904v57.904h30v-57.904c23.057,6.547 40,27.777 40,52.904 0,30.327-24.673,55-55,55z"/></svg>