<?xml version="1.0" encoding="iso-8859-1"?>
<!-- Generator: Adobe Illustrator 19.0.0, SVG Export Plug-In . SVG Version: 6.00 Build 0)  -->
<svg version="1.1" id="Capa_1" xmlns="http://www.w3.org/2000/svg" xmlns:xlink="http://www.w3.org/1999/xlink" x="0px" y="0px" fill="#616161"
	 viewBox="0 0 512 512" style="enable-background:new 0 0 512 512;" xml:space="preserve">
<g>
	<g>
		<path d="M284.186,0h-56.377c-9.532,0-17.258,7.726-17.258,17.258v215.155h34.517V34.517h21.861v197.897h34.517V17.258
			C301.444,7.726,293.718,0,284.186,0z"/>
	</g>
</g>
<g>
	<g>
		<path d="M415.908,490.249l-44.872-166.44c-1.271-62.349-52.391-112.68-115.039-112.68s-113.762,50.331-115.027,112.68
			l-44.878,166.44c-1.398,5.183-0.305,10.723,2.963,14.986c3.262,4.263,8.324,6.765,13.697,6.765h286.49
			c5.367,0,10.43-2.502,13.703-6.765C416.213,500.972,417.306,495.432,415.908,490.249z M135.28,477.483l39.579-146.806
			c0.397-1.467,0.598-2.974,0.598-4.493c0-44.412,36.128-80.539,80.539-80.539s80.539,36.128,80.539,80.539
			c0,1.519,0.207,3.032,0.598,4.493l39.579,146.806H135.28z"/>
	</g>
</g>
<g>
	<g>
		<path d="M255.997,382.562c-9.532,0-17.258,7.726-17.258,17.258v94.921c0,9.532,7.726,17.258,17.258,17.258
			c9.532,0,17.258-7.726,17.258-17.258V399.82C273.256,390.288,265.53,382.562,255.997,382.562z"/>
	</g>
</g>
<g>
	<g>
		<path d="M342.14,492.475l-12.656-95.497c-1.248-9.446-9.975-16.171-19.375-14.837c-9.446,1.254-16.091,9.924-14.836,19.375
			l12.656,95.497c1.145,8.675,8.566,14.986,17.086,14.986c0.754,0,1.519-0.046,2.29-0.15
			C336.749,510.596,343.394,501.927,342.14,492.475z"/>
	</g>
</g>
<g>
	<g>
		<path d="M201.886,382.142c-9.446-1.306-18.121,5.385-19.375,14.837l-12.656,95.497c-1.254,9.446,5.39,18.121,14.842,19.375
			c0.771,0.104,1.536,0.15,2.29,0.15c8.52,0,15.935-6.311,17.086-14.986l12.656-95.497
			C217.983,392.071,211.338,383.396,201.886,382.142z"/>
	</g>
</g>
<g>
	<g>
		<rect x="158.199" y="304.899" width="195.595" height="34.517"/>
	</g>
</g>
</svg>
