<?xml version="1.0" encoding="iso-8859-1"?>
<!-- Generator: Adobe Illustrator 19.0.0, SVG Export Plug-In . SVG Version: 6.00 Build 0)  -->
<svg version="1.1" id="Capa_1" xmlns="http://www.w3.org/2000/svg" xmlns:xlink="http://www.w3.org/1999/xlink" x="0px" y="0px"
	 viewBox="0 0 512 512" style="enable-background:new 0 0 512 512;" xml:space="preserve">
<g>
	<g>
		<path d="M452,190c-7.011,0-13.74,1.22-20,3.44V80c0-33.084-26.916-60-60-60H140c-33.084,0-60,26.916-60,60v113.44
			c-6.26-2.22-12.989-3.44-20-3.44H0v302h512V190H452z M80,452H40V230h20c11.028,0,20,8.972,20,20V452z M392,452H120V328.866
			C144.213,323.596,203.461,312,256,312s111.787,11.596,136,16.866V452z M392,287.944C362.721,281.864,307.317,272,256,272
			c-51.317,0-106.721,9.864-136,15.944V80c0-11.028,8.972-20,20-20h232c11.028,0,20,8.972,20,20V287.944z M472,452h-40V250
			c0-11.028,8.972-20,20-20h20V452z"/>
	</g>
</g>
<g>
</g>
<g>
</g>
<g>
</g>
<g>
</g>
<g>
</g>
<g>
</g>
<g>
</g>
<g>
</g>
<g>
</g>
<g>
</g>
<g>
</g>
<g>
</g>
<g>
</g>
<g>
</g>
<g>
</g>
</svg>
