<?xml version="1.0" encoding="iso-8859-1"?>
<!-- Generator: Adobe Illustrator 19.0.0, SVG Export Plug-In . SVG Version: 6.00 Build 0)  -->
<svg version="1.1" id="Layer_1" xmlns="http://www.w3.org/2000/svg" xmlns:xlink="http://www.w3.org/1999/xlink" x="0px" y="0px"
	 viewBox="0 0 512 512" style="enable-background:new 0 0 512 512;" xml:space="preserve">
<g transform="translate(1 1)">
	<g>
		<path d="M476.867,75.8c-15.83,0-29.232,10.921-33.046,25.6h-18.154V84.333c0-19.627-14.507-34.133-34.133-34.133H118.467
			c-18.773,0-34.133,12.8-34.133,29.013V101.4H66.179c-3.814-14.679-17.216-25.6-33.046-25.6C14.36,75.8-1,91.16-1,109.933
			c0,18.773,15.36,34.133,34.133,34.133c15.829,0,29.232-10.921,33.046-25.6h18.154V383v51.2c0,14.507,11.093,25.6,25.6,25.6
			h238.933c14.507,0,25.6-11.093,25.6-25.6v-8.533h25.6c14.507,0,25.6-11.093,25.6-25.6v-281.6h18.154
			c3.814,14.679,17.216,25.6,33.046,25.6c18.773,0,34.133-15.36,34.133-34.133C511,91.16,495.64,75.8,476.867,75.8z M33.133,127
			c-9.387,0-17.067-7.68-17.067-17.067c0-9.387,7.68-17.067,17.067-17.067c9.387,0,17.067,7.68,17.067,17.067
			C50.2,119.32,42.52,127,33.133,127z M408.6,84.333V101.4h-34.133V84.333c0-6.827,7.68-17.067,17.067-17.067
			C401.773,67.267,408.6,74.093,408.6,84.333z M101.4,79.213c0-6.827,7.68-11.947,17.067-11.947H362.52
			c-3.1,4.651-4.777,10.006-5.061,15.425c-0.036,0.55-0.059,1.098-0.059,1.641v290.133h-256V79.213z M357.4,434.2
			c0,5.12-3.413,8.533-8.533,8.533H109.933c-5.12,0-8.533-3.413-8.533-8.533v-42.667h256v25.6V434.2z M408.6,400.067
			c0,5.12-3.413,8.533-8.533,8.533h-25.6V383V118.467H408.6V400.067z M476.867,127c-9.387,0-17.067-7.68-17.067-17.067
			c0-9.387,7.68-17.067,17.067-17.067s17.067,7.68,17.067,17.067C493.933,119.32,486.253,127,476.867,127z"/>
	</g>
</g>
<g>
</g>
<g>
</g>
<g>
</g>
<g>
</g>
<g>
</g>
<g>
</g>
<g>
</g>
<g>
</g>
<g>
</g>
<g>
</g>
<g>
</g>
<g>
</g>
<g>
</g>
<g>
</g>
<g>
</g>
</svg>
