<svg xmlns="http://www.w3.org/2000/svg" xmlns:xlink="http://www.w3.org/1999/xlink" id="Capa_1" x="0" y="0" fill="#616161" enable-background="new 0 0 227.52 227.52" version="1.1" viewBox="0 0 227.52 227.52" xml:space="preserve"><path d="M84,4.725H0v218.07h84v-9.035h143.52v-200H84V4.725z M64,202.795H20V24.725h44V202.795z M86.494,33.76H207.52v160H86.494	V33.76z M190.007,78.094h-90v-20h90V78.094z M100.007,99.76h20v15.25h-20V99.76z M136.007,99.76h20v15.25h-20V99.76z M172.007,99.76	h20v15.25h-20V99.76z M100.007,123.76h20v15.25h-20V123.76z M136.007,123.76h20v15.25h-20V123.76z M172.007,123.76h20v15.25h-20	V123.76z M100.007,147.76h20v15.25h-20V147.76z M136.007,147.76h20v15.25h-20V147.76z M172.007,147.76h20v15.25h-20V147.76z"/></svg>