<?xml version="1.0" encoding="iso-8859-1"?>
<!-- Generator: Adobe Illustrator 19.0.0, SVG Export Plug-In . SVG Version: 6.00 Build 0)  -->
<svg version="1.1" id="Layer_1" xmlns="http://www.w3.org/2000/svg" xmlns:xlink="http://www.w3.org/1999/xlink" x="0px" y="0px" fill="#616161"
	 viewBox="0 0 512 512" style="enable-background:new 0 0 512 512;" xml:space="preserve">
<g>
	<g>
		<g>
			<path d="M106.667,149.312h170.667c11.782,0,21.333-9.551,21.333-21.333c0-11.782-9.551-21.333-21.333-21.333H106.667
				c-11.782,0-21.333,9.551-21.333,21.333C85.333,139.761,94.885,149.312,106.667,149.312z"/>
			<path d="M106.667,234.645h106.667c11.782,0,21.333-9.551,21.333-21.333c0-11.782-9.551-21.333-21.333-21.333H106.667
				c-11.782,0-21.333,9.551-21.333,21.333C85.333,225.094,94.885,234.645,106.667,234.645z"/>
			<path d="M106.667,319.979h64c11.782,0,21.333-9.551,21.333-21.333c0-11.782-9.551-21.333-21.333-21.333h-64
				c-11.782,0-21.333,9.551-21.333,21.333C85.333,310.427,94.885,319.979,106.667,319.979z"/>
			<path d="M490.667,21.312H21.333C9.551,21.312,0,30.863,0,42.645v341.333c0,11.782,9.551,21.333,21.333,21.333h256v64
				c0,19.006,22.979,28.524,36.418,15.085l48.915-48.915l48.915,48.915C425.021,497.836,448,488.318,448,469.312v-64h42.667
				c11.782,0,21.333-9.551,21.333-21.333V42.645C512,30.863,502.449,21.312,490.667,21.312z M405.333,417.809l-27.582-27.582
				c-8.331-8.331-21.839-8.331-30.17,0L320,417.809v-33.83v-54.081c0.531,0.307,1.071,0.601,1.609,0.897
				c0.177,0.098,0.352,0.199,0.53,0.296c1.06,0.573,2.135,1.121,3.222,1.65c0.257,0.125,0.515,0.246,0.773,0.368
				c0.975,0.463,1.958,0.909,2.953,1.335c0.164,0.07,0.325,0.144,0.489,0.214c1.12,0.472,2.255,0.916,3.399,1.34
				c0.275,0.102,0.551,0.2,0.828,0.3c1.044,0.375,2.097,0.734,3.159,1.069c0.144,0.045,0.285,0.095,0.429,0.14
				c1.175,0.364,2.362,0.697,3.558,1.01c0.291,0.076,0.584,0.149,0.876,0.223c1.121,0.281,2.248,0.545,3.386,0.781
				c0.109,0.023,0.217,0.049,0.327,0.072c1.225,0.25,2.461,0.465,3.705,0.661c0.305,0.048,0.61,0.094,0.916,0.138
				c1.204,0.177,2.413,0.336,3.633,0.462c0.062,0.006,0.123,0.015,0.185,0.022c1.269,0.128,2.549,0.219,3.834,0.292
				c0.316,0.018,0.632,0.033,0.949,0.048c1.296,0.058,2.596,0.099,3.907,0.099s2.611-0.04,3.907-0.099
				c0.317-0.014,0.633-0.03,0.949-0.048c1.285-0.072,2.565-0.163,3.834-0.292c0.062-0.006,0.123-0.015,0.185-0.022
				c1.22-0.126,2.429-0.285,3.633-0.462c0.306-0.045,0.611-0.09,0.916-0.138c1.243-0.196,2.48-0.412,3.705-0.661
				c0.11-0.022,0.217-0.049,0.327-0.072c1.138-0.236,2.265-0.5,3.385-0.781c0.293-0.073,0.585-0.147,0.877-0.223
				c1.196-0.314,2.384-0.647,3.558-1.01c0.143-0.044,0.284-0.094,0.427-0.139c1.063-0.335,2.116-0.694,3.161-1.069
				c0.276-0.099,0.553-0.198,0.828-0.3c1.144-0.425,2.279-0.868,3.399-1.34c0.164-0.069,0.325-0.143,0.489-0.214
				c0.995-0.426,1.978-0.872,2.953-1.335c0.258-0.123,0.517-0.243,0.774-0.369c1.086-0.529,2.161-1.077,3.221-1.65
				c0.178-0.096,0.353-0.198,0.53-0.296c0.538-0.296,1.078-0.59,1.609-0.897v54.081V417.809z M320,255.979
				c0-23.567,19.099-42.667,42.667-42.667s42.667,19.099,42.667,42.667s-19.099,42.667-42.667,42.667S320,279.546,320,255.979z
				 M469.333,362.645H448V255.979c0-0.461-0.012-0.914-0.034-1.36c-0.73-46.501-38.624-83.973-85.299-83.973
				s-84.569,37.472-85.299,83.973c-0.022,0.446-0.034,0.899-0.034,1.36v106.667H42.667V63.979h426.667V362.645z"/>
		</g>
	</g>
</g>
</svg>
