<?xml version="1.0" encoding="iso-8859-1"?>
<!-- Generator: Adobe Illustrator 19.0.0, SVG Export Plug-In . SVG Version: 6.00 Build 0)  -->
<svg version="1.1" id="Capa_1" xmlns="http://www.w3.org/2000/svg" xmlns:xlink="http://www.w3.org/1999/xlink" x="0px" y="0px" fill="#707070"
	 viewBox="0 0 512 512" style="enable-background:new 0 0 512 512;" xml:space="preserve">
<g>
	<g>
		<g>
			<path d="M420.498,65.192c-48.503-8.692-93.169-35.18-115.477-50.195C290.446,5.186,273.495,0,255.999,0
				c-17.496,0-34.447,5.186-49.021,14.997C184.67,30.012,140.004,56.501,91.502,65.193C62.776,70.34,41.926,95.195,41.926,124.29
				v120.709c0,39.877,11.156,78.75,33.159,115.539c17.213,28.781,41.064,56.288,70.888,81.757
				c50.147,42.825,99.803,65.157,101.892,66.086l8.134,3.619l8.136-3.619c2.089-0.929,51.745-23.261,101.892-66.086
				c29.823-25.469,53.674-52.976,70.888-81.757c22.003-36.79,33.159-75.662,33.159-115.539v-120.71
				C470.074,95.194,449.224,70.339,420.498,65.192z M430.058,244.998c0,59.45-30.033,115.375-89.267,166.224
				c-34.432,29.558-69.39,48.824-84.791,56.643c-35.401-17.987-174.061-96.536-174.061-222.866v-120.71
				c0-9.695,6.99-17.985,16.621-19.711c55.718-9.985,105.843-39.615,130.761-56.387c7.947-5.349,17.173-8.177,26.678-8.177
				c9.505,0,18.73,2.828,26.677,8.178c24.919,16.772,75.043,46.402,130.761,56.388c9.63,1.726,16.621,10.015,16.621,19.711V244.998z
				"/>
			<polygon points="225.014,294.431 156.634,230.413 129.286,259.623 227.593,351.659 383.969,176.305 354.105,149.673 			"/>
		</g>
	</g>
</g>
<g>
</g>
<g>
</g>
<g>
</g>
<g>
</g>
<g>
</g>
<g>
</g>
<g>
</g>
<g>
</g>
<g>
</g>
<g>
</g>
<g>
</g>
<g>
</g>
<g>
</g>
<g>
</g>
<g>
</g>
</svg>
