<?xml version="1.0" encoding="iso-8859-1"?>
<!-- Generator: Adobe Illustrator 19.0.0, SVG Export Plug-In . SVG Version: 6.00 Build 0)  -->
<svg version="1.1" id="Capa_1" xmlns="http://www.w3.org/2000/svg" xmlns:xlink="http://www.w3.org/1999/xlink" x="0px" y="0px" fill="#707070"
	 viewBox="0 0 512.234 512.234" style="enable-background:new 0 0 512.234 512.234;" xml:space="preserve">
<g>
	<g>
		<path d="M448.252,192.078H327.778L212.543,19.195C204.63,7.323,191.307,0.193,177.04,0.193h-18.97
			c-4.496,0-8.963,0.711-13.237,2.105c-22.401,7.311-34.635,31.397-27.324,53.799l44.378,135.981H98.159L85.26,170.299
			c-7.682-12.97-21.637-20.924-36.711-20.924h-7.297c-22.511,0-40.78,18.212-40.849,40.723L0,321.718
			c0,22.638,18.352,40.991,40.991,40.991h7.564c15.068,0,29.019-7.948,36.703-20.91l12.897-21.756h40.747v-0.271h70.141
			l15.063-42.396H73.846l-25.292,42.667h-5.883l0.393-128h5.484l25.292,42.703h146.851L158.07,42.859h18.97l127.901,191.885h143.311
			c11.772,0,21.315,9.543,21.315,21.315c0,11.772-9.543,21.315-21.315,21.315H304.528l-123.634,192h-25.008l37.995-106.938h-45.28
			l-32.92,92.653c-1.63,4.586-2.462,9.418-2.462,14.285c0,23.564,19.103,42.667,42.667,42.667h25.008
			c14.507,0,28.019-7.371,35.873-19.567l111.034-172.433h120.451c35.336,0,63.982-28.646,63.982-63.982
			C512.234,220.724,483.588,192.078,448.252,192.078z"/>
	</g>
</g>
</svg>
