<svg xmlns="http://www.w3.org/2000/svg" viewBox="0 0 22 22"><path d="M20.62 22h-5.5-8.25-5.5C.62 22 0 21.38 0 20.62V5.5c0-.76.62-1.38 1.37-1.38h1.38v-.68c0-.38.31-.69.69-.69.38 0 .68.31.68.69v.68H5.5V1.37C5.5.62 6.12 0 6.87 0h8.25c.76 0 1.38.62 1.38 1.37v6.88h1.37v-.69c0-.38.31-.69.69-.69.38 0 .69.31.69.69v.69h1.37c.76 0 1.38.62 1.38 1.38v10.99c0 .76-.62 1.38-1.38 1.38zM5.5 5.5H1.37v15.12H5.5V5.5zm9.62 4.13V8.25 1.37H6.87v19.25h8.25V9.63zm5.5 0H16.5v10.99h4.12V9.63zm-1.37 2.74h-1.38V11h1.38v1.37zm0 2.75h-1.38v-1.37h1.38v1.37zM11 5.5H9.62V4.12H11V5.5zm0 2.75H9.62V6.87H11v1.38zM11 11H9.62V9.63H11V11zM4.12 8.25H2.75V6.87h1.37v1.38zm0 2.75H2.75V9.63h1.37V11z" fill="#707070"/></svg>