<?xml version="1.0" encoding="iso-8859-1"?>
<!-- Generator: Adobe Illustrator 19.0.0, SVG Export Plug-In . SVG Version: 6.00 Build 0)  -->
<svg version="1.1" id="Layer_1" xmlns="http://www.w3.org/2000/svg" xmlns:xlink="http://www.w3.org/1999/xlink" x="0px" y="0px" fill="#616161"
	 viewBox="0 0 491.52 491.52" style="enable-background:new 0 0 491.52 491.52;" xml:space="preserve">
<g>
	<g>
		<g>
			<rect x="245.76" y="122.88" width="40.96" height="40.96"/>
			<rect x="307.2" y="122.88" width="40.96" height="40.96"/>
			<rect x="368.64" y="122.88" width="40.96" height="40.96"/>
			<rect x="245.76" y="184.32" width="40.96" height="40.96"/>
			<rect x="307.2" y="184.32" width="40.96" height="40.96"/>
			<rect x="368.64" y="184.32" width="40.96" height="40.96"/>
			<rect x="245.76" y="245.76" width="40.96" height="40.96"/>
			<rect x="307.2" y="245.76" width="40.96" height="40.96"/>
			<rect x="368.64" y="245.76" width="40.96" height="40.96"/>
			<path d="M471.04,20.48H20.48C9.169,20.48,0,29.649,0,40.96v327.68c0,11.311,9.169,20.48,20.48,20.48h20.48v61.44
				c0,11.311,9.169,20.48,20.48,20.48h122.88c11.311,0,20.48-9.169,20.48-20.48v-61.44h81.92v61.44
				c0,11.311,9.169,20.48,20.48,20.48h122.88c11.311,0,20.48-9.169,20.48-20.48v-61.44h20.48c11.311,0,20.48-9.169,20.48-20.48
				V40.96C491.52,29.649,482.351,20.48,471.04,20.48z M163.84,430.08H81.92v-40.96h81.92V430.08z M409.6,430.08h-81.92v-40.96h81.92
				V430.08z M450.56,348.16h-20.48H307.2H184.32H61.44H40.96V61.44h409.6V348.16z"/>
			<path d="M143.36,286.72c45.246,0,81.92-36.674,81.92-81.92s-36.674-81.92-81.92-81.92s-81.92,36.674-81.92,81.92
				S98.114,286.72,143.36,286.72z M143.36,163.84c22.625,0,40.96,18.335,40.96,40.96s-18.335,40.96-40.96,40.96
				s-40.96-18.335-40.96-40.96S120.735,163.84,143.36,163.84z"/>
		</g>
	</g>
</g>
</svg>
