<?xml version="1.0" encoding="iso-8859-1"?>
<!-- Generator: Adobe Illustrator 19.0.0, SVG Export Plug-In . SVG Version: 6.00 Build 0)  -->
<svg version="1.1" id="Layer_1" xmlns="http://www.w3.org/2000/svg" xmlns:xlink="http://www.w3.org/1999/xlink" x="0px" y="0px"
	 viewBox="0 0 512 512" style="enable-background:new 0 0 512 512;" xml:space="preserve">
<g>
	<g>
		<path d="M191.787,168.524c-13.808,0-25.047,11.235-25.052,25.05c0,6.692,2.607,12.982,7.337,17.714
			c4.732,4.731,11.021,7.336,17.713,7.336c0.001,0,0.004,0,0.005,0c13.812-0.001,25.047-11.239,25.047-25.05
			C216.837,179.762,205.6,168.524,191.787,168.524z"/>
	</g>
</g>
<g>
	<g>
		<path d="M329.564,168.524c-13.808,0-25.047,11.235-25.05,25.05c0,13.813,11.236,25.05,25.048,25.05h0.003
			c13.813,0,25.05-11.238,25.05-25.05C354.615,179.762,343.377,168.524,329.564,168.524z"/>
	</g>
</g>
<g>
	<g>
		<path d="M285.415,368.389c-3.027-1.078-5.193-3.282-5.952-4.443V289.48c9.252-8.327,17.304-21.175,21.293-33.281
			c3.04-10.208-4.818-18.654-17.535-18.788c-15.03,0-30.06,0-45.091,0c-12.717,0.134-20.575,8.581-17.535,18.788
			c3.989,12.106,12.04,24.953,21.293,33.281v74.466c-0.759,1.161-2.925,3.364-5.952,4.443l-43.613,13.957l11.453,35.787
			l43.838-14.028l0.361-0.119c4.594-1.573,8.872-3.788,12.701-6.477c3.829,2.689,8.106,4.904,12.701,6.477l44.199,14.147
			l11.453-35.787L285.415,368.389z"/>
	</g>
</g>
<g>
	<g>
		<rect x="323.3" y="256.203" width="100.202" height="37.576"/>
	</g>
</g>
<g>
	<g>
		
			<rect x="342.072" y="297.997" transform="matrix(0.3162 -0.9487 0.9487 0.3162 -73.5293 573.2027)" width="37.576" height="79.222"/>
	</g>
</g>
<g>
	<g>
		<rect x="97.847" y="256.203" width="100.202" height="37.576"/>
	</g>
</g>
<g>
	<g>
		
			<rect x="120.866" y="318.84" transform="matrix(0.9487 -0.3162 0.3162 0.9487 -98.5236 68.0652)" width="79.222" height="37.576"/>
	</g>
</g>
<g>
	<g>
		<path d="M490.571,111.981c24.037-57.39,27.467-85.229,12.23-99.292c-15.236-14.067-42.716-8.426-97.998,20.119
			c-20.833,10.755-40.514,22.221-52.469,29.383c-28.127-12.162-59.116-18.918-91.657-18.918c-35.825,0-69.774,8.175-100.085,22.752
			c-12.231-6.678-32.355-17.347-53.603-27.264C50.603,12.448,22.922,7.91,8.259,22.573C-6.403,37.238-1.864,64.917,24.447,121.299
			c9.916,21.248,20.585,41.373,27.264,53.603c-14.577,30.312-22.752,64.262-22.752,100.085
			c0,127.768,103.948,231.716,231.716,231.716s231.716-103.948,231.716-231.716c0-39.11-9.753-75.98-26.934-108.328
			C471.64,154.175,481.505,133.624,490.571,111.981z M414.669,70.055c32.463-17.243,50.135-23.612,59.12-25.942
			c-1.602,9.127-6.524,27.202-21.06,60.824c-3.838,8.877-7.754,17.465-11.369,25.163c-14.459-17.996-31.537-33.799-50.663-46.813
			C398.021,79.106,406.193,74.558,414.669,70.055z M38.501,52.815c9.056,1.965,26.92,7.605,59.933,23.473
			c8.711,4.187,17.131,8.441,24.675,12.357c-18.574,13.749-35.028,30.202-48.777,48.777c-3.887-7.488-8.108-15.841-12.271-24.497
			C46.129,79.799,40.47,61.887,38.501,52.815z M260.676,469.129c-107.049,0-194.141-87.091-194.141-194.141
			S153.627,80.848,260.676,80.848s194.141,87.091,194.141,194.141S367.725,469.129,260.676,469.129z"/>
	</g>
</g>
<g>
</g>
<g>
</g>
<g>
</g>
<g>
</g>
<g>
</g>
<g>
</g>
<g>
</g>
<g>
</g>
<g>
</g>
<g>
</g>
<g>
</g>
<g>
</g>
<g>
</g>
<g>
</g>
<g>
</g>
</svg>
