<?xml version="1.0" encoding="iso-8859-1"?>
<!-- Generator: Adobe Illustrator 19.0.0, SVG Export Plug-In . SVG Version: 6.00 Build 0)  -->
<svg version="1.1" id="Layer_1" xmlns="http://www.w3.org/2000/svg" xmlns:xlink="http://www.w3.org/1999/xlink" x="0px" y="0px" fill="#616161"
	 viewBox="0 0 512 512" style="enable-background:new 0 0 512 512;" xml:space="preserve">
<g>
	<g>
		<path d="M455.111,0H56.889C45.107,0,35.556,9.552,35.556,21.333v469.333c0,11.782,9.552,21.333,21.333,21.333h398.222
			c11.782,0,21.333-9.552,21.333-21.333V21.333C476.444,9.552,466.893,0,455.111,0z M433.778,469.333H78.222V42.667h355.556V469.333
			z"/>
	</g>
</g>
<g>
	<g>
		<circle cx="194.788" cy="130.034" r="52.075"/>
	</g>
</g>
<g>
	<g>
		<path d="M194.78,182.107c-44.736,0-81.003,36.264-81.003,81.004h162.005C275.783,218.371,239.516,182.107,194.78,182.107z"/>
	</g>
</g>
<g>
	<g>
		<path d="M369.778,99.556h-37.589c-11.782,0-21.333,9.552-21.333,21.333c0,11.782,9.552,21.333,21.333,21.333h37.589
			c11.782,0,21.333-9.552,21.333-21.333C391.111,109.107,381.559,99.556,369.778,99.556z"/>
	</g>
</g>
<g>
	<g>
		<path d="M369.778,199.111h-37.589c-11.782,0-21.333,9.552-21.333,21.333s9.552,21.333,21.333,21.333h37.589
			c11.782,0,21.333-9.552,21.333-21.333S381.559,199.111,369.778,199.111z"/>
	</g>
</g>
<g>
	<g>
		<path d="M369.778,298.667H142.222c-11.782,0-21.333,9.552-21.333,21.333s9.552,21.333,21.333,21.333h227.556
			c11.782,0,21.333-9.552,21.333-21.333S381.559,298.667,369.778,298.667z"/>
	</g>
</g>
<g>
	<g>
		<path d="M369.778,384H142.222c-11.782,0-21.333,9.552-21.333,21.333c0,11.782,9.552,21.333,21.333,21.333h227.556
			c11.782,0,21.333-9.552,21.333-21.333C391.111,393.552,381.559,384,369.778,384z"/>
	</g>
</g>
</svg>
