<svg xmlns="http://www.w3.org/2000/svg" xmlns:xlink="http://www.w3.org/1999/xlink" id="Layer_1" x="0" y="0" fill="#616161" enable-background="new 0 0 491.52 491.52" version="1.1" viewBox="0 0 491.52 491.52" xml:space="preserve"><g><g><g><path d="M471.04,40.96H20.48C9.169,40.96,0,50.129,0,61.44v81.92v81.92v204.8c0,11.311,9.169,20.48,20.48,20.48h450.56 c11.311,0,20.48-9.169,20.48-20.48v-204.8v-81.92V61.44C491.52,50.129,482.351,40.96,471.04,40.96z M450.56,81.92v40.96H40.96 V81.92H450.56z M450.56,204.8H40.96v-40.96h409.6V204.8z M40.96,409.6V245.76h409.6V409.6H40.96z"/><path d="M184.32,307.2H102.4c-27.307,0-27.307,40.96,0,40.96h81.92C211.627,348.16,211.627,307.2,184.32,307.2z"/><rect width="122.88" height="81.92" x="286.72" y="286.72"/></g></g></g></svg>