<?xml version="1.0" encoding="iso-8859-1"?>
<!-- Generator: Adobe Illustrator 19.0.0, SVG Export Plug-In . SVG Version: 6.00 Build 0)  -->
<svg version="1.1" id="Capa_1" xmlns="http://www.w3.org/2000/svg" xmlns:xlink="http://www.w3.org/1999/xlink" x="0px" y="0px" fill="#707070"
	 viewBox="0 0 512 512" style="enable-background:new 0 0 512 512;" xml:space="preserve">
<g>
	<g>
		<g>
			<path d="M452,0H60C26.916,0,0,26.916,0,60v352c0,33.084,26.916,60,60,60h20v40h40v-40h272v40h40v-40h20c33.084,0,60-26.916,60-60
				V60C512,26.916,485.084,0,452,0z M472,412c0,11.028-8.972,20-20,20H60c-11.028,0-20-8.972-20-20v-20h40v-40H40V120h40V80H40V60
				c0-11.028,8.972-20,20-20h392c11.028,0,20,8.972,20,20V412z"/>
			<path d="M368.673,228.18c0.213,2.586,0.327,5.194,0.327,7.82c0,51.28-41.72,93-93,93c-51.28,0-93-41.72-93-93
				c0-51.28,41.72-93,93-93c17.693,0,34.676,4.93,49.332,14.13l-23.767,24.603C293.804,178.063,285.14,176,276,176
				c-33.084,0-60,26.916-60,60s26.916,60,60,60s60-26.916,60-60c0-9.361-2.158-18.227-5.998-26.131l53.192-55.066l-14.211-13.898
				C343.989,116.462,310.967,103,276,103c-73.337,0-133,59.664-133,133c0,73.337,59.663,133,133,133s133-59.663,133-133
				c0-14.352-2.255-28.334-6.585-41.561L368.673,228.18z M276,256c-11.028,0-20-8.972-20-20s8.972-20,20-20s20,8.972,20,20
				S287.028,256,276,256z"/>
		</g>
	</g>
</g>
</svg>
