<?xml version="1.0" encoding="iso-8859-1"?>
<!-- Generator: Adobe Illustrator 19.0.0, SVG Export Plug-In . SVG Version: 6.00 Build 0)  -->
<svg version="1.1" id="Capa_1" xmlns="http://www.w3.org/2000/svg" xmlns:xlink="http://www.w3.org/1999/xlink" x="0px" y="0px"
	 viewBox="0 0 512 512" style="enable-background:new 0 0 512 512;" xml:space="preserve">
<g>
	<g>
		<path d="M496,128h-64V64c0-8.832-7.168-16-16-16H96c-8.832,0-16,7.168-16,16v64H16c-8.832,0-16,7.168-16,16v256v64h32v-48h448v48
			h32v-64V144C512,135.168,504.832,128,496,128z M112,80h128v160h32V80h128v48c-8.832,0-16,7.168-16,16v144H128V144
			c0-8.832-7.168-16-16-16V80z M480,384H32V160h64v128H64v32h48h288h48v-32h-32V160h64V384z"/>
	</g>
</g>
<g>
</g>
<g>
</g>
<g>
</g>
<g>
</g>
<g>
</g>
<g>
</g>
<g>
</g>
<g>
</g>
<g>
</g>
<g>
</g>
<g>
</g>
<g>
</g>
<g>
</g>
<g>
</g>
<g>
</g>
</svg>
