<?xml version="1.0" encoding="iso-8859-1"?>
<!-- Generator: Adobe Illustrator 19.0.0, SVG Export Plug-In . SVG Version: 6.00 Build 0)  -->
<svg version="1.1" id="Capa_1" xmlns="http://www.w3.org/2000/svg" xmlns:xlink="http://www.w3.org/1999/xlink" x="0px" y="0px"
	 viewBox="0 0 512 512" style="enable-background:new 0 0 512 512;" xml:space="preserve">
<g>
	<g>
		<path d="M480,32H32C14.352,32,0,46.352,0,64v176v64c0,8.832,7.168,16,16,16h480c8.832,0,16-7.168,16-16v-64V64
			C512,46.352,497.648,32,480,32z M480,288H32v-32h448V288z M480,224H32V64h448V224z"/>
	</g>
</g>
<g>
	<g>
		<rect x="80" y="160" width="352" height="32"/>
	</g>
</g>
<g>
	<g>
		<rect x="240" y="96" width="32" height="32"/>
	</g>
</g>
<g>
	<g>
		<rect x="304" y="96" width="32" height="32"/>
	</g>
</g>
<g>
	<g>
		<rect x="176" y="96" width="32" height="32"/>
	</g>
</g>
<g>
	<g>
		<rect x="240" y="352" width="32" height="128"/>
	</g>
</g>
<g>
	<g>
		<rect x="400" y="352" width="32" height="128"/>
	</g>
</g>
<g>
	<g>
		<rect x="80" y="352" width="32" height="128"/>
	</g>
</g>
<g>
	<g>
		<rect x="160" y="352" width="32" height="64"/>
	</g>
</g>
<g>
	<g>
		<rect x="320" y="352" width="32" height="64"/>
	</g>
</g>
<g>
</g>
<g>
</g>
<g>
</g>
<g>
</g>
<g>
</g>
<g>
</g>
<g>
</g>
<g>
</g>
<g>
</g>
<g>
</g>
<g>
</g>
<g>
</g>
<g>
</g>
<g>
</g>
<g>
</g>
</svg>
