<?xml version="1.0" encoding="iso-8859-1"?>
<!-- Generator: Adobe Illustrator 18.0.0, SVG Export Plug-In . SVG Version: 6.00 Build 0)  -->
<!DOCTYPE svg PUBLIC "-//W3C//DTD SVG 1.1//EN" "http://www.w3.org/Graphics/SVG/1.1/DTD/svg11.dtd">
<svg version="1.1" id="Capa_1" xmlns="http://www.w3.org/2000/svg" xmlns:xlink="http://www.w3.org/1999/xlink" x="0px" y="0px" fill="#707070"
	 viewBox="0 0 297 297" style="enable-background:new 0 0 297 297;" xml:space="preserve">
<path d="M19.79,220.852c-6.172-3.641-14.35-1.72-17.989,4.451c-3.64,6.17-1.589,14.122,4.58,17.762
	c31.914,18.829,83.715,29.628,142.118,29.628c58.402,0,110.203-10.799,142.118-29.627c6.17-3.64,8.221-11.593,4.581-17.763
	c-3.639-6.169-12.816-7.525-18.987-3.883V37.279c0-7.164-5.807-12.971-12.971-12.971c-7.164,0-12.971,5.807-12.971,12.971v17.959
	H45.732V37.279c0-7.164-5.807-12.971-12.971-12.971S19.79,30.115,19.79,37.279V220.852z M250.27,186.941h-31.928V81.18h31.928
	V186.941z M160.473,186.941V81.18h31.928v105.761H160.473z M103.601,186.941V81.18h30.93v105.761H103.601z M77.66,81.18v105.761
	H45.732V81.18H77.66z M45.732,232.282v-19.399H250.27v19.735c-27.371,9.019-63.278,14.133-101.77,14.133
	C109.535,246.751,73.225,241.508,45.732,232.282z"/>
</svg>
