<?xml version="1.0" encoding="iso-8859-1"?>
<!-- Generator: Adobe Illustrator 19.0.0, SVG Export Plug-In . SVG Version: 6.00 Build 0)  -->
<svg version="1.1" id="Capa_1" xmlns="http://www.w3.org/2000/svg" xmlns:xlink="http://www.w3.org/1999/xlink" x="0px" y="0px" fill="#616161"
	 viewBox="0 0 512 512" style="enable-background:new 0 0 512 512;" xml:space="preserve">
<g>
	<g>
		<g>
			<path d="M252.056,200c31.43,0,57,25.57,57,57h40c0-35.662-19.347-66.885-48.093-83.738c6.37-9.526,10.093-20.966,10.093-33.262
				c0-33.084-26.916-60-60-60c-33.084,0-60,26.916-60,60c0,12.662,3.953,24.412,10.674,34.104
				c-27.963,17.039-46.674,47.823-46.674,82.896h40C195.056,225.57,220.626,200,252.056,200z M251.056,120c11.028,0,20,8.972,20,20
				s-8.972,20-20,20c-11.028,0-20-8.972-20-20S240.026,120,251.056,120z"/>
			<rect x="133.056" y="297" width="246" height="40"/>
			<path d="M398.944,0H113.056c-33.084,0-60,26.916-60,60v392c0,33.084,26.916,60,60,60h285.889c33.084,0,60-26.916,60-60V60
				C458.944,26.916,432.028,0,398.944,0z M418.945,452L418.945,452c-0.001,11.028-8.973,20-20.001,20H113.056
				c-11.028,0-20-8.972-20-20V60c0-11.028,8.972-20,20-20h285.889c11.028,0,20,8.972,20,20V452z"/>
			<rect x="133.056" y="377" width="206" height="40"/>
		</g>
	</g>
</g>
</svg>
