<?xml version="1.0" encoding="iso-8859-1"?>
<!-- Generator: Adobe Illustrator 19.0.0, SVG Export Plug-In . SVG Version: 6.00 Build 0)  -->
<svg version="1.1" id="Capa_1" xmlns="http://www.w3.org/2000/svg" xmlns:xlink="http://www.w3.org/1999/xlink" x="0px" y="0px" fill="#707070"
	 viewBox="0 0 512.001 512.001" style="enable-background:new 0 0 512.001 512.001;" xml:space="preserve">
<g>
	<g>
		<path d="M469.224,181.262l-200-176.266c-7.558-6.661-18.89-6.661-26.447,0l-200,176.266C38.468,185.059,36,190.525,36,196.267
			v295.734c0,11.046,8.954,20,20,20c13.683,0,380.118,0,400,0c11.046,0,20-8.954,20-20V196.267
			C476,190.525,473.532,185.059,469.224,181.262z M311,472.001H201V335.736h110V472.001z M436,472.001h-85V315.736
			c0-11.046-8.954-20-20-20H181c-11.046,0-20,8.954-20,20v156.265H76V205.299L256,46.66l180,158.639V472.001z"/>
	</g>
</g>
</svg>
