<?xml version="1.0" encoding="iso-8859-1"?>
<!-- Generator: Adobe Illustrator 19.0.0, SVG Export Plug-In . SVG Version: 6.00 Build 0)  -->
<svg version="1.1" id="Layer_1" xmlns="http://www.w3.org/2000/svg" xmlns:xlink="http://www.w3.org/1999/xlink" x="0px" y="0px" fill="#707070"
	 viewBox="0 0 512 512" style="enable-background:new 0 0 512 512;" xml:space="preserve">
<g>
	<g>
		<g>
			<path d="M384,0H128c-11.782,0-21.333,9.551-21.333,21.333v469.333c0,11.782,9.551,21.333,21.333,21.333h256
				c11.782,0,21.333-9.551,21.333-21.333V21.333C405.333,9.551,395.782,0,384,0z M362.667,469.333H149.333V42.667h213.333V469.333z"
				/>
			<path d="M192,234.667h128c15.859,0,26.173-16.689,19.081-30.874l-64-128c-7.862-15.724-30.3-15.724-38.162,0l-64,128
				C165.827,217.977,176.141,234.667,192,234.667z M256,133.036L285.482,192h-58.964L256,133.036z"/>
			<path d="M236.919,436.207c7.862,15.724,30.3,15.724,38.162,0l64-128c7.092-14.185-3.222-30.874-19.081-30.874H192
				c-15.859,0-26.173,16.689-19.081,30.874L236.919,436.207z M285.482,320L256,378.964L226.518,320H285.482z"/>
		</g>
	</g>
</g>
</svg>
