<?xml version="1.0" encoding="iso-8859-1"?>
<!-- Generator: Adobe Illustrator 19.0.0, SVG Export Plug-In . SVG Version: 6.00 Build 0)  -->
<svg version="1.1" id="Capa_1" xmlns="http://www.w3.org/2000/svg" xmlns:xlink="http://www.w3.org/1999/xlink" x="0px" y="0px" fill="#707070"
	 viewBox="0 0 512 512" style="enable-background:new 0 0 512 512;" xml:space="preserve">
<g>
	<g>
		<path d="M445.867,343.467v-66.133c0-59.733-46.933-106.667-106.667-106.667V64c0-36.267-29.867-64-64-64C236.8,0,166.4,0,128,0
			C91.733,0,64,27.733,64,64v362.667H42.667v42.667H0V512h170.667v-42.667H128v-42.667h-21.333V64
			c0-12.8,8.533-21.333,21.333-21.333h147.2c12.8,0,21.333,8.533,21.333,21.333v106.667c-59.733,0-106.667,46.933-106.667,106.667
			V448c0,36.267,27.733,64,64,64c42.667,0,128,0,170.667,0C471.467,512,512,475.733,512,428.8
			C512,388.267,484.267,352,445.867,343.467z M352,469.333h-98.133c-12.8,0-21.333-8.533-21.333-21.333V277.333
			c0-36.267,27.733-64,64-64H339.2c36.267,0,64,27.733,64,64v66.133c-38.4,10.667-64,44.8-64,83.2
			C339.2,441.6,343.467,456.533,352,469.333z M424.533,469.333c-23.467,0-42.667-19.2-42.667-42.667S401.067,384,424.533,384
			s42.667,19.2,42.667,42.667S448,469.333,424.533,469.333z"/>
	</g>
</g>
<g>
	<g>
		<rect x="275.2" y="256" width="42.667" height="64"/>
	</g>
</g>
<g>
	<g>
		<rect x="275.2" y="341.333" width="42.667" height="42.667"/>
	</g>
</g>
<g>
</g>
<g>
</g>
<g>
</g>
<g>
</g>
<g>
</g>
<g>
</g>
<g>
</g>
<g>
</g>
<g>
</g>
<g>
</g>
<g>
</g>
<g>
</g>
<g>
</g>
<g>
</g>
<g>
</g>
</svg>
