<svg xmlns="http://www.w3.org/2000/svg" xmlns:xlink="http://www.w3.org/1999/xlink" id="Layer_1" x="0" y="0" fill="#616161" enable-background="new 0 0 512 512" version="1.1" viewBox="0 0 512 512" xml:space="preserve"><g><g><path d="M511.997,64H424V16h-48v48h-96V16h-48v48h-96V16H88v48H0v432h512V64H511.997z M48,112h415.997v48H48V112z M464,448H48V208 h416V448z"/></g></g><g><g><rect width="48" height="48" x="88" y="256"/></g></g><g><g><rect width="48" height="48" x="184" y="256"/></g></g><g><g><rect width="48" height="48" x="280" y="256"/></g></g><g><g><rect width="48" height="48" x="376" y="256"/></g></g><g><g><rect width="48" height="48" x="88" y="352"/></g></g><g><g><rect width="48" height="48" x="184" y="352"/></g></g><g><g><rect width="48" height="48" x="280" y="352"/></g></g><g><g><rect width="48" height="48" x="376" y="352"/></g></g></svg>