<svg xmlns="http://www.w3.org/2000/svg" xmlns:xlink="http://www.w3.org/1999/xlink" id="Capa_1" x="0" y="0" fill="#616161" enable-background="new 0 0 297 297" version="1.1" viewBox="0 0 297 297" xml:space="preserve"><path d="M282.771,8.433c-2.359-6.607-9.63-10.05-16.231-7.689L21.917,88.11c-6.606,2.358-10.048,9.626-7.689,16.231	c1.855,5.195,6.744,8.433,11.96,8.433c1.418,0,2.86-0.239,4.271-0.744l37.249-13.303v90.807H49.146c-7.014,0-12.7,5.686-12.7,12.7	v82.065c0,7.014,5.686,12.701,12.7,12.701h207.116c7.014,0,12.7-5.686,12.7-12.701V127.986c0-7.014-5.686-12.7-12.7-12.7h-23.936	V39.935l42.756-15.27C281.689,22.306,285.131,15.038,282.771,8.433z M93.109,89.655l44.207-15.788v78.543h-20.76	c-7.014,0-12.7,5.686-12.7,12.7v24.424H93.109V89.655z M243.561,271.599H61.847v-56.664h54.71c7.014,0,12.7-5.686,12.7-12.7v-24.424	h58.618c7.014,0,12.7-5.686,12.7-12.7v-24.424h42.986V271.599z M206.925,115.285h-19.051c-7.014,0-12.7,5.686-12.7,12.7v24.424	h-12.456V64.795l44.207-15.788V115.285z"/></svg>