<svg xmlns="http://www.w3.org/2000/svg" xmlns:xlink="http://www.w3.org/1999/xlink" id="Layer_1" x="0" y="0" fill="#616161" enable-background="new 0 0 512 512" version="1.1" viewBox="0 0 512 512" xml:space="preserve"><g><g><path d="M508.543,127.867c-27.992-41.472-79.585-67.235-134.648-67.235c-45.437,0-88.495,17.554-117.895,46.989 c-29.4-29.436-72.457-46.989-117.895-46.989c-55.063,0-106.656,25.763-134.648,67.235c-2.786,4.13-3.833,8.917-3.327,13.509 C0.05,142.114,0,142.861,0,143.62v247.117v40.421c0,11.162,9.049,20.211,20.211,20.211h471.579 c11.162,0,20.211-9.049,20.211-20.211v-40.421V139.174C512,135.144,510.795,131.207,508.543,127.867z M235.789,410.947H40.421 v-13.68c21.274-27.674,58.104-44.653,97.684-44.653c39.574,0,76.411,16.966,97.684,44.632V410.947z M235.789,342.263 c-27.369-19.114-61.785-30.069-97.684-30.069c-35.895,0-70.316,10.949-97.684,30.06V145.706 c21.274-27.674,58.105-44.653,97.684-44.653c39.572,0,76.408,16.966,97.684,44.63V342.263z M471.579,410.947H276.211v-13.68 c21.274-27.674,58.104-44.653,97.684-44.653c39.58,0,76.411,16.98,97.684,44.653V410.947z M471.579,342.253 c-27.366-19.111-61.789-30.06-97.684-30.06c-35.899,0-70.316,10.955-97.684,30.069V145.706 c21.274-27.674,58.105-44.653,97.684-44.653c39.572,0,76.408,16.966,97.684,44.63V342.253z"/></g></g><g><g><rect width="128" height="40.421" x="74.105" y="145.907"/></g></g><g><g><rect width="128" height="40.421" x="74.105" y="226.749"/></g></g><g><g><rect width="128" height="40.421" x="309.895" y="145.907"/></g></g><g><g><rect width="128" height="40.421" x="309.895" y="226.749"/></g></g></svg>