<?xml version="1.0" encoding="iso-8859-1"?>
<!-- Generator: Adobe Illustrator 19.0.0, SVG Export Plug-In . SVG Version: 6.00 Build 0)  -->
<svg version="1.1" id="Capa_1" xmlns="http://www.w3.org/2000/svg" xmlns:xlink="http://www.w3.org/1999/xlink" x="0px" y="0px"
	 viewBox="0 0 512 512" style="enable-background:new 0 0 512 512;" xml:space="preserve" fill="#707070">
<g>
	<g>
		<path d="M496,224h-48V32c0-17.648-14.352-32-32-32h-64c-17.648,0-32,14.352-32,32v16h-16v32h64V48h-16V32h64v112h-16v-16h-32v64
			h32v-16h16v48H272H112H16c-8.832,0-16,7.168-16,16v64c0,8.832,7.168,16,16,16h16v128c0,17.648,14.352,32,32,32v32h32v-32h320v32
			h32v-32c17.648,0,32-14.352,32-32V320h16c8.832,0,16-7.168,16-16v-64C512,231.168,504.832,224,496,224z M128,256h48v80h32v-80h48
			v128H128V256z M32,288v-32h64v32H32z M448,448H64V320h32v80c0,8.832,7.168,16,16,16h160c8.832,0,16-7.168,16-16v-80h160V448z
			 M480,288H288v-32h192V288z"/>
	</g>
</g>
</svg>
