<?xml version="1.0" encoding="iso-8859-1"?>
<!-- Generator: Adobe Illustrator 19.0.0, SVG Export Plug-In . SVG Version: 6.00 Build 0)  -->
<svg version="1.1" id="Capa_1" xmlns="http://www.w3.org/2000/svg" xmlns:xlink="http://www.w3.org/1999/xlink" x="0px" y="0px"
	 viewBox="0 0 512 512" style="enable-background:new 0 0 512 512;" xml:space="preserve">
<g>
	<g>
		<path d="M256,0c-84.693,0-153.6,68.907-153.6,153.6v281.6c0,4.719,3.823,8.533,8.533,8.533h290.133
			c4.71,0,8.533-3.814,8.533-8.533V153.6C409.6,68.907,340.693,0,256,0z M392.533,426.667H119.467V153.6
			c0-75.281,61.244-136.533,136.533-136.533S392.533,78.319,392.533,153.6V426.667z"/>
	</g>
</g>
<g>
	<g>
		<path d="M256,34.133c-65.877,0-119.467,53.589-119.467,119.467v281.6c0,4.719,3.823,8.533,8.533,8.533h221.867
			c4.71,0,8.533-3.814,8.533-8.533V153.6C375.467,87.723,321.877,34.133,256,34.133z M358.4,426.667H153.6V153.6
			c0-56.465,45.935-102.4,102.4-102.4s102.4,45.935,102.4,102.4V426.667z"/>
	</g>
</g>
<g>
	<g>
		<path d="M426.667,426.667H85.333c-4.71,0-8.533,3.814-8.533,8.533v34.133c0,4.719,3.823,8.533,8.533,8.533h341.333
			c4.71,0,8.533-3.814,8.533-8.533V435.2C435.2,430.481,431.377,426.667,426.667,426.667z M418.133,460.8H93.867v-17.067h324.267
			V460.8z"/>
	</g>
</g>
<g>
	<g>
		<path d="M416.862,464.853c-1.562-2.517-4.301-4.053-7.262-4.053H102.4c-2.961,0-5.7,1.536-7.262,4.045
			c-1.553,2.517-1.698,5.658-0.375,8.303l17.067,34.133c1.451,2.893,4.403,4.719,7.637,4.719h273.067
			c3.234,0,6.187-1.826,7.637-4.71l17.067-34.133C418.56,470.511,418.415,467.371,416.862,464.853z M387.26,494.933H124.74
			l-8.533-17.067h279.586L387.26,494.933z"/>
	</g>
</g>
<g>
	<g>
		<path d="M256,145.067H145.067c-4.71,0-8.533,3.814-8.533,8.533v281.6c0,4.719,3.823,8.533,8.533,8.533H256
			c4.71,0,8.533-3.814,8.533-8.533V153.6C264.533,148.881,260.71,145.067,256,145.067z M247.467,426.667H153.6V162.133h93.867
			V426.667z"/>
	</g>
</g>
<g>
	<g>
		<path d="M256,145.067H145.067c-4.71,0-8.533,3.814-8.533,8.533v136.533c0,4.719,3.823,8.533,8.533,8.533H256
			c4.71,0,8.533-3.814,8.533-8.533V153.6C264.533,148.881,260.71,145.067,256,145.067z M247.467,281.6H153.6V162.133h93.867V281.6z"
			/>
	</g>
</g>
<g>
	<g>
		<path d="M256,281.6H145.067c-4.71,0-8.533,3.814-8.533,8.533V435.2c0,4.719,3.823,8.533,8.533,8.533H256
			c4.71,0,8.533-3.814,8.533-8.533V290.133C264.533,285.414,260.71,281.6,256,281.6z M247.467,426.667H153.6v-128h93.867V426.667z"
			/>
	</g>
</g>
<g>
	<g>
		<path d="M366.933,145.067H256c-4.71,0-8.533,3.814-8.533,8.533v281.6c0,4.719,3.823,8.533,8.533,8.533h110.933
			c4.71,0,8.533-3.814,8.533-8.533V153.6C375.467,148.881,371.644,145.067,366.933,145.067z M358.4,426.667h-93.867V162.133H358.4
			V426.667z"/>
	</g>
</g>
<g>
	<g>
		<path d="M366.933,145.067H256c-4.71,0-8.533,3.814-8.533,8.533v136.533c0,4.719,3.823,8.533,8.533,8.533h110.933
			c4.71,0,8.533-3.814,8.533-8.533V153.6C375.467,148.881,371.644,145.067,366.933,145.067z M358.4,281.6h-93.867V162.133H358.4
			V281.6z"/>
	</g>
</g>
<g>
	<g>
		<path d="M366.933,281.6H256c-4.71,0-8.533,3.814-8.533,8.533V435.2c0,4.719,3.823,8.533,8.533,8.533h110.933
			c4.71,0,8.533-3.814,8.533-8.533V290.133C375.467,285.414,371.644,281.6,366.933,281.6z M358.4,426.667h-93.867v-128H358.4
			V426.667z"/>
	</g>
</g>
<g>
	<g>
		<path d="M338.833,70.767c-3.328-3.337-8.738-3.337-12.066,0l-76.8,76.8c-3.337,3.337-3.337,8.73,0,12.066
			c1.664,1.664,3.849,2.5,6.033,2.5c2.185,0,4.369-0.836,6.033-2.5l76.8-76.8C342.17,79.497,342.17,74.103,338.833,70.767z"/>
	</g>
</g>
<g>
	<g>
		<path d="M262.033,147.567l-76.8-76.8c-3.328-3.337-8.738-3.337-12.066,0c-3.337,3.336-3.337,8.73,0,12.066l76.8,76.8
			c1.664,1.664,3.849,2.5,6.033,2.5c2.185,0,4.369-0.836,6.033-2.5C265.37,156.297,265.37,150.904,262.033,147.567z"/>
	</g>
</g>
<g>
	<g>
		<path d="M256,34.133c-4.71,0-8.533,3.814-8.533,8.533V153.6c0,4.719,3.823,8.533,8.533,8.533s8.533-3.814,8.533-8.533V42.667
			C264.533,37.948,260.71,34.133,256,34.133z"/>
	</g>
</g>
<g>
</g>
<g>
</g>
<g>
</g>
<g>
</g>
<g>
</g>
<g>
</g>
<g>
</g>
<g>
</g>
<g>
</g>
<g>
</g>
<g>
</g>
<g>
</g>
<g>
</g>
<g>
</g>
<g>
</g>
</svg>
