<?xml version="1.0" encoding="iso-8859-1"?>
<!-- Generator: Adobe Illustrator 19.0.0, SVG Export Plug-In . SVG Version: 6.00 Build 0)  -->
<svg version="1.1" id="Layer_1" xmlns="http://www.w3.org/2000/svg" xmlns:xlink="http://www.w3.org/1999/xlink" x="0px" y="0px" fill="#707070"
	 viewBox="0 0 512 512" style="enable-background:new 0 0 512 512;" xml:space="preserve">
<g>
	<g>
		<path d="M512,220.716c0-21.745-17.637-39.381-39.381-39.381h-3.285V46.506c0-19.584-15.529-35.84-35.179-35.84H77.845
			c-19.65,0-35.179,16.256-35.179,35.84v134.829h-3.285C17.637,181.334,0,198.971,0,220.716v216.619h64v42.667
			c0,11.782,9.551,21.333,21.333,21.333c11.782,0,21.333-9.551,21.333-21.333v-42.667h298.667v42.667
			c0,11.782,9.551,21.333,21.333,21.333S448,491.783,448,480.001v-42.667h64V220.716z M85.333,53.332h341.333v128h-3.285
			c-21.745,0-39.381,17.637-39.381,39.381v0.002v3.285H128v-3.285v-0.002c0-21.745-17.637-39.381-39.381-39.381h-3.285V53.332z
			 M384,309.332H128v-42.664h256V309.332z M469.333,394.668H42.667V224.001h42.667v127.998v0.002h341.333v-0.002V224.001h42.667
			V394.668z"/>
	</g>
</g>
</svg>
