<svg xmlns="http://www.w3.org/2000/svg" xmlns:xlink="http://www.w3.org/1999/xlink" id="Capa_1" x="0" y="0" fill="#616161" enable-background="new 0 0 512.004 512.004" version="1.1" viewBox="0 0 512.004 512.004" xml:space="preserve"><g><g><g><path d="M490.669,192H21.336c-11.782,0-21.333,9.551-21.333,21.333v64c0,11.782,9.551,21.333,21.333,21.333h25.6l38.4,196.267 c2.058,10.093,11.034,17.274,21.333,17.067h298.667c10.299,0.208,19.275-6.973,21.333-17.067l38.4-196.267h25.6 c11.782,0,21.333-9.551,21.333-21.333v-64C512.002,201.551,502.451,192,490.669,192z M388.269,469.333H123.736L89.602,298.667 h332.8L388.269,469.333z M469.336,256H42.669v-21.333h426.667V256z"/><circle cx="170.669" cy="362.667" r="21.333"/><circle cx="256.002" cy="362.667" r="21.333"/><circle cx="341.336" cy="362.667" r="21.333"/><circle cx="298.669" cy="426.667" r="21.333"/><circle cx="213.336" cy="426.667" r="21.333"/><path d="M416.002,117.333c0-29.455-23.878-53.333-53.333-53.333H149.336c-5.891,0-10.667-4.776-10.667-10.667 c0-5.891,4.776-10.667,10.667-10.667h266.667V0H149.336C119.88,0,96.002,23.878,96.002,53.333 c0,29.455,23.878,53.333,53.333,53.333h213.333c5.891,0,10.667,4.776,10.667,10.667c0,5.891-4.776,10.667-10.667,10.667H96.002 v42.667h266.667C392.124,170.667,416.002,146.789,416.002,117.333z"/></g></g></g></svg>