<?xml version="1.0" encoding="iso-8859-1"?>
<!-- Generator: Adobe Illustrator 19.0.0, SVG Export Plug-In . SVG Version: 6.00 Build 0)  -->
<svg version="1.1" id="Layer_1" xmlns="http://www.w3.org/2000/svg" xmlns:xlink="http://www.w3.org/1999/xlink" x="0px" y="0px" fill="#707070"
	 viewBox="0 0 512 512" style="enable-background:new 0 0 512 512;" xml:space="preserve">
<g>
	<g>
		<path d="M448,97.882V0h-45.176v97.882c0,12.291-5.921,23.222-15.059,30.097V0h-45.176v127.979
			c-9.138-6.874-15.059-17.807-15.059-30.097V0h-45.176v97.882c0,37.838,25.514,69.807,60.235,79.667v52.728
			c-22.07,8.937-37.647,30.563-37.647,55.84v165.647c0,33.266,26.967,60.235,60.235,60.235s60.235-26.969,60.235-60.235V286.118
			c0-25.276-15.577-46.902-37.647-55.84V177.55C422.486,167.689,448,135.721,448,97.882z M380.235,451.765
			c0,8.303-6.755,15.059-15.059,15.059c-8.303,0-15.059-6.755-15.059-15.059V286.118c0-8.303,6.755-15.059,15.059-15.059
			c8.303,0,15.059,6.755,15.059,15.059V451.765z"/>
	</g>
</g>
<g>
	<g>
		<path d="M244.706,90.353c0-49.9-40.453-90.353-90.353-90.353C104.453,0,64,40.453,64,90.353c0,42.1,28.795,77.476,67.765,87.505
			v52.42c-22.07,8.937-37.647,30.563-37.647,55.84v165.647c0,33.266,26.967,60.235,60.235,60.235s60.235-26.969,60.235-60.235
			V286.118c0-25.276-15.577-46.902-37.647-55.84v-52.42C215.91,167.828,244.706,132.453,244.706,90.353z M169.412,451.765
			c0,8.303-6.755,15.059-15.059,15.059c-8.303,0-15.059-6.755-15.059-15.059V286.118c0-8.303,6.755-15.059,15.059-15.059
			c8.303,0,15.059,6.755,15.059,15.059V451.765z M154.353,135.529c-24.91,0-45.177-20.266-45.177-45.176
			c0-24.91,20.266-45.177,45.177-45.177c24.91,0,45.176,20.266,45.176,45.177C199.529,115.263,179.263,135.529,154.353,135.529z"/>
	</g>
</g>
</svg>
