<svg xmlns="http://www.w3.org/2000/svg" xmlns:xlink="http://www.w3.org/1999/xlink" id="Layer_1" x="0" y="0" fill="#616161" enable-background="new 0 0 490.2 490.2" version="1.1" viewBox="0 0 490.2 490.2" xml:space="preserve"><g><path d="M283.4,284.1c-11.5-27.2-39.7-54.7-44.1-58.3h162.6v58.3H283.4z M443.5,358.1v-152c0-11.4-9.4-20.8-20.8-20.8H168.8v-65.5 H278c11.4,0,20.8-9.4,20.8-19.8c0-11.4-9.4-20.8-20.8-20.8H168.8V20.9c0-11.4-9.4-20.8-20.8-20.8H58.6c-11.4,0-20.8,9.4-20.8,20.8 s9.4,20.8,20.8,20.8h68.7v153.4l0,0C55.4,205.2,0,267,0,341.6c0,81.7,66.3,148,148,148s148-66.3,148-148c0-5.4-0.3-10.7-0.9-15.9 h106.7v32.4c-27.2,8.7-46.8,34.2-46.8,64.4c0,37.5,30.2,67.6,67.6,67.6s67.6-30.2,67.6-67.6C490.3,392.3,470.7,366.9,443.5,358.1z M207.6,253.1L148,312.3l-59.5-58.9C124.3,229.7,171.7,229.5,207.6,253.1z M59.5,282.1l59.2,59.6l-58.9,59.5 C36.1,365.4,35.9,317.9,59.5,282.1z M87.9,429.3l59.9-59.2l60.4,59.7C172,453.9,123.9,453.7,87.9,429.3z M235.7,401.8l-59.2-59.9 l59.7-60.4C260.3,317.6,260.1,365.8,235.7,401.8z M422.7,449.5c-15.6,0-27-12.5-27-27c0-14.6,12.5-27,27-27s27,12.5,27,27 S437.3,449.5,422.7,449.5z"/></g></svg>