<?xml version="1.0" encoding="iso-8859-1"?>
<!-- Generator: Adobe Illustrator 19.0.0, SVG Export Plug-In . SVG Version: 6.00 Build 0)  -->
<svg version="1.1" id="Capa_1" xmlns="http://www.w3.org/2000/svg" xmlns:xlink="http://www.w3.org/1999/xlink" x="0px" y="0px" fill="#707070"
	 viewBox="0 0 512 512" style="enable-background:new 0 0 512 512;" xml:space="preserve">
<g>
	<g>
		<g>
			<path d="M42.667,170.667h384v64h42.667v-192c0-11.782-9.551-21.333-21.333-21.333h-85.333V0H320v21.333h-64V0h-42.667v21.333h-64
				V0h-42.667v21.333H21.333C9.551,21.333,0,30.885,0,42.667V384c0,11.782,9.551,21.333,21.333,21.333h192v-42.667H42.667V170.667z
				 M42.667,64h64v21.333h42.667V64h64v21.333H256V64h64v21.333h42.667V64h64v64h-384V64z"/>
			<rect x="85.333" y="213.333" width="42.667" height="42.667"/>
			<rect x="170.667" y="213.333" width="42.667" height="42.667"/>
			<rect x="256" y="213.333" width="42.667" height="42.667"/>
			<rect x="85.333" y="277.333" width="42.667" height="42.667"/>
			<rect x="170.667" y="277.333" width="42.667" height="42.667"/>
			<path d="M384,256c-70.692,0-128,57.308-128,128s57.308,128,128,128s128-57.307,128-128C511.918,313.342,454.658,256.082,384,256z
				 M384,469.333c-47.128,0-85.333-38.205-85.333-85.333s38.205-85.333,85.333-85.333s85.333,38.205,85.333,85.333
				S431.128,469.333,384,469.333z"/>
			<path d="M389.909,375.744l-30.827-46.251l-35.499,23.659l42.667,64c6.628,9.669,19.756,12.291,29.589,5.909l64-42.667
				l-23.659-35.499L389.909,375.744z"/>
		</g>
	</g>
</g>
</svg>
