<?xml version="1.0" encoding="iso-8859-1"?>
<!-- Generator: Adobe Illustrator 19.0.0, SVG Export Plug-In . SVG Version: 6.00 Build 0)  -->
<svg version="1.1" id="Layer_1" xmlns="http://www.w3.org/2000/svg" xmlns:xlink="http://www.w3.org/1999/xlink" x="0px" y="0px" fill="#fff"
	 viewBox="0 0 512.002 512.002" style="enable-background:new 0 0 512.002 512.002;" xml:space="preserve">
<g>
	<g>
		<path d="M384.105,50.043c-16.383,0-31.534,5.352-43.818,14.384C321.532,38.055,290.754,20.801,256,20.801
			c-34.754,0-65.532,17.254-84.287,43.626c-12.283-9.032-27.433-14.384-43.818-14.384c-40.883,0-74.144,33.263-74.144,74.147
			c0,40.881,33.261,74.141,74.144,74.141c16.381,0,31.531-5.35,43.818-14.381c18.753,26.372,49.533,43.628,84.287,43.628
			c34.755,0,65.534-17.254,84.287-43.628c12.286,9.029,27.435,14.381,43.818,14.381c40.883,0,74.144-33.259,74.144-74.141
			C458.249,83.306,424.989,50.043,384.105,50.043z M127.895,148.902c-13.628,0-24.715-11.085-24.715-24.711
			c0-13.629,11.087-24.718,24.715-24.718s24.715,11.089,24.715,24.718C152.61,137.817,141.523,148.902,127.895,148.902z
			 M256,178.149c-29.755,0-53.96-24.206-53.96-53.959c0-29.755,24.206-53.96,53.96-53.96s53.96,24.206,53.96,53.96
			C309.96,153.944,285.755,178.149,256,178.149z M384.105,148.902c-13.628,0-24.715-11.085-24.715-24.711
			c0-13.629,11.087-24.718,24.715-24.718s24.715,11.089,24.715,24.718C408.819,137.817,397.732,148.902,384.105,148.902z"/>
	</g>
</g>
<g>
	<g>
		<path d="M384.105,247.761c-32.365,0-63.153,12.173-86.64,33.83c-13.351-2.992-27.224-4.582-41.465-4.582
			c-14.241,0-28.114,1.59-41.465,4.582c-23.486-21.657-54.275-33.83-86.64-33.83C57.373,247.761,0,305.135,0,375.656
			c0,13.649,11.066,24.715,24.715,24.715h53.717c-7.693,20.594-11.911,42.87-11.911,66.115c0,13.649,11.066,24.715,24.715,24.715
			h329.53c13.649,0,24.715-11.066,24.715-24.715c0-23.243-4.218-45.52-11.909-66.115h53.717c13.649,0,24.715-11.066,24.715-24.715
			C512,305.135,454.627,247.761,384.105,247.761z M53.417,350.942c10.377-31.197,39.843-53.751,74.479-53.751
			c10.902,0,21.505,2.277,31.246,6.508c-20.569,12.285-38.624,28.356-53.203,47.243H53.417z M118.133,441.771
			C129.841,376.296,187.209,326.438,256,326.438s126.159,49.858,137.867,115.334H118.133z M406.061,350.942
			c-14.578-18.889-32.633-34.958-53.203-47.243c9.741-4.231,20.344-6.508,31.246-6.508c34.635,0,64.102,22.555,74.479,53.751
			H406.061z"/>
	</g>
</g>
<g>
</g>
<g>
</g>
<g>
</g>
<g>
</g>
<g>
</g>
<g>
</g>
<g>
</g>
<g>
</g>
<g>
</g>
<g>
</g>
<g>
</g>
<g>
</g>
<g>
</g>
<g>
</g>
<g>
</g>
</svg>
