<?xml version="1.0" encoding="iso-8859-1"?>
<!-- Generator: Adobe Illustrator 19.0.0, SVG Export Plug-In . SVG Version: 6.00 Build 0)  -->
<svg version="1.1" id="Layer_1" xmlns="http://www.w3.org/2000/svg" xmlns:xlink="http://www.w3.org/1999/xlink" x="0px" y="0px" fill="#707070"
	 viewBox="0 0 512.001 512.001" style="enable-background:new 0 0 512.001 512.001;" xml:space="preserve">
<g>
	<g>
		<path d="M511.156,469.4L481.899,367c-2.692-9.419-11.302-15.914-21.099-15.914h-21.943V204.8h36.571
			c9.669,0,18.199-6.33,21.001-15.584c2.803-9.254-0.784-19.253-8.83-24.615L268.171,18.315c-7.37-4.914-16.972-4.914-24.343,0
			L24.399,164.601c-8.046,5.363-11.633,15.361-8.83,24.615S26.902,204.8,36.572,204.8h36.571v146.286H51.2
			c-9.797,0-18.407,6.494-21.099,15.914L0.844,469.4c-1.891,6.621-0.566,13.746,3.581,19.242c4.146,5.497,10.632,8.729,17.518,8.729
			h468.114c6.886,0,13.372-3.231,17.518-8.729C511.722,483.145,513.048,476.021,511.156,469.4z M256,62.942l146.957,97.972H109.045
			L256,62.942z M394.972,204.8v146.286h-63.39V204.8H394.972z M287.696,204.8v146.286h-63.391V204.8H287.696z M180.419,204.8
			v146.286h-63.39V204.8H180.419z M51.034,453.486l16.719-58.514H444.25l16.719,58.514H51.034z"/>
	</g>
</g>
</svg>
