<?xml version="1.0" encoding="iso-8859-1"?>
<!-- Generator: Adobe Illustrator 19.0.0, SVG Export Plug-In . SVG Version: 6.00 Build 0)  -->
<svg version="1.1" id="Capa_1" xmlns="http://www.w3.org/2000/svg" xmlns:xlink="http://www.w3.org/1999/xlink" x="0px" y="0px"
	 viewBox="0 0 512.633 512.633" style="enable-background:new 0 0 512.633 512.633;" xml:space="preserve">
<g>
	<g>
		<rect x="85.333" y="160" width="42.667" height="42.667"/>
	</g>
</g>
<g>
	<g>
		<rect x="192" y="160" width="42.667" height="42.667"/>
	</g>
</g>
<g>
	<g>
		<rect x="298.667" y="160" width="42.667" height="42.667"/>
	</g>
</g>
<g>
	<g>
		<rect x="85.333" y="245.333" width="42.667" height="42.667"/>
	</g>
</g>
<g>
	<g>
		<rect x="192" y="245.333" width="42.667" height="42.667"/>
	</g>
</g>
<g>
	<g>
		<rect x="85.333" y="330.667" width="42.667" height="42.667"/>
	</g>
</g>
<g>
	<g>
		<path d="M494.933,309.333c-14.933-25.6-38.4-46.933-68.267-55.467v-179.2c0-12.8-8.533-21.333-21.333-21.333h-64V10.667h-42.667
			v42.667h-64V10.667H192v42.667h-64V10.667H85.333v42.667h-64C8.533,53.333,0,61.867,0,74.667V416
			c0,12.8,8.533,21.333,21.333,21.333h251.733c36.267,61.867,113.067,83.2,174.933,46.933C509.867,448,531.2,371.2,494.933,309.333z
			 M256,373.333c0,6.4,0,14.933,2.133,21.333H42.667V96h42.667v21.333H128V96h64v21.333h42.667V96h64v21.333h42.667V96H384v149.333
			C313.6,245.333,256,302.933,256,373.333z M384,458.667c-46.933,0-85.333-38.4-85.333-85.333S337.067,288,384,288
			s85.333,38.4,85.333,85.333S430.933,458.667,384,458.667z"/>
	</g>
</g>
<g>
	<g>
		<path d="M411.733,315.733l-32,32L349.867,332.8l-19.2,38.4l42.667,21.333c8.533,4.267,17.067,2.133,25.6-4.267L441.6,345.6
			L411.733,315.733z"/>
	</g>
</g>
<g>
</g>
<g>
</g>
<g>
</g>
<g>
</g>
<g>
</g>
<g>
</g>
<g>
</g>
<g>
</g>
<g>
</g>
<g>
</g>
<g>
</g>
<g>
</g>
<g>
</g>
<g>
</g>
<g>
</g>
</svg>
