<svg xmlns="http://www.w3.org/2000/svg" xmlns:xlink="http://www.w3.org/1999/xlink" id="Capa_1" x="0" y="0" fill="#fff" enable-background="new 0 0 512 512" version="1.1" viewBox="0 0 512 512" xml:space="preserve"><g><g><g><path d="M218.98,49.94l10.325,10.325L0.178,470.889L39.186,512l112.337-62.065l11.35,21.219 c7.75,14.49,20.717,24.963,36.513,29.49c5.522,1.583,11.131,2.365,16.706,2.365c10.374,0,20.617-2.713,29.884-8.038 l77.917-44.759c28.743-16.51,38.736-53.351,22.277-82.125l-11.168-19.521l117.62-64.984l9.763,9.763l28.39-28.391L247.37,21.549 L218.98,49.94z M303.894,415.397l-77.918,44.76c-4.749,2.728-10.265,3.399-15.53,1.89c-5.266-1.509-9.588-5-12.171-9.831 l-11.598-21.683l-1.287,0.689l114.465-63.24l11.465,20.04C316.806,397.614,313.475,409.893,303.894,415.397z M423.076,254.036 L53.098,458.443L258.815,89.775L423.076,254.036z"/><rect width="40.15" height="71.684" x="404.562" y="51.344" transform="matrix(0.7071 0.7071 -0.7071 0.7071 186.0291 -274.7318)"/><rect width="63.518" height="40.15" x="443.242" y="137.874" transform="matrix(-0.9347 0.3556 -0.3556 -0.9347 975.1226 136.6898)"/><rect width="40.15" height="63.519" x="333.799" y="5.063" transform="matrix(0.9347 0.3556 -0.3556 0.9347 36.2181 -123.4197)"/></g></g></g></svg>