<svg width="37" height="37" viewBox="0 0 37 37" fill="none" xmlns="http://www.w3.org/2000/svg">
<path d="M35.4584 0H1.54164C0.690209 0 0 0.690383 0 1.54203V10.7944C0 11.646 0.690209 12.3364 1.54164 12.3364L30.8334 12.3365V9.25232H12.3334V3.08413H33.9167V9.25232H30.8334V12.3365H35.4584C36.3098 12.3365 37 11.6461 37 10.7944V1.5421C37 0.690383 36.3098 0 35.4584 0ZM9.25 9.25232H3.08336V3.08413H9.25V9.25232Z" transform="translate(0 19.5)" fill="#616161"/>
<path d="M1.69579 7.55611C2.62079 8.48134 2.92914 8.78978 0.924927 10.7944L3.08328 12.9533C4.77914 11.257 5.54993 9.71501 5.54993 8.32716C5.37504 7.17127 4.76917 6.12446 3.85407 5.39728C2.92907 4.47205 2.62071 4.16362 4.62493 2.15897L2.46664 -1.43385e-08C0.770785 1.69628 3.17574e-07 3.23831 3.17574e-07 4.62616C0.174811 5.78205 0.780758 6.82886 1.69579 7.55611Z" transform="translate(29.9084 3)" fill="#616161"/>
<path d="M1.69586 7.55604C2.62086 8.48127 2.92922 8.78971 0.925001 10.7944L3.08336 12.9533C4.77921 11.257 5.55 9.71494 5.55 8.32709C5.37512 7.1712 4.76924 6.12439 3.85414 5.39721C2.92914 4.47198 2.62078 4.16355 4.625 2.1589L2.46664 -5.40452e-08C0.770785 1.69628 -3.17574e-07 3.23831 -3.17574e-07 4.62616C0.174882 5.78198 0.780758 6.82879 1.69586 7.55604Z" transform="translate(23.2791 3.00007)" fill="#616161"/>
<path d="M1.69578 7.55611C2.62078 8.48134 2.92914 8.78978 0.924928 10.7944L3.08328 12.9533C4.77914 11.257 5.54993 9.71501 5.54993 8.32716C5.37504 7.17127 4.76917 6.12446 3.85407 5.39728C2.92907 4.47205 2.62071 4.16362 4.62493 2.15897L2.46664 -1.43385e-08C0.770785 1.69628 3.17574e-07 3.23831 3.17574e-07 4.62616C0.174811 5.78205 0.780757 6.82886 1.69578 7.55611Z" transform="translate(16.0334 3)" fill="#616161"/>
</svg>
