<?xml version="1.0" encoding="iso-8859-1"?>
<!-- Generator: Adobe Illustrator 19.0.0, SVG Export Plug-In . SVG Version: 6.00 Build 0)  -->
<svg version="1.1" id="Capa_1" xmlns="http://www.w3.org/2000/svg" xmlns:xlink="http://www.w3.org/1999/xlink" x="0px" y="0px"
	 viewBox="0 0 512 512" style="enable-background:new 0 0 512 512;" xml:space="preserve">
<g>
	<g>
		<path d="M256,0C114.848,0,0,114.848,0,256s114.848,256,256,256s256-114.848,256-256S397.152,0,256,0z M256,480
			C132.48,480,32,379.52,32,256S132.48,32,256,32s224,100.48,224,224S379.52,480,256,480z"/>
	</g>
</g>
<g>
	<g>
		<path d="M256,64C150.128,64,64,150.128,64,256s86.128,192,192,192s192-86.128,192-192S361.872,64,256,64z M386.656,348.032
			l-23.344-23.344l-22.624,22.624l24.928,24.928c-25.024,23.6-57.52,39.344-93.616,42.944V368h-32v47.184
			c-36.096-3.6-68.592-19.344-93.616-42.944l24.928-24.928l-22.624-22.624l-23.344,23.344C109.824,326.08,99.616,300.144,96.816,272
			H144v-32H96.816c2.8-28.144,13.024-54.08,28.528-76.032l23.344,23.344l22.624-22.624l-24.928-24.928
			c25.024-23.6,57.52-39.344,93.616-42.944V144h32V96.816c36.096,3.6,68.592,19.344,93.616,42.944l-24.928,24.928l22.624,22.624
			l23.344-23.344c15.504,21.952,25.728,47.904,28.528,76.032H368v32h47.184C412.384,300.144,402.16,326.08,386.656,348.032z"/>
	</g>
</g>
<g>
	<g>
		<path d="M272,248v-72h-32v80c0,5.04,2.368,9.776,6.4,12.8l64,48l19.2-25.6L272,248z"/>
	</g>
</g>
<g>
</g>
<g>
</g>
<g>
</g>
<g>
</g>
<g>
</g>
<g>
</g>
<g>
</g>
<g>
</g>
<g>
</g>
<g>
</g>
<g>
</g>
<g>
</g>
<g>
</g>
<g>
</g>
<g>
</g>
</svg>
