<svg xmlns="http://www.w3.org/2000/svg" xmlns:xlink="http://www.w3.org/1999/xlink" id="Layer_1" x="0" y="0" fill="#616161" enable-background="new 0 0 512 512" version="1.1" viewBox="0 0 512 512" xml:space="preserve"><g><g><path d="M490.667,405.333h-21.333V192V42.667h21.333c11.782,0,21.333-9.551,21.333-21.333C512,9.551,502.449,0,490.667,0H448H64 H21.333C9.551,0,0,9.551,0,21.333c0,11.782,9.551,21.333,21.333,21.333h21.333V192v213.333H21.333 C9.551,405.333,0,414.885,0,426.667v64C0,502.449,9.551,512,21.333,512h469.333c11.782,0,21.333-9.551,21.333-21.333v-64 C512,414.885,502.449,405.333,490.667,405.333z M426.667,170.667H277.333v-128h149.333V170.667z M234.667,42.667v128H85.333v-128 H234.667z M85.333,213.333h341.333v192h-67.654c2.358-6.674,3.654-13.85,3.654-21.333v-42.667c0-9.151-5.773-16.934-13.867-19.963 l28.952-28.952c8.331-8.331,8.331-21.839,0-30.17c-8.331-8.331-21.839-8.331-30.17,0L320,289.83V256 c0-11.782-9.551-21.333-21.333-21.333c-11.782,0-21.333,9.551-21.333,21.333v33.83l-27.582-27.582 c-8.331-8.331-21.839-8.331-30.17,0c-8.331,8.331-8.331,21.839,0,30.17l28.952,28.952c-8.094,3.03-13.867,10.812-13.867,19.963 V384c0,7.483,1.296,14.66,3.654,21.333H85.333V213.333z M277.333,384v-21.333H320V384c0,11.791-9.542,21.333-21.333,21.333 S277.333,395.791,277.333,384z M469.333,469.333H42.667V448H64h384h21.333V469.333z"/></g></g></svg>