<?xml version="1.0" encoding="iso-8859-1"?>
<!-- Generator: Adobe Illustrator 18.0.0, SVG Export Plug-In . SVG Version: 6.00 Build 0)  -->
<!DOCTYPE svg PUBLIC "-//W3C//DTD SVG 1.1//EN" "http://www.w3.org/Graphics/SVG/1.1/DTD/svg11.dtd">
<svg version="1.1" id="Capa_1" xmlns="http://www.w3.org/2000/svg" xmlns:xlink="http://www.w3.org/1999/xlink" x="0px" y="0px" fill="#616161"
	 viewBox="0 0 297 297" style="enable-background:new 0 0 297 297;" xml:space="preserve">
<path d="M271.593,153.485l-109.276-47.512V92.306c19.515-5.758,33.797-23.84,33.797-45.195C196.113,21.134,174.979,0,149.003,0
	s-47.11,21.133-47.11,47.11c0,7.353,5.961,13.314,13.314,13.314c7.353,0,13.314-5.961,13.314-13.314
	c0-11.294,9.188-20.482,20.483-20.482c11.295,0,20.483,9.188,20.483,20.483s-9.188,20.483-20.483,20.483
	c-7.353,0-13.314,5.961-13.314,13.314v25.036l-110.756,47.74c-5.801,2.5-9.046,8.731-7.769,14.917
	c1.276,6.186,6.723,10.623,13.039,10.623h20.483v104.462c0,7.353,5.961,13.314,13.314,13.314h168.983
	c7.353,0,13.314-5.961,13.314-13.314V179.224h20.483c0.007-0.001,0.013-0.001,0.02,0c7.353,0,13.314-5.961,13.314-13.314
	C280.113,160.246,276.577,155.409,271.593,153.485z M148.98,129.211l53.786,23.385H94.725L148.98,129.211z M219.668,270.372H77.313
	v-91.149h142.356V270.372z"/>
</svg>
