<svg width="32" height="32" viewBox="0 0 32 32" xmlns="http://www.w3.org/2000/svg"><title>иконки</title><g fill="none" fill-rule="evenodd" transform="translate(6 0)"><g fill-rule="nonzero" fill="#333"><path d="M12.958 27.638h-7.17c-.4 0-.737.34-.737.745 0 .404.34.745.74.745h7.168c.4 0 .738-.34.738-.745 0-.404-.338-.745-.738-.745zM5.79 26.255h7.168c.4 0 .738-.34.738-.744 0-.404-.338-.744-.738-.744h-7.17c-.4 0-.737.34-.737.745 0 .405.317.745.74.745zM11.587 30.468H7.16c-.4 0-.738.34-.738.745 0 .404.337.744.738.744h4.427c.4 0 .738-.34.738-.744 0-.404-.337-.745-.738-.745z"/></g><path d="M18.23 6.596C17.51 3.83 15.403.51 9.372.51 3.343.51 1.235 3.83.518 6.597c-.696 2.68-.19 5.595 1.392 8.042 2.846 4.426 3.352 8.17 3.373 8.192.042.383.36.66.738.66h.085c.4-.043.696-.426.633-.83-.02-.17-.548-4.086-3.584-8.81-1.35-2.084-1.77-4.595-1.202-6.85.843-3.298 3.352-4.98 7.42-4.98 4.092 0 6.58 1.682 7.423 4.98.59 2.277.148 4.766-1.202 6.85-3.036 4.746-3.563 8.66-3.584 8.81-.043.404.23.787.632.83h.105c.358 0 .675-.277.738-.64 0-.04.506-3.765 3.373-8.19 1.56-2.47 2.067-5.383 1.37-8.064z" fill="#F7E200" fill-rule="nonzero"/><path d="M14 10.602S13.363 6.992 12.37 7c-.994.01-1.926 3.625-2.87 3.602C8.556 10.58 9.073 7.01 8.037 7 7 6.99 5 10.565 5 10.565" stroke="#FEE900"/></g></svg>