<?xml version="1.0" encoding="iso-8859-1"?>
<!-- Generator: Adobe Illustrator 19.0.0, SVG Export Plug-In . SVG Version: 6.00 Build 0)  -->
<svg version="1.1" id="Layer_1" xmlns="http://www.w3.org/2000/svg" xmlns:xlink="http://www.w3.org/1999/xlink" x="0px" y="0px" fill="#616161"
	 viewBox="0 0 512 512" style="enable-background:new 0 0 512 512;" xml:space="preserve">
<g>
	<g>
		<path d="M488.727,23.273h-93.091c-12.853,0-23.273,10.42-23.273,23.273v11.315l-257.925,42.988H23.273
			C10.42,100.849,0,111.268,0,124.121v201.697c0,12.853,10.42,23.273,23.273,23.273h74.423l26.981,121.412
			c2.365,10.648,11.81,18.224,22.717,18.224h124.121c10.391,0,19.523-6.889,22.378-16.879l25.322-88.627l53.149,8.858v11.315
			c0,12.853,10.42,23.273,23.273,23.273h93.091c12.853,0,23.273-10.42,23.273-23.273V46.545
			C512,33.693,501.58,23.273,488.727,23.273z M93.091,302.545H46.545V147.394h46.545V302.545z M253.961,442.182h-87.898
			l-19.496-87.737l126.442,21.074L253.961,442.182z M372.364,344.891l-232.727-38.788V143.836l232.727-38.788V344.891z
			 M465.455,380.121h-46.545v-7.758V77.576v-7.758h46.545V380.121z"/>
	</g>
</g>
</svg>
