<?xml version="1.0" encoding="iso-8859-1"?>
<!-- Generator: Adobe Illustrator 18.0.0, SVG Export Plug-In . SVG Version: 6.00 Build 0)  -->
<!DOCTYPE svg PUBLIC "-//W3C//DTD SVG 1.1//EN" "http://www.w3.org/Graphics/SVG/1.1/DTD/svg11.dtd">
<svg version="1.1" id="Capa_1" xmlns="http://www.w3.org/2000/svg" xmlns:xlink="http://www.w3.org/1999/xlink" x="0px" y="0px" fill="#707070"
	 viewBox="0 0 297 297" style="enable-background:new 0 0 297 297;" xml:space="preserve">
<path d="M238.431,35.897L201.157,3.188C198.815,1.133,195.806,0,192.69,0H82.834c-7.09,0-12.582,5.747-12.582,12.837v43.448
	c0,7.09,5.492,12.948,12.582,12.948h27.05c-2.523,11.037-10.873,29.899-38.515,39.113c-6.725,2.242-10.361,9.484-8.119,16.21
	c1.794,5.379,6.801,8.767,12.176,8.767c1.345-0.001,2.715-0.221,4.062-0.669c18.86-6.287,31.374-16.166,39.665-26.109
	c-1.537,14.583-11.27,33.035-22.246,41.35l-10.074,7.632c-18.3,13.862-32.634,42.704-32.634,65.662v28.636
	c0,26.136,21.263,47.175,47.398,47.175h82.946c12.937,0,24.615-4.992,32.883-14.258c8.237-9.232,11.969-21.301,10.508-34.085
	L210.666,97.722l29.988-45.082C244.214,47.286,243.264,40.138,238.431,35.897z M198.268,265.944
	c-3.331,3.733-8.205,5.972-13.726,5.972h-82.946c-11.979,0-21.31-10.112-21.31-22.09v-28.636c0-15.012,10.289-36.134,22.257-45.199
	l10.202-7.632c18.3-13.862,32.762-42.704,32.762-65.663V78.707l40.078,23.667l16.956,149.347
	C203.159,257.136,201.568,262.245,198.268,265.944z M193.41,77.333l-54.704-32.27c-1.971-1.156-4.214-1.918-6.499-1.918h-36.87
	V26.088h92.519l25.201,21.907L193.41,77.333z"/>
</svg>
