<?xml version="1.0" encoding="iso-8859-1"?>
<!-- Generator: Adobe Illustrator 19.0.0, SVG Export Plug-In . SVG Version: 6.00 Build 0)  -->
<svg version="1.1" id="Capa_1" xmlns="http://www.w3.org/2000/svg" xmlns:xlink="http://www.w3.org/1999/xlink" x="0px" y="0px" width="100" height="100"
	 viewBox="0 0 512 512" style="enable-background:new 0 0 512 512;" xml:space="preserve">
<path style="fill:#B0C4D8;" d="M488.727,430.545H23.273C10.473,430.545,0,420.073,0,407.273v-384C0,10.473,10.473,0,23.273,0
	h465.455C501.527,0,512,10.473,512,23.273v384C512,420.073,501.527,430.545,488.727,430.545z"/>
<g>
	<path style="fill:#99B4CD;" d="M152.436,407.273c2.327,4.655,4.655,9.309,6.982,13.964l-17.455,9.309h124.509
		c-9.309,0-41.891-9.309-57.018-23.273H152.436z"/>
	<path style="fill:#99B4CD;" d="M336.291,407.273c-15.127,13.964-34.909,23.273-57.018,23.273h124.509l-5.818-9.309
		c2.327-4.655,5.818-9.309,6.982-13.964H336.291z"/>
</g>
<rect x="23.273" y="69.818" style="fill:#ECEFF9;" width="465.455" height="337.455"/>
<path style="fill:#C4D7E5;" d="M397.964,276.945l20.945-34.909l-32.582-32.582L351.418,230.4c-11.636-6.982-25.6-12.8-39.564-16.291
	l0,0l-9.309-39.564H256l-9.309,39.564l0,0c-13.964,3.491-27.927,9.309-39.564,16.291l-34.909-20.945l-32.582,32.582l20.945,34.909
	c-6.982,11.636-12.8,25.6-16.291,39.564l-39.564,9.309v46.545l39.564,9.309l0,0c2.327,9.309,4.655,17.455,9.309,25.6h54.691
	c-1.164-1.164-1.164-1.164-2.327-2.327l74.473-43.055l74.473,43.055c0,1.164-1.164,1.164-1.164,2.327h54.691
	c3.491-8.145,6.982-16.291,9.309-25.6l36.073-9.309v-46.545l-39.564-9.309C411.927,301.382,406.109,288.582,397.964,276.945z
	 M267.636,342.109l-74.473,43.055c-4.655-10.473-6.982-23.273-6.982-36.073c0-47.709,36.073-86.109,81.455-91.927V342.109z
	 M279.273,350.255L279.273,350.255L279.273,350.255L279.273,350.255z M365.382,385.164l-74.473-43.055V256
	c45.382,5.818,81.455,45.382,81.455,91.927C372.364,361.891,370.036,373.527,365.382,385.164z"/>
<g>
	<path style="fill:#D5E3EF;" d="M64,244.364h93.091c3.491,0,5.818,2.327,5.818,5.818l0,0c0,3.491-2.327,5.818-5.818,5.818H64
		c-3.491,0-5.818-2.327-5.818-5.818l0,0C58.182,246.691,60.509,244.364,64,244.364z"/>
	<path style="fill:#D5E3EF;" d="M64,267.636h69.818c3.491,0,5.818,2.327,5.818,5.818l0,0c0,3.491-2.327,5.818-5.818,5.818H64
		c-3.491,0-5.818-2.327-5.818-5.818l0,0C58.182,269.964,60.509,267.636,64,267.636z"/>
	<path style="fill:#D5E3EF;" d="M64,290.909h69.818c3.491,0,5.818,2.327,5.818,5.818l0,0c0,3.491-2.327,5.818-5.818,5.818H64
		c-3.491,0-5.818-2.327-5.818-5.818l0,0C58.182,293.236,60.509,290.909,64,290.909z"/>
	<path style="fill:#D5E3EF;" d="M64,314.182h69.818c3.491,0,5.818,2.327,5.818,5.818l0,0c0,3.491-2.327,5.818-5.818,5.818H64
		c-3.491,0-5.818-2.327-5.818-5.818l0,0C58.182,316.509,60.509,314.182,64,314.182z"/>
	<path style="fill:#D5E3EF;" d="M64,337.455h69.818c3.491,0,5.818,2.327,5.818,5.818l0,0c0,3.491-2.327,5.818-5.818,5.818H64
		c-3.491,0-5.818-2.327-5.818-5.818l0,0C58.182,339.782,60.509,337.455,64,337.455z"/>
	<path style="fill:#D5E3EF;" d="M64,360.727h69.818c3.491,0,5.818,2.327,5.818,5.818l0,0c0,3.491-2.327,5.818-5.818,5.818H64
		c-3.491,0-5.818-2.327-5.818-5.818l0,0C58.182,363.055,60.509,360.727,64,360.727z"/>
	<path style="fill:#D5E3EF;" d="M203.636,244.364h104.727c3.491,0,5.818,2.327,5.818,5.818l0,0c0,3.491-2.327,5.818-5.818,5.818
		H203.636c-3.491,0-5.818-2.327-5.818-5.818l0,0C197.818,246.691,200.145,244.364,203.636,244.364z"/>
	<path style="fill:#D5E3EF;" d="M203.636,267.636h104.727c3.491,0,5.818,2.327,5.818,5.818l0,0c0,3.491-2.327,5.818-5.818,5.818
		H203.636c-3.491,0-5.818-2.327-5.818-5.818l0,0C197.818,269.964,200.145,267.636,203.636,267.636z"/>
	<path style="fill:#D5E3EF;" d="M203.636,290.909h104.727c3.491,0,5.818,2.327,5.818,5.818l0,0c0,3.491-2.327,5.818-5.818,5.818
		H203.636c-3.491,0-5.818-2.327-5.818-5.818l0,0C197.818,293.236,200.145,290.909,203.636,290.909z"/>
	<path style="fill:#D5E3EF;" d="M203.636,314.182h104.727c3.491,0,5.818,2.327,5.818,5.818l0,0c0,3.491-2.327,5.818-5.818,5.818
		H203.636c-3.491,0-5.818-2.327-5.818-5.818l0,0C197.818,316.509,200.145,314.182,203.636,314.182z"/>
	<path style="fill:#D5E3EF;" d="M203.636,337.455h104.727c3.491,0,5.818,2.327,5.818,5.818l0,0c0,3.491-2.327,5.818-5.818,5.818
		H203.636c-3.491,0-5.818-2.327-5.818-5.818l0,0C197.818,339.782,200.145,337.455,203.636,337.455z"/>
	<path style="fill:#D5E3EF;" d="M203.636,360.727h104.727c3.491,0,5.818,2.327,5.818,5.818l0,0c0,3.491-2.327,5.818-5.818,5.818
		H203.636c-3.491,0-5.818-2.327-5.818-5.818l0,0C197.818,363.055,200.145,360.727,203.636,360.727z"/>
</g>
<g>
	<path style="fill:#B0C4D9;" d="M314.182,366.545c0-3.491-2.327-5.818-5.818-5.818h-73.309l-19.782,11.636h46.545l17.455-10.473
		l17.455,10.473h11.636C311.855,372.364,314.182,370.036,314.182,366.545z"/>
	<polygon style="fill:#B0C4D9;" points="302.545,349.091 290.909,342.109 290.909,337.455 267.636,337.455 267.636,342.109 
		254.836,349.091 278.109,349.091 279.273,349.091 	"/>
	<rect x="267.636" y="314.182" style="fill:#B0C4D9;" width="23.273" height="11.636"/>
	<path style="fill:#B0C4D9;" d="M197.818,296.727c0,1.164,1.164,3.491,2.327,4.655c2.327-3.491,4.655-6.982,6.982-10.473h-3.491
		C200.145,290.909,197.818,293.236,197.818,296.727z"/>
	<rect x="267.636" y="290.909" style="fill:#B0C4D9;" width="23.273" height="11.636"/>
	<rect x="267.636" y="267.636" style="fill:#B0C4D9;" width="23.273" height="11.636"/>
	<path style="fill:#B0C4D9;" d="M197.818,273.455c0,3.491,2.327,5.818,5.818,5.818H217.6c4.655-4.655,10.473-8.145,16.291-11.636
		h-30.255C200.145,267.636,197.818,269.964,197.818,273.455z"/>
</g>
<g>
	<path style="fill:#D5E3EF;" d="M360.727,244.364H448c3.491,0,5.818,2.327,5.818,5.818l0,0c0,3.491-2.327,5.818-5.818,5.818h-87.273
		c-3.491,0-5.818-2.327-5.818-5.818l0,0C354.909,246.691,357.236,244.364,360.727,244.364z"/>
	<path style="fill:#D5E3EF;" d="M378.182,267.636H448c3.491,0,5.818,2.327,5.818,5.818l0,0c0,3.491-2.327,5.818-5.818,5.818h-69.818
		c-3.491,0-5.818-2.327-5.818-5.818l0,0C372.364,269.964,374.691,267.636,378.182,267.636z"/>
	<path style="fill:#D5E3EF;" d="M378.182,290.909H448c3.491,0,5.818,2.327,5.818,5.818l0,0c0,3.491-2.327,5.818-5.818,5.818h-69.818
		c-3.491,0-5.818-2.327-5.818-5.818l0,0C372.364,293.236,374.691,290.909,378.182,290.909z"/>
	<path style="fill:#D5E3EF;" d="M378.182,314.182H448c3.491,0,5.818,2.327,5.818,5.818l0,0c0,3.491-2.327,5.818-5.818,5.818h-69.818
		c-3.491,0-5.818-2.327-5.818-5.818l0,0C372.364,316.509,374.691,314.182,378.182,314.182z"/>
</g>
<g>
	<path style="fill:#B0C4D9;" d="M378.182,337.455H448c3.491,0,5.818,2.327,5.818,5.818l0,0c0,3.491-2.327,5.818-5.818,5.818h-69.818
		c-3.491,0-5.818-2.327-5.818-5.818l0,0C372.364,339.782,374.691,337.455,378.182,337.455z"/>
	<path style="fill:#B0C4D9;" d="M378.182,360.727H448c3.491,0,5.818,2.327,5.818,5.818l0,0c0,3.491-2.327,5.818-5.818,5.818h-69.818
		c-3.491,0-5.818-2.327-5.818-5.818l0,0C372.364,363.055,374.691,360.727,378.182,360.727z"/>
	<path style="fill:#B0C4D9;" d="M450.327,324.655l-36.073-9.309c0-1.164,0-1.164,0-2.327h-36.073c-3.491,0-5.818,2.327-5.818,5.818
		s2.327,5.818,5.818,5.818H448C449.164,325.818,450.327,325.818,450.327,324.655z"/>
	<path style="fill:#B0C4D9;" d="M406.109,290.909h-27.927c-3.491,0-5.818,2.327-5.818,5.818c0,3.491,2.327,5.818,5.818,5.818h32.582
		C409.6,299.055,407.273,294.4,406.109,290.909z"/>
	<path style="fill:#B0C4D9;" d="M397.964,276.945l5.818-9.309h-25.6c-3.491,0-5.818,2.327-5.818,5.818s2.327,5.818,5.818,5.818
		h22.109C399.127,278.109,399.127,276.945,397.964,276.945z"/>
	<path style="fill:#B0C4D9;" d="M360.727,256h50.036l6.982-11.636h-57.018c-3.491,0-5.818,2.327-5.818,5.818
		S357.236,256,360.727,256z"/>
</g>
<rect x="58.182" y="128" style="fill:#D5E3EF;" width="395.636" height="93.091"/>
<circle style="fill:#F04D4E;" cx="34.909" cy="34.909" r="11.636"/>
<circle style="fill:#FFCB5B;" cx="81.455" cy="34.909" r="11.636"/>
<circle style="fill:#3BB54A;" cx="128" cy="34.909" r="11.636"/>
<path style="fill:#E2E7F0;" d="M477.091,46.545H174.545c-6.982,0-11.636-4.655-11.636-11.636l0,0
	c0-6.982,4.655-11.636,11.636-11.636h302.545c6.982,0,11.636,4.655,11.636,11.636l0,0C488.727,41.891,484.073,46.545,477.091,46.545
	z"/>
<g>
	<path style="fill:#B0C4D8;" d="M87.273,93.091h69.818c3.491,0,5.818,2.327,5.818,5.818l0,0c0,3.491-2.327,5.818-5.818,5.818H87.273
		c-3.491,0-5.818-2.327-5.818-5.818l0,0C81.455,95.418,83.782,93.091,87.273,93.091z"/>
	<path style="fill:#B0C4D8;" d="M424.727,93.091H448c3.491,0,5.818,2.327,5.818,5.818l0,0c0,3.491-2.327,5.818-5.818,5.818h-23.273
		c-3.491,0-5.818-2.327-5.818-5.818l0,0C418.909,95.418,421.236,93.091,424.727,93.091z"/>
	<path style="fill:#B0C4D8;" d="M378.182,93.091h23.273c3.491,0,5.818,2.327,5.818,5.818l0,0c0,3.491-2.327,5.818-5.818,5.818
		h-23.273c-3.491,0-5.818-2.327-5.818-5.818l0,0C372.364,95.418,374.691,93.091,378.182,93.091z"/>
	<path style="fill:#B0C4D8;" d="M331.636,93.091h23.273c3.491,0,5.818,2.327,5.818,5.818l0,0c0,3.491-2.327,5.818-5.818,5.818
		h-23.273c-3.491,0-5.818-2.327-5.818-5.818l0,0C325.818,95.418,328.145,93.091,331.636,93.091z"/>
	<path style="fill:#B0C4D8;" d="M64,93.091c-3.491,0-5.818,2.327-5.818,5.818l0,0c0,3.491,2.327,5.818,5.818,5.818
		c3.491,0,5.818-2.327,5.818-5.818l0,0C69.818,95.418,67.491,93.091,64,93.091z M64,96.582C64,96.582,64,95.418,64,96.582L64,96.582
		C64,95.418,64,96.582,64,96.582z"/>
</g>
<g>
	<path style="fill:#B0C4D9;" d="M302.545,174.545H256l-9.309,39.564l0,0c-8.145,2.327-15.127,4.655-22.109,6.982h110.545
		c-6.982-3.491-15.127-5.818-22.109-6.982l0,0L302.545,174.545z"/>
	<polygon style="fill:#B0C4D9;" points="160.582,221.091 192,221.091 172.218,209.455 	"/>
	<polygon style="fill:#B0C4D9;" points="366.545,221.091 397.964,221.091 386.327,209.455 	"/>
</g>
<path style="fill:#1470B8;" d="M430.545,360.727v-46.545l-39.564-9.309c-3.491-13.964-9.309-27.927-16.291-39.564l20.945-34.909
	l-32.582-32.582l-34.909,20.945c-11.636-6.982-25.6-12.8-39.564-16.291l0,0l-9.309-39.564h-46.545l-9.309,39.564l0,0
	c-13.964,3.491-27.927,9.309-39.564,16.291l-34.909-20.945L116.364,230.4l20.945,34.909c-6.982,11.636-12.8,25.6-16.291,39.564
	l-39.564,9.309v46.545l39.564,9.309l0,0c3.491,13.964,9.309,27.927,16.291,39.564l-20.945,34.909l32.582,32.582l34.909-20.945
	c11.636,6.982,25.6,12.8,39.564,16.291L232.727,512h46.545l9.309-39.564c13.964-3.491,27.927-9.309,39.564-16.291l34.909,20.945
	l32.582-32.582L374.691,409.6c6.982-11.636,12.8-25.6,16.291-39.564L430.545,360.727z M256,338.618L256,338.618L256,338.618
	L256,338.618z M244.364,245.527v84.945l-74.473,43.055c-4.655-10.473-6.982-23.273-6.982-36.073
	C162.909,289.745,198.982,251.345,244.364,245.527z M256,430.545c-30.255,0-57.018-15.127-74.473-37.236L256,350.255l74.473,43.055
	C313.018,416.582,286.255,430.545,256,430.545z M342.109,373.527l-74.473-43.055v-86.109c45.382,5.818,81.455,45.382,81.455,91.927
	C349.091,350.255,346.764,361.891,342.109,373.527z"/>
<path style="fill:#3689C9;" d="M256,430.545v11.636c58.182,0,104.727-46.545,104.727-104.727h-11.636
	C349.091,388.655,307.2,430.545,256,430.545z"/>
<path style="fill:#0261A5;" d="M256,244.364v-11.636c-58.182,0-104.727,46.545-104.727,104.727h11.636
	C162.909,286.255,204.8,244.364,256,244.364z"/>
<circle style="fill:#1470B8;" cx="256" cy="337.455" r="23.273"/>
<g>
	<path style="fill:#0261A5;" d="M265.309,316.509c1.164,3.491,2.327,5.818,2.327,9.309c0,12.8-10.473,23.273-23.273,23.273
		c-3.491,0-6.982-1.164-9.309-2.327c3.491,8.145,11.636,13.964,20.945,13.964c12.8,0,23.273-10.473,23.273-23.273
		C279.273,328.145,273.455,320,265.309,316.509z"/>
	<path style="fill:#0261A5;" d="M187.345,399.127l1.164,1.164l0,0c-1.164-1.164-1.164-2.327-2.327-2.327
		C186.182,399.127,186.182,399.127,187.345,399.127z"/>
	<path style="fill:#0261A5;" d="M195.491,408.436C195.491,408.436,195.491,407.273,195.491,408.436
		c-3.491-3.491-5.818-4.655-8.145-6.982C190.836,403.782,193.164,406.109,195.491,408.436z"/>
	<path style="fill:#0261A5;" d="M176.873,368.873l-6.982,3.491v1.164c2.327,4.655,4.655,9.309,6.982,12.8l1.164,1.164
		c1.164,1.164,2.327,3.491,3.491,4.655l3.491-1.164C181.527,384,178.036,377.018,176.873,368.873z"/>
	<path style="fill:#0261A5;" d="M244.364,245.527v13.964c6.982-2.327,15.127-3.491,23.273-3.491v-10.473
		c-3.491,0-8.145-1.164-11.636-1.164C252.509,244.364,247.855,244.364,244.364,245.527L244.364,245.527z"/>
	<path style="fill:#0261A5;" d="M181.527,393.309c1.164,2.327,2.327,3.491,4.655,4.655
		C185.018,396.8,182.691,394.473,181.527,393.309L181.527,393.309z"/>
</g>
<g>
</g>
<g>
</g>
<g>
</g>
<g>
</g>
<g>
</g>
<g>
</g>
<g>
</g>
<g>
</g>
<g>
</g>
<g>
</g>
<g>
</g>
<g>
</g>
<g>
</g>
<g>
</g>
<g>
</g>
</svg>
