<?xml version="1.0" encoding="iso-8859-1"?>
<!-- Generator: Adobe Illustrator 19.0.0, SVG Export Plug-In . SVG Version: 6.00 Build 0)  -->
<svg version="1.1" id="Capa_1" xmlns="http://www.w3.org/2000/svg" xmlns:xlink="http://www.w3.org/1999/xlink" x="0px" y="0px" width="100" height="100"
	 viewBox="0 0 512 512" style="enable-background:new 0 0 512 512;" xml:space="preserve">
<path style="fill:#C97629;" d="M418.909,500.364H93.091c-45.382,0-81.455-36.073-81.455-81.455V93.091
	c0-45.382,36.073-81.455,81.455-81.455h325.818c45.382,0,81.455,36.073,81.455,81.455v325.818
	C500.364,464.291,464.291,500.364,418.909,500.364z M93.091,34.909c-32.582,0-58.182,25.6-58.182,58.182v325.818
	c0,32.582,25.6,58.182,58.182,58.182h325.818c32.582,0,58.182-25.6,58.182-58.182V93.091c0-32.582-25.6-58.182-58.182-58.182H93.091
	z"/>
<g>
	<path style="fill:#B06328;" d="M166.4,477.091c30.255,15.127,65.164,23.273,101.236,23.273s69.818-8.145,101.236-23.273H166.4z"/>
	<path style="fill:#B06328;" d="M477.091,368.873c15.127-30.255,23.273-65.164,23.273-101.236s-8.145-69.818-23.273-101.236V368.873
		z"/>
</g>
<g>
	<path style="fill:#F6B545;" d="M477.091,279.273h23.273c6.982,0,11.636-4.655,11.636-11.636v-23.273
		c0-6.982-4.655-11.636-11.636-11.636h-23.273V279.273z"/>
	<path style="fill:#F6B545;" d="M34.909,232.727H11.636C4.655,232.727,0,237.382,0,244.364v23.273
		c0,6.982,4.655,11.636,11.636,11.636h23.273V232.727z"/>
</g>
<path style="fill:#FFCB5B;" d="M34.909,244.364v-11.636H11.636C4.655,232.727,0,237.382,0,244.364v23.273
	c0,6.982,4.655,11.636,11.636,11.636v-34.909H34.909z"/>
<g>
	<path style="fill:#F6B545;" d="M232.727,477.091v23.273c0,6.982,4.655,11.636,11.636,11.636h23.273
		c6.982,0,11.636-4.655,11.636-11.636v-23.273H232.727z"/>
	<path style="fill:#F6B545;" d="M279.273,34.909V11.636C279.273,4.655,274.618,0,267.636,0h-23.273
		c-6.982,0-11.636,4.655-11.636,11.636v23.273H279.273z"/>
</g>
<path style="fill:#FFCB5B;" d="M267.636,0h-23.273c-6.982,0-11.636,4.655-11.636,11.636v11.636c0-6.982,4.655-11.636,11.636-11.636
	h23.273c6.982,0,11.636,4.655,11.636,11.636V11.636C279.273,4.655,274.618,0,267.636,0z"/>
<g>
	<path style="fill:#F19920;" d="M279.273,499.2v-22.109h-46.545v20.945c11.636,1.164,23.273,2.327,34.909,2.327
		C271.127,500.364,275.782,500.364,279.273,499.2z"/>
	<path style="fill:#F19920;" d="M498.036,232.727h-20.945v46.545H499.2c0-3.491,1.164-8.145,1.164-11.636
		C500.364,256,499.2,244.364,498.036,232.727z"/>
</g>
<path style="fill:#D5E3EF;" d="M256,23.273C128,23.273,23.273,128,23.273,256S128,488.727,256,488.727S488.727,384,488.727,256
	S384,23.273,256,23.273z M256,372.364C192,372.364,139.636,320,139.636,256S192,139.636,256,139.636S372.364,192,372.364,256
	S320,372.364,256,372.364z"/>
<path style="fill:#B0C4D9;" d="M256,139.636L256,139.636c0-12.8-11.636-23.273-24.436-20.945
	c-57.018,10.473-102.4,55.855-112.873,112.873c-2.327,12.8,8.145,24.436,20.945,24.436l0,0c0-31.418,12.8-60.509,33.745-81.455
	C194.327,152.436,223.418,139.636,256,139.636z"/>
<path style="fill:#ECF0F9;" d="M256,23.273L256,23.273C128,23.273,23.273,128,23.273,256l0,0c24.436,0,45.382-17.455,51.2-40.727
	c9.309-38.4,29.091-73.309,58.182-98.909c23.273-19.782,51.2-34.909,81.455-41.891C238.545,68.655,256,47.709,256,23.273z"/>
<path style="fill:#F04D4E;" d="M173.382,173.382c12.8-12.8,27.927-22.109,44.218-27.927L158.255,44.218
	c-24.436,11.636-46.545,26.764-67.491,46.545c-19.782,19.782-34.909,43.055-46.545,67.491L145.455,217.6
	C151.273,201.309,160.582,186.182,173.382,173.382z"/>
<path style="fill:#F26A56;" d="M158.255,45.382c-24.436,11.636-46.545,26.764-67.491,46.545s-34.909,43.055-46.545,67.491
	l40.727,23.273c10.473-25.6,26.764-47.709,47.709-65.164c13.964-12.8,31.418-23.273,48.873-31.418L158.255,45.382z"/>
<path style="fill:#DB343F;" d="M125.673,205.964l20.945,11.636c5.818-16.291,15.127-31.418,27.927-44.218
	c12.8-12.8,27.927-22.109,44.218-27.927l-11.636-20.945C168.727,139.636,139.636,168.727,125.673,205.964z"/>
<path style="fill:#B0C4D9;" d="M442.182,256c0,102.4-83.782,186.182-186.182,186.182c-20.945,0-41.891-3.491-60.509-10.473
	c-20.945-6.982-44.218,9.309-44.218,31.418l0,0c34.909,17.455,73.309,26.764,115.2,24.436
	C385.164,481.745,482.909,384,488.727,265.309c2.327-41.891-6.982-80.291-24.436-115.2l0,0c-23.273,0-39.564,22.109-31.418,44.218
	C438.691,214.109,442.182,235.055,442.182,256z"/>
<path style="fill:#F04D4E;" d="M353.745,45.382L294.4,146.618c16.291,5.818,31.418,15.127,44.218,27.927
	s22.109,27.927,27.927,44.218l101.236-59.345c-11.636-24.436-26.764-46.545-46.545-67.491S378.182,55.855,353.745,45.382z"/>
<path style="fill:#DB343F;" d="M466.618,158.255c-1.164-2.327-2.327-4.655-3.491-6.982c-17.455,0-30.255,12.8-32.582,27.927
	L466.618,158.255z"/>
<path style="fill:#F04D4E;" d="M158.255,466.618L217.6,365.382c-16.291-5.818-31.418-15.127-44.218-27.927
	c-12.8-12.8-22.109-27.927-27.927-44.218L44.218,352.582c11.636,24.436,26.764,46.545,46.545,67.491
	C111.709,441.018,133.818,456.145,158.255,466.618z"/>
<path style="fill:#DB343F;" d="M151.273,463.127c2.327,1.164,4.655,2.327,6.982,3.491l20.945-36.073
	C164.073,432.873,151.273,445.673,151.273,463.127z"/>
<path style="fill:#ECF0F9;" d="M371.2,268.8c-5.818,53.527-50.036,97.745-104.727,103.564c-11.636,1.164-23.273,0-34.909-2.327
	v2.327c0,12.8,10.473,23.273,23.273,23.273l0,0c76.8,0,139.636-62.836,139.636-139.636c0-4.655,0-9.309-1.164-13.964
	c-1.164-11.636-11.636-20.945-23.273-20.945h-4.655C371.2,236.218,373.527,252.509,371.2,268.8z"/>
<path style="fill:#99B4CD;" d="M487.564,279.273L487.564,279.273c-12.8,0-24.436,9.309-26.764,22.109
	c-17.455,79.127-80.291,140.8-158.255,158.255c-12.8,2.327-22.109,13.964-22.109,26.764l0,0
	C388.655,477.091,477.091,388.655,487.564,279.273z"/>
<path style="fill:#F04D4E;" d="M338.618,338.618c-12.8,12.8-27.927,22.109-44.218,27.927l59.345,101.236
	c24.436-11.636,46.545-26.764,67.491-46.545c19.782-19.782,34.909-43.055,46.545-67.491L366.545,294.4
	C360.727,310.691,351.418,325.818,338.618,338.618z"/>
<path style="fill:#F26A56;" d="M386.327,306.036L365.382,294.4c-5.818,16.291-15.127,31.418-27.927,44.218
	c-12.8,12.8-27.927,22.109-44.218,27.927l11.636,20.945C343.273,372.364,372.364,343.273,386.327,306.036z"/>
<path style="fill:#DB343F;" d="M353.745,466.618c24.436-11.636,46.545-26.764,67.491-46.545
	c20.945-19.782,34.909-43.055,46.545-67.491l-40.727-23.273c-18.618,43.055-53.527,77.964-96.582,96.582L353.745,466.618z"/>
<path style="fill:#C61C31;" d="M446.836,342.109c-20.945,46.545-58.182,83.782-104.727,104.727l11.636,19.782
	c1.164,0,1.164,0,2.327-1.164c48.873-23.273,87.273-62.836,110.545-110.545c0-1.164,0-1.164,1.164-2.327L446.836,342.109z"/>
<g>
</g>
<g>
</g>
<g>
</g>
<g>
</g>
<g>
</g>
<g>
</g>
<g>
</g>
<g>
</g>
<g>
</g>
<g>
</g>
<g>
</g>
<g>
</g>
<g>
</g>
<g>
</g>
<g>
</g>
</svg>
