<?xml version="1.0" encoding="iso-8859-1"?>
<!-- Generator: Adobe Illustrator 19.0.0, SVG Export Plug-In . SVG Version: 6.00 Build 0)  -->
<svg version="1.1" id="Capa_1" xmlns="http://www.w3.org/2000/svg" xmlns:xlink="http://www.w3.org/1999/xlink" x="0px" y="0px" width="100" height="100"
	 viewBox="0 0 512 512" style="enable-background:new 0 0 512 512;" xml:space="preserve">
<path style="fill:#99B4CD;" d="M197.818,500.364h-81.455c-6.982,0-11.636-4.655-11.636-11.636c0-6.982,4.655-11.636,11.636-11.636
	h81.455c6.982,0,11.636,4.655,11.636,11.636C209.455,495.709,204.8,500.364,197.818,500.364z"/>
<path style="fill:#6C9ABB;" d="M116.364,500.364h81.455c6.982,0,11.636-4.655,11.636-11.636H104.727
	C104.727,495.709,109.382,500.364,116.364,500.364z"/>
<path style="fill:#99B4CD;" d="M256,477.091c-6.982,0-11.636-4.655-11.636-11.636V360.727c0-6.982,4.655-11.636,11.636-11.636
	c6.982,0,11.636,4.655,11.636,11.636v104.727C267.636,472.436,262.982,477.091,256,477.091z"/>
<g>
	<path style="fill:#595A66;" d="M465.455,139.636v93.091c0,6.982-4.655,11.636-11.636,11.636H58.182
		c-6.982,0-11.636-4.655-11.636-11.636v-93.091c0-6.982,4.655-11.636,11.636-11.636h395.636
		C460.8,128,465.455,132.655,465.455,139.636z"/>
	<path style="fill:#595A66;" d="M465.455,11.636v93.091c0,6.982-4.655,11.636-11.636,11.636H58.182
		c-6.982,0-11.636-4.655-11.636-11.636V11.636C46.545,4.655,51.2,0,58.182,0h395.636C459.636,0,465.455,4.655,465.455,11.636z"/>
	<path style="fill:#595A66;" d="M465.455,267.636v93.091c0,5.818-5.818,11.636-11.636,11.636H58.182
		c-6.982,0-11.636-5.818-11.636-11.636v-93.091c0-6.982,4.655-11.636,11.636-11.636h395.636
		C460.8,256,465.455,260.655,465.455,267.636z"/>
</g>
<path style="fill:#99B4CD;" d="M395.636,500.364h-81.455c-6.982,0-11.636-4.655-11.636-11.636c0-6.982,4.655-11.636,11.636-11.636
	h81.455c6.982,0,11.636,4.655,11.636,11.636C407.273,495.709,402.618,500.364,395.636,500.364z"/>
<g>
	<path style="fill:#35363E;" d="M244.364,81.455c-6.982,0-11.636-4.655-11.636-11.636V46.545c0-6.982,4.655-11.636,11.636-11.636
		c6.982,0,11.636,4.655,11.636,11.636v23.273C256,76.8,251.345,81.455,244.364,81.455z"/>
	<path style="fill:#35363E;" d="M279.273,81.455c-6.982,0-11.636-4.655-11.636-11.636V46.545c0-6.982,4.655-11.636,11.636-11.636
		s11.636,4.655,11.636,11.636v23.273C290.909,76.8,286.255,81.455,279.273,81.455z"/>
	<path style="fill:#35363E;" d="M314.182,81.455c-6.982,0-11.636-4.655-11.636-11.636V46.545c0-6.982,4.655-11.636,11.636-11.636
		s11.636,4.655,11.636,11.636v23.273C325.818,76.8,321.164,81.455,314.182,81.455z"/>
	<path style="fill:#35363E;" d="M349.091,81.455c-6.982,0-11.636-4.655-11.636-11.636V46.545c0-6.982,4.655-11.636,11.636-11.636
		c6.982,0,11.636,4.655,11.636,11.636v23.273C360.727,76.8,356.073,81.455,349.091,81.455z"/>
	<path style="fill:#35363E;" d="M384,81.455c-6.982,0-11.636-4.655-11.636-11.636V46.545c0-6.982,4.655-11.636,11.636-11.636
		c6.982,0,11.636,4.655,11.636,11.636v23.273C395.636,76.8,390.982,81.455,384,81.455z"/>
	<path style="fill:#35363E;" d="M418.909,81.455c-6.982,0-11.636-4.655-11.636-11.636V46.545c0-6.982,4.655-11.636,11.636-11.636
		c6.982,0,11.636,4.655,11.636,11.636v23.273C430.545,76.8,425.891,81.455,418.909,81.455z"/>
	<path style="fill:#35363E;" d="M244.364,209.455c-6.982,0-11.636-4.655-11.636-11.636v-23.273c0-6.982,4.655-11.636,11.636-11.636
		c6.982,0,11.636,4.655,11.636,11.636v23.273C256,204.8,251.345,209.455,244.364,209.455z"/>
	<path style="fill:#35363E;" d="M279.273,209.455c-6.982,0-11.636-4.655-11.636-11.636v-23.273c0-6.982,4.655-11.636,11.636-11.636
		s11.636,4.655,11.636,11.636v23.273C290.909,204.8,286.255,209.455,279.273,209.455z"/>
	<path style="fill:#35363E;" d="M314.182,209.455c-6.982,0-11.636-4.655-11.636-11.636v-23.273c0-6.982,4.655-11.636,11.636-11.636
		s11.636,4.655,11.636,11.636v23.273C325.818,204.8,321.164,209.455,314.182,209.455z"/>
	<path style="fill:#35363E;" d="M349.091,209.455c-6.982,0-11.636-4.655-11.636-11.636v-23.273c0-6.982,4.655-11.636,11.636-11.636
		c6.982,0,11.636,4.655,11.636,11.636v23.273C360.727,204.8,356.073,209.455,349.091,209.455z"/>
	<path style="fill:#35363E;" d="M384,209.455c-6.982,0-11.636-4.655-11.636-11.636v-23.273c0-6.982,4.655-11.636,11.636-11.636
		c6.982,0,11.636,4.655,11.636,11.636v23.273C395.636,204.8,390.982,209.455,384,209.455z"/>
	<path style="fill:#35363E;" d="M418.909,209.455c-6.982,0-11.636-4.655-11.636-11.636v-23.273c0-6.982,4.655-11.636,11.636-11.636
		c6.982,0,11.636,4.655,11.636,11.636v23.273C430.545,204.8,425.891,209.455,418.909,209.455z"/>
	<path style="fill:#35363E;" d="M244.364,337.455c-6.982,0-11.636-4.655-11.636-11.636v-23.273c0-6.982,4.655-11.636,11.636-11.636
		c6.982,0,11.636,4.655,11.636,11.636v23.273C256,332.8,251.345,337.455,244.364,337.455z"/>
	<path style="fill:#35363E;" d="M279.273,337.455c-6.982,0-11.636-4.655-11.636-11.636v-23.273c0-6.982,4.655-11.636,11.636-11.636
		s11.636,4.655,11.636,11.636v23.273C290.909,332.8,286.255,337.455,279.273,337.455z"/>
	<path style="fill:#35363E;" d="M314.182,337.455c-6.982,0-11.636-4.655-11.636-11.636v-23.273c0-6.982,4.655-11.636,11.636-11.636
		s11.636,4.655,11.636,11.636v23.273C325.818,332.8,321.164,337.455,314.182,337.455z"/>
	<path style="fill:#35363E;" d="M349.091,337.455c-6.982,0-11.636-4.655-11.636-11.636v-23.273c0-6.982,4.655-11.636,11.636-11.636
		c6.982,0,11.636,4.655,11.636,11.636v23.273C360.727,332.8,356.073,337.455,349.091,337.455z"/>
	<path style="fill:#35363E;" d="M384,337.455c-6.982,0-11.636-4.655-11.636-11.636v-23.273c0-6.982,4.655-11.636,11.636-11.636
		c6.982,0,11.636,4.655,11.636,11.636v23.273C395.636,332.8,390.982,337.455,384,337.455z"/>
	<path style="fill:#35363E;" d="M418.909,337.455c-6.982,0-11.636-4.655-11.636-11.636v-23.273c0-6.982,4.655-11.636,11.636-11.636
		c6.982,0,11.636,4.655,11.636,11.636v23.273C430.545,332.8,425.891,337.455,418.909,337.455z"/>
</g>
<circle style="fill:#89C763;" cx="93.091" cy="314.182" r="11.636"/>
<circle style="fill:#FFCB5B;" cx="128" cy="314.182" r="11.636"/>
<g>
	<circle style="fill:#89C763;" cx="162.909" cy="314.182" r="11.636"/>
	<circle style="fill:#89C763;" cx="93.091" cy="186.182" r="11.636"/>
	<circle style="fill:#89C763;" cx="128" cy="186.182" r="11.636"/>
</g>
<circle style="fill:#FFCB5B;" cx="162.909" cy="186.182" r="11.636"/>
<circle style="fill:#89C763;" cx="93.091" cy="58.182" r="11.636"/>
<g>
	<circle style="fill:#FFCB5B;" cx="128" cy="58.182" r="11.636"/>
	<circle style="fill:#FFCB5B;" cx="162.909" cy="58.182" r="11.636"/>
</g>
<polygon style="fill:#6C9ABB;" points="244.364,372.364 244.364,384 256,384 256,465.455 267.636,465.455 267.636,384 
	267.636,372.364 "/>
<g>
	<path style="fill:#6F707E;" d="M308.364,267.636H87.273c-3.491,0-5.818-2.327-5.818-5.818l0,0c0-3.491,2.327-5.818,5.818-5.818
		h221.091c3.491,0,5.818,2.327,5.818,5.818l0,0C314.182,265.309,311.855,267.636,308.364,267.636z"/>
	<path style="fill:#6F707E;" d="M296.727,139.636H75.636c-3.491,0-5.818-2.327-5.818-5.818l0,0c0-3.491,2.327-5.818,5.818-5.818
		h221.091c3.491,0,5.818,2.327,5.818,5.818l0,0C302.545,137.309,300.218,139.636,296.727,139.636z"/>
	<path style="fill:#6F707E;" d="M296.727,11.636H75.636c-3.491,0-5.818-2.327-5.818-5.818l0,0C69.818,2.327,72.145,0,75.636,0
		h221.091c3.491,0,5.818,2.327,5.818,5.818l0,0C302.545,9.309,300.218,11.636,296.727,11.636z"/>
</g>
<path style="fill:#6C9ABB;" d="M314.182,500.364h81.455c6.982,0,11.636-4.655,11.636-11.636H302.545
	C302.545,495.709,307.2,500.364,314.182,500.364z"/>
<path style="fill:#595A66;" d="M290.909,512h-69.818c-12.8,0-23.273-10.473-23.273-23.273l0,0c0-12.8,10.473-23.273,23.273-23.273
	h69.818c12.8,0,23.273,10.473,23.273,23.273l0,0C314.182,501.527,303.709,512,290.909,512z"/>
<g>
	<path style="fill:#494A52;" d="M290.909,512h-69.818v-11.636c0-6.982,4.655-11.636,11.636-11.636h81.455l0,0
		C314.182,501.527,303.709,512,290.909,512z"/>
	<path style="fill:#494A52;" d="M459.636,23.273c-3.491,0-5.818,2.327-5.818,5.818v75.636H46.545
		c0,6.982,4.655,11.636,11.636,11.636h395.636c6.982,0,11.636-4.655,11.636-11.636V29.091
		C465.455,25.6,463.127,23.273,459.636,23.273z"/>
	<path style="fill:#494A52;" d="M459.636,151.273c-3.491,0-5.818,2.327-5.818,5.818v75.636H46.545
		c0,6.982,4.655,11.636,11.636,11.636h395.636c6.982,0,11.636-4.655,11.636-11.636v-75.636
		C465.455,153.6,463.127,151.273,459.636,151.273z"/>
	<path style="fill:#494A52;" d="M459.636,279.273c-3.491,0-5.818,2.327-5.818,5.818v75.636H46.545
		c0,6.982,4.655,11.636,11.636,11.636h395.636c6.982,0,11.636-4.655,11.636-11.636v-75.636
		C465.455,281.6,463.127,279.273,459.636,279.273z"/>
</g>
<g>
	<rect x="81.455" y="244.364" style="fill:#35363E;" width="349.091" height="11.636"/>
	<rect x="81.455" y="116.364" style="fill:#35363E;" width="349.091" height="11.636"/>
</g>
<g>
</g>
<g>
</g>
<g>
</g>
<g>
</g>
<g>
</g>
<g>
</g>
<g>
</g>
<g>
</g>
<g>
</g>
<g>
</g>
<g>
</g>
<g>
</g>
<g>
</g>
<g>
</g>
<g>
</g>
</svg>
