<?xml version="1.0" encoding="iso-8859-1"?>
<!-- Generator: Adobe Illustrator 19.0.0, SVG Export Plug-In . SVG Version: 6.00 Build 0)  -->
<svg version="1.1" id="Capa_1" xmlns="http://www.w3.org/2000/svg" xmlns:xlink="http://www.w3.org/1999/xlink" x="0px" y="0px" width="100" height="100" fill="#1fa1af"
	 viewBox="0 0 512 512" style="enable-background:new 0 0 512 512;" xml:space="preserve">
<g>
	<g>
		<path d="M420.291,222.194l22.133,12.778c7.177,4.141,16.348,1.683,20.49-5.491l30-51.962c1.989-3.445,2.528-7.54,1.499-11.382
			c-1.03-3.843-3.544-7.119-6.989-9.108l-21.823-12.6c0.268-2.902,0.399-5.7,0.399-8.429s-0.132-5.527-0.399-8.429l21.823-12.6
			c3.445-1.989,5.959-5.265,6.989-9.108c1.029-3.843,0.49-7.937-1.499-11.382l-30-51.962c-4.143-7.175-13.316-9.632-20.49-5.49
			l-22.133,12.777c-4.551-3.146-9.324-5.913-14.291-8.286V15c0-8.284-6.716-15-15-15h-60c-8.284,0-15,6.716-15,15v26.52
			c-4.967,2.373-9.74,5.14-14.291,8.286l-22.133-12.777c-7.174-4.143-16.349-1.684-20.49,5.49l-30,51.962
			c-1.989,3.445-2.528,7.54-1.499,11.382c1.029,3.842,3.543,7.119,6.989,9.108l21.823,12.599c-0.268,2.903-0.4,5.701-0.4,8.429
			c0,2.677,0.127,5.42,0.385,8.264c0,0-40.777,22.744-45.959,25.635c-4.592-3.184-9.41-5.982-14.425-8.379V136
			c0-8.284-6.716-15-15-15h-60c-8.284,0-15,6.716-15,15v25.52c-4.967,2.373-9.74,5.14-14.292,8.286l-22.132-12.778
			c-7.176-4.142-16.349-1.684-20.49,5.49l-30,51.962c-1.989,3.445-2.528,7.54-1.499,11.382c1.029,3.843,3.543,7.119,6.989,9.108
			l21.823,12.601c-0.268,2.903-0.4,5.701-0.4,8.429c0,2.728,0.132,5.526,0.4,8.429l-21.823,12.599
			c-3.446,1.99-5.96,5.266-6.989,9.109c-1.03,3.843-0.491,7.937,1.499,11.382l30,51.962c4.142,7.174,13.315,9.633,20.49,5.49
			l22.132-12.777c4.552,3.146,9.324,5.913,14.292,8.286V376c0,8.284,6.716,15,15,15h60c8.284,0,15-6.716,15-15v-25.52
			c5.017-2.396,9.833-5.194,14.425-8.378l23.267,12.979c0,0,0.001,0,0.001,0.001l22.691,12.655
			c-0.258,2.843-0.385,5.587-0.385,8.263c0,2.728,0.132,5.526,0.4,8.429l-21.823,12.599c-3.445,1.989-5.959,5.265-6.989,9.108
			c-1.03,3.843-0.491,7.937,1.499,11.382l30,51.962c4.142,7.174,13.314,9.633,20.49,5.49l22.133-12.777
			c4.552,3.146,9.323,5.913,14.291,8.286V497c0,8.284,6.716,15,15,15h60c8.284,0,15-6.716,15-15v-26.52
			c4.968-2.374,9.739-5.14,14.291-8.286l22.133,12.778c7.177,4.141,16.348,1.683,20.49-5.491l30-51.962
			c1.989-3.445,2.528-7.54,1.499-11.382c-1.03-3.843-3.544-7.119-6.989-9.108l-21.823-12.6c0.268-2.902,0.399-5.7,0.399-8.429
			c0-2.729-0.132-5.527-0.399-8.429l21.823-12.6c3.445-1.989,5.959-5.265,6.989-9.108c1.029-3.843,0.49-7.937-1.499-11.382
			l-30-51.962c-4.143-7.175-13.316-9.632-20.49-5.49l-22.133,12.777c-4.551-3.146-9.324-5.913-14.291-8.286
			c0-16.233,0-34.807,0-51.04C410.968,228.106,415.739,225.34,420.291,222.194z M224.599,242.352c0.954,5.185,1.4,9.522,1.4,13.648
			c0,4.126-0.445,8.463-1.401,13.648c-1.166,6.324,1.829,12.688,7.445,15.82l18.354,10.236l-14.998,25.977l-18.974-10.585
			c-5.476-3.054-12.273-2.381-17.043,1.688c-7,5.971-14.875,10.537-23.407,13.571c-5.98,2.126-9.975,7.786-9.975,14.133V361h-30
			v-20.511c0-6.347-3.995-12.007-9.975-14.133c-8.533-3.033-16.408-7.599-23.407-13.571c-4.831-4.121-11.735-4.755-17.235-1.579
			L67.566,321.49l-15-25.981l17.583-10.151c5.498-3.174,8.402-9.467,7.251-15.71c-0.956-5.185-1.401-9.522-1.401-13.648
			c0-4.126,0.445-8.463,1.401-13.648c1.151-6.244-1.753-12.536-7.251-15.71L52.566,216.49l15-25.981l17.815,10.285
			c5.5,3.176,12.405,2.543,17.235-1.579c7-5.972,14.875-10.538,23.407-13.571c5.98-2.126,9.976-7.786,9.976-14.134V151h30v20.511
			c0,6.347,3.995,12.007,9.976,14.134c8.532,3.033,16.407,7.599,23.407,13.571c4.77,4.069,11.567,4.743,17.043,1.688l18.975-10.585
			l14.998,25.977l-18.354,10.236C226.428,229.664,223.433,236.028,224.599,242.352z M255.614,264.263
			c0.258-2.843,0.385-5.586,0.385-8.263c0-2.676-0.127-5.42-0.385-8.264c0,0,31.555-17.599,45.96-25.635
			c4.592,3.184,9.408,5.982,14.425,8.378c0,16.233,0,34.807,0,51.04c-5.016,2.396-9.833,5.195-14.425,8.379
			C301.389,289.795,255.714,264.319,255.614,264.263z M409.38,319.215c4.832,4.122,11.735,4.755,17.236,1.58l17.816-10.286
			l15,25.981l-17.583,10.151c-5.498,3.175-8.402,9.467-7.251,15.71c0.955,5.183,1.4,9.52,1.4,13.648c0,4.128-0.445,8.465-1.4,13.648
			c-1.151,6.244,1.753,12.536,7.251,15.71l17.583,10.151l-15,25.981l-17.816-10.286c-5.501-3.176-12.404-2.542-17.236,1.58
			c-6.998,5.971-14.873,10.537-23.405,13.571c-5.98,2.126-9.976,7.786-9.976,14.133V482h-30v-21.511
			c0-6.347-3.995-12.007-9.976-14.133c-8.532-3.034-16.407-7.599-23.405-13.571c-4.832-4.122-11.735-4.755-17.236-1.58
			l-17.815,10.286l-15-25.981l17.583-10.151c5.499-3.175,8.403-9.467,7.252-15.71c-0.958-5.186-1.403-9.523-1.403-13.649
			c0-4.126,0.445-8.463,1.401-13.648c1.166-6.324-1.829-12.688-7.445-15.82l-18.354-10.236l14.998-25.977l18.975,10.585
			c5.478,3.055,12.272,2.381,17.044-1.688c6.998-5.971,14.873-10.537,23.405-13.57c5.98-2.126,9.976-7.786,9.976-14.134V271h30
			v20.511c0,6.347,3.995,12.007,9.976,14.134C394.507,308.678,402.382,313.244,409.38,319.215z M385.974,206.354
			c-5.98,2.126-9.976,7.786-9.976,14.133V241h-30v-20.511c0-6.347-3.995-12.007-9.976-14.133
			c-8.532-3.034-16.407-7.599-23.405-13.571c-4.771-4.07-11.566-4.743-17.044-1.689l-18.974,10.585l-14.998-25.977l18.354-10.236
			c5.616-3.132,8.611-9.496,7.445-15.82c-0.956-5.185-1.401-9.522-1.401-13.648c0-4.126,0.445-8.463,1.401-13.648
			c1.151-6.244-1.753-12.536-7.252-15.71L262.566,96.49l15-25.981l17.815,10.285c5.5,3.175,12.403,2.543,17.236-1.579
			c6.998-5.971,14.873-10.537,23.405-13.57c5.98-2.126,9.976-7.786,9.976-14.134V30h30v21.511c0,6.347,3.995,12.007,9.976,14.134
			c8.532,3.033,16.407,7.599,23.405,13.57c4.832,4.122,11.735,4.755,17.236,1.58l17.816-10.286l15,25.981l-17.583,10.151
			c-5.498,3.175-8.402,9.467-7.251,15.71c0.955,5.183,1.4,9.52,1.4,13.648c0,4.128-0.445,8.465-1.4,13.648
			c-1.151,6.244,1.753,12.536,7.251,15.71l17.583,10.151l-15,25.981l-17.816-10.286c-5.501-3.176-12.404-2.542-17.236,1.58
			C402.381,198.754,394.506,203.32,385.974,206.354z"/>
	</g>
</g>
<g>
	<g>
		<path d="M150.999,211c-24.813,0-45,20.187-45,45s20.187,45,45,45s45-20.187,45-45S175.812,211,150.999,211z M150.999,271
			c-8.271,0-15-6.729-15-15s6.729-15,15-15s15,6.729,15,15S159.27,271,150.999,271z"/>
	</g>
</g>
<g>
	<g>
		<path d="M360.999,91c-24.813,0-45,20.187-45,45s20.186,45,45,45c24.813,0,45-20.187,45-45S385.812,91,360.999,91z M360.999,151
			c-8.271,0-15-6.729-15-15s6.728-15,15-15c8.271,0,15,6.729,15,15S369.27,151,360.999,151z"/>
	</g>
</g>
<g>
	<g>
		<path d="M360.999,331c-24.813,0-45,20.187-45,45s20.187,45,45,45s45-20.187,45-45S385.812,331,360.999,331z M360.999,391
			c-8.271,0-15-6.729-15-15s6.729-15,15-15s15,6.729,15,15S369.27,391,360.999,391z"/>
	</g>
</g>
<g>
</g>
<g>
</g>
<g>
</g>
<g>
</g>
<g>
</g>
<g>
</g>
<g>
</g>
<g>
</g>
<g>
</g>
<g>
</g>
<g>
</g>
<g>
</g>
<g>
</g>
<g>
</g>
<g>
</g>
</svg>
