<?xml version="1.0" encoding="iso-8859-1"?>
<!-- Generator: Adobe Illustrator 19.0.0, SVG Export Plug-In . SVG Version: 6.00 Build 0)  -->
<svg version="1.1" id="Capa_1" xmlns="http://www.w3.org/2000/svg" xmlns:xlink="http://www.w3.org/1999/xlink" x="0px" y="0px" width="100" height="100" fill="#1fa1af"
	 viewBox="0 0 512 512" style="enable-background:new 0 0 512 512;" xml:space="preserve">
<g>
	<g>
		<path d="M420.566,170.129C415.015,100.751,356.782,46,286,46c-59.121,0-110.328,38.23-128.125,93.224
			C151.303,137.23,143.523,136,136,136c-39.677,0-72.256,30.972-74.835,70.007C24.176,223.323,0,260.257,0,301
			c0,57.897,47.551,105,106,105c18.082,0,145.047,0,161.972,0l35.547,53.321C306.301,463.493,310.985,466,316,466
			s9.699-2.507,12.481-6.679L364.028,406H391c66.72,0,121-53.832,121-120C512,231.255,473.497,183.501,420.566,170.129z M196,316
			c-8.284,0-15,6.716-15,15v45h-30v-45c0-8.284-6.716-15-15-15h-1.972L166,268.042L197.972,316H196z M343.575,382.595
			c-0.01,0.014-0.019,0.029-0.029,0.043L316,423.958l-27.547-41.32c-0.01-0.014-0.019-0.029-0.029-0.043L284.028,376H286
			c8.284,0,15-6.716,15-15v-45h30v45c0,8.284,6.716,15,15,15h1.972L343.575,382.595z M391,376h-6.972l4.453-6.679
			c3.068-4.603,3.354-10.521,0.744-15.398C386.615,349.046,381.532,346,376,346h-15v-45c0-8.284-6.716-15-15-15h-60
			c-8.284,0-15,6.716-15,15v45h-15c-5.532,0-10.615,3.045-13.225,7.922c-2.61,4.877-2.324,10.796,0.744,15.398l4.453,6.679H211v-30
			h15c5.532,0,10.615-3.045,13.225-7.922c2.61-4.877,2.324-10.796-0.744-15.398l-60-90C175.699,228.507,171.015,226,166,226
			s-9.699,2.507-12.481,6.679l-60,90c-3.068,4.603-3.354,10.521-0.744,15.398C95.385,342.954,100.468,346,106,346h15v30h-15
			c-41.907,0-76-33.645-76-75c0-25.981,13.896-49.82,35.836-63.45c3.712,9.822,9.485,18.836,17.131,26.483
			c5.857,5.857,15.355,5.858,21.213,0c5.858-5.858,5.858-15.355,0-21.213C75.9,214.541,96.18,166,136,166
			c11.994,0,23.378,4.738,31.82,13.18c5.857,5.858,15.355,5.858,21.213,0c5.857-5.858,5.857-15.355,0-21.213
			c-1.369-1.369-2.794-2.659-4.246-3.908C196.866,108.328,238.086,76,286,76c52.775,0,96.573,39.143,103.911,89.918
			c-15.569,0.164-31.074,3.364-45.625,9.519c-7.63,3.227-11.199,12.028-7.972,19.658c3.227,7.629,12.029,11.199,19.658,7.972
			c14.04-5.938,29.235-8.229,44.179-6.707c1.128,0.463,2.322,0.806,3.577,0.986C448.351,203.719,482,241.832,482,286
			C482,335.626,441.178,376,391,376z"/>
	</g>
</g>
<g>
</g>
<g>
</g>
<g>
</g>
<g>
</g>
<g>
</g>
<g>
</g>
<g>
</g>
<g>
</g>
<g>
</g>
<g>
</g>
<g>
</g>
<g>
</g>
<g>
</g>
<g>
</g>
<g>
</g>
</svg>
