<?xml version="1.0" encoding="iso-8859-1"?>
<!-- Generator: Adobe Illustrator 18.0.0, SVG Export Plug-In . SVG Version: 6.00 Build 0)  -->
<!DOCTYPE svg PUBLIC "-//W3C//DTD SVG 1.1//EN" "http://www.w3.org/Graphics/SVG/1.1/DTD/svg11.dtd">
<svg version="1.1" id="Capa_1" xmlns="http://www.w3.org/2000/svg" xmlns:xlink="http://www.w3.org/1999/xlink" x="0px" y="0px" width="48" height="48" fill="#0097A7"
	 viewBox="0 0 480 480" style="enable-background:new 0 0 480 480;" xml:space="preserve">
<g>
	<path d="M240,286.722c62.477,0,113.305-50.829,113.305-113.306S302.477,60.11,240,60.11s-113.305,50.829-113.305,113.306
		S177.523,286.722,240,286.722z M147.232,183.416h31.409c2.062,36.078,15.083,60.997,28.145,77.191
		C174.672,248.332,151.02,218.803,147.232,183.416z M250,256.384v-72.968h31.319c-1.602,24.673-9.219,45.938-22.723,63.312
		C255.68,250.48,252.751,253.685,250,256.384z M250,163.416V90.449c2.751,2.699,5.68,5.904,8.597,9.656
		c13.503,17.374,21.12,38.638,22.723,63.311H250z M230,90.449v72.967h-31.319c1.602-24.673,9.219-45.937,22.723-63.311
		C224.32,96.353,227.25,93.148,230,90.449z M230,183.416v72.999c-12.49-12.282-28.82-35.295-31.318-72.999H230z M273.214,260.607
		c13.062-16.194,26.083-41.113,28.145-77.191h31.409C328.98,218.803,305.328,248.332,273.214,260.607z M332.768,163.416h-31.409
		c-2.062-36.078-15.084-60.997-28.146-77.191C305.327,98.5,328.98,128.028,332.768,163.416z M206.788,86.225
		c-13.062,16.194-26.084,41.114-28.146,77.191h-31.409C151.02,128.028,174.673,98.5,206.788,86.225z"/>
	<path d="M390.016,0H45.939v480h344.076c24.286,0,44.045-19.758,44.045-44.045V44.045C434.061,19.758,414.302,0,390.016,0z
		 M414.061,435.955c0,13.258-10.786,24.045-24.045,24.045H65.939V20h324.076c13.259,0,24.045,10.787,24.045,24.045V435.955z"/>
	<path d="M155.948,346.028H126.4v69.238h15.992v-22.332h14.043c13.263,0,22.137-11.409,22.137-23.502
		C178.572,357.926,169.113,346.028,155.948,346.028z M155.461,378.989h-13.068v-18.918h12.482c3.706,0,7.51,2.925,7.51,9.361
		C162.385,375.674,159.166,378.989,155.461,378.989z"/>
	<path d="M201.486,346.028l-26.623,69.238h16.969l5.266-15.506h21.551l5.364,15.506h16.968l-26.525-69.238H201.486z
		 M199.633,388.741l8.289-25.745l7.996,25.745H199.633z"/>
	<path d="M275.79,373.919c-9.265-2.536-14.433-3.804-14.433-8.484c0-3.804,3.023-5.754,8.484-5.754
		c8.289,0,17.553,5.559,18.528,6.632l6.924-13.263c-6.046-3.608-15.116-7.606-24.965-7.606c-13.848,0-25.55,7.898-25.55,22.526
		c0,10.435,5.948,15.213,18.723,19.114c9.558,2.925,16.676,4.193,16.676,9.361c0,3.315-2.73,5.169-8.483,5.169
		c-10.63,0-21.552-6.729-22.819-8.095l-7.021,13.945c8.191,5.364,19.406,8.582,29.549,8.582c13.359,0,26.037-5.461,26.037-21.162
		C297.439,382.013,289.053,377.526,275.79,373.919z"/>
	<path d="M335.857,373.919c-9.265-2.536-14.434-3.804-14.434-8.484c0-3.804,3.023-5.754,8.484-5.754
		c8.289,0,17.554,5.559,18.529,6.632l6.924-13.263c-6.047-3.608-15.116-7.606-24.965-7.606c-13.848,0-25.551,7.898-25.551,22.526
		c0,10.435,5.949,15.213,18.725,19.114c9.557,2.925,16.675,4.193,16.675,9.361c0,3.315-2.73,5.169-8.483,5.169
		c-10.63,0-21.553-6.729-22.82-8.095l-7.021,13.945c8.191,5.364,19.406,8.582,29.549,8.582c13.359,0,26.037-5.461,26.037-21.162
		C357.506,382.013,349.119,377.526,335.857,373.919z"/>
</g>
<g>
</g>
<g>
</g>
<g>
</g>
<g>
</g>
<g>
</g>
<g>
</g>
<g>
</g>
<g>
</g>
<g>
</g>
<g>
</g>
<g>
</g>
<g>
</g>
<g>
</g>
<g>
</g>
<g>
</g>
</svg>
