<svg xmlns="http://www.w3.org/2000/svg" width="100" height="100" viewBox="0 0 512 512"><path d="M256 142.63c97.099 0 178.395 84.907 199.29 108.725a9.312 9.312 0 0 1 0 12.291C434.395 287.463 353.099 372.37 256 372.37S77.605 287.463 56.71 263.645a9.312 9.312 0 0 1 0-12.291C77.605 227.537 158.901 142.63 256 142.63z" fill="#e2e2e3"/><circle cx="256" cy="257.5" r="115" fill="#619bb2"/><path d="M243.232 257.5c0-45.147 26.024-84.213 63.884-103.033C291.717 146.812 274.363 142.5 256 142.5c-63.51 0-115 51.49-115 115s51.49 115 115 115c18.363 0 35.717-4.312 51.116-11.967-37.86-18.82-63.884-57.886-63.884-103.033z" fill="#73bec9"/><path d="M306.21 228.49A57.622 57.622 0 0 1 314 257.5c0 32.03-25.97 58-58 58s-58-25.97-58-58 25.97-58 58-58c5.93 0 11.66.9 17.05 2.55-.8 14.14 9.9 26.36 24.08 27.38 3.15.23 6.21-.12 9.08-.94z" fill="#666767"/><path d="M306.21 228.49a26.09 26.09 0 0 1-8.647.952 57.956 57.956 0 0 1 1.501 13.121c0 32.03-25.97 58-58 58a57.712 57.712 0 0 1-32.854-10.21C218.669 305.539 236.169 315.5 256 315.5c32.03 0 58-25.97 58-58 0-10.57-2.84-20.48-7.79-29.01z" fill="#4c5574"/><path d="M276 249.48v16.04c0 6.61-5.37 11.98-11.98 11.98h-16.04c-6.61 0-11.98-5.37-11.98-11.98v-16.04c0-6.61 5.37-11.98 11.98-11.98h16.04c6.61 0 11.98 5.37 11.98 11.98z" fill="#494b4b"/><path d="M304.545 150h-97.09c-49.602 0-89.955-40.354-89.955-89.956V33.5A7.5 7.5 0 0 1 125 26a7.5 7.5 0 0 1 7.5 7.5v26.544c0 41.331 33.625 74.956 74.955 74.956h97.09c41.33 0 74.955-33.625 74.955-74.956V33.5c0-4.142 3.357-7.5 7.5-7.5s7.5 3.358 7.5 7.5v26.544c0 49.602-40.354 89.956-89.955 89.956z" fill="#dcdddd"/><path d="M133.737 41h-17.475c-6.486 0-11.763-5.277-11.763-11.763V11.763C104.5 5.277 109.776 0 116.263 0h17.475c6.486 0 11.763 5.277 11.763 11.763v17.475C145.5 35.723 140.224 41 133.737 41zM119.5 26h11V15h-11v11zm276.237 15h-17.475c-6.486 0-11.763-5.277-11.763-11.763V11.763C366.5 5.277 371.776 0 378.263 0h17.475c6.486 0 11.763 5.277 11.763 11.763v17.475C407.5 35.723 402.224 41 395.737 41zM381.5 26h11V15h-11v11z" fill="#ced6e0"/><path d="M422 150H91c-4.143 0-7.5-3.358-7.5-7.5s3.357-7.5 7.5-7.5h331c4.143 0 7.5 3.358 7.5 7.5s-3.357 7.5-7.5 7.5z" fill="#dcdddd"/><path d="M435 163c-11.304 0-20.5-9.196-20.5-20.5S423.696 122 435 122s20.5 9.196 20.5 20.5S446.304 163 435 163zm0-26c-3.033 0-5.5 2.467-5.5 5.5s2.467 5.5 5.5 5.5 5.5-2.467 5.5-5.5-2.467-5.5-5.5-5.5zM78 163c-11.304 0-20.5-9.196-20.5-20.5S66.696 122 78 122s20.5 9.196 20.5 20.5S89.304 163 78 163zm0-26c-3.033 0-5.5 2.467-5.5 5.5s2.467 5.5 5.5 5.5 5.5-2.467 5.5-5.5-2.467-5.5-5.5-5.5z" fill="#ced6e0"/><path d="M387 486a7.5 7.5 0 0 1-7.5-7.5v-23.544c0-41.331-33.625-74.956-74.955-74.956h-97.09c-41.33 0-74.955 33.625-74.955 74.956V478.5a7.5 7.5 0 0 1-7.5 7.5 7.5 7.5 0 0 1-7.5-7.5v-23.544c0-49.602 40.354-89.956 89.955-89.956h97.09c49.602 0 89.955 40.354 89.955 89.956V478.5a7.5 7.5 0 0 1-7.5 7.5z" fill="#dcdddd"/><path d="M133.737 512h-17.475c-6.486 0-11.763-5.277-11.763-11.763v-17.475c0-6.486 5.276-11.763 11.763-11.763h17.475c6.486 0 11.763 5.277 11.763 11.763v17.475c0 6.486-5.276 11.763-11.763 11.763zM119.5 497h11v-11h-11v11zm14.237-11h.01-.01zm262 26h-17.475c-6.486 0-11.763-5.277-11.763-11.763v-17.475c0-6.486 5.276-11.763 11.763-11.763h17.475c6.486 0 11.763 5.277 11.763 11.763v17.475c0 6.486-5.276 11.763-11.763 11.763zM381.5 497h11v-11h-11v11zm14.237-11h.01-.01z" fill="#ced6e0"/><path d="M422 380H91c-4.143 0-7.5-3.358-7.5-7.5s3.357-7.5 7.5-7.5h331c4.143 0 7.5 3.358 7.5 7.5s-3.357 7.5-7.5 7.5z" fill="#dcdddd"/><path d="M435 393c-11.304 0-20.5-9.196-20.5-20.5S423.696 352 435 352s20.5 9.196 20.5 20.5S446.304 393 435 393zm0-26c-3.033 0-5.5 2.467-5.5 5.5s2.467 5.5 5.5 5.5 5.5-2.467 5.5-5.5-2.467-5.5-5.5-5.5zM78 393c-11.304 0-20.5-9.196-20.5-20.5S66.696 352 78 352s20.5 9.196 20.5 20.5S89.304 393 78 393zm0-26c-3.033 0-5.5 2.467-5.5 5.5s2.467 5.5 5.5 5.5 5.5-2.467 5.5-5.5-2.467-5.5-5.5-5.5z" fill="#ced6e0"/><path d="M300.87 177.57c14.32 1.03 25.1 13.48 24.06 27.8-1.03 14.32-13.48 25.1-27.8 24.06-14.32-1.03-25.1-13.48-24.06-27.8 1.03-14.32 13.48-25.1 27.8-24.06z" fill="#fff"/></svg>