<svg xmlns="http://www.w3.org/2000/svg" width="100" height="100" viewBox="0 0 512.001 512.001"><path d="M148.754 344.012H85.185c-11.702 0-21.19-9.487-21.19-21.19V149.194c0-11.702 9.487-21.19 21.19-21.19h63.57c11.702 0 21.19 9.487 21.19 21.19v173.628c-.001 11.702-9.488 21.19-21.191 21.19z" fill="#55d4be"/><path d="M85.185 312.226V128.004c-11.702 0-21.19 9.487-21.19 21.19v173.628c0 11.702 9.487 21.19 21.19 21.19h63.57c11.702 0 21.19-9.487 21.19-21.19H95.779c-5.851 0-10.594-4.744-10.594-10.596z" fill="#24bfb2"/><circle cx="116.965" cy="296.33" r="15.893" fill="#f2edec"/><path d="M456.007 152.997c0-14.628-11.858-26.488-26.487-26.488H296.002s11.335-13.852 16.001-46.507C320.003 24 299.92 2.491 280.002.061c-4.956-.605-9.314 3.291-9.314 8.284 0 0-5.029 52.342-14.686 71.656-24.001 48.002-86.057 72.002-86.057 72.002v170.613s14.054 15.791 42.379 15.791h196.007c14.628 0 26.487-11.858 26.487-26.487s-11.858-26.488-26.487-26.488h10.595c14.628 0 26.487-11.858 26.487-26.488 0-14.628-11.858-26.487-26.487-26.487h10.595c14.628 0 26.487-11.858 26.487-26.488 0-14.628-11.858-26.488-26.487-26.488 14.628.003 26.486-11.855 26.486-26.484z" fill="#fce780"/><path d="M456.007 152.997c0-14.628-11.858-26.488-26.487-26.488H296.002s11.335-13.852 16.001-46.507C320.003 24 299.92 2.491 280.002.061c-4.956-.605-9.314 3.291-9.314 8.284 0 0-5.029 52.342-14.686 71.656-24.001 48.002-86.057 72.002-86.057 72.002v170.613s14.054 15.791 42.379 15.791h196.007c14.628 0 26.487-11.858 26.487-26.487s-11.858-26.488-26.487-26.488h10.595c14.628 0 26.487-11.858 26.487-26.488 0-14.628-11.858-26.487-26.487-26.487h10.595c14.628 0 26.487-11.858 26.487-26.488 0-14.628-11.858-26.488-26.487-26.488 14.628.003 26.486-11.855 26.486-26.484z" fill="#fee2ca"/><path d="M408.33 322.408H212.323c-28.325 0-42.379-15.791-42.379-15.791v16.001s14.054 15.791 42.379 15.791H408.33c14.628 0 26.487-11.858 26.487-26.487 0-2.789-.434-5.476-1.233-8-3.392 10.717-13.414 18.486-25.254 18.486zm21.19-164.114h-26.487v21.19h26.487c14.628 0 26.487-11.858 26.487-26.487 0-3.77-.799-7.348-2.219-10.595-4.088 9.351-13.409 15.892-24.268 15.892zm0 52.975h-26.487v21.19h26.487c14.628 0 26.487-11.858 26.487-26.487 0-3.77-.799-7.348-2.219-10.595-4.088 9.351-13.409 15.892-24.268 15.892zm-10.595 52.975h-15.893v21.19h15.893c14.628 0 26.488-11.858 26.488-26.487 0-3.77-.799-7.348-2.219-10.595-4.09 9.351-13.41 15.892-24.269 15.892z" fill="#fdd0ab"/><path d="M321.454 420.073h-44.551l-13.767-42.371a7.5 7.5 0 0 0-14.266 0l-13.767 42.371h-44.551a7.5 7.5 0 0 0-4.408 13.568l36.043 26.188L208.42 502.2c-.961 2.955.049 6.284 2.49 8.207 2.608 2.055 6.365 2.13 9.051.178l36.043-26.188 36.043 26.188c2.819 2.048 6.781 1.851 9.386-.459 2.209-1.959 3.068-5.117 2.155-7.925l-13.767-42.371 36.043-26.188a7.5 7.5 0 0 0-4.41-13.569zm189.688 5.182a7.5 7.5 0 0 0-7.133-5.183h-44.551l-13.767-42.371c-.992-3.055-3.921-5.183-7.133-5.183s-6.14 2.127-7.133 5.183l-13.767 42.371h-44.552a7.5 7.5 0 0 0-4.408 13.568l36.043 26.188-13.77 42.372c-.961 2.955.049 6.284 2.49 8.207 2.608 2.055 6.365 2.13 9.051.178l36.043-26.188 36.043 26.188c2.819 2.048 6.781 1.851 9.387-.459 2.209-1.959 3.068-5.117 2.155-7.925l-13.767-42.371 36.043-26.188a7.5 7.5 0 0 0 2.726-8.387zm-372.244-5.182H94.345l-13.767-42.371a7.5 7.5 0 0 0-14.266 0l-13.767 42.371H7.992a7.5 7.5 0 0 0-4.408 13.568l36.043 26.188-13.767 42.372c-.961 2.955.049 6.284 2.49 8.207 2.608 2.055 6.365 2.13 9.052.178l36.043-26.188 36.043 26.188c2.819 2.048 6.781 1.851 9.386-.459 2.209-1.959 3.068-5.117 2.155-7.925l-13.767-42.371 36.043-26.188a7.5 7.5 0 0 0 2.725-8.385 7.496 7.496 0 0 0-7.132-5.185z" fill="#fa892d"/></svg>