<svg xmlns="http://www.w3.org/2000/svg" width="100" height="100" viewBox="0 0 512 512"><path d="M382.143 353.873l-78-78c-7.799-7.797-20.486-7.797-28.285 0-7.798 7.799-7.798 20.486 0 28.285l78 78c3.778 3.777 8.8 5.857 14.143 5.857s10.364-2.08 14.143-5.857c7.796-7.798 7.796-20.486-.001-28.285z" fill="#d7c8c5"/><path d="M509.657 464.417l-120-120a8.003 8.003 0 0 0-11.314 0l-33.941 33.941a8 8 0 0 0 0 11.314l120 120c3.083 3.081 8.231 3.081 11.314 0l33.941-33.941a8 8 0 0 0 0-11.314z" fill="#55d4be"/><path d="M354.372 368.388l-9.971 9.971a8 8 0 0 0 0 11.314l120 120c3.083 3.082 8.231 3.082 11.314 0l9.971-9.971-131.314-131.314z" fill="#24bfb2"/><path d="M176 .016c-97.047 0-176 78.953-176 176s78.953 176 176 176 176-78.953 176-176-78.953-176-176-176z" fill="#fbdc40"/><path d="M176 16.016c-88.224 0-160 71.776-160 160s71.776 160 160 160 160-71.776 160-160-71.776-160-160-160z" fill="#fad000"/><path d="M176 32.016c-79.402 0-144 64.598-144 144s64.598 144 144 144 144-64.598 144-144-64.598-144-144-144z" fill="#e4dad8"/><path d="M176 48.016c-70.58 0-128 57.42-128 128s57.42 128 128 128 128-57.42 128-128-57.42-128-128-128z" fill="#f2edec"/><path fill="#e4dad8" d="M112 144.02h128v96H112z"/><path fill="#d7c8c5" d="M112 144.02h16v96h-16z"/><path d="M256 144.016H96l13.988-34.971a8.001 8.001 0 0 1 7.428-5.029h117.167a8.001 8.001 0 0 1 7.428 5.029L256 144.016z" fill="#f56c6c"/><path d="M168 184.016h-32a8 8 0 0 0-8 8v48a8 8 0 0 0 8 8h32a8 8 0 0 0 8-8v-48a8 8 0 0 0-8-8z" fill="#956b64"/><path d="M160 104.02h32v40h-32zm96 39.996h-32l-8-40h18.584a8.001 8.001 0 0 1 7.428 5.029L256 144.016zm-128 0H96l13.988-34.971a8.001 8.001 0 0 1 7.428-5.029H136l-8 40z" fill="#f56c6c"/><path d="M248 168.016h-24v-24h32v16a8 8 0 0 1-8 8zm-88-23.996h32v24h-32zm-32 23.996h-24a8 8 0 0 1-8-8v-16h32v24z" fill="#db4d4d"/><path d="M127 144.02h36v24h-36zm64 0h36v24h-36z" fill="#db4d4d"/><path d="M256 248.016H96a8 8 0 0 1 0-16h160a8 8 0 0 1 0 16z" fill="#885951"/><path d="M216 184.016h-24a8 8 0 0 0-8 8v24a8 8 0 0 0 8 8h24a8 8 0 0 0 8-8v-24a8 8 0 0 0-8-8z" fill="#7fdecf"/></svg>