<svg width="196" height="60" viewBox="0 0 193 59" xmlns="http://www.w3.org/2000/svg" xmlns:xlink="http://www.w3.org/1999/xlink"><defs><path id="a" d="M0 138.752h192.762V.226H0z"/><path id="c" d="M0 138.752h192.762V.226H0z"/></defs><g fill="none" fill-rule="evenodd"><g transform="translate(0 -44.978)"><path d="M94.487 72.005a3.906 3.906 0 0 0 2.047.583c1.184 0 1.867-.61 1.867-1.522 0-.822-.473-1.31-1.677-1.761-1.46-.53-2.359-1.295-2.359-2.54 0-1.388 1.155-2.421 2.884-2.421.904 0 1.576.21 1.964.435l-.32.94c-.275-.172-.87-.42-1.676-.42-1.222 0-1.686.725-1.686 1.333 0 .833.543 1.245 1.777 1.722 1.508.597 2.26 1.306 2.26 2.62 0 1.373-1.002 2.577-3.11 2.577-.862 0-1.802-.265-2.278-.578l.307-.968zm10.777-2.435c.014-.727-.302-1.894-1.596-1.894-1.195 0-1.705 1.086-1.79 1.894h3.386zm-3.402.833c.027 1.574 1.016 2.22 2.182 2.22.837 0 1.353-.141 1.783-.317l.205.822c-.408.185-1.122.412-2.143.412-1.96 0-3.155-1.31-3.155-3.229 0-1.943 1.155-3.468 3.024-3.468 2.09 0 2.638 1.84 2.638 3.018 0 .239-.016.423-.04.554l-4.494-.012zm10.544 2.779c-.309.142-.985.37-1.842.37-1.936 0-3.194-1.311-3.194-3.281 0-1.973 1.352-3.414 3.447-3.414.687 0 1.296.171 1.61.344l-.262.888c-.278-.149-.71-.306-1.348-.306-1.472 0-2.27 1.096-2.27 2.434 0 1.482.958 2.398 2.231 2.398a3.31 3.31 0 0 0 1.427-.309l.201.876m6.725-1.524c0 .662.018 1.245.055 1.747h-1.038l-.058-1.045h-.03a2.4 2.4 0 0 1-2.121 1.192c-1.005 0-2.212-.57-2.212-2.808V67h1.166v3.533c0 1.218.385 2.051 1.432 2.051.782 0 1.325-.542 1.54-1.074a1.59 1.59 0 0 0 .105-.594V67h1.161v4.657m1.953-2.659c0-.754-.012-1.4-.054-1.997h1.019l.054 1.261h.04c.291-.86 1.006-1.405 1.783-1.405.122 0 .217.013.323.038v1.088c-.133-.014-.252-.03-.41-.03-.825 0-1.405.624-1.563 1.484a3.363 3.363 0 0 0-.042.557v3.411h-1.162l.012-4.407" fill="#006A71"/><mask id="b" fill="#fff"><use xlink:href="#a"/></mask><path d="M125.45 73.405h1.162v-6.402h-1.161v6.402zm.555-7.58c-.437 0-.73-.344-.73-.756 0-.41.306-.739.757-.739.449 0 .742.33.742.74 0 .411-.293.756-.75.756h-.019zm3.948-.355v1.536h1.669v.884h-1.669v3.455c0 .792.23 1.243.877 1.243.314 0 .503-.027.677-.081l.049.887c-.223.078-.582.16-1.033.16-.543 0-.978-.187-1.253-.491-.322-.358-.455-.926-.455-1.682v-3.49h-.993v-.885h.993v-1.18l1.138-.356m3.524 1.531l1.39 3.785c.163.423.317.928.425 1.31h.027c.117-.382.252-.873.408-1.334L137.001 67h1.233l-1.752 4.564c-.834 2.198-1.404 3.324-2.198 4.022-.58.491-1.139.69-1.43.743l-.29-.98c.29-.076.676-.265 1.019-.57.318-.251.701-.7.98-1.296.053-.12.09-.198.09-.277a.646.646 0 0 0-.09-.29L132.206 67h1.272M94.487 85.232a3.867 3.867 0 0 0 2.047.583c1.184 0 1.867-.61 1.867-1.525 0-.817-.473-1.306-1.677-1.756-1.46-.527-2.359-1.297-2.359-2.542 0-1.388 1.155-2.419 2.884-2.419.904 0 1.576.212 1.964.437l-.32.94c-.275-.172-.87-.422-1.676-.422-1.222 0-1.686.725-1.686 1.333 0 .833.543 1.243 1.777 1.718 1.508.6 2.26 1.313 2.26 2.624 0 1.375-1.002 2.578-3.11 2.578-.862 0-1.802-.264-2.278-.584l.307-.965m7.986-6.533v1.533h1.668v.888h-1.668v3.452c0 .795.228 1.245.875 1.245.32 0 .507-.027.676-.081l.054.887c-.223.083-.584.16-1.035.16-.543 0-.978-.185-1.258-.489-.315-.355-.453-.927-.453-1.68V81.12h-.992v-.888h.992v-1.175l1.14-.358m6.36 4.673c-1.273-.03-2.716.198-2.716 1.438 0 .77.503 1.11 1.084 1.11.848 0 1.394-.526 1.578-1.069.041-.12.054-.25.054-.371v-1.108zm1.137 1.731c0 .557.03 1.097.093 1.534h-1.044l-.108-.802h-.039c-.343.495-1.042.946-1.962.946-1.296 0-1.958-.912-1.958-1.838 0-1.547 1.375-2.394 3.853-2.382v-.133c0-.525-.147-1.493-1.457-1.48-.609 0-1.231.172-1.684.476l-.264-.784c.532-.329 1.312-.55 2.122-.55 1.974 0 2.448 1.334 2.448 2.617v2.396zm1.869-3.139c0-.673-.009-1.198-.054-1.731h1.035l.07 1.046h.022c.318-.596 1.06-1.188 2.119-1.188.89 0 2.264.526 2.264 2.722v3.824h-1.161v-3.691c0-1.031-.39-1.905-1.488-1.905-.753 0-1.348.54-1.563 1.189a1.86 1.86 0 0 0-.076.545v3.862h-1.168v-4.673m11.723.874c0-.16-.01-.343-.054-.502-.171-.725-.804-1.338-1.681-1.338-1.209 0-1.923 1.06-1.923 2.466 0 1.306.65 2.378 1.9 2.378.778 0 1.493-.53 1.704-1.387.043-.163.054-.318.054-.505v-1.112zm1.169-5.598v7.744c0 .57.009 1.214.046 1.65h-1.043l-.054-1.11h-.03c-.353.716-1.122 1.257-2.168 1.257-1.55 0-2.755-1.309-2.755-3.256-.014-2.142 1.325-3.437 2.874-3.437.99 0 1.655.46 1.932.967h.03V77.24h1.168zm5.313 6.132c-1.274-.03-2.72.198-2.72 1.438 0 .77.504 1.11 1.088 1.11.846 0 1.386-.526 1.576-1.069a1.3 1.3 0 0 0 .056-.371v-1.108zm1.137 1.731c0 .557.024 1.097.094 1.534h-1.046l-.108-.802h-.039c-.347.495-1.05.946-1.961.946-1.3 0-1.964-.912-1.964-1.838 0-1.547 1.378-2.394 3.856-2.382v-.133c0-.525-.147-1.493-1.457-1.48-.608 0-1.233.172-1.68.476l-.268-.784c.533-.329 1.317-.55 2.12-.55 1.977 0 2.453 1.334 2.453 2.617v2.396zm1.88-2.873c0-.754-.018-1.403-.052-2h1.021l.048 1.261h.042c.291-.862 1.006-1.4 1.79-1.4.116 0 .21.009.318.033v1.088c-.135-.013-.247-.027-.414-.027-.816 0-1.403.624-1.56 1.482a3.58 3.58 0 0 0-.04.556v3.414h-1.171l.018-4.407m8.612.608c0-.16-.011-.343-.05-.502-.178-.725-.811-1.338-1.683-1.338-1.211 0-1.92 1.06-1.92 2.466 0 1.306.643 2.378 1.89 2.378.784 0 1.5-.53 1.713-1.387a2.09 2.09 0 0 0 .05-.505v-1.112zm1.163-5.598v7.744c0 .57.014 1.214.054 1.65h-1.046l-.054-1.11h-.022c-.359.716-1.13 1.257-2.178 1.257-1.55 0-2.748-1.309-2.748-3.256-.016-2.142 1.321-3.437 2.867-3.437.995 0 1.662.46 1.939.967h.025V77.24h1.163zm1.779 8.219c.357.214.965.45 1.547.45.836 0 1.229-.412 1.229-.952 0-.556-.327-.863-1.175-1.178-1.163-.423-1.709-1.047-1.709-1.815 0-1.03.852-1.876 2.21-1.876.651 0 1.22.17 1.569.397l-.28.835a2.602 2.602 0 0 0-1.315-.374c-.685 0-1.059.399-1.059.874 0 .54.374.781 1.204 1.097 1.1.41 1.684.968 1.684 1.931 0 1.138-.884 1.933-2.38 1.933-.704 0-1.356-.185-1.809-.45l.284-.872m14.476.901c-.41.211-1.269.42-2.355.42-2.518 0-4.4-1.587-4.4-4.523 0-2.806 1.895-4.684 4.663-4.684 1.098 0 1.81.237 2.117.399l-.29.939c-.424-.212-1.047-.374-1.784-.374-2.096 0-3.485 1.338-3.485 3.68 0 2.197 1.253 3.587 3.413 3.587.72 0 1.432-.147 1.903-.372l.218.928m3.896-.45c1.114 0 1.948-1.046 1.948-2.502 0-1.083-.543-2.446-1.923-2.446-1.366 0-1.962 1.268-1.962 2.486 0 1.403.799 2.461 1.924 2.461h.013zm-.038.871c-1.725 0-3.075-1.27-3.075-3.292 0-2.144 1.416-3.398 3.179-3.398 1.84 0 3.082 1.333 3.082 3.28 0 2.38-1.653 3.41-3.174 3.41h-.012zm10.026-1.889c0 .661.011 1.243.05 1.742h-1.028l-.07-1.045h-.023a2.405 2.405 0 0 1-2.126 1.192c-1 0-2.21-.568-2.21-2.806v-3.744h1.168v3.533c0 1.22.381 2.051 1.432 2.051.778 0 1.321-.54 1.536-1.07.07-.162.103-.371.103-.594v-3.92h1.168v4.66m1.932-2.927c0-.673-.011-1.198-.05-1.731h1.028l.07 1.046h.028c.317-.596 1.06-1.188 2.119-1.188.888 0 2.263.526 2.263 2.722v3.824h-1.161v-3.691c0-1.031-.387-1.905-1.49-1.905-.748 0-1.35.54-1.565 1.189-.047.149-.074.36-.074.545v3.862h-1.168v-4.673m11.924 4.45c-.304.144-.976.369-1.84.369-1.933 0-3.194-1.308-3.194-3.28 0-1.969 1.348-3.412 3.452-3.412.68 0 1.294.166 1.607.337l-.261.895c-.283-.15-.72-.309-1.346-.309-1.48 0-2.273 1.099-2.273 2.436 0 1.48.954 2.394 2.228 2.394.66 0 1.1-.16 1.429-.304l.198.874m1.362.22h1.165V80.23h-1.165v6.404zm.559-7.58c-.44 0-.728-.344-.728-.753 0-.413.305-.743.753-.743.449 0 .74.33.74.743 0 .41-.291.754-.756.754h-.009zm2.543 7.58h1.166V77.24h-1.166z" fill="#006A71" mask="url(#b)"/></g><path d="M88.562 37.4L20 58.93 0 4.61 71.978.571z" fill="#006A71"/><g transform="translate(0 -44.978)"><path d="M28.166 71.588c0-2.024-1.502-3.038-4.502-3.038h-1.092v6.251h1.006c1.483 0 2.62-.259 3.409-.777.787-.522 1.179-1.33 1.179-2.436zm8.558-.099c0 1.376-.302 2.583-.92 3.634-.606 1.05-1.465 1.921-2.572 2.617-1.107.702-2.437 1.225-3.998 1.574-1.557.349-3.282.522-5.178.522h-1.393v6.997h-8.915v-23.32h10.44c3.903 0 6.972.66 9.195 1.977 2.23 1.317 3.341 3.32 3.341 5.999zm22.029 15.326c-1.37.26-2.922.391-4.66.391-2.464 0-4.663-.281-6.601-.846-1.93-.56-3.567-1.36-4.909-2.399-1.34-1.04-2.36-2.299-3.059-3.782-.699-1.494-1.048-3.149-1.048-4.972 0-1.804.372-3.448 1.116-4.936.746-1.489 1.796-2.759 3.152-3.82 1.352-1.058 2.969-1.875 4.844-2.452 1.87-.572 3.935-.862 6.185-.862 1.736 0 3.346.052 4.754.356 1.416.308 1.446.351 2.57.757l-.015 6.257c-.88-.495-1.874-.905-2.967-1.234a12.328 12.328 0 0 0-3.515-.49c-2.013 0-3.648.553-4.915 1.654-1.262 1.108-1.894 2.684-1.894 4.734 0 1.062.199 1.99.591 2.79.4.8.934 1.465 1.6 1.994a6.892 6.892 0 0 0 2.355 1.198c.9.273 1.864.408 2.901.408 1.064 0 2.11-.113 3.13-.337a24.917 24.917 0 0 0 3.264-.982l.013 5.843c-1.409.412-1.523.47-2.892.73" fill="#FEFEFE"/><mask id="d" fill="#fff"><use xlink:href="#c"/></mask><path fill="#FEFEFE" mask="url(#d)" d="M65.296 86.833h8.955v-23.32h-8.955zm9.917-30.627c0 1.57-.523 2.804-1.562 3.697-1.042.894-2.331 1.34-3.865 1.34-1.532 0-2.822-.446-3.864-1.34-1.043-.893-1.562-2.128-1.562-3.697 0-1.603.519-2.855 1.562-3.747 1.042-.896 2.332-1.344 3.864-1.344 1.534 0 2.823.448 3.865 1.344 1.04.892 1.562 2.144 1.562 3.747"/><path fill="#006A71" mask="url(#d)" d="M186.24 65.263h-1.04v-.728h2.96v.728h-1.052v3.118h-.868zm5.613 1.641a40.393 40.393 0 0 1-.036-1.58h-.007c-.126.49-.286 1.04-.432 1.49l-.474 1.5h-.676l-.413-1.482c-.124-.457-.25-1-.347-1.508h-.007c-.024.52-.047 1.116-.067 1.594l-.075 1.461h-.802l.24-3.846h1.162l.379 1.288c.124.441.239.921.324 1.369h.02c.104-.443.233-.945.37-1.38l.402-1.277h1.145l.203 3.846h-.845l-.064-1.475"/></g></g></svg>