<svg xmlns="http://www.w3.org/2000/svg" width="80" height="80" fill="#0097A7" viewBox="0 0 59 59"><path d="M30 32c-4.962 0-9 4.037-9 9s4.038 9 9 9 9-4.037 9-9-4.038-9-9-9zm0 16c-3.86 0-7-3.141-7-7s3.14-7 7-7 7 3.141 7 7-3.14 7-7 7zm-5.5-19c.825 0 1.5-.675 1.5-1.5s-.675-1.5-1.5-1.5-1.5.675-1.5 1.5.675 1.5 1.5 1.5zm11 0c.825 0 1.5-.675 1.5-1.5s-.675-1.5-1.5-1.5-1.5.675-1.5 1.5.675 1.5 1.5 1.5z"/><path d="M27.5 39c-.825 0-1.5.675-1.5 1.5s.675 1.5 1.5 1.5 1.5-.675 1.5-1.5-.675-1.5-1.5-1.5zm5 0c-.825 0-1.5.675-1.5 1.5s.675 1.5 1.5 1.5 1.5-.675 1.5-1.5-.675-1.5-1.5-1.5z"/><path d="M55 30c0-4.434-.927-8.673-2.742-12.612l.482-3.507-2.038.2-.007-.014-.002.014-.224.022c-2.735-4.26-6.736-6.951-12.186-8.21C36.861 2.439 33.462 0 29.5 0s-7.361 2.439-8.784 5.893c-5.45 1.26-9.451 3.951-12.186 8.21l-.224-.022-.002-.014-.006.014-2.039-.2.482 3.507C4.927 21.327 4 25.566 4 30c0 8.253 3.279 15.997 9 21.335v4.651A3.017 3.017 0 0 0 16.014 59h7.664c.729 0 1.322-.593 1.322-1.322v-.125c1.492.293 3.001.447 4.5.447s3.008-.154 4.5-.447v.139A1.31 1.31 0 0 0 35.309 59h7.5A3.195 3.195 0 0 0 46 55.809v-4.473c5.721-5.339 9-13.083 9-21.336zM44.112 44.105c-.166.251-.346.491-.524.732-.142.194-.282.389-.432.577-.171.214-.352.417-.532.622-.179.203-.358.406-.545.6-.173.179-.352.352-.531.523a16.425 16.425 0 0 1-1.183 1.033c-.258.206-.523.403-.793.593-.161.114-.321.228-.485.336a18.24 18.24 0 0 1-.958.583c-.137.078-.271.161-.411.235-.399.214-.81.409-1.227.592-.076.033-.149.072-.225.104A17.372 17.372 0 0 1 29.5 52c-2.398 0-4.683-.486-6.766-1.363-.078-.033-.152-.072-.23-.106a17.18 17.18 0 0 1-1.222-.59c-.14-.075-.276-.158-.414-.237a17.474 17.474 0 0 1-.955-.581c-.165-.109-.326-.224-.487-.338a17.525 17.525 0 0 1-1.312-1.023 17.232 17.232 0 0 1-.663-.603 17.385 17.385 0 0 1-.53-.522c-.188-.195-.367-.398-.546-.601-.18-.205-.36-.408-.531-.621-.15-.188-.29-.384-.433-.578-.177-.241-.358-.48-.523-.732A17.39 17.39 0 0 1 12 34.5c0-2.357.475-4.604 1.324-6.659.081-.196.174-.385.261-.577.13-.285.263-.569.408-.846a17.732 17.732 0 0 1 .851-1.452c.074-.115.146-.231.223-.344a17.582 17.582 0 0 1 1.988-2.407c.078-.079.16-.155.24-.233.289-.282.589-.553.897-.815.113-.096.226-.192.341-.285.309-.249.628-.485.953-.713.104-.073.204-.151.309-.221A17.403 17.403 0 0 1 29.5 17c3.588 0 6.925 1.089 9.705 2.948.106.071.206.149.31.222.325.228.643.463.951.711.117.094.23.191.344.288.306.26.604.53.892.811.081.079.165.157.245.237a17.62 17.62 0 0 1 1.986 2.406c.077.112.148.228.222.342a16.847 16.847 0 0 1 1.265 2.312c.084.186.174.368.253.558A17.373 17.373 0 0 1 47 34.5a17.39 17.39 0 0 1-2.888 9.605zM12.474 25.004c-.492-1.037-1.136-1.874-1.715-2.626-.856-1.112-1.596-2.072-1.789-3.476l-.383-2.783 1.059.104c2.819.276 5.078 1.499 7.468 2.793l.32.174c-.062.048-.116.105-.177.154-.22.178-.428.37-.64.557-.271.239-.544.475-.801.728-.167.165-.321.341-.483.512-.274.29-.549.579-.804.885-.15.18-.285.371-.428.556-.238.308-.48.612-.699.934-.18.263-.339.539-.506.811-.139.227-.292.444-.422.677zm33.635-.669c-.169-.275-.33-.555-.512-.821-.216-.316-.453-.615-.686-.917-.148-.191-.287-.388-.442-.573-.252-.302-.523-.586-.793-.872-.165-.175-.323-.355-.494-.524-.255-.251-.526-.485-.795-.723-.214-.189-.423-.381-.644-.561-.061-.049-.115-.105-.176-.154l.32-.174c2.391-1.294 4.649-2.517 7.468-2.793l1.059-.104-.383 2.783c-.193 1.403-.933 2.363-1.789 3.476-.58.752-1.224 1.588-1.715 2.626-.129-.231-.281-.445-.418-.669zM29.5 2c3.283 0 6.072 2.123 7.086 5.065.131.381.227.767.296 1.155l.02.13c.061.382.098.766.098 1.15 0 .536-.061 1.071-.18 1.601-.066-.031-.138-.053-.205-.083a16.902 16.902 0 0 0-1.159-.47c-.154-.055-.312-.1-.468-.152-.339-.111-.676-.222-1.025-.313-.254-.067-.512-.118-.77-.174-.265-.058-.527-.123-.797-.17-.339-.059-.683-.097-1.026-.138-.209-.025-.414-.06-.624-.078l-.051-.006c-.451-.049-.91-.071-1.368-.074-.03 0-.06-.005-.091-.005-.361 0-.721.015-1.076.043-.062.003-.121.012-.182.015-.367.02-.73.049-1.089.09a4.405 4.405 0 0 0-.228.024c-.055.007-.109.018-.164.026-.346.047-.691.095-1.028.16-.181.035-.355.081-.533.121-.41.093-.815.197-1.211.318-.287.087-.577.172-.855.274v.001l-.09.036c-.126.047-.249.1-.374.15-.096.039-.19.073-.287.115A7.34 7.34 0 0 1 22 9.5c0-.384.037-.768.098-1.15.007-.043.012-.087.02-.13a7.68 7.68 0 0 1 .296-1.155C23.428 4.123 26.217 2 29.5 2zm-9.393 6.094c-.006.039-.003.078-.009.117A9.445 9.445 0 0 0 20 9.5c0 .756.095 1.512.279 2.255a13.968 13.968 0 0 0-2.732 2.108 1 1 0 1 0 1.417 1.412 12.097 12.097 0 0 1 2.859-2.099l.101-.053c.239-.125.458-.229.676-.331.166-.075.332-.15.502-.219.138-.057.277-.119.412-.169.273-.101.556-.187.838-.272.387-.116.783-.218 1.189-.304.105-.023.207-.049.312-.07a16.65 16.65 0 0 1 1.03-.159c.07-.009.139-.019.209-.027.349-.04.705-.067 1.067-.087.211-.011.421-.024.635-.027.102-.004.203-.009.305-.01a17.618 17.618 0 0 1 3.117.286l.016.004c.548.102 1.087.232 1.614.385.038.011.074.025.112.036a15.99 15.99 0 0 1 1.546.551c.489.204.962.431 1.417.682.122.067.248.131.367.202l.22.122a11.53 11.53 0 0 1 2.087 1.638.997.997 0 0 0 1.414 0 .999.999 0 0 0 0-1.414 13.479 13.479 0 0 0-2.374-1.874A9.277 9.277 0 0 0 39 9.5c0-.438-.04-.867-.098-1.29-.005-.039-.003-.078-.009-.117 4.033 1.13 7.11 3.19 9.342 6.259-.048.008-.093.02-.141.028-.14.024-.275.055-.412.083-.221.045-.441.092-.655.146-.142.036-.282.076-.421.115a16.177 16.177 0 0 0-1.014.322 18.021 18.021 0 0 0-.97.375c-.194.081-.386.166-.577.252-.121.055-.242.109-.362.165-.204.096-.407.196-.609.296-.104.052-.208.102-.312.155-.236.12-.471.243-.707.368l-.206.108c-.304.162-.608.326-.915.492-.403.218-.818.438-1.232.656C36.729 16.078 33.242 15 29.5 15s-7.229 1.078-10.201 2.913c-.414-.219-.829-.438-1.232-.656l-.912-.491c-.072-.039-.145-.076-.218-.114a76.78 76.78 0 0 0-.694-.362l-.321-.159a33.19 33.19 0 0 0-.6-.292c-.122-.057-.245-.112-.368-.168a22.37 22.37 0 0 0-.571-.249c-.132-.055-.265-.108-.398-.161a20.368 20.368 0 0 0-.988-.356 15.913 15.913 0 0 0-.597-.18c-.141-.04-.282-.08-.425-.116-.214-.054-.433-.1-.653-.145-.137-.028-.273-.059-.413-.083-.048-.008-.093-.02-.141-.028 2.229-3.069 5.306-5.129 9.339-6.259zM6 30c0-3.143.494-6.182 1.472-9.07.01.025.024.046.035.071.1.229.208.451.326.662.006.011.013.02.018.031.115.204.238.401.365.593.04.061.081.12.122.179.102.149.206.295.311.439l.115.157c.136.181.272.36.409.537.671.871 1.305 1.693 1.706 2.766l.433 1.158A19.37 19.37 0 0 0 10 34.5c0 3.802 1.111 7.342 3 10.344v3.665C8.526 43.637 6 37.018 6 30zm9 25.986v-8.464c.183.204.377.399.568.595.07.072.136.147.208.217.388.386.795.751 1.213 1.103.09.075.181.148.272.222a19.64 19.64 0 0 0 3.062 2.037c.861.462 1.752.867 2.677 1.195V57h-6.986A1.015 1.015 0 0 1 15 55.986zm10-.47v-2.061c1.447.344 2.949.545 4.5.545s3.053-.201 4.5-.545v2.061a21.269 21.269 0 0 1-9 0zm19 .293c0 .657-.535 1.191-1.191 1.191H36v-4.109a19.226 19.226 0 0 0 2.888-1.309 19.535 19.535 0 0 0 3.119-2.14c.421-.353.829-.721 1.22-1.109.07-.069.134-.142.203-.212.193-.197.387-.393.571-.598v8.286zm2-10.965c1.889-3.003 3-6.543 3-10.344 0-2.461-.477-4.808-1.313-6.978l.433-1.158c.401-1.072 1.035-1.895 1.706-2.766.137-.177.274-.357.409-.538.039-.051.076-.104.114-.155a18.255 18.255 0 0 0 .434-.619c.127-.192.25-.388.365-.593.006-.01.013-.02.018-.031.118-.211.226-.433.326-.662.011-.024.024-.046.035-.071A28.14 28.14 0 0 1 53 30c0 7.018-2.526 13.637-7 18.51v-3.666z"/></svg>