<svg xmlns="http://www.w3.org/2000/svg" width="80" height="80" fill="#0097A7" viewBox="0 0 512 512"><path d="M410.079 408.8l-73.442-40.871a22.473 22.473 0 0 1-12.371-20.196l-.042-20.471a197.55 197.55 0 0 0 33.958-69.35 8.482 8.482 0 0 0 .217-1.912v-17.067H384c14.132-.015 25.585-11.468 25.6-25.6v-51.2a25.559 25.559 0 0 0-17.067-24.028v-1.572C392.533 61.128 331.405 0 256 0S119.466 61.128 119.466 136.533v1.572a25.558 25.558 0 0 0-17.067 24.028v51.2a25.557 25.557 0 0 0 17.067 24.027V256c.022 18.842 15.291 34.112 34.133 34.133h11.737a218.307 218.307 0 0 0 22.396 37.075v19.671a22.424 22.424 0 0 1-11.767 19.817l-76.1 41.546a76.79 76.79 0 0 0-40.133 67.575v27.65A8.534 8.534 0 0 0 68.265 512h375.467a8.533 8.533 0 0 0 8.533-8.533v-25.941a76.517 76.517 0 0 0-42.186-68.726zm-17.546-246.667v51.2a8.544 8.544 0 0 1-8.533 8.533h-25.6V153.6H384a8.544 8.544 0 0 1 8.533 8.533zM128 221.867a8.544 8.544 0 0 1-8.533-8.533v-51.2a8.544 8.544 0 0 1 8.533-8.533h25.6v68.267H128zm25.6 51.2c-9.422-.009-17.057-7.645-17.067-17.067v-17.067H153.6V256a8.425 8.425 0 0 0 .217 1.912 141.408 141.408 0 0 0 4.51 15.154H153.6zm-.042-136.534h-17.025C136.607 70.584 190.051 17.141 256 17.067c65.949.074 119.393 53.518 119.467 119.467h-17.025a76.343 76.343 0 0 0-17.883-55.204C323.038 61.338 294.587 51.2 256 51.2s-67.038 10.138-84.558 30.129a76.339 76.339 0 0 0-17.884 55.204zM76.8 494.933v-19.117a59.745 59.745 0 0 1 31.225-52.583L184.1 381.7a39.451 39.451 0 0 0 20.7-34.821v-19.671a16.829 16.829 0 0 0-3.458-10.296 202.865 202.865 0 0 1-16.94-26.779h39.038a25.558 25.558 0 0 0 24.027 17.067h25.6c14.138 0 25.6-11.462 25.6-25.6 0-14.138-11.462-25.6-25.6-25.6h-25.6a25.559 25.559 0 0 0-24.028 17.067h-46.92a132.687 132.687 0 0 1-5.852-18.054v-118.48a8.35 8.35 0 0 0-.075-1.117 59.198 59.198 0 0 1 13.683-42.837C198.412 76.446 222.546 68.267 256 68.267c33.329 0 57.412 8.121 71.575 24.138a60.006 60.006 0 0 1 13.833 43.013c-.05.37-.075.743-.075 1.117v118.479a180.531 180.531 0 0 1-30.675 61.9 16.827 16.827 0 0 0-3.458 10.296v20.525a39.295 39.295 0 0 0 21.45 35.271l73.45 40.875a59.714 59.714 0 0 1 33.1 53.646v17.408H76.8zM238.933 281.6a8.544 8.544 0 0 1 8.533-8.533h25.6a8.533 8.533 0 0 1 0 17.066h-25.6a8.544 8.544 0 0 1-8.533-8.533z"/></svg>