<?xml version="1.0" encoding="utf-8"?>
<!-- Generator: Adobe Illustrator 21.0.2, SVG Export Plug-In . SVG Version: 6.00 Build 0)  -->
<svg version="1.1" id="Слой_1" xmlns="http://www.w3.org/2000/svg" xmlns:xlink="http://www.w3.org/1999/xlink" x="0px" y="0px" width="118" height="53"
	 viewBox="0 0 118 53" style="enable-background:new 0 0 118 53;" xml:space="preserve">
<style type="text/css">
	.st0{fill:url(#SVGID_1_);}
	.st1{fill:#0E90D0;}
	.st2{fill:#231F20;}
	.st3{fill:url(#SVGID_2_);}
</style>
<g>
	<linearGradient id="SVGID_1_" gradientUnits="userSpaceOnUse" x1="20.3654" y1="2.5521" x2="71.9558" y2="33.5508">
		<stop  offset="1.544790e-02" style="stop-color:#FFFFFF"/>
		<stop  offset="0.1011" style="stop-color:#0E90D0"/>
		<stop  offset="0.2594" style="stop-color:#0E90D0"/>
		<stop  offset="1" style="stop-color:#0E90D0"/>
	</linearGradient>
	<polygon class="st0" points="15.9,7.5 10.3,15.9 54.9,15.9 61,7.5 	"/>
	<path class="st1" d="M82.8,11.2c0.7-1,2.1-3.7-2.1-3.7c0,0,0,0-0.2,0L63.2,7.6l-4.2,8.3h13.3L54.1,48.6L82.8,11.2z"/>
	<path class="st2" d="M10.9,33.7c-3.2-0.1-5.5-3.6-4.3-7c1-3,2.8-5.4,5.5-7c1.7-1.1,3.7-1.5,5.7-1.5c1.5,0,2.6,0.4,3,0.7l0.3,0.2
		L19,22.5l-0.4-0.3c-0.2-0.1-1-0.4-2.1-0.4c-1.1,0-2.1,0.3-3,1c-1.3,0.9-2.4,2.4-2.9,4.1c-0.6,2.1,0.2,3.2,2.2,3.2
		c0.9,0,1.8-0.2,2.5-0.4l0.7-0.3l-0.7,3.5C15.2,32.9,13.7,33.8,10.9,33.7z"/>
	<path class="st2" d="M88.6,33.7c-3.2-0.1-5.5-3.6-4.3-7c1-3,2.8-5.4,5.5-7c1.7-1.1,3.7-1.5,5.7-1.5c1.5,0,2.6,0.4,3,0.7l0.3,0.2
		l-2.1,3.4l-0.4-0.3c-0.2-0.1-1-0.4-2.1-0.4c-1.1,0-2.1,0.3-3,1c-1.3,0.9-2.4,2.4-2.9,4.1c-0.6,2.1,0.2,3.2,2.2,3.2
		c0.9,0,1.8-0.2,2.5-0.4l0.7-0.3l-0.7,3.5C92.9,32.9,91.4,33.8,88.6,33.7z"/>
	<path class="st2" d="M22,33.8c-3.5,0-5.1-2.6-4-6.4c0.8-2.8,2.5-5.4,4.6-7c1.8-1.4,3.8-2.2,5.8-2.2c3.5,0,5.1,2.5,4,6.4
		c-0.8,2.8-2.5,5.4-4.5,7C26.1,33,24.1,33.8,22,33.8z M27.1,21.7c-0.7,0-1.5,0.3-2.2,0.9c-1.3,1-2.4,3.1-2.8,4.6
		c-0.4,1.3-0.5,3,1.4,3c0.7,0,1.4-0.3,2.1-0.9c1.2-1,2.4-3.2,2.8-4.7C29.3,21.7,27.6,21.7,27.1,21.7z"/>
	<path class="st2" d="M37.6,33.5l-0.3-6c0-0.9,0-1.8,0-2.6c-0.4,1-0.9,2-1.5,3.2l-2.5,5.4h-3.7l7.2-15.1h4.2l0.3,5.7
		c0,0.7,0,1.4,0,2.1c0.3-0.7,0.6-1.4,1-2.3l2.6-5.5h3.7l-7.1,15.1H37.6z"/>
	<polygon class="st2" points="54.7,33.5 60.1,22.1 56.4,22.1 58.2,18.4 69.6,18.4 67.9,22.1 64.2,22.1 58.7,33.5 	"/>
	<path class="st2" d="M77.8,33.5l0.8-3.7h-3.3l-2.8,3.7h-4.4l12-15.1h4.5l-2.6,15.1H77.8z M79.4,26.5c0,0,0.7-3.4,0.8-3.7
		c-0.2,0.3-2.6,3.7-2.6,3.7H79.4z"/>
	<polygon class="st2" points="96.7,33.5 102.2,22.1 98.5,22.1 100.3,18.4 111.7,18.4 110,22.1 106.2,22.1 100.8,33.5 	"/>
	<path class="st1" d="M48.3,35.8L64.1,4.4L37.9,40.5l-0.1,0.1c0,0-0.8,1-0.6,2.1c0.1,0.7,0.7,1.4,2.5,1.4c0.2,0,0.3,0,0.4,0h15.8
		l4.5-8.4H48.3z"/>
	<linearGradient id="SVGID_2_" gradientUnits="userSpaceOnUse" x1="65.7578" y1="31.3248" x2="97.2487" y2="48.7806">
		<stop  offset="0" style="stop-color:#0E90D0"/>
		<stop  offset="0.7406" style="stop-color:#0E90D0"/>
		<stop  offset="0.8989" style="stop-color:#0E90D0"/>
		<stop  offset="0.9846" style="stop-color:#FFFFFF"/>
	</linearGradient>
	<polygon class="st3" points="64.7,35.8 58.3,44.2 99.2,44.2 104.4,35.7 	"/>
</g>
</svg>
