<svg xmlns="http://www.w3.org/2000/svg" width="120.5" height="50" viewBox="0 0 183 76"><defs><style>.cls-1 { fill: #f76649; fill-rule: evenodd; }</style></defs><path class="cls-1" d="M33.27 17.31l-12.6 34.6-.013.04c-.3 1.133-.8 1.263-1.16 1.263-.15 0-.565-.13-1.182-1.334L4.945 17.31H0l14.835 36.76a3.235 3.235 0 0 0 1.83 2.4 5.243 5.243 0 0 0 5.763-.03 4.59 4.59 0 0 0 1.777-2.353l14.03-36.777H33.27zm50.984 4.182a17.767 17.767 0 0 0-12.825-5.33c-6.26 0-11.235 2.36-14.786 7.01a21.35 21.35 0 0 0-4.7 13.342V76h5.008V50.972a15.866 15.866 0 0 0 6.072 5.754l.04.02a18.337 18.337 0 0 0 8.09 1.7c6.176 0 11.146-2.258 14.78-6.726a24.133 24.133 0 0 0 4.7-14.93 19.92 19.92 0 0 0-6.38-15.298zm-27.3 15.825c0-4.7 1.313-8.414 4.012-11.355a13.143 13.143 0 0 1 10.463-4.5 12.566 12.566 0 0 1 10.16 4.465l.03.034c2.7 2.942 4.01 6.657 4.01 11.356a17.376 17.376 0 0 1-4.275 11.62c-1.923 2.08-6.73 3.713-10.3 4.486a14.23 14.23 0 0 1-8.367-2.756 15.737 15.737 0 0 1-4.99-7.03l-.747-2.083v-4.236zm77.62-20.81v25.935A9.59 9.59 0 0 1 131.166 50 11.84 11.84 0 0 1 123 52.954a11.32 11.32 0 0 1-7.62-2.434l-.03-.027c-2.268-1.82-3.37-4.37-3.37-7.8V16.507h-5.017v27.266a13.138 13.138 0 0 0 5.127 10.56 18.443 18.443 0 0 0 22.43-.265 13.827 13.827 0 0 0 5.067-10.822v-26.74h-5.017zm44.71 31.887l-.71.892a8.528 8.528 0 0 1-3.83 2.66l-.12.05a9.417 9.417 0 0 1-4.376.96 9.993 9.993 0 0 1-6.34-2.2 6.243 6.243 0 0 1-2.566-5.393v-23.29h14.606V17.3h-14.606V0h-5.014v45.613a12 12 0 0 0 4.014 9.2l.038.032a14.96 14.96 0 0 0 9.868 3.39 16.352 16.352 0 0 0 6.2-1.406 32.022 32.022 0 0 0 5.752-3.283l.8-.567z"/></svg>