<svg xmlns="http://www.w3.org/2000/svg" width="372" height="87"><path fill-rule="evenodd" fill="#FFF" d="M354.59 64.006c-11.37 0-17.457-4.33-17.457-18.92 0-14.332 6.088-18.094 17.457-18.094 11.32 0 17.408 3.762 17.408 18.095 0 14.59-6.087 18.92-17.408 18.92zm0-28.017c-6.488 0-7.194.71-7.194 9.2 0 8.995.706 9.912 7.194 9.912 6.44 0 7.145-.917 7.145-9.913 0-8.49-.704-9.2-7.145-9.2zm-46.315 9.352V27.856h10.264v17.64c0 8.332 1.36 9.2 7.797 9.2h6.54v8.598h-7.797c-11.32 0-16.805-4.126-16.805-17.952zm-34.517 0c0-13.827 5.483-17.486 16.804-17.486h11.66v8.54H291.82c-4.985 0-6.926.368-7.55 4.475h14.322v8.387h-14.42c.49 4.85 2.35 5.438 7.648 5.438h10.405v8.6h-11.66c-11.32 0-16.805-4.127-16.805-17.953zM251.38 63.294h-15.897V27.856h15.897c11.32 0 16.804 3.66 16.804 17.486S262.7 63.294 251.38 63.294zm-1.257-26.897h-5.03v18.298h5.03c6.44 0 7.798-.865 7.798-9.2 0-8.488-1.358-9.098-7.797-9.098zM229.41 53.88c0 7.27-3.724 9.414-9.41 9.414h-20.878V27.856h20.88c6.993 0 8.854 2.592 8.854 8.538 0 5.135-1.358 7.88-7.647 8.39 6.69.304 8.2 3.303 8.2 9.097zm-12.376-17.738h-8.302v4.98h8.302c.853 0 1.46-.253 1.46-2.44 0-2.083-.607-2.54-1.46-2.54zm-.05 12.86h-8.252V55h8.452c1.057 0 1.81-.61 1.81-2.9 0-2.436-.804-3.098-2.01-3.098zm-52.38-3.66c0-13.826 5.485-17.486 16.805-17.486h11.66v8.538h-10.403c-4.985 0-6.927.37-7.55 4.475h14.32v8.386h-14.42c.492 4.85 2.35 5.44 7.65 5.44h10.404v8.598h-11.66c-11.32 0-16.805-4.126-16.805-17.952zm-22.043 17.952h-11.745c-11.32 0-16.803-4.126-16.803-17.952V27.856h10.265l-.002 17.64c0 8.225 1.323 9.174 7.548 9.2v-26.84h9.608v26.84c6.33-.014 7.673-.92 7.673-9.2l-.003-17.64h10.265v17.486c0 13.826-5.483 17.952-16.804 17.952zM59.735 87h-32.24C12.343 87 0 74.69 0 59.58V36.25h19.18v23.33c0 7.107 5.83 12.92 12.953 12.92h22.96c7.123 0 12.953-5.814 12.953-12.92V36.25h19.18v23.33C87.226 74.687 74.882 87 59.734 87zm8.312-85.717C77.384 4.248 84.58 12.07 86.632 21.75H68.047V1.283zM49.92 58H37.307c-2.01 0-3.657-1.64-3.657-3.647V32.648c0-2.006 1.646-3.647 3.658-3.647h12.61c2.012 0 3.657 1.642 3.657 3.648v21.705C53.575 56.36 51.93 58 49.92 58zM20.502 21.75H.593C3.224 9.35 14.292-.002 27.494-.002h26.082V14.5H32.132c-5.088 0-9.514 2.966-11.63 7.25z"/></svg>