<svg width="141" height="50" viewBox="0 0 121 43" xmlns="http://www.w3.org/2000/svg"><g fill="none" fill-rule="evenodd"><path d="M114.377 16.978c0-1.31 1.025-2.37 2.277-2.37 1.26 0 2.274 1.06 2.274 2.37 0 1.311-1.014 2.371-2.274 2.371-1.252 0-2.277-1.06-2.277-2.371zm2.278 1.81c.957 0 1.738-.813 1.738-1.81 0-.992-.781-1.798-1.738-1.798-.953 0-1.738.806-1.738 1.798 0 .997.785 1.81 1.738 1.81zm-.31-.772h-.467V15.93h.846c.172 0 .365.01.513.115a.646.646 0 0 1 .255.525.555.555 0 0 1-.344.526l.365.921h-.519l-.308-.818h-.342v.818zm0-1.173h.26c.095 0 .206.003.286-.043.079-.05.114-.152.114-.242 0-.078-.046-.173-.114-.21-.07-.046-.21-.036-.292-.036h-.254v.531zM81.812 1.223l-.624 4.018c-1.354-.714-2.349-.993-3.412-.993-2.837 0-4.843 2.855-4.843 6.93 0 2.815 1.347 4.512 3.562 4.512.94 0 1.973-.3 3.237-.955l-.666 4.228c-1.398.398-2.31.54-3.367.54-4.11 0-6.665-3.068-6.665-7.994 0-6.625 3.531-11.251 8.583-11.251.652 0 1.235.063 1.709.199l1.57.407c.468.184.573.212.916.359zM69.164 3.976a2.115 2.115 0 0 0-.39-.038c-1.255 0-1.965.657-3.131 2.452l.339-2.29H62.53l-2.34 15.062h3.829c1.37-9.205 1.72-10.795 3.555-10.795.112 0 .122 0 .279.015.338-1.815.802-3.149 1.441-4.366l-.13-.04zM46.35 18.978c-1.036.341-1.855.497-2.734.497-1.945 0-3.007-1.173-3.007-3.313 0-.42.031-.873.108-1.35l.236-1.47.175-1.199L42.78 1.866h3.788l-.434 2.235h1.95l-.535 3.66h-1.945l-1.007 6.287c-.034.277-.064.482-.064.624 0 .77.398 1.115 1.298 1.115.44 0 .771-.045 1.026-.14l-.508 3.331zM31.328 8.863c0 1.901.885 3.216 2.888 4.198 1.534.756 1.778.976 1.778 1.661 0 .936-.681 1.37-2.18 1.37-1.132 0-2.189-.187-3.407-.603l-.528 3.474.173.036.7.147c.224.047.556.09.993.136.908.084 1.605.124 2.098.124 3.998 0 5.847-1.598 5.847-5.028 0-2.061-.77-3.28-2.676-4.193-1.59-.75-1.77-.926-1.77-1.626 0-.817.63-1.236 1.855-1.236.747 0 1.76.087 2.726.224l.543-3.478c-.994-.168-2.47-.297-3.343-.297-4.242 0-5.713 2.311-5.697 5.091zm80.837 10.299h-3.607l.19-1.476c-1.051 1.166-2.13 1.675-3.522 1.675-2.787 0-4.613-2.486-4.613-6.252 0-5.01 2.838-9.24 6.208-9.24 1.481 0 2.6.635 3.655 2.063l.83-5.291h3.756l-2.897 18.521zm-5.625-3.546c1.78 0 3.025-2.093 3.025-5.074 0-1.914-.71-2.957-2.027-2.957-1.726 0-2.954 2.102-2.954 5.066 0 1.972.66 2.965 1.956 2.965zm-48.12 3.23c-1.304.405-2.564.61-3.915.604-4.25 0-6.47-2.315-6.47-6.741 0-5.176 2.824-8.986 6.663-8.986 3.131 0 5.143 2.135 5.143 5.481 0 1.108-.136 2.189-.475 3.715h-7.577c-.032.23-.037.335-.037.468 0 1.76 1.134 2.647 3.351 2.647 1.36 0 2.583-.292 3.953-.958l-.636 3.77zm-2.138-8.969c.022-.315.027-.571.027-.762 0-1.231-.67-1.95-1.804-1.95-1.209 0-2.075.96-2.43 2.702l4.207.01zm-40.253 9.285h-3.807l2.18-14.233L9.53 19.162H6.92l-.315-14.15-2.297 14.15H.743L3.718.64h5.486l.151 11.461L13.06.641h5.921zm9.811-6.709a6.435 6.435 0 0 0-.854-.065c-2.16 0-3.253.778-3.253 2.3 0 .937.538 1.535 1.37 1.535 1.55 0 2.673-1.536 2.736-3.77zm2.77 6.709h-3.155l.069-1.564c-.962 1.247-2.247 1.826-3.993 1.826-2.072 0-3.486-1.679-3.486-4.104 0-3.677 2.472-5.811 6.697-5.811.432 0 .983.033 1.55.111.12-.498.151-.713.151-.977 0-.995-.662-1.372-2.448-1.372-1.078 0-2.316.162-3.169.43l-.53.152-.333.098.524-3.378c1.903-.586 3.156-.811 4.568-.811 3.274 0 5.01 1.53 5.01 4.416 0 .75-.056 1.306-.316 2.988l-.797 5.336-.13.964-.098.767-.066.525-.048.404zm59.766-6.709a6.353 6.353 0 0 0-.847-.065c-2.167 0-3.265.778-3.265 2.3 0 .937.544 1.535 1.376 1.535 1.557 0 2.668-1.536 2.736-3.77zm2.774 6.709h-3.16l.074-1.564c-.962 1.247-2.25 1.826-3.993 1.826-2.072 0-3.492-1.679-3.492-4.104 0-3.677 2.47-5.811 6.703-5.811.43 0 .986.033 1.55.111.116-.498.15-.713.15-.977 0-.995-.662-1.372-2.447-1.372-1.085 0-2.319.162-3.164.43l-.542.152-.33.098.53-3.378c1.905-.586 3.155-.811 4.557-.811 3.28 0 5.016 1.53 5.016 4.416 0 .75-.066 1.306-.313 2.988l-.803 5.336-.118.964-.107.767-.07.525-.041.404zm10.644-15.186a1.92 1.92 0 0 0-.383-.038c-1.25 0-1.966.657-3.138 2.452l.34-2.29h-3.447l-2.33 15.062h3.816c1.37-9.205 1.73-10.795 3.554-10.795.118 0 .11-.01.266.015.345-1.815.812-3.149 1.452-4.366l-.13-.04z" fill="#D32F2F"/><path d="M85.804 33.769c0 3.414-1.067 5.425-2.75 5.425-1.229.037-1.974-1.318-1.974-3.346 0-2.397 1.088-5.115 2.835-5.115 1.403 0 1.89 1.473 1.89 3.036zm3.748.063c0-3.795-1.894-6.75-5.455-6.75-4.098 0-6.753 3.593-6.753 8.881 0 3.786 1.569 6.882 5.45 6.882 3.916 0 6.758-2.745 6.758-9.013zm-10.983-9.414l-.583 4.014c-1.266-.709-2.188-1.002-3.185-1.002-2.662 0-4.522 2.867-4.522 6.942 0 2.814 1.245 4.516 3.32 4.516.885 0 1.853-.299 3.027-.955l-.617 4.225c-1.316.402-2.176.54-3.154.54-3.836 0-6.226-3.07-6.226-7.996 0-6.628 3.298-11.254 8.022-11.254.611 0 1.153.077 1.6.2l1.458.409c.45.177.542.208.86.361zm-23.564 2.758a1.409 1.409 0 0 0-.365-.042c-1.156 0-1.834.66-2.917 2.449l.315-2.285h-3.222l-2.175 15.063h3.558c1.28-9.214 1.618-10.8 3.325-10.8.1 0 .111 0 .26.017.32-1.822.753-3.157 1.351-4.376l-.13-.026zm46.48 15.024h-3.362l.173-1.47c-.978 1.16-1.996 1.672-3.297 1.672-2.593 0-4.305-2.49-4.305-6.255 0-5.001 2.658-9.243 5.8-9.243 1.385 0 2.437.648 3.409 2.076l.785-5.297h3.502L101.485 42.2zm-5.26-3.543c1.675 0 2.83-2.091 2.83-5.075 0-1.92-.66-2.95-1.883-2.95-1.619 0-2.769 2.093-2.769 5.067 0 1.963.618 2.958 1.821 2.958zm-74.588 3.481c-1.21.413-2.39.613-3.645.613-3.974 0-6.048-2.32-6.048-6.745 0-5.169 2.638-8.982 6.22-8.982 2.933 0 4.803 2.132 4.803 5.478 0 1.106-.127 2.19-.431 3.717h-7.093c-.021.225-.03.337-.03.468 0 1.756 1.063 2.642 3.127 2.642 1.272 0 2.422-.293 3.696-.954l-.599 3.763zm-1.99-8.961c.017-.319.027-.572.027-.766 0-1.228-.625-1.947-1.682-1.947-1.137 0-1.945.967-2.27 2.697l3.926.016zm44.32 8.961a11.097 11.097 0 0 1-3.647.613c-3.982 0-6.054-2.32-6.054-6.745 0-5.169 2.642-8.982 6.22-8.982 2.934 0 4.81 2.132 4.81 5.478 0 1.106-.133 2.19-.448 3.717h-7.077c-.021.225-.034.337-.034.468 0 1.756 1.06 2.642 3.123 2.642 1.272 0 2.425-.293 3.7-.954l-.593 3.763zm-2.001-8.961c.023-.319.036-.572.036-.766 0-1.228-.63-1.947-1.683-1.947-1.137 0-1.944.967-2.273 2.697l3.92.016zm51.661 8.961a11.18 11.18 0 0 1-3.656.613c-3.974 0-6.054-2.32-6.054-6.745 0-5.169 2.647-8.982 6.226-8.982 2.933 0 4.801 2.132 4.801 5.478 0 1.106-.122 2.19-.437 3.717h-7.085c-.024.225-.03.337-.03.468 0 1.756 1.064 2.642 3.128 2.642 1.273 0 2.42-.293 3.698-.954l-.591 3.763zm-2-8.961c.015-.319.026-.572.026-.766 0-1.228-.623-1.947-1.682-1.947-1.137 0-1.942.967-2.271 2.697l3.926.016zm-100.523-5.32c-.697-.462-1.64-.865-2.973-.865-1.438 0-2.596.296-2.596 1.81 0 2.677 5.245 1.677 5.245 7.408 0 5.22-3.462 6.572-6.594 6.572-1.393 0-2.996-.456-4.177-.976l.85-3.835c.713.641 2.151 1.08 3.327 1.08 1.121 0 2.878-.303 2.878-2.24 0-3.031-5.243-1.904-5.243-7.226 0-4.868 3.062-6.326 6.017-6.326 1.663 0 3.226.241 4.143.844l-.877 3.754zm20.953 14.275c-.734.35-1.714.58-3.16.58-3.11 0-5.04-3.078-5.04-6.824 0-4.904 2.79-8.816 6.896-8.816.896 0 2.263.383 3.341 1.002l-.787 3.598c-.763-.497-1.558-.813-2.376-.813-1.903 0-3.262 1.726-3.262 4.82 0 1.78.986 3.24 2.543 3.24.927 0 1.58-.193 2.377-.654l-.532 3.867zm13.31-3.772c-.182 1.297-.352 2.554-.453 3.906H41.49l.288-2.434h-.034c-1.073 1.654-2.183 2.781-4.123 2.781-2.15 0-3.316-2.24-3.316-5.166 0-1.009.063-1.578.291-3.153l.97-6.972h3.812l-1.023 6.992c-.103.751-.249 1.496-.249 2.274 0 .88.406 1.772 1.434 1.717 1.562 0 2.485-1.892 2.747-4.1l1.052-6.883h3.69l-1.66 11.039zm71.811 3.724h-.576v-2.498h-.834v-.535h2.244v.535h-.834zm3.822 0h-.538V39.55h-.008l-.515 2.535h-.564l-.503-2.535h-.008v2.535h-.537v-3.033h.84l.5 2.391h.008l.491-2.39H121z" fill="#FBC02D"/></g></svg>