<svg xmlns="http://www.w3.org/2000/svg" width="100" height="100" fill="#0097A7" viewBox="0 0 512 512"><path d="M486.4 38.4H25.6C11.468 38.415.015 49.868 0 64v307.2c.015 14.132 11.468 25.585 25.6 25.6h86.043c7.065 43.697 67.917 76.8 144.357 76.8s137.293-33.103 144.357-76.8H486.4c14.132-.015 25.585-11.468 25.6-25.6V64c-.015-14.132-11.468-25.585-25.6-25.6zM256 456.533c-69.383 0-128-31.262-128-68.267S186.617 320 256 320s128 31.262 128 68.267-58.617 68.266-128 68.266zM494.933 371.2a8.544 8.544 0 0 1-8.533 8.533h-86.043c-7.064-43.697-67.917-76.8-144.357-76.8s-137.293 33.103-144.357 76.8H25.6a8.544 8.544 0 0 1-8.533-8.533V64a8.544 8.544 0 0 1 8.533-8.533h460.8A8.544 8.544 0 0 1 494.933 64v307.2z"/><path d="M291.421 98.708l-19.083-2.917-8.613-18.35a8.534 8.534 0 0 0-15.45 0l-8.612 18.35-19.083 2.917a8.532 8.532 0 0 0-4.821 14.392l14.058 14.408-3.333 20.45a8.53 8.53 0 0 0 12.55 8.841L256 147.421l16.967 9.379a8.533 8.533 0 0 0 12.55-8.841l-3.333-20.45 14.058-14.408a8.532 8.532 0 0 0-4.821-14.393zm-24.463 19.967a8.527 8.527 0 0 0-2.313 7.333l1.2 7.354-5.717-3.158a8.526 8.526 0 0 0-8.258 0l-5.717 3.158 1.2-7.354a8.522 8.522 0 0 0-2.313-7.333l-5.471-5.608 7.171-1.092a8.538 8.538 0 0 0 6.437-4.813L256 101.15l2.821 6.013a8.543 8.543 0 0 0 6.438 4.813l7.171 1.092-5.472 5.607zm-63.466 38.808l-16.816-12.104-.246-20.129a8.535 8.535 0 0 0-13.587-6.77l-15.554 11.433-19.067-6.883a8.533 8.533 0 0 0-10.925 10.925l6.883 19.067-11.433 15.554a8.535 8.535 0 0 0 6.77 13.587l20.129.246 12.104 16.817a8.52 8.52 0 0 0 8.383 3.425 8.533 8.533 0 0 0 6.741-6.046l5.367-18.629 18.629-5.367a8.532 8.532 0 0 0 2.622-15.126zm-30.509 5.396a8.534 8.534 0 0 0-5.838 5.837l-1.808 6.279-4.354-6.05a8.526 8.526 0 0 0-6.821-3.55l-7.829-.096 4.296-5.842a8.529 8.529 0 0 0 1.15-7.954l-2.254-6.246 6.246 2.254a8.495 8.495 0 0 0 7.954-1.15l5.842-4.296.096 7.829a8.524 8.524 0 0 0 3.55 6.821l6.05 4.354-6.28 1.81zm-12.408 62.842a8.51 8.51 0 0 0-8.35-3.504l-20.45 3.333-14.408-14.058a8.532 8.532 0 0 0-14.392 4.821l-2.917 19.083-18.35 8.613a8.534 8.534 0 0 0 0 15.45l18.35 8.613 2.917 19.083a8.532 8.532 0 0 0 14.392 4.821l14.408-14.058 20.45 3.333a8.532 8.532 0 0 0 8.841-12.55l-9.379-16.967 9.379-16.967a8.528 8.528 0 0 0-.491-9.046zm-26.104 30.142l3.158 5.717-7.354-1.2a8.56 8.56 0 0 0-7.333 2.313l-5.608 5.471-1.092-7.171a8.538 8.538 0 0 0-4.813-6.437l-6.012-2.821 6.013-2.821a8.543 8.543 0 0 0 4.813-6.438l1.092-7.171 5.608 5.471a8.564 8.564 0 0 0 7.333 2.313l7.354-1.2-3.158 5.717a8.527 8.527 0 0 0-.001 8.257zm299.171-30.142a8.516 8.516 0 0 0-8.35-3.504l-20.45 3.333-14.408-14.058a8.532 8.532 0 0 0-14.392 4.821l-2.917 19.083-18.35 8.613a8.534 8.534 0 0 0 0 15.45l18.35 8.613 2.917 19.083a8.532 8.532 0 0 0 14.392 4.821l14.408-14.058 20.45 3.333a8.532 8.532 0 0 0 8.841-12.55l-9.379-16.967 9.379-16.967a8.532 8.532 0 0 0-.491-9.046zm-26.104 30.142l3.158 5.717-7.354-1.2a8.56 8.56 0 0 0-7.333 2.313l-5.608 5.471-1.092-7.171a8.538 8.538 0 0 0-4.813-6.437l-6.012-2.821 6.013-2.821a8.543 8.543 0 0 0 4.813-6.438l1.092-7.171 5.608 5.471a8.564 8.564 0 0 0 7.333 2.313l7.354-1.2-3.158 5.717a8.527 8.527 0 0 0-.001 8.257zM365.929 191.9a8.533 8.533 0 0 0 13.587-6.771l.247-20.129 16.817-12.104a8.53 8.53 0 0 0-2.621-15.125l-18.629-5.367-5.367-18.629a8.532 8.532 0 0 0-15.125-2.621l-12.104 16.817-20.129.246a8.533 8.533 0 0 0-6.771 13.587l11.433 15.558-6.883 19.062a8.533 8.533 0 0 0 10.925 10.925l19.063-6.883 15.557 11.434zm-23.321-26.775l2.254-6.25a8.526 8.526 0 0 0-1.15-7.95l-4.296-5.846 7.834-.096a8.524 8.524 0 0 0 6.821-3.55l4.354-6.05 1.808 6.279a8.534 8.534 0 0 0 5.838 5.838l6.279 1.808-6.05 4.354a8.526 8.526 0 0 0-3.55 6.821l-.096 7.834-5.846-4.296a8.52 8.52 0 0 0-7.95-1.15l-6.25 2.254zM238.933 362.667c4.713 0 8.533-3.82 8.533-8.533s-3.82-8.533-8.533-8.533H204.8a8.533 8.533 0 0 0-8.533 8.533V422.4a8.533 8.533 0 0 0 8.533 8.533h34.133c4.713 0 8.533-3.82 8.533-8.533s-3.82-8.533-8.533-8.533h-25.6V396.8H230.4c4.713 0 8.533-3.82 8.533-8.533s-3.82-8.533-8.533-8.533h-17.067v-17.067h25.6zM307.2 345.6a8.533 8.533 0 0 0-8.533 8.533v51.2a8.544 8.544 0 0 1-8.533 8.533H281.6a8.544 8.544 0 0 1-8.533-8.533v-51.2a8.533 8.533 0 0 0-17.066 0v51.2c.015 14.132 11.468 25.585 25.6 25.6h8.533c14.132-.015 25.585-11.468 25.6-25.6v-51.2a8.535 8.535 0 0 0-8.534-8.533z"/></svg>