<svg xmlns="http://www.w3.org/2000/svg" xmlns:xlink="http://www.w3.org/1999/xlink" id="Capa_1" width="100" height="100" x="0" y="0" fill="#0097A7" enable-background="new 0 0 512 512" version="1.1" viewBox="0 0 512 512" xml:space="preserve"><g><g><g><path d="M486.4,38.4H25.6C11.468,38.415,0.015,49.868,0,64v307.2c0.015,14.132,11.468,25.585,25.6,25.6h86.043 c7.065,43.697,67.917,76.8,144.357,76.8s137.293-33.103,144.357-76.8H486.4c14.132-0.015,25.585-11.468,25.6-25.6V64 C511.985,49.868,500.532,38.415,486.4,38.4z M256,456.533c-69.383,0-128-31.262-128-68.267S186.617,320,256,320 s128,31.262,128,68.267S325.383,456.533,256,456.533z M494.933,371.2c-0.006,4.71-3.823,8.527-8.533,8.533h-86.043 c-7.064-43.697-67.917-76.8-144.357-76.8s-137.293,33.103-144.357,76.8H25.6c-4.71-0.006-8.527-3.823-8.533-8.533V64 c0.006-4.71,3.823-8.527,8.533-8.533h460.8c4.71,0.006,8.527,3.823,8.533,8.533V371.2z"/><path d="M291.421,98.708l-19.083-2.917l-8.613-18.35c-1.406-2.995-4.416-4.908-7.725-4.908c-3.309,0-6.319,1.913-7.725,4.908 l-8.612,18.35l-19.083,2.917c-3.162,0.482-5.788,2.692-6.804,5.724s-0.25,6.378,1.983,8.668l14.058,14.408l-3.333,20.45 c-0.528,3.225,0.834,6.469,3.506,8.351c2.672,1.882,6.184,2.073,9.044,0.49L256,147.421l16.967,9.379 c2.86,1.582,6.372,1.392,9.044-0.49c2.672-1.882,4.033-5.126,3.506-8.351l-3.333-20.45l14.058-14.408 c2.233-2.289,2.999-5.635,1.983-8.668C297.209,101.4,294.582,99.19,291.421,98.708z M266.958,118.675 c-1.892,1.938-2.75,4.66-2.313,7.333l1.2,7.354l-5.717-3.158c-2.569-1.422-5.689-1.422-8.258,0l-5.717,3.158l1.2-7.354 c0.438-2.673-0.42-5.395-2.313-7.333l-5.471-5.608l7.171-1.092c2.814-0.431,5.228-2.236,6.437-4.813L256,101.15l2.821,6.013 c1.21,2.577,3.624,4.381,6.438,4.813l7.171,1.092L266.958,118.675z"/><path d="M203.492,157.483L203.492,157.483l-16.816-12.104l-0.246-20.129c-0.04-3.198-1.865-6.106-4.727-7.532 c-2.863-1.427-6.283-1.133-8.86,0.762l-15.554,11.433l-19.067-6.883c-3.112-1.124-6.593-0.348-8.933,1.992 c-2.34,2.34-3.116,5.821-1.992,8.933l6.883,19.067l-11.433,15.554c-1.894,2.577-2.188,5.997-0.762,8.86 c1.427,2.863,4.334,4.688,7.532,4.727l20.129,0.246l12.104,16.817c1.602,2.23,4.18,3.552,6.925,3.55 c0.489,0,0.977-0.042,1.458-0.125c3.219-0.559,5.837-2.906,6.741-6.046l5.367-18.629l18.629-5.367 c3.14-0.904,5.488-3.522,6.046-6.742S206.144,159.391,203.492,157.483z M172.983,162.879c-2.82,0.812-5.025,3.017-5.838,5.837 l-1.808,6.279l-4.354-6.05c-1.581-2.2-4.112-3.517-6.821-3.55l-7.829-0.096l4.296-5.842c1.687-2.293,2.118-5.277,1.15-7.954 l-2.254-6.246l6.246,2.254c2.677,0.974,5.663,0.543,7.954-1.15l5.842-4.296l0.096,7.829c0.032,2.708,1.35,5.24,3.55,6.821 l6.05,4.354L172.983,162.879z"/><path d="M160.575,225.721c-1.879-2.675-5.125-4.037-8.35-3.504l-20.45,3.333l-14.408-14.058 c-2.289-2.233-5.635-2.999-8.668-1.983s-5.242,3.642-5.724,6.804l-2.917,19.083l-18.35,8.613 c-2.995,1.406-4.908,4.416-4.908,7.725s1.913,6.319,4.908,7.725l18.35,8.613l2.917,19.083c0.482,3.162,2.692,5.788,5.724,6.804 s6.379,0.25,8.668-1.983l14.408-14.058l20.45,3.333c3.225,0.527,6.469-0.834,8.351-3.506c1.882-2.672,2.073-6.184,0.49-9.044 l-9.379-16.967l9.379-16.967C162.65,231.906,162.459,228.393,160.575,225.721z M134.471,255.863l3.158,5.717l-7.354-1.2 c-2.673-0.432-5.392,0.426-7.333,2.313l-5.608,5.471l-1.092-7.171c-0.431-2.814-2.236-5.228-4.813-6.437l-6.012-2.821 l6.013-2.821c2.577-1.21,4.381-3.624,4.813-6.438l1.092-7.171l5.608,5.471c1.941,1.887,4.661,2.744,7.333,2.313l7.354-1.2 l-3.158,5.717C133.05,250.174,133.05,253.293,134.471,255.863z"/><path d="M433.642,225.721c-1.88-2.674-5.125-4.035-8.35-3.504l-20.45,3.333l-14.408-14.058c-2.289-2.233-5.635-2.999-8.668-1.983 c-3.033,1.016-5.242,3.642-5.724,6.804l-2.917,19.083l-18.35,8.613c-2.995,1.406-4.908,4.416-4.908,7.725 s1.913,6.319,4.908,7.725l18.35,8.613l2.917,19.083c0.482,3.162,2.692,5.788,5.724,6.804c3.033,1.016,6.379,0.25,8.668-1.983 l14.408-14.058l20.45,3.333c3.225,0.527,6.469-0.834,8.351-3.506c1.882-2.672,2.073-6.184,0.49-9.044l-9.379-16.967l9.379-16.967 C435.716,231.906,435.525,228.393,433.642,225.721z M407.538,255.863l3.158,5.717l-7.354-1.2 c-2.673-0.432-5.392,0.426-7.333,2.313l-5.608,5.471l-1.092-7.171c-0.431-2.814-2.236-5.228-4.813-6.437l-6.012-2.821 l6.013-2.821c2.577-1.21,4.381-3.624,4.813-6.438l1.092-7.171l5.608,5.471c1.941,1.887,4.661,2.744,7.333,2.313l7.354-1.2 l-3.158,5.717C406.117,250.174,406.117,253.293,407.538,255.863z"/><path d="M365.929,191.9c2.577,1.895,5.998,2.19,8.861,0.763c2.863-1.427,4.688-4.335,4.726-7.534L379.763,165l16.817-12.104 c2.653-1.908,3.983-5.163,3.425-8.383c-0.558-3.22-2.906-5.838-6.046-6.742l-18.629-5.367l-5.367-18.629 c-0.904-3.14-3.522-5.488-6.742-6.046c-3.22-0.558-6.475,0.772-8.383,3.425l-12.104,16.817l-20.129,0.246 c-3.199,0.039-6.107,1.863-7.534,4.726c-1.427,2.863-1.132,6.284,0.763,8.861l11.433,15.558l-6.883,19.062 c-1.124,3.112-0.348,6.594,1.992,8.933c2.34,2.34,5.821,3.116,8.933,1.992l19.063-6.883L365.929,191.9z M342.608,165.125 l2.254-6.25c0.967-2.676,0.536-5.658-1.15-7.95l-4.296-5.846l7.834-0.096c2.708-0.032,5.24-1.35,6.821-3.55l4.354-6.05 l1.808,6.279c0.812,2.82,3.017,5.025,5.838,5.838l6.279,1.808l-6.05,4.354c-2.2,1.581-3.517,4.112-3.55,6.821l-0.096,7.834 l-5.846-4.296c-2.292-1.687-5.274-2.118-7.95-1.15L342.608,165.125z"/><path d="M238.933,362.667c4.713,0,8.533-3.82,8.533-8.533s-3.82-8.533-8.533-8.533H204.8c-4.713,0-8.533,3.82-8.533,8.533V422.4 c0,4.713,3.82,8.533,8.533,8.533h34.133c4.713,0,8.533-3.82,8.533-8.533s-3.82-8.533-8.533-8.533h-25.6V396.8H230.4 c4.713,0,8.533-3.82,8.533-8.533s-3.82-8.533-8.533-8.533h-17.067v-17.067H238.933z"/><path d="M307.2,345.6c-4.713,0-8.533,3.82-8.533,8.533v51.2c-0.006,4.71-3.823,8.527-8.533,8.533H281.6 c-4.71-0.006-8.527-3.823-8.533-8.533v-51.2c0-4.713-3.821-8.533-8.533-8.533s-8.533,3.82-8.533,8.533v51.2 c0.015,14.132,11.468,25.585,25.6,25.6h8.533c14.132-0.015,25.585-11.468,25.6-25.6v-51.2 C315.733,349.421,311.913,345.6,307.2,345.6z"/></g></g></g></svg>