<svg xmlns="http://www.w3.org/2000/svg" width="100" height="100" fill="#1fa1af" viewBox="0 0 512 512"><path d="M160 363.52l-4.267 34.133c-.853 7.68.853 15.36 5.973 20.48 4.267 5.12 11.093 8.533 18.773 8.533h29.867c7.68 0 16.213-2.56 20.48-8.533s6.827-12.8 5.973-20.48l-4.267-34.133c-1.707-12.8-12.8-22.187-25.6-22.187H185.6c-12.8 0-23.893 9.387-25.6 22.187zm55.467 2.56l4.267 34.133c.853 2.56 0 5.12-1.707 6.827s-4.267 2.56-6.827 2.56h-29.867c-2.56 0-5.12-.853-6.827-2.56s-1.707-4.267-1.707-6.827l4.267-34.133c.853-4.267 4.267-7.68 8.533-7.68h21.333c4.268 0 7.681 3.413 8.535 7.68zm-62.294-84.48h42.667c5.12 0 8.533-3.413 8.533-8.533 0-5.12-3.413-8.533-8.533-8.533h-42.667c-5.12 0-8.533 3.413-8.533 8.533 0 5.12 3.413 8.533 8.533 8.533zm76.8 0h8.533c5.12 0 8.533-3.413 8.533-8.533 0-5.12-3.413-8.533-8.533-8.533h-8.533c-5.12 0-8.533 3.413-8.533 8.533 0 5.12 3.413 8.533 8.533 8.533z"/><path d="M395.52 443.733h-4.239a44.26 44.26 0 0 0 .825-8.533v-17.067c0-5.12-3.413-8.533-8.533-8.533h-8.533V102.4C375.04 46.08 328.96 0 272.64 0s-102.4 46.08-102.4 102.4v51.2c-5.12 0-8.533 3.413-8.533 8.533v32.048c-35.935 14.352-59.733 48.575-59.733 87.418V384H93.44c-14.507 0-25.6 11.093-25.6 25.6v59.733c0 14.507 11.093 25.6 25.6 25.6h9.909C106.74 505.037 116.083 512 127.573 512h307.2c5.12 0 8.533-3.413 9.387-8.533V488.96c0-24.747-22.187-45.227-48.64-45.227zm-47.793 17.009l-.059-.004c-8.579-.601-15.566-5.546-19.561-12.737a10.336 10.336 0 0 0-2.177-2.386c-1.346-3.157-2.09-6.67-2.09-10.414v-8.533h51.199v8.533c0 4.403-1.027 8.489-2.857 12.048-.193.243-.382.49-.557.752-4.794 7.191-11.832 12.136-20.414 12.737l-.06.004a25.473 25.473 0 0 1-3.424 0zM195.84 221.867c-9.387 0-17.067-7.68-17.067-17.067v-34.133h34.133v32.426c0 10.064-7.421 17.64-15.776 18.708-.427.032-.855.066-1.29.066zm25.6-68.267v-51.2c0-28.16 23.04-51.2 51.2-51.2s51.2 23.04 51.2 51.2v307.2c0-14.507-11.093-25.6-25.6-25.6h-8.533V281.6c0-38.843-23.798-73.067-59.733-87.418v-32.048c-.001-5.121-3.414-8.534-8.534-8.534zm74.24 290.133h-5.973v-42.667h8.533c5.12 0 8.533 3.413 8.533 8.533v34.134H295.68zM187.307 102.4c0-46.933 38.4-85.333 85.333-85.333s85.333 38.4 85.333 85.333v307.2h-17.067V102.4c0-37.547-30.72-68.267-68.267-68.267s-68.267 30.72-68.267 68.267v51.2h-17.067v-51.2zm-102.4 366.933V409.6c0-5.12 3.413-8.533 8.533-8.533h8.533v76.8H93.44c-5.12 0-8.533-3.414-8.533-8.534zM119.04 486.4V281.6c0-29.867 17.067-56.32 43.52-69.12.048.167.101.336.152.504a33.983 33.983 0 0 0 4.805 10.804c1.324 2.163 2.816 4.145 4.43 5.759 6.827 6.827 16.213 10.24 25.6 9.387a34.018 34.018 0 0 0 8.338-1.519c8.784-2.725 16.072-8.924 20.256-16.968a38.144 38.144 0 0 0 .581-1.164c.169-.354.33-.712.487-1.073.029-.067.06-.132.088-.199a33.724 33.724 0 0 0 1.823-5.53c26.453 11.947 43.52 39.253 43.52 69.12v173.183c-.597.479-1.181.97-1.752 1.474-.283.241-.556.489-.831.735l-.134.123c-6.903 6.24-11.437 14.254-13.331 22.742-.029.128-.051.259-.079.387a43.125 43.125 0 0 0-.35 1.782c-.058.339-.099.683-.149 1.025-.059.41-.126.82-.172 1.232-.058.512-.095 1.03-.135 1.547-.02.258-.05.516-.065.775-.045.78-.068 1.565-.068 2.355v5.973h-17.067v-10.24c0-12.8-10.24-23.893-23.893-23.893h-37.547c-12.8 0-23.893 10.24-23.893 23.893v10.24h-25.6c-5.121-.001-8.534-3.414-8.534-8.534zm51.2 8.533v-10.24c0-3.413 2.56-6.827 6.827-6.827h37.547c3.413 0 6.827 2.56 6.827 6.827v10.24H170.24zm256 0h-153.6v-5.973c0-15.36 14.507-28.16 31.573-28.16h10.89c7.715 10.418 20.118 17.067 34.336 17.067s26.621-6.649 34.336-17.067h10.89c17.067 0 31.573 12.8 31.573 28.16v5.973z"/></svg>