<svg xmlns="http://www.w3.org/2000/svg" width="80" height="80" fill="#1fa1af" viewBox="0 0 512 512"><path d="M507.054 314.027c-15.36-20.48-30.72-20.48-68.267-.853L365.4 358.4c-10.24 5.973-33.28 7.68-54.613 7.68 4.267-7.68 2.56-17.067-5.12-28.16-13.653-19.627-36.693-31.573-61.44-31.573h-33.28c-17.92 0-34.987-5.12-48.64-15.36-30.791-23.093-78.94 2.035-102.4 17.023v-17.876H.174V512h59.733v-25.6H170.84c17.067 0 34.987-1.707 52.053-2.56l110.933-17.067c4.267 0 8.533-.853 11.947-1.707 10.24-1.707 19.627-6.827 28.16-14.507l128.853-102.4c10.241-8.532 11.948-23.892 4.268-34.132zM42.84 494.933h-25.6V307.2h25.6v187.733zm449.707-158.72L362.84 436.907l-.853.853c-5.12 5.973-11.947 9.387-19.627 10.24-3.413.853-5.973.853-9.387.853l-112.64 17.067c-16.213 2.56-33.28 3.413-49.493 3.413H59.907v-140.8c20.48-14.507 68.267-41.813 92.16-23.04 16.213 11.947 36.693 18.773 58.88 18.773h33.28c19.627 0 37.547 8.533 48.64 24.747 3.413 5.12 4.267 10.24 3.413 11.947-2.56 4.267-12.8 5.973-23.893 6.827h-89.6c-26.453 0-42.667 12.8-42.667 34.133 0 5.12 3.413 8.533 8.533 8.533 5.12 0 8.533-3.413 8.533-8.533 0-4.267 0-17.067 25.6-17.067h94.72c40.107.853 77.653 0 97.28-10.24l73.387-45.227c35.84-17.92 39.253-13.653 46.08-3.413 1.707 2.56 1.707 7.68-1.706 10.24zm-174.08-91.306c1.707 1.707 3.413 2.56 5.973 2.56s4.267-.853 5.973-2.56l25.6-25.6c3.413-3.413 3.413-8.533 0-11.947s-8.533-3.413-11.947 0l-25.6 25.6c-3.412 3.413-3.412 8.533.001 11.947zm-25.6-37.547c-3.413 3.413-3.413 8.533 0 11.947 1.707 1.707 3.413 2.56 5.973 2.56s4.267-.853 5.973-2.56l25.6-25.6c3.413-3.413 3.413-8.533 0-11.947-3.413-3.413-8.533-3.413-11.947 0l-25.599 25.6z"/><path d="M179.374 127.304v137.23c0 2.56.853 4.267 2.56 5.973l26.453 25.6c1.707 1.707 3.413 2.56 5.973 2.56 1.707 0 4.267-.853 5.973-2.56l24.747-25.6c1.707-1.707 2.56-3.413 2.56-5.973V256c0-2.56-.853-4.267-2.56-5.973l-11.093-11.093 11.093-11.093c1.707-1.707 2.56-3.413 2.56-5.973l62.293 62.293c5.12 4.267 11.093 6.827 17.067 6.827 5.12 0 10.24-1.707 14.507-5.973l70.827-70.827c4.267-4.267 5.973-10.24 5.973-16.213s-2.56-11.093-6.827-15.36l-76.597-76.597c4.412-9.188 6.624-18.926 6.624-29.217 0-37.547-30.72-68.267-68.267-68.267-7.049 0-14.098 1.184-21.147 3.513C241.097 4.461 227.8 0 213.507 0 175.96 0 145.24 30.72 145.24 68.267c0 25.131 13.773 47.187 34.134 59.037zm51.2 91.149l-14.507 14.507c-3.413 3.413-3.413 8.533 0 11.947l14.507 14.507v1.707l-17.067 17.067-17.067-17.068V134.827c4.267.853 8.533 1.707 12.8 1.707l6.827 40.96c.853 9.387 5.973 18.773 12.8 25.6l1.707 1.707v13.652zm170.666-19.626c0 .853 0 1.707-.853 2.56l-70.827 70.827c-1.707 1.707-5.12 1.707-7.68-.853l-81.067-81.067c-4.267-4.267-7.68-10.24-8.533-16.213l-4.693-32-2.133-14.934c0-.018-.003-.035-.003-.053.002-.266.003-.533.003-.8l-.162-1.028c12.352 12.222 29.306 19.801 47.949 19.801 5.12 0 8.533-3.413 8.533-8.533S278.36 128 273.24 128c-20.432 0-38.159-12.134-46.356-29.548 1.295-1.126 2.931-2.038 4.737-2.575a16.835 16.835 0 0 1 3.219-.304h2.56l29.867 4.267c.33.066.653.105.972.131l34.015 4.989c5.973.853 11.947 4.267 16.213 8.533l81.067 81.067c.853.853 1.706 2.56 1.706 4.267zM273.24 25.6c28.16 0 51.2 23.04 51.2 51.2 0 5.973-.853 11.947-2.56 17.067-5.12-2.56-11.093-5.12-17.067-5.973l-24.747-3.413c.206-1.236.412-2.473.606-3.722a69.69 69.69 0 0 0 1.04-9.849c.036-.865.061-1.741.061-2.642 0-1.085-.032-2.169-.083-3.252-.014-.29-.036-.578-.054-.868a68.604 68.604 0 0 0-.194-2.524c-.021-.215-.044-.43-.067-.645-1.348-12.853-6.211-25.325-14.11-35.378l5.975-.001zm-59.733-8.533c11.393 0 21.946 3.774 30.477 10.13.328.355.683.687 1.097.964 7.952 6.362 13.594 14.371 16.731 23.208.058.164.112.329.168.493a49.805 49.805 0 0 1 1.862 7.108c.07.38.143.759.205 1.142.085.523.153 1.049.222 1.576.048.372.103.742.143 1.116.063.588.106 1.18.149 1.771.023.315.055.628.072.945a51.2 51.2 0 0 1 .076 2.747c0 .812-.027 1.624-.071 2.434-.005.103-.012.205-.018.307a55.968 55.968 0 0 1-.178 2.208l-.025.258c-.035.335-.081.666-.121.999-.328 2.585-.808 5.019-1.294 7.447l-23.04-3.413c-6.139-.558-12.274.356-17.697 2.956a51 51 0 0 1-.223-4.663c0-7.68 1.707-15.36 5.12-22.187 1.707-4.267 0-9.387-4.267-11.093-4.267-1.707-9.387 0-11.093 4.267-4.267 8.533-6.827 18.773-6.827 29.013a67.712 67.712 0 0 0 2.84 19.394c-2.207 5.08-2.994 10.909-1.987 16.446l.853 5.973a45.998 45.998 0 0 1-1.938-.25c-4.277-.848-8.425-2.175-12.569-4.017-.451-.15-.935-.263-1.43-.356-16.727-8.232-28.436-25.956-28.436-45.724-.001-28.159 23.039-51.199 51.199-51.199z"/></svg>