<svg xmlns="http://www.w3.org/2000/svg" width="80" height="80" fill="#0097A7" viewBox="0 0 512 512"><path d="M366.933 290.133C447.147 290.133 512 225.28 512 145.067S447.147 0 366.933 0c-59.821 0-111.091 36.074-133.297 87.684-6.768-1.454-13.535-2.351-20.303-2.351-61.44 0-110.933 52.907-110.933 117.76v44.373c0 30.987 10.283 64.132 27.439 90.91l-8.665 25.996c-.698 2.095-.807 4.191.106 6.286-27.914 5.25-58.78 17.685-99.092 38.941C8.533 416.427 0 430.08 0 445.44v58.027C0 508.587 3.413 512 8.533 512h409.6c5.12 0 8.533-3.413 9.387-8.533v-57.173c0-15.36-8.533-29.013-22.187-35.84-40.451-21.329-72.024-33.776-99.644-38.995.778-2.362 1.444-4.723.657-7.085l-8.986-26.958c10.436-16.774 18.133-35.879 22.411-55.104 14.783 5.066 30.646 7.821 47.162 7.821zm0-273.066c70.827 0 128 57.173 128 128s-57.173 128-128 128-128-57.173-128-128 57.174-128 128-128zM138.24 366.08l3.413-11.093c5.724 6.583 11.839 12.378 18.203 17.361.703.56 1.412 1.106 2.124 1.646l.14.108c5.585 4.218 11.458 7.82 17.575 10.691 6.336 3.046 12.781 5.301 19.232 6.711l-19.662 34.408-35.906-53.858c-.864-.864-1.728-1.626-2.624-2.23l-2.495-3.744zm75.52 36.373l18.712 32.747h-37.425l18.713-32.747zM17.067 445.44c0-8.533 5.12-17.067 11.947-20.48 42.667-22.187 74.24-34.133 101.547-38.4l38.997 58.496-14.251 49.877H17.067V445.44zm156.769 49.493l12.19-42.667h54.613l11.947 42.666h-78.75zM409.6 445.44v49.493H271.36l-14.091-49.318 39.152-59.723c27.866 4.417 59.142 16.333 100.379 38.214 7.68 4.267 12.8 12.801 12.8 21.334zm-121.173-80.213l-40.763 61.145-20.099-35.174c22.274-4.183 41.923-17.933 57.55-36.737l3.312 10.766zm-6.592-35.431a7.896 7.896 0 0 0-1.088 1.297c-17.589 26.383-39.672 42.279-62.74 44.18l-.066.006c-.672.055-1.344.093-2.018.124-.114.005-.227.014-.34.018-.604.024-1.21.032-1.815.037-23.763-.188-48.33-16.369-66.994-44.365a8.296 8.296 0 0 0-3.083-2.73c-15.071-23.988-24.224-53.75-24.224-80.897v-44.373c0-55.467 41.813-100.693 93.867-100.693 5.082 0 9.326.841 14.395 1.688-.4 1.365-.784 2.736-1.145 4.117-2.998 10.533-4.407 21.986-4.667 33.047l-.004.149c-.028 1.227-.046 2.45-.046 3.665 0 1.592.035 3.175.085 4.754.012.38.028.759.043 1.138.057 1.441.133 2.876.232 4.306.009.128.015.258.024.386 3.81 53.016 36.011 98.074 81.513 120.077-3.912 18.849-11.538 37.811-21.929 54.069z"/><path d="M267.093 151.04l25.6 25.6c1.707 1.707 3.413 2.56 5.973 2.56s4.267-.853 5.973-2.56l2.56-2.56v47.787c0 5.12 3.413 8.533 8.533 8.533h102.4c5.12 0 8.533-3.413 8.533-8.533V174.08l2.56 2.56c1.707 1.707 3.413 2.56 5.973 2.56s4.267-.853 5.973-2.56l25.6-25.6c1.707-1.707 2.56-3.413 2.56-5.973s-.853-4.267-2.56-5.973l-93.867-93.867c-1.707-1.707-3.413-2.56-5.973-2.56s-4.267.853-5.973 2.56l-93.867 93.867c-3.411 3.413-3.411 8.533.002 11.946zM409.6 213.333h-85.333v-56.32l42.667-42.667 42.667 42.667v56.32zM366.933 63.147l81.92 81.92L435.2 158.72l-11.092-11.092-.001-.001-51.2-51.2c-.853-1.706-2.56-2.56-4.267-2.56h-1.706c-2.56 0-4.267.853-5.973 2.56l-51.2 51.2-.001.001-11.092 11.092-13.653-13.653 81.918-81.92z"/></svg>