<?xml version="1.0" encoding="iso-8859-1"?>
<!-- Generator: Adobe Illustrator 19.0.0, SVG Export Plug-In . SVG Version: 6.00 Build 0)  -->
<svg version="1.1" id="Capa_1" xmlns="http://www.w3.org/2000/svg" xmlns:xlink="http://www.w3.org/1999/xlink" x="0px" y="0px" width="100" height="100" fill="#1fa1af"
	 viewBox="0 0 513.164 513.164" style="enable-background:new 0 0 513.164 513.164;" xml:space="preserve">
<g>
	<g>
		<path d="M225.164,264.145c2.327,2.327,5.818,3.491,8.146,3.491s5.818-1.164,8.145-3.491l138.473-138.473c0,0,1.164,0,1.164-1.164
			l1.164-1.164l26.764-26.764l20.945,4.655c8.145,2.327,16.291,0,22.109-5.818l37.236-37.236l-33.745-8.145l18.618-18.618
			c4.655-4.655,4.655-11.636,0-16.291s-11.636-4.655-16.291,0l-18.618,18.618L431.127,0l-37.236,37.236
			c-5.818,5.818-8.145,13.964-5.818,22.109l4.655,20.945l-19.782,19.782c-36.073-31.418-80.291-50.036-128-53.527V23.273
			c0-6.982-4.655-11.636-11.636-11.636s-11.636,4.655-11.636,11.636v23.273c0,0,0,0,0,1.164
			C111.127,53.527,23.854,144.291,23.854,256c0,115.2,94.255,209.455,209.455,209.455S442.764,371.2,442.764,256
			c0-39.564-10.473-77.964-31.418-110.545c-3.491-5.818-10.473-6.982-16.291-3.491s-6.982,10.473-3.491,16.291
			c18.618,29.091,27.927,62.836,27.927,97.745c0,102.4-83.782,186.182-186.182,186.182S47.127,358.4,47.127,256
			S130.909,69.818,233.309,69.818c45.382,0,88.436,16.291,123.345,46.545l-32.582,32.582c-25.6-20.945-57.018-32.582-90.764-32.582
			c-76.8,0-139.636,62.836-139.636,139.636s62.836,139.636,139.636,139.636S372.945,332.8,372.945,256
			c0-22.109-4.655-44.218-15.127-64c-3.491-5.818-10.473-8.145-15.127-4.655c-5.818,3.491-8.145,10.473-4.655,15.127
			c8.145,16.291,12.8,33.745,12.8,52.364c0,64-52.364,116.364-116.364,116.364s-116.364-52.364-116.364-116.364
			s52.364-116.364,116.364-116.364c26.764,0,52.364,9.309,73.309,26.764l-33.745,33.745c-11.636-8.145-25.6-12.8-40.727-12.8
			c-38.4,0-69.818,31.418-69.818,69.818c0,38.4,31.418,69.818,69.818,69.818c38.4,0,69.818-31.418,69.818-69.818
			c0-6.982-4.655-11.636-11.636-11.636s-11.636,4.655-11.636,11.636c0,25.6-20.945,46.545-46.545,46.545
			c-25.6,0-46.545-20.945-46.545-46.545c0-25.6,20.945-46.545,46.545-46.545c8.145,0,16.291,2.327,23.273,6.982l-31.418,31.418
			C220.509,252.509,220.509,259.491,225.164,264.145z"/>
	</g>
</g>
<g>
	<g>
		<path d="M121.6,443.345c-5.818-2.327-12.8,0-15.127,4.655L83.2,494.545c-2.327,5.818,0,12.8,4.655,15.127
			C90.182,512,91.345,512,93.673,512c4.655,0,8.145-2.327,10.473-6.982l23.273-46.545
			C129.745,453.818,127.418,446.836,121.6,443.345z"/>
	</g>
</g>
<g>
	<g>
		<path d="M383.418,496.873l-23.273-47.709c-2.327-5.818-9.309-8.145-15.127-4.655c-5.818,2.327-8.146,9.309-4.655,15.127
			l23.273,46.545c2.327,4.655,5.818,6.982,10.473,6.982c2.327,0,3.491,0,4.655-1.164
			C384.582,509.673,386.909,502.691,383.418,496.873z"/>
	</g>
</g>
<g>
</g>
<g>
</g>
<g>
</g>
<g>
</g>
<g>
</g>
<g>
</g>
<g>
</g>
<g>
</g>
<g>
</g>
<g>
</g>
<g>
</g>
<g>
</g>
<g>
</g>
<g>
</g>
<g>
</g>
</svg>
