<?xml version="1.0" encoding="iso-8859-1"?>
<!-- Generator: Adobe Illustrator 19.0.0, SVG Export Plug-In . SVG Version: 6.00 Build 0)  -->
<svg version="1.1" id="Capa_1" xmlns="http://www.w3.org/2000/svg" xmlns:xlink="http://www.w3.org/1999/xlink" x="0px" y="0px" width="100" height="100" fill="#0097A7"
	 viewBox="0 0 511.999 511.999" style="enable-background:new 0 0 511.999 511.999;" xml:space="preserve">
<g>
	<g>
		<path d="M100.697,250.99c-14.641,0-26.552,11.911-26.552,26.552c0,14.641,11.911,26.552,26.552,26.552
			c14.641,0,26.552-11.911,26.552-26.552C127.249,262.901,115.337,250.99,100.697,250.99z M100.697,289.065
			c-6.353,0-11.522-5.169-11.522-11.523c0-6.353,5.169-11.522,11.522-11.522c6.353,0,11.523,5.169,11.523,11.522
			C112.219,283.895,107.05,289.065,100.697,289.065z"/>
	</g>
</g>
<g>
	<g>
		<path d="M179.851,293.072h-14.027c-4.15,0-7.515,3.364-7.515,7.515s3.365,7.515,7.515,7.515h14.027
			c4.15,0,7.515-3.364,7.515-7.515S184.001,293.072,179.851,293.072z"/>
	</g>
</g>
<g>
	<g>
		<path d="M224.939,293.072h-21.041c-4.15,0-7.515,3.364-7.515,7.515s3.365,7.515,7.515,7.515h21.041
			c4.15,0,7.515-3.364,7.515-7.515S229.089,293.072,224.939,293.072z"/>
	</g>
</g>
<g>
	<g>
		<path d="M137.769,168.83c-2.49-3.32-7.201-3.992-10.521-1.503l-16.031,12.023c-3.32,2.49-3.993,7.201-1.503,10.521
			c1.477,1.969,3.733,3.006,6.018,3.006c1.569,0,3.151-0.489,4.503-1.503l16.031-12.023
			C139.586,176.86,140.259,172.149,137.769,168.83z"/>
	</g>
</g>
<g>
	<g>
		<path d="M170.393,175.424c-2.444-3.354-7.144-4.091-10.5-1.644l-48.094,35.068c-3.354,2.445-4.09,7.146-1.644,10.5
			c1.471,2.018,3.758,3.088,6.078,3.088c1.535,0,3.085-0.47,4.422-1.444l48.094-35.068
			C172.102,183.477,172.838,178.777,170.393,175.424z"/>
	</g>
</g>
<g>
	<g>
		<path d="M371.225,100.697c-24.27,0-47.125,6.174-67.078,17.033H121.021c-15.719,0-28.913,11.76-30.722,27.367l-9.328,70.552
			l-6.955-11.205c-1.371-2.208-3.785-3.552-6.384-3.552h-8.887c-1.812-9.68-10.311-17.033-20.508-17.033H20.879
			C9.366,183.859,0,193.225,0,204.738v7.338c0,11.512,9.366,20.879,20.879,20.879h17.358c10.198,0,18.696-7.353,20.508-17.033h4.707
			l10.62,17.11c-11.084,4.805-19.481,14.839-21.788,27.298c-3.466,18.732-5.524,37.255-6.174,55.218
			c-0.027,0.257-0.041,0.519-0.041,0.784c0,0.03,0.004,0.06,0.005,0.09c-0.103,3.054-0.176,6.095-0.195,9.114
			c-0.066,10.075,3.797,19.55,10.88,26.679c2.516,2.533,5.334,4.651,8.368,6.337v31.645c0,11.638,9.469,21.105,21.105,21.105h39.949
			c11.638,0,21.105-9.467,21.105-21.105v-0.937h13.1c9.904,0,17.961-8.057,17.961-17.961v-8.09h121.738
			c0.16,0,0.318-0.014,0.475-0.024c20.782,12.112,44.925,19.061,70.664,19.061c77.624,0,140.775-63.151,140.775-140.775
			S448.849,100.697,371.225,100.697z M44.086,212.076c0,3.225-2.624,5.849-5.849,5.849H20.879c-3.225,0-5.849-2.624-5.849-5.849
			v-7.338c0-3.225,2.624-5.849,5.849-5.849h17.358c3.225,0,5.849,2.624,5.849,5.849V212.076z M121.021,132.759h160.863
			c-4.573,3.764-8.901,7.814-12.965,12.117H105.594C107.31,137.847,113.613,132.759,121.021,132.759z M103.502,159.905H256.55
			c-14.329,20.086-23.512,44.08-25.626,70.044H94.241L103.502,159.905z M132.258,381.746v8.453c0,3.351-2.726,6.076-6.076,6.076
			h-39.95c-3.351,0-6.076-2.726-6.076-6.076v-26.989h52.102V381.746z M163.319,371.299c0,1.616-1.316,2.932-2.932,2.932h-13.1
			v-11.021h16.031V371.299z M83.175,348.18c-5.959,0-11.554-2.329-15.754-6.557c-4.24-4.268-6.554-9.946-6.513-15.987
			c0.004-0.593,0.026-1.194,0.033-1.789h71.932c0.824,1.438,1.779,2.81,2.877,4.089c5.031,5.861,12.347,9.223,20.072,9.223h82.141
			c4.15,0,7.515-3.364,7.515-7.515s-3.365-7.515-7.515-7.515h-82.141c-3.337,0-6.496-1.452-8.669-3.984
			c-0.97-1.129-1.681-2.425-2.145-3.8c-0.057-0.21-0.124-0.416-0.199-0.618c-0.42-1.529-0.526-3.146-0.28-4.753l3.023-19.733
			c0.861-5.617,5.61-9.695,11.293-9.695h62.085c4.15,0,7.515-3.364,7.515-7.515c0-4.151-3.365-7.515-7.515-7.515h-62.085
			c-13.159,0-24.156,9.44-26.149,22.448l-3.023,19.733c-0.108,0.706-0.177,1.413-0.228,2.119H61.47
			c0.866-14.945,2.728-30.266,5.594-45.752c1.94-10.481,11.138-18.086,21.873-18.086h141.558
			c1.012,41.209,19.821,78.077,49.013,103.203H83.175z M371.225,367.217c-69.336,0-125.746-56.409-125.746-125.746
			s56.409-125.746,125.746-125.746s125.746,56.409,125.746,125.746S440.561,367.217,371.225,367.217z"/>
	</g>
</g>
<g>
	<g>
		<path d="M472.609,187.75c-1.946-3.666-6.497-5.06-10.161-3.113c-3.666,1.946-5.06,6.495-3.114,10.16
			c7.579,14.277,11.586,30.416,11.586,46.675c0,54.971-44.723,99.695-99.695,99.695s-99.695-44.723-99.695-99.695
			s44.723-99.695,99.695-99.695c27.231,0,52.667,10.781,71.623,30.356c2.887,2.98,7.645,3.057,10.626,0.17
			c2.982-2.888,3.058-7.645,0.17-10.626c-21.813-22.524-51.083-34.929-82.42-34.929c-63.259-0.001-114.723,51.464-114.723,114.723
			s51.465,114.724,114.724,114.724s114.724-51.465,114.724-114.724C485.949,222.765,481.336,204.188,472.609,187.75z"/>
	</g>
</g>
<g>
	<g>
		<path d="M424.632,284.252L378.74,238.36v-58.007c0-4.151-3.365-7.515-7.515-7.515s-7.515,3.364-7.515,7.515v61.119
			c0,1.993,0.792,3.904,2.201,5.314l48.094,48.094c1.467,1.467,3.391,2.2,5.313,2.2c1.923,0,3.846-0.733,5.313-2.2
			C427.567,291.944,427.567,287.187,424.632,284.252z"/>
	</g>
</g>
<g>
</g>
<g>
</g>
<g>
</g>
<g>
</g>
<g>
</g>
<g>
</g>
<g>
</g>
<g>
</g>
<g>
</g>
<g>
</g>
<g>
</g>
<g>
</g>
<g>
</g>
<g>
</g>
<g>
</g>
</svg>
