<?xml version="1.0" encoding="iso-8859-1"?>
<!-- Generator: Adobe Illustrator 19.0.0, SVG Export Plug-In . SVG Version: 6.00 Build 0)  -->
<svg version="1.1" id="Layer_1" xmlns="http://www.w3.org/2000/svg" xmlns:xlink="http://www.w3.org/1999/xlink" x="0px" y="0px" width="100" height="100" fill="#1fa1af"
	 viewBox="0 0 512 512" style="enable-background:new 0 0 512 512;" xml:space="preserve">
<g>
	<g>
		<g>
			<path d="M256,392.533c-4.71,0-8.533,3.823-8.533,8.533v17.067c0,4.71,3.823,8.533,8.533,8.533c21.7,0,42.854-4.028,62.882-11.964
				c4.378-1.741,6.519-6.699,4.787-11.076c-1.741-4.386-6.69-6.537-11.085-4.787c-15.369,6.101-31.505,9.626-48.051,10.53v-8.303
				C264.533,396.356,260.71,392.533,256,392.533z"/>
			<path d="M345.779,420.898c-22.084,12.058-45.995,19.422-71.057,21.905c-3.234,0.316-6.008,2.449-7.151,5.495L256,479.164
				l-11.571-30.865c-1.143-3.046-3.917-5.18-7.151-5.495c-88.619-8.772-159.309-79.462-168.081-168.081
				c-0.316-3.234-2.449-6.008-5.495-7.151L32.836,256l30.865-11.571c3.046-1.143,5.18-3.917,5.495-7.151
				c2.483-25.054,9.847-48.964,21.905-71.057c2.253-4.139,0.734-9.318-3.405-11.58c-4.147-2.253-9.318-0.725-11.58,3.405
				c-12.297,22.545-20.13,46.822-23.305,72.235L5.538,248.004C2.21,249.259,0,252.442,0,256s2.21,6.741,5.538,7.987l47.275,17.732
				c11.597,92.425,85.043,165.871,177.468,177.468l17.724,47.275C249.259,509.79,252.442,512,256,512s6.741-2.21,7.987-5.538
				l17.732-47.275c25.421-3.174,49.69-11.008,72.235-23.305c4.139-2.261,5.666-7.441,3.405-11.58
				C355.106,420.173,349.926,418.645,345.779,420.898z"/>
			<path d="M119.467,256c0-4.71-3.823-8.533-8.533-8.533H93.867c-4.71,0-8.533,3.823-8.533,8.533
				c0,79.957,56.67,150.144,134.75,166.878c0.597,0.128,1.203,0.188,1.792,0.188c3.934,0,7.475-2.739,8.337-6.741
				c0.99-4.608-1.946-9.148-6.562-10.138c-67.465-14.455-117.163-73.276-121.011-141.653h8.294
				C115.644,264.533,119.467,260.71,119.467,256z"/>
			<path d="M109.773,185.378c-4.352-1.835-9.353,0.213-11.17,4.557c-4.087,9.719-7.27,19.866-9.481,30.148
				c-0.99,4.608,1.946,9.139,6.554,10.129c0.606,0.137,1.212,0.188,1.801,0.188c3.934,0,7.475-2.731,8.329-6.741
				c1.988-9.25,4.855-18.364,8.525-27.11C116.156,192.196,114.116,187.204,109.773,185.378z"/>
			<path d="M406.195,288.341c-2.005,9.31-4.881,18.432-8.525,27.11c-1.826,4.344,0.205,9.344,4.557,11.17
				c1.075,0.461,2.202,0.674,3.302,0.674c3.337,0,6.494-1.971,7.868-5.231c4.062-9.651,7.245-19.789,9.481-30.14
				c0.99-4.608-1.937-9.139-6.545-10.138C411.716,280.806,407.177,283.725,406.195,288.341z"/>
			<path d="M506.462,248.004l-47.275-17.724C447.59,137.856,374.144,64.41,281.719,52.813L263.987,5.538
				C262.741,2.21,259.558,0,256,0s-6.741,2.21-7.996,5.538l-17.724,47.275c-25.421,3.174-49.698,10.999-72.243,23.305
				c-4.139,2.261-5.666,7.441-3.405,11.58c2.261,4.139,7.441,5.675,11.58,3.405c22.084-12.058,45.995-19.422,71.066-21.905
				c3.234-0.316,6.007-2.449,7.151-5.495L256,32.836l11.571,30.865c1.143,3.046,3.917,5.18,7.151,5.495
				c88.619,8.772,159.309,79.462,168.081,168.081c0.316,3.234,2.449,6.007,5.495,7.151L479.164,256l-30.865,11.571
				c-3.046,1.143-5.18,3.917-5.495,7.151c-2.483,25.054-9.847,48.964-21.897,71.057c-2.253,4.139-0.725,9.327,3.413,11.58
				c1.297,0.708,2.697,1.041,4.07,1.041c3.029,0,5.948-1.613,7.501-4.446c12.297-22.554,20.122-46.822,23.296-72.235l47.275-17.732
				C509.79,262.741,512,259.558,512,256S509.79,249.259,506.462,248.004z"/>
			<path d="M426.667,256c0-79.957-56.67-150.144-134.75-166.878c-4.599-0.964-9.139,1.954-10.129,6.554
				c-0.99,4.608,1.946,9.148,6.562,10.138c67.464,14.455,117.163,73.276,121.011,141.653h-8.294c-4.71,0-8.533,3.823-8.533,8.533
				s3.823,8.533,8.533,8.533h17.067C422.844,264.533,426.667,260.71,426.667,256z"/>
			<path d="M256,119.467c4.71,0,8.533-3.823,8.533-8.533V93.867c0-4.71-3.823-8.533-8.533-8.533
				c-21.709,0-42.854,4.028-62.882,11.964c-4.378,1.732-6.519,6.69-4.787,11.076c1.741,4.378,6.69,6.519,11.085,4.787
				c15.369-6.101,31.497-9.626,48.051-10.53v8.303C247.467,115.644,251.29,119.467,256,119.467z"/>
			<path d="M256,221.867c-18.825,0-34.133,15.309-34.133,34.133c0,18.825,15.309,34.133,34.133,34.133
				c18.825,0,34.133-15.309,34.133-34.133C290.133,237.175,274.825,221.867,256,221.867z M256,273.067
				c-9.412,0-17.067-7.654-17.067-17.067c0-9.412,7.654-17.067,17.067-17.067c9.412,0,17.067,7.654,17.067,17.067
				C273.067,265.412,265.412,273.067,256,273.067z"/>
			<path d="M305.843,208.717c-0.657-1.033-1.536-1.903-2.568-2.568L64.35,52.557c-3.379-2.176-7.817-1.707-10.65,1.143
				c-2.842,2.833-3.319,7.27-1.143,10.641l153.6,238.933c0.657,1.032,1.536,1.903,2.56,2.568l238.933,153.6
				c1.417,0.913,3.021,1.357,4.617,1.357c2.202,0,4.386-0.853,6.033-2.5c2.842-2.842,3.319-7.27,1.143-10.65L305.843,208.717z
				 M219.511,292.489L88.141,88.141l204.348,131.362l131.371,204.356L219.511,292.489z"/>
		</g>
	</g>
</g>
<g>
</g>
<g>
</g>
<g>
</g>
<g>
</g>
<g>
</g>
<g>
</g>
<g>
</g>
<g>
</g>
<g>
</g>
<g>
</g>
<g>
</g>
<g>
</g>
<g>
</g>
<g>
</g>
<g>
</g>
</svg>
