<svg xmlns="http://www.w3.org/2000/svg" xmlns:xlink="http://www.w3.org/1999/xlink" id="Layer_1" width="100" height="100" x="0" y="0" fill="#0097A7" enable-background="new 0 0 512.004 512.004" version="1.1" viewBox="0 0 512.004 512.004" xml:space="preserve"><g><g><g><path d="M384.002,119.469c-4.719,0-8.533,3.823-8.533,8.533s3.814,8.533,8.533,8.533h45.414l27.315,68.267h-123.93 c-4.719,0-8.533,3.823-8.533,8.533c0,4.71,3.814,8.533,8.533,8.533h136.533c2.833,0,5.478-1.408,7.066-3.755 c1.587-2.338,1.911-5.325,0.862-7.953l-32.87-82.159l32.87-82.159c1.05-2.637,0.725-5.615-0.862-7.962 c-1.587-2.338-4.233-3.746-7.066-3.746h-85.333c-4.719,0-8.533,3.823-8.533,8.533c0,4.71,3.814,8.533,8.533,8.533h72.73 l-27.315,68.267H384.002z"/><path d="M221.869,295.136V17.069h119.467v68.267h-93.867c-4.719,0-8.533,3.823-8.533,8.533c0,4.71,3.814,8.533,8.533,8.533 h93.867v68.267h-93.867c-4.719,0-8.533,3.823-8.533,8.533s3.814,8.533,8.533,8.533h102.4c4.719,0,8.533-3.823,8.533-8.533V8.535 c0-4.71-3.814-8.533-8.533-8.533H213.335c-4.719,0-8.533,3.823-8.533,8.533v286.601l-202.3,202.3 c-3.336,3.337-3.336,8.73,0,12.066c1.664,1.664,3.849,2.5,6.033,2.5s4.369-0.836,6.033-2.5l198.767-198.767l107.401,107.401 l-22.067,22.067l-28.1-28.1c-3.337-3.337-8.73-3.337-12.066,0l-45.167,45.167l-36.634-36.634c-3.337-3.336-8.73-3.336-12.066,0 l-45.167,45.167l-15.036-15.036c-3.328-3.328-8.73-3.328-12.066,0c-3.328,3.337-3.328,8.738,0,12.066l21.069,21.069 c3.337,3.336,8.73,3.336,12.066,0l45.167-45.167l36.634,36.634c3.336,3.336,8.73,3.336,12.066,0l45.167-45.167l28.1,28.1 c3.337,3.337,8.73,3.337,12.066,0l34.133-34.133c3.337-3.337,3.337-8.73,0-12.066L221.869,295.136z"/><path d="M509.502,497.436L364.435,352.369c-3.336-3.337-8.73-3.337-12.066,0l-21.197,21.197c-3.337,3.336-3.337,8.738,0,12.066 c3.328,3.337,8.73,3.337,12.066,0l15.164-15.164l139.034,139.034c1.664,1.664,3.849,2.5,6.033,2.5s4.369-0.836,6.033-2.5 C512.838,506.165,512.838,500.772,509.502,497.436z"/><path d="M416.011,459.394l-14.942,14.942l-40.542-40.542c-3.336-3.336-8.73-3.336-12.066,0c-3.337,3.337-3.337,8.73,0,12.066 l46.575,46.575c1.664,1.664,3.849,2.5,6.033,2.5c2.185,0,4.369-0.836,6.033-2.5l20.975-20.975c3.337-3.337,3.337-8.73,0-12.066 C424.74,456.058,419.347,456.058,416.011,459.394z"/></g></g></g></svg>