<svg xmlns="http://www.w3.org/2000/svg" width="100" height="100" fill="#0097A7" viewBox="0 0 513.164 513.164"><circle cx="256.582" cy="244.364" r="11.636"/><path d="M233.309 116.364l11.636 93.091h23.273l11.637-93.091z"/><path d="M256.582 0c-89.6 0-162.909 73.309-162.909 162.909 0 51.2 22.109 97.745 60.509 126.836 20.945 15.127 31.418 37.236 32.582 66.327-6.982 5.818-11.636 13.964-11.636 23.273 0 6.982 2.327 12.8 5.818 17.455-3.491 4.655-5.818 10.473-5.818 17.455 0 6.982 2.327 12.8 5.818 17.455-3.491 4.655-5.818 10.473-5.818 17.455 0 16.291 12.8 29.091 29.091 29.091h9.309l9.309 26.764c1.164 4.655 5.818 8.145 10.473 8.145h46.545c4.655 0 9.309-3.491 10.473-8.145l9.309-26.764h9.309c16.291 0 29.091-12.8 29.091-29.091 0-6.982-2.327-12.8-5.818-17.455 3.491-4.655 5.818-10.473 5.818-17.455 0-6.982-2.327-12.8-5.818-17.455 3.491-4.655 5.818-10.473 5.818-17.455 0-16.291-12.8-29.091-29.091-29.091h-52.364c-6.982 0-11.636 4.655-11.636 11.636 0 6.982 4.655 11.636 11.636 11.636h52.364c3.491 0 5.818 2.327 5.818 5.818S312.436 384 308.945 384c-6.982 0-11.636 4.655-11.636 11.636 0 6.982 4.655 11.636 11.636 11.636 3.491 0 5.818 2.327 5.818 5.818s-2.327 5.818-5.818 5.818h-52.364c-6.982 0-11.636 4.655-11.636 11.636s4.655 11.636 11.636 11.636h52.364c3.491 0 5.818 2.327 5.818 5.818s-2.327 5.818-5.818 5.818H204.218c-3.491 0-5.818-2.327-5.818-5.818s2.327-5.818 5.818-5.818c6.982 0 11.636-4.655 11.636-11.636s-4.655-11.636-11.636-11.636c-3.491 0-5.818-2.327-5.818-5.818s2.327-5.818 5.818-5.818h64c6.982 0 11.636-4.655 11.636-11.636 0-6.982-4.655-11.636-11.636-11.636h-64c-3.491 0-5.818-2.327-5.818-5.818s2.327-5.818 5.818-5.818c6.982 0 11.636-4.655 11.636-11.636 0-4.655-2.327-8.145-5.818-10.473-2.327-34.909-16.291-61.673-41.891-80.291-32.582-24.436-51.2-64-51.2-107.055 0-76.8 62.836-139.636 139.636-139.636s139.636 62.836 139.636 139.636c0 43.055-18.618 83.782-51.2 107.055-18.618 13.964-30.255 31.418-37.236 52.364-2.327 5.818 1.164 12.8 8.145 13.964 5.818 2.327 12.8-1.164 13.964-8.146 4.655-16.291 13.964-30.255 29.091-40.727 38.4-26.764 60.509-74.473 60.509-124.509C419.491 73.309 346.182 0 256.582 0zM275.2 477.091l-3.491 11.636h-30.255l-3.491-11.636H275.2z"/></svg>