<svg xmlns="http://www.w3.org/2000/svg" width="100" height="100" fill="#1fa1af" viewBox="0 0 511.999 511.999"><path d="M100.697 250.99c-14.641 0-26.552 11.911-26.552 26.552s11.911 26.552 26.552 26.552 26.552-11.911 26.552-26.552-11.912-26.552-26.552-26.552zm0 38.075c-6.353 0-11.522-5.169-11.522-11.523 0-6.353 5.169-11.522 11.522-11.522 6.353 0 11.523 5.169 11.523 11.522-.001 6.353-5.17 11.523-11.523 11.523zm79.154 4.007h-14.027a7.515 7.515 0 1 0 0 15.03h14.027a7.515 7.515 0 1 0 0-15.03zm45.088 0h-21.041a7.515 7.515 0 1 0 0 15.03h21.041a7.515 7.515 0 1 0 0-15.03zm-87.17-124.242a7.516 7.516 0 0 0-10.521-1.503l-16.031 12.023a7.516 7.516 0 0 0 9.018 12.024l16.031-12.023a7.516 7.516 0 0 0 1.503-10.521zm32.624 6.594a7.513 7.513 0 0 0-10.5-1.644l-48.094 35.068a7.514 7.514 0 0 0-1.644 10.5 7.502 7.502 0 0 0 6.078 3.088c1.535 0 3.085-.47 4.422-1.444l48.094-35.068a7.516 7.516 0 0 0 1.644-10.5z"/><path d="M371.225 100.697c-24.27 0-47.125 6.174-67.078 17.033H121.021c-15.719 0-28.913 11.76-30.722 27.367l-9.328 70.552-6.955-11.205a7.515 7.515 0 0 0-6.384-3.552h-8.887c-1.812-9.68-10.311-17.033-20.508-17.033H20.879C9.366 183.859 0 193.225 0 204.738v7.338c0 11.512 9.366 20.879 20.879 20.879h17.358c10.198 0 18.696-7.353 20.508-17.033h4.707l10.62 17.11c-11.084 4.805-19.481 14.839-21.788 27.298-3.466 18.732-5.524 37.255-6.174 55.218a7.508 7.508 0 0 0-.041.784c0 .03.004.06.005.09a332.829 332.829 0 0 0-.195 9.114c-.066 10.075 3.797 19.55 10.88 26.679a37.358 37.358 0 0 0 8.368 6.337v31.645c0 11.638 9.469 21.105 21.105 21.105h39.949c11.638 0 21.105-9.467 21.105-21.105v-.937h13.1c9.904 0 17.961-8.057 17.961-17.961v-8.09h121.738c.16 0 .318-.014.475-.024 20.782 12.112 44.925 19.061 70.664 19.061 77.624 0 140.775-63.151 140.775-140.775s-63.15-140.774-140.774-140.774zM44.086 212.076a5.856 5.856 0 0 1-5.849 5.849H20.879a5.856 5.856 0 0 1-5.849-5.849v-7.338a5.856 5.856 0 0 1 5.849-5.849h17.358a5.856 5.856 0 0 1 5.849 5.849v7.338zm76.935-79.317h160.863a141.735 141.735 0 0 0-12.965 12.117H105.594c1.716-7.029 8.019-12.117 15.427-12.117zm-17.519 27.146H256.55c-14.329 20.086-23.512 44.08-25.626 70.044H94.241l9.261-70.044zm28.756 221.841v8.453a6.083 6.083 0 0 1-6.076 6.076h-39.95a6.083 6.083 0 0 1-6.076-6.076V363.21h52.102v18.536zm31.061-10.447a2.936 2.936 0 0 1-2.932 2.932h-13.1V363.21h16.031v8.089zM83.175 348.18a22.054 22.054 0 0 1-15.754-6.557c-4.24-4.268-6.554-9.946-6.513-15.987.004-.593.026-1.194.033-1.789h71.932a26.462 26.462 0 0 0 2.877 4.089 26.425 26.425 0 0 0 20.072 9.223h82.141a7.515 7.515 0 1 0 0-15.03h-82.141a11.41 11.41 0 0 1-8.669-3.984 11.407 11.407 0 0 1-2.145-3.8 7.178 7.178 0 0 0-.199-.618 11.413 11.413 0 0 1-.28-4.753l3.023-19.733a11.363 11.363 0 0 1 11.293-9.695h62.085a7.515 7.515 0 1 0 0-15.03h-62.085c-13.159 0-24.156 9.44-26.149 22.448l-3.023 19.733a26.726 26.726 0 0 0-.228 2.119H61.47c.866-14.945 2.728-30.266 5.594-45.752 1.94-10.481 11.138-18.086 21.873-18.086h141.558c1.012 41.209 19.821 78.077 49.013 103.203H83.175zm288.05 19.037c-69.336 0-125.746-56.409-125.746-125.746s56.409-125.746 125.746-125.746 125.746 56.409 125.746 125.746-56.41 125.746-125.746 125.746z"/><path d="M472.609 187.75a7.514 7.514 0 0 0-10.161-3.113 7.514 7.514 0 0 0-3.114 10.16c7.579 14.277 11.586 30.416 11.586 46.675 0 54.971-44.723 99.695-99.695 99.695s-99.695-44.723-99.695-99.695 44.723-99.695 99.695-99.695c27.231 0 52.667 10.781 71.623 30.356a7.516 7.516 0 0 0 10.626.17 7.513 7.513 0 0 0 .17-10.626c-21.813-22.524-51.083-34.929-82.42-34.929-63.259-.001-114.723 51.464-114.723 114.723s51.465 114.724 114.724 114.724 114.724-51.465 114.724-114.724c0-18.706-4.613-37.283-13.34-53.721z"/><path d="M424.632 284.252L378.74 238.36v-58.007a7.515 7.515 0 1 0-15.03 0v61.119c0 1.993.792 3.904 2.201 5.314l48.094 48.094a7.491 7.491 0 0 0 5.313 2.2 7.514 7.514 0 0 0 5.314-12.828z"/></svg>