<svg xmlns="http://www.w3.org/2000/svg" width="100" height="100" fill="#0097A7" viewBox="0 0 512 512"><path d="M256 392.533a8.536 8.536 0 0 0-8.533 8.533v17.067a8.536 8.536 0 0 0 8.533 8.533c21.7 0 42.854-4.028 62.882-11.964 4.378-1.741 6.519-6.699 4.787-11.076-1.741-4.386-6.69-6.537-11.085-4.787-15.369 6.101-31.505 9.626-48.051 10.53v-8.303a8.536 8.536 0 0 0-8.533-8.533z"/><path d="M345.779 420.898c-22.084 12.058-45.995 19.422-71.057 21.905a8.529 8.529 0 0 0-7.151 5.495L256 479.164l-11.571-30.865a8.527 8.527 0 0 0-7.151-5.495c-88.619-8.772-159.309-79.462-168.081-168.081a8.529 8.529 0 0 0-5.495-7.151L32.836 256l30.865-11.571a8.527 8.527 0 0 0 5.495-7.151c2.483-25.054 9.847-48.964 21.905-71.057a8.539 8.539 0 0 0-3.405-11.58 8.545 8.545 0 0 0-11.58 3.405c-12.297 22.545-20.13 46.822-23.305 72.235L5.538 248.004A8.55 8.55 0 0 0 0 256a8.53 8.53 0 0 0 5.538 7.987l47.275 17.732c11.597 92.425 85.043 165.871 177.468 177.468l17.724 47.275C249.259 509.79 252.442 512 256 512s6.741-2.21 7.987-5.538l17.732-47.275c25.421-3.174 49.69-11.008 72.235-23.305 4.139-2.261 5.666-7.441 3.405-11.58-2.253-4.129-7.433-5.657-11.58-3.404z"/><path d="M119.467 256a8.536 8.536 0 0 0-8.533-8.533H93.867A8.536 8.536 0 0 0 85.334 256c0 79.957 56.67 150.144 134.75 166.878a8.58 8.58 0 0 0 1.792.188c3.934 0 7.475-2.739 8.337-6.741.99-4.608-1.946-9.148-6.562-10.138-67.465-14.455-117.163-73.276-121.011-141.653h8.294c4.71-.001 8.533-3.824 8.533-8.534zm-9.694-70.622a8.516 8.516 0 0 0-11.17 4.557 170.36 170.36 0 0 0-9.481 30.148c-.99 4.608 1.946 9.139 6.554 10.129a8.15 8.15 0 0 0 1.801.188c3.934 0 7.475-2.731 8.329-6.741a153.661 153.661 0 0 1 8.525-27.11 8.53 8.53 0 0 0-4.558-11.171zm296.422 102.963a153.889 153.889 0 0 1-8.525 27.11c-1.826 4.344.205 9.344 4.557 11.17a8.374 8.374 0 0 0 3.302.674 8.539 8.539 0 0 0 7.868-5.231c4.062-9.651 7.245-19.789 9.481-30.14a8.536 8.536 0 0 0-6.545-10.138c-4.617-.98-9.156 1.939-10.138 6.555z"/><path d="M506.462 248.004l-47.275-17.724C447.59 137.856 374.144 64.41 281.719 52.813L263.987 5.538C262.741 2.21 259.558 0 256 0s-6.741 2.21-7.996 5.538L230.28 52.813c-25.421 3.174-49.698 10.999-72.243 23.305-4.139 2.261-5.666 7.441-3.405 11.58 2.261 4.139 7.441 5.675 11.58 3.405 22.084-12.058 45.995-19.422 71.066-21.905a8.53 8.53 0 0 0 7.151-5.495L256 32.836l11.571 30.865a8.527 8.527 0 0 0 7.151 5.495c88.619 8.772 159.309 79.462 168.081 168.081a8.53 8.53 0 0 0 5.495 7.151L479.164 256l-30.865 11.571a8.527 8.527 0 0 0-5.495 7.151c-2.483 25.054-9.847 48.964-21.897 71.057-2.253 4.139-.725 9.327 3.413 11.58a8.477 8.477 0 0 0 4.07 1.041 8.542 8.542 0 0 0 7.501-4.446c12.297-22.554 20.122-46.822 23.296-72.235l47.275-17.732C509.79 262.741 512 259.558 512 256s-2.21-6.741-5.538-7.996z"/><path d="M426.667 256c0-79.957-56.67-150.144-134.75-166.878-4.599-.964-9.139 1.954-10.129 6.554-.99 4.608 1.946 9.148 6.562 10.138 67.464 14.455 117.163 73.276 121.011 141.653h-8.294c-4.71 0-8.533 3.823-8.533 8.533s3.823 8.533 8.533 8.533h17.067a8.536 8.536 0 0 0 8.533-8.533zM256 119.467a8.536 8.536 0 0 0 8.533-8.533V93.867A8.536 8.536 0 0 0 256 85.334c-21.709 0-42.854 4.028-62.882 11.964-4.378 1.732-6.519 6.69-4.787 11.076 1.741 4.378 6.69 6.519 11.085 4.787 15.369-6.101 31.497-9.626 48.051-10.53v8.303a8.536 8.536 0 0 0 8.533 8.533zm0 102.4c-18.825 0-34.133 15.309-34.133 34.133 0 18.825 15.309 34.133 34.133 34.133 18.825 0 34.133-15.309 34.133-34.133 0-18.825-15.308-34.133-34.133-34.133zm0 51.2c-9.412 0-17.067-7.654-17.067-17.067 0-9.412 7.654-17.067 17.067-17.067 9.412 0 17.067 7.654 17.067 17.067 0 9.412-7.655 17.067-17.067 17.067z"/><path d="M305.843 208.717a8.467 8.467 0 0 0-2.568-2.568L64.35 52.557A8.512 8.512 0 0 0 53.7 53.7a8.511 8.511 0 0 0-1.143 10.641l153.6 238.933a8.542 8.542 0 0 0 2.56 2.568l238.933 153.6a8.505 8.505 0 0 0 4.617 1.357 8.522 8.522 0 0 0 6.033-2.5 8.524 8.524 0 0 0 1.143-10.65l-153.6-238.932zm-86.332 83.772L88.141 88.141l204.348 131.362L423.86 423.859l-204.349-131.37z"/></svg>