<svg xmlns="http://www.w3.org/2000/svg" width="806" height="428" fill="none" viewBox="0 0 806 428"><path fill="#F4F5F5" fill-rule="evenodd" d="M846.601 0C836.301 38.48 801.4 66.8699 759.7 66.8699C757.8 66.8699 756.001 66.7999 754.101 66.6899C745.101 104.95 710.7 133.43 669.7 133.43C646.5 133.43 625.5 124.32 609.9 109.52C597.3 147.14 561.8 174.27 520 174.27C516.9 174.27 513.8 174.11 510.7 173.81C494 207.68 459.1 230.97 418.7 230.97C371.3 230.97 331.4 198.81 319.7 155.11C310.1 159.08 299.5 161.29 288.5 161.29C256 161.29 228.001 142.31 214.801 114.89C202.701 121.07 188.7 124.6 173.9 124.6C133 124.6 98.8 97.86 90 62.02C87.5 62.25 84.9008 62.3899 82.3008 62.3899C43.1008 62.3899 10.1 35.98 0 0H846.601" clip-rule="evenodd" transform="translate(692.391 186.12) scale(0.133333 -0.133333)"/><path fill="#F4F5F5" fill-rule="evenodd" d="M1152.5 0C1138.6 52.39 1091 91.04 1034.2 91.04C1031.7 91.04 1029.2 90.94 1026.7 90.79C1014.3 142.88 967.6 181.65 911.7 181.65C880.1 181.65 851.5 169.25 830.3 149.1C813.2 200.31 764.9 237.25 707.9 237.25C703.7 237.25 699.5 237.03 695.3 236.62C672.5 282.73 625 314.44 570.1 314.44C505.5 314.44 451.2 270.65 435.2 211.17C422.1 216.57 407.8 219.58 392.8 219.58C348.6 219.58 310.5 193.75 292.5 156.4C275.9 164.83 256.9 169.63 236.7 169.63C181.1 169.63 134.5 133.22 122.6 84.4399C119.1 84.7499 115.6 84.9399 112 84.9399C58.7 84.9399 13.8 48.98 0 0H1152.5" clip-rule="evenodd" transform="translate(643.444 42.3479) scale(0.133333 -0.133333)"/><path fill="#F4F5F5" fill-rule="evenodd" d="M846.57 0C836.34 38.48 801.37 66.8701 759.68 66.8701C757.81 66.8701 755.97 66.7999 754.13 66.6899C745.07 104.95 710.71 133.42 669.67 133.42C646.49 133.42 625.45 124.32 609.88 109.52C597.32 147.14 561.83 174.26 519.99 174.26C516.86 174.26 513.78 174.1 510.73 173.81C493.97 207.67 459.08 230.97 418.73 230.97C371.31 230.97 331.43 198.8 319.66 155.11C310.05 159.07 299.54 161.29 288.5 161.29C256.02 161.29 228.04 142.31 214.83 114.88C202.65 121.07 188.71 124.6 173.88 124.6C132.98 124.6 98.7703 97.85 90.0303 62.02C87.4703 62.25 84.89 62.3901 82.27 62.3901C43.06 62.3901 10.1 35.98 0 0H846.57" clip-rule="evenodd" transform="translate(0 185.796) scale(0.133333 -0.133333)"/><path fill="#F4F5F5" fill-rule="evenodd" d="M1179.21 0C1164.97 53.6 1116.26 93.1499 1058.18 93.1499C1055.58 93.1499 1053.01 93.0499 1050.45 92.8999C1037.83 146.19 989.97 185.86 932.81 185.86C900.52 185.86 871.21 173.18 849.52 152.56C832.02 204.96 782.59 242.75 724.3 242.75C719.95 242.75 715.65 242.52 711.41 242.11C688.06 289.28 639.46 321.73 583.26 321.73C517.21 321.73 461.66 276.93 445.26 216.07C431.87 221.59 417.23 224.67 401.85 224.67C356.61 224.67 317.64 198.24 299.24 160.03C282.28 168.65 262.85 173.56 242.2 173.56C185.23 173.56 137.57 136.31 125.4 86.3999C121.83 86.7199 118.23 86.8999 114.58 86.8999C59.9801 86.8999 14.06 50.12 0 0H1179.21Z" clip-rule="evenodd" transform="translate(13.6934 70.9292) scale(0.133333 -0.133333)"/><path fill="#598F36" fill-rule="evenodd" d="M19.0804 0L63.4305 102.29L40.7205 133.6L72.4305 117.1C79.3805 152.43 92.9606 190.37 109.491 223.69C99.2206 240.85 89.3905 257.07 89.3905 257.07L115.25 234.9C134.34 270.69 156.581 299.7 176.941 311.94C75.3108 387.65 -47.9496 167.83 19.0804 0Z" clip-rule="evenodd" transform="translate(252.448 279.076) scale(0.133333 -0.133333)"/><path fill="#538238" fill-rule="evenodd" d="M19.0822 0C20.4622 146.15 18.9125 216.19 108.402 298.8C93.7625 296.04 78.2723 291.93 60.4923 286C8.02231 223.73 -21.7478 102.22 19.0822 0Z" clip-rule="evenodd" transform="translate(252.448 279.076) scale(0.133333 -0.133333)"/><path fill="#AE7B3F" fill-rule="evenodd" d="M0 807.58C128.9 543.29 237.38 293 284.4 0C284.4 0 309.42 1.75995 338.24 7.81995C367.05 13.8799 367.57 18.13 367.57 18.13C279.17 282.59 157.67 573.65 16.71 814.05L0 807.58Z" clip-rule="evenodd" transform="translate(270.953 347.644) scale(0.133333 -0.133333)"/><path fill="#956B34" fill-rule="evenodd" d="M0 797.4C126.71 536.85 233.03 289.23 279.44 0C279.44 0 294.88 1.08999 315.47 4.48999C304.08 60.66 278.121 172.47 230.451 301.55C161.881 487.22 21.9702 777.19 21.9702 777.19L0 797.4Z" clip-rule="evenodd" transform="translate(271.615 347.644) scale(0.133333 -0.133333)"/><path fill="#598F36" fill-rule="evenodd" d="M0 0C12.29 204.37 226.92 311.3 359.23 163.23L359.31 163.2C361.2 161.09 362.49 159.64 363.04 158.99C320.56 166.14 280.57 171.05 207.27 149.94L214.98 196.39L197.38 146.85C185.73 142.9 174.5 138.04 163.7 132.5C165.81 152.42 169.52 187.04 170.12 189.58C170.68 192.01 159.47 152.18 152.18 126.26C133.23 115.44 115.7 102.73 99.6401 89.5601C101.44 114.41 105.01 162.82 105.76 166C106.5 169.15 96.1 114.04 89.75 81.25C49.41 46.53 19.17 10.84 0 0" clip-rule="evenodd" transform="translate(224.849 263.545) scale(0.133333 -0.133333)"/><path fill="#598F36" fill-rule="evenodd" d="M292.49 0L202.99 66.49L207.05 104.95L187.81 74.8298C164.15 101.97 133.45 128.08 102.5 148.7C102.82 168.7 103.25 187.65 103.25 187.65L91.8999 155.54C57.4999 177.01 23.74 191.06 0 191.5C50.27 307.84 266.8 178.88 292.49 0" clip-rule="evenodd" transform="translate(274.449 265.093) scale(0.133333 -0.133333)"/><path fill="#5D9B36" fill-rule="evenodd" d="M0 0C3.84 8.65 9.19957 43.7599 53.0596 89.1099C210.23 251.59 366.91 15.12 365.89 17C300.01 51.21 270.88 54.85 225.74 59.01C227.06 76.34 228.57 95.85 229 99.26C229.43 102.67 221.929 77.58 216.649 59.53C194.779 60.49 174.01 59.3599 154.24 56.6199C154.58 75.7099 154.99 101.23 154.72 103.95C154.45 106.67 148.6 77.1499 144.28 55.1099C77.0703 43.7799 46.34 28.74 0 0Z" clip-rule="evenodd" transform="translate(273.071 241.659) scale(0.133333 -0.133333)"/><path fill="#5D9B36" fill-rule="evenodd" d="M381.69 0C354.64 149.07 115.08 215.53 0 61.0999C46.33 72.8399 88.2902 76.3801 128.18 74.0601C138.52 95.6401 151.16 121.68 149.09 115.61C147.07 109.68 140.94 89.21 136.28 73.5C157.32 71.84 177.81 68.5901 198.12 64.0601L233.82 103.36L215.96 59.76C236.11 54.55 256.17 48.18 276.47 41.01C286.52 54.29 297.15 67.5601 296.38 63.0601C295.82 59.7801 291.75 49.07 287.01 37.23C317.51 26.1 348.69 13.31 381.69 0" clip-rule="evenodd" transform="translate(222.179 241.659) scale(0.133333 -0.133333)"/><path fill="#598F36" fill-rule="evenodd" d="M3.00325 0C-27.7468 159.18 184.533 308.02 324.523 284.23C311.633 274.43 249.443 226.84 214.713 203.68L209.693 223.35L207.723 199.01C197.703 192.3 186.873 184.99 175.493 177.23L166.393 203.78L163.023 168.69C153.863 162.39 144.413 155.84 134.823 149.12C128.823 144.92 122.933 140.4 117.153 135.66C114.583 153.84 112.463 173.42 112.463 173.42C112.463 173.42 109.343 146.98 106.773 126.79C47.0133 73.67 3.00325 0 3.00325 0" clip-rule="evenodd" transform="translate(272.67 241.659) scale(0.133333 -0.133333)"/><path fill="#598F36" fill-rule="evenodd" d="M258.46 0C271.86 191.48 128.99 311.89 0 310.21C0 310.21 41.6998 270.29 83.5698 225.67C103.37 233.28 122.15 240.4 120.12 240.05C117.89 239.68 103.07 228.63 90.0996 218.67C110.3 196.91 130.03 174.48 144.62 155.36L175.1 174L149.65 148.59C152.45 144.74 155.01 141.05 157.25 137.57C165.17 125.32 174.27 112.08 183.7 98.8398C198.13 108.32 214.6 120.07 214.6 120.07L189.09 91.3101C222.73 44.6101 258.46 0 258.46 0" clip-rule="evenodd" transform="translate(238.609 241.659) scale(0.133333 -0.133333)"/><path fill="#5D9B36" fill-rule="evenodd" d="M45.4449 0C-62.2451 144.14 41.8246 344 146.605 384.56L154.345 381.58C147.885 365.69 130.685 322.72 114.575 277.01C93.3848 275.99 73.3346 274.95 75.3346 275.45C77.5146 276.01 95.5446 271.86 111.415 267.98C101.705 239.93 92.6748 211.44 87.0348 188.06L51.6246 192.84L85.1446 179.84C84.1346 175.18 83.2849 170.78 82.6349 166.69C80.3249 152.29 77.3348 136.51 74.0348 120.58C57.0048 123.44 37.2047 127.56 37.2047 127.56L72.1349 111.52C60.1649 55.23 45.4449 0 45.4449 0Z" clip-rule="evenodd" transform="translate(269.034 240.007) scale(0.133333 -0.133333)"/><path fill="#538238" fill-rule="evenodd" d="M226.529 0C152.389 125.95 118.77 187.41 0 214.33C14.06 219.23 29.5299 223.41 47.8999 227.15C124.45 199.38 210.889 108.95 226.529 0Z" clip-rule="evenodd" transform="translate(283.243 265.093) scale(0.133333 -0.133333)"/><path fill="#538238" fill-rule="evenodd" d="M73.7803 111.71C210.44 185.12 333.49 2.89 335.63 0C334.05 1.6 254.75 81.3698 206.66 94.0698C158.08 106.9 99.8599 94.01 72.4199 83.51C44.9899 73.01 0 27.49 0 27.49C18.43 52.39 44.07 83.57 73.54 109.76L73.7803 111.71Z" clip-rule="evenodd" transform="translate(277.103 239.389) scale(0.133333 -0.133333)"/><path fill="#538238" fill-rule="evenodd" d="M23.52 78.2C90.28 159.56 207.05 213 295.18 198.02C148.36 170.3 67.6899 120.58 7.10986 0C9.91986 12.08 12.79 24.86 15.52 37.7L0 44.8201C0.91 46.3501 1.82979 47.8699 2.77979 49.3799C7.53979 48.4899 12.5899 47.57 17.4199 46.76C19.6299 57.43 21.7 68.04 23.52 78.2" clip-rule="evenodd" transform="translate(276.583 230.164) scale(0.133333 -0.133333)"/><path fill="#538238" fill-rule="evenodd" d="M0.218877 138.44C4.64888 245.56 75.4585 346.54 146.609 374.09L150.129 372.73C137.839 363.46 110.329 340.07 77.6486 295.71C33.1986 235.37 17.8388 140.39 21.5988 109.57C23.3888 94.8801 27.6287 69.3301 31.5787 46.6001C33.1987 37.2101 34.7888 28.3001 36.1188 20.8401C37.6088 12.5401 38.7886 6.03012 39.4186 2.62012C39.7286 0.930117 39.8986 0 39.8986 0L38.5885 0.650146L37.1188 1.42017C34.9888 4.67017 32.9589 7.93998 31.0289 11.23C29.8189 13.3 28.6489 15.37 27.5089 17.46C23.4889 24.85 19.9485 32.3502 16.8585 39.9302C3.76853 72.0502 -1.14112 105.53 0.218877 138.44" clip-rule="evenodd" transform="translate(269.034 238.609) scale(0.133333 -0.133333)"/><path fill="#538238" fill-rule="evenodd" d="M233.16 211.6C134.35 217.11 52.13 145.34 0 0C7.16 119.07 82.9997 205.06 171.24 226.83C182.03 225.07 192.7 222.82 203.32 220.16L213.63 232.2C217.35 232.23 221.07 232.15 224.8 231.94L218.82 215.97C223.6 214.59 228.38 213.13 233.16 211.6" clip-rule="evenodd" transform="translate(224.849 263.545) scale(0.133333 -0.133333)"/><path fill="#538238" fill-rule="evenodd" d="M0 191.15C87.41 192.28 181.19 137.36 228.4 42.25C227.82 28.22 228.38 14.08 230.23 0C208.88 30.09 154.6 103.09 106.96 138.1C46.08 182.84 0 191.15 0 191.15" clip-rule="evenodd" transform="translate(238.609 225.784) scale(0.133333 -0.133333)"/><path fill="#538238" fill-rule="evenodd" d="M327.96 8.82007C208.08 79.7801 134.52 82.61 0 0C75.91 101.86 205.98 107.62 293.5 56.9502C297.83 50.6302 302.34 44.18 306.93 37.74C309.5 39.42 312.13 41.1802 314.71 42.9202C316.5 41.5902 318.25 40.2201 319.98 38.8301L312.32 30.2002C317.53 22.9802 322.79 15.7901 327.96 8.82007" clip-rule="evenodd" transform="translate(222.179 233.512) scale(0.133333 -0.133333)"/><path fill="#C1E01C" fill-rule="evenodd" d="M10.762 2.45865C20.712 -2.91135 33.132 0.808701 38.492 10.7587C43.852 20.7187 40.1319 33.1287 30.1819 38.4887C20.2319 43.8587 7.81193 40.1286 2.45193 30.1786C-2.90807 20.2286 0.811988 7.81865 10.762 2.45865" clip-rule="evenodd" transform="translate(269.058 244.093) scale(0.133333 -0.133333)"/><path fill="#B4CE1E" fill-rule="evenodd" d="M40.6608 17.1066C34.5508 9.86656 24.001 7.63675 15.321 12.3068C13.941 13.0568 12.6707 13.9366 11.5407 14.9366C6.18069 19.6166 3.68073 26.7666 4.83073 33.6866C3.94073 32.6266 3.13084 31.4566 2.45084 30.1866C0.800845 27.1266 0.0206494 23.8465 0.000649374 20.5965C-0.0293506 16.8665 0.980786 13.1867 2.89079 9.98669C4.60079 7.11669 7.03073 4.62654 10.0807 2.83654L10.7609 2.45666C20.7109 -2.91334 33.1309 0.816707 38.4909 10.7567C39.5909 12.7967 40.3008 14.9466 40.6608 17.1066" clip-rule="evenodd" transform="translate(269.059 244.093) scale(0.133333 -0.133333)"/><path fill="#C1E01C" fill-rule="evenodd" d="M26.7368 0.986822C37.4968 4.44682 43.4268 15.9668 39.9668 26.7368C36.5068 37.4968 24.9768 43.4168 14.2168 39.9668C3.4568 36.5068 -2.47318 24.9868 0.986822 14.2168C4.44682 3.4568 15.9668 -2.47318 26.7368 0.986822Z" clip-rule="evenodd" transform="translate(274.726 243.837) scale(0.133333 -0.133333)"/><path fill="#B4CE1E" fill-rule="evenodd" d="M36.7896 32.7036C37.7696 23.2736 32.0697 14.1238 22.6797 11.1038C21.1797 10.6238 19.6699 10.3236 18.1699 10.1936C11.0799 9.58361 4.2 12.7338 0 18.3638C0.15 16.9838 0.439883 15.5936 0.879883 14.2136C1.93988 10.9136 3.75984 8.06373 6.08984 5.81373C8.75984 3.20373 12.1097 1.3737 15.7397 0.533701C18.9897 -0.226299 22.4699 -0.196319 25.8799 0.763681L26.6299 0.983652C37.3899 4.44365 43.3099 15.9737 39.8599 26.7337C39.1499 28.9337 38.0996 30.9336 36.7896 32.7036" clip-rule="evenodd" transform="translate(274.74 243.836) scale(0.133333 -0.133333)"/><path fill="#C1E01C" fill-rule="evenodd" d="M26.7276 0.986822C37.4876 4.44682 43.4176 15.9668 39.9576 26.7368C36.5076 37.4968 24.9776 43.4268 14.2076 39.9668C3.44755 36.5068 -2.47218 24.9868 0.987824 14.2168C4.43782 3.4568 15.9676 -2.47318 26.7276 0.986822" clip-rule="evenodd" transform="translate(271.678 240.721) scale(0.133333 -0.133333)"/><path fill="#B4CE1E" fill-rule="evenodd" d="M36.7803 32.7038C37.7703 23.2738 32.0602 14.1237 22.6802 11.1037C21.1802 10.6237 19.6702 10.3237 18.1602 10.1937C11.0802 9.58375 4.19 12.7337 0 18.3637C0.14 16.9837 0.430117 15.5938 0.870117 14.2138C1.93012 10.9138 3.76008 8.07361 6.08008 5.80361C8.76008 3.20361 12.1102 1.37359 15.7402 0.533593C18.9902 -0.226407 22.4604 -0.196183 25.8804 0.763817L26.6201 0.983788C37.3801 4.44379 43.3101 15.9738 39.8501 26.7338C39.1501 28.9338 38.1003 30.9438 36.7803 32.7038" clip-rule="evenodd" transform="translate(271.692 240.72) scale(0.133333 -0.133333)"/><path fill="#C1E01C" fill-rule="evenodd" d="M26.7275 0.986822C37.4975 4.44682 43.4177 15.9668 39.9677 26.7368C36.5077 37.4968 24.9777 43.4268 14.2177 39.9668C3.44771 36.5068 -2.47227 24.9868 0.987727 14.2168C4.44773 3.4568 15.9675 -2.47318 26.7275 0.986822Z" clip-rule="evenodd" transform="translate(271.787 244.132) scale(0.133333 -0.133333)"/><path fill="#B4CE1E" fill-rule="evenodd" d="M36.79 32.7036C37.77 23.2736 32.0697 14.1238 22.6797 11.1038C21.1797 10.6238 19.6699 10.3236 18.1699 10.1936C11.0799 9.58361 4.19 12.7335 0 18.3635C0.15 16.9835 0.439883 15.5936 0.879883 14.2136C1.93988 10.9136 3.75959 8.07373 6.07959 5.81373C8.75959 3.20373 12.1097 1.3737 15.7397 0.533701C18.9897 -0.226299 22.4699 -0.196319 25.8799 0.763681L26.6196 0.983652C37.3896 4.44365 43.3099 15.9737 39.8599 26.7337C39.1499 28.9337 38.1 30.9436 36.79 32.7036" clip-rule="evenodd" transform="translate(271.801 244.131) scale(0.133333 -0.133333)"/><path fill="#C1E01C" fill-rule="evenodd" d="M9.55303 3.15888C19.113 -2.87112 31.753 -0.0112324 37.783 9.54877C43.813 19.1088 40.9534 31.7488 31.3934 37.7888C21.8334 43.8188 9.19338 40.9489 3.16338 31.3889C-2.87662 21.8289 -0.00697517 9.18888 9.55303 3.15888" clip-rule="evenodd" transform="translate(265.782 246.777) scale(0.133333 -0.133333)"/><path fill="#B4CE1E" fill-rule="evenodd" d="M40.3941 15.7387C33.7941 8.92871 23.114 7.41889 14.774 12.6789C13.444 13.5189 12.2442 14.4888 11.1842 15.5588C6.16418 20.5988 4.15379 27.8987 5.78379 34.7287C4.81379 33.7287 3.93416 32.6189 3.16416 31.3889C1.31416 28.4589 0.293806 25.2387 0.0538059 22.0087C-0.216194 18.2687 0.533962 14.5387 2.21396 11.2087C3.72396 8.23868 5.9739 5.58881 8.9039 3.58881L9.55381 3.15888C19.1138 -2.87112 31.7538 -0.0112324 37.7838 9.54877C39.0238 11.5088 39.8841 13.5987 40.3941 15.7387" clip-rule="evenodd" transform="translate(265.782 246.777) scale(0.133333 -0.133333)"/><path fill="#C1E01C" fill-rule="evenodd" d="M9.55868 3.15599C19.1187 -2.87401 31.7587 -0.00410461 37.7887 9.5559C43.8187 19.1159 40.9583 31.7559 31.3883 37.7859C21.8283 43.8159 9.18829 40.956 3.15829 31.396C-2.87171 21.836 -0.011323 9.19599 9.55868 3.15599" clip-rule="evenodd" transform="translate(266.832 242.181) scale(0.133333 -0.133333)"/><path fill="#B4CE1E" fill-rule="evenodd" d="M40.3869 15.7314C33.7969 8.9214 23.1171 7.42159 14.7771 12.6816C13.4471 13.5216 12.247 14.4815 11.177 15.5515C6.15696 20.5915 4.15706 27.8916 5.77706 34.7216C4.81706 33.7316 3.92694 32.6116 3.15694 31.3916C1.30694 28.4616 0.297332 25.2314 0.0573324 22.0014C-0.222668 18.2714 0.527 14.5316 2.217 11.2116C3.717 8.23162 5.97694 5.59149 8.90694 3.58149L9.55733 3.15156C19.1173 -2.86844 31.7573 -0.00853539 37.7873 9.55147C39.0173 11.5115 39.8869 13.6014 40.3869 15.7314" clip-rule="evenodd" transform="translate(266.832 242.18) scale(0.133333 -0.133333)"/><path fill="#956B34" fill-rule="evenodd" d="M2.64062 6.26001C4.23063 6.48001 46.3204 17.1201 45.3604 16.8601C44.4004 16.6101 0 0 0 0L2.64062 6.26001" clip-rule="evenodd" transform="translate(308.173 334.024) scale(0.133333 -0.133333)"/><path fill="#956B34" fill-rule="evenodd" d="M0 8.38C1.2 8.49 46.6396 20.85 46.6396 20.85L3.26953 0L0 8.38" clip-rule="evenodd" transform="translate(305.692 326.837) scale(0.133333 -0.133333)"/><path fill="#956B34" fill-rule="evenodd" d="M0 5.93994C1.92 6.44994 39.0596 19.05 39.0596 19.05L5.48926 0L0 5.93994Z" clip-rule="evenodd" transform="translate(303.92 320.707) scale(0.133333 -0.133333)"/><path fill="#956B34" fill-rule="evenodd" d="M0 5.08008L35.5 15.3899L1.76953 0L0 5.08008Z" clip-rule="evenodd" transform="translate(301.821 312.132) scale(0.133333 -0.133333)"/><path fill="#956B34" fill-rule="evenodd" d="M0.0498047 9.06006L29.29 18.1101L0 0L0.0498047 9.06006" clip-rule="evenodd" transform="translate(299.937 305.844) scale(0.133333 -0.133333)"/><path fill="#956B34" fill-rule="evenodd" d="M0 4.33008C0 4.33008 27.8102 12.59 26.6602 12.29C25.5102 11.98 3.00977 0 3.00977 0L0 4.33008Z" clip-rule="evenodd" transform="translate(297.283 299.263) scale(0.133333 -0.133333)"/><path fill="#956B34" fill-rule="evenodd" d="M0 5.07983L29.9199 13.9099L4.85059 0L0 5.07983Z" clip-rule="evenodd" transform="translate(294.968 293.784) scale(0.133333 -0.133333)"/><path fill="#956B34" fill-rule="evenodd" d="M0 7.16992L25.9102 14.0999L3.56055 0L0 7.16992Z" clip-rule="evenodd" transform="translate(293.228 288.687) scale(0.133333 -0.133333)"/><path fill="#956B34" fill-rule="evenodd" d="M0 6.39014L21.7598 13.4399L1.5 0L0 6.39014Z" clip-rule="evenodd" transform="translate(290.797 282.569) scale(0.133333 -0.133333)"/><path fill="#956B34" fill-rule="evenodd" d="M0 6.92017L23.7803 11.8301L4.12012 0L0 6.92017" clip-rule="evenodd" transform="translate(288.889 278.379) scale(0.133333 -0.133333)"/><path fill="#956B34" fill-rule="evenodd" d="M0 6.12988L2.45996 0C2.45996 0 23.8897 12.5099 22.7197 11.8899C21.5497 11.2699 0 6.12988 0 6.12988" clip-rule="evenodd" transform="translate(287.227 273.591) scale(0.133333 -0.133333)"/><path fill="#956B34" fill-rule="evenodd" d="M0 6.6001L3 0L22.3901 10.54L0 6.6001Z" clip-rule="evenodd" transform="translate(285.331 269.897) scale(0.133333 -0.133333)"/><path fill="#956B34" fill-rule="evenodd" d="M0 5.78003L2.98047 0L21.3003 8.80005L0 5.78003" clip-rule="evenodd" transform="translate(283.345 264.876) scale(0.133333 -0.133333)"/><path fill="#956B34" fill-rule="evenodd" d="M0 8.22998L3.83984 0L17.3501 11.01L0 8.22998Z" clip-rule="evenodd" transform="translate(280.796 259.769) scale(0.133333 -0.133333)"/><path fill="#956B34" fill-rule="evenodd" d="M0 8.09985L2.77979 0L17.9102 11.8599L0 8.09985Z" clip-rule="evenodd" transform="translate(278.447 254.76) scale(0.133333 -0.133333)"/><path fill="#598F36" fill-rule="evenodd" d="M156.3 0L112.6 105.42L136.399 137.07L103.7 120.73C97.2002 157 83.8996 196.05 67.5996 230.42C78.3996 247.82 88.7002 264.24 88.7002 264.24L61.8994 242C42.8994 278.94 20.7 309 0 321.87C105.3 397.62 227.7 170.6 156.3 0" clip-rule="evenodd" transform="translate(531.937 276) scale(0.133333 -0.133333)"/><path fill="#538238" fill-rule="evenodd" d="M86.4004 0C87.4004 149.57 90.2 221.21 0 307.26C15 304.18 30.8004 299.72 48.9004 293.36C101.5 228.74 129.9 103.91 86.4004 0Z" clip-rule="evenodd" transform="translate(541.257 276) scale(0.133333 -0.133333)"/><path fill="#AE7B3F" fill-rule="evenodd" d="M389.56 821.52C253.14 553.27 137.88 299 84.7998 0C84.7998 0 59.2191 2.22003 29.8291 8.91003C0.449102 15.6 0 19.96 0 19.96C94.95 289.07 224.22 584.83 372.56 828.43L389.56 821.52Z" clip-rule="evenodd" transform="translate(485.169 345.247) scale(0.133333 -0.133333)"/><path fill="#956B34" fill-rule="evenodd" d="M336.26 811.19C202.19 546.73 89.1898 295.16 36.7998 0C36.7998 0 21.01 1.36995 0 5.19995C12.61 62.49 41.07 176.45 92.04 307.73C165.36 496.54 313.46 790.88 313.46 790.88L336.26 811.19" clip-rule="evenodd" transform="translate(491.569 345.247) scale(0.133333 -0.133333)"/><path fill="#598F36" fill-rule="evenodd" d="M368.8 0C359.7 209.33 141.9 322.39 4 173.12L3.90039 173.1C1.90039 170.96 0.6 169.5 0 168.85C43.6 175.45 84.6002 179.79 159.2 156.95L152.1 204.61L169.3 153.62C181.2 149.38 192.6 144.21 203.5 138.36C201.7 158.78 198.5 194.27 197.9 196.87C197.4 199.37 208.2 158.43 215.2 131.78C234.4 120.39 252.1 107.08 268.3 93.3298C266.9 118.79 264.1 168.39 263.4 171.65C262.7 174.89 272.4 118.32 278.3 84.6699C319 48.4499 349.3 11.42 368.8 0" clip-rule="evenodd" transform="translate(534.711 260.62) scale(0.133333 -0.133333)"/><path fill="#598F36" fill-rule="evenodd" d="M0 0L92.7002 66.52L89.21 105.94L108.38 74.8C133.05 102.17 164.911 128.36 196.931 148.93C196.941 169.4 196.83 188.8 196.83 188.8L207.891 155.75C243.461 177.14 278.241 190.94 302.561 190.99C253.081 310.88 29.32 182.61 0 0Z" clip-rule="evenodd" transform="translate(493.196 260.7) scale(0.133333 -0.133333)"/><path fill="#5D9B36" fill-rule="evenodd" d="M374.125 0C370.325 8.91 365.425 44.9301 321.335 92.0801C163.275 261 -1.07471 21.7001 0.00529402 23.6101C68.0053 57.4901 97.8752 60.73 144.135 64.21C143.075 81.97 141.866 101.96 141.486 105.45C141.106 108.95 148.346 83.1501 153.446 64.5901C175.836 65.2001 197.075 63.69 217.255 60.55C217.225 80.09 217.246 106.21 217.566 108.99C217.896 111.77 223.375 81.4601 227.415 58.8401C295.995 46.1001 327.195 30.19 374.125 0" clip-rule="evenodd" transform="translate(485.027 237.405) scale(0.133333 -0.133333)"/><path fill="#5D9B36" fill-rule="evenodd" d="M0 0C30.2 152.08 276.5 216.03 391.6 56.05C344.4 68.84 301.5 73.18 260.7 71.48C250.4 93.74 238 120.6 240 114.36C241.9 108.25 247.9 87.21 252.4 71.04C230.8 69.71 209.8 66.7299 188.9 62.4399L153.1 103.26L170.6 58.3501C149.9 53.3501 129.3 47.1699 108.4 40.1799C98.3004 53.9399 87.6004 67.7001 88.4004 63.0801C88.9004 59.7101 92.9 48.69 97.5 36.49C66.1 25.63 34 13.06 0 0" clip-rule="evenodd" transform="translate(534.911 237.407) scale(0.133333 -0.133333)"/><path fill="#598F36" fill-rule="evenodd" d="M324.18 0C358.38 162.35 143.66 318.27 0 296.29C13.03 286.05 75.8598 236.3 111.01 212.01L116.47 232.06L118.08 207.11C128.22 200.08 139.18 192.41 150.68 184.28L160.449 211.29L163.3 175.33C172.57 168.73 182.119 161.86 191.819 154.82C197.889 150.42 203.85 145.7 209.67 140.75C212.61 159.3 215.109 179.31 215.109 179.31C215.109 179.31 217.86 152.2 220.14 131.49C280.39 76.13 324.18 0 324.18 0" clip-rule="evenodd" transform="translate(491.687 237.405) scale(0.133333 -0.133333)"/><path fill="#598F36" fill-rule="evenodd" d="M0.527212 0C-9.97279 196.15 138.327 316.94 270.227 313.03C270.227 313.03 226.927 272.89 183.327 227.94C163.227 236.06 144.127 243.67 146.127 243.28C148.427 242.87 163.427 231.3 176.527 220.9C155.427 198.97 134.927 176.36 119.627 157.04L88.7274 176.62L114.428 150.2C111.428 146.3 108.728 142.57 106.428 139.05C98.1276 126.65 88.5274 113.26 78.7274 99.8601C64.1274 109.81 47.4276 122.11 47.4276 122.11L73.0272 92.25C37.8272 45.04 0.527212 0 0.527212 0" clip-rule="evenodd" transform="translate(534.84 237.405) scale(0.133333 -0.133333)"/><path fill="#5D9B36" fill-rule="evenodd" d="M104.97 0C217.57 145.65 114.47 351.94 7.96973 395.22L0 392.3C6.34 375.93 23.1999 331.67 38.9199 284.62C60.5799 283.22 81.0898 281.8 79.0498 282.36C76.8198 282.97 58.31 279.02 42 275.32C51.46 246.45 60.2098 217.15 65.5898 193.14L101.869 197.42L67.3799 184.69C68.3399 179.91 69.1295 175.39 69.7295 171.2C71.8395 156.42 74.6393 140.22 77.7393 123.86C95.1693 126.5 115.569 130.38 115.569 130.38L79.5391 114.56C90.8291 56.7601 104.97 0 104.97 0" clip-rule="evenodd" transform="translate(518.875 235.68) scale(0.133333 -0.133333)"/><path fill="#538238" fill-rule="evenodd" d="M0 0C78.01 127.62 113.45 189.94 235.45 215.47C221.14 220.73 205.38 225.27 186.65 229.4C107.85 202.29 17.86 111.22 0 0" clip-rule="evenodd" transform="translate(493.196 260.7) scale(0.133333 -0.133333)"/><path fill="#538238" fill-rule="evenodd" d="M269.83 109.86C131.24 187.3 2.23 2.92 0 0C1.64 1.6 84.1403 81.8798 133.57 94.0598C183.49 106.36 242.85 92.19 270.74 80.98C298.63 69.76 343.89 22.4199 343.89 22.4199C325.46 48.2099 299.76 80.5599 270.05 107.86L269.83 109.86Z" clip-rule="evenodd" transform="translate(485.032 234.255) scale(0.133333 -0.133333)"/><path fill="#538238" fill-rule="evenodd" d="M275.949 80.3C209.009 164.68 90.44 221.35 0 207.51C149.77 176.66 231.48 124.41 291.41 0C288.74 12.41 286.019 25.54 283.449 38.72L299.479 45.74C298.579 47.32 297.58 48.89 296.68 50.45C291.79 49.62 286.609 48.77 281.649 48.02C279.579 58.98 277.629 69.87 275.949 80.3Z" clip-rule="evenodd" transform="translate(491.687 225.568) scale(0.133333 -0.133333)"/><path fill="#538238" fill-rule="evenodd" d="M149.42 140.99C146.72 250.67 75.9601 355.21 3.62012 384.6L0 383.27C12.41 373.57 40.1696 349.17 72.8496 303.23C117.32 240.73 131.42 143.28 127.02 111.8C124.92 96.81 120.22 70.74 115.82 47.54C113.92 37.96 112.22 28.88 110.72 21.26C109.02 12.8 107.72 6.14992 107.02 2.66992C106.62 0.949922 106.42 0 106.42 0L107.82 0.639893L109.32 1.3999C111.52 4.6899 113.72 8.0001 115.72 11.3501C117.02 13.4401 118.22 15.5399 119.42 17.6599C123.62 25.1599 127.42 32.77 130.72 40.47C144.62 73.11 150.22 107.29 149.42 140.99" clip-rule="evenodd" transform="translate(519.455 234.264) scale(0.133333 -0.133333)"/><path fill="#538238" fill-rule="evenodd" d="M0 220.48C101.2 224.44 184.1 149.6 235 0C229.7 121.96 153.501 211.24 63.6006 235C52.5006 233.39 41.6002 231.27 30.7002 228.73L20.2998 241.23C16.4998 241.32 12.7004 241.3 8.90039 241.15L14.7002 224.71C9.8002 223.38 4.9 221.97 0 220.48Z" clip-rule="evenodd" transform="translate(552.551 260.62) scale(0.133333 -0.133333)"/><path fill="#538238" fill-rule="evenodd" d="M238.8 191.69C149.4 194.33 52.4996 139.73 2.59961 43.21C2.89961 28.84 2.1 14.39 0 0C22.4 30.43 79.1 104.21 128.5 139.23C191.5 183.98 238.8 191.69 238.8 191.69" clip-rule="evenodd" transform="translate(539.031 221.227) scale(0.133333 -0.133333)"/><path fill="#538238" fill-rule="evenodd" d="M0 14.6001C123.8 85.1701 199.199 86.82 335.399 0C259.399 105.53 126.5 113.63 36 63.27C31.5 56.87 26.8 50.3501 22 43.8301C19.4 45.6001 16.6996 47.44 14.0996 49.27C12.1996 47.93 10.3996 46.5599 8.59961 45.1699L16.2998 36.21C10.8998 28.91 5.4 21.6501 0 14.6001" clip-rule="evenodd" transform="translate(542.404 229.935) scale(0.133333 -0.133333)"/><path fill="#C1E01C" fill-rule="evenodd" d="M30.5428 2.34964C20.2428 -2.97036 7.64262 1.04961 2.34262 11.3196C-2.95738 21.5996 1.04301 34.2396 11.243 39.5496C21.543 44.8696 34.2428 40.8496 39.5428 30.5796C44.8428 20.2996 40.8428 7.65964 30.5428 2.34964" clip-rule="evenodd" transform="translate(533.438 239.919) scale(0.133333 -0.133333)"/><path fill="#B4CE1E" fill-rule="evenodd" d="M0 17.8496C6.1 10.3296 16.7998 7.8698 25.7998 12.5098C27.1998 13.2498 28.5002 14.1297 29.7002 15.1297C35.3002 19.8297 37.9994 27.0997 36.8994 34.2097C37.7994 33.1097 38.5998 31.8896 39.2998 30.5796C40.8998 27.4296 41.6996 24.0498 41.5996 20.7398C41.5996 16.9098 40.5 13.1597 38.5 9.91971C36.7 7.00971 34.2 4.51976 31 2.71976L30.2998 2.34964C19.9998 -2.97036 7.39961 1.04961 2.09961 11.3196C0.999609 13.4296 0.3 15.6296 0 17.8496" clip-rule="evenodd" transform="translate(533.471 239.919) scale(0.133333 -0.133333)"/><path fill="#C1E01C" fill-rule="evenodd" d="M14.2183 1.11862C3.25828 4.82862 -2.60133 16.7287 1.11867 27.6887C4.83867 38.6387 16.7282 44.5088 27.6382 40.7888C38.6382 37.0688 44.5388 25.1687 40.7388 14.2187C37.0388 3.25872 25.1683 -2.60138 14.2183 1.11862Z" clip-rule="evenodd" transform="translate(527.639 239.56) scale(0.133333 -0.133333)"/><path fill="#B4CE1E" fill-rule="evenodd" d="M4.35891 33.7384C3.18891 24.1084 8.86848 14.6483 18.4185 11.4083C19.9485 10.8883 21.4888 10.5583 23.0288 10.3983C30.2388 9.64833 37.3388 12.7584 41.7388 18.4484C41.5388 17.0384 41.2388 15.6184 40.7388 14.2184C39.6388 10.8584 37.7384 7.97838 35.3384 5.69838C32.5384 3.07838 29.0382 1.2684 25.3482 0.468402C22.0082 -0.251598 18.4583 -0.161686 14.9683 0.878314L14.2183 1.1183C3.25828 4.8383 -2.60133 16.7284 1.11867 27.6884C1.87867 29.9284 2.98891 31.9584 4.35891 33.7384Z" clip-rule="evenodd" transform="translate(527.639 239.56) scale(0.133333 -0.133333)"/><path fill="#C1E01C" fill-rule="evenodd" d="M14.2493 1.11763C3.24926 4.83763 -2.60062 16.7377 1.11938 27.6877C4.84938 38.6477 16.7497 44.5078 27.6497 40.7878C38.6497 37.0678 44.5493 25.1777 40.7493 14.2177C37.0493 3.26773 25.1493 -2.60237 14.2493 1.11763" clip-rule="evenodd" transform="translate(530.811 236.424) scale(0.133333 -0.133333)"/><path fill="#B4CE1E" fill-rule="evenodd" d="M4.34887 33.7484C3.14887 24.1184 8.84946 14.6583 18.4495 11.4083C19.9495 10.8883 21.4491 10.5583 23.0491 10.3983C30.2491 9.65833 37.3493 12.7584 41.7493 18.4484C41.5493 17.0384 41.2493 15.6184 40.7493 14.2184C39.6493 10.8584 37.7489 7.97839 35.3489 5.70839C32.5489 3.08839 29.0489 1.2684 25.3489 0.468402C22.0489 -0.251598 18.4495 -0.161686 14.9495 0.878314L14.2493 1.1183C3.24926 4.8383 -2.60062 16.7384 1.11938 27.6884C1.84938 29.9384 2.94887 31.9684 4.34887 33.7484" clip-rule="evenodd" transform="translate(530.811 236.424) scale(0.133333 -0.133333)"/><path fill="#C1E01C" fill-rule="evenodd" d="M14.2318 1.11765C3.23184 4.83765 -2.59851 16.7377 1.12149 27.6877C4.83149 38.6477 16.7318 44.5076 27.7318 40.7876C38.6318 37.0676 44.5315 25.1775 40.8315 14.2175C37.0315 3.26751 25.1318 -2.60235 14.2318 1.11765Z" clip-rule="evenodd" transform="translate(530.64 239.912) scale(0.133333 -0.133333)"/><path fill="#B4CE1E" fill-rule="evenodd" d="M4.33145 33.7483C3.23145 24.1183 8.83204 14.6585 18.432 11.4085C19.932 10.8885 21.5316 10.5585 23.0316 10.3985C30.2316 9.65848 37.3318 12.7585 41.7318 18.4585C41.6318 17.0385 41.2315 15.6283 40.8315 14.2183C39.6315 10.8583 37.7315 7.97854 35.3315 5.70854C32.5315 3.08854 29.1315 1.26831 25.3315 0.468306C22.0315 -0.251694 18.432 -0.161538 14.932 0.878462L14.2318 1.11845C3.23184 4.83845 -2.59851 16.7385 1.12149 27.6885C1.88149 29.9385 2.99145 31.9683 4.33145 33.7483" clip-rule="evenodd" transform="translate(530.64 239.912) scale(0.133333 -0.133333)"/><path fill="#C1E01C" fill-rule="evenodd" d="M31.8549 3.04936C21.9549 -2.96064 9.05507 0.189383 3.05507 10.0694C-2.94493 19.9594 0.155066 32.8394 10.0551 38.8494C19.9551 44.8594 32.8549 41.7194 38.8549 31.8294C44.8549 21.9394 41.6549 9.05936 31.8549 3.04936Z" clip-rule="evenodd" transform="translate(536.743 242.721) scale(0.133333 -0.133333)"/><path fill="#B4CE1E" fill-rule="evenodd" d="M0 16.4395C6.6 9.3595 17.5002 7.63944 26.2002 12.8794C27.5002 13.7194 28.7994 14.6896 29.8994 15.7696C35.0994 20.8396 37.2998 28.2694 35.7998 35.2894C36.6998 34.2494 37.5994 33.0994 38.3994 31.8294C40.1994 28.7994 41.1994 25.4895 41.3994 22.1695C41.5994 18.3495 40.8 14.5395 39 11.1595C37.4 8.14947 35.1 5.47954 32 3.47954L31.3994 3.04936C21.4994 -2.96064 8.59961 0.189383 2.59961 10.0694C1.29961 12.0994 0.5 14.2495 0 16.4395" clip-rule="evenodd" transform="translate(536.804 242.721) scale(0.133333 -0.133333)"/><path fill="#C1E01C" fill-rule="evenodd" d="M31.8549 3.05169C21.9549 -2.95831 9.05507 0.181709 3.05507 10.0717C-2.94493 19.9617 0.155066 32.8517 10.0551 38.8517C19.9551 44.8617 32.8549 41.7217 38.8549 31.8317C44.8549 21.9417 41.7549 9.06169 31.8549 3.05169Z" clip-rule="evenodd" transform="translate(535.743 238) scale(0.133333 -0.133333)"/><path fill="#B4CE1E" fill-rule="evenodd" d="M0 16.4393C6.7 9.35925 17.6002 7.6392 26.2002 12.8792C27.6002 13.7192 28.7994 14.6893 29.8994 15.7693C35.0994 20.8393 37.2998 28.2694 35.7998 35.2894C36.7998 34.2494 37.5994 33.0994 38.3994 31.8294C40.1994 28.7994 41.1994 25.4892 41.3994 22.1692C41.5994 18.3492 40.8 14.5392 39 11.1692C37.4 8.14924 35.0996 5.47929 32.0996 3.47929L31.3994 3.04936C21.4994 -2.96064 8.59961 0.189383 2.59961 10.0694C1.39961 12.0994 0.5 14.2493 0 16.4393" clip-rule="evenodd" transform="translate(535.804 238) scale(0.133333 -0.133333)"/><path fill="#956B34" fill-rule="evenodd" d="M43.5468 6.45007C41.9268 6.70007 -0.963461 18.31 0.0165395 18.02C0.986539 17.75 46.1464 0 46.1464 0L43.5468 6.45007" clip-rule="evenodd" transform="translate(491.27 331.323) scale(0.133333 -0.133333)"/><path fill="#956B34" fill-rule="evenodd" d="M47.5107 8.52002C46.2807 8.66002 0 22.0701 0 22.0701L44.0205 0L47.5107 8.52002" clip-rule="evenodd" transform="translate(493.768 324.004) scale(0.133333 -0.133333)"/><path fill="#956B34" fill-rule="evenodd" d="M39.75 5.96997C37.79 6.52997 0 20.0598 0 20.0598L34.0195 0L39.75 5.96997Z" clip-rule="evenodd" transform="translate(496.715 317.755) scale(0.133333 -0.133333)"/><path fill="#956B34" fill-rule="evenodd" d="M36.1396 5.15991L0 16.3198L34.2393 0L36.1396 5.15991" clip-rule="evenodd" transform="translate(499.487 309.025) scale(0.133333 -0.133333)"/><path fill="#956B34" fill-rule="evenodd" d="M29.7705 9.27002L0 19.04L29.6699 0L29.7705 9.27002Z" clip-rule="evenodd" transform="translate(502.373 302.628) scale(0.133333 -0.133333)"/><path fill="#956B34" fill-rule="evenodd" d="M27.1857 4.37988C27.1857 4.37988 -1.13472 13.31 0.0352788 12.97C1.21528 12.64 24.0353 0 24.0353 0L27.1857 4.37988" clip-rule="evenodd" transform="translate(505.542 295.931) scale(0.133333 -0.133333)"/><path fill="#956B34" fill-rule="evenodd" d="M30.4707 5.11987L0 14.6499L25.4199 0L30.4707 5.11987Z" clip-rule="evenodd" transform="translate(507.568 290.36) scale(0.133333 -0.133333)"/><path fill="#956B34" fill-rule="evenodd" d="M26.3896 7.28003L0 14.8101L22.6201 0L26.3896 7.28003" clip-rule="evenodd" transform="translate(509.983 285.177) scale(0.133333 -0.133333)"/><path fill="#956B34" fill-rule="evenodd" d="M22.1504 6.51001L0 14.0901L20.5 0L22.1504 6.51001Z" clip-rule="evenodd" transform="translate(513.139 278.963) scale(0.133333 -0.133333)"/><path fill="#956B34" fill-rule="evenodd" d="M24.2402 7.02002L0 12.45L19.9199 0L24.2402 7.02002Z" clip-rule="evenodd" transform="translate(514.883 274.703) scale(0.133333 -0.133333)"/><path fill="#956B34" fill-rule="evenodd" d="M23.2066 6.22998L20.5757 0C20.5757 0 -1.13358 13.17 0.046418 12.52C1.23642 11.86 23.2066 6.22998 23.2066 6.22998Z" clip-rule="evenodd" transform="translate(516.803 269.835) scale(0.133333 -0.133333)"/><path fill="#956B34" fill-rule="evenodd" d="M22.8398 6.69995L19.6602 0L0 11.0999L22.8398 6.69995Z" clip-rule="evenodd" transform="translate(518.855 266.085) scale(0.133333 -0.133333)"/><path fill="#956B34" fill-rule="evenodd" d="M21.75 5.86011L18.5898 0L0 9.32007L21.75 5.86011Z" clip-rule="evenodd" transform="translate(521.116 260.981) scale(0.133333 -0.133333)"/><path fill="#956B34" fill-rule="evenodd" d="M17.71 8.3501L13.6299 0L0 11.5L17.71 8.3501Z" clip-rule="evenodd" transform="translate(524.356 255.797) scale(0.133333 -0.133333)"/><path fill="#956B34" fill-rule="evenodd" d="M18.2598 8.25L15.2803 0L0 12.4001L18.2598 8.25Z" clip-rule="evenodd" transform="translate(526.771 250.715) scale(0.133333 -0.133333)"/><path fill="#598F36" fill-rule="evenodd" d="M8.56727 0L98.0472 137.55L72.7675 188.55L114.727 156.83C133.497 206.39 162.498 258.13 194.658 302.42C183.978 329.85 173.698 355.79 173.698 355.79L205.787 317.28C242.267 364.52 281.658 401.17 314.208 413.94C185.308 548.75 -47.5227 260 8.56727 0Z" clip-rule="evenodd" transform="translate(261.308 249.495) scale(0.133333 -0.133333)"/><path fill="#538238" fill-rule="evenodd" d="M8.57021 0C46.4302 211.75 61.3799 313.77 211.52 411.69C189.59 411.27 166.1 409.11 138.85 404.87C47.42 327.38 -25.5998 158.36 8.57021 0Z" clip-rule="evenodd" transform="translate(261.309 249.495) scale(0.133333 -0.133333)"/><path fill="#AE7B3F" fill-rule="evenodd" d="M0 1244.06C122.19 828.897 218.21 439.056 214.53 2.33648C214.53 2.33648 251.28 -1.25351 294.59 0.466487C337.89 2.19649 339.67 8.23651 339.67 8.23651C276.29 413.717 171.39 865.897 25.8398 1249.36L0 1244.06" clip-rule="evenodd" transform="translate(295.212 362.533) scale(0.133333 -0.133333)"/><path fill="#956B34" fill-rule="evenodd" d="M0 1228.06C119.94 818.87 213.46 433.44 209.83 2.32996C209.83 2.32996 232.51 0.12 263.23 0C260.48 84.31 250.25 252.93 212.74 451.95C158.8 738.21 26.9199 1193.34 26.9199 1193.34L0 1228.06" clip-rule="evenodd" transform="translate(295.839 362.532) scale(0.133333 -0.133333)"/><path fill="#598F36" fill-rule="evenodd" d="M0 0C67.97 293.56 405.68 396.08 561.36 148.72L561.47 148.67C563.69 145.13 565.2 142.71 565.85 141.64C505.95 162.44 449.13 179.38 337.57 166.73L360.16 232.25L322.46 164.68C304.59 161.8 287.1 157.5 270.07 152.12C278.02 180.5 291.89 229.84 293.38 233.37C294.8 236.76 268.75 181.71 251.82 145.89C221.66 134.84 193.1 120.69 166.57 105.52C175.28 141.13 192.34 210.51 194.2 214.95C196.05 219.33 167.44 141.92 150.18 95.8899C83.1197 55.4099 30.47 11.03 0 0" clip-rule="evenodd" transform="translate(222.521 219.561) scale(0.133333 -0.133333)"/><path fill="#598F36" fill-rule="evenodd" d="M377.47 0L263.91 118.46L279.23 173.28L243.92 134.29C216.25 179.48 178.1 224.9 138.24 262.41C143.63 291.35 148.891 318.76 148.891 318.76L124.54 274.94C79.89 314.55 34.36 343.21 0 349.68C101.51 506.17 384.09 265.9 377.47 0" clip-rule="evenodd" transform="translate(300.384 243.549) scale(0.133333 -0.133333)"/><path fill="#5D9B36" fill-rule="evenodd" d="M0 65.1376C7.7 76.7376 24.0794 126.378 98.8594 181.418C366.819 378.638 536.169 -2.97251 535.149 0.0174909C447.929 65.8275 406.549 78.2576 342.069 95.3776C348.239 120.198 355.21 148.148 356.67 152.978C358.13 157.818 341.09 123.248 329 98.3476C297.51 105.108 267.08 108.578 237.72 109.448C242.9 137.068 249.76 173.997 250.04 178.017C250.31 182.027 234.579 140.628 222.909 109.698C122.589 109.748 74.29 95.4676 0 65.1376" clip-rule="evenodd" transform="translate(297.869 208.317) scale(0.133333 -0.133333)"/><path fill="#5D9B36" fill-rule="evenodd" d="M538.911 0C536.241 222.97 204.91 378.2 0 182.33C70.11 188 131.87 182.84 189.2 169.68C209.5 198.46 234.22 233.15 229.74 224.86C225.34 216.74 211.43 188.55 200.8 166.88C230.93 159.32 259.88 149.57 288.23 138.02L349.69 186.29L313.08 127.4C341.03 114.89 368.58 100.72 396.28 85.3401C414.11 102.15 432.8 118.79 430.58 112.44C428.96 107.82 420.44 93.28 410.65 77.26C452.18 53.63 494.281 27.41 538.911 0" clip-rule="evenodd" transform="translate(226.015 199.633) scale(0.133333 -0.133333)"/><path fill="#598F36" fill-rule="evenodd" d="M0.0667061 0C-5.50329 238.53 339.076 402.45 536.396 333.56C515.286 322.5 413.356 268.7 357.266 243.62L354.817 273.4L345.987 238.56C329.797 231.28 312.287 223.33 293.867 214.86L287.176 255.63L273.676 205.53C258.836 198.63 243.527 191.45 227.947 184.04C218.217 179.42 208.546 174.31 199.006 168.86C199.736 195.86 201.476 224.8 201.476 224.8C201.476 224.8 190.447 187.2 181.777 158.52C82.0167 96.11 0.0667061 0 0.0667061 0" clip-rule="evenodd" transform="translate(297.861 199.632) scale(0.133333 -0.133333)"/><path fill="#598F36" fill-rule="evenodd" d="M298.94 0C365.37 274.57 187.58 484.37 0 513.59C0 513.59 50.71 445.42 100.52 370.39C131.12 376.58 160.12 382.3 157.08 382.3C153.76 382.31 129.54 369.9 108.28 358.65C132.25 322.11 155.39 284.71 171.86 253.39L220.67 272.95L177.5 242.33C180.62 236.05 183.43 230.07 185.83 224.47C194.31 204.75 204.27 183.31 214.71 161.77C237.97 171.98 264.76 184.99 264.76 184.99L220.68 149.51C258.04 73.51 298.94 0 298.94 0" clip-rule="evenodd" transform="translate(258.011 199.632) scale(0.133333 -0.133333)"/><path fill="#5D9B36" fill-rule="evenodd" d="M37.043 0C-83.867 235.59 116.213 500.09 278.223 533.24L288.713 527.01C275.453 505.54 239.943 447.4 205.333 385.02C174.343 388.75 144.983 392.15 148.013 392.39C151.323 392.66 176.453 382.21 198.543 372.69C177.553 334.36 157.473 295.24 143.553 262.7L93.333 278.32L138.793 251.23C136.183 244.72 133.873 238.54 131.923 232.77C125.033 212.43 116.813 190.27 108.133 167.96C84.1128 176.3 56.3828 187.13 56.3828 187.13L103.143 155.27C71.9626 76.53 37.043 0 37.043 0Z" clip-rule="evenodd" transform="translate(296.27 197.731) scale(0.133333 -0.133333)"/><path fill="#538238" fill-rule="evenodd" d="M276.16 0C199.48 200.97 165.77 298.41 0 366.62C21.62 370.29 45.0999 372.56 72.6699 373.47C176.95 314.39 280.2 161.95 276.16 0Z" clip-rule="evenodd" transform="translate(313.891 243.549) scale(0.133333 -0.133333)"/><path fill="#538238" fill-rule="evenodd" d="M127.73 226.36C344.06 299.36 477.91 4.72 480.31 0C478.4 2.69 382.9 137.92 316.23 168.15C248.88 198.69 161.23 194.28 118.84 185.77C76.4498 177.26 0 122.24 0 122.24C32.84 153.85 77.7004 192.82 126.9 223.6C127.18 224.51 127.45 225.43 127.73 226.36Z" clip-rule="evenodd" transform="translate(305.177 208.309) scale(0.133333 -0.133333)"/><path fill="#538238" fill-rule="evenodd" d="M43.0098 109.46C159.86 211.14 342.43 260.04 466.64 216.67C246.77 212.48 117.5 160.12 0 0C7.04 16.85 14.35 34.6901 21.46 52.6401L0.69043 66.79C2.38043 68.78 4.09008 70.7602 5.83008 72.7202C12.5301 70.2602 19.6402 67.7001 26.4502 65.3301C32.2702 80.2801 37.8798 95.1602 43.0098 109.46" clip-rule="evenodd" transform="translate(307.161 184.047) scale(0.133333 -0.133333)"/><path fill="#538238" fill-rule="evenodd" d="M7.95204 210.64C40.662 365 168.212 494.17 278.212 516.68L282.981 513.85C262.881 503.4 217.212 476.22 158.912 419.87C79.592 343.21 34.0015 209.15 31.8915 163.49C30.8915 141.75 30.772 103.63 30.912 69.6699C30.972 55.6399 31.0813 42.3299 31.1913 31.1699C31.3113 18.7599 31.4318 9.01992 31.5018 3.91992C31.5418 1.38992 31.5614 0 31.5614 0C31.5614 0 30.9414 0.42001 29.8114 1.26001L27.872 2.73999C25.582 7.97999 23.442 13.22 21.452 18.48C20.202 21.78 19.012 25.0799 17.872 28.3699C13.852 40.0999 10.5518 51.8499 7.92177 63.5999C-3.18823 113.42 -2.08796 163.22 7.95204 210.64" clip-rule="evenodd" transform="translate(296.27 195.523) scale(0.133333 -0.133333)"/><path fill="#538238" fill-rule="evenodd" d="M390.28 249.86C248.24 282.1 111.32 198.13 0 0C39.6 171.04 170.77 277.22 304.15 287.15C319.38 281.94 334.31 276.07 349.07 269.6L366.99 284.55C372.39 283.68 377.78 282.64 383.14 281.43L370.53 259.72C377.14 256.55 383.72 253.25 390.28 249.86" clip-rule="evenodd" transform="translate(222.521 219.561) scale(0.133333 -0.133333)"/><path fill="#538238" fill-rule="evenodd" d="M0 333.9C127.11 314.09 249.73 211.38 294.9 61.77C290.62 41.55 287.96 20.9 287.18 0C263.58 48.91 202.73 168.16 142.19 230.67C64.8199 310.54 0 333.9 0 333.9" clip-rule="evenodd" transform="translate(258.011 175.673) scale(0.133333 -0.133333)"/><path fill="#538238" fill-rule="evenodd" d="M478.1 0C321.54 132.39 215.5 154.54 0 67.6702C135.17 196.87 325.34 173.31 439.91 78.3101C444.64 68.0601 449.61 57.6001 454.69 47.1201C458.82 48.9301 463.07 50.84 467.25 52.74C469.51 50.36 471.72 47.95 473.88 45.5L460.66 34.8601C466.45 23.1001 472.31 11.38 478.1 0" clip-rule="evenodd" transform="translate(226.013 184.345) scale(0.133333 -0.133333)"/><path fill="#C1E01C" fill-rule="evenodd" d="M11.6177 6.36585C24.7377 -3.86415 43.6682 -1.51415 53.8882 11.6158C64.1182 24.7458 61.7682 43.6659 48.6382 53.8959C35.5082 64.1159 16.5879 61.7659 6.3579 48.6359C-3.8621 35.5059 -1.51234 16.5858 11.6177 6.36585Z" clip-rule="evenodd" transform="translate(292.063 202.906) scale(0.133333 -0.133333)"/><path fill="#B4CE1E" fill-rule="evenodd" d="M58.6069 20.2858C47.9569 11.2758 32.0967 10.6258 20.6567 19.5458C18.8267 20.9658 17.2073 22.5558 15.7973 24.2758C9.17729 32.3958 7.30717 43.3759 10.6772 53.1459C9.11717 51.8259 7.66686 50.3159 6.35686 48.6359C3.22686 44.6159 1.2667 40.0358 0.446704 35.3358C-0.493296 29.9158 0.0565474 24.3357 2.03655 19.2157C3.81655 14.6357 6.72698 10.4458 10.727 7.07581L11.6166 6.36585C24.7366 -3.86415 43.6671 -1.51415 53.8871 11.6158C55.9871 14.3058 57.5569 17.2358 58.6069 20.2858" clip-rule="evenodd" transform="translate(292.063 202.906) scale(0.133333 -0.133333)"/><path fill="#C1E01C" fill-rule="evenodd" d="M34.4314 0.311278C50.9014 2.69128 62.3209 17.9612 59.9509 34.4312C57.5709 50.9012 42.3008 62.3312 25.8308 59.9512C9.36082 57.5712 -2.05872 42.3011 0.311284 25.8311C2.69128 9.36105 17.9614 -2.05872 34.4314 0.311278Z" clip-rule="evenodd" transform="translate(300.351 203.925) scale(0.133333 -0.133333)"/><path fill="#B4CE1E" fill-rule="evenodd" d="M56.9595 43.8441C56.0795 29.9141 45.5499 18.0342 31.1899 15.9642C28.8999 15.6342 26.6294 15.5642 24.4194 15.7542C13.9794 16.6042 4.76006 22.8641 0.0600638 32.0641C-0.0699362 30.0241 0.0100638 27.9341 0.310064 25.8241C1.04006 20.7741 2.97932 16.1941 5.79932 12.3541C9.04932 7.91409 13.46 4.43406 18.52 2.32406C23.06 0.424061 28.0993 -0.385842 33.2993 0.174158L34.4302 0.314051C50.9002 2.68405 62.3197 17.9542 59.9497 34.4242C59.4597 37.8042 58.4295 40.9641 56.9595 43.8441" clip-rule="evenodd" transform="translate(300.351 203.925) scale(0.133333 -0.133333)"/><path fill="#C1E01C" fill-rule="evenodd" d="M34.4238 0.311273C50.8938 2.69127 62.3234 17.9614 59.9434 34.4314C57.5634 50.9014 42.2933 62.3214 25.8233 59.9514C9.36326 57.5714 -2.06651 42.3013 0.313492 25.8313C2.68349 9.36129 17.9638 -2.05873 34.4238 0.311273Z" clip-rule="evenodd" transform="translate(296.692 198.655) scale(0.133333 -0.133333)"/><path fill="#B4CE1E" fill-rule="evenodd" d="M56.9627 43.8391C56.0727 29.9191 45.5524 18.0393 31.1824 15.9693C28.8924 15.6293 26.6219 15.5693 24.4119 15.7493C13.9719 16.5993 4.76233 22.8591 0.0623253 32.0691C-0.0676747 30.0291 0.0025596 27.9391 0.30256 25.8291C1.03256 20.7791 2.98256 16.1992 5.80256 12.3492C9.04256 7.90915 13.4623 4.43912 18.5223 2.31912C23.0523 0.429123 28.0928 -0.380779 33.2928 0.169221L34.4227 0.309114C50.8927 2.68911 62.3122 17.9592 59.9422 34.4192C59.4622 37.7992 58.4227 40.9591 56.9627 43.8391" clip-rule="evenodd" transform="translate(296.692 198.655) scale(0.133333 -0.133333)"/><path fill="#C1E01C" fill-rule="evenodd" d="M34.4241 0.311273C50.8941 2.68127 62.3136 17.9611 59.9436 34.4311C57.5736 50.8911 42.2935 62.3212 25.8235 59.9412C9.35347 57.5712 -2.06629 42.2913 0.313707 25.8313C2.68371 9.36129 17.9541 -2.05873 34.4241 0.311273Z" clip-rule="evenodd" transform="translate(296.014 203.631) scale(0.133333 -0.133333)"/><path fill="#B4CE1E" fill-rule="evenodd" d="M56.97 43.8394C56.08 29.9094 45.5497 18.0392 31.1897 15.9592C28.8997 15.6292 26.6302 15.5693 24.4202 15.7493C13.9802 16.5993 4.76983 22.8593 0.059829 32.0693C-0.070171 30.0193 0.00959459 27.9293 0.319595 25.8293C1.03959 20.7793 2.99006 16.1994 5.80006 12.3494C9.05006 7.90937 13.4696 4.43934 18.5296 2.31934C23.0596 0.42934 28.1001 -0.380806 33.3001 0.169194L34.4299 0.309331C50.8999 2.68933 62.3195 17.9592 59.9495 34.4192C59.4695 37.7992 58.44 40.9594 56.97 43.8394" clip-rule="evenodd" transform="translate(296.013 203.631) scale(0.133333 -0.133333)"/><path fill="#C1E01C" fill-rule="evenodd" d="M10.0336 7.68354C22.4236 -3.41646 41.4737 -2.36637 52.5737 10.0336C63.6737 22.4236 62.6131 41.4737 50.2231 52.5737C37.8231 63.6737 18.7835 62.6136 7.68354 50.2236C-3.41646 37.8236 -2.36637 18.7835 10.0336 7.68354" clip-rule="evenodd" transform="translate(286.65 205.998) scale(0.133333 -0.133333)"/><path fill="#B4CE1E" fill-rule="evenodd" d="M57.8713 18.3595C46.6213 10.0995 30.7614 10.5396 19.9514 20.2196C18.2214 21.7596 16.7213 23.4596 15.4313 25.2696C9.38135 33.8196 8.26147 44.8995 12.3015 54.4195C10.6515 53.2095 9.10135 51.7996 7.68135 50.2196C4.28135 46.4196 2.01129 41.9895 0.871289 37.3595C-0.438711 32.0095 -0.268476 26.3995 1.36152 21.1695C2.81152 16.4695 5.4316 12.0896 9.1916 8.45957L10.0314 7.67954C22.4314 -3.41046 41.4715 -2.37037 52.5715 10.0296C54.8415 12.5696 56.6013 15.3895 57.8713 18.3595" clip-rule="evenodd" transform="translate(286.651 205.997) scale(0.133333 -0.133333)"/><path fill="#C1E01C" fill-rule="evenodd" d="M10.0334 7.68364C22.4234 -3.41636 41.4736 -2.3665 52.5636 10.0335C63.6636 22.4235 62.6138 41.4735 50.2238 52.5635C37.8238 63.6635 18.7838 62.6137 7.68375 50.2137C-3.41625 37.8237 -2.36664 18.7836 10.0334 7.68364Z" clip-rule="evenodd" transform="translate(289.302 199.584) scale(0.133333 -0.133333)"/><path fill="#B4CE1E" fill-rule="evenodd" d="M57.8751 18.3646C46.6251 10.1046 30.7652 10.5347 19.9552 20.2147C18.2252 21.7647 16.7257 23.4545 15.4357 25.2745C9.38567 33.8145 8.26579 44.9046 12.3058 54.4146C10.6558 53.2046 9.10567 51.8047 7.68567 50.2247C4.27567 46.4147 2.01561 41.9846 0.875612 37.3546C-0.444388 32.0146 -0.264642 26.4046 1.36536 21.1646C2.81536 16.4746 5.43544 12.0847 9.19544 8.46468L10.0353 7.68465C22.4253 -3.41535 41.4756 -2.36551 52.5656 10.0245C54.8456 12.5645 56.6051 15.3846 57.8751 18.3646Z" clip-rule="evenodd" transform="translate(289.302 199.585) scale(0.133333 -0.133333)"/><path fill="#956B34" fill-rule="evenodd" d="M5.37012 8.43005C7.73012 8.36005 71.42 13.47 69.96 13.33C68.51 13.19 0 0 0 0L5.37012 8.43005" clip-rule="evenodd" transform="translate(326.144 342.284) scale(0.133333 -0.133333)"/><path fill="#956B34" fill-rule="evenodd" d="M0 12.9601C1.78 12.8301 70.7402 19.61 70.7402 19.61L2.69043 0L0 12.9601" clip-rule="evenodd" transform="translate(324.58 331.355) scale(0.133333 -0.133333)"/><path fill="#956B34" fill-rule="evenodd" d="M0 9.95996C2.91 10.23 59.9004 19.4099 59.9004 19.4099L6.52051 0L0 9.95996Z" clip-rule="evenodd" transform="translate(323.433 322.095) scale(0.133333 -0.133333)"/><path fill="#956B34" fill-rule="evenodd" d="M0 7.81006L54.04 14.0701L1.31934 0L0 7.81006" clip-rule="evenodd" transform="translate(322.464 309.016) scale(0.133333 -0.133333)"/><path fill="#956B34" fill-rule="evenodd" d="M2.29004 13.1401L46.9502 19.1001L0 0L2.29004 13.1401Z" clip-rule="evenodd" transform="translate(321.107 299.371) scale(0.133333 -0.133333)"/><path fill="#956B34" fill-rule="evenodd" d="M0 7.03003C0 7.03003 42.3896 12.19 40.6396 12.03C38.8996 11.87 3.2998 0 3.2998 0L0 7.03003Z" clip-rule="evenodd" transform="translate(319.011 289.267) scale(0.133333 -0.133333)"/><path fill="#956B34" fill-rule="evenodd" d="M0 8.56006L45.5996 14.02L5.7998 0L0 8.56006" clip-rule="evenodd" transform="translate(317.02 280.807) scale(0.133333 -0.133333)"/><path fill="#956B34" fill-rule="evenodd" d="M0 11.27L39.2998 14.97L3.41016 0L0 11.27Z" clip-rule="evenodd" transform="translate(315.815 272.941) scale(0.133333 -0.133333)"/><path fill="#956B34" fill-rule="evenodd" d="M0 9.63989L33.3105 14.53L0.610352 0L0 9.63989" clip-rule="evenodd" transform="translate(313.763 263.4) scale(0.133333 -0.133333)"/><path fill="#956B34" fill-rule="evenodd" d="M0 11.05L35.6992 12.3601L4.25977 0L0 11.05Z" clip-rule="evenodd" transform="translate(312.041 256.937) scale(0.133333 -0.133333)"/><path fill="#956B34" fill-rule="evenodd" d="M0 9.5L2.06934 0C2.06934 0 36.2396 12.91 34.3896 12.29C32.5396 11.68 0 9.5 0 9.5Z" clip-rule="evenodd" transform="translate(310.776 249.527) scale(0.133333 -0.133333)"/><path fill="#956B34" fill-rule="evenodd" d="M0 10.3198L2.73047 0L33.4609 10.5298L0 10.3198Z" clip-rule="evenodd" transform="translate(308.947 243.719) scale(0.133333 -0.133333)"/><path fill="#956B34" fill-rule="evenodd" d="M0 9.12012L2.91016 0L31.6494 8.28003L0 9.12012" clip-rule="evenodd" transform="translate(307.271 235.944) scale(0.133333 -0.133333)"/><path fill="#956B34" fill-rule="evenodd" d="M0 12.8801L3.55957 0L25.8594 12.6699L0 12.8801" clip-rule="evenodd" transform="translate(304.904 227.936) scale(0.133333 -0.133333)"/><path fill="#956B34" fill-rule="evenodd" d="M0 12.4399L2.0498 0L26.9102 13.5L0 12.4399Z" clip-rule="evenodd" transform="translate(302.72 220.055) scale(0.133333 -0.133333)"/><path fill="#598F36" fill-rule="evenodd" d="M280.189 0L198.17 126.1L221.34 172.85L182.87 143.78C165.67 189.21 139.07 236.64 109.59 277.24C119.38 302.39 128.81 326.17 128.81 326.17L99.3896 290.86C65.9496 334.17 29.83 367.77 0 379.48C118.17 503.07 331.569 238.35 280.189 0" clip-rule="evenodd" transform="translate(493.421 240.372) scale(0.133333 -0.133333)"/><path fill="#538238" fill-rule="evenodd" d="M186.06 0C151.35 194.13 137.64 287.65 0 377.42C20.1 377.04 41.6401 375.06 66.6201 371.17C150.44 300.13 217.34 145.18 186.06 0" clip-rule="evenodd" transform="translate(505.972 240.373) scale(0.133333 -0.133333)"/><path fill="#AE7B3F" fill-rule="evenodd" d="M311.399 1140.49C199.379 759.895 111.349 402.504 114.729 2.14451C114.729 2.14451 81.0301 -1.14547 41.3301 0.424535C1.63008 2.01453 0 7.54453 0 7.54453C58.11 379.275 154.27 793.815 287.71 1145.34L311.399 1140.49Z" clip-rule="evenodd" transform="translate(459.227 344.001) scale(0.133333 -0.133333)"/><path fill="#956B34" fill-rule="evenodd" d="M241.33 1125.83C131.37 750.7 45.63 397.36 48.96 2.14001C48.96 2.14001 28.16 0.1 0 0C2.53 77.29 11.9 231.88 46.29 414.33C95.74 676.76 216.641 1094 216.641 1094L241.33 1125.83" clip-rule="evenodd" transform="translate(467.996 344) scale(0.133333 -0.133333)"/><path fill="#598F36" fill-rule="evenodd" d="M518.779 0C456.479 269.12 146.83 363.1 4.12012 136.34L4.00977 136.29C1.97977 133.05 0.59 130.83 0 129.84C54.91 148.92 106.999 164.44 209.279 152.85L188.56 212.91L223.12 150.97C239.51 148.33 255.58 144.39 271.18 139.45C263.88 165.48 251.179 210.7 249.779 213.94C248.479 217.05 272.38 166.58 287.88 133.74C315.58 123.61 341.68 110.64 366.08 96.73C358.08 129.38 342.38 192.98 340.68 197.05C338.98 201.07 365.28 130.1 381.08 87.9099C442.58 50.7899 490.779 10.11 518.779 0" clip-rule="evenodd" transform="translate(498.22 212.931) scale(0.133333 -0.133333)"/><path fill="#598F36" fill-rule="evenodd" d="M0.104883 0L104.214 108.6L90.1645 158.85L122.535 123.11C147.905 164.54 182.874 206.18 219.414 240.57C214.484 267.11 209.655 292.23 209.655 292.23L231.975 252.05C272.905 288.37 314.655 314.64 346.155 320.58C253.095 464.04 -5.96512 243.77 0.104883 0" clip-rule="evenodd" transform="translate(449.851 234.923) scale(0.133333 -0.133333)"/><path fill="#5D9B36" fill-rule="evenodd" d="M490.604 59.7159C483.544 70.3559 468.524 115.866 399.964 166.326C154.314 347.126 -0.935755 -2.71409 0.0042447 0.0159057C79.9542 60.3559 117.894 71.7558 177.004 87.4358C171.354 110.196 164.963 135.816 163.623 140.246C162.283 144.686 177.904 112.996 188.984 90.1658C217.864 96.3658 245.754 99.5457 272.674 100.346C267.914 125.666 261.634 159.516 261.384 163.206C261.134 166.876 275.554 128.926 286.254 100.576C378.214 100.616 422.494 87.5259 490.604 59.7159" clip-rule="evenodd" transform="translate(432.897 202.623) scale(0.133333 -0.133333)"/><path fill="#5D9B36" fill-rule="evenodd" d="M0 0C2.44 204.41 306.2 346.72 494 167.15C429.8 172.35 373.2 167.62 320.6 155.55C302 181.93 279.3 213.74 283.4 206.14C287.5 198.7 300.2 172.85 310 152.99C282.3 146.05 255.8 137.11 229.81 126.53L173.46 170.77L207.03 116.79C181.4 105.32 156.15 92.33 130.75 78.23C114.41 93.64 97.2696 108.9 99.3096 103.08C100.8 98.8401 108.61 85.5101 117.58 70.8201C79.5101 49.1601 40.91 25.13 0 0" clip-rule="evenodd" transform="translate(498.311 194.661) scale(0.133333 -0.133333)"/><path fill="#598F36" fill-rule="evenodd" d="M491.69 0C496.79 218.68 180.9 368.95 0 305.8C19.36 295.66 112.811 246.34 164.221 223.34L166.471 250.64L174.57 218.71C189.41 212.03 205.461 204.74 222.341 196.98L228.48 234.35L240.851 188.42C254.461 182.1 268.501 175.52 282.771 168.73C291.701 164.49 300.561 159.81 309.301 154.81C308.641 179.56 307.051 206.09 307.051 206.09C307.051 206.09 317.15 171.62 325.11 145.33C416.56 88.1101 491.69 0 491.69 0" clip-rule="evenodd" transform="translate(432.752 194.661) scale(0.133333 -0.133333)"/><path fill="#598F36" fill-rule="evenodd" d="M13.0262 0C-47.8738 251.72 115.106 444.05 287.126 470.84C287.126 470.84 240.597 408.35 194.927 339.56C166.867 345.23 140.286 350.48 143.066 350.48C146.116 350.49 168.316 339.11 187.816 328.79C165.836 295.3 144.626 261.02 129.526 232.3L84.7762 250.23L124.356 222.16C121.496 216.41 118.927 210.92 116.717 205.79C108.947 187.71 99.8159 168.05 90.2459 148.31C68.9159 157.67 44.3563 169.6 44.3563 169.6L84.7664 137.07C50.5264 67.3901 13.0262 0 13.0262 0Z" clip-rule="evenodd" transform="translate(496.574 194.661) scale(0.133333 -0.133333)"/><path fill="#5D9B36" fill-rule="evenodd" d="M230.721 0C341.571 215.99 158.15 458.47 9.62012 488.86L0 483.15C12.16 463.46 44.7104 410.16 76.4404 352.98C104.85 356.39 131.77 359.51 128.99 359.73C125.96 359.99 102.92 350.4 82.6602 341.67C101.9 306.53 120.32 270.67 133.08 240.84L179.12 255.16L137.44 230.33C139.83 224.36 141.95 218.69 143.74 213.4C150.05 194.75 157.591 174.44 165.551 153.99C187.571 161.63 212.99 171.56 212.99 171.56L170.131 142.36C198.711 70.1699 230.721 0 230.721 0" clip-rule="evenodd" transform="translate(464.485 192.919) scale(0.133333 -0.133333)"/><path fill="#538238" fill-rule="evenodd" d="M0.105055 0C70.4051 184.25 101.305 273.58 253.275 336.11C233.455 339.47 211.925 341.55 186.655 342.39C91.0549 288.22 -3.59494 148.47 0.105055 0" clip-rule="evenodd" transform="translate(449.853 234.923) scale(0.133333 -0.133333)"/><path fill="#538238" fill-rule="evenodd" d="M323.221 207.52C124.901 274.44 2.19 4.33 0 0C1.74 2.47 89.2899 126.44 150.42 154.16C212.16 182.15 292.51 178.11 331.37 170.3C370.23 162.5 440.32 112.07 440.32 112.07C410.21 141.04 369.08 176.77 323.99 204.99L323.221 207.52" clip-rule="evenodd" transform="translate(432.901 202.616) scale(0.133333 -0.133333)"/><path fill="#538238" fill-rule="evenodd" d="M388.37 100.34C281.25 193.56 113.88 238.38 0 198.63C201.57 194.79 320.08 146.79 427.79 0C421.34 15.44 414.641 31.8 408.131 48.26L427.16 61.23C425.62 63.05 424.05 64.8602 422.45 66.6602C416.31 64.4102 409.801 62.0601 403.551 59.8901C398.221 73.5901 393.08 87.2301 388.37 100.34" clip-rule="evenodd" transform="translate(432.752 180.372) scale(0.133333 -0.133333)"/><path fill="#538238" fill-rule="evenodd" d="M252.141 193.11C222.161 334.62 105.231 453.03 4.38086 473.67L0 471.08C18.43 461.5 60.3 436.58 113.75 384.91C186.47 314.64 228.26 191.74 230.19 149.88C231.11 129.94 231.221 94.9999 231.091 63.8699C231.031 51.0099 230.931 38.8098 230.841 28.5798C230.721 17.1998 230.611 8.26984 230.551 3.58984C230.521 1.26984 230.5 0 230.5 0C230.5 0 231.061 0.389912 232.101 1.15991L233.881 2.51001C235.981 7.31001 237.941 12.1199 239.771 16.9399C240.911 19.9599 242.001 22.99 243.051 26.01C246.731 36.76 249.761 47.5301 252.171 58.3101C262.351 103.98 261.351 149.63 252.141 193.11" clip-rule="evenodd" transform="translate(465.185 190.893) scale(0.133333 -0.133333)"/><path fill="#538238" fill-rule="evenodd" d="M0 229.06C130.22 258.62 255.719 181.63 357.819 0C321.519 156.8 201.22 254.14 78.9502 263.24C65.0002 258.47 51.2995 253.09 37.7695 247.15L21.3398 260.86C16.3898 260.06 11.4598 259.11 6.5498 258L18.0996 238.1C12.0396 235.19 6.01 232.17 0 229.06" clip-rule="evenodd" transform="translate(519.681 212.931) scale(0.133333 -0.133333)"/><path fill="#538238" fill-rule="evenodd" d="M270.399 306.1C153.819 287.95 41.41 193.78 0 56.6299C3.92 38.0899 6.35934 19.16 7.06934 0C28.7093 44.84 84.5 154.16 140 211.47C210.93 284.68 270.399 306.1 270.399 306.1Z" clip-rule="evenodd" transform="translate(498.804 172.696) scale(0.133333 -0.133333)"/><path fill="#538238" fill-rule="evenodd" d="M0 0C143.53 121.37 240.75 141.68 438.25 62.04C314.35 180.48 140.05 158.88 35.0195 71.79C30.6795 62.4 26.1197 52.8002 21.4697 43.2002C17.6797 44.8602 13.7902 46.6001 9.9502 48.3501C7.8802 46.1701 5.86012 43.9502 3.87012 41.7102L15.9902 31.9602C10.6902 21.1702 5.31 10.44 0 0" clip-rule="evenodd" transform="translate(505.744 180.647) scale(0.133333 -0.133333)"/><path fill="#C1E01C" fill-rule="evenodd" d="M44.5872 5.82761C32.5572 -3.54239 15.2074 -1.38256 5.82743 10.6474C-3.54257 22.6774 -1.38226 40.0374 10.6477 49.4074C22.6877 58.7774 40.0375 56.6276 49.4075 44.5876C58.7775 32.5576 56.6272 15.2076 44.5872 5.82761Z" clip-rule="evenodd" transform="translate(496.268 197.662) scale(0.133333 -0.133333)"/><path fill="#B4CE1E" fill-rule="evenodd" d="M0 18.6074C9.76 10.3374 24.2998 9.74746 34.7998 17.9175C36.4698 19.2275 37.9493 20.6775 39.2393 22.2575C45.3093 29.6975 47.0295 39.7675 43.9395 48.7175C45.3695 47.5075 46.6994 46.1276 47.8994 44.5876C50.7694 40.8976 52.5693 36.7074 53.3193 32.3974C54.1893 27.4274 53.6794 22.3074 51.8594 17.6174C50.2294 13.4274 47.5596 9.56752 43.8896 6.48752L43.0791 5.82761C31.0491 -3.54239 13.6993 -1.38256 4.31934 10.6474C2.39934 13.1074 0.97 15.7974 0 18.6074" clip-rule="evenodd" transform="translate(496.469 197.662) scale(0.133333 -0.133333)"/><path fill="#C1E01C" fill-rule="evenodd" d="M23.6766 0.284692C8.58656 2.46469 -1.89309 16.4647 0.286909 31.5647C2.46691 46.6647 16.4662 57.1346 31.5662 54.9546C46.6562 52.7846 57.1268 38.7746 54.9568 23.6846C52.7768 8.58459 38.7766 -1.88531 23.6766 0.284692Z" clip-rule="evenodd" transform="translate(488.67 198.597) scale(0.133333 -0.133333)"/><path fill="#B4CE1E" fill-rule="evenodd" d="M3.0164 40.1933C3.8364 27.4333 13.4863 16.5432 26.6463 14.6332C28.7463 14.3332 30.8262 14.2733 32.8562 14.4433C42.4262 15.2233 50.8763 20.9632 55.1863 29.4032C55.3063 27.5232 55.2368 25.6133 54.9568 23.6833C54.2868 19.0533 52.5066 14.8534 49.9266 11.3234C46.9466 7.2534 42.8966 4.07322 38.2566 2.13322C34.1066 0.393219 29.4766 -0.346761 24.7166 0.153239L23.6766 0.283366C8.58656 2.46337 -1.89309 16.4634 0.286909 31.5634C0.726909 34.6534 1.6764 37.5533 3.0164 40.1933" clip-rule="evenodd" transform="translate(488.67 198.596) scale(0.133333 -0.133333)"/><path fill="#C1E01C" fill-rule="evenodd" d="M23.6873 0.287118C8.58728 2.46712 -1.89311 16.4671 0.286886 31.5671C2.46689 46.6571 16.4672 57.137 31.5672 54.957C46.6672 52.777 57.1368 38.777 54.9568 23.677C52.7768 8.57701 38.7773 -1.89288 23.6873 0.287118Z" clip-rule="evenodd" transform="translate(492.024 193.765) scale(0.133333 -0.133333)"/><path fill="#B4CE1E" fill-rule="evenodd" d="M3.02712 40.1933C3.83712 27.4233 13.4872 16.5332 26.6472 14.6332C28.7572 14.3332 30.827 14.2733 32.867 14.4433C42.427 15.2233 50.8773 20.9632 55.1873 29.3932C55.3073 27.5232 55.2368 25.6033 54.9568 23.6733C54.2868 19.0433 52.5075 14.8534 49.9275 11.3234C46.9475 7.2534 42.9074 4.07322 38.2674 2.13322C34.1074 0.393219 29.4876 -0.346761 24.7176 0.153239L23.6873 0.283366C8.58728 2.46337 -1.89311 16.4634 0.286886 31.5534C0.736886 34.6534 1.67712 37.5533 3.02712 40.1933Z" clip-rule="evenodd" transform="translate(492.024 193.764) scale(0.133333 -0.133333)"/><path fill="#C1E01C" fill-rule="evenodd" d="M23.6775 0.284692C8.58751 2.46469 -1.89311 16.4647 0.286888 31.5647C2.46689 46.6647 16.4672 57.1346 31.5672 54.9646C46.6672 52.7846 57.1268 38.7746 54.9568 23.6846C52.7768 8.58459 38.7775 -1.88531 23.6775 0.284692Z" clip-rule="evenodd" transform="translate(492.646 198.327) scale(0.133333 -0.133333)"/><path fill="#B4CE1E" fill-rule="evenodd" d="M3.01736 40.1933C3.83736 27.4333 13.4872 16.5432 26.6472 14.6432C28.7472 14.3332 30.8272 14.2733 32.8572 14.4433C42.4272 15.2233 50.8773 20.9632 55.1873 29.4032C55.3073 27.5232 55.2368 25.6133 54.9568 23.6833C54.2868 19.0533 52.5075 14.8534 49.9275 11.3234C46.9475 7.2534 42.8974 4.07322 38.2674 2.13322C34.1074 0.393219 29.4776 -0.346761 24.7176 0.153239L23.6775 0.283366C8.58751 2.46337 -1.89311 16.4734 0.286888 31.5634C0.726888 34.6534 1.67736 37.5533 3.01736 40.1933" clip-rule="evenodd" transform="translate(492.646 198.327) scale(0.133333 -0.133333)"/><path fill="#C1E01C" fill-rule="evenodd" d="M46.0402 7.04488C34.6802 -3.13513 17.2202 -2.16522 7.0402 9.19478C-3.1298 20.5648 -2.17062 38.0248 9.19938 48.1948C20.5594 58.3648 38.0196 57.4049 48.1896 46.0449C58.3696 34.6749 57.4002 17.2149 46.0402 7.04488Z" clip-rule="evenodd" transform="translate(501.231 200.497) scale(0.133333 -0.133333)"/><path fill="#B4CE1E" fill-rule="evenodd" d="M0 16.8309C10.31 9.26091 24.8495 9.66086 34.7695 18.5309C36.3495 19.9509 37.7304 21.5008 38.9004 23.1708C44.4504 31.0008 45.4803 41.1607 41.7803 49.8907C43.2903 48.7807 44.7098 47.4909 46.0098 46.0409C49.1298 42.5509 51.21 38.4908 52.25 34.2508C53.46 29.3508 53.2996 24.2007 51.8096 19.4007C50.4696 15.1007 48.0699 11.0808 44.6299 7.75084L43.8604 7.04088C32.5004 -3.12912 15.0404 -2.16922 4.86035 9.19078C2.78035 11.5208 1.16 14.1109 0 16.8309" clip-rule="evenodd" transform="translate(501.521 200.496) scale(0.133333 -0.133333)"/><path fill="#C1E01C" fill-rule="evenodd" d="M46.0447 7.03976C34.6747 -3.13024 17.2147 -2.17008 7.04466 9.19992C-3.13534 20.5599 -2.16495 38.0199 9.19505 48.1899C20.565 58.3699 38.015 57.3998 48.195 46.0398C58.365 34.6798 57.4047 17.2198 46.0447 7.03976" clip-rule="evenodd" transform="translate(498.799 194.617) scale(0.133333 -0.133333)"/><path fill="#B4CE1E" fill-rule="evenodd" d="M0 16.8308C10.31 9.2608 24.8507 9.66077 34.7607 18.5408C36.3407 19.9508 37.7204 21.5109 38.9004 23.1709C44.4404 31.0009 45.4705 41.1709 41.7705 49.8909C43.2805 48.7809 44.7107 47.4908 46.0107 46.0408C49.1307 42.5508 51.2 38.501 52.25 34.251C53.45 29.351 53.3005 24.2109 51.8105 19.4009C50.4705 15.1109 48.0701 11.0807 44.6201 7.76074L43.8604 7.04077C32.4904 -3.12923 15.0304 -2.16909 4.86035 9.19091C2.78035 11.5209 1.16 14.1108 0 16.8308" clip-rule="evenodd" transform="translate(499.091 194.617) scale(0.133333 -0.133333)"/><path fill="#956B34" fill-rule="evenodd" d="M59.2421 7.73999C57.0721 7.66999 -1.30762 12.35 0.0223815 12.23C1.36238 12.1 64.162 0 64.162 0L59.2421 7.73999Z" clip-rule="evenodd" transform="translate(463.834 325.439) scale(0.133333 -0.133333)"/><path fill="#956B34" fill-rule="evenodd" d="M64.8496 11.8899C63.2196 11.7699 0 17.99 0 17.99L62.3896 0L64.8496 11.8899" clip-rule="evenodd" transform="translate(465.176 315.419) scale(0.133333 -0.133333)"/><path fill="#956B34" fill-rule="evenodd" d="M54.9209 9.12988C52.2509 9.37988 0 17.8 0 17.8L48.9404 0L54.9209 9.12988Z" clip-rule="evenodd" transform="translate(467.552 306.929) scale(0.133333 -0.133333)"/><path fill="#956B34" fill-rule="evenodd" d="M49.54 7.15015L0 12.8901L48.3301 0L49.54 7.15015" clip-rule="evenodd" transform="translate(469.157 294.939) scale(0.133333 -0.133333)"/><path fill="#956B34" fill-rule="evenodd" d="M40.9502 12.04L0 17.51L43.04 0L40.9502 12.04" clip-rule="evenodd" transform="translate(471.268 286.096) scale(0.133333 -0.133333)"/><path fill="#956B34" fill-rule="evenodd" d="M37.3084 6.43994C37.3084 6.43994 -1.56133 11.18 0.0486689 11.03C1.63867 10.87 34.2791 0 34.2791 0L37.3084 6.43994Z" clip-rule="evenodd" transform="translate(473.955 276.833) scale(0.133333 -0.133333)"/><path fill="#956B34" fill-rule="evenodd" d="M41.8008 7.8501L0 12.8601L36.4902 0L41.8008 7.8501Z" clip-rule="evenodd" transform="translate(475.18 269.079) scale(0.133333 -0.133333)"/><path fill="#956B34" fill-rule="evenodd" d="M36.0303 10.3401L0 13.73L32.9004 0L36.0303 10.3401" clip-rule="evenodd" transform="translate(477.055 261.868) scale(0.133333 -0.133333)"/><path fill="#956B34" fill-rule="evenodd" d="M30.54 8.82983L0 13.3198L29.9805 0L30.54 8.82983" clip-rule="evenodd" transform="translate(479.668 253.12) scale(0.133333 -0.133333)"/><path fill="#956B34" fill-rule="evenodd" d="M32.7295 10.1299L0 11.3301L28.8203 0L32.7295 10.1299Z" clip-rule="evenodd" transform="translate(480.955 247.196) scale(0.133333 -0.133333)"/><path fill="#956B34" fill-rule="evenodd" d="M31.5961 8.70996L29.6966 0C29.6966 0 -1.63324 11.83 0.0667627 11.27C1.75676 10.7 31.5961 8.70996 31.5961 8.70996" clip-rule="evenodd" transform="translate(482.266 240.401) scale(0.133333 -0.133333)"/><path fill="#956B34" fill-rule="evenodd" d="M30.6699 9.45996L28.1699 0L0 9.65015L30.6699 9.45996Z" clip-rule="evenodd" transform="translate(484.065 235.077) scale(0.133333 -0.133333)"/><path fill="#956B34" fill-rule="evenodd" d="M29.0205 8.36987L26.3506 0L0 7.59985L29.0205 8.36987Z" clip-rule="evenodd" transform="translate(485.823 227.951) scale(0.133333 -0.133333)"/><path fill="#956B34" fill-rule="evenodd" d="M23.71 11.8101L20.4404 0L0 11.6101L23.71 11.8101" clip-rule="evenodd" transform="translate(488.7 220.608) scale(0.133333 -0.133333)"/><path fill="#956B34" fill-rule="evenodd" d="M24.6807 11.4099L22.7998 0L0 12.3799L24.6807 11.4099" clip-rule="evenodd" transform="translate(490.573 213.384) scale(0.133333 -0.133333)"/><path fill="#72C62C" fill-rule="evenodd" d="M420.132 205.958C430.842 199.908 434.622 186.328 428.582 175.618L428.273 175.088C431.903 171.528 433.773 166.598 433.533 161.628C442.073 163.748 451.413 162.738 459.683 158.068C472.793 150.668 479.423 136.228 477.523 122.168C486.423 111.118 488.203 95.3176 480.813 82.2176L479.853 80.6176C484.863 79.9576 489.823 78.3576 494.493 75.7276C513.953 64.7376 520.833 40.0576 509.853 20.5876C498.863 1.12759 474.172 -5.7524 454.712 5.2276C448.122 8.9476 442.972 14.2376 439.472 20.3676C425.482 14.2976 408.913 14.6276 394.603 22.7076C385.213 28.0076 378.163 35.8776 373.863 44.9276C355.953 36.9676 334.632 37.2877 316.252 47.6577C306.282 53.2877 298.402 61.1876 292.882 70.3376C277.482 65.0876 260.002 66.1677 244.712 74.7977C237.572 78.8277 231.593 84.1176 226.893 90.2376C222.243 88.7676 217.372 88.0276 212.462 88.0776L211.222 85.7576C194.752 56.5776 157.753 46.2676 128.573 62.7376C118.883 68.2076 111.273 75.9477 106.033 84.9077C95.3926 83.8477 84.3329 85.9376 74.3129 91.5876C68.8429 94.6776 64.1223 98.5876 60.2123 103.068C48.5223 99.8576 35.6121 101.088 24.2221 107.518C1.32205 120.438 -6.76728 149.478 6.15272 172.378C16.4927 190.698 37.1421 199.538 56.7221 195.728C55.6421 202.028 56.6428 208.728 60.0228 214.728C67.8428 228.578 85.4021 233.468 99.2621 225.658C103.762 223.108 107.322 219.538 109.802 215.388C121.452 234.698 146.423 241.358 166.203 230.208C178.243 223.418 185.622 211.548 187.172 198.808C194.102 207.488 206.503 210.108 216.483 204.468L217.443 203.908C218.053 205.448 218.773 206.958 219.613 208.448C229.723 226.358 252.433 232.688 270.353 222.578C274.553 220.208 278.113 217.138 280.983 213.608C281.513 214.858 282.123 216.098 282.813 217.308C293.023 235.408 315.973 241.798 334.073 231.588C346.423 224.618 353.312 211.718 353.212 198.478C362.032 206.458 375.313 208.318 386.243 202.148C387.863 201.238 389.352 200.188 390.722 199.018C397.152 208.558 409.942 211.708 420.132 205.958" clip-rule="evenodd" transform="translate(430.25 351.665) scale(0.133333 -0.133333)"/><path fill="#66AE30" fill-rule="evenodd" d="M420.133 205.954C430.843 199.904 434.623 186.325 428.583 175.615L428.273 175.084C431.903 171.534 433.772 166.595 433.532 161.625C442.072 163.745 451.413 162.734 459.683 158.064C472.793 150.664 479.423 136.224 477.523 122.164C486.423 111.114 488.203 95.3245 480.813 82.2145L479.853 80.6145C484.863 79.9645 489.822 78.3545 494.492 75.7245C513.952 64.7445 520.833 40.0545 509.853 20.5845C498.863 1.12448 474.173 -5.7555 454.713 5.2345C448.123 8.9445 442.973 14.2345 439.473 20.3645C425.483 14.2945 408.913 14.6245 394.603 22.7045C385.213 28.0045 378.162 35.8744 373.862 44.9244C355.952 36.9644 334.633 37.2844 316.253 47.6544C306.283 53.2844 298.393 61.1845 292.883 70.3345C277.483 65.0845 260.003 66.1644 244.713 74.7944C237.573 78.8244 231.593 84.1245 226.893 90.2345C222.243 88.7645 217.373 88.0245 212.463 88.0745L211.223 85.7545C194.753 56.5745 157.752 46.2645 128.572 62.7345C118.882 68.2045 111.272 75.9444 106.032 84.9044C95.3924 83.8444 84.3326 85.9345 74.3126 91.5845C68.8426 94.6745 64.123 98.5845 60.213 103.064C48.523 99.8545 35.6128 101.085 24.2228 107.515C1.32279 120.435 -6.76752 149.475 6.15248 172.375C16.4925 190.705 37.1428 199.534 56.7228 195.724C55.6428 202.024 56.6426 208.724 60.0226 214.724C67.8426 228.574 85.4028 233.464 99.2628 225.654C103.763 223.114 107.323 219.535 109.803 215.385C121.453 234.695 146.432 241.364 166.202 230.204C178.242 223.414 185.623 211.544 187.173 198.804C194.103 207.484 206.503 210.104 216.483 204.474L217.443 203.904C218.053 205.444 218.772 206.954 219.612 208.444C229.722 226.354 252.433 232.684 270.353 222.574C274.553 220.204 278.113 217.144 280.983 213.604C281.513 214.854 282.123 216.094 282.813 217.304C293.023 235.404 315.972 241.794 334.072 231.584C346.422 224.614 353.313 211.714 353.213 198.474C362.033 206.454 375.312 208.315 386.242 202.145C387.862 201.235 389.353 200.185 390.723 199.015C397.153 208.555 409.943 211.704 420.133 205.954" clip-rule="evenodd" transform="translate(453.186 363.645) scale(0.133333 -0.133333)"/><path fill="#72C62C" fill-rule="evenodd" d="M367.639 246.776C379.869 245.436 388.689 234.436 387.349 222.206L387.279 221.606C392.009 219.756 395.669 215.966 397.409 211.296C404.429 216.606 413.409 219.346 422.849 218.316C437.809 216.676 449.599 206.006 453.379 192.336C465.909 185.676 473.759 171.856 472.119 156.896L471.879 155.056C476.729 156.416 481.929 156.906 487.249 156.316C509.469 153.876 525.509 133.896 523.069 111.676C520.629 89.4562 500.639 73.4163 478.429 75.8563C470.909 76.6863 464.089 79.5163 458.469 83.7763C447.989 72.6863 432.629 66.4763 416.299 68.2663C405.569 69.4463 395.999 73.8962 388.479 80.5362C375.149 66.1662 355.429 58.0663 334.449 60.3663C323.069 61.6163 312.709 65.7763 304.029 72.0163C291.949 61.1363 275.449 55.2462 257.999 57.1662C249.849 58.0562 242.269 60.5663 235.539 64.3463C231.839 61.1663 227.659 58.5662 223.119 56.6762L222.899 54.0562C219.249 20.7562 189.279 -3.28369 155.979 0.366307C144.909 1.58631 134.869 5.69632 126.529 11.8763C117.169 6.71632 106.179 4.28623 94.7388 5.53623C88.4888 6.22623 82.6193 7.96623 77.2593 10.5362C67.7793 2.98623 55.4285 -0.963718 42.4185 0.466282C16.2785 3.33628 -2.5814 26.8463 0.288599 52.9863C2.5786 73.8963 18.0886 90.1463 37.5786 94.3463C34.1086 99.7163 32.3892 106.266 33.1392 113.116C34.8792 128.926 49.0987 140.336 64.9087 138.606C70.0587 138.036 74.7389 136.146 78.6489 133.316C81.7589 155.656 102.089 171.606 124.659 169.126C138.399 167.626 149.849 159.626 156.299 148.526C159.249 159.226 169.619 166.516 181.009 165.266L182.119 165.116C182.069 166.776 182.139 168.446 182.329 170.146C184.569 190.596 202.959 205.346 223.409 203.106C228.209 202.576 232.689 201.166 236.709 199.046C236.709 200.406 236.779 201.786 236.939 203.166C239.199 223.826 257.779 238.736 278.439 236.466C292.539 234.926 303.949 225.776 309.069 213.556C314.039 224.376 325.509 231.306 337.979 229.936C339.839 229.736 341.629 229.356 343.339 228.826C345.489 240.126 356.009 248.046 367.639 246.776" clip-rule="evenodd" transform="translate(295.424 352.679) scale(0.133333 -0.133333)"/><path fill="#66AE30" fill-rule="evenodd" d="M367.639 246.776C379.869 245.436 388.689 234.436 387.349 222.206L387.278 221.606C392.008 219.766 395.669 215.966 397.409 211.296C404.429 216.606 413.409 219.346 422.849 218.316C437.809 216.676 449.599 206.006 453.379 192.336C465.909 185.676 473.759 171.856 472.129 156.896L471.879 155.056C476.729 156.426 481.929 156.906 487.249 156.316C509.469 153.886 525.508 133.896 523.068 111.676C520.628 89.4562 500.639 73.4163 478.429 75.8563C470.909 76.6863 464.089 79.5163 458.469 83.7763C447.989 72.6863 432.629 66.4763 416.299 68.2663C405.569 69.4463 395.999 73.8964 388.479 80.5364C375.149 66.1664 355.429 58.0663 334.449 60.3663C323.069 61.6163 312.708 65.7763 304.028 72.0163C291.948 61.1363 275.439 55.2464 257.999 57.1664C249.849 58.0564 242.259 60.5663 235.539 64.3463C231.839 61.1663 227.659 58.5662 223.119 56.6762L222.898 54.0562C219.238 20.7562 189.279 -3.28369 155.979 0.366307C144.909 1.58631 134.868 5.70633 126.528 11.8863C117.168 6.71633 106.179 4.28635 94.7388 5.53635C88.4888 6.22635 82.6188 7.96635 77.2588 10.5364C67.7788 2.99635 55.429 -0.963718 42.419 0.466282C16.279 3.33628 -2.58141 26.8463 0.288592 52.9863C2.57859 73.8963 18.0886 90.1563 37.5786 94.3463C34.1086 99.7163 32.3889 106.266 33.1489 113.116C34.8789 128.926 49.0987 140.336 64.9087 138.606C70.0587 138.036 74.7289 136.146 78.6489 133.316C81.7589 155.656 102.089 171.606 124.659 169.136C138.399 167.626 149.849 159.626 156.299 148.526C159.249 159.226 169.619 166.516 181.009 165.266L182.119 165.116C182.069 166.776 182.139 168.456 182.329 170.146C184.569 190.596 202.959 205.356 223.409 203.106C228.199 202.586 232.689 201.166 236.709 199.046C236.709 200.406 236.778 201.786 236.938 203.166C239.198 223.826 257.779 238.736 278.439 236.476C292.539 234.926 303.949 225.776 309.059 213.566C314.039 224.376 325.508 231.306 337.988 229.936C339.838 229.736 341.629 229.356 343.339 228.826C345.489 240.126 356.009 248.046 367.639 246.776" clip-rule="evenodd" transform="translate(275.048 367.381) scale(0.133333 -0.133333)"/><path fill="#F9B372" fill-rule="evenodd" d="M1389.02 701.74C2093.28 701.74 2676.22 439.26 2776.92 97.11C2777.62 95.93 2778.02 94.7499 2778.02 93.5699C2778.02 41.8899 2156.16 0 1389.02 0C621.88 0 0 41.8899 0 93.5699C0 94.7499 0.42959 95.93 1.07959 97.11C101.81 439.26 684.76 701.74 1389.02 701.74Z" clip-rule="evenodd" transform="translate(220.535 427.693) scale(0.133333 -0.133333)"/><path fill="#EFA262" fill-rule="evenodd" d="M2462.52 449C2138.66 278.32 1601.05 166.68 992.62 166.68C662.24 166.68 352.74 199.6 87 257.02C46.63 206.35 17.4696 152.78 1.07959 97.11C0.42959 95.93 0 94.7499 0 93.5699C0 41.8899 621.88 0 1389.02 0C2156.16 0 2778.02 41.8899 2778.02 93.5699C2778.02 94.7499 2777.62 95.93 2776.92 97.11C2737.82 229.99 2626.02 350.86 2462.52 449Z" clip-rule="evenodd" transform="translate(220.535 427.693) scale(0.133333 -0.133333)"/></svg>