<svg width="89" height="80" viewBox="0 0 78 70" xmlns="http://www.w3.org/2000/svg"><title>Object managment</title><path d="M28.97 24.818h.638v8.034c0 1.034.796 1.83 1.83 1.83h3.582c.956 0 1.75-.796 1.75-1.75v-4.455c0-.08.08-.08.08-.08h3.264c.08 0 .16.08.16.24v4.295c0 1.034.795 1.83 1.83 1.83h3.582c.955 0 1.75-.796 1.75-1.75v-8.194h.637c.637 0 1.274-.398 1.513-1.034.238-.636.08-1.273-.478-1.75l-8.914-7.716c-.876-.716-2.07-.716-2.945 0l-9.313 7.796c-.478.397-.717 1.113-.478 1.75.318.556.875.954 1.51.954zm9.314-9.307c.238-.237.636-.237.875 0l8.913 7.717h-.636c-.876 0-1.592.716-1.592 1.59v8.115c0 .08-.08.16-.16.16h-3.5c-.16 0-.24-.08-.24-.24v-4.295c0-.955-.796-1.75-1.75-1.75H36.93c-.954 0-1.67.795-1.67 1.67v4.455c0 .08-.08.16-.16.16h-3.502c-.16 0-.24-.08-.24-.24V24.74c0-.797-.636-1.513-1.51-1.513h-.717l9.154-7.716zm38.522 15.035L60.73 2.865c-.48-.797-1.195-1.433-1.99-1.83-1.275-.558-2.39-.24-3.105.954 0 .078-.796 1.51-1.115 3.42-.398 2.385.08 4.533 1.353 6.204-.477.16-.875.477-1.273.875-.318.317-2.627 2.703-.16 8.43 1.752 4.057 3.662 8.035 4.617 10.103.16.397.16.795-.16 1.113-4.615 5.17-8.993 5.966-9.073 5.966-10.904 2.068-8.197 18.614-8.118 18.773.08.398.398.636.796.636h.16c.397-.078.716-.476.636-.953 0-.16-2.547-15.114 6.845-16.943.24 0 4.935-.796 9.95-6.444.158-.238.317-.397.397-.636 2.467-.16 4.218.24 4.934 1.273 1.035 1.51 0 3.898 0 3.977l-.08.16c-.556 2.386-5.41 5.886-7.162 7.08-.398.237-.478.715-.24 1.112.16.24.4.398.638.398.16 0 .318-.08.398-.16.716-.476 6.924-4.613 7.8-7.954.238-.477 1.273-3.34-.24-5.488-1.034-1.512-3.103-2.148-6.128-1.99-.08-.158-.08-.397-.16-.556-.954-1.988-2.864-5.966-4.615-10.022-2.07-4.853-.32-6.523-.24-6.603l.08-.078c1.194-1.273 2.388-.398 2.786-.08.877 1.59 9.552 17.103 11.86 20.205 2.15 2.863 1.83 8.91 1.83 8.988 0 .24.08.398.16.557l-10.347 17.58c-.16.238-.24.477-.398.716-3.024 5.886-11.302 6.363-11.38 6.363H27.777c-.08 0-8.358-.476-11.382-6.362-.16-.24-.24-.478-.398-.716L5.65 43.352c.16-.16.16-.318.16-.557 0-.08-.318-6.125 1.83-8.988 2.31-3.102 10.984-18.614 11.86-20.205.398-.318 1.512-1.193 2.786.08l.08.08c.08.08 1.83 1.75-.24 6.602-1.75 3.977-3.66 7.954-4.616 10.022-.08.16-.16.398-.16.557-2.944-.16-5.013.477-6.128 1.99-1.512 2.067-.398 4.93-.238 5.487.875 3.34 7.083 7.478 7.8 7.955.16.08.318.16.398.16.238 0 .477-.16.636-.4.24-.396.16-.874-.238-1.112-1.83-1.193-6.607-4.693-7.164-7.08l-.08-.16s-1.034-2.465 0-3.976c.717-1.034 2.468-1.512 4.935-1.273.08.24.24.477.4.636 5.014 5.648 9.79 6.444 9.948 6.444 9.392 1.83 6.845 16.784 6.845 16.943-.08.398.24.875.637.954h.16c.397 0 .716-.237.795-.635 0-.16 2.786-16.625-8.118-18.773-.08 0-4.457-.795-9.074-5.966-.24-.318-.318-.716-.16-1.113.956-2.068 2.946-6.046 4.617-10.103 2.468-5.727.16-8.113-.16-8.43-.397-.4-.795-.717-1.272-.876 1.273-1.75 1.75-3.82 1.353-6.205-.318-1.91-1.113-3.342-1.113-3.42-.717-1.195-1.83-1.513-3.105-.956-.795.318-1.512.955-1.99 1.83L1.195 30.544c-2.627 3.9-.08 8.195 0 8.354l13.45 22.83c.16.238.24.397.32.636 1.432 2.784 4.138 4.93 7.72 6.204 2.706.955 4.934 1.034 5.014 1.034h22.605c.08 0 2.308-.08 5.014-1.034 3.582-1.273 6.288-3.34 7.72-6.204.08-.24.24-.398.32-.637l13.45-22.83c.08-.158 2.547-4.454 0-8.352zm-74.26 7.557c-.08-.16-2.068-3.58 0-6.682v-.08l16-27.68c.317-.558.715-.955 1.193-1.115.636-.238.874-.08 1.113.32.08.158 2.627 4.85-.477 8.35-.08.08-.16.16-.16.32-.16 0-.318.08-.398.08-.875.317-1.512.874-1.512.953l-.08.08-.08.08c-.08.158-9.47 17.022-11.78 20.124C4.697 35.08 4.3 38.74 4.22 40.966l-1.67-2.864zm72.907 0l-1.67 2.864c-.08-2.227-.48-5.807-2.15-8.114-2.31-3.102-11.7-19.966-11.86-20.125l-.08-.08v-.08c-.08-.078-.636-.635-1.51-.953-.16-.08-.32-.08-.4-.08 0-.08-.08-.24-.16-.318-3.103-3.5-.635-8.193-.476-8.352.24-.398.477-.557 1.114-.32.48.24.956.638 1.195 1.115l16.078 27.68v.08c1.99 3.103 0 6.523-.08 6.682z" fill-rule="nonzero" fill="#5FB3BD"/></svg>