<svg xmlns="http://www.w3.org/2000/svg" xmlns:xlink="http://www.w3.org/1999/xlink" id="Layer_1" width="80" height="80" x="0" y="0" fill="#0097A7" enable-background="new 0 0 512 512" version="1.1" viewBox="0 0 512 512" xml:space="preserve"><g><g><g><path d="M506.054,313.027c-15.36-20.48-30.72-20.48-68.267-0.853L364.4,357.4c-10.24,5.973-33.28,7.68-54.613,7.68 c4.267-7.68,2.56-17.067-5.12-28.16c-13.653-19.627-36.693-31.573-61.44-31.573h-33.28c-17.92,0-34.987-5.12-48.64-15.36 c-30.791-23.093-78.94,2.035-102.4,17.023v-17.876H-0.826V511h59.733v-25.6H169.84c17.067,0,34.987-1.707,52.053-2.56 l110.933-17.067c4.267,0,8.533-0.853,11.947-1.707c10.24-1.707,19.627-6.827,28.16-14.507l128.853-102.4 C512.027,338.627,513.734,323.267,506.054,313.027z M41.84,493.933h-25.6V306.2h25.6V319v166.4V493.933z M491.547,335.213 L361.84,435.907l-0.853,0.853c-5.12,5.973-11.947,9.387-19.627,10.24c-3.413,0.853-5.973,0.853-9.387,0.853l-112.64,17.067 c-16.213,2.56-33.28,3.413-49.493,3.413H58.907v-140.8c20.48-14.507,68.267-41.813,92.16-23.04 c16.213,11.947,36.693,18.773,58.88,18.773h33.28c19.627,0,37.547,8.533,48.64,24.747c3.413,5.12,4.267,10.24,3.413,11.947 c-2.56,4.267-12.8,5.973-23.893,6.827c-2.373,0-4.74,0-6.827,0c-0.914,0-1.78,0-2.56,0h-80.213 c-26.453,0-42.667,12.8-42.667,34.133c0,5.12,3.413,8.533,8.533,8.533c5.12,0,8.533-3.413,8.533-8.533 c0-4.267,0-17.067,25.6-17.067h79.36v0c2.56,0,5.973,0,11.093,0c0.853,0,2.56,0,4.267,0c40.107,0.853,77.653,0,97.28-10.24 l73.387-45.227c35.84-17.92,39.253-13.653,46.08-3.413C494.96,327.533,494.96,332.653,491.547,335.213z" transform="translate(1 1)"/><path d="M317.467,243.907c1.707,1.707,3.413,2.56,5.973,2.56s4.267-0.853,5.973-2.56l25.6-25.6c3.413-3.413,3.413-8.533,0-11.947 s-8.533-3.413-11.947,0l-25.6,25.6C314.054,235.373,314.054,240.493,317.467,243.907z" transform="translate(1 1)"/><path d="M291.867,206.36c-3.413,3.413-3.413,8.533,0,11.947c1.707,1.707,3.413,2.56,5.973,2.56s4.267-0.853,5.973-2.56l25.6-25.6 c3.413-3.413,3.413-8.533,0-11.947c-3.413-3.413-8.533-3.413-11.947,0L291.867,206.36z" transform="translate(1 1)"/><path d="M178.374,126.304v137.23c0,2.56,0.853,4.267,2.56,5.973l26.453,25.6c1.707,1.707,3.413,2.56,5.973,2.56 c1.707,0,4.267-0.853,5.973-2.56l24.747-25.6c1.707-1.707,2.56-3.413,2.56-5.973V255c0-2.56-0.853-4.267-2.56-5.973 l-11.093-11.093l11.093-11.093c1.707-1.707,2.56-3.413,2.56-5.973v0l62.293,62.293c5.12,4.267,11.093,6.827,17.067,6.827 c5.12,0,10.24-1.707,14.507-5.973l70.827-70.827c4.267-4.267,5.973-10.24,5.973-16.213s-2.56-11.093-6.827-15.36l-76.597-76.597 c4.412-9.188,6.624-18.926,6.624-29.217c0-37.547-30.72-68.267-68.267-68.267c-7.049,0-14.098,1.184-21.147,3.513 C240.097,3.461,226.8-1,212.507-1C174.96-1,144.24,29.72,144.24,67.267C144.24,92.398,158.013,114.454,178.374,126.304z M229.574,217.453l-14.507,14.507c-3.413,3.413-3.413,8.533,0,11.947l14.507,14.507v1.707l-17.067,17.067L195.44,260.12V133.827 c4.267,0.853,8.533,1.707,12.8,1.707l6.827,40.96c0.853,9.387,5.973,18.773,12.8,25.6l1.707,1.707V217.453z M400.24,197.827 c0,0.853,0,1.707-0.853,2.56l-70.827,70.827c-1.707,1.707-5.12,1.707-7.68-0.853l-81.067-81.067 c-4.267-4.267-7.68-10.24-8.533-16.213l-4.693-32l-2.133-14.934c0-0.018-0.003-0.035-0.003-0.053 c0.002-0.266,0.003-0.533,0.003-0.8l-0.162-1.028c12.352,12.222,29.306,19.801,47.949,19.801c5.12,0,8.533-3.413,8.533-8.533 S277.36,127,272.24,127c-20.432,0-38.159-12.134-46.356-29.548c1.295-1.126,2.931-2.038,4.737-2.575 c1.037-0.203,2.125-0.304,3.219-0.304c0.696,0,1.4,0,2.56,0c0,0,0,0,0,0l29.867,4.267c0.33,0.066,0.653,0.105,0.972,0.131 l34.015,4.989c5.973,0.853,11.947,4.267,16.213,8.533l81.067,81.067C399.387,194.413,400.24,196.12,400.24,197.827z M272.24,24.6 c28.16,0,51.2,23.04,51.2,51.2c0,5.973-0.853,11.947-2.56,17.067c-5.12-2.56-11.093-5.12-17.067-5.973l-24.747-3.413 c0.206-1.236,0.412-2.473,0.606-3.722c0.573-3.207,0.922-6.478,1.04-9.849c0.036-0.865,0.061-1.741,0.061-2.642 c0-1.085-0.032-2.169-0.083-3.252c-0.014-0.29-0.036-0.578-0.054-0.868c-0.05-0.843-0.113-1.684-0.194-2.524 c-0.021-0.215-0.044-0.43-0.067-0.645c-1.348-12.853-6.211-25.325-14.11-35.378C267.974,24.6,270.534,24.6,272.24,24.6z M212.507,16.067c11.393,0,21.946,3.774,30.477,10.13c0.328,0.355,0.683,0.687,1.097,0.964 c7.952,6.362,13.594,14.371,16.731,23.208c0.058,0.164,0.112,0.329,0.168,0.493c0.223,0.65,0.432,1.305,0.628,1.964 c0.087,0.294,0.171,0.59,0.253,0.886c0.151,0.546,0.292,1.094,0.425,1.645c0.086,0.356,0.171,0.712,0.249,1.07 c0.112,0.512,0.211,1.027,0.307,1.543c0.07,0.38,0.143,0.759,0.205,1.142c0.085,0.523,0.153,1.049,0.222,1.576 c0.048,0.372,0.103,0.742,0.143,1.116c0.063,0.588,0.106,1.18,0.149,1.771c0.023,0.315,0.055,0.628,0.072,0.945 c0.049,0.912,0.076,1.828,0.076,2.747c0,0.812-0.027,1.624-0.071,2.434c-0.005,0.103-0.012,0.205-0.018,0.307 c-0.045,0.738-0.104,1.474-0.178,2.208c-0.009,0.085-0.016,0.173-0.025,0.258c-0.035,0.335-0.081,0.666-0.121,0.999 c-0.328,2.585-0.808,5.019-1.294,7.447l-23.04-3.413c-6.139-0.558-12.274,0.356-17.697,2.956 c-0.141-1.537-0.223-3.091-0.223-4.663c0-7.68,1.707-15.36,5.12-22.187c1.707-4.267,0-9.387-4.267-11.093 c-4.267-1.707-9.387,0-11.093,4.267c-4.267,8.533-6.827,18.773-6.827,29.013c0,6.732,1.003,13.238,2.84,19.394 c-2.207,5.08-2.994,10.909-1.987,16.446l0.853,5.973c-0.65-0.067-1.295-0.156-1.938-0.25c-4.277-0.848-8.425-2.175-12.569-4.017 c-0.451-0.15-0.935-0.263-1.43-0.356c-16.727-8.232-28.436-25.956-28.436-45.724C161.307,39.107,184.347,16.067,212.507,16.067z" transform="translate(1 1)"/></g></g></g></svg>