<svg xmlns="http://www.w3.org/2000/svg" id="Слой_1" width="73" height="80" viewBox="0 0 74 81"><style>.st0{fill:none;stroke:#3da3af}.st1{fill:#3da3af}.st2{fill:none;stroke:#3da3af;stroke-width:2}</style><title>Setting and eviction</title><g id="pages"><g id="home-8"><g id="Group-8"><g id="въезд"><path id="Rectangle-10" d="M.5 55.5C.5 51.3 3.9 48 8 48h11.2c4.1 0 7.5 3.4 7.5 7.5V77c0 1.9-1.6 3.5-3.5 3.5H4C2.1 80.5.5 78.9.5 77V55.5z" class="st0"/><path id="Path-7" d="M4.2 75.3v-5.2c0-3 2.4-5.4 5.4-5.4h8.3c3 0 5.4 2.4 5.4 5.4v5.4l-19.1-.2z" class="st0"/><path id="Path-8" d="M9.8 47v-5.1" class="st0"/><path id="Path-8-Copy" d="M17.3 47v-5.1" class="st0"/><path id="Rectangle-11" d="M8.7 40h9.4c.7 0 1.2.5 1.2 1.2s-.5 1.2-1.2 1.2H8.7c-.7 0-1.2-.5-1.2-1.2 0-.6.5-1.2 1.2-1.2z" class="st1"/><path id="Rectangle-13" d="M31.4 7h36.5v15.8H31.4z" class="st0"/><path id="Rectangle-13-Copy" d="M31.4 28.4h36.5V46H31.4z" class="st0"/><path id="Rectangle-13-Copy-2" d="M31.4 51.7h36.5v17.6H31.4z" class="st0"/><path d="M73.5 76.3h-44v-1h43v-74H27V49l-1-1V.3h47.5z" class="st1"/><path id="Path-10" d="M69.9 38.2h-7.1" class="st2"/></g></g></g></g></svg>