<svg xmlns="http://www.w3.org/2000/svg" viewBox="0 0 59 59"><path d="M18.613 42.552l-7.907 4.313a7.106 7.106 0 0 0-1.269.903A26.377 26.377 0 0 0 26.5 54c6.454 0 12.367-2.31 16.964-6.144a7.015 7.015 0 0 0-1.394-.934l-8.467-4.233a3.229 3.229 0 0 1-1.785-2.888v-3.322c.238-.271.51-.619.801-1.03a19.482 19.482 0 0 0 2.632-5.304c1.086-.335 1.886-1.338 1.886-2.53v-3.546c0-.78-.347-1.477-.886-1.965v-5.126s1.053-7.977-9.75-7.977-9.75 7.977-9.75 7.977v5.126a2.644 2.644 0 0 0-.886 1.965v3.546c0 .934.491 1.756 1.226 2.231.886 3.857 3.206 6.633 3.206 6.633v3.24a3.232 3.232 0 0 1-1.684 2.833z" fill="#ecf0f1"/><path d="M26.953 1.004C12.32.754.254 12.413.004 27.047-.138 35.343 3.56 42.8 9.448 47.76a7.041 7.041 0 0 1 1.257-.894l7.907-4.313a3.23 3.23 0 0 0 1.683-2.835v-3.24s-2.321-2.776-3.206-6.633a2.66 2.66 0 0 1-1.226-2.231v-3.546c0-.78.347-1.477.886-1.965v-5.126S15.696 9 26.499 9s9.75 7.977 9.75 7.977v5.126c.54.488.886 1.185.886 1.965v3.546c0 1.192-.8 2.195-1.886 2.53a19.482 19.482 0 0 1-2.632 5.304c-.291.411-.563.759-.801 1.03V39.8c0 1.223.691 2.342 1.785 2.888l8.467 4.233a7.05 7.05 0 0 1 1.39.932c5.71-4.762 9.399-11.882 9.536-19.9.252-14.633-11.407-26.699-26.041-26.949z" fill="#333"/><circle cx="47" cy="46" r="12" fill="#0097a7"/><path d="M53.571 40.179a.999.999 0 0 0-1.392.25l-5.596 8.04-3.949-3.242a.999.999 0 1 0-1.268 1.546l4.786 3.929a1.003 1.003 0 0 0 1.455-.201l6.214-8.929a1.002 1.002 0 0 0-.25-1.393z" fill="#fff"/></svg>