<svg xmlns="http://www.w3.org/2000/svg" viewBox="0 0 456.25 492.538" height="48" width="48"><g fill="#7d3899"><path d="M404.744 48.002C392.79 36.742 344.474.837 236.86.35c0 0-126.89-7.841-188.752 50.261C13.678 85.87 1.562 137.442.279 201.426-.987 265.41-2.652 385.27 110.222 417.785l.103.029-.059 49.598s-.707 20.09 12.19 24.173c15.624 4.966 24.791-10.302 39.707-26.753 8.195-9.02 19.485-22.286 28.005-32.426 77.205 6.619 136.575-8.563 143.312-10.803 15.594-5.188 103.795-16.744 118.136-136.605 14.799-123.59-7.178-201.738-46.871-236.995m13.338 228.062c-12.13 100.096-83.646 106.419-96.822 110.751-5.616 1.843-57.779 15.124-123.34 10.731l-71.073 78.768-.073-90.766-.56-.146C30.73 358.253 33.944 256.46 35.02 203.03c1.077-53.43 10.878-97.206 40.018-126.64 52.31-48.522 160.1-41.27 160.1-41.27 91.03.413 134.658 28.461 144.77 37.865 33.576 29.45 50.688 99.889 38.175 203.079"/><path d="M335.897 290.996c-.045-.043-14.473-12.351-21.52-17.657-6.647-4.996-17.245-11.718-23.17-15.138-10.627-6.057-21.49-2.255-25.97 3.7l-9.316 11.984c-4.775 6.072-12.13 5.055-14.061 4.657-13.766-3.45-28.403-12.057-43.379-26.56-15.151-14.636-24.32-29.92-27.591-45.81l-.236-1.047c-.885-6.53.206-9.551 2.873-14.001l.502-.414c6.293-5.851 17.953-12.97 19.515-19.751 4.583-11.776-15.314-36.331-18.159-40.665 0 0-14.474-19.161-19.617-22.818-5.558-4.627-14.166-7.266-22.847-1.93l-.442.324c-24.939 16.876-33.975 26.575-31.513 41.05l1.282 5.821c12.646 39.87 37.07 82.379 73.49 120.23 36.023 37.379 74.994 59.768 113.406 75.274 9.978 3.316 20.325.456 30.937-8.607l.178-.134c8.136-7.605 14.577-15.742 19.382-24.453l.044-.176c4.672-9.213 3.096-17.939-3.788-23.879m-59.794-87.307c-1.52 0-2.787-1.223-2.86-2.785-.502-10.333-3.287-18.248-8.284-23.539-4.966-5.247-12.41-8.18-22.109-8.711-1.577-.089-2.8-1.474-2.711-3.095.087-1.621 1.429-2.859 3.021-2.785 11.201.619 19.913 4.156 25.926 10.509 5.984 6.337 9.315 15.52 9.89 27.326.074 1.621-1.15 2.992-2.726 3.08h-.147"/><path d="M304.52 213.442h-.074c-1.577-.045-2.83-1.386-2.8-3.007.441-19.839-5.351-36.612-17.231-49.877-5.91-6.62-13.089-11.85-21.358-15.55-8.282-3.7-17.937-5.984-28.667-6.796-1.578-.118-2.771-1.532-2.654-3.138.119-1.621 1.489-2.845 3.066-2.728 22.905 1.725 41.02 9.875 53.858 24.247 12.897 14.4 19.206 32.573 18.734 53.976-.044 1.605-1.327 2.874-2.874 2.874"/><path d="M333.619 225.093c-1.578 0-2.859-1.297-2.874-2.92-.133-17.538-2.771-33.4-7.871-47.164-5.071-13.664-12.72-25.676-22.743-35.699-10.037-10.009-21.446-17.644-33.916-22.7-12.499-5.07-26.427-7.692-41.402-7.796-1.578-.015-2.86-1.341-2.845-2.963.015-1.621 1.297-2.918 2.875-2.918h.013c31.44.236 58.103 11.055 79.284 32.176 10.626 10.612 18.734 23.332 24.099 37.821 5.335 14.4 8.107 30.968 8.254 49.2.015 1.621-1.268 2.948-2.844 2.963h-.03"/></g></svg>