<svg xmlns="http://www.w3.org/2000/svg" width="80" height="80" viewBox="0 0 58 58"><path fill="#bdaa91" d="M48 18.5l-19-11-19 11z"/><path d="M55 25.5v-3h-8v3a1 1 0 0 0 1 1 1 1 0 0 1 1 1v16a1 1 0 0 1-1 1 1 1 0 0 0-1 1v3h8v-3a1 1 0 0 0-1-1 1 1 0 0 1-1-1v-16a1 1 0 0 1 1-1 1 1 0 0 0 1-1m-11 0v-3h-8v3a1 1 0 0 0 1 1 1 1 0 0 1 1 1v16a1 1 0 0 1-1 1 1 1 0 0 0-1 1v3h8v-3a1 1 0 0 0-1-1 1 1 0 0 1-1-1v-16a1 1 0 0 1 1-1 1 1 0 0 0 1-1m-11 0v-3h-8v3a1 1 0 0 0 1 1 1 1 0 0 1 1 1v16a1 1 0 0 1-1 1 1 1 0 0 0-1 1v3h8v-3a1 1 0 0 0-1-1 1 1 0 0 1-1-1v-16a1 1 0 0 1 1-1 1 1 0 0 0 1-1m-11 0v-3h-8v3a1 1 0 0 0 1 1 1 1 0 0 1 1 1v16a1 1 0 0 1-1 1 1 1 0 0 0-1 1v3h8v-3a1 1 0 0 0-1-1 1 1 0 0 1-1-1v-16a1 1 0 0 1 1-1 1 1 0 0 0 1-1m-11 0v-3H3v3a1 1 0 0 0 1 1 1 1 0 0 1 1 1v16a1 1 0 0 1-1 1 1 1 0 0 0-1 1v3h8v-3a1 1 0 0 0-1-1 1 1 0 0 1-1-1v-16a1 1 0 0 1 1-1 1 1 0 0 0 1-1m-11 27h58v4H0z" fill="#dbcdb8"/><path fill="#fff2dc" d="M1 48.5h56v4H1zm56-26H1l2-4h52z"/><path d="M12 12.5l-2 5.931c0 .031.033.05.06.034L20.364 12.5H12zm25.637 0l10.304 5.965a.04.04 0 0 0 .06-.034L46 12.5h-8.363z" fill="#dbcdb8"/><path d="M29.062 7.5l8.636 5h6.864c0-6-6.906-11-15.5-11-8.595 0-15.625 5-15.625 11h6.989l8.636-5z" fill="#fff2dc"/></svg>