<svg xmlns="http://www.w3.org/2000/svg" width="60" height="60" viewBox="0 0 512 512"><circle cx="256" cy="256" r="209.455" fill="#ecf0f9"/><path d="M256 0C114.036 0 0 114.036 0 256s114.036 256 256 256 256-114.036 256-256S397.964 0 256 0zm0 465.455C140.8 465.455 46.545 371.2 46.545 256S140.8 46.545 256 46.545 465.455 140.8 465.455 256 371.2 465.455 256 465.455z" fill="#c97629"/><path d="M64 273.455C64 158.255 158.255 64 273.455 64c53.527 0 102.4 19.782 138.473 53.527C373.527 73.309 318.836 46.545 256 46.545 140.8 46.545 46.545 140.8 46.545 256c0 62.836 26.764 117.527 70.982 155.927C83.782 375.855 64 326.982 64 273.455z" fill="#d5e3ef"/><path d="M69.818 267.636H23.273c-6.982 0-11.636-4.655-11.636-11.636 0-6.982 4.655-11.636 11.636-11.636h46.545c6.982 0 11.636 4.655 11.636 11.636.001 6.982-4.654 11.636-11.636 11.636z" fill="#c97629"/><path d="M46.545 256c0 3.491 0 8.145 1.164 11.636h17.455c0-8.145 1.164-15.127 2.327-23.273H47.709c-1.164 3.492-1.164 8.146-1.164 11.637z" fill="#b06328"/><path d="M488.727 267.636h-46.545c-6.982 0-11.636-4.655-11.636-11.636 0-6.982 4.655-11.636 11.636-11.636h46.545c6.982 0 11.636 4.655 11.636 11.636.001 6.982-4.654 11.636-11.636 11.636zM244.364 69.818V23.273c0-6.982 4.655-11.636 11.636-11.636 6.982 0 11.636 4.655 11.636 11.636v46.545c0 6.982-4.655 11.636-11.636 11.636-6.982.001-11.636-4.654-11.636-11.636z" fill="#c97629"/><path d="M244.364 47.709v18.618c8.145-1.164 15.127-1.164 23.273-2.327V47.709c-3.491-1.164-8.145-1.164-11.636-1.164-3.492 0-8.146 0-11.637 1.164z" fill="#b06328"/><path d="M244.364 488.727v-46.545c0-6.982 4.655-11.636 11.636-11.636 6.982 0 11.636 4.655 11.636 11.636v46.545c0 6.982-4.655 11.636-11.636 11.636-6.982.001-11.636-4.654-11.636-11.636z" fill="#c97629"/><path d="M256 0C114.036 0 0 114.036 0 256c12.8 0 23.273-9.309 24.436-22.109C30.255 178.036 54.691 126.836 93.091 89.6c37.236-36.073 86.109-60.509 140.8-65.164C246.691 23.273 256 12.8 256 0z" fill="#da8c36"/><path d="M256 512c141.964 0 256-114.036 256-256-12.8 0-23.273 9.309-24.436 22.109-4.655 54.691-29.091 103.564-65.164 140.8-37.236 38.4-87.273 62.836-144.291 68.655C265.309 488.727 256 499.2 256 512z" fill="#b06328"/><path d="M256 244.364c-6.982 0-11.636-4.655-11.636-11.636v-93.091c0-6.982 4.655-11.636 11.636-11.636 6.982 0 11.636 4.655 11.636 11.636v93.091c0 6.981-4.654 11.636-11.636 11.636zm104.727 128c-3.491 0-5.818-1.164-8.145-3.491l-93.091-93.091c-4.655-4.655-4.655-11.636 0-16.291s11.636-4.655 16.291 0l93.091 93.091c4.655 4.655 4.655 11.636 0 16.291-2.328 2.327-4.655 3.491-8.146 3.491z" fill="#595a66"/><g fill="#f6b545"><ellipse cx="168.669" cy="104.739" rx="11.636" ry="11.636"/><ellipse cx="343.319" cy="407.249" rx="11.636" ry="11.636"/><ellipse cx="104.809" cy="168.797" rx="11.636" ry="11.636"/><ellipse cx="407.238" cy="343.156" rx="11.636" ry="11.636"/><ellipse cx="343.168" cy="104.762" rx="11.636" ry="11.636"/><ellipse cx="168.844" cy="407.191" rx="11.636" ry="11.636"/><ellipse cx="407.249" cy="168.669" rx="11.636" ry="11.636"/><ellipse cx="104.739" cy="343.319" rx="11.636" ry="11.636"/></g><path d="M256 226.909v-81.455c0-3.491 2.327-5.818 5.818-5.818 3.491 0 5.818 2.327 5.818 5.818v81.455c0 3.491-2.327 5.818-5.818 5.818-3.491 0-5.818-2.327-5.818-5.818zm95.418 140.8l-80.291-80.291c-2.327-2.327-2.327-5.818 0-8.145s5.818-2.327 8.145 0l80.291 80.291c2.327 2.327 2.327 5.818 0 8.145s-5.818 2.327-8.145 0z" fill="#35363e"/><circle cx="256" cy="256" r="34.909" fill="#c97629"/><path d="M274.618 225.745c3.491 5.818 4.655 11.636 4.655 18.618 0 19.782-15.127 34.909-34.909 34.909-6.982 0-12.8-2.327-18.618-4.655 6.982 9.309 17.455 16.291 30.255 16.291 19.782 0 34.909-15.127 34.909-34.909-.001-12.799-6.983-23.272-16.292-30.254z" fill="#b06328"/><circle cx="238.545" cy="250.182" r="5.818" fill="#da8c36"/></svg>