<svg width="42" height="37" fill="none" xmlns="http://www.w3.org/2000/svg"><path d="M36.95 14.227a1.03 1.03 0 0 0-.829-.693L24.578 11.91 19.384 1.564A1.03 1.03 0 0 0 18.465 1c-.387 0-.744.218-.919.572L12.42 11.947l-11.543 1.7a1.03 1.03 0 0 0-.827.692.998.998 0 0 0 .265 1.039l8.377 8.043-1.937 11.39a.998.998 0 0 0 .41.993 1.02 1.02 0 0 0 1.079.076l10.305-5.41 10.335 5.35a1.026 1.026 0 0 0 1.496-.903.786.786 0 0 0-.03-.234L28.353 23.36l8.323-8.088a.989.989 0 0 0 .273-1.045z" fill="#F2CE00"/></svg>