<svg width="42" height="37" fill="none" xmlns="http://www.w3.org/2000/svg"><path d="M36.95 14.227a1.03 1.03 0 0 0-.829-.693L24.578 11.91 19.384 1.564A1.03 1.03 0 0 0 18.465 1c-.387 0-.744.218-.919.572L12.42 11.947l-11.543 1.7a1.03 1.03 0 0 0-.827.692.998.998 0 0 0 .265 1.039l8.377 8.043-1.937 11.39a.998.998 0 0 0 .41.993 1.02 1.02 0 0 0 1.079.076l10.305-5.41 10.335 5.35a1.026 1.026 0 0 0 1.496-.903.786.786 0 0 0-.03-.234L28.353 23.36l8.323-8.088a.989.989 0 0 0 .273-1.045zm-10.405 8.057a.998.998 0 0 0-.288.903l1.739 9.879-8.976-4.642a1.047 1.047 0 0 0-.957 0l-8.946 4.694 1.678-9.893a1.01 1.01 0 0 0-.296-.896l-7.26-6.981 10.017-1.475c.334-.053.623-.256.767-.557l4.45-9.006 4.51 8.984c.153.3.441.504.775.556l10.024 1.415-7.237 7.02z" fill="#F2CE00"/></svg>