<svg xmlns="http://www.w3.org/2000/svg" width="100" height="100" viewBox="0 0 480.063 480.063"><g fill="#78b9eb"><circle cx="192.01" cy="248.063" r="16"/><circle cx="192.01" cy="328.063" r="16"/><circle cx="192.01" cy="408.063" r="16"/><path d="M160.01 448.063h160v24h-160v-24z"/></g><g fill="#1e81ce"><path d="M396.81 99.839C381.29 30.921 312.84-12.367 243.922 3.152a127.91 127.91 0 0 0-82.72 60.911h-1.192c-50.19.121-93.161 36.005-102.232 85.368C20.296 163.317-3.223 200.607.394 240.415c5.251 45.647 44.069 79.994 90.016 79.648h29.6v-16h-29.6c-37.701.401-69.644-27.678-74.08-65.12-3.127-34.129 18.111-65.772 50.88-75.808a8 8 0 0 0 5.6-6.616c5.841-43.714 43.097-76.38 87.2-76.456 1.256 0 2.488.088 3.72.168l1.6.104a7.897 7.897 0 0 0 7.552-4.264c28.689-54.746 96.326-75.869 151.072-47.18a111.912 111.912 0 0 1 58.136 78.972 8 8 0 0 0 6.192 6.4c47.596 10.354 79.934 54.657 75.288 103.144-5.908 49.769-48.332 87.111-98.448 86.656h-5.112v16h5.112c58.363.414 107.672-43.192 114.4-101.168 5.206-54.56-29.765-104.896-82.712-119.056zm-100.8 292.224h16v16h-16v-16zm-32 0h16v16h-16v-16zm-32 0h16v16h-16v-16z"/><path d="M296.01 312.063h16v16h-16v-16zm-32 0h16v16h-16v-16zm-32 0h16v16h-16v-16z"/><path d="M328.01 200.063h-176c-8.837 0-16 7.163-16 16v64a15.826 15.826 0 0 0 2.224 8 15.826 15.826 0 0 0-2.224 8v64a15.826 15.826 0 0 0 2.224 8 15.826 15.826 0 0 0-2.224 8v64c0 8.837 7.163 16 16 16v16a8 8 0 0 0 8 8h160a8 8 0 0 0 8-8v-16c8.837 0 16-7.163 16-16v-64a15.826 15.826 0 0 0-2.224-8 15.826 15.826 0 0 0 2.224-8v-64a15.826 15.826 0 0 0-2.224-8 15.826 15.826 0 0 0 2.224-8v-64c0-8.836-7.163-16-16-16zm-176 16h176v64h-176v-64zm176 144h-176v-64h176v64zm-16 104h-144v-8h144v8zm16-24h-176v-64h176v64z"/><path d="M296.01 232.063h16v16h-16v-16zm-32 0h16v16h-16v-16zm-32 0h16v16h-16v-16zm-40-8c-13.255 0-24 10.745-24 24s10.745 24 24 24 24-10.745 24-24-10.745-24-24-24zm0 32a8 8 0 1 1 0-16 8 8 0 0 1 0 16zm0 96c13.255 0 24-10.745 24-24s-10.745-24-24-24-24 10.745-24 24 10.746 24 24 24zm0-32a8 8 0 1 1 0 16 8 8 0 0 1 0-16zm0 112c13.255 0 24-10.745 24-24s-10.745-24-24-24-24 10.745-24 24 10.746 24 24 24zm0-32a8 8 0 1 1 0 16 8 8 0 0 1 0-16z"/></g></svg>