<svg xmlns="http://www.w3.org/2000/svg" width="100" height="100" fill="#1fa1af" viewBox="0 0 512 512"><path d="M420.291 222.194l22.133 12.778c7.177 4.141 16.348 1.683 20.49-5.491l30-51.962a15.001 15.001 0 0 0-5.49-20.49l-21.823-12.6c.268-2.902.399-5.7.399-8.429s-.132-5.527-.399-8.429l21.823-12.6a15.001 15.001 0 0 0 5.49-20.49l-30-51.962c-4.143-7.175-13.316-9.632-20.49-5.49l-22.133 12.777A103.84 103.84 0 0 0 406 41.52V15c0-8.284-6.716-15-15-15h-60c-8.284 0-15 6.716-15 15v26.52a103.84 103.84 0 0 0-14.291 8.286l-22.133-12.777c-7.174-4.143-16.349-1.684-20.49 5.49l-30 51.962a14.997 14.997 0 0 0 5.49 20.49l21.823 12.599a91.526 91.526 0 0 0-.4 8.429c0 2.677.127 5.42.385 8.264l-45.959 25.635A104.046 104.046 0 0 0 196 161.519V136c0-8.284-6.716-15-15-15h-60c-8.284 0-15 6.716-15 15v25.52a103.91 103.91 0 0 0-14.292 8.286l-22.132-12.778c-7.176-4.142-16.349-1.684-20.49 5.49l-30 51.962a15.003 15.003 0 0 0-1.499 11.382 14.994 14.994 0 0 0 6.989 9.108l21.823 12.601a91.526 91.526 0 0 0-.4 8.429c0 2.728.132 5.526.4 8.429l-21.823 12.599a14.999 14.999 0 0 0-5.49 20.491l30 51.962c4.142 7.174 13.315 9.633 20.49 5.49l22.132-12.777A103.85 103.85 0 0 0 106 350.48V376c0 8.284 6.716 15 15 15h60c8.284 0 15-6.716 15-15v-25.52a103.823 103.823 0 0 0 14.425-8.378l23.267 12.979.001.001 22.691 12.655a91.276 91.276 0 0 0-.385 8.263c0 2.728.132 5.526.4 8.429l-21.823 12.599a15.001 15.001 0 0 0-5.49 20.49l30 51.962c4.142 7.174 13.314 9.633 20.49 5.49l22.133-12.777A103.84 103.84 0 0 0 316 470.479V497c0 8.284 6.716 15 15 15h60c8.284 0 15-6.716 15-15v-26.52a103.942 103.942 0 0 0 14.291-8.286l22.133 12.778c7.177 4.141 16.348 1.683 20.49-5.491l30-51.962a15.001 15.001 0 0 0-5.49-20.49l-21.823-12.6c.268-2.902.399-5.7.399-8.429s-.132-5.527-.399-8.429l21.823-12.6a15.001 15.001 0 0 0 5.49-20.49l-30-51.962c-4.143-7.175-13.316-9.632-20.49-5.49l-22.133 12.777A103.84 103.84 0 0 0 406 281.52v-51.04a103.942 103.942 0 0 0 14.291-8.286zm-195.692 20.158c.954 5.185 1.4 9.522 1.4 13.648 0 4.126-.445 8.463-1.401 13.648a15 15 0 0 0 7.445 15.82l18.354 10.236-14.998 25.977-18.974-10.585a15.001 15.001 0 0 0-17.043 1.688c-7 5.971-14.875 10.537-23.407 13.571A15 15 0 0 0 166 340.488V361h-30v-20.511a15 15 0 0 0-9.975-14.133c-8.533-3.033-16.408-7.599-23.407-13.571a15 15 0 0 0-17.235-1.579L67.566 321.49l-15-25.981 17.583-10.151a15 15 0 0 0 7.251-15.71c-.956-5.185-1.401-9.522-1.401-13.648 0-4.126.445-8.463 1.401-13.648a15 15 0 0 0-7.251-15.71L52.566 216.49l15-25.981 17.815 10.285a14.998 14.998 0 0 0 17.235-1.579c7-5.972 14.875-10.538 23.407-13.571a15.001 15.001 0 0 0 9.976-14.134V151h30v20.511a15.002 15.002 0 0 0 9.976 14.134c8.532 3.033 16.407 7.599 23.407 13.571a15 15 0 0 0 17.043 1.688l18.975-10.585 14.998 25.977-18.354 10.236a15 15 0 0 0-7.445 15.82zm31.015 21.911a91.26 91.26 0 0 0 .385-8.263c0-2.676-.127-5.42-.385-8.264 0 0 31.555-17.599 45.96-25.635a103.823 103.823 0 0 0 14.425 8.378v51.04a103.888 103.888 0 0 0-14.425 8.379l-45.96-25.635zm153.766 54.952a15.002 15.002 0 0 0 17.236 1.58l17.816-10.286 15 25.981-17.583 10.151a15.001 15.001 0 0 0-7.251 15.71c.955 5.183 1.4 9.52 1.4 13.648s-.445 8.465-1.4 13.648a15 15 0 0 0 7.251 15.71l17.583 10.151-15 25.981-17.816-10.286a15 15 0 0 0-17.236 1.58c-6.998 5.971-14.873 10.537-23.405 13.571a15 15 0 0 0-9.976 14.133V482h-30v-21.511a15 15 0 0 0-9.976-14.133c-8.532-3.034-16.407-7.599-23.405-13.571a15.002 15.002 0 0 0-17.236-1.58l-17.815 10.286-15-25.981 17.583-10.151a15 15 0 0 0 7.252-15.71c-.958-5.186-1.403-9.523-1.403-13.649 0-4.126.445-8.463 1.401-13.648a15 15 0 0 0-7.445-15.82l-18.354-10.236 14.998-25.977 18.975 10.585a15.001 15.001 0 0 0 17.044-1.688c6.998-5.971 14.873-10.537 23.405-13.57a15.001 15.001 0 0 0 9.976-14.134V271h30v20.511a15.002 15.002 0 0 0 9.976 14.134c8.532 3.033 16.407 7.599 23.405 13.57zm-23.406-112.861a15 15 0 0 0-9.976 14.133V241h-30v-20.511a15 15 0 0 0-9.976-14.133c-8.532-3.034-16.407-7.599-23.405-13.571a15.001 15.001 0 0 0-17.044-1.689l-18.974 10.585-14.998-25.977 18.354-10.236a15 15 0 0 0 7.445-15.82c-.956-5.185-1.401-9.522-1.401-13.648 0-4.126.445-8.463 1.401-13.648a14.999 14.999 0 0 0-7.252-15.71L262.566 96.49l15-25.981 17.815 10.285a15.002 15.002 0 0 0 17.236-1.579c6.998-5.971 14.873-10.537 23.405-13.57a15.001 15.001 0 0 0 9.976-14.134V30h30v21.511a15.002 15.002 0 0 0 9.976 14.134c8.532 3.033 16.407 7.599 23.405 13.57a15.002 15.002 0 0 0 17.236 1.58l17.816-10.286 15 25.981-17.583 10.151a15.001 15.001 0 0 0-7.251 15.71c.955 5.183 1.4 9.52 1.4 13.648s-.445 8.465-1.4 13.648a15 15 0 0 0 7.251 15.71l17.583 10.151-15 25.981-17.816-10.286a15 15 0 0 0-17.236 1.58c-6.998 5.971-14.873 10.537-23.405 13.571z"/><path d="M150.999 211c-24.813 0-45 20.187-45 45s20.187 45 45 45 45-20.187 45-45-20.187-45-45-45zm0 60c-8.271 0-15-6.729-15-15s6.729-15 15-15 15 6.729 15 15-6.729 15-15 15zm210-180c-24.813 0-45 20.187-45 45s20.186 45 45 45c24.813 0 45-20.187 45-45s-20.187-45-45-45zm0 60c-8.271 0-15-6.729-15-15s6.728-15 15-15c8.271 0 15 6.729 15 15s-6.729 15-15 15zm0 180c-24.813 0-45 20.187-45 45s20.187 45 45 45 45-20.187 45-45-20.187-45-45-45zm0 60c-8.271 0-15-6.729-15-15s6.729-15 15-15 15 6.729 15 15-6.729 15-15 15z"/></svg>