<svg xmlns="http://www.w3.org/2000/svg" width="100" height="100" viewBox="0 0 488.727 488.727"><path d="M139.636 151.273c-12.8 0-23.273 10.473-23.273 23.273v285.091c0 9.309 8.145 17.455 17.455 17.455 3.491 0 6.982-1.164 10.473-3.491l75.636-57.018c8.145-5.818 17.455-9.309 27.927-9.309h217.6c12.8 0 23.273-10.473 23.273-23.273V174.545c0-12.8-10.473-23.273-23.273-23.273H139.636z" fill="#3689c9"/><path d="M465.455 151.273v221.091c0 6.982-4.655 11.636-11.636 11.636H224.582c-10.473 0-19.782 3.491-27.927 9.309l-75.636 57.018c-1.164 1.164-3.491 2.327-4.655 2.327v6.982c0 9.309 8.145 17.455 17.455 17.455 3.491 0 6.982-1.164 10.473-3.491l75.636-57.018c8.145-5.818 17.455-9.309 27.927-9.309h217.6c12.8 0 23.273-10.473 23.273-23.273V174.545c-.001-12.8-10.473-23.272-23.273-23.272z" fill="#1470b8"/><g fill="#eaeced"><circle cx="302.545" cy="279.273" r="23.273"/><circle cx="384" cy="279.273" r="23.273"/><circle cx="221.091" cy="279.273" r="23.273"/></g><path d="M393.309 258.327c1.164 3.491 2.327 5.818 2.327 9.309 0 12.8-10.473 23.273-23.273 23.273-3.491 0-6.982-1.164-9.309-2.327 3.491 8.145 11.636 13.964 20.945 13.964 12.8 0 23.273-10.473 23.273-23.273.001-9.309-5.817-17.455-13.963-20.946zm-81.454 0c1.164 3.491 2.327 5.818 2.327 9.309 0 12.8-10.473 23.273-23.273 23.273-3.491 0-6.982-1.164-9.309-2.327 3.491 8.145 11.636 13.964 20.945 13.964 12.8 0 23.273-10.473 23.273-23.273 0-9.309-5.818-17.455-13.963-20.946zm-81.455 0c1.164 3.491 2.327 5.818 2.327 9.309 0 12.8-10.473 23.273-23.273 23.273-3.491 0-6.982-1.164-9.309-2.327 3.491 8.145 11.636 13.964 20.945 13.964 12.8 0 23.273-10.473 23.273-23.273.001-9.309-5.818-17.455-13.963-20.946z" fill="#c9d5e3"/><path d="M232.727 221.091h-17.455l5.818-69.818h23.273v58.182c.001 6.981-4.654 11.636-11.636 11.636z" fill="#0261a5"/><path d="M0 34.909v116.364c0 12.8 10.473 23.273 23.273 23.273h102.4c9.309 0 18.618 2.327 25.6 8.145l53.527 36.073c3.491 2.327 5.818 3.491 10.473 3.491 9.309 0 17.455-8.145 17.455-17.455V34.909c0-12.8-10.473-23.273-23.273-23.273H23.273C10.473 11.636 0 22.109 0 34.909z" fill="#90c962"/><path d="M209.455 11.636v157.091c0 9.309-8.145 17.455-17.455 17.455-3.491 0-6.982-1.164-10.473-3.491l-32.582-24.436c-5.818-4.655-13.964-6.982-20.945-6.982H0c0 12.8 10.473 23.273 23.273 23.273h102.4c9.309 0 18.618 2.327 25.6 8.145l53.527 36.073c3.491 2.327 5.818 3.491 10.473 3.491 9.309 0 17.455-8.145 17.455-17.455V34.909c-.001-12.8-10.473-23.273-23.273-23.273z" fill="#71b956"/><g fill="#eaeced"><circle cx="116.364" cy="93.091" r="11.636"/><circle cx="69.818" cy="93.091" r="11.636"/><circle cx="162.909" cy="93.091" r="11.636"/></g><path d="M151.273 238.545v69.818c0 3.491-2.327 5.818-5.818 5.818-3.491 0-5.818-2.327-5.818-5.818v-69.818c0-3.491 2.327-5.818 5.818-5.818 3.49 0 5.818 2.328 5.818 5.818z" fill="#70b7e5"/><path d="M23.273 52.364v34.909c0 3.491-2.327 5.818-5.818 5.818-3.491 0-5.818-2.327-5.818-5.818V52.364c0-3.491 2.327-5.818 5.818-5.818 3.49-.001 5.818 2.327 5.818 5.818z" fill="#b2d890"/><path d="M139.636 331.636c0-3.491 2.327-5.818 5.818-5.818 3.491 0 5.818 2.327 5.818 5.818 0 3.491-2.327 5.818-5.818 5.818-3.49.001-5.818-2.327-5.818-5.818z" fill="#70b7e5"/></svg>