<svg xmlns="http://www.w3.org/2000/svg" width="100" height="100" viewBox="0 0 489.6 489.6"><path d="M373.6 391.65h24.5c6 0 10.8-4.8 10.8-10.8v-29.5c0-6-4.8-10.8-10.8-10.8h-24.5c-3.4-17.3-10.2-33.3-19.6-47.4l17.4-17.4c4.2-4.2 4.2-11.1 0-15.3l-20.9-20.9c-4.2-4.2-11.1-4.2-15.3 0l-17.4 17.3c-14.1-9.5-30.1-16.2-47.4-19.6v-24.5c0-6-4.8-10.8-10.8-10.8h-29.5c-6 0-10.8 4.8-10.8 10.8v24.5c-17.3 3.4-33.3 10.2-47.4 19.6l-17.4-17.4c-4.2-4.2-11.1-4.2-15.3 0l-20.9 20.9c-4.2 4.2-4.2 11.1 0 15.3l17.4 17.4c-9.5 14.1-16.2 30.1-19.6 47.4H91.6c-6 0-10.8 4.8-10.8 10.8v29.5c0 6 4.8 10.8 10.8 10.8h24.5l52.3-25.6c0-42.2 34.3-76.5 76.5-76.5s76.5 34.3 76.5 76.5" fill="#a7a9ac"/><path d="M489.6 409.55V79.95c0-20.6-16.7-37.3-37.3-37.3h-415C16.7 42.65 0 59.35 0 79.95v329.7c0 20.6 16.7 37.3 37.3 37.3h415c20.6 0 37.3-16.8 37.3-37.4zM37.3 60.75h415c10.6 0 19.2 8.6 19.2 19.2v44.5H18.1v-44.5c0-10.6 8.6-19.2 19.2-19.2zm-19.2 348.8v-267h453.4v267c0 10.6-8.6 19.2-19.2 19.2h-415c-10.6 0-19.2-8.6-19.2-19.2z"/><path d="M244.8 280.55c-47.2 0-85.5 38.4-85.5 85.5 0 5 4.1 9.1 9.1 9.1s9.1-4.1 9.1-9.1c0-37.2 30.2-67.4 67.4-67.4s67.4 30.2 67.4 67.4c0 5 4.1 9.1 9.1 9.1s9.1-4.1 9.1-9.1c-.2-47.2-38.5-85.5-85.7-85.5z"/><path d="M398.2 331.45h-17.3c-3.3-13.1-8.5-25.5-15.4-37.1l12.2-12.2c3.8-3.8 5.8-8.8 5.8-14.1 0-5.3-2.1-10.3-5.8-14.1l-20.9-20.9c-7.8-7.8-20.4-7.8-28.1 0l-12.2 12.2c-11.6-6.9-24-12-37.1-15.4v-17.1c0-11-8.9-19.9-19.9-19.9H230c-11 0-19.9 8.9-19.9 19.9v17.3c-13.1 3.3-25.5 8.5-37.1 15.4l-12.2-12.2c-3.8-3.8-8.8-5.8-14.1-5.8s-10.3 2.1-14.1 5.8l-20.9 20.9c-3.8 3.8-5.8 8.8-5.8 14.1s2.1 10.3 5.8 14.1l12.2 12.2c-6.9 11.6-12 24-15.4 37.1H91.2c-11 0-19.9 8.9-19.9 19.9v29.5c0 11 8.9 19.9 19.9 19.9h24.5c5 0 9.1-4.1 9.1-9.1s-4.1-9.1-9.1-9.1H91.2c-1 0-1.8-.8-1.8-1.8v-29.5c0-1 .8-1.8 1.8-1.8h24.5c4.3 0 8.1-3.1 8.9-7.3 3.1-15.8 9.3-30.7 18.3-44.1 2.4-3.6 1.9-8.4-1.1-11.5l-17.4-17.4c-.4-.4-.5-.9-.5-1.2 0-.3.1-.8.5-1.2l20.9-20.9c.4-.4.9-.5 1.2-.5s.8.1 1.3.5l17.4 17.4c3.1 3.1 7.9 3.5 11.5 1.1 13.4-9 28.3-15.1 44.1-18.3 4.2-.8 7.3-4.6 7.3-8.9v-24.6c0-1 .8-1.8 1.8-1.8h29.5c1 0 1.8.8 1.8 1.8v24.5c0 4.3 3.1 8.1 7.3 8.9 15.8 3.1 30.7 9.3 44.1 18.3 3.6 2.4 8.4 1.9 11.5-1.1l17.4-17.4c.7-.7 1.8-.7 2.5 0l20.9 20.9c.4.4.5.9.5 1.2 0 .3-.1.8-.5 1.3l-17.4 17.4c-3.1 3.1-3.5 7.9-1.1 11.5 9 13.4 15.1 28.3 18.3 44.1.8 4.2 4.6 7.3 8.9 7.3h24.5c1 0 1.8.8 1.8 1.8v29.5c0 1-.8 1.8-1.8 1.8h-24.5c-5 0-9.1 4.1-9.1 9.1s4.1 9.1 9.1 9.1h24.5c11 0 19.9-8.9 19.9-19.9v-29.5c0-11.2-8.9-20.1-19.8-20.1zM81.8 101.05c2.4 0 4.7-1 6.4-2.7s2.7-4 2.7-6.4-1-4.7-2.7-6.4c-1.7-1.7-4-2.7-6.4-2.7s-4.7 1-6.4 2.7c-1.7 1.7-2.7 4-2.7 6.4s1 4.7 2.7 6.4c1.7 1.8 4 2.7 6.4 2.7zm32 0c2.4 0 4.7-1 6.4-2.7s2.7-4 2.7-6.4-1-4.7-2.7-6.4c-1.7-1.7-4-2.7-6.4-2.7s-4.7 1-6.4 2.7-2.7 4-2.7 6.4 1 4.7 2.7 6.4c1.7 1.8 4 2.7 6.4 2.7zm-64 0c2.4 0 4.7-1 6.4-2.7s2.7-4 2.7-6.4-1-4.7-2.7-6.4c-1.7-1.7-4-2.7-6.4-2.7s-4.7 1-6.4 2.7-2.7 4-2.7 6.4 1 4.7 2.7 6.4c1.7 1.8 4 2.7 6.4 2.7z"/></svg>