<svg xmlns="http://www.w3.org/2000/svg" width="100" height="100" fill="#1fa1af" viewBox="0 0 512 512"><path d="M497 452H298.42c-4.527-12.764-14.656-22.893-27.42-27.42V390h135c24.813 0 45-20.187 45-45v-60c0-11.517-4.354-22.032-11.495-30 7.142-7.968 11.495-18.483 11.495-30v-60c0-11.517-4.354-22.032-11.495-30 7.142-7.968 11.495-18.483 11.495-30V45c0-24.813-20.187-45-45-45H106C81.187 0 61 20.187 61 45v60c0 11.517 4.354 22.032 11.495 30C65.354 142.968 61 153.483 61 165v60c0 11.517 4.354 22.032 11.495 30C65.354 262.968 61 273.483 61 285v60c0 24.813 20.187 45 45 45h135v34.58c-12.764 4.527-22.893 14.656-27.42 27.42H15c-8.284 0-15 6.716-15 15s6.716 15 15 15h198.58c6.192 17.459 22.865 30 42.42 30s36.228-12.541 42.42-30H497c8.284 0 15-6.716 15-15s-6.716-15-15-15zM91 45c0-8.271 6.729-15 15-15h300c8.271 0 15 6.729 15 15v60c0 8.271-6.729 15-15 15H106c-8.271 0-15-6.729-15-15V45zm0 120c0-8.271 6.729-15 15-15h300c8.271 0 15 6.729 15 15v60c0 8.271-6.729 15-15 15H106c-8.271 0-15-6.729-15-15v-60zm15 195c-8.271 0-15-6.729-15-15v-60c0-8.271 6.729-15 15-15h300c8.271 0 15 6.729 15 15v60c0 8.271-6.729 15-15 15H106zm150 122c-8.271 0-15-6.729-15-15s6.729-15 15-15 15 6.729 15 15-6.729 15-15 15z"/><path d="M256 60H136c-8.284 0-15 6.716-15 15s6.716 15 15 15h120c8.284 0 15-6.716 15-15s-6.716-15-15-15zm0 120H136c-8.284 0-15 6.716-15 15s6.716 15 15 15h120c8.284 0 15-6.716 15-15s-6.716-15-15-15zm0 120H136c-8.284 0-15 6.716-15 15s6.716 15 15 15h120c8.284 0 15-6.716 15-15s-6.716-15-15-15z"/><circle cx="316" cy="75" r="15"/><circle cx="376" cy="75" r="15"/><circle cx="316" cy="195" r="15"/><circle cx="376" cy="195" r="15"/><circle cx="316" cy="315" r="15"/><circle cx="376" cy="315" r="15"/></svg>