<svg xmlns="http://www.w3.org/2000/svg" viewBox="0 0 488.6 488.6"><circle cx="101.55" cy="389.4" r="24.3" fill="#a7a9ac"/><circle cx="387.15" cy="389.4" r="24.3" fill="#a7a9ac"/><path d="M163.35 380.3h-29.8c-4-14-16.8-24.3-32.1-24.3-18.4 0-33.3 15-33.3 33.3 0 18.4 15 33.3 33.3 33.3 15.2 0 28.1-10.3 32.1-24.3h29.8c20 0 36.3-16.3 36.3-36.3v-55.6c0-5-4.1-9.1-9.1-9.1s-9.1 4.1-9.1 9.1V362c.1 10.1-8 18.3-18.1 18.3zm-61.8 24.3c-8.4 0-15.2-6.8-15.2-15.2 0-8.4 6.8-15.2 15.2-15.2s15.2 6.8 15.2 15.2c0 8.3-6.9 15.2-15.2 15.2zm196.5-107.1c-5 0-9.1 4.1-9.1 9.1v55.6c0 20 16.3 36.3 36.3 36.3h29.8c4 14 16.8 24.3 32.1 24.3 18.4 0 33.3-15 33.3-33.3 0-18.4-15-33.3-33.3-33.3-15.2 0-28.1 10.3-32.1 24.3h-29.7c-10 0-18.2-8.2-18.2-18.2v-55.6c0-5.2-4.1-9.2-9.1-9.2zm89.1 76.6c8.4 0 15.2 6.8 15.2 15.2 0 8.4-6.8 15.2-15.2 15.2-8.4 0-15.2-6.8-15.2-15.2 0-8.3 6.9-15.2 15.2-15.2z"/><circle cx="244.35" cy="455.3" r="24.3" fill="#3c92ca"/><path d="M254.25 0c-36.8 0-70.9 20.1-88.9 51.8-3.7-.8-7.4-1.1-11.3-1.1-30.6 0-55.6 24.9-55.6 55.6 0 4.1.4 8.1 1.3 12.1-20.1 14.2-32.4 37.7-32.4 62.7 0 41.8 33.5 79 73.2 81.2h198.9c45.9-3.2 81.8-42.6 81.8-89.5 0-41-28-77.3-66.2-87.1-7.8-49.3-50.1-85.7-100.8-85.7zm149 172.8c0 36.8-29 68.8-64.6 71.4h-197.3c-30.3-1.8-55.9-30.7-55.9-63.1 0-21 11.3-40.6 29.4-51.1 3.8-2.2 5.5-6.9 3.9-11-1.5-4-2.2-8.3-2.2-12.8 0-20.7 16.8-37.5 37.5-37.5 4.4 0 8.7.8 12.8 2.2 4.4 1.6 9.3-.4 11.4-4.6 13.8-29.3 43.7-48.2 76.1-48.2 43.6 0 79.6 32.6 83.7 75.9.4 4.1 3.5 7.4 7.5 8.1 32.8 5.6 57.7 36 57.7 70.7zm-158.9 124.7c-5 0-9.1 4.1-9.1 9.1v116.7c-13.7 3.9-23.9 16.4-24.3 31.2-.2 8.9 3.1 17.4 9.2 23.8 6.1 6.4 14.4 10.1 23.3 10.3h.8c17.9 0 32.9-14.6 33.3-32.5.2-8.9-3.1-17.4-9.2-23.8-4.2-4.4-9.4-7.5-15.1-9.1V306.5c.2-5-3.9-9-8.9-9zm15.2 158.2c-.2 8.2-7 14.8-15.2 14.8h-.4c-4.1-.1-7.8-1.8-10.6-4.7-2.8-2.9-4.3-6.8-4.2-10.9.2-8.2 7-14.8 15.2-14.8h.4c4.1.1 7.8 1.8 10.6 4.7 2.8 2.9 4.3 6.8 4.2 10.9z"/></svg>