<svg xmlns="http://www.w3.org/2000/svg" width="100" height="100" viewBox="0 0 512 512"><path d="M418.909 500.364H93.091c-45.382 0-81.455-36.073-81.455-81.455V93.091c0-45.382 36.073-81.455 81.455-81.455h325.818c45.382 0 81.455 36.073 81.455 81.455v325.818c0 45.382-36.073 81.455-81.455 81.455zM93.091 34.909c-32.582 0-58.182 25.6-58.182 58.182v325.818c0 32.582 25.6 58.182 58.182 58.182h325.818c32.582 0 58.182-25.6 58.182-58.182V93.091c0-32.582-25.6-58.182-58.182-58.182H93.091z" fill="#c97629"/><path d="M166.4 477.091c30.255 15.127 65.164 23.273 101.236 23.273s69.818-8.145 101.236-23.273H166.4zm310.691-108.218c15.127-30.255 23.273-65.164 23.273-101.236s-8.145-69.818-23.273-101.236v202.472z" fill="#b06328"/><path d="M477.091 279.273h23.273c6.982 0 11.636-4.655 11.636-11.636v-23.273c0-6.982-4.655-11.636-11.636-11.636h-23.273v46.545zM34.909 232.727H11.636C4.655 232.727 0 237.382 0 244.364v23.273c0 6.982 4.655 11.636 11.636 11.636h23.273v-46.546z" fill="#f6b545"/><path d="M34.909 244.364v-11.636H11.636C4.655 232.727 0 237.382 0 244.364v23.273c0 6.982 4.655 11.636 11.636 11.636v-34.909h23.273z" fill="#ffcb5b"/><path d="M232.727 477.091v23.273c0 6.982 4.655 11.636 11.636 11.636h23.273c6.982 0 11.636-4.655 11.636-11.636v-23.273h-46.545zm46.546-442.182V11.636C279.273 4.655 274.618 0 267.636 0h-23.273c-6.982 0-11.636 4.655-11.636 11.636v23.273h46.546z" fill="#f6b545"/><path d="M267.636 0h-23.273c-6.982 0-11.636 4.655-11.636 11.636v11.636c0-6.982 4.655-11.636 11.636-11.636h23.273c6.982 0 11.636 4.655 11.636 11.636V11.636C279.273 4.655 274.618 0 267.636 0z" fill="#ffcb5b"/><path d="M279.273 499.2v-22.109h-46.545v20.945c11.636 1.164 23.273 2.327 34.909 2.327 3.49.001 8.145.001 11.636-1.163zm218.763-266.473h-20.945v46.545H499.2c0-3.491 1.164-8.145 1.164-11.636 0-11.636-1.164-23.272-2.328-34.909z" fill="#f19920"/><path d="M256 23.273C128 23.273 23.273 128 23.273 256S128 488.727 256 488.727 488.727 384 488.727 256 384 23.273 256 23.273zm0 349.091C192 372.364 139.636 320 139.636 256S192 139.636 256 139.636 372.364 192 372.364 256 320 372.364 256 372.364z" fill="#d5e3ef"/><path d="M256 139.636c0-12.8-11.636-23.273-24.436-20.945-57.018 10.473-102.4 55.855-112.873 112.873-2.327 12.8 8.145 24.436 20.945 24.436 0-31.418 12.8-60.509 33.745-81.455 20.946-22.109 50.037-34.909 82.619-34.909z" fill="#b0c4d9"/><path d="M256 23.273C128 23.273 23.273 128 23.273 256c24.436 0 45.382-17.455 51.2-40.727 9.309-38.4 29.091-73.309 58.182-98.909 23.273-19.782 51.2-34.909 81.455-41.891 24.435-5.818 41.89-26.764 41.89-51.2z" fill="#ecf0f9"/><path d="M173.382 173.382c12.8-12.8 27.927-22.109 44.218-27.927L158.255 44.218c-24.436 11.636-46.545 26.764-67.491 46.545-19.782 19.782-34.909 43.055-46.545 67.491L145.455 217.6c5.818-16.291 15.127-31.418 27.927-44.218z" fill="#f04d4e"/><path d="M158.255 45.382c-24.436 11.636-46.545 26.764-67.491 46.545s-34.909 43.055-46.545 67.491l40.727 23.273c10.473-25.6 26.764-47.709 47.709-65.164 13.964-12.8 31.418-23.273 48.873-31.418l-23.273-40.727z" fill="#f26a56"/><path d="M125.673 205.964l20.945 11.636c5.818-16.291 15.127-31.418 27.927-44.218 12.8-12.8 27.927-22.109 44.218-27.927l-11.636-20.945c-38.4 15.126-67.491 44.217-81.454 81.454z" fill="#db343f"/><path d="M442.182 256c0 102.4-83.782 186.182-186.182 186.182-20.945 0-41.891-3.491-60.509-10.473-20.945-6.982-44.218 9.309-44.218 31.418 34.909 17.455 73.309 26.764 115.2 24.436C385.164 481.745 482.909 384 488.727 265.309c2.327-41.891-6.982-80.291-24.436-115.2-23.273 0-39.564 22.109-31.418 44.218 5.818 19.782 9.309 40.728 9.309 61.673z" fill="#b0c4d9"/><path d="M353.745 45.382L294.4 146.618c16.291 5.818 31.418 15.127 44.218 27.927s22.109 27.927 27.927 44.218l101.236-59.345c-11.636-24.436-26.764-46.545-46.545-67.491s-43.054-36.072-67.491-46.545z" fill="#f04d4e"/><path d="M466.618 158.255l-3.491-6.982c-17.455 0-30.255 12.8-32.582 27.927l36.073-20.945z" fill="#db343f"/><path d="M158.255 466.618L217.6 365.382c-16.291-5.818-31.418-15.127-44.218-27.927-12.8-12.8-22.109-27.927-27.927-44.218L44.218 352.582c11.636 24.436 26.764 46.545 46.545 67.491 20.946 20.945 43.055 36.072 67.492 46.545z" fill="#f04d4e"/><path d="M151.273 463.127l6.982 3.491 20.945-36.073c-15.127 2.328-27.927 15.128-27.927 32.582z" fill="#db343f"/><path d="M371.2 268.8c-5.818 53.527-50.036 97.745-104.727 103.564-11.636 1.164-23.273 0-34.909-2.327v2.327c0 12.8 10.473 23.273 23.273 23.273 76.8 0 139.636-62.836 139.636-139.636 0-4.655 0-9.309-1.164-13.964-1.164-11.636-11.636-20.945-23.273-20.945h-4.655c5.819 15.126 8.146 31.417 5.819 47.708z" fill="#ecf0f9"/><path d="M487.564 279.273c-12.8 0-24.436 9.309-26.764 22.109-17.455 79.127-80.291 140.8-158.255 158.255-12.8 2.327-22.109 13.964-22.109 26.764 108.219-9.31 196.655-97.746 207.128-207.128z" fill="#99b4cd"/><path d="M338.618 338.618c-12.8 12.8-27.927 22.109-44.218 27.927l59.345 101.236c24.436-11.636 46.545-26.764 67.491-46.545 19.782-19.782 34.909-43.055 46.545-67.491L366.545 294.4c-5.818 16.291-15.127 31.418-27.927 44.218z" fill="#f04d4e"/><path d="M386.327 306.036L365.382 294.4c-5.818 16.291-15.127 31.418-27.927 44.218-12.8 12.8-27.927 22.109-44.218 27.927l11.636 20.945c38.4-15.126 67.491-44.217 81.454-81.454z" fill="#f26a56"/><path d="M353.745 466.618c24.436-11.636 46.545-26.764 67.491-46.545 20.945-19.782 34.909-43.055 46.545-67.491l-40.727-23.273c-18.618 43.055-53.527 77.964-96.582 96.582l23.273 40.727z" fill="#db343f"/><path d="M446.836 342.109a208.75 208.75 0 0 1-104.727 104.727l11.636 19.782c1.164 0 1.164 0 2.327-1.164 48.873-23.273 87.273-62.836 110.545-110.545 0-1.164 0-1.164 1.164-2.327l-20.945-10.473z" fill="#c61c31"/></svg>