<svg xmlns="http://www.w3.org/2000/svg" width="100" height="100" fill="#1fa1af" viewBox="0 0 512 512"><path d="M420.566 170.129C415.015 100.751 356.782 46 286 46c-59.121 0-110.328 38.23-128.125 93.224C151.303 137.23 143.523 136 136 136c-39.677 0-72.256 30.972-74.835 70.007C24.176 223.323 0 260.257 0 301c0 57.897 47.551 105 106 105h161.972l35.547 53.321a15.003 15.003 0 0 0 24.962 0L364.028 406H391c66.72 0 121-53.832 121-120 0-54.745-38.503-102.499-91.434-115.871zM196 316c-8.284 0-15 6.716-15 15v45h-30v-45c0-8.284-6.716-15-15-15h-1.972L166 268.042 197.972 316H196zm147.575 66.595l-.029.043L316 423.958l-27.547-41.32-.029-.043-4.396-6.595H286c8.284 0 15-6.716 15-15v-45h30v45c0 8.284 6.716 15 15 15h1.972l-4.397 6.595zM391 376h-6.972l4.453-6.679A15.001 15.001 0 0 0 376 346h-15v-45c0-8.284-6.716-15-15-15h-60c-8.284 0-15 6.716-15 15v45h-15a15 15 0 0 0-12.481 23.32l4.453 6.679H211v-30h15a15 15 0 0 0 12.481-23.32l-60-90a15.003 15.003 0 0 0-24.962 0l-60 90A15.001 15.001 0 0 0 106 346h15v30h-15c-41.907 0-76-33.645-76-75 0-25.981 13.896-49.82 35.836-63.45 3.712 9.822 9.485 18.836 17.131 26.483 5.857 5.857 15.355 5.858 21.213 0 5.858-5.858 5.858-15.355 0-21.213C75.9 214.541 96.18 166 136 166a44.89 44.89 0 0 1 31.82 13.18c5.857 5.858 15.355 5.858 21.213 0 5.857-5.858 5.857-15.355 0-21.213a76.844 76.844 0 0 0-4.246-3.908C196.866 108.328 238.086 76 286 76c52.775 0 96.573 39.143 103.911 89.918a120.374 120.374 0 0 0-45.625 9.519c-7.63 3.227-11.199 12.028-7.972 19.658 3.227 7.629 12.029 11.199 19.658 7.972 14.04-5.938 29.235-8.229 44.179-6.707 1.128.463 2.322.806 3.577.986C448.351 203.719 482 241.832 482 286c0 49.626-40.822 90-91 90z"/></svg>