<svg xmlns="http://www.w3.org/2000/svg" width="100" height="100" viewBox="0 0 512 512"><path fill="#707487" d="M52.966 201.776h406.069v247.172H52.966z"/><path d="M494.345 466.607H17.655a8.829 8.829 0 0 1-8.828-8.828v-8.828a8.829 8.829 0 0 1 8.828-8.828h476.69a8.829 8.829 0 0 1 8.828 8.828v8.828a8.829 8.829 0 0 1-8.828 8.828zm0-256H17.655a8.829 8.829 0 0 1-8.828-8.828v-8.828a8.829 8.829 0 0 1 8.828-8.828h476.69a8.829 8.829 0 0 1 8.828 8.828v8.828a8.829 8.829 0 0 1-8.828 8.828z" fill="#afb9d2"/><path d="M503.172 484.262H8.828A8.829 8.829 0 0 1 0 475.434v-8.828a8.829 8.829 0 0 1 8.828-8.828h494.345a8.829 8.829 0 0 1 8.828 8.828v8.828a8.83 8.83 0 0 1-8.829 8.828zm0-291.31H8.828A8.829 8.829 0 0 1 0 184.124V171.68a8.83 8.83 0 0 1 4.563-7.73L247.471 29.934a17.654 17.654 0 0 1 17.057 0l242.908 134.018a8.829 8.829 0 0 1 4.563 7.73v12.444c.001 4.873-3.952 8.826-8.827 8.826z" fill="#c7cfe2"/><path d="M61.793 228.262h-35.31a8.829 8.829 0 0 1-8.828-8.828v-8.828h52.966v8.828a8.828 8.828 0 0 1-8.828 8.828z" fill="#8f96ac"/><path fill="#afb9d2" d="M26.483 228.259h35.31v211.862h-35.31z"/><path d="M26.483 422.469h35.31a8.829 8.829 0 0 1 8.828 8.828v8.828H17.655v-8.828a8.829 8.829 0 0 1 8.828-8.828zm247.172-194.207h-35.31a8.829 8.829 0 0 1-8.828-8.828v-8.828h52.966v8.828a8.828 8.828 0 0 1-8.828 8.828z" fill="#8f96ac"/><path fill="#afb9d2" d="M238.345 228.259h35.31v211.862h-35.31z"/><path d="M238.345 422.469h35.31a8.829 8.829 0 0 1 8.828 8.828v8.828h-52.966v-8.828a8.829 8.829 0 0 1 8.828-8.828zm-35.311-194.207h-35.31a8.829 8.829 0 0 1-8.828-8.828v-8.828h52.966v8.828a8.827 8.827 0 0 1-8.828 8.828z" fill="#8f96ac"/><path fill="#afb9d2" d="M167.724 228.259h35.31v211.862h-35.31z"/><path d="M167.724 422.469h35.31a8.829 8.829 0 0 1 8.828 8.828v8.828h-52.966v-8.828a8.83 8.83 0 0 1 8.828-8.828zm-35.31-194.207h-35.31a8.829 8.829 0 0 1-8.828-8.828v-8.828h52.966v8.828a8.829 8.829 0 0 1-8.828 8.828z" fill="#8f96ac"/><path fill="#afb9d2" d="M97.103 228.259h35.31v211.862h-35.31z"/><path d="M97.103 422.469h35.31a8.829 8.829 0 0 1 8.828 8.828v8.828H88.276v-8.828a8.828 8.828 0 0 1 8.827-8.828zm247.173-194.207h-35.31a8.829 8.829 0 0 1-8.828-8.828v-8.828h52.966v8.828a8.829 8.829 0 0 1-8.828 8.828z" fill="#8f96ac"/><path fill="#afb9d2" d="M308.966 228.259h35.31v211.862h-35.31z"/><path d="M308.966 422.469h35.31a8.829 8.829 0 0 1 8.828 8.828v8.828h-52.966v-8.828a8.828 8.828 0 0 1 8.828-8.828zm176.551-194.207h-35.31a8.829 8.829 0 0 1-8.828-8.828v-8.828h52.966v8.828a8.828 8.828 0 0 1-8.828 8.828z" fill="#8f96ac"/><path fill="#afb9d2" d="M450.207 228.259h35.31v211.862h-35.31z"/><path d="M450.207 422.469h35.31a8.829 8.829 0 0 1 8.828 8.828v8.828h-52.966v-8.828a8.829 8.829 0 0 1 8.828-8.828zm-35.31-194.207h-35.31a8.829 8.829 0 0 1-8.828-8.828v-8.828h52.966v8.828a8.829 8.829 0 0 1-8.828 8.828z" fill="#8f96ac"/><path fill="#afb9d2" d="M379.586 228.259h35.31v211.862h-35.31z"/><path d="M379.586 422.469h35.31a8.829 8.829 0 0 1 8.828 8.828v8.828h-52.966v-8.828a8.83 8.83 0 0 1 8.828-8.828z" fill="#8f96ac"/><path d="M256 55.474l201.178 110.995H54.822L256 55.474" fill="#afb9d2"/><path d="M326.621 148.814H185.379a8.829 8.829 0 0 1 0-17.656H326.62a8.829 8.829 0 0 1 8.828 8.828 8.827 8.827 0 0 1-8.827 8.828zm-44.138-26.483h-52.966a8.829 8.829 0 0 1 0-17.656h52.966a8.829 8.829 0 0 1 0 17.656z" fill="#8f96ac"/></svg>