<svg xmlns="http://www.w3.org/2000/svg" width="100" height="100" viewBox="0 0 512 512"><path d="M488.727 430.545H23.273C10.473 430.545 0 420.073 0 407.273v-384C0 10.473 10.473 0 23.273 0h465.455C501.527 0 512 10.473 512 23.273v384c0 12.8-10.473 23.272-23.273 23.272z" fill="#b0c4d8"/><path d="M152.436 407.273l6.982 13.964-17.455 9.309h124.509c-9.309 0-41.891-9.309-57.018-23.273h-57.018zm183.855 0c-15.127 13.964-34.909 23.273-57.018 23.273h124.509l-5.818-9.309c2.327-4.655 5.818-9.309 6.982-13.964h-68.655z" fill="#99b4cd"/><path fill="#eceff9" d="M23.273 69.818h465.455v337.455H23.273z"/><path d="M397.964 276.945l20.945-34.909-32.582-32.582-34.909 20.946c-11.636-6.982-25.6-12.8-39.564-16.291l-9.309-39.564H256l-9.309 39.564c-13.964 3.491-27.927 9.309-39.564 16.291l-34.909-20.945-32.582 32.582 20.945 34.909c-6.982 11.636-12.8 25.6-16.291 39.564l-39.564 9.309v46.545l39.564 9.309c2.327 9.309 4.655 17.455 9.309 25.6h54.691l-2.327-2.327 74.473-43.055 74.473 43.055c0 1.164-1.164 1.164-1.164 2.327h54.691c3.491-8.145 6.982-16.291 9.309-25.6l36.073-9.309v-46.545l-39.564-9.309c-2.327-15.128-8.145-27.928-16.29-39.565zm-130.328 65.164l-74.473 43.055c-4.655-10.473-6.982-23.273-6.982-36.073 0-47.709 36.073-86.109 81.455-91.927v84.945zm11.637 8.146zm86.109 34.909l-74.473-43.055V256c45.382 5.818 81.455 45.382 81.455 91.927 0 13.964-2.328 25.6-6.982 37.237z" fill="#c4d7e5"/><path d="M64 244.364h93.091c3.491 0 5.818 2.327 5.818 5.818 0 3.491-2.327 5.818-5.818 5.818H64c-3.491 0-5.818-2.327-5.818-5.818 0-3.491 2.327-5.818 5.818-5.818zm0 23.272h69.818c3.491 0 5.818 2.327 5.818 5.818 0 3.491-2.327 5.818-5.818 5.818H64c-3.491 0-5.818-2.327-5.818-5.818 0-3.49 2.327-5.818 5.818-5.818zm0 23.273h69.818c3.491 0 5.818 2.327 5.818 5.818 0 3.491-2.327 5.818-5.818 5.818H64c-3.491 0-5.818-2.327-5.818-5.818 0-3.491 2.327-5.818 5.818-5.818zm0 23.273h69.818c3.491 0 5.818 2.327 5.818 5.818 0 3.491-2.327 5.818-5.818 5.818H64c-3.491 0-5.818-2.327-5.818-5.818 0-3.491 2.327-5.818 5.818-5.818zm0 23.273h69.818c3.491 0 5.818 2.327 5.818 5.818 0 3.491-2.327 5.818-5.818 5.818H64c-3.491 0-5.818-2.327-5.818-5.818 0-3.491 2.327-5.818 5.818-5.818zm0 23.272h69.818c3.491 0 5.818 2.327 5.818 5.818 0 3.491-2.327 5.818-5.818 5.818H64c-3.491 0-5.818-2.327-5.818-5.818 0-3.49 2.327-5.818 5.818-5.818zm139.636-116.363h104.727c3.491 0 5.818 2.327 5.818 5.818 0 3.491-2.327 5.818-5.818 5.818H203.636c-3.491 0-5.818-2.327-5.818-5.818 0-3.491 2.327-5.818 5.818-5.818zm0 23.272h104.727c3.491 0 5.818 2.327 5.818 5.818 0 3.491-2.327 5.818-5.818 5.818H203.636c-3.491 0-5.818-2.327-5.818-5.818 0-3.49 2.327-5.818 5.818-5.818zm0 23.273h104.727c3.491 0 5.818 2.327 5.818 5.818 0 3.491-2.327 5.818-5.818 5.818H203.636c-3.491 0-5.818-2.327-5.818-5.818 0-3.491 2.327-5.818 5.818-5.818zm0 23.273h104.727c3.491 0 5.818 2.327 5.818 5.818 0 3.491-2.327 5.818-5.818 5.818H203.636c-3.491 0-5.818-2.327-5.818-5.818 0-3.491 2.327-5.818 5.818-5.818zm0 23.273h104.727c3.491 0 5.818 2.327 5.818 5.818 0 3.491-2.327 5.818-5.818 5.818H203.636c-3.491 0-5.818-2.327-5.818-5.818 0-3.491 2.327-5.818 5.818-5.818zm0 23.272h104.727c3.491 0 5.818 2.327 5.818 5.818 0 3.491-2.327 5.818-5.818 5.818H203.636c-3.491 0-5.818-2.327-5.818-5.818 0-3.49 2.327-5.818 5.818-5.818z" fill="#d5e3ef"/><path d="M314.182 366.545c0-3.491-2.327-5.818-5.818-5.818h-73.309l-19.782 11.636h46.545l17.455-10.473 17.455 10.473h11.636c3.491.001 5.818-2.327 5.818-5.818zm-11.637-17.454l-11.636-6.982v-4.654h-23.273v4.654l-12.8 6.982h24.437zm-34.909-34.909h23.273v11.636h-23.273zm-69.818-17.455c0 1.164 1.164 3.491 2.327 4.655l6.982-10.473h-3.491c-3.491 0-5.818 2.327-5.818 5.818zm69.818-5.818h23.273v11.636h-23.273zm0-23.273h23.273v11.636h-23.273zm-69.818 5.819c0 3.491 2.327 5.818 5.818 5.818H217.6c4.655-4.655 10.473-8.145 16.291-11.636h-30.255c-3.491-.001-5.818 2.327-5.818 5.818z" fill="#b0c4d9"/><path d="M360.727 244.364H448c3.491 0 5.818 2.327 5.818 5.818 0 3.491-2.327 5.818-5.818 5.818h-87.273c-3.491 0-5.818-2.327-5.818-5.818 0-3.491 2.327-5.818 5.818-5.818zm17.455 23.272H448c3.491 0 5.818 2.327 5.818 5.818 0 3.491-2.327 5.818-5.818 5.818h-69.818c-3.491 0-5.818-2.327-5.818-5.818 0-3.49 2.327-5.818 5.818-5.818zm0 23.273H448c3.491 0 5.818 2.327 5.818 5.818 0 3.491-2.327 5.818-5.818 5.818h-69.818c-3.491 0-5.818-2.327-5.818-5.818 0-3.491 2.327-5.818 5.818-5.818zm0 23.273H448c3.491 0 5.818 2.327 5.818 5.818 0 3.491-2.327 5.818-5.818 5.818h-69.818c-3.491 0-5.818-2.327-5.818-5.818 0-3.491 2.327-5.818 5.818-5.818z" fill="#d5e3ef"/><path d="M378.182 337.455H448c3.491 0 5.818 2.327 5.818 5.818 0 3.491-2.327 5.818-5.818 5.818h-69.818c-3.491 0-5.818-2.327-5.818-5.818 0-3.491 2.327-5.818 5.818-5.818zm0 23.272H448c3.491 0 5.818 2.327 5.818 5.818 0 3.491-2.327 5.818-5.818 5.818h-69.818c-3.491 0-5.818-2.327-5.818-5.818 0-3.49 2.327-5.818 5.818-5.818zm72.145-36.072l-36.073-9.309v-2.327h-36.073c-3.491 0-5.818 2.327-5.818 5.818s2.327 5.818 5.818 5.818H448c1.164 1.163 2.327 1.163 2.327 0zm-44.218-33.746h-27.927c-3.491 0-5.818 2.327-5.818 5.818 0 3.491 2.327 5.818 5.818 5.818h32.582c-1.164-3.49-3.491-8.145-4.655-11.636zm-8.145-13.964l5.818-9.309h-25.6c-3.491 0-5.818 2.327-5.818 5.818s2.327 5.818 5.818 5.818h22.109c-1.164-1.163-1.164-2.327-2.327-2.327zM360.727 256h50.036l6.982-11.636h-57.018c-3.491 0-5.818 2.327-5.818 5.818s2.327 5.818 5.818 5.818z" fill="#b0c4d9"/><path fill="#d5e3ef" d="M58.182 128h395.636v93.091H58.182z"/><circle cx="34.909" cy="34.909" r="11.636" fill="#f04d4e"/><circle cx="81.455" cy="34.909" r="11.636" fill="#ffcb5b"/><circle cx="128" cy="34.909" r="11.636" fill="#3bb54a"/><path d="M477.091 46.545H174.545c-6.982 0-11.636-4.655-11.636-11.636 0-6.982 4.655-11.636 11.636-11.636H477.09c6.982 0 11.636 4.655 11.636 11.636.001 6.982-4.653 11.636-11.635 11.636z" fill="#e2e7f0"/><path d="M87.273 93.091h69.818c3.491 0 5.818 2.327 5.818 5.818 0 3.491-2.327 5.818-5.818 5.818H87.273c-3.491 0-5.818-2.327-5.818-5.818 0-3.491 2.327-5.818 5.818-5.818zm337.454 0H448c3.491 0 5.818 2.327 5.818 5.818 0 3.491-2.327 5.818-5.818 5.818h-23.273c-3.491 0-5.818-2.327-5.818-5.818 0-3.491 2.327-5.818 5.818-5.818zm-46.545 0h23.273c3.491 0 5.818 2.327 5.818 5.818 0 3.491-2.327 5.818-5.818 5.818h-23.273c-3.491 0-5.818-2.327-5.818-5.818 0-3.491 2.327-5.818 5.818-5.818zm-46.546 0h23.273c3.491 0 5.818 2.327 5.818 5.818 0 3.491-2.327 5.818-5.818 5.818h-23.273c-3.491 0-5.818-2.327-5.818-5.818 0-3.491 2.327-5.818 5.818-5.818zM64 93.091c-3.491 0-5.818 2.327-5.818 5.818 0 3.491 2.327 5.818 5.818 5.818 3.491 0 5.818-2.327 5.818-5.818 0-3.491-2.327-5.818-5.818-5.818zm0 3.491s0-1.164 0 0c0-1.164 0 0 0 0z" fill="#b0c4d8"/><path d="M302.545 174.545H256l-9.309 39.564c-8.145 2.327-15.127 4.655-22.109 6.982h110.545c-6.982-3.491-15.127-5.818-22.109-6.982l-10.473-39.564zm-141.963 46.546H192l-19.782-11.636zm205.963 0h31.419l-11.637-11.636z" fill="#b0c4d9"/><path d="M430.545 360.727v-46.545l-39.564-9.309c-3.491-13.964-9.309-27.927-16.291-39.564l20.945-34.909-32.582-32.582-34.909 20.945c-11.636-6.982-25.6-12.8-39.564-16.291l-9.309-39.564h-46.545l-9.309 39.564c-13.964 3.491-27.927 9.309-39.564 16.291l-34.909-20.945-32.58 32.582 20.945 34.909c-6.982 11.636-12.8 25.6-16.291 39.564l-39.564 9.309v46.545l39.564 9.309c3.491 13.964 9.309 27.927 16.291 39.564l-20.945 34.909 32.582 32.582 34.909-20.945c11.636 6.982 25.6 12.8 39.564 16.291L232.727 512h46.545l9.309-39.564c13.964-3.491 27.927-9.309 39.564-16.291l34.909 20.945 32.582-32.582-20.945-34.908c6.982-11.636 12.8-25.6 16.291-39.564l39.563-9.309zM256 338.618zm-11.636-93.091v84.945l-74.473 43.055c-4.655-10.473-6.982-23.273-6.982-36.073 0-47.709 36.073-86.109 81.455-91.927zM256 430.545c-30.255 0-57.018-15.127-74.473-37.236L256 350.255l74.473 43.055c-17.455 23.272-44.218 37.235-74.473 37.235zm86.109-57.018l-74.473-43.055v-86.109c45.382 5.818 81.455 45.382 81.455 91.927 0 13.965-2.327 25.601-6.982 37.237z" fill="#1470b8"/><path d="M256 430.545v11.636c58.182 0 104.727-46.545 104.727-104.727h-11.636c0 51.201-41.891 93.091-93.091 93.091z" fill="#3689c9"/><path d="M256 244.364v-11.636c-58.182 0-104.727 46.545-104.727 104.727h11.636c0-51.2 41.891-93.091 93.091-93.091z" fill="#0261a5"/><circle cx="256" cy="337.455" r="23.273" fill="#1470b8"/><path d="M265.309 316.509c1.164 3.491 2.327 5.818 2.327 9.309 0 12.8-10.473 23.273-23.273 23.273-3.491 0-6.982-1.164-9.309-2.327 3.491 8.145 11.636 13.964 20.945 13.964 12.8 0 23.273-10.473 23.273-23.273.001-9.31-5.817-17.455-13.963-20.946zm-77.964 82.618l1.164 1.164c-1.164-1.164-1.164-2.327-2.327-2.327 0 1.163 0 1.163 1.163 1.163zm8.146 9.309s0-1.163 0 0c-3.491-3.491-5.818-4.655-8.145-6.982 3.49 2.328 5.818 4.655 8.145 6.982zm-18.618-39.563l-6.982 3.491v1.164c2.327 4.655 4.655 9.309 6.982 12.8l1.164 1.164c1.164 1.164 2.327 3.491 3.491 4.655l3.491-1.164c-3.492-6.983-6.983-13.965-8.146-22.11zm67.491-123.346v13.964c6.982-2.327 15.127-3.491 23.273-3.491v-10.473c-3.491 0-8.145-1.164-11.636-1.164-3.492.001-8.146.001-11.637 1.164zm-62.837 147.782c1.164 2.327 2.327 3.491 4.655 4.655l-4.655-4.655z" fill="#0261a5"/></svg>