<svg xmlns="http://www.w3.org/2000/svg" width="100" height="100" viewBox="0 0 512 512"><path d="M197.818 500.364h-81.455c-6.982 0-11.636-4.655-11.636-11.636 0-6.982 4.655-11.636 11.636-11.636h81.455c6.982 0 11.636 4.655 11.636 11.636.001 6.981-4.654 11.636-11.636 11.636z" fill="#99b4cd"/><path d="M116.364 500.364h81.455c6.982 0 11.636-4.655 11.636-11.636H104.727c0 6.981 4.655 11.636 11.637 11.636z" fill="#6c9abb"/><path d="M256 477.091c-6.982 0-11.636-4.655-11.636-11.636V360.727c0-6.982 4.655-11.636 11.636-11.636 6.982 0 11.636 4.655 11.636 11.636v104.727c0 6.982-4.654 11.637-11.636 11.637z" fill="#99b4cd"/><path d="M465.455 139.636v93.091c0 6.982-4.655 11.636-11.636 11.636H58.182c-6.982 0-11.636-4.655-11.636-11.636v-93.091c0-6.982 4.655-11.636 11.636-11.636h395.636c6.982 0 11.637 4.655 11.637 11.636zm0-128v93.091c0 6.982-4.655 11.636-11.636 11.636H58.182c-6.982 0-11.636-4.655-11.636-11.636V11.636C46.545 4.655 51.2 0 58.182 0h395.636c5.818 0 11.637 4.655 11.637 11.636zm0 256v93.091c0 5.818-5.818 11.636-11.636 11.636H58.182c-6.982 0-11.636-5.818-11.636-11.636v-93.091c0-6.982 4.655-11.636 11.636-11.636h395.636c6.982 0 11.637 4.655 11.637 11.636z" fill="#595a66"/><path d="M395.636 500.364h-81.455c-6.982 0-11.636-4.655-11.636-11.636 0-6.982 4.655-11.636 11.636-11.636h81.455c6.982 0 11.636 4.655 11.636 11.636.001 6.981-4.654 11.636-11.636 11.636z" fill="#99b4cd"/><path d="M244.364 81.455c-6.982 0-11.636-4.655-11.636-11.636V46.545c0-6.982 4.655-11.636 11.636-11.636 6.982 0 11.636 4.655 11.636 11.636v23.273c0 6.982-4.655 11.637-11.636 11.637zm34.909 0c-6.982 0-11.636-4.655-11.636-11.636V46.545c0-6.982 4.655-11.636 11.636-11.636s11.636 4.655 11.636 11.636v23.273c0 6.982-4.654 11.637-11.636 11.637zm34.909 0c-6.982 0-11.636-4.655-11.636-11.636V46.545c0-6.982 4.655-11.636 11.636-11.636s11.636 4.655 11.636 11.636v23.273c0 6.982-4.654 11.637-11.636 11.637zm34.909 0c-6.982 0-11.636-4.655-11.636-11.636V46.545c0-6.982 4.655-11.636 11.636-11.636 6.982 0 11.636 4.655 11.636 11.636v23.273c0 6.982-4.654 11.637-11.636 11.637zm34.909 0c-6.982 0-11.636-4.655-11.636-11.636V46.545c0-6.982 4.655-11.636 11.636-11.636 6.982 0 11.636 4.655 11.636 11.636v23.273c0 6.982-4.654 11.637-11.636 11.637zm34.909 0c-6.982 0-11.636-4.655-11.636-11.636V46.545c0-6.982 4.655-11.636 11.636-11.636 6.982 0 11.636 4.655 11.636 11.636v23.273c0 6.982-4.654 11.637-11.636 11.637zm-174.545 128c-6.982 0-11.636-4.655-11.636-11.636v-23.273c0-6.982 4.655-11.636 11.636-11.636 6.982 0 11.636 4.655 11.636 11.636v23.273c0 6.981-4.655 11.636-11.636 11.636zm34.909 0c-6.982 0-11.636-4.655-11.636-11.636v-23.273c0-6.982 4.655-11.636 11.636-11.636s11.636 4.655 11.636 11.636v23.273c0 6.981-4.654 11.636-11.636 11.636zm34.909 0c-6.982 0-11.636-4.655-11.636-11.636v-23.273c0-6.982 4.655-11.636 11.636-11.636s11.636 4.655 11.636 11.636v23.273c0 6.981-4.654 11.636-11.636 11.636zm34.909 0c-6.982 0-11.636-4.655-11.636-11.636v-23.273c0-6.982 4.655-11.636 11.636-11.636 6.982 0 11.636 4.655 11.636 11.636v23.273c0 6.981-4.654 11.636-11.636 11.636zm34.909 0c-6.982 0-11.636-4.655-11.636-11.636v-23.273c0-6.982 4.655-11.636 11.636-11.636 6.982 0 11.636 4.655 11.636 11.636v23.273c0 6.981-4.654 11.636-11.636 11.636zm34.909 0c-6.982 0-11.636-4.655-11.636-11.636v-23.273c0-6.982 4.655-11.636 11.636-11.636 6.982 0 11.636 4.655 11.636 11.636v23.273c0 6.981-4.654 11.636-11.636 11.636zm-174.545 128c-6.982 0-11.636-4.655-11.636-11.636v-23.273c0-6.982 4.655-11.636 11.636-11.636 6.982 0 11.636 4.655 11.636 11.636v23.273c0 6.981-4.655 11.636-11.636 11.636zm34.909 0c-6.982 0-11.636-4.655-11.636-11.636v-23.273c0-6.982 4.655-11.636 11.636-11.636s11.636 4.655 11.636 11.636v23.273c0 6.981-4.654 11.636-11.636 11.636zm34.909 0c-6.982 0-11.636-4.655-11.636-11.636v-23.273c0-6.982 4.655-11.636 11.636-11.636s11.636 4.655 11.636 11.636v23.273c0 6.981-4.654 11.636-11.636 11.636zm34.909 0c-6.982 0-11.636-4.655-11.636-11.636v-23.273c0-6.982 4.655-11.636 11.636-11.636 6.982 0 11.636 4.655 11.636 11.636v23.273c0 6.981-4.654 11.636-11.636 11.636zm34.909 0c-6.982 0-11.636-4.655-11.636-11.636v-23.273c0-6.982 4.655-11.636 11.636-11.636 6.982 0 11.636 4.655 11.636 11.636v23.273c0 6.981-4.654 11.636-11.636 11.636zm34.909 0c-6.982 0-11.636-4.655-11.636-11.636v-23.273c0-6.982 4.655-11.636 11.636-11.636 6.982 0 11.636 4.655 11.636 11.636v23.273c0 6.981-4.654 11.636-11.636 11.636z" fill="#35363e"/><circle cx="93.091" cy="314.182" r="11.636" fill="#89c763"/><circle cx="128" cy="314.182" r="11.636" fill="#ffcb5b"/><g fill="#89c763"><circle cx="162.909" cy="314.182" r="11.636"/><circle cx="93.091" cy="186.182" r="11.636"/><circle cx="128" cy="186.182" r="11.636"/></g><circle cx="162.909" cy="186.182" r="11.636" fill="#ffcb5b"/><circle cx="93.091" cy="58.182" r="11.636" fill="#89c763"/><g fill="#ffcb5b"><circle cx="128" cy="58.182" r="11.636"/><circle cx="162.909" cy="58.182" r="11.636"/></g><path fill="#6c9abb" d="M244.364 372.364V384H256v81.455h11.636v-93.091z"/><path d="M308.364 267.636H87.273c-3.491 0-5.818-2.327-5.818-5.818 0-3.491 2.327-5.818 5.818-5.818h221.091c3.491 0 5.818 2.327 5.818 5.818 0 3.491-2.327 5.818-5.818 5.818zm-11.637-128H75.636c-3.491 0-5.818-2.327-5.818-5.818 0-3.491 2.327-5.818 5.818-5.818h221.091c3.491 0 5.818 2.327 5.818 5.818 0 3.491-2.327 5.818-5.818 5.818zm0-128H75.636c-3.491 0-5.818-2.327-5.818-5.818C69.818 2.327 72.145 0 75.636 0h221.091c3.491 0 5.818 2.327 5.818 5.818 0 3.491-2.327 5.818-5.818 5.818z" fill="#6f707e"/><path d="M314.182 500.364h81.455c6.982 0 11.636-4.655 11.636-11.636H302.545c0 6.981 4.655 11.636 11.637 11.636z" fill="#6c9abb"/><path d="M290.909 512h-69.818c-12.8 0-23.273-10.473-23.273-23.273 0-12.8 10.473-23.273 23.273-23.273h69.818c12.8 0 23.273 10.473 23.273 23.273 0 12.8-10.473 23.273-23.273 23.273z" fill="#595a66"/><path d="M290.909 512h-69.818v-11.636c0-6.982 4.655-11.636 11.636-11.636h81.455c0 12.799-10.473 23.272-23.273 23.272zM459.636 23.273c-3.491 0-5.818 2.327-5.818 5.818v75.636H46.545c0 6.982 4.655 11.636 11.636 11.636h395.636c6.982 0 11.636-4.655 11.636-11.636V29.091c.002-3.491-2.326-5.818-5.817-5.818zm0 128c-3.491 0-5.818 2.327-5.818 5.818v75.636H46.545c0 6.982 4.655 11.636 11.636 11.636h395.636c6.982 0 11.636-4.655 11.636-11.636v-75.636c.002-3.491-2.326-5.818-5.817-5.818zm0 128c-3.491 0-5.818 2.327-5.818 5.818v75.636H46.545c0 6.982 4.655 11.636 11.636 11.636h395.636c6.982 0 11.636-4.655 11.636-11.636v-75.636c.002-3.491-2.326-5.818-5.817-5.818z" fill="#494a52"/><path d="M81.455 244.364h349.091V256H81.455zm0-128h349.091V128H81.455z" fill="#35363e"/></svg>