<svg xmlns="http://www.w3.org/2000/svg" width="100" height="100" fill="#1fa1af" viewBox="0 0 512 512"><path d="M467 0H45C20.187 0 0 20.187 0 45v422c0 24.813 20.187 45 45 45h422c24.813 0 45-20.187 45-45V45c0-24.813-20.187-45-45-45zM30 45c0-8.271 6.729-15 15-15h317v90H30V45zm452 422c0 8.271-6.729 15-15 15H45c-8.271 0-15-6.729-15-15V150h452v317zm0-347h-90V30h75c8.271 0 15 6.729 15 15v75z"/><path d="M105 60H75c-8.284 0-15 6.716-15 15s6.716 15 15 15h30c8.284 0 15-6.716 15-15s-6.716-15-15-15zm91 0h-30c-8.284 0-15 6.716-15 15s6.716 15 15 15h30c8.284 0 15-6.716 15-15s-6.716-15-15-15zm90 0h-30c-8.284 0-15 6.716-15 15s6.716 15 15 15h30c8.284 0 15-6.716 15-15s-6.716-15-15-15zm151 362h-15V226c0-8.284-6.716-15-15-15h-60c-8.284 0-15 6.716-15 15v196h-31V286c0-8.284-6.716-15-15-15h-60c-8.284 0-15 6.716-15 15v136h-30v-76c0-8.284-6.716-15-15-15h-61c-8.284 0-15 6.716-15 15v76H75c-8.284 0-15 6.716-15 15s6.716 15 15 15h362c8.284 0 15-6.716 15-15s-6.716-15-15-15zm-286 0h-31v-61h31v61zm120 0h-30V301h30v121zm121 0h-30V241h30v181z"/></svg>