<svg xmlns="http://www.w3.org/2000/svg" width="100" height="100" viewBox="0 0 512 512"><path d="M348.942 418.909H162.76c-6.982 0-11.636-4.655-11.636-11.636s4.655-11.636 11.636-11.636h186.182c6.982 0 11.636 4.655 11.636 11.636s-4.654 11.636-11.636 11.636z" fill="#35495c"/><path d="M187.196 400.291l1.164-4.655h-24.436l-4.655 11.636h-8.145c0 4.655 3.491 9.309 8.145 10.473 1.164 0 2.327 1.164 3.491 1.164h186.182c6.982 0 11.636-4.655 11.636-11.636H193.015c-3.491 0-6.982-3.491-5.819-6.982z" fill="#123247"/><path d="M407.124 488.727h-15.127L341.96 349.091h-24.436l55.855 154.764c1.164 4.655 5.818 8.145 10.473 8.145h23.273c6.982 0 11.636-4.655 11.636-11.636s-4.655-11.637-11.637-11.637zM169.742 349.091l-50.036 139.636h-15.127c-6.982 0-11.636 4.655-11.636 11.636S97.596 512 104.578 512h23.273c4.655 0 9.309-3.491 10.473-8.145l55.855-154.764h-24.437z" fill="#576d7e"/><path d="M407.124 488.727h-11.636c6.982 0 11.636 4.655 11.636 11.636S402.469 512 395.487 512h11.636c6.982 0 11.636-4.655 11.636-11.636s-4.653-11.637-11.635-11.637z" fill="#35495c"/><path d="M453.669 349.091H58.033c-19.782 0-34.909-15.127-34.909-34.909V46.545h465.455v267.636c-.001 19.783-15.128 34.91-34.91 34.91z" fill="#b0c4d8"/><path d="M341.96 349.091h-24.436l8.145 23.273c8.145 0 15.127 4.655 17.455 12.8l33.745 93.091c2.327 6.982 8.145 10.473 15.127 10.473l-48.873-136.145-1.163-3.492zm-159.418 0h-12.8l-8.145 23.273h2.327c4.655 0 8.145 4.655 6.982 9.309l-43.055 122.182c-2.327 4.655-6.982 8.145-11.636 8.145h11.636c4.655 0 9.309-3.491 10.473-8.145l55.855-154.764h-11.637z" fill="#35495c"/><path d="M465.306 58.182v256H46.396c0 12.8 10.473 23.273 23.273 23.273h384c12.8 0 23.273-10.473 23.273-23.273V104.727c0-6.982 4.655-11.636 11.636-11.636V58.182h-23.272z" fill="#99b4cd"/><path d="M453.669 325.818H58.033c-6.982 0-11.636-4.655-11.636-11.636V69.818h418.909v244.364c0 6.982-4.655 11.636-11.637 11.636z" fill="#eceff9"/><g fill="#b0c4d8"><path d="M197.669 290.909c-2.327 0-4.655-1.164-6.982-2.327-4.655-3.491-6.982-10.473-2.327-16.291l58.182-81.455c3.491-5.818 10.473-6.982 16.291-2.327 4.655 3.491 6.982 10.473 2.327 16.291l-58.182 81.455c-2.327 3.49-5.818 4.654-9.309 4.654z"/><path d="M337.306 244.364c-1.164 0-3.491 0-4.655-1.164l-81.455-34.909c-5.818-2.327-8.145-9.309-5.818-15.127 2.327-5.818 9.309-8.145 15.127-5.818l81.455 34.909c5.818 2.327 8.145 9.309 5.818 15.127-1.163 4.654-5.818 6.982-10.472 6.982z"/></g><path d="M337.306 232.727c-1.164 0-3.491 0-4.655-1.164l-81.455-34.909c-2.327-1.164-3.491-2.327-5.818-4.655l-1.164 1.164c-2.327 5.818 0 12.8 5.818 15.127l81.455 34.909c2.327 1.164 4.655 1.164 5.818 1.164 4.655 0 9.309-2.327 10.473-6.982 1.164-3.491 1.164-6.982-1.164-10.473-1.163 3.492-5.818 5.819-9.308 5.819z" fill="#99b4cd"/><path d="M337.306 244.364c-2.327 0-4.655 0-5.818-2.327-5.818-3.491-6.982-10.473-3.491-16.291l58.182-93.091c3.491-5.818 10.473-6.982 16.291-3.491s6.982 10.473 3.491 16.291l-58.182 93.091c-2.328 3.49-6.983 5.818-10.473 5.818zm-139.637 46.545c-1.164 0-3.491 0-4.655-1.164l-81.455-34.909c-5.818-2.327-8.145-9.309-5.818-15.127 2.327-5.818 9.309-8.145 15.127-5.818l81.455 34.909c5.818 2.327 8.145 9.309 5.818 15.127-1.163 4.655-5.817 6.982-10.472 6.982z" fill="#b0c4d8"/><path d="M206.978 273.455c-1.164 3.491-5.818 5.818-9.309 5.818-1.164 0-3.491 0-4.655-1.164L111.56 243.2c-2.327-1.164-3.491-2.327-5.818-4.655l-1.164 1.164c-2.327 5.818 0 12.8 5.818 15.127l81.455 34.909c2.327 1.164 4.655 1.164 5.818 1.164 4.655 0 9.309-2.327 10.473-6.982 1.164-3.491 1.164-6.982-1.164-10.472z" fill="#99b4cd"/><circle cx="197.669" cy="279.273" r="23.273" fill="#ee2c39"/><g fill="#3bb54a"><circle cx="116.215" cy="244.364" r="23.273"/><circle cx="255.851" cy="197.818" r="23.273"/></g><circle cx="337.306" cy="232.727" r="23.273" fill="#ee2c39"/><circle cx="395.487" cy="139.636" r="23.273" fill="#3bb54a"/><path d="M374.542 150.109l-2.327 4.655c0 2.327 1.164 5.818 2.327 6.982 2.327 4.655 2.327 9.309 0 13.964l-24.436 38.4c2.327 2.327 4.655 4.655 6.982 8.145l30.255-48.873 6.982-10.473c-8.147 0-15.129-5.818-19.783-12.8zm-139.636 57.018l-2.327 3.491c0 3.491 1.164 5.818 2.327 8.145 2.327 4.655 1.164 10.473-1.164 13.964l-20.945 29.091c2.327 2.327 4.655 4.655 5.818 8.145l27.927-38.4 6.982-10.473c-8.146-1.163-15.128-5.817-18.618-13.963z" fill="#99b4cd"/><path d="M353.596 249.018c6.982-6.982 8.145-18.618 4.655-26.764-1.164-3.491-6.982-3.491-9.309-1.164l-23.273 23.273c-2.327 2.327-2.327 6.982 1.164 9.309 9.309 4.655 19.782 2.328 26.763-4.654zM213.96 295.564c6.982-6.982 8.145-18.618 4.655-26.764-1.164-3.491-6.982-3.491-9.309-1.164l-23.273 23.273c-2.327 2.327-2.327 6.982 1.164 9.309 9.309 4.655 19.781 2.327 26.763-4.654z" fill="#cc202c"/><path d="M411.778 155.927c6.982-6.982 8.145-18.618 4.655-26.764-1.164-3.491-6.982-3.491-9.309-1.164l-23.273 23.273c-2.327 2.327-2.327 6.982 1.164 9.309 9.309 4.655 19.781 2.328 26.763-4.654zm-139.636 58.182c6.982-6.982 8.145-18.618 4.655-26.764-1.164-3.491-6.982-3.491-9.309-1.164l-23.273 23.273c-2.327 2.327-2.327 6.982 1.164 9.309 9.308 4.655 19.781 2.328 26.763-4.654zm-139.636 46.546c6.982-6.982 8.145-18.618 4.655-26.764-1.164-3.491-6.982-3.491-9.309-1.164L104.578 256c-2.327 2.327-2.327 6.982 1.164 9.309 9.309 4.655 19.782 2.327 26.764-4.654z" fill="#0e9347"/><path fill="#c4d7e5" d="M46.396 69.818h418.909v23.273H46.396z"/><path fill="#99b4cd" d="M23.124 58.182h23.273v34.909H23.124z"/><path d="M476.942 69.818H34.76c-12.8 0-23.273-10.473-23.273-23.273 0-12.8 10.473-23.273 23.273-23.273h442.182c12.8 0 23.273 10.473 23.273 23.273 0 12.8-10.473 23.273-23.273 23.273z" fill="#4c9cd6"/><path d="M52.215 23.273h69.818c3.491 0 5.818 2.327 5.818 5.818 0 3.491-2.327 5.818-5.818 5.818H52.215c-3.491 0-5.818-2.327-5.818-5.818-.001-3.491 2.327-5.818 5.818-5.818z" fill="#70b7e5"/><path d="M98.76 116.364h69.818c3.491 0 5.818 2.327 5.818 5.818 0 3.491-2.327 5.818-5.818 5.818H98.76c-3.491 0-5.818-2.327-5.818-5.818 0-3.491 2.327-5.818 5.818-5.818zm0 23.272h58.182c3.491 0 5.818 2.327 5.818 5.818 0 3.491-2.327 5.818-5.818 5.818H98.76c-3.491 0-5.818-2.327-5.818-5.818 0-3.49 2.327-5.818 5.818-5.818z" fill="#99b4cd"/><path d="M145.306 34.909c-3.491 0-5.818-2.327-5.818-5.818 0-3.491 2.327-5.818 5.818-5.818 3.491 0 5.818 2.327 5.818 5.818 0 3.491-2.328 5.818-5.818 5.818z" fill="#70b7e5"/><path d="M267.487 23.273h-23.273V11.636C244.215 4.655 248.869 0 255.851 0s11.636 4.655 11.636 11.636v11.637z" fill="#576d7e"/><path d="M267.487 23.273v-5.818c0-3.491-2.327-5.818-5.818-5.818-3.491 0-5.818 2.327-5.818 5.818v5.818h11.636z" fill="#35495c"/><path d="M75.487 116.364c-3.491 0-5.818 2.327-5.818 5.818 0 3.491 2.327 5.818 5.818 5.818 3.491 0 5.818-2.327 5.818-5.818.001-3.491-2.327-5.818-5.818-5.818zm0 3.491s0-1.164 0 0c0-1.164 0 0 0 0z" fill="#ee2c39"/><path d="M75.487 139.636c-3.491 0-5.818 2.327-5.818 5.818 0 3.491 2.327 5.818 5.818 5.818 3.491 0 5.818-2.327 5.818-5.818.001-3.49-2.327-5.818-5.818-5.818zm0 3.491z" fill="#3bb54a"/><path d="M476.942 23.273c0 12.8-10.473 23.273-23.273 23.273H11.487c0 12.8 10.473 23.273 23.273 23.273h441.018c11.636 0 22.109-8.145 24.436-19.782 2.328-13.964-9.308-26.764-23.272-26.764z" fill="#3689c9"/><path d="M389.669 58.182h69.818c3.491 0 5.818 2.327 5.818 5.818 0 3.491-2.327 5.818-5.818 5.818h-69.818c-3.491 0-5.818-2.327-5.818-5.818 0-3.491 2.327-5.818 5.818-5.818zm-58.182 0h34.909c3.491 0 5.818 2.327 5.818 5.818 0 3.491-2.327 5.818-5.818 5.818h-34.909c-3.491 0-5.818-2.327-5.818-5.818 0-3.491 2.327-5.818 5.818-5.818z" fill="#1470b8"/></svg>