<svg xmlns="http://www.w3.org/2000/svg" width="100" height="100" viewBox="0 0 512 512"><path d="M315.632 452.32l-14.4-81.84-13.664 1.136 14.384 81.84zm-119.264 0l14.4-81.84 13.664 1.136-14.384 81.84z" fill="#dae5ef"/><path d="M302.864 379.616c59.232-93.616 124-98.096 124-208.752C426.864 76.528 350.336 0 256 0 161.6 0 85.136 76.528 85.136 170.864c0 110.656 64.768 115.136 124 208.752h93.728z" fill="#e24b4b"/><path d="M289.712 379.616c42.624-93.616 89.2-98.096 89.2-208.752C378.928 76.528 323.872 0 256 0c-67.92 0-122.928 76.528-122.928 170.864 0 110.656 46.592 115.136 89.2 208.752h67.44z" fill="#ffd93b"/><path d="M275.936 379.616c25.2-93.616 52.736-98.096 52.736-208.752C328.672 76.528 296.128 0 256 0c-40.144 0-72.672 76.528-72.672 170.864 0 110.656 27.536 115.136 52.736 208.752h39.872z" fill="#e24b4b"/><path d="M263.44 379.616c9.392-93.616 19.664-98.096 19.664-208.752C283.104 76.528 270.96 0 256 0c-14.976 0-27.104 76.528-27.104 170.864 0 110.656 10.272 115.136 19.664 208.752h14.88z" fill="#ffd93b"/><path d="M187.344 349.008c7.264 9.12 14.56 19.2 21.792 30.608h93.728a344.26 344.26 0 0 1 21.792-30.608H187.344z" fill="#505356"/><path d="M296.704 512h-81.408c-17.68 0-32-14.32-32-32v-54.688h145.408V480c0 17.68-14.32 32-32 32z" fill="#a4856d"/><path d="M329.248 414.832H182.736c-6.944 0-12.576 5.632-12.576 12.576v.96c0 6.944 5.632 12.576 12.576 12.576h146.512c6.944 0 12.576-5.632 12.576-12.576v-.96c0-6.944-5.632-12.576-12.576-12.576z" fill="#997960"/></svg>