<svg xmlns="http://www.w3.org/2000/svg" width="100" height="100" fill="#1fa1af" viewBox="0 0 512.004 512.004"><path d="M384.002 119.469c-4.719 0-8.533 3.823-8.533 8.533s3.814 8.533 8.533 8.533h45.414l27.315 68.267h-123.93a8.53 8.53 0 0 0-8.533 8.533 8.53 8.53 0 0 0 8.533 8.533h136.533a8.532 8.532 0 0 0 7.066-3.755 8.54 8.54 0 0 0 .862-7.953l-32.87-82.159 32.87-82.159a8.556 8.556 0 0 0-.862-7.962 8.544 8.544 0 0 0-7.066-3.746h-85.333a8.53 8.53 0 0 0-8.533 8.533 8.53 8.53 0 0 0 8.533 8.533h72.73l-27.315 68.267h-45.414z"/><path d="M221.869 295.136V17.069h119.467v68.267h-93.867a8.53 8.53 0 0 0-8.533 8.533 8.53 8.53 0 0 0 8.533 8.533h93.867v68.267h-93.867c-4.719 0-8.533 3.823-8.533 8.533s3.814 8.533 8.533 8.533h102.4a8.53 8.53 0 0 0 8.533-8.533V8.535a8.53 8.53 0 0 0-8.533-8.533H213.335a8.53 8.53 0 0 0-8.533 8.533v286.601l-202.3 202.3a8.525 8.525 0 0 0 0 12.066c1.664 1.664 3.849 2.5 6.033 2.5s4.369-.836 6.033-2.5l198.767-198.767 107.401 107.401-22.067 22.067-28.1-28.1a8.523 8.523 0 0 0-12.066 0l-45.167 45.167-36.634-36.634a8.525 8.525 0 0 0-12.066 0l-45.167 45.167-15.036-15.036c-3.328-3.328-8.73-3.328-12.066 0-3.328 3.337-3.328 8.738 0 12.066l21.069 21.069a8.525 8.525 0 0 0 12.066 0l45.167-45.167 36.634 36.634a8.525 8.525 0 0 0 12.066 0l45.167-45.167 28.1 28.1a8.523 8.523 0 0 0 12.066 0l34.133-34.133a8.523 8.523 0 0 0 0-12.066L221.869 295.136z"/><path d="M509.502 497.436L364.435 352.369a8.523 8.523 0 0 0-12.066 0l-21.197 21.197c-3.337 3.336-3.337 8.738 0 12.066 3.328 3.337 8.73 3.337 12.066 0l15.164-15.164 139.034 139.034c1.664 1.664 3.849 2.5 6.033 2.5s4.369-.836 6.033-2.5a8.525 8.525 0 0 0 0-12.066zm-93.491-38.042l-14.942 14.942-40.542-40.542a8.525 8.525 0 0 0-12.066 0 8.523 8.523 0 0 0 0 12.066l46.575 46.575a8.51 8.51 0 0 0 6.033 2.5 8.509 8.509 0 0 0 6.033-2.5l20.975-20.975a8.523 8.523 0 0 0 0-12.066 8.525 8.525 0 0 0-12.066 0z"/></svg>