<svg xmlns="http://www.w3.org/2000/svg" width="100" height="100" viewBox="0 0 512 512"><path d="M290.909 488.727l-8.145 16.291c-2.327 3.491-5.818 6.982-10.473 6.982h-32.582c-4.655 0-8.145-2.327-10.473-6.982l-8.145-16.291h69.818z" fill="#b0c4d8"/><path d="M256 0c89.6 0 162.909 72.145 162.909 160.582 0 50.036-22.109 96.582-60.509 124.509-31.418 23.273-44.218 53.527-44.218 87.273H197.818c0-33.745-13.964-64-44.218-87.273-38.4-27.927-60.509-74.473-60.509-124.509C93.091 72.145 166.4 0 256 0z" fill="#ffe27a"/><path d="M215.273 325.818c-4.655 0-8.145-2.327-10.473-5.818-8.145-16.291-20.945-30.255-37.236-43.055-4.655-3.491-5.818-11.636-2.327-16.291 3.491-4.655 11.636-5.818 16.291-2.327 18.618 13.964 33.745 31.418 44.218 51.2 3.491 5.818 1.164 12.8-4.655 15.127-2.327 1.164-4.655 1.164-5.818 1.164z" fill="#ffeda9"/><path d="M186.182 67.491c-3.491 0-6.982-2.327-9.309-5.818-3.491-5.818-2.327-12.8 3.491-16.291C202.473 31.418 229.236 23.273 256 23.273c6.982 0 11.636 4.655 11.636 11.636S262.982 46.545 256 46.545c-22.109 0-44.218 6.982-64 18.618-1.164 1.164-3.491 2.328-5.818 2.328zm-37.237 37.236c-2.327 0-4.655-1.164-5.818-2.327-5.818-3.491-6.982-10.473-3.491-16.291 2.327-4.655 5.818-8.145 9.309-12.8 4.655-4.655 11.636-5.818 16.291-1.164 4.655 4.655 5.818 11.636 1.164 16.291-2.327 3.491-5.818 6.982-8.145 10.473s-5.819 5.818-9.31 5.818z" fill="#fffcd5"/><path d="M325.818 16.291c36.073 33.745 46.545 82.618 46.545 134.982 0 57.018-26.764 107.055-69.818 139.636-29.091 22.109-6.982 50.036-11.636 81.455h23.273c0-33.745 13.964-64 44.218-87.273 37.236-27.927 60.509-74.473 60.509-124.509 0-64-38.4-118.691-93.091-144.291z" fill="#ffcb5b"/><path d="M314.182 488.727H197.818c-6.982 0-11.636-4.655-11.636-11.636V384c0-6.982 4.655-11.636 11.636-11.636h116.364c6.982 0 11.636 4.655 11.636 11.636v93.091c0 6.982-4.654 11.636-11.636 11.636z" fill="#c4d7e5"/><path d="M314.182 372.364h-46.545c6.982 0 11.636 4.655 11.636 11.636v93.091c0 6.982-4.655 11.636-11.636 11.636h46.545c6.982 0 11.636-4.655 11.636-11.636V384c0-6.982-4.654-11.636-11.636-11.636z" fill="#b0c9db"/><path d="M197.818 488.727h11.636c-6.982 0-11.636-4.655-11.636-11.636V384c0-6.982 4.655-11.636 11.636-11.636h-11.636c-6.982 0-11.636 4.655-11.636 11.636v93.091c0 6.982 4.654 11.636 11.636 11.636z" fill="#d5e3ef"/><path d="M325.818 384h-87.273c-3.491 0-5.818 2.327-5.818 5.818 0 3.491 2.327 5.818 5.818 5.818h87.273V384z" fill="#99b4cd"/><path fill="#82a7c4" d="M279.273 384h46.545v11.636h-46.545z"/><path d="M325.818 430.545H215.273c-3.491 0-5.818 2.327-5.818 5.818s2.327 5.818 5.818 5.818h110.545v-11.636z" fill="#99b4cd"/><path fill="#82a7c4" d="M279.273 430.545h46.545v11.636h-46.545z"/><path d="M186.182 418.909h110.545c3.491 0 5.818-2.327 5.818-5.818s-2.327-5.818-5.818-5.818H186.182v11.636z" fill="#99b4cd"/><path fill="#b0c4d9" d="M186.182 407.273h11.636v11.636h-11.636z"/><path d="M186.182 465.455h87.273c3.491 0 5.818-2.327 5.818-5.818s-2.327-5.818-5.818-5.818h-87.273v11.636z" fill="#99b4cd"/><path fill="#b0c4d9" d="M186.182 453.818h11.636v11.636h-11.636z"/><path d="M290.909 488.727h-69.818l5.818 11.636h34.909l-2.327 4.655c-2.327 3.491-5.818 6.982-10.473 6.982h23.273c4.655 0 8.145-2.327 10.473-6.982l8.145-16.291z" fill="#99b4cd"/><g fill="#f19920"><circle cx="256" cy="244.364" r="11.636"/><path d="M267.636 209.455h-23.272l-11.637-93.091h46.546z"/></g></svg>