<svg xmlns="http://www.w3.org/2000/svg" width="100" height="100" viewBox="0 0 512 512"><path d="M512 88.648v334.72c0 10.16-8.512 17.968-18.848 17.376L13.408 412.68c-4.432-.256-8.336-2.976-10.736-6.832-1.6-2.72-2.672-6.032-2.672-9.44v-280.8c0-8.528 6.016-15.856 13.408-16.288l479.744-28.064C503.488 70.664 512 78.488 512 88.648z" fill="#428dc3"/><path d="M512 112.28v311.088c0 10.16-8.512 17.968-18.848 17.376L13.408 412.68c-4.432-.256-8.336-2.976-10.736-6.832-1.6-2.72-2.672-6.032-2.672-9.44v-2.32c41.456-113.52 197.168-222.608 421.376-267.632 29.984-5.984 60.192-10.784 90.624-14.176z" fill="#59a5e0"/><path d="M512 247.88v175.488c0 10.16-8.512 17.968-18.848 17.376L13.408 412.68c-4.432-.256-8.336-2.976-10.736-6.832 51.376-69.68 158.192-129.632 298.656-153.12 71.248-11.904 143.12-13.168 210.672-4.848z" fill="#65b1ef"/><path d="M82.96 213.016l-37.44.592c-7.6.112-13.728-6.8-13.728-15.472V156.2c0-8.656 6.128-15.936 13.728-16.272l37.424-1.6c7.856-.336 14.256 6.576 14.256 15.456v42.96c.016 8.864-6.384 16.144-14.24 16.272z" fill="#e9eff4"/></svg>