<svg xmlns="http://www.w3.org/2000/svg" width="100" height="100" viewBox="0 0 509.414 509.414"><path d="M329.28 57.866c-8.928 4.224-17.392 9.632-25.392 16.224 1.76 1.056 3.296 2.352 4.704 3.76 1.648 1.648 3.056 3.52 4.224 5.408 7.872-6.224 16.336-11.408 25.04-15.392a82.641 82.641 0 0 0-8.576-10z" fill="#ffd436"/><path fill="#ffd93b" d="M0 322.026l3.248 55.808 54.08 1.504 11.888-11.888v-30.848h30.848l9.968-9.968-.016-30.848h30.864l38.176-38.176-57.328-57.328z"/><path d="M106.192 253.642c-78.784 78.784-87.312 70.256-8.528-8.528l57.904-57.904 8.528 8.528-57.904 57.904z" fill="#f4c534"/><path d="M164.144 54.01c-29.792 29.792-39.584 72.048-29.488 110.032l-24.544 24.544 80.656 80.64 24.544-24.544c38 10.096 80.256.304 110.032-29.488 44.528-44.528 44.528-116.768 0-161.296-44.432-44.416-116.672-44.416-161.2.112zm140.208 82.832l-61.84-61.84c17.12-17.12 44.736-17.024 61.744 0 17.12 17.104 17.216 44.72.096 61.84z" fill="#5a5f63"/><path d="M489.936 276.25l-61.072-61.072c-25.968-25.968-68.064-25.968-94.032 0l-99.056 99.056c-25.968 25.968-25.968 68.064 0 94.032l61.088 61.072c25.968 25.968 68.064 25.968 94.032 0l99.056-99.056c25.952-25.952 25.952-68.064-.016-94.032zm-58.576 46.608l-47.6-47.6c-5.152-5.152-5.152-13.584 0-18.736 5.152-5.152 13.584-5.152 18.736 0l47.6 47.6c5.152 5.152 5.152 13.584 0 18.736-5.152 5.152-13.584 5.152-18.736 0z" fill="#3e4347"/><path d="M393.264 284.746c-29.072 2.576-58.992-6.208-82.432-26.352-4.064 2.08-8.064 4.224-11.92 6.464 29.328 27.248 68.704 37.68 105.76 31.296l-11.408-11.408z" fill="#ed2b35"/><path d="M471.136 85.866c-38.24-38.24-95.68-46.24-141.92-23.84-8.8 4.32-17.28 9.76-25.28 16.32-2.88 2.24-5.6 4.96-8.32 7.52-7.36 7.36-13.6 15.36-18.56 23.68l9.44 9.44c4.64-8.64 10.72-16.64 18.08-24 2.56-2.56 5.44-5.12 8.32-7.52 7.84-6.24 16.32-11.36 24.96-15.36 40.96-18.24 90.72-10.56 124.32 22.88 42.72 42.72 43.36 111.84 2.08 155.68l8.96 8.96c46.56-48.48 45.6-125.92-2.08-173.76zm-47.52 191.84c-9.76 3.84-20 6.24-30.4 7.04-28.96 2.72-59.04-6.08-82.4-26.24-2.08-1.92-4.16-3.84-6.4-5.92-6.24-6.24-11.68-13.44-16.32-20.8-4 1.28-8.48 2.4-12.8 3.2 5.28 9.44 12.32 18.56 20.32 26.56l3.2 3.36c29.44 27.2 68.8 37.6 105.76 31.2 9.92-1.6 19.68-4.64 28.8-8.64l-9.76-9.76z" fill="#dae5ef"/><ellipse cx="289.448" cy="351.282" rx="30.608" ry="30.608" fill="#e24b4b"/><ellipse cx="355.2" cy="417.12" rx="30.608" ry="30.608" fill="#65b1ef"/></svg>