<svg xmlns="http://www.w3.org/2000/svg" width="100" height="100" viewBox="0 0 488.727 488.727"><path d="M384 342.691l31.418-31.418c2.327-2.327 4.655-3.491 8.145-3.491h25.6c3.491 0 5.818-1.164 8.145-3.491l31.418-31.418v197.818H384v-128zM0 261.236h95.418c5.818 0 11.636 2.327 16.291 6.982l51.2 51.2v151.273H0V261.236z" fill="#697f90"/><path d="M244.364 226.327c-6.982 0-11.636-4.655-11.636-11.636V28.509c0-6.982 4.655-11.636 11.636-11.636 6.982 0 11.636 4.655 11.636 11.636v186.182c0 6.982-4.655 11.636-11.636 11.636z" fill="#c97629"/><path d="M244.364 214.691V34.327c0-3.491 2.327-5.818 5.818-5.818 3.491 0 5.818 3.491 5.818 5.818v180.364c0 3.491-2.327 5.818-5.818 5.818-3.491 0-5.818-2.327-5.818-5.818z" fill="#b06328"/><path fill="#f04b4d" d="M256 40.145h104.727l-23.272 46.546 23.272 46.545H256"/><path d="M244.364 214.691h32.582c9.309 0 17.455 4.655 20.945 12.8L320 271.709c3.491 8.145 11.636 12.8 20.945 12.8H371.2c8.145 0 16.291 4.655 19.782 11.636l55.855 94.255c4.655 6.982 11.636 11.636 19.782 11.636 11.636 0 22.109 9.309 22.109 22.109v47.709H0v-47.709c0-11.636 9.309-22.109 22.109-22.109h1.164c8.145 0 15.127-3.491 19.782-10.473l55.855-83.782c4.655-6.982 11.636-10.473 19.782-10.473h30.255c9.309 0 17.455-5.818 20.945-13.964l23.273-53.527c3.491-8.145 11.636-13.964 20.945-13.964" fill="#697f90"/><path d="M80.291 400.873c8.145 0 16.291-3.491 19.782-10.473l32.582-83.782c4.655-6.982 11.636-10.473 19.782-10.473h30.255c9.309 0 17.455-5.818 20.945-13.964l29.091-67.491h-19.782c-9.309 0-17.455 5.818-20.945 13.964l-23.273 53.527c-3.491 8.145-11.636 13.964-20.945 13.964h-30.255c-8.145 0-15.127 3.491-19.782 10.473L41.891 390.4c-4.655 6.982-11.636 10.473-19.782 10.473C10.473 400.873 0 410.182 0 422.982v47.709h58.182v-47.709c0-12.8 9.309-22.109 22.109-22.109z" fill="#7b93a3"/><g fill="#4f6473"><path d="M466.618 400.873c-8.145 0-16.291-4.655-19.782-11.636l-55.855-94.255c-4.655-6.982-11.636-11.636-19.782-11.636h-30.255c-9.309 0-17.455-4.655-20.945-12.8l-22.109-44.218c-3.491-8.145-11.636-12.8-20.945-12.8H256l27.927 57.018c3.491 8.145 11.636 12.8 20.945 12.8h30.255c8.145 0 16.291 4.655 19.782 11.636l32.582 94.255c4.655 6.982 11.636 11.636 19.782 11.636 11.636 0 22.109 9.309 22.109 22.109v47.709h58.182v-47.709c1.163-12.8-8.146-22.109-20.946-22.109z"/><circle cx="174.545" cy="377.6" r="11.636"/><circle cx="267.636" cy="342.691" r="11.636"/><circle cx="290.909" cy="435.782" r="11.636"/><circle cx="320" cy="406.691" r="5.818"/></g><circle cx="87.273" cy="371.782" r="5.818" fill="#697f90"/><circle cx="343.273" cy="371.782" r="5.818" fill="#4f6473"/><circle cx="29.091" cy="429.964" r="5.818" fill="#697f90"/><g fill="#4f6473"><circle cx="238.545" cy="395.055" r="5.818"/><circle cx="192" cy="429.964" r="5.818"/><circle cx="331.636" cy="336.873" r="5.818"/><circle cx="110.545" cy="441.6" r="5.818"/><circle cx="226.909" cy="278.691" r="5.818"/><circle cx="366.545" cy="429.964" r="5.818"/><circle cx="215.273" cy="325.236" r="5.818"/></g><path d="M337.455 86.691h-58.182c-6.982 0-11.636-4.655-11.636-11.636v-34.91H256v93.091h104.727l-23.272-46.545z" fill="#de333f"/></svg>