<svg xmlns="http://www.w3.org/2000/svg" width="100" height="100" fill="#1fa1af" viewBox="0 0 512 512"><path d="M136.381 56.057h89.156a8.083 8.083 0 0 0 8.084-8.084 8.084 8.084 0 0 0-8.084-8.084h-89.156a8.083 8.083 0 0 0-8.084 8.084 8.082 8.082 0 0 0 8.084 8.084zm0 35.678h178.312c4.466 0 8.084-3.619 8.084-8.084s-3.619-8.084-8.084-8.084H136.381c-4.465 0-8.084 3.619-8.084 8.084s3.619 8.084 8.084 8.084zm0 111.15h89.156a8.083 8.083 0 0 0 8.084-8.084 8.084 8.084 0 0 0-8.084-8.084h-89.156a8.083 8.083 0 0 0-8.084 8.084 8.083 8.083 0 0 0 8.084 8.084zm0 35.68H312.73a8.082 8.082 0 0 0 8.084-8.084 8.083 8.083 0 0 0-8.084-8.084H136.381a8.084 8.084 0 0 0-8.084 8.084 8.084 8.084 0 0 0 8.084 8.084zm0 111.15h89.156a8.083 8.083 0 0 0 8.084-8.084 8.084 8.084 0 0 0-8.084-8.084h-89.156a8.083 8.083 0 0 0-8.084 8.084 8.083 8.083 0 0 0 8.084 8.084zm175.084 19.511H136.381a8.084 8.084 0 0 0 0 16.168h175.085a8.084 8.084 0 1 0-.001-16.168z"/><path d="M473.678 404.818l-46.964-18.832v-10.313c12.937-7.034 22.75-19.096 26.841-33.537 15.697-.082 28.443-12.871 28.443-28.586 0-9.445-4.606-17.831-11.689-23.04v-21.467c0-39.954-32.505-72.46-72.459-72.46h-5.365c-5.991 0-11.808.744-17.379 2.121v-43.789a8.082 8.082 0 0 0-8.084-8.084h-24.01c-4.466 0-8.084 3.619-8.084 8.084s3.618 8.084 8.084 8.084h15.927v41.848c-21.215 11.131-36.266 32.46-38.588 57.438H16.168v-99.286h299.785c4.466 0 8.084-3.619 8.084-8.084s-3.618-8.084-8.084-8.084H8.084A8.084 8.084 0 0 0 0 154.915v115.454a8.084 8.084 0 0 0 8.084 8.084h311.941v11.972a28.755 28.755 0 0 0-3.725 3.235H8.084A8.083 8.083 0 0 0 0 301.744v115.454a8.084 8.084 0 0 0 8.084 8.084h281.189c-6.831 9.393-11.941 22.051-11.941 38.424v40.197c0 4.465 3.619 8.094 8.084 8.094h30.539a8.082 8.082 0 0 0 8.084-8.084 8.083 8.083 0 0 0-8.084-8.084H293.5v-32.122c0-33.618 26.456-43.267 27.536-43.644.125-.042.25-.087.372-.136l44.254-17.329c.201.248.414.49.649.72l23.214 22.609a8.082 8.082 0 0 0 5.64 2.293l.127-.001a8.079 8.079 0 0 0 5.693-2.473l22.704-23.554 44.171 17.713c.112.045.273.104.386.144 1.126.393 27.585 10.041 27.585 43.66v32.122h-154.01a8.084 8.084 0 0 0-8.084 8.084 8.082 8.082 0 0 0 8.084 8.084h162.094c4.466 0 8.084-3.698 8.084-8.163v-40.128c.001-36.184-24.926-54.277-38.321-58.89zm-18.027-103.475c5.781 1.061 10.179 6.127 10.179 12.208s-4.398 11.145-10.179 12.207v-24.415zm-119.459-32.299c.001-31.039 25.254-56.292 56.294-56.292h5.365c31.039 0 56.291 25.253 56.291 56.292v13.202c-.011-.015-.023-.028-.032-.043a6.36 6.36 0 0 0-.467-.585 8.407 8.407 0 0 0-.285-.314c-.077-.079-.158-.154-.238-.231a8.875 8.875 0 0 0-.336-.305c-.081-.068-.165-.131-.248-.197a7.742 7.742 0 0 0-.37-.277c-.092-.064-.186-.122-.281-.181a7.502 7.502 0 0 0-.375-.229c-.112-.064-.23-.12-.345-.178-.115-.057-.23-.115-.347-.167-.141-.063-.287-.115-.431-.169-.101-.038-.203-.078-.305-.111-.163-.054-.331-.097-.497-.14-.075-.021-.148-.045-.224-.064-17.592-4.002-23.099-26.746-23.147-26.949a8.084 8.084 0 0 0-6.266-6.135 8.074 8.074 0 0 0-8.17 3.182c-21.27 29.407-68.086 29.701-68.733 29.701h-.033a8.33 8.33 0 0 0-.825.042c-.085.009-.167.026-.252.038-.184.024-.369.047-.549.084-.115.024-.227.059-.342.087-.144.036-.291.066-.431.111-.131.041-.257.094-.385.141-.117.043-.239.081-.355.129-.148.063-.289.136-.43.206-.092.045-.185.084-.275.133-.146.079-.282.168-.423.255-.08.05-.164.095-.244.148-.13.088-.253.186-.379.282-.081.061-.165.118-.244.182-.113.094-.219.196-.327.294-.083.075-.169.147-.248.225-.1.1-.191.207-.285.312-.079.087-.162.17-.238.261-.084.102-.16.211-.239.319-.076.101-.156.198-.227.303-.044.065-.081.134-.123.201v-13.563zm-1.263 32.242v24.529c-5.958-.913-10.541-6.056-10.541-12.263-.001-6.21 4.582-11.353 10.541-12.266zm28.938 84.651l-48.183 18.87c-2.681.921-5.828 2.393-9.145 4.432a8.13 8.13 0 0 0-1.36-.123H16.168V309.83H308.47a28.555 28.555 0 0 0-.25 3.721c0 15.764 12.827 28.589 28.593 28.589.07 0 .14-.009.21-.011 4.09 14.444 13.905 26.508 26.844 33.543v10.265zm46.677 5.645v.946l-15.562 16.147-14.947-14.559v-12.717c3.29.613 6.675.95 10.14.95h10.231c3.464 0 6.85-.335 10.138-.949v10.182zm-10.136-25.402h-10.231c-21.548 0-39.079-17.531-39.079-39.078v-32.491c14.111-1.216 43.491-6.065 64.431-25.453 4.284 8.459 11.733 18.656 23.954 23.66v34.285c-.001 21.547-17.529 39.077-39.075 39.077zM82.589 47.106a8.083 8.083 0 0 0 8.084-8.084 8.084 8.084 0 0 0-8.084-8.084H41.813a8.083 8.083 0 0 0-8.084 8.084v53.581a8.084 8.084 0 0 0 8.084 8.084h56.211a8.084 8.084 0 0 0 8.084-8.084V78.146a8.084 8.084 0 0 0-8.084-8.084 8.084 8.084 0 0 0-8.084 8.084v6.371H49.897V47.106h32.692z"/><path d="M113.825 33.139a8.085 8.085 0 0 0-11.428.339L75.544 61.97l-8.301-9.042a8.085 8.085 0 0 0-11.911 10.933L69.51 79.306a8.085 8.085 0 0 0 5.903 2.618h.053a8.085 8.085 0 0 0 5.883-2.539l32.813-34.818a8.085 8.085 0 0 0-.337-11.428zM82.589 193.935a8.083 8.083 0 0 0 8.084-8.084 8.084 8.084 0 0 0-8.084-8.084H41.813a8.083 8.083 0 0 0-8.084 8.084v53.581a8.084 8.084 0 0 0 8.084 8.084h56.211a8.083 8.083 0 0 0 8.084-8.084v-14.456a8.084 8.084 0 0 0-8.084-8.084 8.083 8.083 0 0 0-8.084 8.084v6.371H49.897v-37.413h32.692z"/><path d="M113.825 179.967a8.084 8.084 0 0 0-11.428.34l-26.853 28.492-8.301-9.042a8.085 8.085 0 0 0-11.911 10.933l14.179 15.445a8.085 8.085 0 0 0 5.903 2.618h.053a8.085 8.085 0 0 0 5.883-2.539l32.813-34.818a8.087 8.087 0 0 0-.338-11.429zM98.024 363.723a8.083 8.083 0 0 0-8.084 8.084v6.371H49.897v-37.413H82.59a8.084 8.084 0 0 0 0-16.168H41.813a8.083 8.083 0 0 0-8.084 8.084v53.581a8.084 8.084 0 0 0 8.084 8.084h56.211a8.083 8.083 0 0 0 8.084-8.084v-14.456a8.083 8.083 0 0 0-8.084-8.083z"/><path d="M102.397 327.138L75.544 355.63l-8.301-9.042a8.085 8.085 0 0 0-11.911 10.933l14.179 15.445a8.085 8.085 0 0 0 5.903 2.618h.053a8.085 8.085 0 0 0 5.883-2.539l32.813-34.818a8.086 8.086 0 0 0-.338-11.428 8.083 8.083 0 0 0-11.428.339zM8.084 131.625h358.939a8.082 8.082 0 0 0 8.084-8.084V8.084A8.082 8.082 0 0 0 367.023 0h-24.01c-4.466 0-8.084 3.619-8.084 8.084s3.619 8.084 8.084 8.084h15.926v99.287H16.168V16.168h299.785c4.466 0 8.084-3.619 8.084-8.084S320.419 0 315.954 0H8.084A8.085 8.085 0 0 0 0 8.084V123.54a8.085 8.085 0 0 0 8.084 8.085z"/></svg>