<svg xmlns="http://www.w3.org/2000/svg" width="100" height="100" viewBox="0 0 512 512"><path d="M356.073 424.727c-11.636 8.145-23.273 15.127-36.073 20.945l23.273 51.2c3.491 8.145 12.8 13.964 22.109 13.964 10.473 0 18.618-8.145 18.618-18.618 0-2.327 0-5.818-1.164-8.145l-26.763-59.346zm-246.691 0l-26.764 59.345c-1.164 3.491-1.164 5.818-1.164 9.309 0 10.473 8.145 18.618 18.618 18.618 9.309 0 18.618-5.818 22.109-13.964l23.273-51.2c-12.799-5.817-24.436-12.799-36.072-22.108zM256 58.182h-46.545V34.909c0-12.8 10.473-23.273 23.273-23.273 12.8 0 23.273 10.473 23.273 23.273v23.273z" fill="#b06328"/><path d="M256 58.182h-23.273V34.909c0-6.982 4.655-11.636 11.636-11.636 6.982 0 11.636 4.655 11.636 11.636v23.273z" fill="#9f5223"/><circle cx="232.727" cy="256" r="209.455" fill="#f04b4d"/><path d="M356.073 424.727c-11.636 8.145-23.273 15.127-36.073 20.945l10.473 23.273c5.818-2.327 11.636-5.818 16.291-8.145 5.818-3.491 13.964-1.164 16.291 5.818l8.145 17.455c1.164 2.327 1.164 4.655 1.164 8.145 0 8.145-5.818 16.291-13.964 18.618 2.327 0 3.491 1.164 5.818 1.164 10.473 0 18.618-8.145 18.618-18.618 0-2.327 0-5.818-1.164-8.145l-25.599-60.51zm-246.691 0l-4.655 10.473c4.655 3.491 9.309 8.145 13.964 11.636s5.818 9.309 3.491 13.964l-11.636 25.6c-3.491 8.145-11.636 13.964-22.109 13.964-2.327 0-4.655 0-5.818-1.164 2.327 6.982 9.309 12.8 17.455 12.8 9.309 0 18.618-5.818 22.109-13.964l23.273-51.2c-12.801-5.818-24.438-12.8-36.074-22.109z" fill="#9f5223"/><path d="M437.527 210.618c-1.164-8.145-3.491-15.127-5.818-22.109l-202.473 55.855c-5.818 1.164-9.309 8.145-8.145 13.964 1.164 3.491 2.327 5.818 5.818 6.982 2.327 2.327 5.818 2.327 9.309 2.327l201.309-57.019z" fill="#de333f"/><g fill="#eceff9"><path d="M232.727 93.091c-89.6 0-162.909 73.309-162.909 162.909s73.309 162.909 162.909 162.909S395.636 345.6 395.636 256 322.327 93.091 232.727 93.091zm0 279.273c-64 0-116.364-52.364-116.364-116.364s52.364-116.364 116.364-116.364S349.091 192 349.091 256s-52.364 116.364-116.364 116.364z"/><path d="M232.727 186.182c-38.4 0-69.818 31.418-69.818 69.818s31.418 69.818 69.818 69.818S302.545 294.4 302.545 256s-31.418-69.818-69.818-69.818zm0 104.727c-19.782 0-34.909-15.127-34.909-34.909s15.127-34.909 34.909-34.909 34.909 15.127 34.909 34.909-15.127 34.909-34.909 34.909z"/></g><path d="M395.636 93.091l33.745 8.145c8.145 2.327 16.291 0 22.109-5.818l37.236-37.236-46.545-11.636L430.545 0l-37.236 37.236c-5.818 5.818-8.145 13.964-5.818 22.109l8.145 33.746z" fill="#f6b545"/><path fill="#f19920" d="M427.055 101.236L473.6 54.691 448 47.709l-46.545 46.546z"/><path d="M232.727 267.636c-3.491 0-5.818-1.164-8.145-3.491-4.655-4.655-4.655-11.636 0-16.291L457.309 15.127c4.655-4.655 11.636-4.655 16.291 0 4.655 4.655 4.655 11.636 0 16.291L240.873 264.145c-2.328 2.328-4.655 3.491-8.146 3.491z" fill="#7f4122"/><path d="M386.327 201.309l-45.382 12.8c2.327 6.982 4.655 15.127 5.818 22.109l45.382-12.8c-1.163-6.982-3.49-15.127-5.818-22.109zm-83.782 47.709c-1.164-8.145-3.491-15.127-5.818-22.109l-34.909 9.309c3.491 5.818 5.818 12.8 5.818 19.782v2.327l34.909-9.309z" fill="#c4d7e5"/><path d="M232.727 267.636c3.491 0 5.818-1.164 8.145-3.491L473.6 31.418c4.655-4.655 4.655-11.636 0-16.291L224.582 264.145c2.327 2.328 4.654 3.491 8.145 3.491z" fill="#73371b"/></svg>