<svg xmlns="http://www.w3.org/2000/svg" width="100" height="100" viewBox="0 0 512 512"><path d="M163.571 476.436c-6.623 0-11.992-5.369-11.992-11.992v-97.009c0-18.338 14.866-33.203 33.204-33.203s33.204 14.865 33.204 33.203v97.009c0 6.623-5.369 11.992-11.992 11.992h-42.424z" fill="#373c41"/><path d="M392.771 476.436c-6.623 0-11.992-5.369-11.992-11.992v-99.656c0-16.875 14.866-30.554 33.203-30.554 18.338 0 33.204 13.68 33.204 30.554v99.656c0 6.623-5.369 11.992-11.992 11.992h-42.423z" fill="#272a2e"/><path d="M163.682 425.754h13.447v50.683h-13.447zm28.761 0h13.447v50.683h-13.447zm200.435 0h13.447v50.683h-13.447zm28.761 0h13.447v50.683h-13.447z" fill="#50555a"/><path d="M161.128 302.005a10.573 10.573 0 0 1-7.693-3.305l-29.575-31.184c-4.028-4.247-3.85-10.955.396-14.983 4.248-4.028 10.956-3.851 14.984.396l29.575 31.184c4.028 4.247 3.85 10.955-.396 14.983a10.56 10.56 0 0 1-7.291 2.909z" fill="#d72846"/><path d="M101.53 273.827h29.745c8.319 0 15.063-6.744 15.063-15.063v-11.462c0-8.319-6.744-15.063-15.063-15.063H101.53c-8.319 0-15.063 6.744-15.063 15.063v11.462c0 8.318 6.744 15.063 15.063 15.063z" fill="#f75c66"/><path d="M437.338 302.005c-2.618 0-5.242-.964-7.292-2.908-4.247-4.028-4.425-10.736-.397-14.983l29.575-31.184c4.028-4.247 10.736-4.425 14.983-.396 4.247 4.028 4.425 10.736.397 14.983L445.03 298.7a10.566 10.566 0 0 1-7.692 3.305z" fill="#d72846"/><path d="M496.936 273.827h-29.745c-8.319 0-15.063-6.744-15.063-15.063v-11.462c0-8.319 6.744-15.063 15.063-15.063h29.745c8.319 0 15.063 6.744 15.063 15.063v11.462c.001 8.318-6.743 15.063-15.063 15.063z" fill="#e64b55"/><path fill="#a0ebff" d="M435.49 285.666H163.361l20.541-121.037h231.047z"/><path d="M317.603 208.093h-36.739a4.91 4.91 0 0 1-4.911-4.911v-9.57a4.91 4.91 0 0 1 4.911-4.911h36.739a4.91 4.91 0 0 1 4.911 4.911v9.57c0 2.712-2.2 4.911-4.911 4.911z" fill="#373c41"/><path d="M451.896 295.474a13.693 13.693 0 0 1-13.458 16.201H160.327a13.69 13.69 0 0 1-13.458-16.201l24.698-132.399a13.69 13.69 0 0 1 13.458-11.18h228.716a13.69 13.69 0 0 1 13.458 11.18l24.697 132.399zm-275.088-11.179h245.15l-19.59-105.019H196.397l-19.589 105.019z" fill="#d72846"/><path d="M356.669 231.047c-23.742 0-43.057 19.315-43.057 43.057s19.315 43.057 43.057 43.057 43.057-19.315 43.057-43.057c.001-23.742-19.314-43.057-43.057-43.057zm0 72.42c-16.191 0-29.363-13.172-29.363-29.363 0-9.735 4.768-18.365 12.089-23.702 4.313-3.144 10.427-.083 10.427 5.309-.301 5.234.9 8.562-1.766 12.337a10.46 10.46 0 0 0-1.92 6.055c0 3.201 1.433 6.063 3.686 7.996v7.148h13.695V282.1a10.507 10.507 0 0 0 3.687-7.996c0-2.255-.712-4.343-1.92-6.056-2.665-3.774-1.463-7.1-1.766-12.337 0-5.364 6.107-8.458 10.426-5.308 7.322 5.336 12.09 13.965 12.09 23.702-.001 16.191-13.173 29.362-29.365 29.362z" fill="#696e73"/><path d="M356.669 317.161c-23.742 0-43.057-19.315-43.057-43.057s19.315-43.057 43.057-43.057 43.057 19.315 43.057 43.057-19.314 43.057-43.057 43.057zm0-72.421c-16.191 0-29.363 13.172-29.363 29.364s13.172 29.363 29.363 29.363c16.192 0 29.364-13.172 29.364-29.363s-13.172-29.364-29.364-29.364z" fill="#373c41"/><path d="M217.987 447.362v-79.925c0-18.338-14.866-33.203-33.204-33.203s-33.204 14.866-33.204 33.203v67.601l66.408 12.324zm229.198 0v-79.925c0-18.338-14.866-33.203-33.204-33.203s-33.203 14.866-33.203 33.203v67.601l66.407 12.324z" opacity=".22"/><path d="M475.901 399.139c0 14.701-11.918 26.618-26.618 26.618h-299.8c-14.701 0-26.618-11.918-26.618-26.618V343.8c0-39.281 31.843-71.124 71.124-71.124h210.79c39.281 0 71.124 31.843 71.124 71.124v55.339h-.002z" fill="#e64b55"/><path d="M124.293 407.527c3.51 10.581 13.43 18.229 25.191 18.229h299.8c11.761 0 21.681-7.649 25.191-18.229H124.293z" fill="#50555a"/><g fill="#d72846"><path d="M351.89 407.527H247.893c-5.7 0-10.321-4.621-10.321-10.321v-52.104c0-5.7 4.621-10.321 10.321-10.321H351.89c5.7 0 10.321 4.621 10.321 10.321v52.104c.001 5.7-4.62 10.321-10.321 10.321z"/><ellipse cx="183.899" cy="357.602" rx="29.132" ry="29.142"/><ellipse cx="414.86" cy="357.602" rx="29.132" ry="29.142"/></g><g fill="#fac855"><ellipse cx="183.899" cy="350.752" rx="29.132" ry="29.142"/><ellipse cx="414.86" cy="350.752" rx="29.132" ry="29.142"/></g><path d="M328.681 412.356h-57.579a6.032 6.032 0 0 1-6.032-6.032V391.15a6.032 6.032 0 0 1 6.032-6.032h57.579a6.032 6.032 0 0 1 6.032 6.032v15.174a6.032 6.032 0 0 1-6.032 6.032z" fill="#b9b9be"/><path d="M328.681 385.119h-57.579a6.032 6.032 0 0 0-6.032 6.031v6.847a6.032 6.032 0 0 1 6.032-6.031h57.579c3.331 0 6.032 2.7 6.032 6.031v-6.847a6.032 6.032 0 0 0-6.032-6.031z" fill="#d2d2d7"/><g fill="#faf58c"><ellipse cx="414.86" cy="350.752" rx="16.515" ry="16.525"/><ellipse cx="183.899" cy="350.752" rx="16.515" ry="16.525"/></g><path d="M340.255 347.206h-80.726a8.513 8.513 0 0 0 0 17.026h80.726a8.514 8.514 0 0 0 0-17.026z" fill="#e64b55"/><path d="M388.436 301.652a35.507 35.507 0 0 1-28.812 14.756H233.307a24.115 24.115 0 0 1-19.567-10.021l-24.279-33.71h219.845l-20.87 28.975z" fill="#f75c66"/><path d="M151.58 384.976a6.717 6.717 0 0 0-6.717-6.717h-21.751v24.467h21.751a6.717 6.717 0 0 0 6.717-6.717v-11.033zm302.801-6.716a6.717 6.717 0 0 0-6.717 6.717v11.033a6.717 6.717 0 0 0 6.717 6.717h21.272c.158-1.174.248-2.371.248-3.588V378.26h-21.52z" fill="#fa870a"/><path fill="#696e73" d="M291.502 179.279h16.775v9.425h-16.775z"/><path fill="#fff" d="M281.431 179.276h-26.02l-50.669 93.4h26.02z" opacity=".38"/><path fill="#fff" d="M310.189 179.276h-15.065l-50.668 93.4h15.064z" opacity=".36"/><path d="M72.704 500.625c-12.877 0-23.317-10.439-23.317-23.317V290.932c0-12.877 10.439-23.317 23.317-23.317s23.317 10.439 23.317 23.317v186.377c0 12.876-10.44 23.316-23.317 23.316z" fill="#414b82"/><path d="M227.007 194.002l-28.529-60.349c-8.447-17.869-26.677-29.415-46.441-29.415h-50.604c-.557 0-1.104.037-1.649.083H49.386v.159h-1.12C21.899 104.48.134 125.311 0 150.914V290.5c0 11.07 8.974 20.045 20.045 20.045 11.07 0 20.045-8.974 20.045-20.045V151.089c.041-3.587 3.853-6.726 8.178-6.726h1.12v146.568H152.31v-56.6l60.881-13.118c4.309-.929 8.295-3.136 11.126-6.514a19.32 19.32 0 0 0 2.69-20.697zm-74.698.84v-51.66h.227v-.323c4.717.188 9.014 3.002 11.042 7.292l18.132 38.356-29.401 6.335z" fill="#919196"/><path d="M0 280.727v9.772c0 11.07 8.974 20.045 20.045 20.045s20.045-8.974 20.045-20.045v-9.772H0z" fill="#ba6746"/><path fill="#fff" d="M0 280.725h40.088v9.772H0z"/><path d="M128.992 500.625c-12.877 0-23.317-10.439-23.317-23.317V290.932c0-12.877 10.439-23.317 23.317-23.317 12.877 0 23.317 10.439 23.317 23.317v186.377c0 12.876-10.44 23.316-23.317 23.316z" fill="#1e2d64"/><circle cx="100.844" cy="51.649" r="40.274" fill="#ba6746"/><path d="M227.007 194.002l-28.529-60.349c-8.447-17.869-26.676-29.415-46.442-29.415h-14.294v.083h-36.894v186.61h51.461v-56.6l61.314-13.211a19.298 19.298 0 0 0 13.242-10.326 19.298 19.298 0 0 0 .142-16.792zm-74.698.84v-51.66h.227v-.323c4.717.188 9.014 3.002 11.042 7.292l18.132 38.356-29.401 6.335z" fill="#838387"/><path fill="#fff" d="M100.857 104.321H71.19l29.667 77.849 29.669-77.849z"/><path d="M113.732 130.94l-6.604-12.011 5.731-10.423c1.033-1.879-.328-4.185-2.475-4.185H91.332c-2.144 0-3.509 2.303-2.475 4.185l5.731 10.423-6.604 12.011a8.013 8.013 0 0 0-.836 5.43l3.47 18.929 10.24 26.869 10.24-26.869 3.47-18.929a8.012 8.012 0 0 0-.836-5.43z" fill="#414b82"/><path d="M110.384 104.321c2.144 0 3.509 2.303 2.475 4.185l-5.731 10.423 6.604 12.011a8.013 8.013 0 0 1 .836 5.43l-3.47 18.929-10.24 26.87V104.32l9.526.001z" fill="#1e2d64"/><path fill="#373c41" d="M116.9 167.907h23.03v6.717H116.9z"/><path d="M149.437 212.044l-38.119 22.303a6.186 6.186 0 0 1-8.462-2.215l-35.11-60.01a6.186 6.186 0 0 1 2.215-8.462l38.12-22.303a6.186 6.186 0 0 1 8.462 2.215l35.11 60.01a6.185 6.185 0 0 1-2.216 8.462z" fill="#c8d2dc"/><path d="M182.809 222.645l-38.119 22.303a6.186 6.186 0 0 1-8.462-2.215l-35.11-60.01a6.186 6.186 0 0 1 2.215-8.462l38.12-22.303a6.186 6.186 0 0 1 8.462 2.215l35.11 60.01a6.187 6.187 0 0 1-2.216 8.462z" fill="#e6ebf0"/><path d="M116.449 222.431c-2.245-10.42 4.382-20.688 14.803-22.934l74.239-15.996c10.424-2.248 20.689 4.382 22.935 14.803s-4.382 20.688-14.803 22.934l-74.239 15.996c-10.465 2.254-20.699-4.426-22.935-14.803z" fill="#838387"/><path d="M131.252 199.497c-10.42 2.245-17.048 12.513-14.803 22.934 2.235 10.376 12.469 17.058 22.935 14.803l-8.132-37.737z" fill="#ba6746"/><path fill="#fff" d="M148.832 235.203l-9.457 2.037-8.13-37.739 9.457-2.037z"/></svg>