<svg xmlns="http://www.w3.org/2000/svg" width="100" height="100" viewBox="0 0 512 512"><circle cx="256" cy="256" r="256" fill="#8cc63e"/><path d="M256 464.528c-114.976 0-208.528-93.552-208.528-208.528S141.024 47.472 256 47.472 464.528 141.008 464.528 256c0 114.976-93.552 208.528-208.528 208.528z" fill="#fff"/><path fill="#e24b4b" d="M272.752 272.752L387.472 256l-114.72-16.752L256 124.528l-16.752 114.72L124.528 256l114.72 16.752L256 387.472z"/><path fill="#bbc7d1" d="M256 276.816l81.696 60.88L276.816 256l60.88-81.696L256 235.184l-81.696-60.88L235.184 256l-60.88 81.696z"/><circle cx="256" cy="256" r="39.104" fill="#3e4347"/><circle cx="256" cy="256" r="18.864" fill="#5a5f63"/><g fill="#bbc7d1"><circle cx="256" cy="88.544" r="19.248"/><circle cx="256" cy="423.456" r="19.248"/><circle cx="423.456" cy="256" r="19.248"/><circle cx="88.544" cy="256" r="19.248"/></g></svg>