<svg xmlns="http://www.w3.org/2000/svg" width="100" height="100" viewBox="0 0 512 512"><path d="M379.586 44.138H194.207c-9.751 0-17.655-7.904-17.655-17.655 0-9.751 7.904-17.655 17.655-17.655h185.379c9.751 0 17.655 7.904 17.655 17.655 0 9.751-7.904 17.655-17.655 17.655zM70.621 0C31.618 0 0 31.618 0 70.621s31.618 70.621 70.621 70.621 70.621-31.618 70.621-70.621S109.623 0 70.621 0zm41.551 53.323L65.09 100.401a8.795 8.795 0 0 1-6.241 2.586 8.796 8.796 0 0 1-6.241-2.586L29.069 76.862a8.825 8.825 0 0 1 0-12.483 8.825 8.825 0 0 1 12.483 0l17.297 17.299L99.69 40.841a8.825 8.825 0 0 1 12.483 0 8.823 8.823 0 0 1-.001 12.482z" fill="#a5eb78"/><path d="M467.862 88.276H291.31a8.829 8.829 0 0 1 0-17.656h176.552a8.829 8.829 0 0 1 0 17.656zm-211.858 0h-70.625a8.829 8.829 0 0 1 0-17.656h70.625a8.829 8.829 0 0 1 0 17.656z" fill="#afb9d2"/><path d="M503.172 123.586h-52.966a8.829 8.829 0 0 1 0-17.656h52.966a8.829 8.829 0 0 1 0 17.656zm-88.28 0H185.379a8.829 8.829 0 0 1 0-17.656h229.513a8.829 8.829 0 0 1 0 17.656z" fill="#c7cfe2"/><path d="M379.586 229.517H194.207c-9.751 0-17.655-7.904-17.655-17.655 0-9.751 7.904-17.655 17.655-17.655h185.379c9.751 0 17.655 7.904 17.655 17.655 0 9.751-7.904 17.655-17.655 17.655zM70.621 185.379C31.618 185.379 0 216.998 0 256s31.618 70.621 70.621 70.621 70.621-31.618 70.621-70.621-31.619-70.621-70.621-70.621zm41.551 53.323L65.09 285.78a8.795 8.795 0 0 1-6.241 2.586 8.796 8.796 0 0 1-6.241-2.586l-23.539-23.539a8.825 8.825 0 0 1 0-12.483 8.825 8.825 0 0 1 12.483 0l17.298 17.298 40.841-40.836a8.825 8.825 0 0 1 12.483 0c3.449 3.447 3.446 9.034-.002 12.482z" fill="#a5eb78"/><path d="M467.862 273.655H291.31a8.829 8.829 0 0 1 0-17.655h176.552a8.829 8.829 0 0 1 0 17.655zm-211.858 0h-70.625a8.829 8.829 0 0 1 0-17.656h70.625a8.829 8.829 0 0 1 0 17.656z" fill="#afb9d2"/><path d="M503.172 308.966h-52.966a8.829 8.829 0 0 1 0-17.656h52.966a8.829 8.829 0 0 1 0 17.656zm-88.28 0H185.379a8.829 8.829 0 0 1 0-17.656h229.513a8.829 8.829 0 0 1 0 17.656z" fill="#c7cfe2"/><path d="M353.103 414.897H194.207c-9.751 0-17.655-7.904-17.655-17.655 0-9.751 7.904-17.655 17.655-17.655h158.897c9.751 0 17.655 7.904 17.655 17.655 0 9.751-7.904 17.655-17.656 17.655zM70.621 370.759C31.618 370.759 0 402.377 0 441.379S31.618 512 70.621 512s70.621-31.618 70.621-70.621-31.619-70.62-70.621-70.62z" fill="#eff2fa"/><path d="M467.862 459.034H291.31a8.829 8.829 0 0 1 0-17.656h176.552a8.829 8.829 0 0 1 0 17.656zm-211.858 0h-70.625a8.829 8.829 0 0 1 0-17.656h70.625a8.829 8.829 0 0 1 0 17.656z" fill="#afb9d2"/><path d="M503.172 494.345h-52.966a8.829 8.829 0 0 1 0-17.656h52.966a8.829 8.829 0 0 1 0 17.656zm-88.28 0H185.379a8.829 8.829 0 0 1 0-17.656h229.513a8.829 8.829 0 0 1 0 17.656z" fill="#c7cfe2"/></svg>