<svg xmlns="http://www.w3.org/2000/svg" width="100" height="100" viewBox="0 0 501.551 501.551"><path d="M501.029 250.776v13.584c-2.09 34.482-10.449 65.829-24.033 95.086-40.751 83.592-126.433 142.106-225.698 142.106C112.327 501.552.522 388.703.522 250.776.522 111.804 112.327 0 251.298 0c137.926 0 249.731 111.804 249.731 250.776z" fill="#ff7058"/><circle cx="250.253" cy="250.776" r="198.531" fill="#fff"/><circle cx="250.253" cy="250.775" r="147.331" fill="#ff7058"/><circle cx="250.253" cy="250.775" r="95.086" fill="#fff"/><circle cx="250.253" cy="250.776" r="42.841" fill="#ff7058"/><path d="M501.029 264.359c-2.09 34.482-10.449 65.829-24.033 95.086l-36.571-9.404-10.449-35.527-182.857-49.11c-9.404-2.09-14.629-11.494-11.494-20.898 2.09-9.404 11.494-14.629 20.898-11.494l181.812 49.11L465.502 256l35.527 8.359z" opacity=".2" fill="#334a5e"/><path d="M400.718 99.265c-6.269-6.269-17.763-6.269-24.033 0L239.804 236.147c-6.269 6.269-6.269 17.763 0 24.033 6.269 6.269 17.763 6.269 24.033 0l136.882-136.882c6.269-6.269 6.269-17.763-.001-24.033z" fill="#40596b"/><path fill="#84dbff" d="M439.38 60.604l-61.649 60.604-13.584-55.379L425.796 4.18z"/><path fill="#54c0eb" d="M434.155 134.792l60.604-60.604-55.379-13.584-61.649 60.604z"/></svg>