<svg xmlns="http://www.w3.org/2000/svg" width="100" height="100" viewBox="0 0 512 512"><path fill="#3e4347" d="M234.16 140.4h46.64v46.32h-46.64z"/><path d="M451.408 430.56H60.592C27.12 430.56 0 457.68 0 491.152h512c0-33.472-27.12-60.592-60.592-60.592z" fill="#5a5f63"/><path fill="#3e4347" d="M114.96 410.416H400v34.144H114.96z"/><path d="M478.192 386.928v6.24c0 9.6-7.68 17.28-17.28 17.28H54.032c-9.6 0-17.28-7.68-17.28-17.28 0-118.72 91.36-220.96 210.08-226.56 126.72-6.064 231.36 94.896 231.36 220.32z" fill="#d3d9dd"/><path d="M257.488 166.304c-3.6 0-7.12.416-10.672.736 74.32 7.488 133.152 102.96 133.152 219.952v23.44H420v-23.44c0-121.888-72.752-220.688-162.512-220.688z" fill="#e9eff4"/><path d="M297.76 153.712H217.2c-11.28 0-20.432-9.152-20.432-20.432s9.136-20.432 20.432-20.432h80.56c11.28 0 20.432 9.136 20.432 20.432 0 11.28-9.152 20.432-20.432 20.432z" fill="#bbc7d1"/><path d="M362.672 81.808l-27.52 27.68c-5.84 5.52-14.608 5.552-20.48 0-5.6-5.76-5.6-14.88 0-20.48l27.52-27.52c5.44-5.44 15.04-5.44 20.48 0 5.248 5.264 5.84 14.48 0 20.32zm-165.44 7.2c5.6 5.6 5.6 14.72 0 20.32-5.312 5.632-14.32 5.824-20.32.16l-27.52-27.68c-5.84-5.84-5.264-15.056 0-20.32 5.44-5.44 14.88-5.44 20.32 0l27.52 27.52zm73.12-53.76v38.88c0 8-6.4 14.4-14.4 14.4-7.84 0-14.4-6.4-14.4-14.4v-38.88c0-8 6.56-14.4 14.4-14.4 8 0 14.4 6.4 14.4 14.4z" fill="#f3c432"/></svg>