<svg xmlns="http://www.w3.org/2000/svg" xmlns:xlink="http://www.w3.org/1999/xlink" id="Capa_1" width="80" height="80" x="0" y="0" fill="#0097A7" enable-background="new 0 0 512 512" version="1.1" viewBox="0 0 512 512" xml:space="preserve"><g><g><path d="M410.079,408.8l-73.442-40.871c-7.624-3.836-12.417-11.661-12.371-20.196l-0.042-20.471 c15.771-20.658,27.311-44.225,33.958-69.35c0.145-0.627,0.217-1.268,0.217-1.912v-17.067H384 c14.132-0.015,25.585-11.468,25.6-25.6v-51.2c-0.033-10.813-6.868-20.435-17.067-24.028v-1.572C392.533,61.128,331.405,0,256,0 S119.466,61.128,119.466,136.533v1.572c-10.199,3.592-17.033,13.214-17.067,24.028v51.2c0.033,10.813,6.868,20.435,17.067,24.027 V256c0.022,18.842,15.291,34.112,34.133,34.133h11.737c6.218,13.07,13.72,25.49,22.396,37.075v19.671 c0.032,8.27-4.49,15.886-11.767,19.817l-76.1,41.546c-24.765,13.454-40.169,39.392-40.133,67.575v27.65 c0,2.263,0.899,4.434,2.499,6.034c1.6,1.6,3.771,2.499,6.034,2.499h375.467c4.713,0,8.533-3.82,8.533-8.533v-25.941 C452.395,448.464,436.051,421.839,410.079,408.8z M392.533,162.133v51.2c-0.006,4.71-3.823,8.527-8.533,8.533h-25.6V153.6H384 C388.71,153.606,392.527,157.423,392.533,162.133z M128,221.867c-4.71-0.006-8.527-3.823-8.533-8.533v-51.2 c0.006-4.71,3.823-8.527,8.533-8.533h25.6v68.267H128z M153.6,273.067c-9.422-0.009-17.057-7.645-17.067-17.067v-17.067H153.6V256 c-0.001,0.644,0.072,1.285,0.217,1.912c1.22,5.132,2.725,10.191,4.51,15.154H153.6z M153.558,136.533h-17.025 C136.607,70.584,190.051,17.141,256,17.067c65.949,0.074,119.393,53.518,119.467,119.467h-17.025 c1.537-20.038-4.888-39.874-17.883-55.204C323.038,61.338,294.587,51.2,256,51.2s-67.038,10.138-84.558,30.129 C158.446,96.659,152.021,116.495,153.558,136.533z M76.8,494.933l0-19.117c-0.031-21.93,11.955-42.115,31.225-52.583 l76.075-41.533c12.787-6.908,20.741-20.287,20.7-34.821v-19.671c0.017-3.72-1.199-7.34-3.458-10.296 c-6.336-8.471-12-17.424-16.94-26.779h39.038c3.592,10.199,13.214,17.033,24.027,17.067h25.6c14.138,0,25.6-11.462,25.6-25.6 c0-14.138-11.462-25.6-25.6-25.6h-25.6c-10.813,0.033-20.435,6.868-24.028,17.067h-46.92c-2.379-5.871-4.335-11.904-5.852-18.054 V136.533c0-0.373-0.025-0.747-0.075-1.117c-1.251-15.523,3.665-30.914,13.683-42.837C198.412,76.446,222.546,68.267,256,68.267 c33.329,0,57.412,8.121,71.575,24.138c10.039,11.988,15.002,27.42,13.833,43.013c-0.05,0.37-0.075,0.743-0.075,1.117v118.479 c-6.145,22.416-16.561,43.434-30.675,61.9c-2.259,2.955-3.475,6.576-3.458,10.296v20.525c-0.099,14.868,8.203,28.519,21.45,35.271 l73.45,40.875c20.342,10.128,33.173,30.923,33.1,53.646l0,17.408H76.8z M238.933,281.6c0.006-4.71,3.823-8.527,8.533-8.533h25.6 c4.713,0,8.533,3.821,8.533,8.533s-3.82,8.533-8.533,8.533h-25.6C242.756,290.127,238.939,286.31,238.933,281.6z"/></g></g></svg>