<?xml version="1.0" encoding="UTF-8"?>
<svg width="141" height="50" viewBox="0 0 121 43" version="1.1" xmlns="http://www.w3.org/2000/svg" xmlns:xlink="http://www.w3.org/1999/xlink">
    <!-- Generator: Sketch 43 (38999) - http://www.bohemiancoding.com/sketch -->
    <title>MasterCard_SecureCode</title>
    <desc>Created with Sketch.</desc>
    <defs></defs>
    <g id="pages" stroke="none" stroke-width="1" fill="none" fill-rule="evenodd">
        <g id="home-8" transform="translate(-180.000000, -3634.000000)">
            <g id="MasterCard_SecureCode" transform="translate(180.000000, 3634.000000)">
                <g id="Group" transform="translate(0.689459, 0.000000)" fill="#EC2127">
                    <path d="M113.687256,16.9778333 C113.687256,15.668381 114.712826,14.6087381 115.964883,14.6087381 C117.223835,14.6087381 118.238718,15.668381 118.238718,16.9778333 C118.238718,18.2893333 117.224179,19.3489762 115.964883,19.3489762 C114.712826,19.3489762 113.687256,18.2893333 113.687256,16.9778333 L113.687256,16.9778333 Z M115.965228,18.7875873 C116.922197,18.7875873 117.703353,17.9746825 117.703353,16.9778333 C117.703353,15.9861032 116.922197,15.1803651 115.965228,15.1803651 C115.012051,15.1803651 114.227103,15.9861032 114.227103,16.9778333 C114.227103,17.9746825 115.012051,18.7875873 115.965228,18.7875873 L115.965228,18.7875873 Z M115.655316,18.0163175 L115.188897,18.0163175 L115.188897,15.9291111 L116.034519,15.9291111 C116.206538,15.9291111 116.399587,15.9393492 116.547476,16.044119 C116.709154,16.1618571 116.802231,16.3594524 116.802231,16.5686508 C116.802231,16.8000317 116.66951,17.0163968 116.458191,17.0948889 L116.823259,18.0163175 L116.304786,18.0163175 L115.996254,17.1982937 L115.654972,17.1982937 L115.654972,18.0163175 L115.655316,18.0163175 Z M115.655316,16.843373 L115.915242,16.843373 C116.010732,16.843373 116.12139,16.8464444 116.201368,16.8000317 C116.280311,16.7491825 116.315473,16.6478254 116.315473,16.5584127 C116.315473,16.4799206 116.269624,16.3853889 116.201368,16.3485317 C116.131732,16.3017778 115.991427,16.3123571 115.909726,16.3123571 L115.655316,16.3123571 L115.655316,16.843373 L115.655316,16.843373 Z" id="Shape"></path>
                    <path d="M81.1223989,1.22276984 L80.4984387,5.24053968 C79.1450313,4.52728571 78.1497977,4.24778571 77.0866524,4.24778571 C74.2498746,4.24778571 72.2435499,7.10250794 72.2435499,11.1782937 C72.2435499,13.9934286 73.5904074,15.6895397 75.8052934,15.6895397 C76.7453704,15.6895397 77.7785242,15.3905873 79.0426467,14.7350079 L78.3769744,18.963 C76.9787521,19.3612619 76.0665983,19.5028889 75.0093134,19.5028889 C70.9001396,19.5028889 68.3443162,16.4345317 68.3443162,11.5093254 C68.3443162,4.88425397 71.8757236,0.258 76.9273875,0.258 C77.5799601,0.258 78.1628974,0.321134921 78.6365556,0.456960317 L80.2071425,0.864436508 C80.6745954,1.04769841 80.7797379,1.07568254 81.1223989,1.22276984 L81.1223989,1.22276984 Z" id="Shape"></path>
                    <path d="M68.4746239,3.97647619 C68.3550028,3.95395238 68.2226268,3.93757143 68.084735,3.93757143 C66.8292308,3.93757143 66.119433,4.59519841 64.9535584,6.38959524 L65.2920826,4.10069841 L61.8403077,4.10069841 L59.5002849,19.1619603 L63.3295385,19.1619603 C64.6988034,9.95654762 65.0490484,8.3669127 66.8847322,8.3669127 C66.9964245,8.3669127 67.0067664,8.3669127 67.1632735,8.38226984 C67.5017977,6.56739683 67.9654587,5.23303175 68.6049316,4.01606349 L68.4746239,3.97647619 L68.4746239,3.97647619 Z" id="Shape"></path>
                    <path d="M45.6604359,18.9780159 C44.6245242,19.3192857 43.805792,19.4745635 42.9263875,19.4745635 C40.9814245,19.4745635 39.9193134,18.301619 39.9193134,16.1615159 C39.9193134,15.741754 39.9510285,15.2888889 40.0279031,14.8111111 L40.263698,13.342627 L40.4384758,12.1430635 L42.0917977,1.86606349 L45.8800285,1.86606349 L45.4456695,4.10069841 L47.3954587,4.10069841 L46.860094,7.76184127 L44.9151311,7.76184127 L43.9085214,14.0476905 C43.8740484,14.3251429 43.8447464,14.5299048 43.8447464,14.6715317 C43.8447464,15.4428016 44.2422194,15.7874841 45.1429972,15.7874841 C45.5825271,15.7874841 45.913812,15.7420952 46.168567,15.646881 L45.6604359,18.9780159 L45.6604359,18.9780159 Z" id="Shape"></path>
                    <path d="M30.6388547,8.86346032 C30.6388547,10.7643333 31.5234302,12.0789048 33.5266524,13.0614206 C35.060698,13.8166508 35.3044217,14.0367698 35.3044217,14.722381 C35.3044217,15.6581429 34.6235812,16.0915556 33.1240085,16.0915556 C31.9929516,16.0915556 30.9356667,15.9045397 29.7170484,15.4885317 L29.1899573,18.9626587 L29.3623219,18.9988333 L30.0617778,19.1455794 C30.286886,19.1930159 30.6181709,19.2353333 31.0552877,19.2820873 C31.9639943,19.3660397 32.6606923,19.4063095 33.1536553,19.4063095 C37.1511368,19.4063095 39.0006097,17.8084841 39.0006097,14.3780397 C39.0006097,12.3167698 38.2297949,11.097754 36.3248205,10.1851984 C34.7352735,9.43542857 34.5549801,9.25865079 34.5549801,8.55938889 C34.5549801,7.74238889 35.18549,7.32262698 36.4096239,7.32262698 C37.1563077,7.32262698 38.1687778,7.41033333 39.1353989,7.54684127 L39.6783476,4.06896032 C38.6848376,3.90139683 37.209396,3.77205556 36.3351624,3.77205556 C32.0936125,3.77205556 30.6229972,6.08347619 30.6388547,8.86346032 L30.6388547,8.86346032 Z" id="Shape"></path>
                    <path d="M111.475128,19.1619603 L107.86857,19.1619603 L108.057826,17.6863095 C107.007436,18.8520873 105.929467,19.3609206 104.536761,19.3609206 C101.749624,19.3609206 99.9232479,16.8747698 99.9232479,13.1088571 C99.9232479,8.09935714 102.761405,3.86965873 106.131823,3.86965873 C107.612781,3.86965873 108.732462,4.50442063 109.786989,5.93161111 L110.616407,0.640563492 L114.372578,0.640563492 L111.475128,19.1619603 L111.475128,19.1619603 Z M105.850869,15.6158254 C107.631396,15.6158254 108.875869,13.5228175 108.875869,10.5418254 C108.875869,8.62764286 108.165382,7.58506349 106.848516,7.58506349 C105.122111,7.58506349 103.894875,9.68660317 103.894875,12.6505317 C103.894875,14.6227302 104.555376,15.6158254 105.850869,15.6158254 L105.850869,15.6158254 Z" id="Shape"></path>
                    <path d="M57.7307892,18.8456032 C56.4270228,19.2510317 55.1666923,19.4557937 53.8153533,19.4503333 C49.5658746,19.4503333 47.3454729,17.1351587 47.3454729,12.7085476 C47.3454729,7.53250794 50.1694957,3.72257143 54.0087464,3.72257143 C57.1399231,3.72257143 59.1510741,5.85789683 59.1510741,9.20438889 C59.1510741,10.3124921 59.0155954,11.3929524 58.6763818,12.9194524 L51.0992308,12.9194524 C51.0675157,13.1487857 51.0626895,13.2535556 51.0626895,13.3866508 C51.0626895,15.1469206 52.1961595,16.0335397 54.4138034,16.0335397 C55.7730712,16.0335397 56.9968604,15.741754 58.3668148,15.0755952 L57.7307892,18.8456032 L57.7307892,18.8456032 Z M55.5927778,9.87703175 C55.6144957,9.56238095 55.6196667,9.30574603 55.6196667,9.11497619 C55.6196667,7.88401587 54.9488234,7.16530159 53.8153533,7.16530159 C52.6067322,7.16530159 51.7407721,8.12529365 51.3857009,9.86679365 L55.5927778,9.87703175 L55.5927778,9.87703175 Z" id="Shape"></path>
                    <polygon id="Shape" points="15.3394217 19.1619603 11.5322308 19.1619603 13.7126439 4.92930159 8.84058405 19.1619603 6.23132764 19.1619603 5.91590028 5.0129127 3.61896866 19.1619603 0.0530883191 19.1619603 3.02810256 0.640222222 8.51481481 0.640222222 8.66580627 12.1014286 12.3692336 0.640222222 18.2906496 0.640222222"></polygon>
                    <path d="M25.1497293,12.4529365 C24.7467407,12.4055 24.5695499,12.3880952 24.2965242,12.3880952 C22.1374843,12.3880952 21.0433134,13.1658492 21.0433134,14.6872302 C21.0433134,15.6250397 21.5810912,16.2226032 22.4129231,16.2226032 C23.9628262,16.2226032 25.0862991,14.6872302 25.1497293,12.4529365 L25.1497293,12.4529365 Z M27.9210085,19.1619603 L24.7653561,19.1619603 L24.834302,17.5982619 C23.8725071,18.8452619 22.5877009,19.4237143 20.8416467,19.4237143 C18.7698234,19.4237143 17.3553989,17.7453492 17.3553989,15.3202857 C17.3553989,11.6434444 19.8271083,9.50880159 24.0528006,9.50880159 C24.4844017,9.50880159 25.0356239,9.54190476 25.6027037,9.62039683 C25.7216353,9.12214286 25.7536952,8.90714286 25.7536952,8.643 C25.7536952,7.64819841 25.0914701,7.27075397 23.3054274,7.27075397 C22.2274587,7.27075397 20.9898803,7.43319841 20.1370199,7.70109524 L19.6071709,7.85296032 L19.2734729,7.95056349 L19.7978063,4.5726746 C21.7003675,3.98739683 22.953114,3.76181746 24.3651254,3.76181746 C27.6397094,3.76181746 29.3750769,5.29138889 29.3750769,8.17784921 C29.3750769,8.92761905 29.3195755,9.48388889 29.0599943,11.1656667 L28.2626353,16.5021032 L28.1326724,17.4658492 L28.0347692,18.2333651 L27.9685812,18.7578968 L27.9210085,19.1619603 L27.9210085,19.1619603 Z" id="Shape"></path>
                    <path d="M87.6863903,12.4529365 C87.2899516,12.4055 87.1058661,12.3880952 86.839735,12.3880952 C84.6720769,12.3880952 83.5744587,13.1658492 83.5744587,14.6872302 C83.5744587,15.6250397 84.1180969,16.2226032 84.9502735,16.2226032 C86.507416,16.2226032 87.6181339,14.6872302 87.6863903,12.4529365 L87.6863903,12.4529365 Z M90.4604274,19.1619603 L87.3006382,19.1619603 L87.3740655,17.5982619 C86.4129601,18.8452619 85.125396,19.4237143 83.381755,19.4237143 C81.3099316,19.4237143 79.8896467,17.7453492 79.8896467,15.3202857 C79.8896467,11.6434444 82.358943,9.50880159 86.5929088,9.50880159 C87.0220969,9.50880159 87.57849,9.54190476 88.1417778,9.62039683 C88.258641,9.12214286 88.2927692,8.90714286 88.2927692,8.643 C88.2927692,7.64819841 87.6308889,7.27075397 85.8455356,7.27075397 C84.7610171,7.27075397 83.526886,7.43319841 82.681265,7.70109524 L82.1393504,7.85296032 L81.8097892,7.95056349 L82.3399829,4.5726746 C84.2449573,3.98739683 85.4949459,3.76181746 86.8969601,3.76181746 C90.1767151,3.76181746 91.9120826,5.29138889 91.9120826,8.17784921 C91.9120826,8.92761905 91.846584,9.48388889 91.5997578,11.1656667 L90.7961937,16.5021032 L90.6782963,17.4658492 L90.5717749,18.2333651 L90.5021396,18.7578968 L90.4604274,19.1619603 L90.4604274,19.1619603 Z" id="Shape"></path>
                    <path d="M101.10498,3.97647619 C100.992254,3.95395238 100.867462,3.93757143 100.721641,3.93757143 C99.4706182,3.93757143 98.7553048,4.59519841 97.5839145,6.38959524 L97.9238177,4.10069841 L94.4765242,4.10069841 L92.1461538,19.1619603 L95.9623077,19.1619603 C97.3329516,9.95654762 97.692849,8.3669127 99.5161225,8.3669127 C99.6343647,8.3669127 99.6264359,8.35633333 99.7825983,8.38226984 C100.128017,6.56739683 100.594091,5.23303175 101.234598,4.01606349 L101.10498,3.97647619 L101.10498,3.97647619 Z" id="Shape"></path>
                </g>
                <g id="Group" transform="translate(0.000000, 23.206349)" fill="#F89620">
                    <path d="M85.8041681,10.5626429 C85.8041681,13.9770476 84.7365413,15.9874683 83.0535726,15.9874683 C81.8249573,16.0250079 81.0799972,14.6694841 81.0799972,12.642 C81.0799972,10.2442381 82.1683077,7.52636508 83.9147066,7.52636508 C85.3184444,7.52670635 85.8041681,8.99928571 85.8041681,10.5626429 L85.8041681,10.5626429 Z M89.5520655,10.6254365 C89.5520655,6.8301746 87.6577778,3.87614286 84.0974131,3.87614286 C79.9985812,3.87614286 77.3441652,7.46834921 77.3441652,12.7566667 C77.3441652,16.5427143 78.9130285,19.638373 82.7936467,19.638373 C86.7097721,19.638373 89.5520655,16.8935397 89.5520655,10.6254365 L89.5520655,10.6254365 Z" id="Shape"></path>
                    <path d="M78.5689886,1.21184921 L77.986396,5.22518254 C76.7195157,4.51704762 75.7977094,4.22321429 74.8014416,4.22321429 C72.1387521,4.22321429 70.2789373,7.09022222 70.2789373,11.1660079 C70.2789373,13.9797778 71.5244444,15.6820317 73.5990256,15.6820317 C74.4836011,15.6820317 75.4516011,15.3830794 76.6264387,14.7268175 L76.0093732,18.9520794 C74.6925071,19.353754 73.8327521,19.4912857 72.854755,19.4912857 C69.0186068,19.4912857 66.628943,16.4215635 66.628943,11.4956746 C66.628943,4.86753175 69.9269687,0.241960317 74.6507949,0.241960317 C75.2623447,0.241960317 75.8035698,0.318746032 76.2510285,0.440920635 L77.7085442,0.850444444 C78.158416,1.02722222 78.2514929,1.05827778 78.5689886,1.21184921 L78.5689886,1.21184921 Z" id="Shape"></path>
                    <path d="M55.005359,3.96965079 C54.8967692,3.93996032 54.7716325,3.92801587 54.6396011,3.92801587 C53.4840684,3.92801587 52.8063305,4.58837302 51.7231909,6.37662698 L52.0382735,4.0918254 L48.8160883,4.0918254 L46.6408462,19.1547937 L50.1987977,19.1547937 C51.4787778,9.94016667 51.817302,8.35462698 53.524057,8.35462698 C53.6247179,8.35462698 53.6350598,8.35462698 53.7836382,8.37169048 C54.1045812,6.54965079 54.5365271,5.21494444 55.1349772,3.9955873 L55.005359,3.96965079 L55.005359,3.96965079 Z" id="Shape"></path>
                    <path d="M101.484872,18.9937143 L98.1227265,18.9937143 L98.2957806,17.5235238 C97.3177835,18.6828175 96.3004872,19.1960873 94.9991339,19.1960873 C92.4064245,19.1960873 90.6944986,16.7058413 90.6944986,12.9409524 C90.6944986,7.93964286 93.3516724,3.69765873 96.4931909,3.69765873 C97.8793476,3.69765873 98.9311168,4.34607143 99.9029088,5.7732619 L100.687858,0.477095238 L104.190308,0.477095238 L101.484872,18.9937143 L101.484872,18.9937143 Z M96.224302,15.4506508 C97.9003761,15.4506508 99.0559088,13.3593492 99.0559088,10.375627 C99.0559088,8.45598413 98.3957521,7.42534921 97.171963,7.42534921 C95.5534587,7.42534921 94.4034416,9.51903968 94.4034416,12.4925238 C94.4034416,14.4551667 95.0205071,15.4506508 96.224302,15.4506508 L96.224302,15.4506508 Z" id="Shape"></path>
                    <path d="M21.6372821,18.9316032 C20.4269373,19.344881 19.2476182,19.5448651 17.992114,19.5448651 C14.0180741,19.5448651 11.9438376,17.2249127 11.9438376,12.7996667 C11.9438376,7.63079365 14.582396,3.81778571 18.1641339,3.81778571 C21.0970912,3.81778571 22.9672479,5.94935714 22.9672479,9.29584921 C22.9672479,10.4019048 22.8400427,11.4857778 22.5356467,13.0129603 L15.4431852,13.0129603 C15.421812,13.2378571 15.4138832,13.3494524 15.4138832,13.4808413 C15.4138832,15.2370159 16.476339,16.1229524 18.5402336,16.1229524 C19.8119402,16.1229524 20.9616125,15.8294603 22.2360769,15.1691032 L21.6372821,18.9316032 L21.6372821,18.9316032 Z M19.6475043,9.97019841 C19.6637066,9.65179365 19.6740484,9.39823016 19.6740484,9.20473016 C19.6740484,7.9765 19.0490541,7.25778571 17.9917692,7.25778571 C16.8551966,7.25778571 16.0468063,8.22460317 15.7213818,9.9545 L19.6475043,9.97019841 L19.6475043,9.97019841 Z" id="Shape"></path>
                    <path d="M63.9665983,18.9316032 C62.7524615,19.344881 61.5707293,19.5448651 60.3197066,19.5448651 C56.3377379,19.5448651 54.2662593,17.2249127 54.2662593,12.7996667 C54.2662593,7.63079365 56.9075755,3.81778571 60.4865556,3.81778571 C63.4202023,3.81778571 65.2962194,5.94935714 65.2962194,9.29584921 C65.2962194,10.4019048 65.1634986,11.4857778 64.848416,13.0129603 L57.7714672,13.0129603 C57.7497493,13.2378571 57.7366496,13.3494524 57.7366496,13.4808413 C57.7366496,15.2370159 58.7966923,16.1229524 60.8602422,16.1229524 C62.1322934,16.1229524 63.2850684,15.8294603 64.5598775,15.1691032 L63.9665983,18.9316032 L63.9665983,18.9316032 Z M61.9657892,9.97019841 C61.9892308,9.65179365 62.0023305,9.39823016 62.0023305,9.20473016 C62.0023305,7.9765 61.3721652,7.25778571 60.3193618,7.25778571 C59.1824444,7.25778571 58.3750883,8.22460317 58.0462165,9.9545 L61.9657892,9.97019841 L61.9657892,9.97019841 Z" id="Shape"></path>
                    <path d="M113.626929,18.9316032 C112.396934,19.344881 111.23106,19.5448651 109.970729,19.5448651 C105.997034,19.5448651 103.917282,17.2249127 103.917282,12.7996667 C103.917282,7.63079365 106.564114,3.81778571 110.142749,3.81778571 C113.075707,3.81778571 114.94414,5.94935714 114.94414,9.29584921 C114.94414,10.4019048 114.822105,11.4857778 114.506678,13.0129603 L107.42249,13.0129603 C107.39767,13.2378571 107.392499,13.3494524 107.392499,13.4808413 C107.392499,15.2370159 108.455644,16.1229524 110.519538,16.1229524 C111.792624,16.1229524 112.940228,15.8294603 114.217795,15.1691032 L113.626929,18.9316032 L113.626929,18.9316032 Z M111.626464,9.97019841 C111.642322,9.65179365 111.652664,9.39823016 111.652664,9.20473016 C111.652664,7.9765 111.030427,7.25778571 109.970729,7.25778571 C108.833812,7.25778571 108.029214,8.22460317 107.699652,9.9545 L111.626464,9.97019841 L111.626464,9.97019841 Z" id="Shape"></path>
                    <path d="M11.1037322,4.65048413 C10.4070342,4.1890873 9.4638547,3.78604762 8.13113105,3.78604762 C6.6925755,3.78604762 5.53497436,4.08124603 5.53497436,5.59648413 C5.53497436,8.27238095 10.7803761,7.27314286 10.7803761,13.0034048 C10.7803761,18.2227857 7.31825926,19.5759206 4.18639316,19.5759206 C2.79299715,19.5759206 1.1900057,19.1196429 0.00861823362,18.5998889 L0.859065527,14.7646984 C1.57196581,15.4056032 3.01017664,15.8448175 4.18639316,15.8448175 C5.30710826,15.8448175 7.06350427,15.5417698 7.06350427,13.6054048 C7.06350427,10.5732222 1.8208604,11.701119 1.8208604,6.37901587 C1.8208604,1.51046032 4.8834359,0.0522142857 7.83776638,0.0522142857 C9.5014302,0.0522142857 11.064433,0.293833333 11.9810684,0.896857143 L11.1037322,4.65048413 L11.1037322,4.65048413 Z" id="Shape"></path>
                    <path d="M32.0567265,18.9261429 C31.3227977,19.2756032 30.3427322,19.505619 28.8962479,19.505619 C25.7860997,19.505619 23.857339,16.4280476 23.857339,12.681246 C23.857339,7.77753968 26.6472336,3.86556349 30.7533048,3.86556349 C31.6489117,3.86556349 33.0157635,4.24915079 34.0940769,4.86787302 L33.3070598,8.46519841 C32.5438291,7.96865079 31.7492279,7.65297619 30.9308405,7.65297619 C29.0282792,7.65297619 27.6693561,9.37911905 27.6693561,12.4720476 C27.6693561,14.2527937 28.6549373,15.7134286 30.2124245,15.7134286 C31.1394017,15.7134286 31.7916296,15.5199286 32.5893333,15.0581905 L32.0567265,18.9261429 L32.0567265,18.9261429 Z" id="Shape"></path>
                    <path d="M45.367416,15.1544286 C45.1847094,16.4502302 45.0151026,17.7081508 44.9140969,19.0599206 L41.4885214,19.0599206 L41.7774046,16.6253016 L41.7425869,16.6253016 C40.6697892,18.280119 39.5597607,19.4066508 37.6203134,19.4066508 C35.469547,19.4066508 34.3040171,17.1662143 34.3040171,14.2401667 C34.3040171,13.2317143 34.3674473,12.6624762 34.5949687,11.0875159 L35.5646923,4.11605556 L39.3770541,4.11605556 L38.3542422,11.1079921 C38.2508234,11.859127 38.1053476,12.604119 38.1053476,13.3811905 C38.1053476,14.2623492 38.5107493,15.153746 39.5387322,15.0991429 C41.1013903,15.0991429 42.0235413,13.2068016 42.2858803,10.9987857 L43.3379943,4.11571429 L47.0283219,4.11571429 L45.367416,15.1544286 L45.367416,15.1544286 Z" id="Shape"></path>
                    <g transform="translate(115.484330, 15.698413)" id="Shape">
                        <polygon points="1.694 3.17961111 1.11761254 3.17961111 1.11761254 0.681515873 0.28405698 0.681515873 0.28405698 0.146404762 2.52755556 0.146404762 2.52755556 0.681515873 1.694 0.681515873"></polygon>
                        <polygon points="5.51566952 3.17961111 4.97720228 3.17961111 4.97720228 0.64397619 4.96961823 0.64397619 4.45493732 3.17961111 3.89027066 3.17961111 3.38765527 0.64397619 3.3797265 0.64397619 3.3797265 3.17961111 2.84263818 3.17961111 2.84263818 0.146404762 3.68308832 0.146404762 4.1832906 2.53768254 4.19087464 2.53768254 4.68211396 0.146404762 5.51566952 0.146404762"></polygon>
                    </g>
                </g>
            </g>
        </g>
    </g>
</svg>