<?xml version="1.0" standalone="no"?>
<!DOCTYPE svg PUBLIC "-//W3C//DTD SVG 20010904//EN"
 "http://www.w3.org/TR/2001/REC-SVG-20010904/DTD/svg10.dtd">
<svg version="1.0" xmlns="http://www.w3.org/2000/svg"
 width="192" height="60" viewBox="0 0 1697.000000 531.000000"
 preserveAspectRatio="xMidYMid meet">

<g transform="translate(0.000000,531.000000) scale(0.100000,-0.100000)"
fill="#c41230" stroke="none">
<path d="M1796 5294 c-534 -100 -959 -515 -1077 -1052 -19 -85 -22 -138 -26
-429 -5 -301 -7 -333 -22 -333 -27 -1 -95 -36 -135 -70 -60 -53 -86 -109 -102
-215 -26 -176 -90 -289 -216 -380 -70 -51 -109 -101 -132 -168 -23 -67 -20
-130 10 -228 22 -71 25 -98 21 -174 -5 -96 -30 -183 -70 -244 -36 -55 -47 -97
-47 -180 0 -94 18 -136 94 -225 105 -125 130 -202 131 -406 0 -132 2 -149 23
-188 40 -75 88 -118 178 -161 138 -66 239 -176 282 -308 29 -86 45 -114 95
-160 70 -64 98 -75 227 -84 184 -13 277 -54 395 -173 99 -100 141 -118 264
-113 77 3 108 9 158 30 122 54 276 53 402 -3 60 -26 81 -30 158 -30 114 1 154
19 248 113 118 119 252 176 415 177 57 0 87 6 125 24 97 45 138 94 178 213 48
142 142 245 283 313 95 45 147 93 181 168 23 49 25 67 27 210 2 154 2 159 35
234 21 50 52 99 88 140 80 89 98 134 98 238 -1 82 -3 89 -48 175 -80 151 -94
283 -47 420 13 37 20 84 20 130 0 60 -5 82 -31 134 -18 37 -47 74 -71 94 -175
139 -236 236 -257 405 -6 45 -17 97 -25 116 -32 77 -154 176 -216 176 -20 0
-20 6 -20 308 0 347 -9 428 -65 599 -66 197 -164 359 -311 513 -183 190 -397
313 -668 382 -109 27 -431 35 -550 12z m462 -687 c264 -93 445 -332 460 -603
l5 -90 -71 -14 c-136 -25 -274 5 -392 85 -75 51 -118 70 -176 80 -57 9 -149
-10 -198 -41 -23 -14 -66 -41 -96 -60 -102 -64 -226 -86 -356 -63 l-77 13 6
87 c22 298 224 543 517 624 90 24 285 15 378 -18z m13 -1263 c266 -45 516
-174 709 -366 325 -323 460 -770 369 -1220 -106 -527 -538 -949 -1069 -1044
-139 -25 -365 -23 -497 5 -283 59 -506 182 -704 388 -167 174 -276 372 -337
613 -24 95 -26 123 -27 300 0 258 24 373 121 579 173 368 514 643 905 730 129
28 126 28 290 30 94 1 179 -5 240 -15z"/>
<path d="M1895 2885 c-131 -21 -204 -43 -315 -97 -90 -43 -117 -62 -186 -132
-145 -147 -194 -277 -240 -646 -29 -236 -28 -323 5 -430 61 -194 261 -343 525
-389 34 -7 211 -11 416 -11 410 0 417 1 504 81 53 48 98 128 112 198 l7 31
-379 0 c-209 0 -412 5 -452 10 -173 23 -255 99 -268 253 -7 70 37 428 62 517
35 120 97 207 182 253 98 53 142 59 482 66 302 6 317 7 362 29 26 13 63 41 83
64 37 40 87 137 99 191 l6 27 -462 -1 c-322 -1 -487 -5 -543 -14z"/>
<path d="M7428 3529 c-242 -25 -437 -112 -558 -247 -58 -64 -131 -205 -154
-297 -22 -89 -66 -437 -66 -524 0 -155 46 -270 146 -368 74 -72 188 -133 309
-163 256 -65 656 -40 867 53 184 82 317 234 377 431 30 98 71 415 71 549 0
181 -34 273 -139 377 -163 161 -472 230 -853 189z m363 -305 c110 -33 169
-130 169 -278 0 -102 -45 -417 -70 -492 -41 -123 -113 -200 -227 -245 -50 -20
-76 -23 -193 -23 -117 0 -143 3 -193 23 -109 43 -153 103 -163 225 -7 71 36
420 62 506 46 157 134 251 263 286 69 19 286 17 352 -2z"/>
<path d="M11858 3529 c-254 -27 -470 -131 -582 -280 -95 -127 -130 -231 -167
-504 -43 -323 -28 -467 65 -593 49 -66 143 -138 230 -177 151 -67 375 -95 610
-76 432 34 676 200 770 522 35 121 80 491 72 591 -12 151 -57 250 -156 341
-162 151 -472 215 -842 176z m409 -323 c126 -69 147 -174 104 -501 -33 -245
-66 -338 -148 -417 -89 -86 -235 -122 -405 -100 -199 25 -273 103 -271 287 1
83 34 354 54 440 37 159 125 263 259 307 45 14 83 17 205 15 144 -2 152 -3
202 -31z"/>
<path d="M16015 3534 c-16 -2 -66 -9 -110 -15 -104 -14 -236 -57 -322 -104
-103 -57 -211 -172 -261 -276 -52 -108 -68 -171 -98 -393 -50 -379 -24 -519
123 -657 152 -142 415 -212 728 -194 366 21 596 123 729 323 81 122 106 206
141 476 38 292 33 397 -27 524 -69 146 -229 251 -453 298 -68 14 -387 27 -450
18z m319 -308 c102 -31 161 -113 172 -238 7 -72 -36 -421 -62 -509 -65 -217
-223 -315 -480 -295 -215 16 -304 101 -304 288 0 89 46 425 66 485 49 145 129
228 259 269 57 18 289 18 349 0z"/>
<path d="M5665 3493 c-308 -40 -511 -165 -616 -378 -50 -103 -64 -159 -94
-386 -38 -283 -30 -406 32 -521 61 -112 208 -213 378 -260 76 -21 100 -22 440
-23 l360 0 51 27 c84 44 140 124 168 241 l6 27 -368 0 c-206 0 -393 4 -423 10
-78 15 -139 49 -174 99 -27 38 -30 52 -33 131 -4 92 19 306 45 425 27 122 85
212 167 260 84 49 150 58 456 64 l285 6 48 28 c58 35 110 102 137 181 11 33
20 64 20 68 0 8 -825 9 -885 1z"/>
<path d="M8802 2733 c-51 -423 -95 -779 -98 -792 l-5 -23 153 4 c117 3 163 9
196 22 56 24 126 102 142 161 7 26 32 198 54 383 l42 337 41 -75 c22 -41 91
-172 153 -290 62 -118 126 -229 142 -247 54 -56 118 -50 184 19 23 24 139 166
258 316 119 150 216 270 216 267 0 -4 -25 -204 -55 -445 -30 -241 -55 -442
-55 -445 0 -4 66 -5 148 -3 164 5 194 13 260 72 72 65 73 70 161 786 45 360
83 670 87 688 l5 34 -168 -4 c-250 -5 -210 22 -582 -399 -168 -191 -310 -349
-315 -351 -5 -2 -106 152 -225 342 -224 358 -240 378 -320 400 -20 5 -101 10
-181 10 l-145 0 -93 -767z"/>
<path d="M13323 3429 c8 -91 37 -152 90 -187 l40 -27 351 -6 c335 -5 354 -6
409 -28 104 -41 148 -96 168 -209 9 -48 6 -92 -15 -249 -14 -104 -32 -211 -40
-236 -29 -98 -91 -174 -177 -218 -71 -36 -162 -49 -346 -49 -149 0 -173 2
-173 15 0 9 16 144 35 301 19 156 35 299 35 317 0 94 -51 168 -133 192 -61 18
-307 22 -307 4 0 -6 -25 -207 -56 -447 -73 -576 -71 -549 -42 -592 55 -83 132
-94 603 -87 261 4 385 9 450 21 324 56 497 203 571 485 19 73 64 443 64 523
-1 309 -198 489 -590 537 -47 6 -274 11 -514 11 l-429 0 6 -71z"/>
<path fill="#000" d="M5410 1546 c-147 -33 -222 -117 -224 -251 -2 -144 52 -211 240 -301
131 -63 156 -89 130 -129 -9 -14 -28 -28 -42 -31 -45 -12 -157 4 -229 31 -38
14 -78 29 -87 32 -16 5 -18 -5 -18 -110 l0 -115 68 -24 c57 -20 87 -23 202
-23 127 0 139 2 195 28 70 33 118 76 148 132 17 32 22 57 22 125 0 145 -33
185 -239 288 -101 50 -127 68 -132 88 -17 66 78 84 212 39 41 -14 78 -25 83
-25 10 0 87 188 80 194 -14 11 -98 37 -162 50 -89 19 -170 19 -247 2z"/>
<path fill="#000" d="M6140 1546 c-149 -33 -224 -119 -224 -261 -1 -133 57 -203 240 -291
131 -63 156 -89 130 -129 -9 -14 -28 -28 -42 -31 -45 -12 -157 4 -229 31 -38
14 -78 29 -87 32 -16 5 -18 -5 -18 -110 l0 -115 68 -24 c57 -20 87 -23 202
-23 127 0 139 2 195 28 110 51 164 125 173 234 11 146 -39 212 -240 311 -103
50 -129 68 -134 88 -17 66 78 84 212 39 41 -14 78 -25 83 -25 8 0 81 170 81
188 0 11 -82 39 -165 57 -83 17 -170 18 -245 1z"/>
<path fill="#000" d="M7732 1549 c-119 -23 -232 -109 -281 -213 -38 -79 -51 -147 -51 -254
1 -211 77 -353 230 -426 62 -30 70 -31 195 -31 75 0 148 6 173 13 38 12 42 16
42 46 l0 33 -67 -15 c-97 -20 -233 -12 -301 18 -66 29 -133 102 -164 178 -19
49 -22 75 -22 187 0 112 3 138 22 187 30 75 99 150 170 185 51 25 67 28 157
28 72 -1 113 -6 145 -19 65 -25 70 -24 85 11 13 31 13 32 -25 47 -81 32 -216
43 -308 25z"/>
<path fill="#000" d="M11902 1550 c-206 -44 -332 -220 -332 -465 0 -241 114 -409 309 -455
62 -15 246 -8 299 10 27 10 32 17 32 44 l0 33 -67 -15 c-106 -22 -236 -13
-305 21 -120 59 -188 190 -188 362 0 179 76 318 208 378 68 31 234 31 309 -1
l53 -22 16 32 c13 25 14 32 2 39 -54 35 -248 58 -336 39z"/>
<path fill="#000" d="M6680 1090 l0 -460 300 0 300 0 0 105 0 105 -175 0 -175 0 0 355 0
355 -125 0 -125 0 0 -460z"/>
<path fill="#000" d="M8230 1090 l0 -460 255 0 255 0 0 35 0 35 -215 0 -215 0 0 190 0 190
200 0 200 0 0 35 0 35 -200 0 -200 0 0 165 0 165 215 0 215 0 0 35 0 35 -255
0 -255 0 0 -460z"/>
<path fill="#000" d="M8930 1090 l0 -460 35 0 35 0 0 200 0 200 108 0 108 0 118 -200 118
-200 44 0 c53 0 63 -26 -88 228 -61 101 -108 185 -106 186 1 1 22 10 45 20 90
39 133 113 133 229 0 195 -106 257 -442 257 l-108 0 0 -460z m376 359 c55 -28
82 -59 95 -115 21 -89 -14 -171 -91 -214 -40 -22 -59 -25 -177 -28 l-133 -4 0
197 0 198 129 -5 c110 -4 135 -8 177 -29z"/>
<path fill="#000" d="M9560 1515 l0 -35 145 0 145 0 0 -425 0 -425 40 0 40 0 0 425 0 425
145 0 145 0 0 35 0 35 -330 0 -330 0 0 -35z"/>
<path fill="#000" d="M10350 1090 l0 -460 35 0 35 0 0 460 0 460 -35 0 -35 0 0 -460z"/>
<path fill="#000" d="M10660 1090 l0 -460 40 0 40 0 0 205 0 205 205 0 205 0 0 30 0 30
-205 0 -205 0 0 190 0 190 215 0 215 0 0 35 0 35 -255 0 -255 0 0 -460z"/>
<path fill="#000" d="M11300 1090 l0 -460 35 0 35 0 0 460 0 460 -35 0 -35 0 0 -460z"/>
<path fill="#000" d="M12631 1528 c-5 -13 -86 -215 -180 -451 -94 -235 -171 -432 -171
-437 0 -6 17 -10 39 -10 l38 0 62 160 63 160 180 -2 181 -3 61 -157 61 -158
43 0 c23 0 42 1 42 3 0 1 -81 207 -179 457 -169 429 -180 455 -205 458 -20 3
-28 -2 -35 -20z m176 -505 c-2 -2 -70 -2 -149 -1 l-145 3 76 196 76 196 73
-195 c40 -107 71 -196 69 -199z"/>
<path fill="#000" d="M13040 1515 l0 -35 150 0 150 0 0 -425 0 -425 35 0 35 0 0 425 0 425
145 0 145 0 0 35 0 35 -330 0 -330 0 0 -35z"/>
<path fill="#000" d="M13830 1090 l0 -460 250 0 250 0 0 35 0 35 -215 0 -215 0 0 190 0
190 205 0 205 0 0 35 0 35 -205 0 -205 0 0 165 0 165 215 0 215 0 0 35 0 35
-250 0 -250 0 0 -460z"/>
</g>
</svg>
