<?xml version="1.0" encoding="UTF-8"?>
<svg width="106" height="60" viewBox="0 0 102 58" version="1.1" xmlns="http://www.w3.org/2000/svg" xmlns:xlink="http://www.w3.org/1999/xlink">
    <title>Verified by VISA</title>
    <defs>
        <polygon id="path-1" points="0.0295652174 34.3300513 0.0295652174 0.165076923 50.7686056 0.165076923 101.507646 0.165076923 101.507646 34.3300513 0.0295652174 34.3300513"></polygon>
    </defs>
    <g id="pages" stroke="none" stroke-width="1" fill="none" fill-rule="evenodd">
        <g id="home-8" transform="translate(-513.000000, -3634.000000)">
            <g id="verified-by-visa" transform="translate(513.000000, 3634.000000)">
                <path d="M86.907942,38.6374188 C86.7670145,39.7751111 86.5812464,40.8676923 86.3516232,41.9151624 C85.3853333,41.5983932 84.2697391,41.0897778 82.6953913,41.1958632 C81.7557101,41.2593162 80.644058,41.622188 80.6287826,42.4748376 C80.612029,43.4191966 82.1548406,43.9808547 83.0132174,44.3937949 C84.5609565,45.1388718 86.222029,46.131812 86.3516232,48.1518974 C86.4506667,49.7050085 85.7342029,51.056359 84.9206667,51.830188 C82.7545217,53.8899316 77.9482029,54.1075556 74.667942,52.7899145 C74.8724348,51.6894017 75.0582029,50.5700513 75.2247536,49.4313675 C76.4945797,49.9746838 78.2389275,50.708359 80.1522899,50.470906 C81.0234783,50.3623419 82.0902899,49.8512479 82.0597391,48.952 C82.0217971,47.8544615 79.9857391,47.2015897 78.9598261,46.6329915 C77.7678551,45.972188 76.4113043,44.8726667 76.3368986,43.1946325 C76.2876232,42.0767692 76.7202609,41.0297949 77.2908696,40.3164444 C78.9844638,38.1987009 83.3369565,37.446188 86.907942,38.6374188" id="Fill-1" fill="#344E90"></path>
                <polyline id="Fill-2" fill="#344E90" points="47.9547826 17.2235214 52.3368406 17.2235214 49.6390145 34.3300513 45.2564638 34.3300513 47.9547826 17.2235214"></polyline>
                <path d="M36.6170145,20.6242051 L35.939971,24.9167009 L37.2073333,24.9167009 C38.4387246,24.9167009 39.604087,23.9515214 39.7977391,22.7702051 C39.9908986,21.5903761 39.1413913,20.6242051 37.9095072,20.6242051 L36.6170145,20.6242051 Z M32.7710725,17.2225299 L39.4808986,17.2225299 C43.7496232,17.2225299 44.8583188,19.6957094 44.3921739,22.6492479 C44.0033913,25.1164786 42.2413043,26.7627863 39.9534493,27.3482393 L44.2034493,34.3300513 L38.7018551,34.3300513 L35.5147246,27.6124615 L34.4553043,34.3300513 L30.0727536,34.3300513 L32.7710725,17.2225299 L32.7710725,17.2225299 Z" id="Fill-3" fill="#344E90"></path>
                <polyline id="Fill-4" fill="#344E90" points="67.9674783 17.2235214 72.3495362 17.2235214 69.6517101 34.3300513 65.2691594 34.3300513 67.9674783 17.2235214"></polyline>
                <polyline id="Fill-5" fill="#344E90" points="75.6785797 17.2225299 85.300087 17.2225299 84.7132174 20.9424615 79.4747536 20.9424615 79.0135362 23.8662564 83.9937971 23.8662564 83.4074203 27.5851966 78.4266667 27.5851966 77.9496812 30.6106154 83.1886377 30.6106154 82.6017681 34.3300513 72.9807536 34.3300513 75.6785797 17.2225299"></polyline>
                <polyline id="Fill-6" fill="#344E90" points="20.5443768 17.2225299 30.1653913 17.2225299 29.5785217 20.9424615 24.340058 20.9424615 23.8788406 23.8662564 28.8591014 23.8662564 28.2727246 27.5851966 23.2924638 27.5851966 22.8149855 30.6106154 28.053942 30.6106154 27.4675652 34.3300513 17.846058 34.3300513 20.5443768 17.2225299"></polyline>
                <g id="Group-11">
                    <mask id="mask-2" fill="white">
                        <use xlink:href="#path-1"></use>
                    </mask>
                    <g id="Clip-8"></g>
                    <polyline id="Fill-7" fill="#344E90" mask="url(#mask-2)" points="55.6555362 17.2225299 65.3844638 17.2225299 64.798087 20.9424615 59.4507246 20.9424615 58.9826087 23.8662564 63.848058 23.8662564 63.2592174 27.5851966 58.3957391 27.5851966 57.3318841 34.3300513 52.9567246 34.3300513 55.6555362 17.2225299"></polyline>
                    <path d="M91.6743478,20.9424615 L92.5795362,20.9424615 C95.9292754,20.9424615 97.2385217,23.3189744 96.8778261,25.6122051 C96.391971,28.6886838 94.1937971,30.6106154 91.3210435,30.6106154 L90.1492754,30.6106154 L91.6743478,20.9424615 Z M87.8786667,17.2225299 L93.5896812,17.2225299 C100.393623,17.2225299 101.944319,22.3998974 101.411159,25.7807521 C100.64887,30.6106154 96.3688116,34.3300513 90.8918551,34.3300513 L85.1808406,34.3300513 L87.8786667,17.2225299 L87.8786667,17.2225299 Z" id="Fill-9" fill="#344E90" mask="url(#mask-2)"></path>
                    <path d="M0,14.8921197 L8.10678261,14.8921197 L9.06962319,27.3204786 C14.4332464,17.9804957 19.8850725,8.99297436 25.3763188,0.165076923 L28.019942,0.165076923 C22.2064348,11.4438462 16.4668406,22.7954872 10.9075942,34.3300513 L4.95611594,34.3300513 L3.50544928,20.6242051 C3.14524638,17.2225299 2.46228986,15.7784786 0,15.4126325 L0,14.8921197" id="Fill-10" fill="#344E90" mask="url(#mask-2)"></path>
                </g>
                <polyline id="Fill-12" fill="#EC902D" points="3.06936232 7.82454701 9.98121739 10.7721368 10.5818841 18.5158803 11.0928696 18.5158803 17.3671014 7.82950427 17.3671014 7.29312821 3.06837681 7.29312821 3.06936232 7.82454701"></polyline>
                <path d="M31.4844928,38.3528718 L34.3207826,38.3528718 L33.3648406,45.0952479 C34.1749275,44.3085299 35.1658551,43.8222222 36.2730725,43.8222222 C38.5486087,43.8222222 40.0406667,46.0282051 39.6385797,48.750735 C39.2364928,51.473265 37.0910435,53.6817265 34.8155072,53.6817265 C33.6935072,53.6817265 32.8893333,53.1731111 32.3413913,52.3179829 L32.1901159,53.387265 L29.3533333,53.387265 L31.4844928,38.3528718 Z M35.0244348,46.5834188 C36.0725217,46.5834188 36.7845507,47.5495897 36.6145507,48.7408205 C36.4450435,49.9310598 35.458058,50.896735 34.4104638,50.896735 C33.3623768,50.896735 32.6498551,49.9310598 32.8198551,48.7408205 C32.9893623,47.5495897 33.9768406,46.5834188 35.0244348,46.5834188 L35.0244348,46.5834188 Z" id="Fill-13" fill="#344E90"></path>
                <polyline id="Fill-14" fill="#344E90" points="39.882 44.0517436 43.2854493 44.0517436 44.8075652 48.830547 47.7645797 44.0517436 51.0537101 44.0517436 42.4216522 58 39.1330145 58 42.7724928 52.1182051 39.882 44.0517436"></polyline>
                <polyline id="Fill-15" fill="#344E90" points="67.966 53.3823077 70.4588406 38.3484103 74.5373623 38.3484103 72.0445217 53.3823077 67.966 53.3823077"></polyline>
                <path d="M64.5566377,38.3171795 C63.1508116,41.6469744 61.9514493,45.1849744 60.5037391,48.4721368 L60.0784928,46.499641 C60.0770145,46.4927009 60.0735652,46.4832821 60.072087,46.4758462 L60.1435362,46.8268205 C59.8291594,45.789265 59.2945217,44.8102051 58.6105797,43.9124444 C58.5923478,43.889641 58.5746087,43.8663419 58.5558841,43.8430427 C58.4361449,43.6883761 58.3090145,43.5386667 58.1808986,43.3889573 C58.1030435,43.2972479 58.0232174,43.2065299 57.941913,43.115812 C56.9544348,42.0296752 55.7575362,41.0917607 54.4936232,40.3481709 L58.1193043,53.3495897 L62.4905217,53.3495897 C64.5482609,48.2763248 66.7686087,43.3681368 68.8485217,38.3171795 L64.5566377,38.3171795" id="Fill-16" fill="#344E90"></path>
                <path d="M56.8588406,38.3196581 L50.1913913,38.3196581 L50.1913913,38.6468376 C54.0294493,39.3998462 58.8751884,42.6389231 60.1435362,46.8268205 L58.7125797,39.8246838 C58.5169565,38.7454872 57.769942,38.3196581 56.8588406,38.3196581" id="Fill-17" fill="#EC902D"></path>
                <path d="M94.4682609,42.4822735 L92.3913043,48.0720855 L95.749913,48.0720855 L94.4682609,42.4822735 Z M100.657246,53.4294017 L96.9216812,53.4294017 C96.6802319,52.7125812 96.6127246,51.821265 96.3653623,51.1103932 L91.2791594,51.1103932 L90.3251884,53.4294017 L86.0333043,53.4294017 L91.5964928,40.5563761 C91.8423768,39.9912479 92.2843768,39.2203932 92.4711304,38.8768547 C92.753971,38.3563419 93.8473913,38.3171795 94.312058,38.3171795 L97.3986667,38.3171795 L100.657246,53.4294017 L100.657246,53.4294017 Z" id="Fill-18" fill="#344E90"></path>
            </g>
        </g>
    </g>
</svg>