<?xml version="1.0" encoding="UTF-8"?>
<svg width="196" height="60" viewBox="0 0 193 59" version="1.1" xmlns="http://www.w3.org/2000/svg" xmlns:xlink="http://www.w3.org/1999/xlink">
    <title>PCI</title>
    <desc>Security Standards Council ™</desc>
    <defs>
        <polygon id="path-1" points="0 138.752228 192.761851 138.752228 192.761851 0.226215686 0 0.226215686"></polygon>
        <polygon id="path-3" points="0 138.752228 192.761851 138.752228 192.761851 0.226215686 0 0.226215686"></polygon>
    </defs>
    <g id="pages" stroke="none" stroke-width="1" fill="none" fill-rule="evenodd">
        <g id="home-8" transform="translate(-784.000000, -3631.000000)">
            <g id="Page-1" transform="translate(784.000000, 3586.000000)">
                <g id="Group-31" transform="translate(0.000000, 0.021556)">
                    <path d="M94.4871936,72.0045768 C95.0011987,72.3331223 95.7407013,72.5878317 96.5340355,72.5878317 C97.717835,72.5878317 98.4010252,71.9775697 98.4010252,71.0655216 C98.4010252,70.2436624 97.9277039,69.7550563 96.7235625,69.3048549 C95.2648992,68.7756143 94.3653902,68.0099993 94.3653902,66.764698 C94.3653902,65.3771758 95.5196692,64.3439672 97.2489789,64.3439672 C98.1532013,64.3439672 98.8249802,64.5533344 99.2127167,64.778559 L98.8924558,65.7198442 C98.617592,65.5466517 98.0222193,65.2986321 97.2172257,65.2986321 C95.9954712,65.2986321 95.5308324,66.0236125 95.5308324,66.6316446 C95.5308324,67.465149 96.0743581,67.8769458 97.307772,68.3544021 C98.8160496,68.9510367 99.5689481,69.6604075 99.5689481,70.9733504 C99.5689481,72.3469975 98.565745,73.5514164 96.4576293,73.5514164 C95.5963234,73.5514164 94.6561306,73.2860528 94.1803285,72.9728692 L94.4871936,72.0045768 Z" id="Fill-1" fill="#0097a7"></path>
                    <path d="M105.263912,69.570392 C105.277556,68.8426861 104.961512,67.6764241 103.667569,67.6764241 C102.472606,67.6764241 101.963066,68.7619125 101.877729,69.570392 L105.263912,69.570392 Z M101.861853,70.4034009 C101.88914,71.9774954 102.878452,72.6236843 104.043894,72.6236843 C104.88064,72.6236843 105.39663,72.4819588 105.827283,72.3060408 L106.032439,73.1279 C105.62436,73.3127378 104.909665,73.5401923 103.888601,73.5401923 C101.929576,73.5401923 100.734365,72.2294793 100.734365,70.310982 C100.734365,68.3679553 101.88914,66.8434152 103.757867,66.8434152 C105.847873,66.8434152 106.395616,68.6828733 106.395616,69.8607806 C106.395616,70.0996326 106.379739,70.2839749 106.35518,70.4147984 L101.861853,70.4034009 L101.861853,70.4034009 Z" id="Fill-3" fill="#0097a7"></path>
                    <path d="M112.406152,73.1822116 C112.097302,73.3239371 111.42081,73.5513916 110.56397,73.5513916 C108.627768,73.5513916 107.369547,72.2406786 107.369547,70.2706447 C107.369547,68.2978854 108.722035,66.8570922 110.816507,66.8570922 C111.503914,66.8570922 112.112931,67.0280547 112.426494,67.201495 L112.164778,68.088766 C111.887434,67.9401029 111.454796,67.7827677 110.816507,67.7827677 C109.344696,67.7827677 108.5464,68.8791581 108.5464,70.2166305 C108.5464,71.6985538 109.504702,72.6145663 110.778304,72.6145663 C111.434702,72.6145663 111.87379,72.4525235 112.205214,72.3060904 L112.406152,73.1822116" id="Fill-5" fill="#0097a7"></path>
                    <path d="M119.131235,71.6578449 C119.131235,72.3198913 119.149344,72.9028984 119.185562,73.4053797 L118.148373,73.4053797 L118.089828,72.3602781 L118.060556,72.3602781 C117.769816,72.8758913 117.077695,73.5515651 115.939044,73.5515651 C114.933609,73.5515651 113.727483,72.9819376 113.727483,70.7438146 L113.727483,67.0009733 L114.892677,67.0009733 L114.892677,70.5341996 C114.892677,71.7524938 115.278429,72.5852549 116.324548,72.5852549 C117.106967,72.5852549 117.650493,72.0428824 117.864331,71.511164 C117.929574,71.3558111 117.970258,71.1444617 117.970258,70.9170071 L117.970258,67.0009733 L119.131235,67.0009733 L119.131235,71.6578449" id="Fill-7" fill="#0097a7"></path>
                    <path d="M121.083834,68.9984107 C121.083834,68.2439455 121.072423,67.5975087 121.029506,67.0008742 L122.048834,67.0008742 L122.102666,68.2620328 L122.143597,68.2620328 C122.434338,67.4020168 123.149033,66.8569187 123.926491,66.8569187 C124.048294,66.8569187 124.143306,66.8700506 124.248984,66.8953234 L124.248984,67.9827939 C124.116266,67.9691665 123.996695,67.9533091 123.838673,67.9533091 C123.013586,67.9533091 122.434338,68.5771986 122.276316,69.4374624 C122.247043,69.6086727 122.233896,69.7954927 122.233896,69.9937102 L122.233896,73.4052806 L121.072423,73.4052806 L121.083834,68.9984107" id="Fill-9" fill="#0097a7"></path>
                    <mask id="mask-2" fill="white">
                        <use xlink:href="#path-1"></use>
                    </mask>
                    <g id="Clip-12"></g>
                    <path d="M125.450744,73.4053797 L126.612217,73.4053797 L126.612217,67.003451 L125.450744,67.003451 L125.450744,73.4053797 Z M126.005185,65.8257914 C125.56833,65.8257914 125.275109,65.4811408 125.275109,65.0690963 C125.275109,64.6592816 125.581478,64.3302406 126.032473,64.3302406 C126.480987,64.3302406 126.774208,64.6592816 126.774208,65.0690963 C126.774208,65.4811408 126.480987,65.8257914 126.023542,65.8257914 L126.005185,65.8257914 L126.005185,65.8257914 Z" id="Fill-11" fill="#0097a7" mask="url(#mask-2)"></path>
                    <path d="M129.953127,65.4700654 L129.953127,67.0055075 L131.621659,67.0055075 L131.621659,67.8903007 L129.953127,67.8903007 L129.953127,71.3449834 C129.953127,72.1373578 130.183089,72.587807 130.829813,72.587807 C131.143624,72.587807 131.332903,72.5607998 131.506553,72.5065378 L131.55592,73.3938087 C131.332903,73.4723524 130.974191,73.5536216 130.523444,73.5536216 C129.980166,73.5536216 129.5448,73.3670494 129.269936,73.0630333 C128.947691,72.705003 128.814724,72.1373578 128.814724,71.3806626 L128.814724,67.8903007 L127.822436,67.8903007 L127.822436,67.0055075 L128.814724,67.0055075 L128.814724,65.8258658 L129.953127,65.4700654" id="Fill-13" fill="#0097a7" mask="url(#mask-2)"></path>
                    <path d="M133.476766,67.0009733 L134.867705,70.7859358 C135.030193,71.2093779 135.183749,71.7138414 135.291908,72.0964011 L135.319196,72.0964011 C135.436038,71.7138414 135.571238,71.2230053 135.727275,70.7616542 L137.000628,67.0009733 L138.234042,67.0009733 L136.48191,71.565426 C135.64814,73.7629144 135.077574,74.8890374 134.28424,75.5872585 C133.704744,76.0780945 133.145342,76.2763119 132.854601,76.3298307 L132.563861,75.3508841 C132.854601,75.2740749 133.240353,75.085025 133.582693,74.7807611 C133.900721,74.5285294 134.28424,74.0803102 134.563569,73.4839234 C134.615664,73.3647451 134.653867,73.2859537 134.653867,73.2069144 C134.653867,73.139025 134.631293,73.0451194 134.563569,72.9165258 L132.205149,67.0009733 L133.476766,67.0009733" id="Fill-14" fill="#0097a7" mask="url(#mask-2)"></path>
                    <path d="M94.4871936,85.231579 C95.0011987,85.5650799 95.7407013,85.8148339 96.5340355,85.8148339 C97.717835,85.8148339 98.4010252,85.2045718 98.4010252,84.2902938 C98.4010252,83.4728945 97.9277039,82.9842884 96.7235625,82.534087 C95.2648992,82.0068285 94.3653902,81.2370014 94.3653902,79.991948 C94.3653902,78.6044257 95.5196692,77.5731993 97.2489789,77.5731993 C98.1532013,77.5731993 98.8249802,77.7847964 99.2127167,78.010021 L98.8924558,78.9495718 C98.617592,78.777866 98.0222193,78.5281119 97.2172257,78.5281119 C95.9954712,78.5281119 95.5308324,79.2530923 95.5308324,79.8608766 C95.5308324,80.6943811 96.0743581,81.1041957 97.307772,81.5794221 C98.8160496,82.1782866 99.5689481,82.8918695 99.5689481,84.2025825 C99.5689481,85.5782118 98.565745,86.7808963 96.4576293,86.7808963 C95.5963234,86.7808963 94.6561306,86.517267 94.1803285,86.1973936 L94.4871936,85.231579" id="Fill-15" fill="#0097a7" mask="url(#mask-2)"></path>
                    <path d="M102.472631,78.6990002 L102.472631,80.2324601 L104.141411,80.2324601 L104.141411,81.119731 L102.472631,81.119731 L102.472631,84.571936 C102.472631,85.3667881 102.700609,85.8169895 103.34758,85.8169895 C103.667593,85.8169895 103.85464,85.7897346 104.024073,85.7359681 L104.078152,86.623239 C103.85464,86.7064904 103.494191,86.7828041 103.042948,86.7828041 C102.49967,86.7828041 102.064552,86.5984619 101.784975,86.2944458 C101.469676,85.9388932 101.331748,85.3667881 101.331748,84.6145528 L101.331748,81.119731 L100.339708,81.119731 L100.339708,80.2324601 L101.331748,80.2324601 L101.331748,79.0570305 L102.472631,78.6990002" id="Fill-16" fill="#0097a7" mask="url(#mask-2)"></path>
                    <path d="M108.832378,83.3718283 C107.559024,83.3423435 106.115989,83.5695503 106.115989,84.8103916 C106.115989,85.5804665 106.618583,85.9206572 107.200312,85.9206572 C108.048222,85.9206572 108.593732,85.3938943 108.778298,84.8510262 C108.81923,84.731848 108.832378,84.6010244 108.832378,84.4796162 L108.832378,83.3718283 Z M109.969043,85.1032579 C109.969043,85.6595057 109.998316,86.1996483 110.061574,86.6367178 L109.017935,86.6367178 L108.909528,85.8346804 L108.871077,85.8346804 C108.528241,86.3304718 107.829422,86.780921 106.909324,86.780921 C105.613147,86.780921 104.950547,85.8686251 104.950547,84.9431973 C104.950547,83.3963578 106.325858,82.5494736 108.803601,82.5611189 L108.803601,82.4280654 C108.803601,81.9032847 108.656743,80.9349923 107.346922,80.9488676 C106.738402,80.9488676 106.115989,81.1195824 105.662762,81.4238462 L105.399061,80.6401439 C105.931176,80.3113506 106.711362,80.0908337 107.520573,80.0908337 C109.495474,80.0908337 109.969043,81.4238462 109.969043,82.7073043 L109.969043,85.1032579 L109.969043,85.1032579 Z" id="Fill-17" fill="#0097a7" mask="url(#mask-2)"></path>
                    <path d="M111.837819,81.9640879 C111.837819,81.290644 111.829137,80.7663588 111.783739,80.2326583 L112.818696,80.2326583 L112.888652,81.2794943 L112.911227,81.2794943 C113.229255,80.6828597 113.970742,80.090685 115.030009,80.090685 C115.920836,80.090685 117.294162,80.617448 117.294162,82.8134497 L117.294162,86.6365692 L116.132689,86.6365692 L116.132689,82.9460077 C116.132689,81.9147813 115.742472,81.0411378 114.645002,81.0411378 C113.891855,81.0411378 113.29673,81.5812804 113.082396,82.2296993 C113.032782,82.3788579 113.005742,82.5902073 113.005742,82.7747973 L113.005742,86.6365692 L111.837819,86.6365692 L111.837819,81.9640879" id="Fill-18" fill="#0097a7" mask="url(#mask-2)"></path>
                    <path d="M123.561403,82.8378057 C123.561403,82.6779929 123.55024,82.495385 123.507075,82.33582 C123.335906,81.6105918 122.702578,80.9980998 121.825644,80.9980998 C120.617285,80.9980998 119.90259,82.0588111 119.90259,83.4636774 C119.90259,84.7701783 120.553779,85.8415437 121.802821,85.8415437 C122.580775,85.8415437 123.295718,85.3125508 123.507075,84.4545169 C123.55024,84.2924742 123.561403,84.1371212 123.561403,83.9500535 L123.561403,82.8378057 Z M124.729574,77.2398966 L124.729574,84.9837576 C124.729574,85.553385 124.738505,86.1975918 124.77646,86.6344135 L123.732821,86.6344135 L123.678989,85.524148 L123.649469,85.524148 C123.295718,86.2402086 122.526943,86.7808467 121.480575,86.7808467 C119.931614,86.7808467 118.725736,85.4721159 118.725736,83.5246292 C118.712092,81.383385 120.051433,80.0882816 121.600146,80.0882816 C122.589953,80.0882816 123.254786,80.5481462 123.532131,81.0545918 L123.561403,81.0545918 L123.561403,77.2398966 L124.729574,77.2398966 L124.729574,77.2398966 Z" id="Fill-19" fill="#0097a7" mask="url(#mask-2)"></path>
                    <path d="M130.043251,83.3718283 C128.769402,83.3423435 127.32215,83.5695503 127.32215,84.8103916 C127.32215,85.5804665 127.826976,85.9206572 128.410938,85.9206572 C129.256615,85.9206572 129.797412,85.3938943 129.986691,84.8510262 C130.023157,84.731848 130.043251,84.6010244 130.043251,84.4796162 L130.043251,83.3718283 Z M131.179669,85.1032579 C131.179669,85.6595057 131.204476,86.1996483 131.274184,86.6367178 L130.227817,86.6367178 L130.119905,85.8346804 L130.081454,85.8346804 C129.734153,86.3304718 129.031117,86.780921 128.119949,86.780921 C126.819308,86.780921 126.156459,85.8686251 126.156459,84.9431973 C126.156459,83.3963578 127.534003,82.5494736 130.011746,82.5611189 L130.011746,82.4280654 C130.011746,81.9032847 129.864887,80.9349923 128.555315,80.9488676 C127.946547,80.9488676 127.32215,81.1195824 126.875868,81.4238462 L126.607206,80.6401439 C127.139569,80.3113506 127.924468,80.0908337 128.726485,80.0908337 C130.703619,80.0908337 131.179669,81.4238462 131.179669,82.7073043 L131.179669,85.1032579 L131.179669,85.1032579 Z" id="Fill-20" fill="#0097a7" mask="url(#mask-2)"></path>
                    <path d="M133.059856,82.2297488 C133.059856,81.4755314 133.041747,80.8271125 133.008009,80.2304779 L134.029073,80.2304779 L134.076703,81.4913888 L134.119371,81.4913888 C134.410112,80.6286472 135.125055,80.0907346 135.909459,80.0907346 C136.024564,80.0907346 136.119328,80.0996544 136.227239,80.1244316 L136.227239,81.2123977 C136.092288,81.1987702 135.979663,81.1853906 135.812711,81.1853906 C134.996554,81.1853906 134.410112,81.8090323 134.252586,82.6665706 C134.225546,82.8377809 134.21215,83.0248487 134.21215,83.2228184 L134.21215,86.6366187 L133.041747,86.6366187 L133.059856,82.2297488" id="Fill-21" fill="#0097a7" mask="url(#mask-2)"></path>
                    <path d="M141.672345,82.8378057 C141.672345,82.6779929 141.660685,82.495385 141.622234,82.33582 C141.444366,81.6105918 140.810791,80.9980998 139.938818,80.9980998 C138.727978,80.9980998 138.019485,82.0588111 138.019485,83.4636774 C138.019485,84.7701783 138.662487,85.8415437 139.909049,85.8415437 C140.693453,85.8415437 141.408396,85.3125508 141.622234,84.4545169 C141.660685,84.2924742 141.672345,84.1371212 141.672345,83.9500535 L141.672345,82.8378057 Z M142.835058,77.2398966 L142.835058,84.9837576 C142.835058,85.553385 142.84895,86.1975918 142.889386,86.6344135 L141.843266,86.6344135 L141.789187,85.524148 L141.766612,85.524148 C141.408396,86.2402086 140.637388,86.7808467 139.589036,86.7808467 C138.039827,86.7808467 136.840647,85.4721159 136.840647,83.5246292 C136.82477,81.383385 138.162126,80.0882816 139.708359,80.0882816 C140.702631,80.0882816 141.369697,80.5481462 141.647041,81.0545918 L141.672345,81.0545918 L141.672345,77.2398966 L142.835058,77.2398966 L142.835058,77.2398966 Z" id="Fill-22" fill="#0097a7" mask="url(#mask-2)"></path>
                    <path d="M144.614081,85.4590087 C144.970561,85.6728358 145.579329,85.9092102 146.160562,85.9092102 C146.997309,85.9092102 147.389511,85.4969178 147.389511,84.957023 C147.389511,84.4007752 147.062552,84.0942815 146.21489,83.7791157 C145.05168,83.3559214 144.50617,82.7320319 144.50617,81.964187 C144.50617,80.9349428 145.358297,80.0883064 146.715499,80.0883064 C147.367184,80.0883064 147.935517,80.2575346 148.284554,80.4849891 L148.004977,81.320228 C147.750207,81.1715649 147.290282,80.9460925 146.690444,80.9460925 C146.005021,80.9460925 145.631176,81.3450052 145.631176,81.8199838 C145.631176,82.3603742 146.005021,82.6014561 146.83507,82.9166219 C147.935517,83.3266843 148.51923,83.8846665 148.51923,84.8484989 C148.51923,85.9860194 147.63535,86.7808715 146.138732,86.7808715 C145.434952,86.7808715 144.783266,86.5962815 144.330039,86.3306701 L144.614081,85.4590087" id="Fill-23" fill="#0097a7" mask="url(#mask-2)"></path>
                    <path d="M159.090446,86.3598576 C158.680135,86.5714547 157.82131,86.7808219 156.734754,86.7808219 C154.216576,86.7808219 152.335694,85.1933478 152.335694,82.256756 C152.335694,79.4512355 154.229723,77.573125 156.998455,77.573125 C158.096173,77.573125 158.808636,77.8097471 159.115253,77.9717898 L158.824513,78.9108451 C158.400558,78.6990002 157.778393,78.5372052 157.041123,78.5372052 C154.944667,78.5372052 153.555712,79.8746775 153.555712,82.2166169 C153.555712,84.4141053 154.809468,85.8036098 156.968934,85.8036098 C157.688343,85.8036098 158.400558,85.6574244 158.871646,85.4321998 L159.090446,86.3598576" id="Fill-24" fill="#0097a7" mask="url(#mask-2)"></path>
                    <path d="M162.986441,85.9093093 C164.100036,85.9093093 164.934302,84.8644554 164.934302,83.407557 C164.934302,82.3245463 164.391025,80.962049 163.011,80.962049 C161.645364,80.962049 161.049495,82.2296497 161.049495,83.4481916 C161.049495,84.8510758 161.848039,85.9093093 162.972549,85.9093093 L162.986441,85.9093093 Z M162.948238,86.7809706 C161.223393,86.7809706 159.87289,85.5108922 159.87289,83.4885784 C159.87289,81.3448565 161.288884,80.0908832 163.051932,80.0908832 C164.891882,80.0908832 166.133978,81.423648 166.133978,83.3718779 C166.133978,85.7514786 164.481075,86.7809706 162.959649,86.7809706 L162.948238,86.7809706 L162.948238,86.7809706 Z" id="Fill-25" fill="#0097a7" mask="url(#mask-2)"></path>
                    <path d="M172.974241,84.8916112 C172.974241,85.5534098 172.985156,86.1346825 173.023359,86.6344383 L171.995597,86.6344383 L171.925392,85.5893367 L171.903314,85.5893367 C171.610093,86.1051977 170.920205,86.7808715 169.777089,86.7808715 C168.776119,86.7808715 167.567264,86.2132262 167.567264,83.9751032 L167.567264,80.2305275 L168.735435,80.2305275 L168.735435,83.7635061 C168.735435,84.9837824 169.116473,85.8150569 170.167058,85.8150569 C170.944516,85.8150569 171.488041,85.2746665 171.702624,84.7454258 C171.772332,84.5831353 171.806318,84.3737681 171.806318,84.1505257 L171.806318,80.2305275 L172.974241,80.2305275 L172.974241,84.8916112" id="Fill-26" fill="#0097a7" mask="url(#mask-2)"></path>
                    <path d="M174.90625,81.9640879 C174.90625,81.290644 174.894839,80.7663588 174.856636,80.2326583 L175.88415,80.2326583 L175.954354,81.2794943 L175.981642,81.2794943 C176.299174,80.6828597 177.041157,80.090685 178.100921,80.090685 C178.989267,80.090685 180.36433,80.617448 180.36433,82.8134497 L180.36433,86.6365692 L179.202857,86.6365692 L179.202857,82.9460077 C179.202857,81.9147813 178.815616,81.0411378 177.712936,81.0411378 C176.964503,81.0411378 176.362184,81.5812804 176.148346,82.2296993 C176.100717,82.3788579 176.073925,82.5902073 176.073925,82.7747973 L176.073925,86.6365692 L174.90625,86.6365692 L174.90625,81.9640879" id="Fill-27" fill="#0097a7" mask="url(#mask-2)"></path>
                    <path d="M186.830425,86.4135745 C186.525793,86.5577777 185.854014,86.7827545 184.990723,86.7827545 C183.056506,86.7827545 181.7963,85.4750148 181.7963,83.5022554 C181.7963,81.5342037 183.143827,80.090685 185.247726,80.090685 C185.928435,80.090685 186.541669,80.2574355 186.854984,80.428398 L186.593764,81.3226066 C186.311458,81.1739435 185.874356,81.0141307 185.247726,81.0141307 C183.768721,81.0141307 182.97489,82.1129988 182.97489,83.4502234 C182.97489,84.9299168 183.928975,85.8436993 185.202577,85.8436993 C185.86344,85.8436993 186.303024,85.684382 186.631967,85.5401788 L186.830425,86.4135745" id="Fill-28" fill="#0097a7" mask="url(#mask-2)"></path>
                    <path d="M188.191869,86.6344135 L189.357311,86.6344135 L189.357311,80.2302549 L188.191869,80.2302549 L188.191869,86.6344135 Z M188.751023,79.0548253 C188.311688,79.0548253 188.022932,78.7104225 188.022932,78.3008556 C188.022932,77.8880677 188.327564,77.5575401 188.775582,77.5575401 C189.224593,77.5575401 189.515333,77.8880677 189.515333,78.3008556 C189.515333,78.7104225 189.224593,79.0548253 188.759954,79.0548253 L188.751023,79.0548253 L188.751023,79.0548253 Z" id="Fill-29" fill="#0097a7" mask="url(#mask-2)"></path>
                    <polygon id="Fill-30" fill="#0097a7" mask="url(#mask-2)" points="191.294009 86.6344135 192.459699 86.6344135 192.459699 77.2398966 191.294009 77.2398966"></polygon>
                </g>
                <g id="Group-34" transform="translate(0.000000, 45.363802)" fill="#0097a7">
                    <polygon id="Fill-32" points="88.5624161 37.0365624 20.0000343 58.5659528 -2.48071979e-05 4.24544652 71.97806 0.208252228"></polygon>
                </g>
                <g id="Group-44" transform="translate(0.000000, 0.021556)">
                    <path d="M28.1659933,71.5878989 C28.1659933,69.563603 26.6644136,68.5502162 23.663735,68.5502162 L22.5724663,68.5502162 L22.5724663,74.8012519 L23.5779021,74.8012519 C25.0613725,74.8012519 26.1975422,74.5423303 26.9866591,74.0242394 C27.7737915,73.5021841 28.1659933,72.6934569 28.1659933,71.5878989 Z M36.7239805,71.489038 C36.7239805,72.8646672 36.4218288,74.0715638 35.8041296,75.1233553 C35.1975936,76.172669 34.3387684,77.0440825 33.2316231,77.7398258 C32.124726,78.4420112 30.794564,78.964562 29.2344393,79.3139203 C27.6765473,79.6625353 25.9519509,79.8362234 24.0559368,79.8362234 L22.6625165,79.8362234 L22.6625165,86.8325567 L13.7480499,86.8325567 L13.7480499,63.5132626 L24.1889033,63.5132626 C28.0913237,63.5132626 31.159974,64.1728312 33.382699,65.4899863 C35.6123699,66.8071414 36.7239805,68.8091378 36.7239805,71.489038 Z" id="Fill-35" fill="#FEFEFE"></path>
                    <path d="M58.7529707,86.8147419 C57.382373,87.0756456 55.8311789,87.2064692 54.0929386,87.2064692 C51.6285915,87.2064692 49.4304257,86.9247526 47.4917432,86.3598328 C45.5617432,85.7991251 43.9249643,84.9995654 42.583391,83.9611537 C41.2420658,82.9210075 40.2229861,81.6623266 39.5241674,80.1786688 C38.8251005,78.685348 38.4758152,77.0302321 38.4758152,75.2066314 C38.4758152,73.4031002 38.8476751,71.7588863 39.591891,70.2707686 C40.3380915,68.7821554 41.3884283,67.512077 42.7436455,66.4513658 C44.0961339,65.3931323 45.712571,64.575733 47.5884913,63.9991679 C49.4574656,63.4270627 51.5226648,63.1369219 53.7729257,63.1369219 C55.5086853,63.1369219 57.1186725,63.1887062 58.5274733,63.4927223 C59.942972,63.8011982 59.9727406,63.8440627 61.097747,64.2496652 L61.0818704,70.507143 C60.2027033,70.0115993 59.2084308,69.6017847 58.1149296,69.2729914 C57.0214283,68.9489059 55.8468075,68.7821554 54.5999977,68.7821554 C52.5866455,68.7821554 50.9523473,69.3361733 49.6851956,70.4370235 C48.4227573,71.5450592 47.7914141,73.1211358 47.7914141,75.1707045 C47.7914141,76.2333979 47.9898717,77.1613034 48.3820735,77.9603676 C48.7812213,78.7619094 49.3155684,79.4264335 49.982882,79.9554264 C50.654909,80.4871447 51.4370799,80.8877918 52.3365889,81.1534032 C53.236346,81.4259522 54.201346,81.5612357 55.2382869,81.5612357 C56.3022676,81.5612357 57.3483871,81.4484995 58.3677149,81.2237704 C59.3862985,80.9980503 60.4733499,80.6717348 61.6320941,80.2416029 L61.64549,86.0850538 C60.2364411,86.4973462 60.1215838,86.5553248 58.7529707,86.8147419" id="Fill-37" fill="#FEFEFE"></path>
                    <mask id="mask-4" fill="white">
                        <use xlink:href="#path-3"></use>
                    </mask>
                    <g id="Clip-40"></g>
                    <polygon id="Fill-39" fill="#FEFEFE" mask="url(#mask-4)" points="65.2955219 86.832631 74.2506722 86.832631 74.2506722 63.5130891 65.2955219 63.5130891"></polygon>
                    <path d="M75.2130427,56.2057278 C75.2130427,57.7751146 74.690355,59.0095139 73.6509334,59.9032269 C72.6090311,60.7971877 71.319553,61.243177 69.7864681,61.243177 C68.2536314,61.243177 66.9639051,60.7971877 65.9222509,59.9032269 C64.8786121,59.0095139 64.3598936,57.7751146 64.3598936,56.2057278 C64.3598936,54.602644 64.8786121,53.3509007 65.9222509,52.4589221 C66.9639051,51.5627314 68.2536314,51.1145121 69.7864681,51.1145121 C71.319553,51.1145121 72.6090311,51.5627314 73.6509334,52.4589221 C74.690355,53.3509007 75.2130427,54.602644 75.2130427,56.2057278" id="Fill-41" fill="#FEFEFE" mask="url(#mask-4)"></path>
                    <polygon id="Fill-42" fill="#0097a7" mask="url(#mask-4)" points="186.239542 65.2627052 185.200121 65.2627052 185.200121 64.5352471 188.160612 64.5352471 188.160612 65.2627052 187.107546 65.2627052 187.107546 68.3814093 186.239542 68.3814093"></polygon>
                    <path d="M191.853387,66.9041936 C191.835277,66.4448246 191.817168,65.8908068 191.817168,65.323657 L191.81047,65.323657 C191.684201,65.814493 191.523947,66.3635554 191.377584,66.8140046 L190.904015,68.3137676 L190.227523,68.3137676 L189.815227,66.832092 C189.691191,66.3749529 189.564922,65.8320848 189.467926,65.323657 L189.461476,65.323657 C189.436669,65.8437301 189.413599,66.4401169 189.393505,66.917821 L189.319331,68.3791793 L188.51657,68.3791793 L188.757696,64.5330171 L189.918921,64.5330171 L190.297727,65.8211829 C190.421763,66.2624645 190.53662,66.7421508 190.622453,67.1898745 L190.642795,67.1898745 C190.746241,66.7466107 190.874743,66.244625 191.012422,65.8097854 L191.413803,64.5330171 L192.559151,64.5330171 L192.761826,68.3791793 L191.916893,68.3791793 L191.853387,66.9041936" id="Fill-43" fill="#0097a7" mask="url(#mask-4)"></path>
                </g>
            </g>
        </g>
    </g>
</svg>