<svg id="Слой_1" xmlns="http://www.w3.org/2000/svg" width="118" height="53"><style>.st1{fill:#0e90d0}</style><linearGradient id="SVGID_1_" gradientUnits="userSpaceOnUse" x1="20.365" y1="2.552" x2="71.956" y2="33.551"><stop offset=".015" stop-color="#fff"/><stop offset=".101" stop-color="#0e90d0"/><stop offset=".259" stop-color="#0e90d0"/><stop offset="1" stop-color="#0e90d0"/></linearGradient><path fill="url(#SVGID_1_)" d="M15.9 7.5l-5.6 8.4h44.6L61 7.5z"/><path class="st1" d="M82.8 11.2c.7-1 2.1-3.7-2.1-3.7h-.2l-17.3.1-4.2 8.3h13.3L54.1 48.6l28.7-37.4z"/><path d="M10.9 33.7c-3.2-.1-5.5-3.6-4.3-7 1-3 2.8-5.4 5.5-7 1.7-1.1 3.7-1.5 5.7-1.5 1.5 0 2.6.4 3 .7l.3.2-2.1 3.4-.4-.3c-.2-.1-1-.4-2.1-.4s-2.1.3-3 1c-1.3.9-2.4 2.4-2.9 4.1-.6 2.1.2 3.2 2.2 3.2.9 0 1.8-.2 2.5-.4l.7-.3-.7 3.5c-.1 0-1.6.9-4.4.8zm77.7 0c-3.2-.1-5.5-3.6-4.3-7 1-3 2.8-5.4 5.5-7 1.7-1.1 3.7-1.5 5.7-1.5 1.5 0 2.6.4 3 .7l.3.2-2.1 3.4-.4-.3c-.2-.1-1-.4-2.1-.4s-2.1.3-3 1c-1.3.9-2.4 2.4-2.9 4.1-.6 2.1.2 3.2 2.2 3.2.9 0 1.8-.2 2.5-.4l.7-.3-.7 3.5c-.1 0-1.6.9-4.4.8zm-66.6.1c-3.5 0-5.1-2.6-4-6.4.8-2.8 2.5-5.4 4.6-7 1.8-1.4 3.8-2.2 5.8-2.2 3.5 0 5.1 2.5 4 6.4-.8 2.8-2.5 5.4-4.5 7-1.8 1.4-3.8 2.2-5.9 2.2zm5.1-12.1c-.7 0-1.5.3-2.2.9-1.3 1-2.4 3.1-2.8 4.6-.4 1.3-.5 3 1.4 3 .7 0 1.4-.3 2.1-.9 1.2-1 2.4-3.2 2.8-4.7.9-2.9-.8-2.9-1.3-2.9zm10.5 11.8l-.3-6v-2.6c-.4 1-.9 2-1.5 3.2l-2.5 5.4h-3.7l7.2-15.1H41l.3 5.7v2.1c.3-.7.6-1.4 1-2.3l2.6-5.5h3.7l-7.1 15.1h-3.9zm17.1 0l5.4-11.4h-3.7l1.8-3.7h11.4l-1.7 3.7h-3.7l-5.5 11.4zm23.1 0l.8-3.7h-3.3l-2.8 3.7h-4.4l12-15.1h4.5L82 33.5h-4.2zm1.6-7s.7-3.4.8-3.7c-.2.3-2.6 3.7-2.6 3.7h1.8zm17.3 7l5.5-11.4h-3.7l1.8-3.7h11.4l-1.7 3.7h-3.8l-5.4 11.4z" fill="#231f20"/><path class="st1" d="M48.3 35.8L64.1 4.4 37.9 40.5l-.1.1s-.8 1-.6 2.1c.1.7.7 1.4 2.5 1.4h16.2l4.5-8.4H48.3z"/><linearGradient id="SVGID_2_" gradientUnits="userSpaceOnUse" x1="65.758" y1="31.325" x2="97.249" y2="48.781"><stop offset="0" stop-color="#0e90d0"/><stop offset=".741" stop-color="#0e90d0"/><stop offset=".899" stop-color="#0e90d0"/><stop offset=".985" stop-color="#fff"/></linearGradient><path fill="url(#SVGID_2_)" d="M64.7 35.8l-6.4 8.4h40.9l5.2-8.5z"/></svg>