<svg xmlns="http://www.w3.org/2000/svg" width="100" height="100" fill="#1fa1af" viewBox="0 0 512 512"><path d="M465.455 198.982V93.091c0-19.782-15.127-34.909-34.909-34.909-17.455 0-31.418 12.8-34.909 30.255-46.545 48.873-84.945 73.309-130.327 82.618-5.818 1.164-10.473 6.982-9.309 13.964 1.164 5.818 6.982 10.473 13.964 9.309 44.218-10.473 82.618-31.418 125.673-73.309v268.8c-43.055-40.727-81.455-62.836-125.673-72.145-15.127-2.327-31.418-3.491-48.873-3.491-6.982 0-11.636 4.655-11.636 11.636v11.636H58.182V174.546h151.273v104.727c0 6.982 4.655 11.636 11.636 11.636 6.982 0 11.636-4.655 11.636-11.636V174.545c0-12.8-10.473-23.273-23.273-23.273H58.182c-12.8 0-23.273 10.473-23.273 23.273v23.273H23.273C10.473 197.818 0 208.291 0 221.091v69.818c0 12.8 10.473 23.273 23.273 23.273h11.636v23.273c0 12.8 10.473 23.273 23.273 23.273h23.273v67.491c0 13.964 11.636 25.6 25.6 25.6 10.473 0 19.782-6.982 23.273-16.291L150.109 384h12.8c6.982 0 11.636-4.655 11.636-11.636v-11.636h34.909c12.8 0 23.273-10.473 23.273-23.273 11.636 0 22.109 2.327 32.582 3.491 45.382 9.309 84.945 33.745 130.327 82.618 2.327 16.291 17.455 30.255 34.909 30.255 19.782 0 34.909-15.127 34.909-34.909V313.018C492.218 307.2 512 283.927 512 256s-19.782-51.2-46.545-57.018zM34.909 290.909H23.273v-69.818h11.636v69.818zm74.473 138.473c-1.164 1.164-1.164 1.164-2.327 1.164s-2.327-1.164-2.327-2.327v-67.491h30.255l-25.601 68.654zm332.8-219.927V418.91c0 6.982-4.655 11.636-11.636 11.636s-11.636-4.655-11.636-11.636V93.091c0-6.982 4.655-11.636 11.636-11.636s11.636 4.655 11.636 11.636v116.364zm23.273 79.127v-66.327c13.964 4.655 23.273 17.455 23.273 32.582s-9.31 29.09-23.273 33.745z"/><path d="M162.909 279.273h-58.182c-6.982 0-11.636 4.655-11.636 11.636s4.655 11.636 11.636 11.636h58.182c6.982 0 11.636-4.655 11.636-11.636s-4.654-11.636-11.636-11.636zm0-34.909h-58.182c-6.982 0-11.636 4.655-11.636 11.636s4.655 11.636 11.636 11.636h58.182c6.982 0 11.636-4.655 11.636-11.636s-4.654-11.636-11.636-11.636zm0-34.909h-58.182c-6.982 0-11.636 4.655-11.636 11.636 0 6.982 4.655 11.636 11.636 11.636h58.182c6.982 0 11.636-4.655 11.636-11.636 0-6.982-4.654-11.636-11.636-11.636z"/></svg>