<svg xmlns="http://www.w3.org/2000/svg" width="80" height="80" fill="#1fa1af" viewBox="0 0 512 512"><path d="M245.625 368.476h-61.218c-5.522 0-10 4.478-10 10s4.477 10 10 10h61.218c5.522 0 10-4.478 10-10s-4.477-10-10-10zm102.643 0H287.05c-5.522 0-10 4.478-10 10s4.478 10 10 10h61.218c5.523 0 10-4.477 10-10 0-5.522-4.478-10-10-10zm104.063 0h-61.218c-5.522 0-10 4.478-10 10s4.478 10 10 10h61.218c5.522 0 10-4.478 10-10s-4.478-10-10-10zm-19.76 34.501a38.748 38.748 0 0 0-18.084 4.463 38.75 38.75 0 0 0-18.084-4.463c-21.506 0-39.001 17.495-39.001 39.001s17.495 39.001 39.001 39.001a38.748 38.748 0 0 0 18.084-4.463 38.75 38.75 0 0 0 18.084 4.463c21.506 0 39.001-17.495 39.001-39.001s-17.495-39.001-39.001-39.001zm-34.108 57.885c-.677.073-1.364.117-2.061.117-10.477 0-19-8.523-19-19s8.524-19 19-19c.697 0 1.383.043 2.061.117a38.753 38.753 0 0 0-4.892 18.883c0 6.846 1.78 13.284 4.892 18.883zm16.024-13.077a18.904 18.904 0 0 1-.916-5.807c0-2.026.326-3.975.916-5.807a18.874 18.874 0 0 1 0 11.614zm18.085 13.194c-.697 0-1.383-.043-2.061-.117a38.753 38.753 0 0 0 4.892-18.883c0-6.847-1.78-13.284-4.892-18.883a19.205 19.205 0 0 1 2.061-.117c10.477 0 19 8.523 19 19 .001 10.477-8.523 19-19 19zM256.004 280.036h-72.002c-5.522 0-10 4.478-10 10v45.959c0 5.522 4.478 10 10 10h72.002c5.522 0 10-4.478 10-10v-45.959c0-5.522-4.478-10-10-10zm-10.001 45.959h-52.001v-25.959h52.001v25.959zM257.072 492h-.132c-5.522 0-10 4.478-10 10s4.478 10 10 10h.132c5.522 0 10-4.478 10-10s-4.477-10-10-10z"/><path d="M481.998 244.954h-100.12l47.353-47.352c11.696-11.697 11.696-30.73 0-42.427L282.828 8.772c-11.698-11.697-30.731-11.695-42.428 0L8.772 240.4c-11.695 11.697-11.695 30.73 0 42.427l115.654 115.654v83.516c0 16.542 13.458 30.001 30.001 30.001h53.782c5.522 0 10-4.478 10-10s-4.478-10-10-10h-53.782c-5.514 0-10-4.486-10-10V274.955c0-5.514 4.486-10 10-10h327.571c5.514 0 10 4.486 10 10v207.043c0 5.514-4.486 10-10 10H297.213c-5.522 0-10 4.478-10 10s4.478 10 10 10h184.786c16.542 0 30.001-13.458 30.001-30.001V274.955c-.001-16.542-13.459-30.001-30.002-30.001zM22.915 268.686c-3.898-3.899-3.898-10.244.001-14.143L254.544 22.916c3.9-3.9 10.245-3.898 14.142 0l15.162 15.162-245.771 245.77-15.162-15.162zm101.511 101.509l-39.707-39.706 39.707-39.708v79.414zm169.4-125.241l22.749-22.749c3.905-3.905 3.905-10.237 0-14.142-3.906-3.905-10.236-3.905-14.143 0l-36.89 36.891h-26.383l54.28-54.281c3.905-3.905 3.905-10.237 0-14.143-3.906-3.905-10.236-3.905-14.143 0l-68.424 68.424h-40.617L280.606 134.6c3.905-3.905 3.905-10.237 0-14.142-3.906-3.905-10.236-3.905-14.143 0L70.577 316.346 52.22 297.991l245.77-245.77 117.097 117.096c1.888 1.889 2.928 4.401 2.928 7.072s-1.04 5.182-2.929 7.071l-61.496 61.495h-59.764z"/><path d="M307.214 93.857a10.08 10.08 0 0 0-7.08-2.93c-2.63.001-5.21 1.07-7.06 2.93-1.87 1.86-2.931 4.44-2.931 7.07s1.061 5.21 2.931 7.07c1.85 1.86 4.43 2.93 7.06 2.93 2.641 0 5.22-1.07 7.08-2.93s2.93-4.44 2.93-7.07-1.069-5.21-2.93-7.07z"/></svg>