<?xml version="1.0" encoding="iso-8859-1"?>
<!-- Generator: Adobe Illustrator 19.0.0, SVG Export Plug-In . SVG Version: 6.00 Build 0)  -->
<svg version="1.1" id="Capa_1" xmlns="http://www.w3.org/2000/svg" xmlns:xlink="http://www.w3.org/1999/xlink" x="0px" y="0px" width="100" height="100" fill="#0097A7"
	 viewBox="0 0 512 512" style="enable-background:new 0 0 512 512;" xml:space="preserve">
<g>
	<g>
		<path d="M465.455,198.982V93.091c0-19.782-15.127-34.909-34.909-34.909c-17.455,0-31.418,12.8-34.909,30.255
			c-46.545,48.873-84.945,73.309-130.327,82.618c-5.818,1.164-10.473,6.982-9.309,13.964c1.164,5.818,6.982,10.473,13.964,9.309
			c44.218-10.473,82.618-31.418,125.673-73.309v268.8c-43.055-40.727-81.455-62.836-125.673-72.145
			c-15.127-2.327-31.418-3.491-48.873-3.491c-6.982,0-11.636,4.655-11.636,11.636v11.636h-58.182H93.091H58.182v-34.909v-93.091
			v-34.909h151.273v104.727c0,6.982,4.655,11.636,11.636,11.636c6.982,0,11.636-4.655,11.636-11.636V174.545
			c0-12.8-10.473-23.273-23.273-23.273H58.182c-12.8,0-23.273,10.473-23.273,23.273v23.273H23.273
			C10.473,197.818,0,208.291,0,221.091v69.818c0,12.8,10.473,23.273,23.273,23.273h11.636v23.273
			c0,12.8,10.473,23.273,23.273,23.273h23.273v67.491c0,13.964,11.636,25.6,25.6,25.6c10.473,0,19.782-6.982,23.273-16.291
			L150.109,384h12.8c6.982,0,11.636-4.655,11.636-11.636v-11.636h34.909c12.8,0,23.273-10.473,23.273-23.273
			c11.636,0,22.109,2.327,32.582,3.491c45.382,9.309,84.945,33.745,130.327,82.618c2.327,16.291,17.455,30.255,34.909,30.255
			c19.782,0,34.909-15.127,34.909-34.909V313.018C492.218,307.2,512,283.927,512,256C512,228.073,492.218,204.8,465.455,198.982z
			 M34.909,290.909H23.273v-69.818h11.636V290.909z M109.382,429.382c-1.164,1.164-1.164,1.164-2.327,1.164
			s-2.327-1.164-2.327-2.327v-67.491h30.255L109.382,429.382z M442.182,209.455v93.091v116.364c0,6.982-4.655,11.636-11.636,11.636
			s-11.636-4.655-11.636-11.636V93.091c0-6.982,4.655-11.636,11.636-11.636s11.636,4.655,11.636,11.636V209.455z M465.455,288.582
			v-66.327c13.964,4.655,23.273,17.455,23.273,32.582S479.418,283.927,465.455,288.582z"/>
	</g>
</g>
<g>
	<g>
		<path d="M162.909,279.273h-58.182c-6.982,0-11.636,4.655-11.636,11.636s4.655,11.636,11.636,11.636h58.182
			c6.982,0,11.636-4.655,11.636-11.636S169.891,279.273,162.909,279.273z"/>
	</g>
</g>
<g>
	<g>
		<path d="M162.909,244.364h-58.182c-6.982,0-11.636,4.655-11.636,11.636s4.655,11.636,11.636,11.636h58.182
			c6.982,0,11.636-4.655,11.636-11.636S169.891,244.364,162.909,244.364z"/>
	</g>
</g>
<g>
	<g>
		<path d="M162.909,209.455h-58.182c-6.982,0-11.636,4.655-11.636,11.636c0,6.982,4.655,11.636,11.636,11.636h58.182
			c6.982,0,11.636-4.655,11.636-11.636C174.545,214.109,169.891,209.455,162.909,209.455z"/>
	</g>
</g>
<g>
</g>
<g>
</g>
<g>
</g>
<g>
</g>
<g>
</g>
<g>
</g>
<g>
</g>
<g>
</g>
<g>
</g>
<g>
</g>
<g>
</g>
<g>
</g>
<g>
</g>
<g>
</g>
<g>
</g>
</svg>
