<?xml version="1.0" encoding="utf-8"?>
<!-- Generator: Adobe Illustrator 21.0.2, SVG Export Plug-In . SVG Version: 6.00 Build 0)  -->
<svg version="1.1" id="Слой_1" xmlns="http://www.w3.org/2000/svg" xmlns:xlink="http://www.w3.org/1999/xlink" x="0px" y="0px" width="80" height="85"
	 viewBox="0 0 80 84.6" style="enable-background:new 0 0 80 84.6;" xml:space="preserve">
<style type="text/css">
	.st0{fill:#76B836;}
	.st1{fill:#01684D;}
	.st2{fill:#006C3F;}
	.st3{fill:#4DB848;}
</style>
<path id="path13616" class="st0" d="M30.8,34.1c0-5.4,4.4-9.8,9.8-9.8s9.8,4.4,9.8,9.8s-4.4,9.8-9.8,9.8
	C35.2,43.9,30.8,39.5,30.8,34.1"/>
<path id="path13620" class="st1" d="M47.4,21.7c0-3.1,2.5-5.6,5.6-5.6s5.6,2.5,5.6,5.6s-2.5,5.6-5.6,5.6
	C49.9,27.3,47.4,24.8,47.4,21.7 M18.5,34.1c0-12.1,9.8-22,22-22v8c-7.8,0-14,6.3-14,14.1s6.3,14.1,14.1,14.1
	c7.7,0,14.1-6.2,14.1-14.1h8c0,12.2-9.9,22.1-22,22.1C28.4,56.1,18.5,46.3,18.5,34.1"/>
<path class="st2" d="M75.4,65.4l-1.8,1.9c0.9,2.4,1.1,2.7,1.9,4.8l-0.1,0.2l-2.7,0.1l-0.1-0.1c-0.3-0.9-1.1-3.5-1.5-4.6
	c-0.4,1.7-0.6,2.6-0.9,4.5l-0.1,0.1l-2.7,0.1l-0.1-0.1l0.7-2.8l0.3-1.1c0.3-1.4,0.6-2.8,0.8-4.2L69,64c0.9-0.1,1.8-0.3,2.7-0.4
	l0.1,0.1l-0.2,0.9l-0.3,1.6L71,67.4c1-1.1,1.8-2,2.9-3.5l0.2-0.1c1.1,0,1.4,0,2.7,0l0,0.2C76.8,64,75.4,65.4,75.4,65.4z M66.9,66.2
	c-0.1-0.1-0.2-0.2-0.3-0.3c-0.4-0.3-0.9-0.5-1.4-0.5c-1.6,0-2.6,1.6-2.6,3.1c0,1.6,1,2.1,1.9,2.1c0.6,0,1.3-0.2,1.8-0.6l0.1,0
	L65.9,72l-0.1,0.1c-0.2,0.1-0.3,0.1-0.5,0.2c-0.5,0.2-1.1,0.2-1.6,0.2c-2.3,0-3.8-1.4-3.8-3.8c0-2.2,1.5-5,5-5c0.4,0,0.8,0,1.3,0.1
	c0.3,0,0.5,0.1,0.7,0.2c0.2,0.1,0.4,0.2,0.5,0.3l0,0.1L66.9,66.2L66.9,66.2z M59.2,71.7C59.1,72,59,72.3,59,72.3l-0.1,0.1H49
	L49,72.3c0.1-0.4,0.3-0.9,0.5-1.6l0-0.1l0.1-0.2l0.1-0.1c0.2-0.1,1.2-0.7,2.5-2.9c1.1-2,1.7-3.5,1.7-3.5l0.2-0.1l0.1,0l3,0
	c1,0,1.2,0,2,0l0.1,0.1c-0.2,0.7-0.2,0.7-0.2,0.7l-0.3,1.6l-0.2,0.9l-0.2,1c-0.2,0.9-0.3,1.5-0.5,2.3c0.6,0,1,0,1.5,0l0.1,0.1
	l-0.1,0.4L59.2,71.7z M56.4,65.8c-0.3,0-0.7,0-1.1,0L54.2,68c-0.4,0.9-1,1.7-1.7,2.4l0.7,0h2.3l0.2-0.9l0.3-1.1
	C56.2,67.2,56.3,66.5,56.4,65.8L56.4,65.8L56.4,65.8z"/>
<path class="st3" d="M48.2,67.1c-0.6,2.4-0.7,3-1,4.9l-0.1,0.1l-1.5,0L45.5,72l0.1-0.6c-0.7,0.5-1.5,0.8-2.4,0.8c-1.7,0-3-1.1-3-3.1
	c0-1.2,0.5-2.4,1.3-3.4c1.5-1.7,3.6-1.8,5.1-1.8l2.3,0l0.1,0.1L48.2,67.1z M46.3,65.1c-0.9,0-1.8,0.2-2.6,0.7
	C42.7,66.5,42,67.7,42,69c0,0.8,0.4,2,1.9,2c0.5,0,1-0.1,1.4-0.4c0.2-0.1,0.4-0.3,0.5-0.4l1.2-5.1C46.8,65.1,46.6,65.1,46.3,65.1
	L46.3,65.1z M39.1,65.6l-2.1,1.9l2.5,4.6l-0.1,0.1l-1.8,0l-0.1-0.1c-0.4-1-0.5-1.2-1.1-2.3l-1.1-2.2c-0.4,1.5-0.6,2.5-1,4.5
	l-0.1,0.1l-1.7,0l-0.1-0.1l0.7-2.7l0.3-1.2c0.3-1.3,0.6-2.6,0.8-4l0.1-0.1c0.6-0.1,1.2-0.2,1.7-0.3l0.1,0.1l-0.2,0.8L35.5,66
	c-0.1,0.5-0.2,0.9-0.3,1.3c0.4-0.3,0.6-0.5,1.2-1c0.6-0.5,2-1.9,2.2-2.2l0.2-0.1h1.9l0,0.1c-0.2,0.1-0.2,0.2-0.9,0.7
	C39.5,65.1,39.4,65.3,39.1,65.6L39.1,65.6z M31.9,66c-0.6,2.6-0.8,3.5-1.3,6.1l-0.1,0.1l-1.7,0l-0.1-0.1l0.7-2.7l0.2-0.9
	c-0.7,0-1.4,0-2.1,0c-0.6,0-1,0-1.4,0c-0.2,1.1-0.4,2-0.8,3.5l-0.1,0.1l-1.7,0l-0.1-0.1l0.7-2.7l0.3-1.2c0.3-1.3,0.6-2.6,0.8-4
	l0.1-0.1c0.6-0.1,1.2-0.2,1.7-0.3L27,64l-0.2,0.8L26.6,66l-0.3,1.1c0.6,0,1.2,0,1.8,0c0.6,0,1.1,0,1.8,0c0.2-1,0.3-1.5,0.5-2.8
	l0.1-0.1c0.6-0.1,1.2-0.2,1.7-0.3l0.1,0.1l-0.2,0.8L31.9,66z M21.7,72l-0.1,0.1l-1.5,0L20,72l0.1-0.6c-0.7,0.5-1.5,0.8-2.4,0.8
	c-1.7,0-3-1.1-3-3.1c0-1.2,0.5-2.4,1.3-3.4c1.5-1.7,3.6-1.8,5.1-1.8l2.3,0l0.1,0.1l-0.7,3C22.1,69.5,22,70.1,21.7,72z M20.8,65.1
	c-0.9,0-1.8,0.2-2.6,0.7c-1.1,0.7-1.7,1.9-1.7,3.2c0,0.8,0.4,2,1.9,2c0.5,0,1-0.1,1.4-0.4c0.2-0.1,0.4-0.3,0.5-0.4l1.2-5
	C21.5,65.1,20.8,65.1,20.8,65.1z M13.7,67.1c0,0.6-0.1,1.1-0.2,1.7c-0.4,1.4-1.4,3.7-4.4,3.7c-2.2,0-3.4-1.1-3.4-3.2
	c0-0.3,0-0.6,0.1-0.9l0-0.2c0.6-3.5,2.2-6.9,5.7-6.9c0.7,0,1.4-0.1,2.1-0.2l-0.2,1.4c-0.8,0.2-1.5,0.2-2.3,0.2
	c-0.6,0-1.2,0.2-1.6,0.6c-0.2,0.1-0.3,0.3-0.4,0.5c-0.1,0.1-0.2,0.3-0.2,0.4c0.5-0.2,1-0.2,1.6-0.2C12.4,64,13.7,65.1,13.7,67.1
	L13.7,67.1z M7.3,69.5c0,1.3,0.8,1.8,1.7,1.8c1.8,0,2.4-1.7,2.7-3c0.1-0.4,0.2-0.9,0.2-1.4c0-1.6-1.1-1.9-1.7-1.9
	C7.7,65.1,7.3,68.9,7.3,69.5z"/>
</svg>
