<svg xmlns="http://www.w3.org/2000/svg" xmlns:xlink="http://www.w3.org/1999/xlink" id="Слой_1" width="100" height="59" x="0" y="0" enable-background="new 0 0 80 47" version="1.1" viewBox="0 0 80 47" xml:space="preserve"><style type="text/css">.st0{fill:#010202}.st1{fill:#e9492c}</style><g><path d="M34.3,7.4h22.3c0,0-7.5-3.4-16.1-3.1C38.8,4.3,36.4,4.3,34.3,7.4z" class="st0"/><polygon points="22.7 25 39.3 9.1 32.7 9.1 16 25.4 13 26.5 61.6 26.8 57.8 25.2" class="st0"/><path d="M55.1,23.9l-27.9-0.3L42,9.1h12.4l-3.7,3.8h-6.2l-1.3,1.6h6.7v4H39L37.5,20h12.9C50.4,20,52.8,23.6,55.1,23.9z" class="st1"/><g><path d="M5.2,32.1V40h-1v-7.8H5.2z"/><path d="M6.9,40v-7.8H8l2.5,4c0.6,0.9,1,1.7,1.4,2.5l0,0c-0.1-1-0.1-2-0.1-3.2v-3.3h1V40h-1l-2.5-4c-0.5-0.9-1.1-1.8-1.5-2.6l0,0 c0.1,1,0.1,1.9,0.1,3.2V40H6.9z"/><path d="M16.1,33h-2.4v-0.9h5.8V33h-2.4v7h-1V33z"/><path d="M24.4,36.3h-3v2.8h3.4V40h-4.4v-7.8h4.2V33h-3.2v2.5h3V36.3z"/><path d="M26.1,32.1h1v7h3.3V40h-4.4V32.1z"/><path d="M32.6,32.1V40h-1v-7.8H32.6z"/><path d="M38.4,36.3h-3v2.8h3.4V40h-4.4v-7.8h4.2V33h-3.2v2.5h3V36.3z"/><path d="M44.3,40l-1-1.7c-0.4-0.7-0.7-1.1-0.9-1.5h0c-0.2,0.5-0.4,0.9-0.8,1.6L40.6,40h-1.2l2.4-4l-2.3-3.9h1.2l1,1.8 c0.3,0.5,0.5,0.9,0.7,1.3h0c0.2-0.5,0.4-0.8,0.7-1.3l1.1-1.8h1.2l-2.4,3.8l2.4,4H44.3z"/><path d="M46.7,32.2c0.5-0.1,1.1-0.2,1.9-0.2c1,0,1.7,0.2,2.2,0.7c0.4,0.4,0.7,0.9,0.7,1.6c0,0.7-0.2,1.3-0.6,1.7 c-0.5,0.6-1.4,0.9-2.4,0.9c-0.3,0-0.6,0-0.8-0.1V40h-1V32.2z M47.7,36c0.2,0.1,0.5,0.1,0.8,0.1c1.2,0,2-0.6,2-1.7 c0-1-0.7-1.5-1.8-1.5c-0.4,0-0.8,0-1,0.1V36z"/><path d="M52.9,32.2c0.5-0.1,1.2-0.2,1.9-0.2c1.1,0,1.8,0.2,2.3,0.6c0.4,0.3,0.6,0.9,0.6,1.5c0,1-0.7,1.7-1.5,2v0 c0.6,0.2,1,0.8,1.2,1.6c0.3,1.1,0.4,1.8,0.6,2.2h-1c-0.1-0.2-0.3-0.9-0.5-1.9c-0.2-1.1-0.7-1.5-1.6-1.5h-1V40h-1V32.2z M53.9,35.8 h1c1.1,0,1.8-0.6,1.8-1.5c0-1-0.7-1.5-1.8-1.5c-0.5,0-0.8,0-1,0.1V35.8z"/><path d="M63.2,36.3h-3v2.8h3.4V40h-4.4v-7.8h4.2V33h-3.2v2.5h3V36.3z"/><path d="M64.7,38.7c0.5,0.3,1.1,0.5,1.8,0.5c1,0,1.6-0.5,1.6-1.3c0-0.7-0.4-1.2-1.5-1.6c-1.3-0.5-2.1-1.1-2.1-2.2 c0-1.2,1-2.1,2.5-2.1c0.8,0,1.4,0.2,1.7,0.4l-0.3,0.8c-0.3-0.1-0.8-0.4-1.5-0.4c-1.1,0-1.5,0.6-1.5,1.2c0,0.7,0.5,1.1,1.6,1.5 c1.3,0.5,2,1.2,2,2.3c0,1.2-0.9,2.3-2.7,2.3c-0.8,0-1.6-0.2-2-0.5L64.7,38.7z"/><path d="M70.4,38.7c0.5,0.3,1.1,0.5,1.8,0.5c1,0,1.6-0.5,1.6-1.3c0-0.7-0.4-1.2-1.5-1.6c-1.3-0.5-2.1-1.1-2.1-2.2 c0-1.2,1-2.1,2.5-2.1c0.8,0,1.4,0.2,1.7,0.4l-0.3,0.8c-0.3-0.1-0.8-0.4-1.5-0.4c-1.1,0-1.5,0.6-1.5,1.2c0,0.7,0.5,1.1,1.6,1.5 c1.3,0.5,2,1.2,2,2.3c0,1.2-0.9,2.3-2.7,2.3c-0.8,0-1.6-0.2-2-0.5L70.4,38.7z"/></g></g></svg>