<?xml version="1.0" encoding="iso-8859-1"?>
<!-- Generator: Adobe Illustrator 19.0.0, SVG Export Plug-In . SVG Version: 6.00 Build 0)  -->
<svg version="1.1" id="Capa_1" xmlns="http://www.w3.org/2000/svg" xmlns:xlink="http://www.w3.org/1999/xlink" x="0px" y="0px"  width="100" height="100"
	 viewBox="0 0 512 512" style="enable-background:new 0 0 512 512;" xml:space="preserve">
<path style="fill:#E2E2E3;" d="M256,142.63c97.099,0,178.395,84.907,199.29,108.725c3.088,3.52,3.088,8.771,0,12.291
	C434.395,287.463,353.099,372.37,256,372.37S77.605,287.463,56.71,263.645c-3.088-3.52-3.088-8.771,0-12.291
	C77.605,227.537,158.901,142.63,256,142.63z"/>
<circle style="fill:#619BB2;" cx="256" cy="257.5" r="115"/>
<path style="fill:#73BEC9;" d="M243.232,257.5c0-45.147,26.024-84.213,63.884-103.033C291.717,146.812,274.363,142.5,256,142.5
	c-63.51,0-115,51.49-115,115s51.49,115,115,115c18.363,0,35.717-4.312,51.116-11.967C269.256,341.713,243.232,302.647,243.232,257.5
	z"/>
<path style="fill:#666767;" d="M306.21,228.49c4.95,8.53,7.79,18.44,7.79,29.01c0,32.03-25.97,58-58,58s-58-25.97-58-58
	s25.97-58,58-58c5.93,0,11.66,0.9,17.05,2.55c-0.8,14.14,9.9,26.36,24.08,27.38C300.28,229.66,303.34,229.31,306.21,228.49z"/>
<path style="fill:#4C5574;" d="M306.21,228.49c-2.738,0.782-5.651,1.121-8.647,0.952c0.979,4.217,1.501,8.608,1.501,13.121
	c0,32.03-25.97,58-58,58c-12.199,0-23.513-3.775-32.854-10.21C218.669,305.539,236.169,315.5,256,315.5c32.03,0,58-25.97,58-58
	C314,246.93,311.16,237.02,306.21,228.49z"/>
<path style="fill:#494B4B;" d="M276,249.48v16.04c0,6.61-5.37,11.98-11.98,11.98h-16.04c-6.61,0-11.98-5.37-11.98-11.98v-16.04
	c0-6.61,5.37-11.98,11.98-11.98h16.04C270.63,237.5,276,242.87,276,249.48z"/>
<path style="fill:#DCDDDD;" d="M304.545,150h-97.09c-49.602,0-89.955-40.354-89.955-89.956V33.5c0-4.142,3.357-7.5,7.5-7.5
	c4.143,0,7.5,3.358,7.5,7.5v26.544c0,41.331,33.625,74.956,74.955,74.956h97.09c41.33,0,74.955-33.625,74.955-74.956V33.5
	c0-4.142,3.357-7.5,7.5-7.5s7.5,3.358,7.5,7.5v26.544C394.5,109.646,354.146,150,304.545,150z"/>
<g>
	<path style="fill:#CED6E0;" d="M133.737,41h-17.475c-6.486,0-11.763-5.277-11.763-11.763V11.763C104.5,5.277,109.776,0,116.263,0
		h17.475c6.486,0,11.763,5.277,11.763,11.763v17.475C145.5,35.723,140.224,41,133.737,41z M119.5,26h11V15h-11V26z"/>
	<path style="fill:#CED6E0;" d="M395.737,41h-17.475c-6.486,0-11.763-5.277-11.763-11.763V11.763C366.5,5.277,371.776,0,378.263,0
		h17.475c6.486,0,11.763,5.277,11.763,11.763v17.475C407.5,35.723,402.224,41,395.737,41z M381.5,26h11V15h-11V26z"/>
</g>
<path style="fill:#DCDDDD;" d="M422,150H91c-4.143,0-7.5-3.358-7.5-7.5s3.357-7.5,7.5-7.5h331c4.143,0,7.5,3.358,7.5,7.5
	S426.143,150,422,150z"/>
<g>
	<path style="fill:#CED6E0;" d="M435,163c-11.304,0-20.5-9.196-20.5-20.5S423.696,122,435,122s20.5,9.196,20.5,20.5
		S446.304,163,435,163z M435,137c-3.033,0-5.5,2.467-5.5,5.5s2.467,5.5,5.5,5.5s5.5-2.467,5.5-5.5S438.033,137,435,137z"/>
	<path style="fill:#CED6E0;" d="M78,163c-11.304,0-20.5-9.196-20.5-20.5S66.696,122,78,122s20.5,9.196,20.5,20.5S89.304,163,78,163z
		 M78,137c-3.033,0-5.5,2.467-5.5,5.5s2.467,5.5,5.5,5.5s5.5-2.467,5.5-5.5S81.033,137,78,137z"/>
</g>
<path style="fill:#DCDDDD;" d="M387,486c-4.143,0-7.5-3.358-7.5-7.5v-23.544c0-41.331-33.625-74.956-74.955-74.956h-97.09
	c-41.33,0-74.955,33.625-74.955,74.956V478.5c0,4.142-3.357,7.5-7.5,7.5c-4.143,0-7.5-3.358-7.5-7.5v-23.544
	c0-49.602,40.354-89.956,89.955-89.956h97.09c49.602,0,89.955,40.354,89.955,89.956V478.5C394.5,482.642,391.143,486,387,486z"/>
<g>
	<path style="fill:#CED6E0;" d="M133.737,512h-17.475c-6.486,0-11.763-5.277-11.763-11.763v-17.475
		c0-6.486,5.276-11.763,11.763-11.763h17.475c6.486,0,11.763,5.277,11.763,11.763v17.475C145.5,506.723,140.224,512,133.737,512z
		 M119.5,497h11v-11h-11V497z M133.737,486h0.01H133.737z"/>
	<path style="fill:#CED6E0;" d="M395.737,512h-17.475c-6.486,0-11.763-5.277-11.763-11.763v-17.475
		c0-6.486,5.276-11.763,11.763-11.763h17.475c6.486,0,11.763,5.277,11.763,11.763v17.475C407.5,506.723,402.224,512,395.737,512z
		 M381.5,497h11v-11h-11V497z M395.737,486h0.01H395.737z"/>
</g>
<path style="fill:#DCDDDD;" d="M422,380H91c-4.143,0-7.5-3.358-7.5-7.5s3.357-7.5,7.5-7.5h331c4.143,0,7.5,3.358,7.5,7.5
	S426.143,380,422,380z"/>
<g>
	<path style="fill:#CED6E0;" d="M435,393c-11.304,0-20.5-9.196-20.5-20.5S423.696,352,435,352s20.5,9.196,20.5,20.5
		S446.304,393,435,393z M435,367c-3.033,0-5.5,2.467-5.5,5.5s2.467,5.5,5.5,5.5s5.5-2.467,5.5-5.5S438.033,367,435,367z"/>
	<path style="fill:#CED6E0;" d="M78,393c-11.304,0-20.5-9.196-20.5-20.5S66.696,352,78,352s20.5,9.196,20.5,20.5S89.304,393,78,393z
		 M78,367c-3.033,0-5.5,2.467-5.5,5.5s2.467,5.5,5.5,5.5s5.5-2.467,5.5-5.5S81.033,367,78,367z"/>
</g>
<path style="fill:#FFFFFF;" d="M300.87,177.57c14.32,1.03,25.1,13.48,24.06,27.8c-1.03,14.32-13.48,25.1-27.8,24.06
	c-14.32-1.03-25.1-13.48-24.06-27.8C274.1,187.31,286.55,176.53,300.87,177.57z"/>
<g>
</g>
<g>
</g>
<g>
</g>
<g>
</g>
<g>
</g>
<g>
</g>
<g>
</g>
<g>
</g>
<g>
</g>
<g>
</g>
<g>
</g>
<g>
</g>
<g>
</g>
<g>
</g>
<g>
</g>
</svg>
