<svg xmlns="http://www.w3.org/2000/svg" fill="#707070" viewBox="0 0 212.07 212.07"><path d="M106.034 76.989c-33.491 0-60.738 27.247-60.738 60.737 0 33.492 27.247 60.74 60.738 60.74 33.492 0 60.739-27.248 60.739-60.74 0-33.49-27.247-60.737-60.739-60.737zm0 106.478c-25.22 0-45.738-20.519-45.738-45.74 0-25.22 20.519-45.737 45.738-45.737 25.221 0 45.739 20.518 45.739 45.737 0 25.221-20.518 45.74-45.739 45.74zM73.679 72.087c16.124 0 29.241-13.117 29.241-29.24 0-16.124-13.117-29.243-29.241-29.243S44.437 26.723 44.437 42.847c0 16.123 13.118 29.24 29.242 29.24zm0-43.483c7.853 0 14.241 6.39 14.241 14.243 0 7.852-6.389 14.24-14.241 14.24-7.854 0-14.242-6.388-14.242-14.24 0-7.854 6.388-14.243 14.242-14.243zm64.717 43.483c16.124 0 29.241-13.117 29.241-29.24 0-16.124-13.117-29.243-29.241-29.243s-29.241 13.119-29.241 29.243c-.001 16.123 13.116 29.24 29.241 29.24zm0-43.483c7.852 0 14.241 6.39 14.241 14.243 0 7.852-6.389 14.24-14.241 14.24-7.853 0-14.241-6.388-14.241-14.24-.001-7.854 6.388-14.243 14.241-14.243zm-84.26 59.409c0-14.925-12.142-27.068-27.065-27.068C12.144 60.944 0 73.087 0 88.013c0 14.924 12.144 27.065 27.07 27.065 14.924 0 27.066-12.141 27.066-27.065zM27.07 100.078c-6.655 0-12.07-5.413-12.07-12.065 0-6.654 5.415-12.068 12.07-12.068 6.653 0 12.065 5.414 12.065 12.068.001 6.653-5.411 12.065-12.065 12.065zM185 60.944c-14.925 0-27.066 12.143-27.066 27.068 0 14.924 12.142 27.065 27.066 27.065 14.927 0 27.07-12.142 27.07-27.065 0-14.925-12.143-27.068-27.07-27.068zm0 39.134c-6.653 0-12.066-5.413-12.066-12.065 0-6.654 5.413-12.068 12.066-12.068 6.655 0 12.07 5.414 12.07 12.068 0 6.653-5.415 12.065-12.07 12.065z"/></svg>