<svg xmlns="http://www.w3.org/2000/svg" fill="#707070" viewBox="0 0 297 297"><path d="M271.593 153.485l-109.276-47.512V92.306c19.515-5.758 33.797-23.84 33.797-45.195C196.113 21.134 174.979 0 149.003 0s-47.11 21.133-47.11 47.11c0 7.353 5.961 13.314 13.314 13.314s13.314-5.961 13.314-13.314c0-11.294 9.188-20.482 20.483-20.482s20.483 9.188 20.483 20.483-9.188 20.483-20.483 20.483c-7.353 0-13.314 5.961-13.314 13.314v25.036l-110.756 47.74a13.312 13.312 0 0 0-7.769 14.917 13.313 13.313 0 0 0 13.039 10.623h20.483v104.462c0 7.353 5.961 13.314 13.314 13.314h168.983c7.353 0 13.314-5.961 13.314-13.314V179.224h20.483a.067.067 0 0 1 .02 0c7.353 0 13.314-5.961 13.314-13.314-.002-5.664-3.538-10.501-8.522-12.425zM148.98 129.211l53.786 23.385H94.725l54.255-23.385zm70.688 141.161H77.313v-91.149h142.356v91.149z"/></svg>