<svg xmlns="http://www.w3.org/2000/svg" fill="#616161" viewBox="0 0 512 512"><path d="M470.854 22.699C450.001 14.188 422.708 9.5 394 9.5s-56.001 4.688-76.854 13.199C285.25 35.718 277.534 53.787 276.229 65.5H276v161.78c-6.546-.51-13.231-.78-20-.78s-13.454.27-20 .78V145.5h-.229c-1.305-11.713-9.021-29.782-40.916-42.801C174.001 94.188 146.708 89.5 118 89.5s-56.001 4.688-76.854 13.199C5.346 117.311 0 138.293 0 149.5v236c0 11.207 5.345 32.189 41.146 46.801C61.999 440.813 89.292 445.5 118 445.5c6.795 0 13.494-.27 20.069-.783.72 11.593 7.519 30.887 41.076 44.584C199.999 497.813 227.292 502.5 256 502.5s56.001-4.688 76.854-13.199C368.654 474.689 374 453.707 374 442.5v-.778c6.553.509 13.229.778 20 .778 28.708 0 56.001-4.688 76.854-13.199C506.655 414.689 512 393.707 512 382.5v-313c0-11.207-5.346-32.189-41.146-46.801zM394 49.5c46.234 0 72.904 13.546 77.597 20-4.693 6.454-31.363 20-77.597 20-46.234 0-72.904-13.546-77.597-20 4.693-6.454 31.363-20 77.597-20zm-138.003 217c46.214 0 72.883 13.534 77.593 19.991-.037.052-.07.102-.111.155a10.318 10.318 0 0 1-.855.969 17.479 17.479 0 0 1-.747.707c-.146.13-.302.262-.462.395-.137.114-.274.228-.42.344-.172.137-.355.275-.54.415-.156.117-.311.234-.476.354-.198.143-.409.288-.621.434-.174.119-.345.238-.528.359-.227.15-.468.302-.708.453-.19.12-.376.239-.575.361-.256.156-.528.314-.799.472-.205.12-.404.239-.618.359-.289.163-.596.328-.901.493-.216.117-.424.233-.647.35-.336.176-.691.353-1.044.531-.213.107-.416.213-.635.32-.441.216-.905.432-1.371.649-.148.069-.286.137-.436.206-.627.286-1.276.572-1.948.858-.128.055-.267.109-.396.163-.547.23-1.101.459-1.677.688-.248.098-.511.196-.765.294-.473.183-.944.366-1.435.548-.302.112-.62.222-.929.333-.464.167-.926.334-1.406.498-.334.115-.682.228-1.024.342-.474.158-.947.316-1.436.472-.364.116-.741.23-1.112.345-.487.15-.974.301-1.475.449-.392.116-.795.229-1.195.343-.503.143-1.006.286-1.522.426-.417.113-.844.224-1.269.336-.52.136-1.042.272-1.575.405-.44.11-.888.217-1.337.325-.54.129-1.084.258-1.637.384a175.896 175.896 0 0 1-3.098.671 164.686 164.686 0 0 1-8.16 1.471c-.628.098-1.265.191-1.905.283-.539.078-1.078.156-1.626.23-.656.089-1.322.172-1.99.255-.554.069-1.106.138-1.668.203-.682.079-1.377.151-2.072.224-.568.059-1.133.12-1.71.175-.714.068-1.443.129-2.17.191-.576.049-1.147.1-1.731.145-.758.058-1.533.107-2.305.157-.573.037-1.139.078-1.719.111-.82.047-1.659.083-2.494.121-.552.025-1.095.055-1.653.076-.934.035-1.888.058-2.841.082-.478.012-.947.03-1.429.039a234.438 234.438 0 0 1-8.778 0c-.483-.009-.951-.027-1.429-.039-.952-.024-1.906-.047-2.841-.082-.558-.021-1.102-.051-1.653-.076-.835-.038-1.673-.074-2.494-.121-.58-.033-1.147-.074-1.719-.111-.772-.05-1.546-.099-2.305-.157-.584-.044-1.155-.096-1.731-.145-.727-.062-1.456-.123-2.17-.191-.577-.055-1.142-.116-1.71-.175-.695-.073-1.39-.145-2.072-.224-.562-.065-1.114-.134-1.668-.203-.668-.083-1.335-.167-1.99-.255a172.17 172.17 0 0 1-1.626-.23 158.073 158.073 0 0 1-3.482-.537 174.89 174.89 0 0 1-6.583-1.217 156.66 156.66 0 0 1-6.072-1.38c-.533-.133-1.055-.269-1.575-.405-.425-.111-.852-.222-1.269-.336-.516-.14-1.019-.283-1.522-.426-.4-.114-.803-.227-1.195-.343-.501-.148-.988-.298-1.475-.449-.372-.115-.749-.229-1.112-.345-.489-.156-.962-.314-1.436-.472-.342-.114-.69-.227-1.024-.342-.48-.165-.941-.332-1.406-.498-.309-.111-.627-.221-.929-.333-.491-.181-.962-.365-1.435-.548-.253-.098-.517-.195-.765-.294a85.174 85.174 0 0 1-1.677-.688c-.13-.055-.268-.109-.396-.163a80.862 80.862 0 0 1-1.947-.858c-.15-.069-.288-.137-.436-.206-.467-.216-.93-.433-1.371-.649-.219-.107-.422-.213-.635-.32-.353-.177-.708-.354-1.044-.531-.223-.117-.432-.233-.647-.35-.304-.165-.612-.33-.901-.493-.213-.12-.412-.239-.617-.359-.27-.158-.543-.316-.799-.472-.199-.121-.385-.241-.575-.361-.24-.152-.481-.304-.708-.453-.183-.121-.354-.24-.528-.359a25.674 25.674 0 0 1-1.097-.788 20.512 20.512 0 0 1-.96-.759 17.447 17.447 0 0 1-1.21-1.102 10.318 10.318 0 0 1-.855-.969c-.04-.053-.073-.103-.111-.155 4.71-6.457 31.376-19.991 77.59-19.991zM118 129.5c46.234 0 72.904 13.546 77.597 20-4.693 6.454-31.363 20-77.597 20s-72.904-13.546-77.597-20c4.693-6.454 31.363-20 77.597-20zm20 275.08c-6.499.605-13.18.92-20 .92-47.807 0-74.696-14.484-78-20.633v-30.052c.385.162.753.326 1.146.487C61.999 363.813 89.292 368.5 118 368.5c6.771 0 13.447-.269 20-.778v36.858zm0-115.08v38.08c-6.499.605-13.18.92-20 .92-47.895 0-74.777-14.531-78-20.661v-33.024c.385.162.753.326 1.146.487C61.999 283.813 89.292 288.5 118 288.5c6.777 0 13.47-.27 20.023-.781.02.572.056 1.168.108 1.781H138zm-20-41c-47.895 0-74.777-14.531-78-20.661v-32.024c.385.162.753.326 1.146.487C61.999 204.813 89.292 209.5 118 209.5s56.001-4.688 76.854-13.199c.392-.16.761-.325 1.146-.487v32.025c-3.223 6.13-30.105 20.661-78 20.661zm216 193.366c-3.304 6.15-30.193 20.634-78 20.634s-74.696-14.484-78-20.634v-32.052c.385.162.753.326 1.146.487C199.999 418.813 227.292 423.5 256 423.5s56.001-4.688 76.854-13.199c.392-.16.761-.325 1.146-.487v32.052zm0-79.027c-3.223 6.13-30.105 20.661-78 20.661-47.895 0-74.777-14.531-78-20.661v-30.024c.385.162.753.326 1.146.487C199.999 341.813 227.292 346.5 256 346.5s56.001-4.688 76.854-13.199c.392-.16.761-.325 1.146-.487v30.025zm138 19.027c-3.304 6.15-30.193 20.634-78 20.634-6.82 0-13.501-.316-20-.92v-36.847c6.559.51 13.24.767 20 .767 28.708 0 56.001-4.688 76.854-13.199.392-.16.761-.325 1.146-.487v30.052zm0-77.027c-3.223 6.13-30.105 20.661-78 20.661-6.806 0-13.492-.312-20-.917V289.5h-.131a37.28 37.28 0 0 0 .108-1.781A257.8 257.8 0 0 0 394 288.5c28.708 0 56.001-4.688 76.854-13.199.392-.16.761-.325 1.146-.487v30.025zm0-77c-3.223 6.13-30.105 20.661-78 20.661-47.895 0-74.777-14.531-78-20.661v-33.025c.385.162.753.326 1.146.487C337.999 203.813 365.292 208.5 394 208.5s56.001-4.688 76.854-13.199c.392-.16.761-.325 1.146-.487v33.025zm0-80c-3.223 6.13-30.105 20.661-78 20.661-47.895 0-74.777-14.531-78-20.661v-32.025c.385.162.753.326 1.146.487C337.999 124.813 365.292 129.5 394 129.5s56.001-4.688 76.854-13.199c.392-.16.761-.325 1.146-.487v32.025z"/></svg>