<svg xmlns="http://www.w3.org/2000/svg" viewBox="0 0 512 512"><path d="M362.667 160H149.333C137.551 160 128 169.551 128 181.333V288c0 11.782 9.551 21.333 21.333 21.333h213.333c11.782 0 21.333-9.551 21.333-21.333V181.333C384 169.551 374.449 160 362.667 160zm-21.334 106.667H170.667v-64h170.667v64z"/><path d="M490.667 181.333H448v-64c0-35.346-28.654-64-64-64h-42.667V32c0-11.782-9.551-21.333-21.333-21.333H192c-11.782 0-21.333 9.551-21.333 21.333v21.333H128c-35.346 0-64 28.654-64 64v64H21.333C9.551 181.333 0 190.885 0 202.667V288h42.667v-64H64v192c0 11.782 9.551 21.333 21.333 21.333V480c0 11.782 9.551 21.333 21.333 21.333h64c11.782 0 21.333-9.551 21.333-21.333v-42.667h128V480c0 11.782 9.551 21.333 21.333 21.333h64c11.782 0 21.333-9.551 21.333-21.333v-42.667c11.782 0 21.333-9.551 21.333-21.333V224h21.333v64H512v-85.333c0-11.782-9.551-21.334-21.333-21.334zm-277.334-128h85.333v21.333h-85.333V53.333zm-64 405.334H128v-21.333h21.333v21.333zm234.667 0h-21.333v-21.333H384v21.333zm21.333-64H106.667V117.333C106.667 105.551 116.218 96 128 96h42.667c0 11.782 9.551 21.333 21.333 21.333h128c11.782 0 21.333-9.551 21.333-21.333H384c11.782 0 21.333 9.551 21.333 21.333v277.334z"/><circle cx="362.667" cy="352" r="21.333"/><circle cx="149.333" cy="352" r="21.333"/><path d="M192 330.667h128v42.667H192z"/></svg>