<svg xmlns="http://www.w3.org/2000/svg" fill="#616161" viewBox="0 0 512.004 512.004"><path d="M490.669 192H21.336C9.554 192 .003 201.551.003 213.333v64c0 11.782 9.551 21.333 21.333 21.333h25.6l38.4 196.267c2.058 10.093 11.034 17.274 21.333 17.067h298.667c10.299.208 19.275-6.973 21.333-17.067l38.4-196.267h25.6c11.782 0 21.333-9.551 21.333-21.333v-64c0-11.782-9.551-21.333-21.333-21.333zm-102.4 277.333H123.736L89.602 298.667h332.8l-34.133 170.666zM469.336 256H42.669v-21.333h426.667V256z"/><circle cx="170.669" cy="362.667" r="21.333"/><circle cx="256.002" cy="362.667" r="21.333"/><circle cx="341.336" cy="362.667" r="21.333"/><circle cx="298.669" cy="426.667" r="21.333"/><circle cx="213.336" cy="426.667" r="21.333"/><path d="M416.002 117.333c0-29.455-23.878-53.333-53.333-53.333H149.336c-5.891 0-10.667-4.776-10.667-10.667s4.776-10.667 10.667-10.667h266.667V0H149.336C119.88 0 96.002 23.878 96.002 53.333s23.878 53.333 53.333 53.333h213.333c5.891 0 10.667 4.776 10.667 10.667S368.559 128 362.668 128H96.002v42.667h266.667c29.455 0 53.333-23.878 53.333-53.334z"/></svg>