<svg xmlns="http://www.w3.org/2000/svg" viewBox="0 0 390 390" fill="#616161"><path d="M320 176.352V45h-85v30h55v43.543L99 170.634V125h26V95H45v30h24v51.531C29.756 184.04 0 218.601 0 260c0 46.869 38.131 85 85 85s85-38.131 85-85c0-27.928-13.542-52.748-34.401-68.252L290 149.639v26.713c-39.736 7.108-70 41.899-70 83.648 0 46.869 38.131 85 85 85s85-38.131 85-85c0-41.749-30.264-76.539-70-83.648zM85 315c-30.327 0-55-24.673-55-55 0-24.763 16.453-45.75 39-52.619V265h30v-58.189c23.567 6.209 41 27.698 41 53.189 0 30.327-24.673 55-55 55zm220 0c-30.327 0-55-24.673-55-55 0-25.127 16.943-46.356 40-52.904V265h30v-57.904c23.057 6.547 40 27.777 40 52.904 0 30.327-24.673 55-55 55z"/></svg>