<svg xmlns="http://www.w3.org/2000/svg" fill="#616161" viewBox="0 0 297 297"><path d="M282.771 8.433c-2.359-6.607-9.63-10.05-16.231-7.689L21.917 88.11c-6.606 2.358-10.048 9.626-7.689 16.231 1.855 5.195 6.744 8.433 11.96 8.433 1.418 0 2.86-.239 4.271-.744l37.249-13.303v90.807H49.146c-7.014 0-12.7 5.686-12.7 12.7v82.065c0 7.014 5.686 12.701 12.7 12.701h207.116c7.014 0 12.7-5.686 12.7-12.701V127.986c0-7.014-5.686-12.7-12.7-12.7h-23.936V39.935l42.756-15.27c6.607-2.359 10.049-9.627 7.689-16.232zM93.109 89.655l44.207-15.788v78.543h-20.76c-7.014 0-12.7 5.686-12.7 12.7v24.424H93.109V89.655zm150.452 181.944H61.847v-56.664h54.71c7.014 0 12.7-5.686 12.7-12.7v-24.424h58.618c7.014 0 12.7-5.686 12.7-12.7v-24.424h42.986v130.912zm-36.636-156.314h-19.051c-7.014 0-12.7 5.686-12.7 12.7v24.424h-12.456V64.795l44.207-15.788v66.278z"/></svg>