<svg xmlns="http://www.w3.org/2000/svg" viewBox="0 0 512 512" fill="#fff"><path d="M480.6 115.7H309.2l87.9-68.2c8.9-6.9 10.5-19.7 3.6-28.6-6.9-8.9-19.7-10.5-28.6-3.6l-116.1 90-116.1-90c-8.9-6.9-21.7-5.3-28.6 3.6-6.9 8.9-5.3 21.7 3.6 28.6l87.9 68.2H31.4c-11.3 0-20.4 9.1-20.4 20.4v275.6c0 11.3 9.1 20.4 20.4 20.4h57.1v48.5c0 11.3 9.1 20.4 20.4 20.4H403c11.3 0 20.4-9.1 20.4-20.4v-48.5h57.1c11.3 0 20.4-9.1 20.4-20.4V136.1c.1-11.2-9-20.4-20.3-20.4zm-98 344.5H129.4v-28.1h253.2v28.1zm77.6-68.9H51.8V156.6h408.3v234.7z"/></svg>