<svg xmlns="http://www.w3.org/2000/svg" fill="#1fa1af" viewBox="0 0 512 512"><path d="M455.111 0H56.889C45.107 0 35.556 9.552 35.556 21.333v469.333c0 11.782 9.552 21.333 21.333 21.333h398.222c11.782 0 21.333-9.552 21.333-21.333V21.333C476.444 9.552 466.893 0 455.111 0zm-21.333 469.333H78.222V42.667h355.556v426.666z"/><circle cx="194.788" cy="130.034" r="52.075"/><path d="M194.78 182.107c-44.736 0-81.003 36.264-81.003 81.004h162.005c.001-44.74-36.266-81.004-81.002-81.004zm174.998-82.551h-37.589c-11.782 0-21.333 9.552-21.333 21.333 0 11.782 9.552 21.333 21.333 21.333h37.589c11.782 0 21.333-9.552 21.333-21.333 0-11.782-9.552-21.333-21.333-21.333zm0 99.555h-37.589c-11.782 0-21.333 9.552-21.333 21.333s9.552 21.333 21.333 21.333h37.589c11.782 0 21.333-9.552 21.333-21.333s-9.552-21.333-21.333-21.333zm0 99.556H142.222c-11.782 0-21.333 9.552-21.333 21.333s9.552 21.333 21.333 21.333h227.556c11.782 0 21.333-9.552 21.333-21.333s-9.552-21.333-21.333-21.333zm0 85.333H142.222c-11.782 0-21.333 9.552-21.333 21.333 0 11.782 9.552 21.333 21.333 21.333h227.556c11.782 0 21.333-9.552 21.333-21.333 0-11.781-9.552-21.333-21.333-21.333z"/></svg>