<svg width="37" height="37" fill="none" xmlns="http://www.w3.org/2000/svg"><path d="M34.037 18.507V8.286C34.037 5.923 32.092 4 29.701 4H7.227C4.836 4 2.89 5.923 2.89 8.286V18.53C1.208 19.121 0 20.71 0 22.571v7.858h2.89V33h2.891v-2.571H31.22V33h2.89v-2.571H37V22.57c0-1.888-1.243-3.495-2.963-4.064zM5.781 8.286a1.44 1.44 0 0 1 1.446-1.429H29.7c.797 0 1.445.641 1.445 1.429v10H29.63v-1.429c0-2.363-1.945-4.286-4.336-4.286h-3.902c-1.11 0-2.123.415-2.891 1.095a4.347 4.347 0 0 0-2.89-1.095h-4.047c-2.391 0-4.336 1.923-4.336 4.286v1.429H5.78v-10zm20.957 8.571v1.429h-6.793v-1.429c0-.788.649-1.428 1.446-1.428h3.902c.797 0 1.445.64 1.445 1.428zm-9.683 0v1.429h-6.938v-1.429c0-.788.649-1.428 1.445-1.428h4.047c.797 0 1.446.64 1.446 1.428zm17.054 10.714H2.891v-5c0-.787.648-1.428 1.445-1.428h28.328c.797 0 1.445.64 1.445 1.428v5z" fill="#616161"/><path stroke="#616161" stroke-width="3" d="M18.5 19v10"/></svg>