<svg xmlns="http://www.w3.org/2000/svg" viewBox="0 0 70.954 70.954"><path d="M61.266 17.623c-2.528 2.951-3.167 6.761-3.252 9.5H37.99V.244h-3C4.546.244 0 18.965 0 30.124c0 9.506 4.784 17.981 12.217 23.463-3.085 1.421-5.237 4.534-5.237 8.146 0 4.948 4.026 8.976 8.975 8.976 4.948 0 8.974-4.026 8.974-8.976 0-.884-.134-1.735-.373-2.543a34.245 34.245 0 0 0 13.764.25c-.195.732-.31 1.5-.31 2.293 0 4.948 4.024 8.976 8.974 8.976 4.947 0 8.973-4.026 8.973-8.976 0-3.346-1.844-6.265-4.565-7.807 7.698-5.466 12.681-14.101 12.681-23.804v-.452l.02-2.484c.089-1.826.451-4.165 1.732-5.66 1.108-1.295 2.787-1.924 5.129-1.924v-6c-5.162.001-8.119 2.187-9.688 4.021zM15.955 64.708a2.978 2.978 0 0 1-2.975-2.976 2.977 2.977 0 0 1 2.975-2.973 2.977 2.977 0 0 1 2.974 2.973 2.979 2.979 0 0 1-2.974 2.976zm31.029 0a2.978 2.978 0 0 1-2.974-2.976 2.977 2.977 0 0 1 2.974-2.973 2.977 2.977 0 0 1 2.973 2.973 2.979 2.979 0 0 1-2.973 2.976zM31.99 6.313v20.811H6.135C7.258 14.062 15.932 7.069 31.99 6.313zm.046 47.709c-13.249 0-24.21-9.134-25.823-20.897H31.99l25.876.001c-1.613 11.764-12.581 20.896-25.83 20.896z"/></svg>