<svg xmlns="http://www.w3.org/2000/svg" viewBox="0 0 512.355 512.355"><path d="M182.237 268.985c5.207 0 8.678-3.471 8.678-8.678 0-39.919 18.224-69.424 43.39-69.424h43.39c3.471 0 6.942-2.603 7.81-6.075 1.736-3.471 0-6.942-2.603-9.546-6.942-5.207-13.885-23.431-13.885-36.447 0-23.431 24.298-26.034 34.712-26.034 5.207 0 8.678-3.471 8.678-8.678 0-5.207-3.471-8.678-8.678-8.678-31.241 0-52.068 16.488-52.068 43.39 0 11.281 3.471 24.298 8.678 34.712h-26.034c-35.58 0-60.746 36.447-60.746 86.78 0 5.207 3.472 8.678 8.678 8.678z"/><path d="M326.292 85.88c11.281 5.207 20.827 20.827 20.827 35.58 0 19.092-15.62 34.712-34.712 34.712-4.339 0-8.678 2.603-8.678 6.942s1.736 7.81 6.075 9.546c6.075 2.603 11.281 10.414 11.281 18.224 0 9.546-7.81 17.356-17.356 17.356h-52.068c-21.695 0-43.39 16.488-43.39 52.068 0 5.207 3.471 8.678 8.678 8.678s8.678-3.471 8.678-8.678c0-21.695 9.546-34.712 26.034-34.712h52.068c19.092 0 34.712-15.62 34.712-34.712 0-6.942-2.603-14.753-6.942-20.827 19.092-7.81 32.976-26.902 32.976-48.597s-13.017-43.39-31.241-51.2c-4.339-1.736-9.546 0-11.281 4.339s0 9.545 4.339 11.281z"/><path d="M511.773 232.127c-.128-.817-.326-1.563-.641-2.193l-12.378-23.43-11.052-21.695a8.11 8.11 0 0 0-1.458-2.018c-2.13-3.47-6.762-4.678-10.691-2.321l-239.56 123.227h-71.111c-5.207 0-8.678 3.471-8.678 8.678v26.902c0 10.414-17.356 10.414-17.356 0v-27.77c0-5.207-3.471-8.678-8.678-8.678H95.458v-25.166c0-13.885-11.281-26.034-26.034-26.034H34.712c-5.207 0-8.678 3.471-8.678 8.678v42.522h-.868C10.414 305.432 0 316.714 0 330.598v86.78c0 7.81 3.471 14.753 8.678 19.092 4.339 4.339 9.546 6.075 14.753 6.075h348.854c6.942.868 13.017-.868 18.224-5.207s8.678-11.281 8.678-19.092v-86.78c0-11.075-7.181-21.04-17.133-25.503l125.608-63.88c3.904-1.562 5.689-5.934 4.111-9.956zm-36.22-32.566l15.62 31.241-77.234 39.919-15.608-31.217 77.222-39.943zM382.871 247.5l15.845 31.103-48.993 25.094h-75.498L382.871 247.5zM43.39 268.985h26.034c4.339 0 8.678 3.471 8.678 8.678v25.166H43.39v-33.844zm-16.488 52.068h94.59v18.224c0 13.885 11.281 24.298 26.034 24.298 14.753 0 26.034-10.414 26.034-24.298v-19.092h198.726c5.207 1.736 9.546 5.207 9.546 10.414v59.878H17.356v-59.01c0-5.208 4.339-9.547 9.546-10.414zm352.325 102.4c-1.736.868-2.603 1.736-5.207 1.736H25.166c-2.603 0-4.339-.868-5.207-.868-1.736-1.736-2.603-3.471-2.603-6.075v-10.414h364.475v9.546c0 2.603-.868 4.339-2.604 6.075z"/></svg>