<svg xmlns="http://www.w3.org/2000/svg" viewBox="0 0 466.287 466.287"><path d="M451.287 48.634H51.957c-8.284 0-15 6.716-15 15v144.789H33.21c-18.313 0-33.21 14.898-33.21 33.21v142.809c0 18.313 14.897 33.21 33.21 33.21h261.991c18.313 0 33.21-14.898 33.21-33.21v-92.548h122.876c8.284 0 15-6.716 15-15V63.634c0-8.284-6.716-15-15-15zm-15 59.107c-13.644-4.653-24.453-15.463-29.106-29.107h29.106v29.107zM96.064 78.634c-4.653 13.644-15.463 24.453-29.107 29.107V78.634h29.107zM33.21 238.423h261.991c1.77 0 3.21 1.44 3.21 3.21v14.135H30v-14.135c0-1.77 1.44-3.21 3.21-3.21zm155.157-68.159c0-34.882 28.374-63.26 63.25-63.26 34.882 0 63.26 28.378 63.26 63.26 0 14.106-4.771 27.758-13.313 38.777a33.282 33.282 0 0 0-6.363-.618h-24.779c4.88-4.842 7.909-11.549 7.909-18.95 0-12.123-8.122-22.379-19.209-25.629v-21.768a11.683 11.683 0 0 1 4.209 8.98c0 4.142 3.357 7.5 7.5 7.5s7.5-3.358 7.5-7.5c0-12.123-8.122-22.379-19.209-25.629v-2.479c0-4.142-3.357-7.5-7.5-7.5s-7.5 3.358-7.5 7.5v2.479c-11.086 3.25-19.208 13.506-19.208 25.629s8.122 22.379 19.208 25.629v21.768c-2.569-2.15-4.208-5.376-4.208-8.98 0-4.142-3.357-7.5-7.5-7.5s-7.5 3.358-7.5 7.5c0 7.402 3.028 14.108 7.908 18.95h-31.653c-8.307-10.912-12.802-24.139-12.802-38.159zm110.044 120.793H30v-15.289h268.411v15.289zm-54.289-131.021c-2.569-2.15-4.208-5.376-4.208-8.98s1.639-6.83 4.208-8.98v17.96zm15 38.417v-17.96a11.683 11.683 0 0 1 0 17.96zm36.079 189.2H33.21c-1.77 0-3.21-1.44-3.21-3.21v-73.385h268.411v73.385c0 1.769-1.44 3.21-3.21 3.21zm24.063-168.873c10.052-14.037 15.613-31.016 15.613-48.516 0-45.91-37.351-83.26-83.26-83.26-45.904 0-83.25 37.35-83.25 83.26 0 13.548 3.203 26.527 9.22 38.159H66.957v-79.915c24.695-5.709 44.165-25.179 49.874-49.873h269.583c5.709 24.694 25.179 44.164 49.873 49.873v83.513c-24.694 5.709-44.164 25.179-49.873 49.873h-58.003v-20.261c0-8.849-3.485-16.894-9.147-22.853zm87.917 43.114c4.653-13.644 15.462-24.453 29.106-29.106v29.106h-29.106z"/></svg>