<svg xmlns="http://www.w3.org/2000/svg" fill="#616161" viewBox="0 0 512 512"><path d="M68 192.988h194v40H68z"/><path d="M452 16.988H60c-33.084 0-60 26.916-60 60v256c0 33.084 26.916 60 60 60h172v-40H60c-11.028 0-20-8.972-20-20v-170h432v46.122h40V76.988c0-33.084-26.916-60-60-60zm20 86H40v-26c0-11.028 8.972-20 20-20h392c11.028 0 20 8.972 20 20v26z"/><path d="M478.485 243.961c-24.106-4.333-47.046-18.533-55.79-24.438-9.121-6.159-19.735-9.414-30.695-9.414s-21.574 3.255-30.696 9.414c-8.743 5.904-31.683 20.104-55.789 24.438-19.42 3.494-33.515 20.338-33.515 40.054v62.396c0 93.954 107.28 142.923 111.848 144.961l8.152 3.64 8.152-3.64C404.72 489.334 512 440.366 512 346.412v-62.396c0-19.717-14.095-36.561-33.515-40.055zm-6.483 102.451H472c0 55.424-58.155 92.354-79.998 104.268C370.129 438.75 312 401.824 312 346.412v-62.396c0-.34.245-.622.594-.685 30.468-5.478 57.621-21.559 71.094-30.656 2.485-1.678 5.359-2.564 8.313-2.564s5.827.887 8.312 2.564c13.474 9.098 40.627 25.179 71.095 30.656.35.063.594.345.594.685v62.396z"/></svg>