<svg xmlns="http://www.w3.org/2000/svg" fill="#707070" viewBox="0 0 512 512"><path d="M420.498 65.192c-48.503-8.692-93.169-35.18-115.477-50.195C290.446 5.186 273.495 0 255.999 0s-34.447 5.186-49.021 14.997C184.67 30.012 140.004 56.501 91.502 65.193 62.776 70.34 41.926 95.195 41.926 124.29v120.709c0 39.877 11.156 78.75 33.159 115.539 17.213 28.781 41.064 56.288 70.888 81.757 50.147 42.825 99.803 65.157 101.892 66.086l8.134 3.619 8.136-3.619c2.089-.929 51.745-23.261 101.892-66.086 29.823-25.469 53.674-52.976 70.888-81.757 22.003-36.79 33.159-75.662 33.159-115.539v-120.71c0-29.095-20.85-53.95-49.576-59.097zm9.56 179.806c0 59.45-30.033 115.375-89.267 166.224-34.432 29.558-69.39 48.824-84.791 56.643-35.401-17.987-174.061-96.536-174.061-222.866v-120.71c0-9.695 6.99-17.985 16.621-19.711 55.718-9.985 105.843-39.615 130.761-56.387 7.947-5.349 17.173-8.177 26.678-8.177 9.505 0 18.73 2.828 26.677 8.178 24.919 16.772 75.043 46.402 130.761 56.388 9.63 1.726 16.621 10.015 16.621 19.711v120.707z"/><path d="M225.014 294.431l-68.38-64.018-27.348 29.21 98.307 92.036 156.376-175.354-29.864-26.632z"/></svg>