<svg xmlns="http://www.w3.org/2000/svg" viewBox="0 0 512 512"><path d="M491.243 110.703H469.28c-2.852-8.056-10.517-13.838-19.55-13.838h-41.513c-9.033 0-16.698 5.781-19.55 13.838h-28.882v-62.27c0-11.463-9.294-20.757-20.757-20.757H172.973c-11.463 0-20.757 9.294-20.757 20.757v62.27h-28.882c-2.852-8.056-10.517-13.838-19.55-13.838H62.27c-9.033 0-16.698 5.781-19.55 13.838H20.757C9.294 110.703 0 119.996 0 131.459v332.108c0 11.463 9.294 20.757 20.757 20.757h470.486c11.463 0 20.757-9.294 20.757-20.757V131.459c0-11.463-9.293-20.756-20.757-20.756zM193.73 69.189h124.54v41.513H193.73V69.189zm276.757 373.622H41.513V290.595H193.73v20.757c0 11.463 9.294 20.757 20.757 20.757h83.027c11.463 0 20.757-9.293 20.757-20.757v-20.757h152.216v152.216zM235.243 290.595v-41.513h41.514v41.513h-41.514zm235.244-41.514H318.27v-20.757c0-11.463-9.293-20.757-20.757-20.757h-83.027c-11.463 0-20.757 9.294-20.757 20.757v20.757H41.513v-96.865h428.972v96.865z"/></svg>