<svg xmlns="http://www.w3.org/2000/svg" fill="#707070" viewBox="0 0 512 512"><path d="M42.667 170.667h384v64h42.667v-192c0-11.782-9.551-21.333-21.333-21.333h-85.333V0H320v21.333h-64V0h-42.667v21.333h-64V0h-42.667v21.333H21.333C9.551 21.333 0 30.885 0 42.667V384c0 11.782 9.551 21.333 21.333 21.333h192v-42.667H42.667V170.667zm0-106.667h64v21.333h42.667V64h64v21.333H256V64h64v21.333h42.667V64h64v64h-384V64z"/><path d="M85.333 213.333H128V256H85.333zm85.334 0h42.667V256h-42.667zm85.333 0h42.667V256H256zm-170.667 64H128V320H85.333zm85.334 0h42.667V320h-42.667zM384 256c-70.692 0-128 57.308-128 128s57.308 128 128 128 128-57.307 128-128c-.082-70.658-57.342-127.918-128-128zm0 213.333c-47.128 0-85.333-38.205-85.333-85.333s38.205-85.333 85.333-85.333 85.333 38.205 85.333 85.333-38.205 85.333-85.333 85.333z"/><path d="M389.909 375.744l-30.827-46.251-35.499 23.659 42.667 64c6.628 9.669 19.756 12.291 29.589 5.909l64-42.667-23.659-35.499-46.271 30.849z"/></svg>