<svg xmlns="http://www.w3.org/2000/svg" fill="#707070" viewBox="0 0 512 512"><path d="M245.333 405.333V234.667H416c11.782 0 21.333-9.551 21.333-21.333C437.333 95.513 341.821 0 224 0S10.667 95.513 10.667 213.333c0 11.782 9.551 21.333 21.333 21.333h170.667V400L44.8 281.6l-25.6 34.133 76.8 57.6V512h42.667V405.333l51.2 38.4a21.331 21.331 0 0 0 12.8 4.267v64h42.667v-64h149.333v64h42.667v-64h64v-42.667H245.333zM393.344 192h-84.416a407.98 407.98 0 0 0-26.027-138.667c59.757 22.06 102.312 75.49 110.443 138.667zm-254.272 0H54.656c8.131-63.177 50.686-116.607 110.443-138.667A407.98 407.98 0 0 0 139.072 192zm42.667 0C185.387 93.867 213.76 42.667 224 42.667s38.613 51.2 42.261 149.333h-84.522z"/></svg>