<svg xmlns="http://www.w3.org/2000/svg" fill="#707070" viewBox="0 0 512 512"><path d="M452 347c33.084 0 60-26.916 60-60s-26.916-60-60-60-60 26.916-60 60 26.916 60 60 60zm0-80c11.028 0 20 8.972 20 20s-8.972 20-20 20-20-8.972-20-20 8.972-20 20-20z"/><path d="M373 304c0-28.09-19.407-51.724-45.516-58.222l-101.819-90.602A59.94 59.94 0 0 0 185.78 140H101c-33.084 0-60 26.916-60 60v44H0v268h200v-95h92v-40h-92v-93h113c11.028 0 20 8.972 20 20v113h179v-40H373v-73zM160 472H40V284h120v188zM81 244v-44c0-11.028 8.972-20 20-20h84.78a19.98 19.98 0 0 1 13.295 5.059L265.313 244H81zm60-124c33.084 0 60-26.916 60-60S174.084 0 141 0 81 26.916 81 60s26.916 60 60 60zm0-80c11.028 0 20 8.972 20 20s-8.972 20-20 20-20-8.972-20-20 8.972-20 20-20z"/></svg>