<svg xmlns="http://www.w3.org/2000/svg" fill="#f76649" viewBox="0 0 72.847 72.847"><path d="M54.601 7.6a12.91 12.91 0 0 0-3.089.371A16.89 16.89 0 0 0 37.129 0c-5.981 0-11.357 3.065-14.407 8.02a13.13 13.13 0 0 0-3.896-.592c-7.117 0-12.924 5.643-13.222 12.688H1.595l9.991 52.731h49.675l9.991-52.731h-3.607C67.349 13.166 61.619 7.6 54.601 7.6zm-35.774 5.828c1.311 0 2.604.364 3.742 1.054l3.057 1.853 1.294-3.332c1.652-4.254 5.66-7.002 10.209-7.002 4.473 0 8.455 2.68 10.148 6.827l1.23 3.015 2.902-1.473a6.99 6.99 0 0 1 3.188-.77c3.711 0 6.759 2.875 7.045 6.516H11.605c.288-3.735 3.413-6.688 7.222-6.688zm39.742 12.688c-2.448 9.956-11.446 17.365-22.145 17.365s-19.696-7.409-22.143-17.365h44.288zm-2.278 40.731H16.556L9.96 32.038c4.417 10.249 14.615 17.443 26.464 17.443 11.848 0 22.044-7.19 26.462-17.437l-6.595 34.803z"/></svg>