<svg xmlns="http://www.w3.org/2000/svg" fill="#707070" viewBox="0 0 512 512"><path d="M106.667 149.312h170.667c11.782 0 21.333-9.551 21.333-21.333 0-11.782-9.551-21.333-21.333-21.333H106.667c-11.782 0-21.333 9.551-21.333 21.333-.001 11.782 9.551 21.333 21.333 21.333zm0 85.333h106.667c11.782 0 21.333-9.551 21.333-21.333 0-11.782-9.551-21.333-21.333-21.333H106.667c-11.782 0-21.333 9.551-21.333 21.333-.001 11.782 9.551 21.333 21.333 21.333zm0 85.334h64c11.782 0 21.333-9.551 21.333-21.333 0-11.782-9.551-21.333-21.333-21.333h-64c-11.782 0-21.333 9.551-21.333 21.333-.001 11.781 9.551 21.333 21.333 21.333z"/><path d="M490.667 21.312H21.333C9.551 21.312 0 30.863 0 42.645v341.333c0 11.782 9.551 21.333 21.333 21.333h256v64c0 19.006 22.979 28.524 36.418 15.085l48.915-48.915 48.915 48.915c13.44 13.44 36.419 3.922 36.419-15.084v-64h42.667c11.782 0 21.333-9.551 21.333-21.333V42.645c0-11.782-9.551-21.333-21.333-21.333zm-85.334 396.497l-27.582-27.582c-8.331-8.331-21.839-8.331-30.17 0L320 417.809v-87.911c.531.307 1.071.601 1.609.897.177.098.352.199.53.296a84.873 84.873 0 0 0 3.222 1.65c.257.125.515.246.773.368.975.463 1.958.909 2.953 1.335.164.07.325.144.489.214 1.12.472 2.255.916 3.399 1.34.275.102.551.2.828.3 1.044.375 2.097.734 3.159 1.069.144.045.285.095.429.14 1.175.364 2.362.697 3.558 1.01.291.076.584.149.876.223 1.121.281 2.248.545 3.386.781.109.023.217.049.327.072a83.577 83.577 0 0 0 4.621.799c1.204.177 2.413.336 3.633.462.062.006.123.015.185.022a87.927 87.927 0 0 0 4.783.34c1.296.058 2.596.099 3.907.099s2.611-.04 3.907-.099c.317-.014.633-.03.949-.048a84.907 84.907 0 0 0 3.834-.292c.062-.006.123-.015.185-.022a84.986 84.986 0 0 0 3.633-.462 85.329 85.329 0 0 0 4.621-.799c.11-.022.217-.049.327-.072a84 84 0 0 0 3.385-.781 85.809 85.809 0 0 0 4.435-1.233c.143-.044.284-.094.427-.139a85.022 85.022 0 0 0 3.161-1.069c.276-.099.553-.198.828-.3a84.72 84.72 0 0 0 3.399-1.34c.164-.069.325-.143.489-.214a83.453 83.453 0 0 0 2.953-1.335c.258-.123.517-.243.774-.369a85.588 85.588 0 0 0 3.221-1.65c.178-.096.353-.198.53-.296.538-.296 1.078-.59 1.609-.897v87.911zM320 255.979c0-23.567 19.099-42.667 42.667-42.667s42.667 19.099 42.667 42.667-19.099 42.667-42.667 42.667S320 279.546 320 255.979zm149.333 106.666H448V255.979c0-.461-.012-.914-.034-1.36-.73-46.501-38.624-83.973-85.299-83.973s-84.569 37.472-85.299 83.973c-.022.446-.034.899-.034 1.36v106.667H42.667V63.979h426.667v298.666z"/></svg>