<svg xmlns="http://www.w3.org/2000/svg" fill="#0097A7" viewBox="0 0 512 512"><path d="M488.727 23.273h-93.091c-12.853 0-23.273 10.42-23.273 23.273v11.315l-257.925 42.988H23.273C10.42 100.849 0 111.268 0 124.121v201.697c0 12.853 10.42 23.273 23.273 23.273h74.423l26.981 121.412c2.365 10.648 11.81 18.224 22.717 18.224h124.121a23.275 23.275 0 0 0 22.378-16.879l25.322-88.627 53.149 8.858v11.315c0 12.853 10.42 23.273 23.273 23.273h93.091c12.853 0 23.273-10.42 23.273-23.273V46.545C512 33.693 501.58 23.273 488.727 23.273zM93.091 302.545H46.545V147.394H93.09v155.151zm160.87 139.637h-87.898l-19.496-87.737 126.442 21.074-19.048 66.663zm118.403-97.291l-232.727-38.788V143.836l232.727-38.788v239.843zm93.091 35.23H418.91V69.818h46.545v310.303z"/></svg>