<svg xmlns="http://www.w3.org/2000/svg" fill="#616161" viewBox="0 0 18.61 18.61"><path d="M6.17 2c.751 0 1.44.202 2.069.609.324-.08.711-.121 1.157-.121 1.846 0 3.418.67 4.717 2.008 1.299 1.339 1.948 2.962 1.948 4.87 0 .466-.051.953-.152 1.461.264.589.396 1.187.396 1.794 0 1.097-.38 2.036-1.142 2.815-.761.781-1.668 1.173-2.725 1.173a3.714 3.714 0 0 1-1.825-.488c-.527.081-.933.122-1.217.122-1.847 0-3.425-.67-4.733-2.009S2.7 11.272 2.7 9.366c0-.447.051-.902.152-1.37a3.897 3.897 0 0 1-.547-2.039c0-1.096.376-2.029 1.126-2.799C4.181 2.386 5.095 2 6.17 2m3.135 10.53c-.406 0-.729-.061-.975-.183-.263-.142-.445-.284-.547-.425-.243-.447-.376-.681-.396-.7a1.53 1.53 0 0 0-.364-.609 1.072 1.072 0 0 0-.61-.213.947.947 0 0 0-.7.274.874.874 0 0 0-.274.639c0 .386.144.801.428 1.248.263.405.629.741 1.096 1.003.648.346 1.45.519 2.404.519.79 0 1.49-.122 2.1-.365.609-.284 1.055-.639 1.339-1.065.304-.467.456-.975.456-1.522 0-.445-.08-.852-.242-1.217-.163-.304-.416-.578-.762-.82a5.854 5.854 0 0 0-1.156-.548 22.257 22.257 0 0 0-1.461-.396 5.869 5.869 0 0 1-.533-.107 5.408 5.408 0 0 1-.41-.106 2.897 2.897 0 0 1-.518-.212 1.053 1.053 0 0 1-.396-.336.527.527 0 0 1-.152-.396c0-.243.142-.455.426-.639.265-.203.649-.305 1.156-.305.508 0 .884.092 1.127.273.263.225.456.478.577.762.163.264.295.446.396.547a.929.929 0 0 0 .578.184.954.954 0 0 0 .699-.306.9.9 0 0 0 .275-.669c0-.202-.072-.467-.214-.791a4.128 4.128 0 0 0-.639-.729c-.284-.224-.659-.417-1.127-.579a5.47 5.47 0 0 0-1.552-.213c-.73 0-1.38.11-1.948.335-.566.2-1.003.505-1.307.911a2.267 2.267 0 0 0-.457 1.4c0 .527.143.984.426 1.37.346.405.73.688 1.156.851.488.224 1.076.407 1.766.548.121.021.27.056.441.106.172.052.324.092.457.123.131.028.238.055.319.075.284.103.517.243.699.427.183.141.274.354.274.639 0 .346-.162.629-.486.853-.364.243-.821.364-1.369.364M6.17 0C4.561 0 3.117.61 1.996 1.765.891 2.899.305 4.35.305 5.957c0 .832.156 1.619.466 2.348a8.15 8.15 0 0 0-.07 1.062c0 2.438.853 4.547 2.532 6.267 1.693 1.732 3.768 2.61 6.164 2.61.254 0 .547-.02.896-.06.69.283 1.409.426 2.146.426 1.588 0 3.025-.614 4.157-1.777a5.912 5.912 0 0 0 1.709-4.211c0-.677-.111-1.349-.332-2.004a9.16 9.16 0 0 0 .089-1.251c0-2.437-.846-4.544-2.513-6.263C13.864 1.369 11.794.489 9.397.489a8.21 8.21 0 0 0-.801.038A5.717 5.717 0 0 0 6.17 0z"/></svg>