<svg width="37" height="37" fill="none" xmlns="http://www.w3.org/2000/svg"><path d="M35.458 19.5H1.542C.69 19.5 0 20.19 0 21.042v9.252c0 .852.69 1.542 1.542 1.542h29.291v-3.084h-18.5v-6.168h21.584v6.168h-3.084v3.084h4.625c.852 0 1.542-.69 1.542-1.542v-9.252c0-.852-.69-1.542-1.542-1.542zM9.25 28.752H3.083v-6.168H9.25v6.168zm22.354-18.196c.925.925 1.234 1.234-.77 3.238l2.158 2.16c1.696-1.697 2.466-3.239 2.466-4.627a4.626 4.626 0 0 0-1.696-2.93c-.925-.925-1.233-1.233.771-3.238L32.375 3c-1.696 1.696-2.467 3.238-2.467 4.626a4.626 4.626 0 0 0 1.696 2.93zm-6.629 0c.925.925 1.233 1.234-.77 3.238l2.157 2.16c1.696-1.697 2.467-3.239 2.467-4.627a4.626 4.626 0 0 0-1.696-2.93c-.925-.925-1.233-1.233.771-3.238L25.746 3c-1.696 1.696-2.467 3.238-2.467 4.626a4.627 4.627 0 0 0 1.696 2.93zm-7.245 0c.924.925 1.233 1.234-.772 3.238l2.159 2.16c1.696-1.697 2.466-3.239 2.466-4.627a4.626 4.626 0 0 0-1.696-2.93c-.925-.925-1.233-1.233.771-3.238L18.5 3c-1.696 1.696-2.467 3.238-2.467 4.626a4.626 4.626 0 0 0 1.696 2.93z" fill="#616161"/></svg>