<svg xmlns="http://www.w3.org/2000/svg" fill="#707070" viewBox="0 0 297 297"><path d="M297 13.3C297 5.951 291.376.5 284.027.5H13.812C6.463.5 0 5.952 0 13.3v253.839c0 7.349 6.463 13.361 13.812 13.361h172.773l-.125.748c-.643 3.857.444 7.723 2.973 10.708 2.528 2.984 6.241 4.544 10.152 4.544h84.442c7.349 0 12.973-5.635 12.973-12.984V13.3zm-26 13.2v142h-52.527c-44.262-19.775-78.454-51.782-101.654-95.149C106.927 54.862 101.183 37.5 98.012 26.5H271zm-200.513 0c2.994 12.509 9.447 34.096 22.34 58.449 8.117 15.332 19.587 33.102 35.452 50.551H27v-109h43.487zM27 161.5h109v92H27v-92zm135 92v-87.4c11.688 8.709 24.851 16.837 39.668 23.937L191.086 253.5H162zm53.292 17l12.477-75H271v75h-55.708z"/></svg>