<svg xmlns="http://www.w3.org/2000/svg" fill="#707070" viewBox="0 0 512 512"><path d="M136 162c11.046 0 20-8.954 20-20V20c0-11.046-8.954-20-20-20s-20 8.954-20 20v122c0 11.046 8.954 20 20 20z"/><path d="M211 0c-11.046 0-20 8.954-20 20v125c0 30.327-24.673 55-55 55s-55-24.673-55-55V20C81 8.954 72.046 0 61 0S41 8.954 41 20v125c0 45.523 32.189 83.665 75 92.875V492c0 11.046 8.954 20 20 20s20-8.954 20-20V237.875c42.811-9.21 75-47.352 75-92.875V20c0-11.046-8.954-20-20-20zm235.567 53.348C427.694 18.945 402.633 0 376 0s-51.694 18.945-70.567 53.348C290.134 81.233 281 115.496 281 145c0 45.523 32.189 83.665 75 92.875V492c0 11.046 8.954 20 20 20s20-8.954 20-20V237.875c42.811-9.21 75-47.352 75-92.875 0-29.504-9.134-63.767-24.433-91.652zM376 200c-30.327 0-55-24.673-55-55 0-22.74 7.473-50.487 19.501-72.413C351.529 52.486 365.131 40 376 40c10.869 0 24.471 12.486 35.499 32.587C423.527 94.513 431 122.26 431 145c0 30.327-24.673 55-55 55z"/></svg>