<svg xmlns="http://www.w3.org/2000/svg" fill="#616161" viewBox="0 0 512 512"><path d="M284.186 0h-56.377c-9.532 0-17.258 7.726-17.258 17.258v215.155h34.517V34.517h21.861v197.897h34.517V17.258C301.444 7.726 293.718 0 284.186 0z"/><path d="M415.908 490.249l-44.872-166.44c-1.271-62.349-52.391-112.68-115.039-112.68S142.235 261.46 140.97 323.809l-44.878 166.44a17.248 17.248 0 0 0 2.963 14.986A17.245 17.245 0 0 0 112.752 512h286.49a17.28 17.28 0 0 0 13.703-6.765 17.248 17.248 0 0 0 2.963-14.986zM135.28 477.483l39.579-146.806c.397-1.467.598-2.974.598-4.493 0-44.412 36.128-80.539 80.539-80.539s80.539 36.128 80.539 80.539c0 1.519.207 3.032.598 4.493l39.579 146.806H135.28z"/><path d="M255.997 382.562c-9.532 0-17.258 7.726-17.258 17.258v94.921c0 9.532 7.726 17.258 17.258 17.258s17.258-7.726 17.258-17.258V399.82c.001-9.532-7.725-17.258-17.258-17.258zm86.143 109.913l-12.656-95.497c-1.248-9.446-9.975-16.171-19.375-14.837-9.446 1.254-16.091 9.924-14.836 19.375l12.656 95.497c1.145 8.675 8.566 14.986 17.086 14.986.754 0 1.519-.046 2.29-.15 9.444-1.253 16.089-9.922 14.835-19.374zM201.886 382.142c-9.446-1.306-18.121 5.385-19.375 14.837l-12.656 95.497c-1.254 9.446 5.39 18.121 14.842 19.375.771.104 1.536.15 2.29.15 8.52 0 15.935-6.311 17.086-14.986l12.656-95.497c1.254-9.447-5.391-18.122-14.843-19.376zm-43.687-77.243h195.595v34.517H158.199z"/></svg>