<svg xmlns="http://www.w3.org/2000/svg" fill="#707070" viewBox="0 0 512.234 512.234"><path d="M448.252 192.078H327.778L212.543 19.195A42.666 42.666 0 0 0 177.04.193h-18.97c-4.496 0-8.963.711-13.237 2.105-22.401 7.311-34.635 31.397-27.324 53.799l44.378 135.981H98.159L85.26 170.299a42.667 42.667 0 0 0-36.711-20.924h-7.297c-22.511 0-40.78 18.212-40.849 40.723L0 321.718c0 22.638 18.352 40.991 40.991 40.991h7.564a42.668 42.668 0 0 0 36.703-20.91l12.897-21.756h40.747v-.271h70.141l15.063-42.396H73.846l-25.292 42.667h-5.883l.393-128h5.484l25.292 42.703h146.851L158.07 42.859h18.97l127.901 191.885h143.311c11.772 0 21.315 9.543 21.315 21.315 0 11.772-9.543 21.315-21.315 21.315H304.528l-123.634 192h-25.008l37.995-106.938h-45.28l-32.92 92.653a42.655 42.655 0 0 0-2.462 14.285c0 23.564 19.103 42.667 42.667 42.667h25.008a42.668 42.668 0 0 0 35.873-19.567l111.034-172.433h120.451c35.336 0 63.982-28.646 63.982-63.982 0-35.335-28.646-63.981-63.982-63.981z"/></svg>