<svg viewBox="-120 0 512 512" xmlns="http://www.w3.org/2000/svg"><path d="M257.844 148.871h-52.977V15.09c0-8.336-6.754-15.09-15.09-15.09H83.152C74.82 0 68.066 6.754 68.066 15.09v133.78H15.09C6.754 148.87 0 155.628 0 163.96v332.95C0 505.245 6.754 512 15.09 512h45.6c8.332 0 15.086-6.754 15.086-15.09v-22.8h121.38v22.8c0 8.336 6.753 15.09 15.085 15.09h45.602c8.332 0 15.09-6.754 15.09-15.09V163.96c0-8.331-6.758-15.089-15.09-15.089zM30.176 443.934v-62.032h212.582v62.032zm0-172.676h212.582v80.469H30.176zM98.242 30.176h76.45v17.437h-76.45zm0 47.613h76.45v71.082h-76.45zm144.516 101.262v62.027H30.176v-62.027zM45.602 481.824H30.176v-7.715h15.426zm197.156 0h-15.426v-7.715h15.426zm0 0"/><path d="M219.453 296.402H53.48c-8.332 0-15.09 6.758-15.09 15.09s6.758 15.09 15.09 15.09h165.973c8.332 0 15.09-6.758 15.09-15.09s-6.758-15.09-15.09-15.09zm0 0"/></svg>