<svg xmlns="http://www.w3.org/2000/svg" fill="#616161" viewBox="0 0 512 512"><path d="M384 0H128c-11.782 0-21.333 9.551-21.333 21.333v469.333c0 11.782 9.551 21.333 21.333 21.333h256c11.782 0 21.333-9.551 21.333-21.333V21.333C405.333 9.551 395.782 0 384 0zm-21.333 469.333H149.333V42.667h213.333v426.666z"/><path d="M192 234.667h128c15.859 0 26.173-16.689 19.081-30.874l-64-128c-7.862-15.724-30.3-15.724-38.162 0l-64 128c-7.092 14.184 3.222 30.874 19.081 30.874zm64-101.631L285.482 192h-58.964L256 133.036zm-19.081 303.171c7.862 15.724 30.3 15.724 38.162 0l64-128c7.092-14.185-3.222-30.874-19.081-30.874H192c-15.859 0-26.173 16.689-19.081 30.874l64 128zM285.482 320L256 378.964 226.518 320h58.964z"/></svg>