<svg xmlns="http://www.w3.org/2000/svg" viewBox="0 0 512 512"><path d="M470.026 213.026a44.69 44.69 0 0 0 2.557-14.917c0-11.479-4.329-21.968-11.44-29.917 7.111-7.949 11.44-18.437 11.44-29.917 0-11.569-4.398-22.129-11.608-30.1 7.212-8.054 11.608-18.68 11.608-30.317 0-25.089-20.411-45.5-45.5-45.5H84.917c-25.089 0-45.5 20.411-45.5 45.5 0 16.103 8.416 30.267 21.072 38.356-13.03 13.473-21.072 31.798-21.072 51.977 0 16.803 5.569 32.329 14.955 44.833H0v94.254h27.807l65.917 172.364h324.553l65.917-172.364H512v-94.252h-41.974zM84.917 62.36h342.166c8.547 0 15.5 6.953 15.5 15.5s-6.953 15.5-15.5 15.5H84.917c-8.547 0-15.5-6.953-15.5-15.5s6.953-15.5 15.5-15.5zm29.333 61h313.417c8.225 0 14.916 6.691 14.916 14.916s-6.691 14.917-14.916 14.917H129.653v30h298.014c8.225 0 14.916 6.692 14.916 14.917s-6.691 14.917-14.916 14.917H114.25c-24.721-.001-44.833-20.113-44.833-44.834s20.112-44.833 44.833-44.833zm283.38 326.284H114.37L59.926 307.281h392.148L397.63 449.644zM482 277.28H30v-34.254h452v34.254z"/><path d="M241 343.792h30v73.5h-30zm125.617-.005h-30.715l-16.134 73.5h30.715zm-174.385 73.5l-16.134-73.5h-30.715l16.134 73.5z"/></svg>