<svg xmlns="http://www.w3.org/2000/svg" viewBox="0 0 492 492" width="24" height="24"><path d="M461 124l-22-13-60 32v-43l-16-9-15 9v67l-41 21v-46l-41 23v-43l62-31V70l-22-12-40 21V14L246 0l-20 14v65l-35-21-17 11v23l52 30v43l-41-22v45l-38-22 1-63-20-12-15 12v41l-58-32-24 11v26l57 31-37 21v23l21 10 53-31 37 21-37 23 38 22h1l-37 22-54-32-22 12v24l38 18-58 33v26l25 10 57-32v41l14 11 17-12v-62l41-21v45l41-25v43l-52 30v23l17 11 35-21v65l20 14 20-14v-65l35 21 17-9v-25l-52-30v-43l41 23v-42l41 22v62l16 11 15-11v-41l56 31 26-11v-25l-54-33 34-19v-22l-19-12-55 30-39-20 38-22-36-23 37-24 55 32 19-10v-23l-36-20 56-32v-24zM266 277h-36l-19-30 18-32h36l17 32-16 30z" fill="#FFF"/></svg>