<svg xmlns="http://www.w3.org/2000/svg" fill="#707070" viewBox="0 0 512 512"><path d="M490.667 149.333V64c0-11.782-9.551-21.333-21.333-21.333H42.667c-11.782 0-21.333 9.551-21.333 21.333v85.333C9.551 149.333 0 158.885 0 170.667V384c0 11.782 9.551 21.333 21.333 21.333h64V448c0 11.782 9.551 21.333 21.333 21.333 11.782 0 21.333-9.551 21.333-21.333v-42.667h256V448c0 11.782 9.551 21.333 21.333 21.333 11.782 0 21.333-9.551 21.333-21.333v-42.667h64c11.782 0 21.333-9.551 21.333-21.333V170.667c.002-11.782-9.549-21.334-21.331-21.334zm-42.667 0h-21.333c-11.782 0-21.333 9.551-21.333 21.333v42.667h-42.667v-128H448v64zM106.667 298.667V256h128v42.667h-128zM192 213.333v-128h128v128H192zM277.333 256h128v42.667h-128V256zM64 85.333h85.333v128h-42.667v-42.667c0-11.782-9.551-21.333-21.333-21.333H64v-64zm405.333 277.334H42.667V192H64v128c0 11.782 9.551 21.333 21.333 21.333h341.333c11.782 0 21.333-9.551 21.333-21.333V192h21.333v170.667z"/></svg>