<svg xmlns="http://www.w3.org/2000/svg" viewBox="0 0 512.037 512.037"><path d="M209.471 4.285c-138.667 25.6-230.4 160-204.8 298.667s160 230.4 298.667 204.8c21.333-4.267 40.533-10.667 59.733-19.2l-17.067-38.4c-21.333 10.667-44.8 14.933-68.267 17.067v-61.867H235.07v61.867c-23.467-2.133-44.8-8.533-66.133-17.067l21.333-36.267-36.267-21.333-21.333 36.267c-19.2-12.8-34.133-29.867-49.067-49.067l36.267-21.333-21.333-36.267-36.267 21.333c-8.533-21.333-14.933-42.667-17.067-66.133h61.867v-42.667H45.204c2.133-23.467 8.533-44.8 17.067-66.133l36.267 21.333 21.333-36.267-36.267-21.333c12.8-19.2 29.867-34.133 49.067-49.067l21.333 36.267 36.267-21.333-21.333-36.267c21.333-8.533 42.667-14.933 66.133-17.067v61.867h42.667V44.819c93.867 8.533 170.667 81.067 187.733 172.8l42.667-8.533c-25.6-138.667-160-230.401-298.667-204.801z"/><path d="M322.538 136.552l-74.667 93.867-68.267-36.267-19.2 38.4 85.333 42.667c8.533 4.267 19.2 2.133 25.6-6.4l85.333-106.667-34.132-25.6zm183.466 253.867s-14.933-19.2-14.933-70.4c0-38.4-25.6-72.533-64-83.2v-23.467h-42.667v23.467c-38.4 10.667-64 42.667-64 83.2 2.133 23.467-2.133 49.067-14.933 70.4-12.8 12.8-4.267 36.267 14.933 36.267h64v21.333h42.667v-21.333h64c17.067-.001 27.733-23.467 14.933-36.267zm-151.466-6.4c6.4-21.333 8.533-42.667 8.533-64 0-23.467 19.2-42.667 42.667-42.667s42.667 19.2 42.667 42.667c0 21.333 2.133 42.667 8.533 64h-102.4z"/></svg>