<svg xmlns="http://www.w3.org/2000/svg" viewBox="0 0 512.633 512.633"><path d="M85.333 160H128v42.667H85.333zM192 160h42.667v42.667H192zm106.667 0h42.667v42.667h-42.667zM85.333 245.333H128V288H85.333zm106.667 0h42.667V288H192zM85.333 330.667H128v42.667H85.333z"/><path d="M494.933 309.333c-14.933-25.6-38.4-46.933-68.267-55.467v-179.2c0-12.8-8.533-21.333-21.333-21.333h-64V10.667h-42.667v42.667h-64V10.667H192v42.667h-64V10.667H85.333v42.667h-64C8.533 53.333 0 61.867 0 74.667V416c0 12.8 8.533 21.333 21.333 21.333h251.733c36.267 61.867 113.067 83.2 174.933 46.933C509.867 448 531.2 371.2 494.933 309.333zm-238.933 64c0 6.4 0 14.933 2.133 21.333H42.667V96h42.667v21.333H128V96h64v21.333h42.667V96h64v21.333h42.667V96H384v149.333c-70.4 0-128 57.6-128 128zm128 85.334c-46.933 0-85.333-38.4-85.333-85.333S337.067 288 384 288s85.333 38.4 85.333 85.333-38.4 85.334-85.333 85.334z"/><path d="M411.733 315.733l-32 32-29.866-14.933-19.2 38.4 42.667 21.333c8.533 4.267 17.067 2.133 25.6-4.267L441.6 345.6l-29.867-29.867z"/></svg>