<svg xmlns="http://www.w3.org/2000/svg" viewBox="0 0 512.004 512.004"><circle cx="420.269" cy="128" r="21.333"/><circle cx="78.936" cy="106.667" r="21.333"/><circle cx="164.269" cy="21.333" r="21.333"/><circle cx="313.602" cy="42.667" r="21.333"/><path d="M420.269 373.333l19.2-115.2h23.467v-44.8h-44.8c-9.781-37.885-44.074-64.264-83.2-64 1.402-47.107-35.65-86.432-82.757-87.834-40.821-1.215-76.781 26.664-85.776 66.5-47.114-1.178-86.262 36.06-87.44 83.173-.018.72-.027 1.44-.027 2.16H36.269V256h25.6l38.4 238.933c2.058 10.093 11.034 17.274 21.333 17.067h256c10.299.208 19.275-6.973 21.333-17.067l12.8-76.8 40.533 25.6 23.467-34.133-55.466-36.267zm-256-202.666h14.933c11.235 3.547 23.219-2.685 26.766-13.92a21.348 21.348 0 0 0 .967-7.413c0-23.564 19.103-42.667 42.667-42.667s42.667 19.102 42.667 42.667a42.672 42.672 0 0 1-4.267 19.2c-4.378 10.938.94 23.355 11.878 27.733a21.332 21.332 0 0 0 15.855 0c20.107-9.697 44.289-2.256 55.467 17.067h-249.6c0-23.565 19.103-42.667 42.667-42.667zM270.936 256v21.333c0 11.782-9.551 21.333-21.333 21.333-11.782 0-21.333-9.551-21.333-21.333V256h42.666zm89.6 213.333H138.669L104.536 256h81.067v21.333c0 35.346 28.654 64 64 64a63.991 63.991 0 0 0 32-8.533l89.6 59.733-10.667 76.8zm19.2-123.733l-70.4-46.933a64.024 64.024 0 0 0 4.267-21.333V256h81.067l-14.934 89.6z"/></svg>