<svg xmlns="http://www.w3.org/2000/svg" viewBox="0 0 512 512"><path d="M477.867 76.8c-15.83 0-29.232 10.921-33.046 25.6h-18.154V85.333c0-19.627-14.507-34.133-34.133-34.133H119.467c-18.773 0-34.133 12.8-34.133 29.013V102.4H67.179c-3.814-14.679-17.216-25.6-33.046-25.6C15.36 76.8 0 92.16 0 110.933c0 18.773 15.36 34.133 34.133 34.133 15.829 0 29.232-10.921 33.046-25.6h18.154V435.2c0 14.507 11.093 25.6 25.6 25.6h238.933c14.507 0 25.6-11.093 25.6-25.6v-8.533h25.6c14.507 0 25.6-11.093 25.6-25.6v-281.6h18.154c3.814 14.679 17.216 25.6 33.046 25.6 18.773 0 34.133-15.36 34.133-34.133C512 92.16 496.64 76.8 477.867 76.8zM34.133 128c-9.387 0-17.067-7.68-17.067-17.067s7.68-17.067 17.067-17.067 17.067 7.68 17.067 17.067S43.52 128 34.133 128zM409.6 85.333V102.4h-34.133V85.333c0-6.827 7.68-17.067 17.067-17.067 10.239.001 17.066 6.827 17.066 17.067zm-307.2-5.12c0-6.827 7.68-11.947 17.067-11.947H363.52c-3.1 4.651-4.777 10.006-5.061 15.425-.036.55-.059 1.098-.059 1.641v290.133h-256V80.213zm256 354.987c0 5.12-3.413 8.533-8.533 8.533H110.933c-5.12 0-8.533-3.413-8.533-8.533v-42.667h256V435.2zm51.2-34.133c0 5.12-3.413 8.533-8.533 8.533h-25.6V119.467H409.6v281.6zM477.867 128c-9.387 0-17.067-7.68-17.067-17.067s7.68-17.067 17.067-17.067 17.067 7.68 17.067 17.067c-.001 9.387-7.681 17.067-17.067 17.067z"/></svg>