<svg xmlns="http://www.w3.org/2000/svg" viewBox="0 0 512 512"><path d="M465.52 372.24C475.72 361.48 482 346.97 482 331c0-27.91-19.15-51.42-45-58.1V226c0-24.81-20.19-45-45-45h-50.15c-7.39-20.84-22.24-38.17-41.33-48.76C310.72 121.48 317 106.97 317 91c0-33.08-26.92-60-60-60-33.216 0-61 26.855-61 60 0 15.47 6.03 30.08 17 41.33-18.903 10.458-34.184 27.567-41.78 48.67H120c-24.81 0-45 20.19-45 45v46.9c-25.85 6.68-45 30.19-45 58.1 0 15.97 6.28 30.48 16.48 41.24C18.79 387.61 0 417.15 0 451v15c0 8.28 6.72 15 15 15h150c8.28 0 15-6.72 15-15v-15h152v15c0 8.28 6.72 15 15 15h150c8.28 0 15-6.72 15-15v-15c0-33.85-18.79-63.39-46.48-78.76zM452 331c0 16.54-13.46 30-30 30s-30-13.46-30-30 13.46-30 30-30 30 13.46 30 30zM257 61c16.54 0 30 13.46 30 30s-13.46 30-30 30c-16.8 0-31-13.74-31-30s14.2-30 31-30zm0 90c33.08 0 60 26.92 60 60H196c0-33.08 27.36-60 61-60zM90 301c16.54 0 30 13.46 30 30s-13.46 30-30 30-30-13.46-30-30 13.46-30 30-30zM30 451c0-33.08 26.92-60 60-60s60 26.92 60 60H30zm307.15-30h-162.3c-7.39-20.84-22.24-38.17-41.33-48.76C143.72 361.48 150 346.97 150 331c0-27.91-19.15-51.42-45-58.1V226c0-8.27 6.73-15 15-15h46v15c0 8.28 6.72 15 15 15h151c8.28 0 15-6.72 15-15v-15h45c8.27 0 15 6.73 15 15v46.9c-25.85 6.68-45 30.19-45 58.1 0 15.97 6.28 30.48 16.48 41.24-19.09 10.59-33.94 27.92-41.33 48.76zM362 451c0-33.08 26.92-60 60-60s60 26.92 60 60H362z"/></svg>