<svg xmlns="http://www.w3.org/2000/svg" viewBox="0 0 512 512"><path d="M490.667 149.333h-21.333V128c0-11.782-9.551-21.333-21.333-21.333-11.782 0-21.333 9.551-21.333 21.333v21.333h-21.333V128c0-35.355-28.645-64-64-64H170.667c-35.355 0-64 28.645-64 64v21.333H85.333V128c0-11.782-9.551-21.333-21.333-21.333-11.782 0-21.333 9.551-21.333 21.333v21.333H21.333C9.551 149.333 0 158.885 0 170.667S9.551 192 21.333 192h21.333v21.333c0 11.782 9.551 21.333 21.333 21.333 11.782 0 21.333-9.551 21.333-21.333V192h21.333v213.333c0 23.558 19.109 42.667 42.667 42.667h128C300.891 448 320 428.891 320 405.333V320h64c11.782 0 21.333-9.551 21.333-21.333V192h21.333v21.333c0 11.782 9.551 21.333 21.333 21.333 11.782 0 21.333-9.551 21.333-21.333V192h21.333c11.782 0 21.333-9.551 21.333-21.333.002-11.782-9.549-21.334-21.331-21.334zm-128-21.333v21.333H320V128c0-11.791 9.542-21.333 21.333-21.333 11.792 0 21.334 9.542 21.334 21.333zm-213.334 0c0-11.791 9.542-21.333 21.333-21.333h110.306c-.202.571-.384 1.151-.57 1.729-.072.225-.152.447-.222.673a63.481 63.481 0 0 0-.802 2.826c-.06.232-.11.469-.168.702a62.821 62.821 0 0 0-.503 2.182c-.073.347-.136.697-.203 1.046a62.982 62.982 0 0 0-.34 1.902 61.98 61.98 0 0 0-.412 3.033c-.042.376-.086.752-.121 1.13a63.727 63.727 0 0 0-.157 2.063c-.02.327-.047.651-.063.979a65.024 65.024 0 0 0-.078 3.068v192h-128V128zm128 277.333h-128v-42.667h128v42.667zm85.334-128H320V192h42.667v85.333z"/></svg>