<svg xmlns="http://www.w3.org/2000/svg" fill="#0097A7" viewBox="0 0 512 512"><path d="M434.625 388.052C449.086 372.956 458 352.506 458 330c0-39.836-27.883-73.26-65.151-81.841-6.053-46.688-35.532-86.123-76.223-106.107C331.086 126.956 340 106.506 340 84c0-46.318-37.682-84-84-84s-84 37.682-84 84c0 22.506 8.914 42.956 23.375 58.052-40.691 19.984-70.17 59.419-76.223 106.107C81.883 256.74 54 290.164 54 330c0 22.506 8.914 42.956 23.375 58.052C31.592 410.536 0 457.645 0 512h40c0-54.037 43.962-98 98-98s98 43.963 98 98h40c0-54.037 43.962-98 98-98s98 43.963 98 98h40c0-54.355-31.592-101.464-77.375-123.948zM256 40c24.262 0 44 19.738 44 44s-19.738 44-44 44-44-19.738-44-44 19.738-44 44-44zM138 374c-24.262 0-44-19.738-44-44s19.738-44 44-44 44 19.738 44 44-19.738 44-44 44zm175.375 14.052c-23.755 11.666-43.693 29.957-57.375 52.456-13.682-22.499-33.62-40.79-57.375-52.456C213.086 372.956 222 352.506 222 330c0-38.883-26.561-71.669-62.488-81.196C167.664 202.937 207.828 168 256 168s88.336 34.937 96.488 80.804C316.561 258.331 290 291.117 290 330c0 22.506 8.914 42.956 23.375 58.052zM374 374c-24.262 0-44-19.738-44-44s19.738-44 44-44 44 19.738 44 44-19.738 44-44 44z"/></svg>