<svg xmlns="http://www.w3.org/2000/svg" fill="#616161" viewBox="0 0 512 512"><path d="M490.667 405.333h-21.333V42.667h21.333c11.782 0 21.333-9.551 21.333-21.333C512 9.551 502.449 0 490.667 0H21.333C9.551 0 0 9.551 0 21.333c0 11.782 9.551 21.333 21.333 21.333h21.333v362.667H21.333C9.551 405.333 0 414.885 0 426.667v64C0 502.449 9.551 512 21.333 512h469.333c11.782 0 21.333-9.551 21.333-21.333v-64c.001-11.782-9.55-21.334-21.332-21.334zm-64-234.666H277.333v-128h149.333v128zm-192-128v128H85.333v-128h149.334zM85.333 213.333h341.333v192h-67.654A63.906 63.906 0 0 0 362.666 384v-42.667c0-9.151-5.773-16.934-13.867-19.963l28.952-28.952c8.331-8.331 8.331-21.839 0-30.17-8.331-8.331-21.839-8.331-30.17 0L320 289.83V256c0-11.782-9.551-21.333-21.333-21.333-11.782 0-21.333 9.551-21.333 21.333v33.83l-27.582-27.582c-8.331-8.331-21.839-8.331-30.17 0-8.331 8.331-8.331 21.839 0 30.17l28.952 28.952c-8.094 3.03-13.867 10.812-13.867 19.963V384c0 7.483 1.296 14.66 3.654 21.333H85.333v-192zm192 170.667v-21.333H320V384c0 11.791-9.542 21.333-21.333 21.333s-21.334-9.542-21.334-21.333zm192 85.333H42.667V448h426.666v21.333z"/></svg>