<svg xmlns="http://www.w3.org/2000/svg" fill="#616161" viewBox="0 0 365.436 365.436"><path d="M115.725 172.928c38.914 0 70.573-31.659 70.573-70.573 0-38.914-31.659-70.572-70.573-70.572-38.914 0-70.572 31.659-70.572 70.572 0 38.914 31.659 70.573 70.572 70.573zm0-111.145c22.372 0 40.573 18.201 40.573 40.572 0 22.372-18.201 40.573-40.573 40.573s-40.572-18.201-40.572-40.573 18.201-40.572 40.572-40.572zm154.711 112.659c32.609 0 59.138-26.529 59.138-59.138s-26.529-59.138-59.138-59.138-59.138 26.529-59.138 59.138 26.529 59.138 59.138 59.138zm0-88.276c16.067 0 29.138 13.071 29.138 29.138 0 16.066-13.071 29.138-29.138 29.138-16.066 0-29.138-13.071-29.138-29.138s13.071-29.138 29.138-29.138zm95 208.276c0-52.383-42.617-95-95-95-29.218 0-56.582 13.639-74.388 35.984-20.828-20.108-49.154-32.498-80.322-32.498C51.914 202.928 0 254.842 0 318.653v15h231.45v-15c0-3.1-.126-6.171-.367-9.211h134.352v-15zm-334.123 9.211c7.113-40.143 42.258-70.725 84.412-70.725s77.298 30.582 84.412 70.725H31.313zm193.294-24.211a115.304 115.304 0 0 0-9.215-19.537c11.795-18.724 32.623-30.463 55.044-30.463 30.681 0 56.464 21.365 63.253 50H224.607z"/></svg>