<svg xmlns="http://www.w3.org/2000/svg" fill="#616161" viewBox="0 0 512 512"><path d="M252.056 200c31.43 0 57 25.57 57 57h40c0-35.662-19.347-66.885-48.093-83.738A59.647 59.647 0 0 0 311.056 140c0-33.084-26.916-60-60-60s-60 26.916-60 60c0 12.662 3.953 24.412 10.674 34.104-27.963 17.039-46.674 47.823-46.674 82.896h40c0-31.43 25.57-57 57-57zm-1-80c11.028 0 20 8.972 20 20s-8.972 20-20 20-20-8.972-20-20 8.97-20 20-20zm-118 177h246v40h-246z"/><path d="M398.944 0H113.056c-33.084 0-60 26.916-60 60v392c0 33.084 26.916 60 60 60h285.889c33.084 0 60-26.916 60-60V60c-.001-33.084-26.917-60-60.001-60zm20.001 452c-.001 11.028-8.973 20-20.001 20H113.056c-11.028 0-20-8.972-20-20V60c0-11.028 8.972-20 20-20h285.889c11.028 0 20 8.972 20 20v392z"/><path d="M133.056 377h206v40h-206z"/></svg>