<svg xmlns="http://www.w3.org/2000/svg" fill="#707070" viewBox="0 0 330 330"><path d="M315 145h-15V70c0-35.841-29.159-65-65-65-30.678 0-56.441 21.369-63.233 50H155c-8.284 0-15 6.716-15 15s6.716 15 15 15h60c8.284 0 15-6.716 15-15s-6.716-15-15-15h-11.616c5.628-11.813 17.683-20 31.616-20 19.299 0 35 15.701 35 35v75H15c-8.284 0-15 6.716-15 15s6.716 15 15 15h15v45c0 30.678 21.369 56.441 50 63.233V310c0 8.284 6.716 15 15 15s15-6.716 15-15v-25h110v25c0 8.284 6.716 15 15 15s15-6.716 15-15v-26.767c28.631-6.792 50-32.556 50-63.233v-45h15c8.284 0 15-6.716 15-15s-6.716-15-15-15zm-80 110H95c-19.299 0-35-15.701-35-35v-45h210v45c0 19.299-15.701 35-35 35z"/></svg>