<svg xmlns="http://www.w3.org/2000/svg" fill="#707070" viewBox="0 0 512 512"><path d="M499.2 460.8c-6.588 0-9.438-2.577-15.275-8.414-6.716-6.716-15.898-15.915-33.365-15.915-17.468 0-26.667 9.199-33.374 15.915-5.837 5.837-8.687 8.414-15.258 8.414-6.588 0-9.438-2.577-15.275-8.414-6.716-6.716-15.915-15.915-33.374-15.915s-26.65 9.199-33.365 15.915c-5.837 5.837-8.687 8.414-15.275 8.414s-9.438-2.577-15.266-8.414c-6.716-6.716-15.898-15.915-33.365-15.915-17.468 0-26.667 9.199-33.374 15.915-5.837 5.837-8.687 8.414-15.258 8.414s-9.438-2.577-15.275-8.414c-6.724-6.716-15.923-15.915-33.374-15.915-17.459 0-26.667 9.199-33.374 15.915-5.845 5.837-8.695 8.414-15.283 8.414-6.579 0-9.421-2.577-15.266-8.414-6.716-6.716-15.915-15.915-33.374-15.915-17.459 0-26.65 9.199-33.365 15.915-5.828 5.837-8.678 8.414-15.266 8.414-7.074 0-12.8 5.726-12.8 12.8 0 7.074 5.726 12.8 12.8 12.8 17.459 0 26.667-9.199 33.374-15.915 5.837-5.837 8.687-8.414 15.266-8.414 6.588 0 9.438 2.577 15.275 8.414 6.707 6.716 15.898 15.915 33.357 15.915s26.667-9.199 33.374-15.915c5.837-5.837 8.687-8.414 15.275-8.414 6.579 0 9.438 2.577 15.275 8.414 6.733 6.716 15.915 15.915 33.382 15.915 17.451 0 26.65-9.199 33.365-15.915 5.837-5.837 8.704-8.414 15.275-8.414s9.421 2.577 15.249 8.414c6.707 6.716 15.898 15.915 33.374 15.915 17.459 0 26.667-9.199 33.374-15.915 5.837-5.837 8.687-8.414 15.266-8.414 6.588 0 9.438 2.577 15.275 8.414 6.707 6.716 15.906 15.915 33.374 15.915 17.468 0 26.65-9.199 33.365-15.915 5.837-5.837 8.687-8.414 15.275-8.414 6.579 0 9.421 2.577 15.266 8.414 6.699 6.716 15.906 15.915 33.365 15.915 7.074 0 12.8-5.726 12.8-12.8 0-7.074-5.726-12.8-12.8-12.8zm0-52.471c-6.588 0-9.438-2.577-15.275-8.414C477.21 393.199 468.028 384 450.56 384c-17.468 0-26.667 9.199-33.374 15.915-5.837 5.837-8.687 8.414-15.266 8.414-6.588 0-9.438-2.577-15.275-8.414-.794-.794-1.775-1.672-2.654-2.526V102.4c0-28.237 22.963-51.2 51.2-51.2s51.2 22.963 51.2 51.2c0 7.074 5.726 12.8 12.8 12.8S512 109.474 512 102.4c0-42.351-34.449-76.8-76.8-76.8s-76.8 34.449-76.8 76.8v76.8H179.2v-76.8c0-28.237 22.963-51.2 51.2-51.2s51.2 22.963 51.2 51.2c0 7.074 5.726 12.8 12.8 12.8 7.074 0 12.8-5.726 12.8-12.8 0-42.351-34.449-76.8-76.8-76.8s-76.8 34.449-76.8 76.8v282.283c-13.986 1.673-22.281 9.259-28.254 15.232-5.837 5.837-8.687 8.414-15.275 8.414-6.579 0-9.421-2.577-15.266-8.414C88.098 393.199 78.899 384 61.44 384s-26.65 9.199-33.365 15.915c-5.837 5.837-8.687 8.414-15.275 8.414-7.074 0-12.8 5.726-12.8 12.8 0 7.074 5.726 12.8 12.8 12.8 17.459 0 26.667-9.199 33.374-15.915 5.837-5.837 8.687-8.414 15.266-8.414 6.588 0 9.438 2.577 15.275 8.414 6.716 6.716 15.898 15.915 33.365 15.915 17.468 0 26.667-9.199 33.374-15.915 5.837-5.837 8.687-8.414 15.275-8.414 6.579 0 9.438 2.577 15.275 8.414 6.724 6.716 15.915 15.915 33.374 15.915 17.451 0 26.65-9.199 33.365-15.915 5.837-5.837 8.704-8.414 15.275-8.414s9.421 2.577 15.249 8.414c6.716 6.716 15.898 15.915 33.374 15.915 17.459 0 26.667-9.199 33.374-15.915 5.837-5.837 8.687-8.414 15.258-8.414 6.588 0 9.438 2.577 15.275 8.414 6.716 6.716 15.915 15.915 33.374 15.915 17.459 0 26.65-9.199 33.365-15.915 5.837-5.837 8.687-8.414 15.275-8.414 6.579 0 9.421 2.577 15.266 8.414 6.716 6.716 15.915 15.915 33.374 15.915 7.074 0 12.8-5.726 12.8-12.8-.002-7.075-5.728-12.8-12.802-12.8zm-140.809-23.646c-1.724-.213-3.191-.683-5.12-.683-17.459 0-26.65 9.199-33.357 15.915-5.837 5.837-8.687 8.414-15.275 8.414s-9.438-2.577-15.266-8.414C282.667 393.199 273.476 384 256.009 384c-17.468 0-26.667 9.199-33.374 15.915-5.837 5.837-8.687 8.414-15.266 8.414-6.579 0-9.438-2.577-15.275-8.414-3.405-3.396-7.475-7.415-12.902-10.573V358.4h179.2v26.283zm.009-51.883H179.2v-51.2h179.2v51.2zm0-76.8H179.2v-51.2h179.2V256z"/></svg>