<svg xmlns="http://www.w3.org/2000/svg" viewBox="0 0 507.572 507.572"><path d="M192.002 264.432c11.782 0 21.333-9.551 21.333-21.333 0-40.199 15.978-64 33.515-64h45.717c20.283 0 29.12-25.639 13.144-38.136-4.339-3.395-10.094-19.208-10.094-30.301 0-11.177 7.532-16.896 24.384-16.896 11.782 0 21.333-9.551 21.333-21.333 0-11.782-9.551-21.333-21.333-21.333-38.256 0-67.051 21.863-67.051 59.563 0 8.243 1.316 17.15 3.749 25.771h-9.85c-45.529 0-76.181 45.662-76.181 106.667.001 11.78 9.552 21.331 21.334 21.331z"/><path d="M505.233 222.512l-22.656-44.373a21.263 21.263 0 0 0-12.501-10.624 21.339 21.339 0 0 0-16.341 1.387L229.433 285.766H36.843l-3.669.318C13.989 289.433 0 306.822 0 326.854v91.307c0 21.618 16.39 40.531 38.287 38.101h307.427C367.61 458.692 384 439.779 384 418.16v-91.307a42.49 42.49 0 0 0-3.023-15.756l115.104-59.978c10.389-5.396 14.485-18.175 9.152-28.607zm-163.9 191.083H42.667v-85.163h298.667v85.163z"/></svg>