<svg xmlns="http://www.w3.org/2000/svg" viewBox="0 0 512 512"><path d="M452 190c-7.011 0-13.74 1.22-20 3.44V80c0-33.084-26.916-60-60-60H140c-33.084 0-60 26.916-60 60v113.44A59.718 59.718 0 0 0 60 190H0v302h512V190h-60zM80 452H40V230h20c11.028 0 20 8.972 20 20v202zm312 0H120V328.866C144.213 323.596 203.461 312 256 312s111.787 11.596 136 16.866V452zm0-164.056C362.721 281.864 307.317 272 256 272c-51.317 0-106.721 9.864-136 15.944V80c0-11.028 8.972-20 20-20h232c11.028 0 20 8.972 20 20v207.944zM472 452h-40V250c0-11.028 8.972-20 20-20h20v222z"/></svg>