<svg xmlns="http://www.w3.org/2000/svg" fill="#707070" viewBox="0 0 412.333 412.333"><path d="M206.167 205.333c56.61 0 102.667-46.056 102.667-102.667S262.777 0 206.167 0 103.5 46.056 103.5 102.667s46.056 102.666 102.667 102.666zm0-165.333c34.554 0 62.667 28.112 62.667 62.667s-28.112 62.667-62.667 62.667-62.667-28.113-62.667-62.667S171.612 40 206.167 40zm0 183.333c-93.187 0-169 75.813-169 169v20h338v-20c0-93.187-75.813-169-169-169zm-127.453 149c9.637-61.671 63.12-109 127.452-109s117.815 47.329 127.452 109H78.714z"/></svg>