<svg width="32" height="32" xmlns="http://www.w3.org/2000/svg"><g fill="none" fill-rule="evenodd"><path d="M18.958 27.638h-7.17a.75.75 0 0 0-.737.745c0 .404.34.745.74.745h7.168c.4 0 .738-.34.738-.745a.751.751 0 0 0-.738-.745zm-7.168-1.383h7.168c.4 0 .738-.34.738-.744a.75.75 0 0 0-.738-.744h-7.17a.75.75 0 0 0-.737.745c0 .405.317.745.74.745zm5.797 4.213H13.16a.75.75 0 0 0-.738.745.75.75 0 0 0 .738.744h4.427c.4 0 .738-.34.738-.744a.75.75 0 0 0-.738-.745z" fill-rule="nonzero" fill="#333"/><path d="M24.23 6.596C23.51 3.83 21.403.51 15.372.51c-6.029 0-8.137 3.32-8.854 6.087-.696 2.68-.19 5.595 1.392 8.042 2.846 4.426 3.352 8.17 3.373 8.192.042.383.36.66.738.66h.085a.729.729 0 0 0 .633-.83c-.02-.17-.548-4.086-3.584-8.81-1.35-2.084-1.77-4.595-1.202-6.85.843-3.298 3.352-4.98 7.42-4.98 4.092 0 6.58 1.682 7.423 4.98.59 2.277.148 4.766-1.202 6.85-3.036 4.746-3.563 8.66-3.584 8.81-.043.404.23.787.632.83h.105a.768.768 0 0 0 .738-.64c0-.04.506-3.765 3.373-8.19 1.56-2.47 2.067-5.383 1.37-8.064z" fill="#F7E200" fill-rule="nonzero"/><path d="M20 10.602S19.363 6.992 18.37 7c-.994.01-1.926 3.625-2.87 3.602-.944-.022-.427-3.592-1.463-3.602C13 6.99 11 10.565 11 10.565" stroke="#FEE900"/></g></svg>