<svg xmlns="http://www.w3.org/2000/svg" viewBox="0 0 112.197 112.197"><circle cx="56.099" cy="56.098" r="56.098" fill="#fff"/><path d="M90.46 40.316a26.782 26.782 0 0 1-7.7 2.11 13.454 13.454 0 0 0 5.896-7.418 26.834 26.834 0 0 1-8.515 3.253 13.396 13.396 0 0 0-9.79-4.232c-7.403 0-13.408 6.005-13.408 13.41 0 1.05.12 2.073.35 3.055-11.145-.56-21.026-5.897-27.64-14.012a13.355 13.355 0 0 0-1.816 6.743c0 4.65 2.37 8.757 5.965 11.16a13.288 13.288 0 0 1-6.072-1.678v.17c0 6.497 4.623 11.916 10.756 13.147-1.124.308-2.31.47-3.532.47-.866 0-1.705-.082-2.523-.238 1.705 5.326 6.656 9.203 12.525 9.312a26.902 26.902 0 0 1-16.655 5.74c-1.08 0-2.15-.063-3.197-.188a37.924 37.924 0 0 0 20.553 6.025c24.664 0 38.152-20.432 38.152-38.153 0-.58-.013-1.16-.04-1.734a27.163 27.163 0 0 0 6.693-6.94z" fill="#666"/></svg>