<svg xmlns="http://www.w3.org/2000/svg" fill="#707070" viewBox="0 0 491.52 491.52"><path d="M471.04 40.96H20.48C9.169 40.96 0 50.129 0 61.44v368.64c0 11.311 9.169 20.48 20.48 20.48h450.56c11.311 0 20.48-9.169 20.48-20.48V61.44c0-11.311-9.169-20.48-20.48-20.48zm-20.48 40.96v40.96H40.96V81.92h409.6zm0 122.88H40.96v-40.96h409.6v40.96zM40.96 409.6V245.76h409.6V409.6H40.96z"/><path d="M184.32 307.2H102.4c-27.307 0-27.307 40.96 0 40.96h81.92c27.307 0 27.307-40.96 0-40.96zm102.4-20.48H409.6v81.92H286.72z"/></svg>