<svg xmlns="http://www.w3.org/2000/svg" fill="#707070" viewBox="0 0 330.021 330.021"><path d="M289.9 163.209c-.853-24.246-17.491-44.531-39.925-50.907V85.014C249.975 38.137 211.839 0 164.962 0S79.948 38.137 79.948 85.014v27.291c-23.032 6.547-39.955 27.757-39.955 52.86 0 25.103 16.923 46.314 39.956 52.86l.002 36.967c0 .024-.003.047-.003.07 0 .024.003.047.003.07l.004 59.734c0 .052-.008.102-.008.154 0 8.284 6.716 15 15 15h33.303c8.284 0 15-6.716 15-15 0-8.284-6.716-15-15-15h-18.296l-.002-29.959h4.978c8.284 0 15-6.716 15-15 0-8.284-6.716-15-15-15h-4.98l-.001-22.036c23.035-6.546 39.962-27.757 39.962-52.861 0-25.105-16.927-46.317-39.963-52.862V85.014C109.948 54.68 134.627 30 164.962 30c30.334 0 55.014 24.679 55.014 55.014v27.29c-23.034 6.546-39.959 27.757-39.959 52.861V315c0 8.284 6.716 15 15 15h80.012c8.284 0 15-6.716 15-15V165.165a15.026 15.026 0 0 0-.129-1.956zm-169.989 1.956c0 13.762-11.197 24.959-24.959 24.959s-24.959-11.197-24.959-24.959 11.197-24.959 24.959-24.959 24.959 11.197 24.959 24.959zM260.028 300h-50.012V165.165c0-13.762 11.197-24.959 24.959-24.959s24.959 11.197 24.959 24.959c0 .566.032 1.125.094 1.675V300z"/></svg>