<svg xmlns="http://www.w3.org/2000/svg" fill="#707070" viewBox="0 0 512 512"><path d="M490.667 149.333H448c-11.782 0-21.333 9.551-21.333 21.333 0 11.782 9.551 21.333 21.333 21.333v21.333H64V192c11.782 0 21.333-9.551 21.333-21.333 0-11.782-9.551-21.333-21.333-21.333H21.333C9.551 149.333 0 158.885 0 170.667 0 182.449 9.551 192 21.333 192v298.667c0 11.782 9.551 21.333 21.333 21.333h426.667c11.782 0 21.333-9.551 21.333-21.333V192c11.782 0 21.333-9.551 21.333-21.333.001-11.782-9.55-21.334-21.332-21.334zM320 405.333V256h42.667v149.333H320zm-85.333 0V256h42.667v149.333h-42.667zm-85.334 0V256H192v149.333h-42.667zm256-149.333H448v149.333h-42.667V256zm-298.666 0v149.333H64V256h42.667zM64 448h384v21.333H64V448z"/><path d="M155.582 143.085c8.331 8.331 21.839 8.331 30.17 0 8.331-8.331 8.331-21.839 0-30.17l-2.013-2.013 50.928-30.557V128c0 11.782 9.551 21.333 21.333 21.333s21.333-9.551 21.333-21.333V80.345l50.928 30.557-2.013 2.013c-8.331 8.331-8.331 21.839 0 30.17 8.331 8.331 21.839 8.331 30.17 0l42.667-42.667c8.331-8.331 8.331-21.839 0-30.17s-21.839-8.331-30.17 0l-9.555 9.555-82.026-49.216v-9.255C277.333 9.551 267.782 0 256 0s-21.333 9.551-21.333 21.333v9.255L152.64 79.804l-9.555-9.555c-8.331-8.331-21.839-8.331-30.17 0s-8.331 21.839 0 30.17l42.667 42.666z"/></svg>