<svg xmlns="http://www.w3.org/2000/svg" fill="#616161" viewBox="0 0 511.991 511.991"><path d="M490.658 214.846c-11.782 0-21.333 9.551-21.333 21.333v64h-67.654c-8.784-24.858-32.474-42.667-60.346-42.667-9.882 0-19.238 2.241-27.592 6.238l-14.316-14.316 38.687-38.687c8.331-8.33 8.331-21.837.002-30.168L247.61 90.062c-8.331-8.333-21.839-8.334-30.171-.003L36.404 271.073c-8.332 8.331-8.332 21.839-.001 30.171l.009.009-30.167 30.181c-8.328 8.332-8.326 21.837.004 30.166l60.331 60.331c8.331 8.331 21.839 8.331 30.17 0l30.171-30.171.001.001c8.331 8.331 21.839 8.331 30.17 0l112.157-112.157 14.316 14.316c-3.997 8.354-6.238 17.71-6.238 27.592 0 35.355 28.645 64 64 64 27.872 0 51.562-17.808 60.346-42.667h67.654v64c0 11.782 9.551 21.333 21.333 21.333s21.333-9.551 21.333-21.333V236.179c-.002-11.782-9.553-21.333-21.335-21.333zM96.745 361.595l-15.081 15.081L51.5 346.512l15.082-15.089 3.04 3.04 27.123 27.132zm45.26-15.089L99.82 304.321l-18.151-18.157-.007-.007L232.52 135.316l60.331 60.345-38.667 38.667-.022.02-.02.022-112.137 112.136zm199.32-3.66c-11.791 0-21.333-9.542-21.333-21.333a21.257 21.257 0 0 1 6.105-14.935c.05-.049.104-.09.154-.139.049-.049.09-.104.139-.154a21.257 21.257 0 0 1 14.935-6.105c11.791 0 21.333 9.542 21.333 21.333s-9.542 21.333-21.333 21.333z"/></svg>