<svg xmlns="http://www.w3.org/2000/svg" fill="#707070" viewBox="0 0 512 512"><path d="M490.667 170.667H448v-21.333c0-11.782-9.551-21.333-21.333-21.333s-21.333 9.551-21.333 21.333v21.333h-42.667V64c0-11.782-9.551-21.333-21.333-21.333H320V21.333C320 9.551 310.449 0 298.667 0c-11.782 0-21.333 9.551-21.333 21.333v21.333h-42.667V21.333C234.667 9.551 225.115 0 213.333 0S192 9.551 192 21.333v21.333h-21.333c-11.782 0-21.333 9.551-21.333 21.333v106.667h-42.667v-21.333c0-11.782-9.551-21.333-21.333-21.333C73.551 128 64 137.551 64 149.333v21.333H21.333C9.551 170.667 0 180.218 0 192v298.667C0 502.449 9.551 512 21.333 512h469.333c11.782 0 21.333-9.551 21.333-21.333V192c.001-11.782-9.55-21.333-21.332-21.333zm-448 42.666h106.667v256H42.667v-256zM192 192V85.333h128v384h-42.667v-42.667c0-11.782-9.551-21.333-21.333-21.333s-21.333 9.551-21.333 21.333v42.667H192V192zm277.333 277.333H362.667v-256h106.667v256z"/><path d="M256 192c11.776 0 21.333-9.557 21.333-21.333s-9.557-21.333-21.333-21.333-21.333 9.557-21.333 21.333S244.224 192 256 192zm0 85.333c11.776 0 21.333-9.557 21.333-21.333s-9.557-21.333-21.333-21.333-21.333 9.557-21.333 21.333 9.557 21.333 21.333 21.333zm0 85.334c11.776 0 21.333-9.557 21.333-21.333 0-11.776-9.557-21.333-21.333-21.333s-21.333 9.557-21.333 21.333c0 11.775 9.557 21.333 21.333 21.333zm149.333-128C393.557 234.667 384 244.224 384 256s9.557 21.333 21.333 21.333 21.333-9.557 21.333-21.333-9.557-21.333-21.333-21.333zm0 85.333C393.557 320 384 329.557 384 341.333c0 11.776 9.557 21.333 21.333 21.333s21.333-9.557 21.333-21.333c.001-11.776-9.557-21.333-21.333-21.333zm-298.666-85.333c-11.776 0-21.333 9.557-21.333 21.333s9.557 21.333 21.333 21.333S128 267.776 128 256s-9.557-21.333-21.333-21.333zm0 85.333c-11.776 0-21.333 9.557-21.333 21.333 0 11.776 9.557 21.333 21.333 21.333S128 353.109 128 341.333c0-11.776-9.557-21.333-21.333-21.333z"/></svg>