<svg xmlns="http://www.w3.org/2000/svg" viewBox="0 0 233.554 233.554" width="24" height="24"><path d="M42.32 146.242c9.466 0 17.164-10.334 17.164-23.038s-7.698-23.038-17.164-23.038c-9.468 0-17.166 10.334-17.166 23.038s7.698 23.038 17.166 23.038zm40.916 0c9.456 0 17.164-10.334 17.164-23.038s-7.707-23.038-17.164-23.038c-9.468 0-17.166 10.334-17.166 23.038s7.698 23.038 17.166 23.038zm32.043-11.491c-7.445-1.466-14.79 5.101-16.732 14.963-1.939 9.851 2.367 18.714 9.813 20.179 7.437 1.464 14.791-5.103 16.73-14.954 1.942-9.861-2.375-18.724-9.811-20.188zm-88.272 14.963c-1.942-9.862-9.286-16.429-16.732-14.963-7.436 1.464-11.753 10.326-9.811 20.189 1.939 9.851 9.293 16.418 16.73 14.954 7.446-1.466 11.752-10.329 9.813-20.18zm61.68 25.352c-2.02-12.482-12.867-22.045-25.91-22.045s-23.891 9.563-25.91 22.045c-9.284 4.05-15.791 13.313-15.791 24.071 0 14.475 11.776 26.251 26.251 26.251a26.107 26.107 0 0 0 15.451-5.047 26.103 26.103 0 0 0 15.451 5.047c14.475 0 26.251-11.776 26.251-26.251-.001-10.758-6.51-20.021-15.793-24.071zM150.32 54.242c9.466 0 17.164-10.334 17.164-23.038S159.786 8.166 150.32 8.166c-9.468 0-17.166 10.334-17.166 23.038s7.698 23.038 17.166 23.038zm40.916 0c9.456 0 17.164-10.334 17.164-23.038s-7.707-23.038-17.164-23.038c-9.468 0-17.166 10.334-17.166 23.038s7.698 23.038 17.166 23.038zm32.043-11.491c-7.445-1.466-14.79 5.101-16.732 14.963-1.939 9.851 2.367 18.714 9.813 20.179 7.437 1.464 14.791-5.103 16.73-14.954 1.942-9.861-2.375-18.724-9.811-20.188zm-98.085 35.143c7.445-1.466 11.752-10.329 9.813-20.179-1.942-9.862-9.286-16.429-16.732-14.963-7.436 1.464-11.753 10.326-9.811 20.189 1.94 9.85 9.294 16.417 16.73 14.953zm71.493 5.172c-2.02-12.482-12.867-22.045-25.91-22.045s-23.891 9.563-25.91 22.045c-9.284 4.05-15.791 13.313-15.791 24.071 0 14.475 11.776 26.251 26.251 26.251a26.107 26.107 0 0 0 15.451-5.047 26.103 26.103 0 0 0 15.451 5.047c14.475 0 26.251-11.776 26.251-26.251-.001-10.758-6.51-20.021-15.793-24.071z" fill="#707070"/></svg>