<svg xmlns="http://www.w3.org/2000/svg" viewBox="0 0 512 512"><circle cx="406" cy="45" r="15"/><circle cx="406" cy="105" r="15"/><circle cx="466" cy="135" r="15"/><circle cx="466" cy="75" r="15"/><circle cx="466" cy="15" r="15"/><path d="M346 30H136C78.103 30 31 77.103 31 135c0 8.284 6.716 15 15 15 24.813 0 45 20.187 45 45v25.539c-38.881 60.01-60 132.553-60 204.628V467c0 24.813 20.187 45 45 45h150c24.813 0 45-20.187 45-45.001l-.001-35.937c0-39.09-11.549-77.939-32.519-109.39a163.462 163.462 0 0 1-19.766-41.121l-.01-.031a163.359 163.359 0 0 1-7.703-49.598v-5.963C223.544 234.397 239.129 240 256 240h30a15 15 0 0 0 10.607-25.607c-15.757-15.757-24.738-36.473-25.529-58.627a44.924 44.924 0 0 0 29.429-35.767H346c8.284 0 15-6.716 15-15V45c0-8.284-6.716-15-15-15zM84.197 300H121v92H62.615c3.041-31.525 10.354-62.612 21.582-92zm13.128-30a332.907 332.907 0 0 1 16.821-30h67.065a193.522 193.522 0 0 0 3.777 30H97.325zm143.419 152c.168 3.025.354 6.049.354 9.063L241.1 467c0 8.271-6.829 15-15.1 15H76c-8.271 0-15-6.729-15-15v-41.833c0-1.056.019-2.111.028-3.167H121v15c0 8.284 6.716 15 15 15s15-6.716 15-15v-15h89.744zm-27.225-83.685c10.512 15.766 18.32 34.292 22.875 53.685H151v-92h42.746a193.81 193.81 0 0 0 19.773 38.315zm-1.292-162.913l29.495-9.831c1.723 15.743 6.554 30.799 14.218 44.429-21.207-.027-39.01-14.804-43.713-34.598zM271 113.377a14.98 14.98 0 0 1-10.257 14.23l-9.191 3.064-.042.014-59.955 19.985C185.439 152.566 181 158.342 181 165v45h-60v-15c0-35.805-25.221-65.83-58.829-73.245C68.444 86.695 99.163 60 136 60h135v53.377zM331 90h-30V60h30v30z"/></svg>