<svg xmlns="http://www.w3.org/2000/svg" fill="#616161" viewBox="0 0 512 512"><path d="M490.667 405.333h-64v-384C426.667 9.551 417.115 0 405.333 0H106.667C94.885 0 85.333 9.551 85.333 21.333v384h-64C9.551 405.333 0 414.885 0 426.667v64C0 502.449 9.551 512 21.333 512h469.333c11.782 0 21.333-9.551 21.333-21.333v-64c.001-11.782-9.55-21.334-21.332-21.334zM42.667 448h42.667v21.333H42.667V448zM128 426.667v-384h256v426.667H128v-42.667zm341.333 42.666h-42.667V448h42.667v21.333z"/><path d="M320 213.333c-11.782 0-21.333 9.551-21.333 21.333V256h-21.333C265.551 256 256 265.551 256 277.333c0 11.782 9.551 21.333 21.333 21.333h21.333V320c0 11.782 9.551 21.333 21.333 21.333s21.333-9.551 21.333-21.333v-85.333c.001-11.782-9.55-21.334-21.332-21.334z"/></svg>