<svg xmlns="http://www.w3.org/2000/svg" fill="#707070" viewBox="0 0 364.026 364.026"><path d="M113.035 180.958a8.956 8.956 0 0 1 .06-3.163 8.959 8.959 0 0 1 .651-2.013l13.635-31.582c6.519-15.095 18.251-35.162 44.776-35.162h18.198c26.527 0 38.259 20.067 44.774 35.162l13.72 31.777a9 9 0 0 1-4.695 11.83c-4.562 1.971-9.859-.131-11.83-4.695l-13.72-31.777c-7.45-17.258-15.635-24.297-28.249-24.297h-18.198c-12.614 0-20.799 7.039-28.251 24.298l-8.293 19.208h19.466c4.971 0 9 4.029 9 9s-4.029 9-9 9H122.16a8.972 8.972 0 0 1-4.672-1.168 8.953 8.953 0 0 1-3.232-3.119 8.938 8.938 0 0 1-1.221-3.299zm216.251 144.613h-4.123v-76.577a9 9 0 0 0-9-9H169.809c-4.971 0-9 4.029-9 9s4.029 9 9 9h137.354v67.577h-4.124c-4.971 0-9 4.029-9 9s4.029 9 9 9h12.856a7.944 7.944 0 0 0 .536 0h12.855c4.971 0 9-4.029 9-9s-4.029-9-9-9zM143.727 57.98c0-20.693 16.835-37.529 37.528-37.529s37.529 16.836 37.529 37.529-16.836 37.528-37.529 37.528-37.528-16.834-37.528-37.528zm18 0c0 10.768 8.761 19.528 19.528 19.528 10.769 0 19.529-8.761 19.529-19.528 0-10.769-8.761-19.529-19.529-19.529s-19.528 8.761-19.528 19.529zm201.501 178.7l-10.849-24.053a8.98 8.98 0 0 0-1.22-2.094 8.908 8.908 0 0 0-1.844-1.776 8.952 8.952 0 0 0-3.732-1.564 8.776 8.776 0 0 0-1.774-.129H117.553a8.77 8.77 0 0 0-3.092.471 8.952 8.952 0 0 0-1.924.917 8.95 8.95 0 0 0-3.064 3.239 8.936 8.936 0 0 0-1.072 3.331 8.979 8.979 0 0 0 1.131 5.518l48.619 89.115.018 14.789a9 9 0 0 0 9 8.989h.011a9 9 0 0 0 8.989-9.011l-.021-16.909a8.9 8.9 0 0 0-.277-2.382 8.944 8.944 0 0 0-.903-2.236l-42.463-77.832h205.738l8.577 19.017c2.044 4.531 7.374 6.548 11.904 4.504a9 9 0 0 0 4.504-11.904zm-253.859 12.314a9 9 0 0 1-9 9H31.127v67.577h4.121c4.971 0 9 4.029 9 9s-4.029 9-9 9H22.395a7.944 7.944 0 0 1-.536 0H9c-4.971 0-9-4.029-9-9s4.029-9 9-9h4.127v-76.577a9 9 0 0 1 9-9h4.635c-5.393-6.5-8.639-14.844-8.639-23.93 0-20.692 16.835-37.527 37.527-37.527 20.693 0 37.529 16.835 37.529 37.527 0 9.086-3.246 17.43-8.64 23.93h15.829a9 9 0 0 1 9.001 9zm-34.189-32.93c0-10.768-8.761-19.527-19.529-19.527s-19.527 8.76-19.527 19.527c0 10.769 8.76 19.529 19.527 19.529 10.768 0 19.529-8.76 19.529-19.529z"/></svg>