<svg xmlns="http://www.w3.org/2000/svg" fill="#616161" viewBox="0 0 512 512"><path d="M180 340h122v40H180zm0-80h232v40H180z"/><path d="M452 80h-20V60c0-33.084-26.916-60-60-60H60C26.916 0 0 26.916 0 60v312c0 33.084 26.916 60 60 60h20v20c0 33.084 26.916 60 60 60h229.828L512 369.145V140c0-33.084-26.916-60-60-60zM80 140v252H60c-11.028 0-20-8.972-20-20V60c0-11.028 8.972-20 20-20h312c11.028 0 20 8.972 20 20v20H140c-33.084 0-60 26.916-60 60zm301.889 303.177v-42.288c0-11.028 8.972-20 20-20h41.99l-61.99 62.288zM472 340.889h-70.111c-33.084 0-60 26.916-60 60V472H140c-11.028 0-20-8.972-20-20V140c0-11.028 8.972-20 20-20h312c11.028 0 20 8.972 20 20v200.889z"/><path d="M180 180h232v40H180z"/></svg>