<svg xmlns="http://www.w3.org/2000/svg" fill="#707070" viewBox="0 0 512 512"><path d="M452 0H60C26.916 0 0 26.916 0 60v352c0 33.084 26.916 60 60 60h20v40h40v-40h272v40h40v-40h20c33.084 0 60-26.916 60-60V60c0-33.084-26.916-60-60-60zm20 412c0 11.028-8.972 20-20 20H60c-11.028 0-20-8.972-20-20v-20h40v-40H40V120h40V80H40V60c0-11.028 8.972-20 20-20h392c11.028 0 20 8.972 20 20v352z"/><path d="M368.673 228.18c.213 2.586.327 5.194.327 7.82 0 51.28-41.72 93-93 93s-93-41.72-93-93 41.72-93 93-93c17.693 0 34.676 4.93 49.332 14.13l-23.767 24.603A59.644 59.644 0 0 0 276 176c-33.084 0-60 26.916-60 60s26.916 60 60 60 60-26.916 60-60a59.639 59.639 0 0 0-5.998-26.131l53.192-55.066-14.211-13.898C343.989 116.462 310.967 103 276 103c-73.337 0-133 59.664-133 133 0 73.337 59.663 133 133 133s133-59.663 133-133c0-14.352-2.255-28.334-6.585-41.561l-33.742 33.741zM276 256c-11.028 0-20-8.972-20-20s8.972-20 20-20 20 8.972 20 20-8.972 20-20 20z"/></svg>