<svg xmlns="http://www.w3.org/2000/svg" fill="#707070" viewBox="0 0 512 512"><path d="M448 97.882V0h-45.176v97.882c0 12.291-5.921 23.222-15.059 30.097V0h-45.176v127.979c-9.138-6.874-15.059-17.807-15.059-30.097V0h-45.176v97.882c0 37.838 25.514 69.807 60.235 79.667v52.728c-22.07 8.937-37.647 30.563-37.647 55.84v165.647c0 33.266 26.967 60.235 60.235 60.235s60.235-26.969 60.235-60.235V286.118c0-25.276-15.577-46.902-37.647-55.84V177.55C422.486 167.689 448 135.721 448 97.882zm-67.765 353.883c0 8.303-6.755 15.059-15.059 15.059-8.303 0-15.059-6.755-15.059-15.059V286.118c0-8.303 6.755-15.059 15.059-15.059 8.303 0 15.059 6.755 15.059 15.059v165.647zM244.706 90.353c0-49.9-40.453-90.353-90.353-90.353C104.453 0 64 40.453 64 90.353c0 42.1 28.795 77.476 67.765 87.505v52.42c-22.07 8.937-37.647 30.563-37.647 55.84v165.647c0 33.266 26.967 60.235 60.235 60.235s60.235-26.969 60.235-60.235V286.118c0-25.276-15.577-46.902-37.647-55.84v-52.42c38.969-10.03 67.765-45.405 67.765-87.505zm-75.294 361.412c0 8.303-6.755 15.059-15.059 15.059-8.303 0-15.059-6.755-15.059-15.059V286.118c0-8.303 6.755-15.059 15.059-15.059 8.303 0 15.059 6.755 15.059 15.059v165.647zm-15.059-316.236c-24.91 0-45.177-20.266-45.177-45.176 0-24.91 20.266-45.177 45.177-45.177 24.91 0 45.176 20.266 45.176 45.177 0 24.91-20.266 45.176-45.176 45.176z"/></svg>