<svg xmlns="http://www.w3.org/2000/svg" fill="#616161" viewBox="0 0 512 512"><path d="M78.5 402c23.224 0 44.115-10.081 58.5-26.06 14.385 15.979 35.276 26.06 58.5 26.06 24.319 0 46.09-11.047 60.5-28.354C270.41 390.953 292.181 402 316.5 402c23.224 0 44.115-10.081 58.5-26.06 14.385 15.979 35.276 26.06 58.5 26.06 43.285 0 78.5-34.991 78.5-78h-40c0 20.953-17.271 38-38.5 38S395 344.953 395 324V60c0-11.028 8.972-20 20-20h35V0h-35c-33.084 0-60 26.916-60 60v32H157V60c0-11.028 8.972-20 20-20h35V0h-35c-33.084 0-60 26.916-60 60v264c0 20.953-17.271 38-38.5 38S40 344.953 40 324H0c0 43.009 35.215 78 78.5 78zM157 132h198v40H157v-40zm0 80h198v40H157v-40zm0 80h198v32c0 20.953-17.271 38-38.5 38S278 344.953 278 324h-44c0 20.953-17.271 38-38.5 38S157 344.953 157 324v-32zm276.5 180c-21.229 0-38.5-17.047-38.5-38h-42c0 20.953-17.271 38-38.5 38S276 454.953 276 434h-40c0 20.953-17.271 38-38.5 38S159 454.953 159 434h-42c0 20.953-17.271 38-38.5 38S40 454.953 40 434H0c0 43.009 35.215 78 78.5 78 23.771 0 45.093-10.568 59.5-27.207C152.407 501.432 173.729 512 197.5 512c23.224 0 44.115-10.081 58.5-26.06 14.385 15.979 35.276 26.06 58.5 26.06 23.771 0 45.093-10.568 59.5-27.207C388.407 501.432 409.729 512 433.5 512c43.285 0 78.5-34.991 78.5-78h-40c0 20.953-17.271 38-38.5 38z"/></svg>