<svg xmlns="http://www.w3.org/2000/svg" fill="#707070" viewBox="0 0 297 297"><path d="M283.686 76.81h-12.29V21.507c0-7.353-5.961-13.314-13.314-13.314H37.893c-7.353 0-13.314 5.961-13.314 13.314V76.81H13.314C5.961 76.81 0 82.771 0 90.124v151.572c0 7.353 5.961 13.314 13.314 13.314h3.072v20.483c0 7.353 5.961 13.314 13.314 13.314s13.314-5.961 13.314-13.314V255.01h209.948v20.483c0 7.353 5.961 13.314 13.314 13.314s13.314-5.961 13.314-13.314V255.01h4.097c7.353 0 13.314-5.961 13.314-13.314V90.124c-.001-7.353-5.962-13.314-13.315-13.314zM26.628 228.383V103.438h40.966v70.666c0 7.353 5.961 13.314 13.314 13.314h135.186c7.353 0 13.314-5.961 13.314-13.314v-70.666h40.966v124.945H26.628zM51.207 34.821h193.562v41.99h-28.676c-7.353 0-13.314 5.961-13.314 13.314v70.666H94.221V90.124c0-7.353-5.961-13.314-13.314-13.314h-29.7V34.821z"/></svg>