<svg xmlns="http://www.w3.org/2000/svg" fill="#707070" width="472.617" height="472.617"><path d="M453.652 157.878c-3.656-9.651-14.438-14.515-24.093-10.859-9.648 3.647-14.511 14.436-10.857 24.088 17.961 47.441 16.837 99.245-3.163 145.879-20.531 47.865-58.47 84.874-106.837 104.206-48.364 19.33-101.361 18.674-149.227-1.854a196.67 196.67 0 0 1-38.719-22.068c-29.116-21.332-51.765-50.429-65.491-84.771-19.333-48.363-18.679-101.358 1.85-149.231 20.53-47.866 58.477-84.876 106.842-104.212 46.279-18.496 96.796-18.641 143.004-.635l-13.242 22.365c-3.638 6.144-.842 10.244 6.202 9.104l62.911-10.156c7.048-1.139 10.868-7.582 8.474-14.307l-21.34-60.051c-2.39-6.726-7.324-7.209-10.957-1.062l-12.77 21.561c-56.603-23.77-119.088-24.33-176.159-1.518C92.45 47.396 47.238 91.495 22.769 148.538c-24.465 57.041-25.25 120.202-2.21 177.836 16.361 40.929 43.344 75.597 78.048 101.015 14.158 10.371 29.605 19.205 46.137 26.292 57.044 24.461 120.195 25.25 177.827 2.218 57.64-23.034 102.849-67.142 127.312-124.188 23.833-55.563 25.172-117.305 3.769-173.833z"/><path d="M228.112 90.917c-8.352 0-15.128 6.771-15.128 15.13v150.745l137.872 71.272a14.982 14.982 0 0 0 6.931 1.688c5.478 0 10.765-2.979 13.455-8.183 3.833-7.424.931-16.549-6.499-20.389l-121.496-62.81V106.047c-.001-8.359-6.772-15.13-15.135-15.13z"/></svg>