<svg xmlns="http://www.w3.org/2000/svg" fill="#707070" viewBox="0 0 490.2 490.2"><path d="M283.4 284.1c-11.5-27.2-39.7-54.7-44.1-58.3h162.6v58.3H283.4zm160.1 74v-152c0-11.4-9.4-20.8-20.8-20.8H168.8v-65.5H278c11.4 0 20.8-9.4 20.8-19.8 0-11.4-9.4-20.8-20.8-20.8H168.8V20.9C168.8 9.5 159.4.1 148 .1H58.6C47.2.1 37.8 9.5 37.8 20.9s9.4 20.8 20.8 20.8h68.7v153.4C55.4 205.2 0 267 0 341.6c0 81.7 66.3 148 148 148s148-66.3 148-148c0-5.4-.3-10.7-.9-15.9h106.7v32.4c-27.2 8.7-46.8 34.2-46.8 64.4 0 37.5 30.2 67.6 67.6 67.6s67.6-30.2 67.6-67.6c.1-30.2-19.5-55.6-46.7-64.4zm-235.9-105L148 312.3l-59.5-58.9c35.8-23.7 83.2-23.9 119.1-.3zm-148.1 29l59.2 59.6-58.9 59.5c-23.7-35.8-23.9-83.3-.3-119.1zm28.4 147.2l59.9-59.2 60.4 59.7c-36.2 24.1-84.3 23.9-120.3-.5zm147.8-27.5l-59.2-59.9 59.7-60.4c24.1 36.1 23.9 84.3-.5 120.3zm187 47.7c-15.6 0-27-12.5-27-27 0-14.6 12.5-27 27-27s27 12.5 27 27-12.4 27-27 27z"/></svg>