<svg xmlns="http://www.w3.org/2000/svg" fill="#fff" viewBox="0 0 512 512"><path d="M505.233 115.674L396.326 6.767c-9.021-9.022-23.65-9.022-32.672 0L35.704 334.716v.002l-.002.002-21.781 21.78a23.096 23.096 0 0 0-6.723 14.915L.044 487.475a23.102 23.102 0 0 0 24.48 24.481l116.061-7.156a23.113 23.113 0 0 0 14.915-6.723l21.766-21.766.015-.014.014-.015 230.998-231 .015-.014.014-.015 96.906-96.907c9.028-9.022 9.028-23.65.005-32.672zM47.77 464.229l4.922-79.851 74.929 74.929-79.851 4.922zm113.178-36.94l-76.236-76.236 198.357-198.355 76.235 76.235-198.356 198.356zm231.027-231.031l-76.235-76.233 64.251-64.249 76.235 76.235-64.251 64.247z"/></svg>