<svg xmlns="http://www.w3.org/2000/svg" viewBox="0 0 512.009 512.009"><path d="M106.675 384.004c-11.776 0-21.333 9.557-21.333 21.333s9.557 21.333 21.333 21.333 21.333-9.557 21.333-21.333-9.557-21.333-21.333-21.333zm85.334 0c-11.776 0-21.333 9.557-21.333 21.333s9.557 21.333 21.333 21.333 21.333-9.557 21.333-21.333-9.557-21.333-21.333-21.333z"/><path d="M256 341.327h-4.671l-13.245-53.001c-4.782-19.001-21.835-32.332-41.39-32.332h-94.699c-19.584 0-36.654 13.344-41.392 32.341l-13.246 53.004c.003-.012-4.69-.012-4.69-.012C19.109 341.327 0 360.436 0 383.994v64c0 23.575 19.105 42.667 42.667 42.667h.009v.011c0 11.782 9.551 21.333 21.333 21.333 11.782 0 21.333-9.551 21.333-21.333v-.011h128v.011c0 11.782 9.551 21.333 21.333 21.333 11.782 0 21.333-9.551 21.333-21.333v-.011c23.575-.005 42.658-19.09 42.658-42.666v-64c.001-23.563-19.091-42.668-42.666-42.668zM42.667 383.994h4.693c19.553 0 36.607-13.307 41.382-32.276l13.257-53.048c.002-.007 94.695-.009 94.695-.009-.022 0 13.244 53.019 13.244 53.019 4.741 18.996 21.811 32.314 41.391 32.314H256v64H42.667v-64zM490.675.004H277.342c-11.782 0-21.333 9.551-21.333 21.333v256c0 11.782 9.551 21.333 21.333 21.333h85.333v192c0 11.782 9.551 21.333 21.333 21.333 11.782 0 21.333-9.551 21.333-21.333v-192h85.333c11.782 0 21.333-9.551 21.333-21.333v-256c.002-11.781-9.55-21.333-21.332-21.333zm-21.333 256H298.675V42.671h170.667v213.333z"/><path d="M341.342 234.671c11.782 0 21.333-9.551 21.333-21.333v-21.333h21.333c35.355 0 64-28.645 64-64s-28.645-64-64-64h-42.667c-11.782 0-21.333 9.551-21.333 21.333v128c.001 11.782 9.552 21.333 21.334 21.333zm64-106.667c0 11.791-9.542 21.333-21.333 21.333h-21.333V106.67h21.333c11.791.001 21.333 9.543 21.333 21.334z"/></svg>