<svg xmlns="http://www.w3.org/2000/svg" fill="#707070" viewBox="0 0 512.002 512.002"><path d="M384.105 50.043c-16.383 0-31.534 5.352-43.818 14.384C321.532 38.055 290.754 20.801 256 20.801c-34.754 0-65.532 17.254-84.287 43.626-12.283-9.032-27.433-14.384-43.818-14.384-40.883 0-74.144 33.263-74.144 74.147 0 40.881 33.261 74.141 74.144 74.141 16.381 0 31.531-5.35 43.818-14.381 18.753 26.372 49.533 43.628 84.287 43.628 34.755 0 65.534-17.254 84.287-43.628 12.286 9.029 27.435 14.381 43.818 14.381 40.883 0 74.144-33.259 74.144-74.141 0-40.884-33.26-74.147-74.144-74.147zm-256.21 98.859c-13.628 0-24.715-11.085-24.715-24.711 0-13.629 11.087-24.718 24.715-24.718s24.715 11.089 24.715 24.718c0 13.626-11.087 24.711-24.715 24.711zM256 178.149c-29.755 0-53.96-24.206-53.96-53.959 0-29.755 24.206-53.96 53.96-53.96s53.96 24.206 53.96 53.96-24.205 53.959-53.96 53.959zm128.105-29.247c-13.628 0-24.715-11.085-24.715-24.711 0-13.629 11.087-24.718 24.715-24.718s24.715 11.089 24.715 24.718c-.001 13.626-11.088 24.711-24.715 24.711zm0 98.859c-32.365 0-63.153 12.173-86.64 33.83A189.418 189.418 0 0 0 256 277.009c-14.241 0-28.114 1.59-41.465 4.582-23.486-21.657-54.275-33.83-86.64-33.83C57.373 247.761 0 305.135 0 375.656c0 13.649 11.066 24.715 24.715 24.715h53.717c-7.693 20.594-11.911 42.87-11.911 66.115 0 13.649 11.066 24.715 24.715 24.715h329.53c13.649 0 24.715-11.066 24.715-24.715 0-23.243-4.218-45.52-11.909-66.115h53.717c13.649 0 24.715-11.066 24.715-24.715-.004-70.521-57.377-127.895-127.899-127.895zM53.417 350.942c10.377-31.197 39.843-53.751 74.479-53.751a78.362 78.362 0 0 1 31.246 6.508 190.981 190.981 0 0 0-53.203 47.243H53.417zm64.716 90.829C129.841 376.296 187.209 326.438 256 326.438s126.159 49.858 137.867 115.334H118.133zm287.928-90.829a190.922 190.922 0 0 0-53.203-47.243 78.362 78.362 0 0 1 31.246-6.508c34.635 0 64.102 22.555 74.479 53.751h-52.522z"/></svg>