<svg xmlns="http://www.w3.org/2000/svg" width="22" height="22"><g fill="#616161" fill-rule="evenodd"><path d="M20.872 11.632a.999.999 0 0 1-.869-1.493c0-.07-.004-.16-.01-.277-.054-1.434-.36-2.708-.911-3.79-.39-.76-.744-1.236-1.411-1.89-.724-.703-1.23-1.06-2.074-1.464-.872-.416-1.448-.54-2.407-.656a12.101 12.101 0 0 0-.785-.057c-.09-.003-.162-.006-.221-.006a1.002 1.002 0 0 1-1.256-.2.997.997 0 0 1 .083-1.407c.469-.418.956-.402 1.459-.386.293.01.72.043.955.07 1.118.137 1.928.31 3.034.837 1.044.5 1.726.98 2.609 1.839.823.806 1.308 1.459 1.795 2.41.685 1.344 1.064 2.899 1.129 4.623.022.54.04 1.01-.347 1.482a.998.998 0 0 1-.773.365"/><path d="M17.387 11.5a1 1 0 0 1-.682-1.733 5.876 5.876 0 0 0-.024-.6 5.04 5.04 0 0 0-.828-2.262c-.808-1.173-2.042-1.886-3.667-2.119a4.783 4.783 0 0 0-.38-.044 1.001 1.001 0 0 1-1.48-1.314c.558-.854 1.514-.714 2.147-.62 2.166.31 3.905 1.335 5.027 2.963a7.051 7.051 0 0 1 1.168 3.17c.002.014.12 1.157-.067 1.625a1.68 1.68 0 0 1-.759.824.99.99 0 0 1-.455.11"/><path d="M14.71 11.555a1.001 1.001 0 0 1-.814-1.581 3.55 3.55 0 0 0-.027-.206c-.091-.613-.27-.994-.623-1.317-.264-.244-.58-.395-1.023-.486a2.9 2.9 0 0 0-.387-.045l-.063-.003a1.012 1.012 0 0 1-1.205-.52.99.99 0 0 1 .455-1.325c.345-.169.603-.168.93-.149.207.012.517.05.681.085.8.166 1.426.475 1.967.97.692.64 1.088 1.431 1.246 2.491.066.43.19 1.236-.467 1.83a.994.994 0 0 1-.67.256"/><path d="M11.903 17.882c.37.226.747.443 1.133.65l.155.085c.385.205.778.403 1.182.592l.122.056c.422.195.849.384 1.289.56.46.186.5.184.76.17.126-.004.227-.02.323-.05.142-.042.304-.128.506-.268l.138-.097c.04-.031.09-.073.142-.117.29-.251.644-.64.923-1.014.212-.285.329-.491.368-.588A.687.687 0 0 0 19 17.58a.243.243 0 0 0-.061-.16c-.163-.167-1.382-1.144-1.99-1.562a17.801 17.801 0 0 0-1.472-.894c-.272-.136-.453-.106-.582-.065l-.062.079c-.553.665-.583.692-.65.75a1.431 1.431 0 0 1-.195.14 3.1 3.1 0 0 1-.29.152c-.898.407-1.857.059-2.758-.378-.797-.386-1.507-.875-2.3-1.583-.686-.614-1.361-1.392-1.758-2.03-.447-.72-.933-1.864-.94-2.676 0-.441.158-.952.392-1.28l.023-.033a2.1 2.1 0 0 1 .117-.133l.17-.16c.122-.11.309-.266.503-.421l.219-.17c-.007-.038-.035-.218-.24-.608-.513-.98-2.063-2.86-2.46-3.124a1.397 1.397 0 0 0-.155-.077.863.863 0 0 0-.276-.034c-.073.015-.332.15-1.081.694-.432.315-.957.836-1.056.976-.116.195-.21.353.194 1.44a20.41 20.41 0 0 0 1.444 3.052 24.058 24.058 0 0 0 .806 1.297l.198.289a25.939 25.939 0 0 0 .738 1.02c1.797 2.338 3.866 4.216 6.325 5.739l.099.062zM16.413 22c-.49 0-.82-.094-1.377-.32a29.761 29.761 0 0 1-2.787-1.3l-.168-.09a25.387 25.387 0 0 1-1.33-.77c-2.668-1.652-4.911-3.688-6.86-6.222a32.954 32.954 0 0 1-.53-.717 17.144 17.144 0 0 1-.271-.392l-.097-.141-.115-.167c-.141-.211-.28-.427-.414-.644A22.484 22.484 0 0 1 .418 7.118C-.06 5.83-.204 4.943.395 3.936c.28-.457 1.112-1.201 1.582-1.545.854-.621 1.352-.934 1.874-1.04.433-.094.975-.014 1.315.106.187.063.427.187.576.279.81.526 2.567 2.759 3.156 3.883.272.517.605 1.286.406 2.046-.011.527-.333.776-.672 1.04l-.244.19c-.157.125-.31.254-.42.35l-.001-.002a.602.602 0 0 0-.023.108c.002.245.245.99.638 1.62.294.474.853 1.115 1.393 1.597.657.587 1.207.968 1.839 1.274.805.392 1.034.359 1.058.359l.015-.008c.067-.083.228-.277.4-.485.059-.072.097-.12.12-.151a.992.992 0 0 1 .632-.47c.067-.03.14-.057.22-.084.698-.23 1.426-.171 2.116.173.386.195 1.18.676 1.702 1.03.57.39 2.096 1.575 2.395 1.929.325.389.504.855.527 1.354.016.368-.05.74-.197 1.11-.118.298-.327.648-.622 1.044a8.862 8.862 0 0 1-1.22 1.332 4.78 4.78 0 0 1-.46.354 3.768 3.768 0 0 1-1.053.53 3.29 3.29 0 0 1-.808.135 4.459 4.459 0 0 1-.225.006z"/></g></svg>