<svg xmlns="http://www.w3.org/2000/svg" fill="#707070" viewBox="0 0 512 512"><path d="M452 253h-1V113c0-33.084-26.916-60-60-60H120c-33.084 0-60 26.916-60 60v140c-33.084 0-60 26.916-60 60v110h40v36h40v-36h352v36h40v-36h40V313c0-33.084-26.916-60-60-60zM100 113c0-11.028 8.972-20 20-20h271c11.028 0 20 8.972 20 20v140h-38v-30c0-33.084-26.916-60-60-60H197c-33.084 0-60 26.916-60 60v30h-37V113zm233 110v30H177v-30c0-11.028 8.972-20 20-20h116c11.028 0 20 8.972 20 20zm139 160H40v-70c0-11.028 8.972-20 20-20h392c11.028 0 20 8.972 20 20v70z"/></svg>