<svg xmlns="http://www.w3.org/2000/svg" viewBox="0 0 512 512"><path d="M511.004 403.51a15.01 15.01 0 0 0-12.11-10.21l-43.84-6.37-19.6-39.72c-2.53-5.12-7.74-8.37-13.45-8.37s-10.93 3.25-13.46 8.37l-19.6 39.72-43.84 6.37c-2.02.29-3.92.99-5.6 2.02a14.817 14.817 0 0 0-5.61-2.02l-43.84-6.37-19.6-39.72a15.02 15.02 0 0 0-13.45-8.37c-5.71 0-10.93 3.25-13.46 8.37l-19.6 39.72-43.84 6.37c-2.22.32-4.3 1.14-6.1 2.33a15.042 15.042 0 0 0-6.11-2.33l-43.84-6.37-19.6-39.72a15.02 15.02 0 0 0-13.45-8.37c-5.71 0-10.93 3.25-13.46 8.37l-19.59 39.7-44.81 6.38a15.002 15.002 0 0 0-8.21 25.73l32.58 30.93-7.5 44.56c-.94 5.62 1.38 11.3 6 14.64s10.73 3.78 15.78 1.13l39.21-20.62 39.2 20.62a15.015 15.015 0 0 0 15.78-1.13c4.62-3.34 6.94-9.02 6-14.64l-7.52-44.68 29.54-28.8 29.53 28.8-7.52 44.68c-.94 5.62 1.38 11.3 6 14.64s10.73 3.78 15.78 1.13l39.21-20.62 39.2 20.62a15.015 15.015 0 0 0 15.78-1.13c4.62-3.34 6.94-9.02 6-14.64l-7.52-44.68 29.04-28.31 29.03 28.31-7.52 44.68c-.94 5.62 1.38 11.3 6 14.64s10.73 3.78 15.78 1.13l39.21-20.62 39.2 20.62a15.015 15.015 0 0 0 15.78-1.13c4.62-3.34 6.94-9.02 6-14.64l-7.52-44.68 31.74-30.95c4.09-3.98 5.56-9.94 3.8-15.37zm-393.11 30.32a14.986 14.986 0 0 0-4.32 13.23l3.8 22.58-19.39-10.2a15.01 15.01 0 0 0-6.98-1.72c-2.4 0-4.8.57-6.98 1.72l-19.4 10.2 3.8-22.58c.83-4.92-.85-9.94-4.46-13.37l-15.88-15.07 21.94-3.13c4.9-.7 9.14-3.771 11.33-8.21l9.65-19.54 9.64 19.54c2.18 4.42 6.41 7.49 11.29 8.2l21.57 3.14-15.61 15.21zm166 0a15.014 15.014 0 0 0-4.32 13.23l3.8 22.58-19.39-10.2a15.01 15.01 0 0 0-6.98-1.72c-2.4 0-4.8.57-6.98 1.72l-19.4 10.2 3.8-22.58c.82-4.86-.8-9.8-4.32-13.23l-15.61-15.21 21.57-3.14c4.88-.71 9.11-3.78 11.29-8.2l9.65-19.54 9.64 19.54c2.18 4.42 6.41 7.49 11.29 8.2l21.57 3.14-15.61 15.21zm165 0a15.014 15.014 0 0 0-4.32 13.23l3.8 22.58-19.39-10.2a15.01 15.01 0 0 0-6.98-1.72c-2.4 0-4.8.57-6.99 1.72l-19.39 10.2 3.8-22.58c.82-4.86-.8-9.8-4.32-13.23l-15.61-15.21 21.57-3.14c4.88-.71 9.11-3.78 11.29-8.2l9.65-19.54 9.64 19.54c2.18 4.42 6.41 7.49 11.29 8.2l21.57 3.14-15.61 15.21zM256.264 0c-90.98 0-165 74.02-165 165 0 53.28 25.09 100.77 64 131.17 1.21 1.31 2.65 2.4 4.26 3.21 27.2 19.88 60.63 31.62 96.74 31.62 36.11 0 69.54-11.74 96.74-31.62 1.61-.81 3.05-1.9 4.26-3.21 38.91-30.4 64-77.89 64-131.17 0-90.98-74.02-165-165-165zm0 301c-27.57 0-53.23-8.37-74.62-22.72 3.83-38.29 35.84-68.28 74.62-68.28s70.79 29.99 74.62 68.28c-21.39 14.35-47.049 22.72-74.62 22.72zm-45-166c0-24.81 20.19-45 45-45s45 20.19 45 45-20.19 45-45 45-45-20.19-45-45zm145.591 120.6c-8.18-27.54-27.18-50.41-51.99-63.54 16.14-13.77 26.4-34.23 26.4-57.06 0-41.35-33.64-75-75-75-41.35 0-75 33.65-75 75 0 22.83 10.26 43.29 26.41 57.06-24.82 13.13-43.82 36-52 63.54-21.39-24.07-34.41-55.83-34.41-90.6 0-74.44 60.56-135 135-135s135 60.56 135 135c-.001 34.77-13.021 66.53-34.41 90.6z"/></svg>