<svg xmlns="http://www.w3.org/2000/svg" fill="#f76649" viewBox="0 0 512.001 512.001"><path d="M449.715 254.288c-34.022-27.75-77.887-52.318-120.307-76.077-17.852-9.998-34.869-19.54-50.778-29.074 3.129-8.425 8.933-15.92 16.809-21.298 20.025-13.674 31.431-36.308 30.51-60.545C324.57 30.968 295.033 1.432 258.708.053c-19.229-.738-37.422 6.201-51.252 19.516-13.835 13.32-21.455 31.23-21.455 50.432h40c0-8.229 3.267-15.906 9.197-21.616 5.927-5.706 13.746-8.669 21.992-8.361 15.552.59 28.197 13.235 28.788 28.788.396 10.408-4.5 20.125-13.095 25.994-18.386 12.554-30.864 31.407-35.192 52.339-17.07 10.329-35.52 20.633-54.924 31.467-42.45 23.701-86.345 48.209-120.397 75.891C20.402 288.619.001 322.8.001 359.001v22h87v131h340v-131h85v-22c0-36.275-20.374-70.528-62.286-104.713zm-62.714 217.713h-260v-111c0-11.028 8.972-20 20-20h220c11.028 0 20 8.972 20 20v111zm36.56-131c-8.256-23.278-30.487-40-56.56-40h-220c-26.073 0-48.303 16.722-56.56 40H43.048c15.939-47.468 91.59-89.704 159.219-127.464 19.022-10.621 37.138-20.743 54.232-31.028 16.848 10.143 34.66 20.127 53.362 30.601 67.608 37.866 143.24 80.223 159.118 127.891h-45.418z"/></svg>