<svg xmlns="http://www.w3.org/2000/svg" fill="#707070" viewBox="0 0 512 512"><path d="M496 224h-48V32c0-17.648-14.352-32-32-32h-64c-17.648 0-32 14.352-32 32v16h-16v32h64V48h-16V32h64v112h-16v-16h-32v64h32v-16h16v48H16c-8.832 0-16 7.168-16 16v64c0 8.832 7.168 16 16 16h16v128c0 17.648 14.352 32 32 32v32h32v-32h320v32h32v-32c17.648 0 32-14.352 32-32V320h16c8.832 0 16-7.168 16-16v-64c0-8.832-7.168-16-16-16zm-368 32h48v80h32v-80h48v128H128V256zm-96 32v-32h64v32H32zm416 160H64V320h32v80c0 8.832 7.168 16 16 16h160c8.832 0 16-7.168 16-16v-80h160v128zm32-160H288v-32h192v32z"/></svg>