<svg xmlns="http://www.w3.org/2000/svg" viewBox="0 0 512 512"><path d="M492.308 370.605H476.98l-34.887-87.618a19.693 19.693 0 0 0-18.295-12.407h-45.732v-98.681c0-10.875-8.817-19.692-19.692-19.692h-194.42V51.819c0-10.875-8.817-19.692-19.692-19.692H19.692C8.817 32.127 0 40.944 0 51.819s8.817 19.692 19.692 19.692h104.876v116.866C54.306 198.009 0 258.422 0 331.288 0 410.835 64.714 475.55 144.261 475.55s144.262-64.716 144.262-144.262c0-7.245-.544-14.364-1.579-21.324h51.738v54.46c-23.107 8.142-39.717 30.182-39.717 56.039 0 32.759 26.65 59.41 59.409 59.41s59.409-26.652 59.409-59.41c0-25.856-16.61-47.896-39.717-56.039v-54.46h32.377l34.887 87.618a19.693 19.693 0 0 0 18.296 12.407h28.682c10.875 0 19.692-8.817 19.692-19.692s-8.817-19.692-19.692-19.692zm-348.047 65.559c-57.83 0-104.876-47.048-104.876-104.876s47.046-104.877 104.876-104.877c57.83 0 104.877 47.048 104.877 104.877s-47.049 104.876-104.877 104.876zm194.42-165.586h-63.575c-18.025-38.693-52.708-68.121-94.782-78.988H338.68v78.988zm39.716 149.884c0 11.042-8.982 20.026-20.024 20.026-11.042 0-20.024-8.984-20.024-20.026 0-11.041 8.982-20.023 20.024-20.023 11.042-.001 20.024 8.982 20.024 20.023z"/></svg>