<svg xmlns="http://www.w3.org/2000/svg" fill="#616161" viewBox="0 0 297 297"><path d="M19.79 220.852c-6.172-3.641-14.35-1.72-17.989 4.451-3.64 6.17-1.589 14.122 4.58 17.762 31.914 18.829 83.715 29.628 142.118 29.628 58.402 0 110.203-10.799 142.118-29.627 6.17-3.64 8.221-11.593 4.581-17.763-3.639-6.169-12.816-7.525-18.987-3.883V37.279c0-7.164-5.807-12.971-12.971-12.971s-12.971 5.807-12.971 12.971v17.959H45.732V37.279c0-7.164-5.807-12.971-12.971-12.971S19.79 30.115 19.79 37.279v183.573zm230.48-33.911h-31.928V81.18h31.928v105.761zm-89.797 0V81.18h31.928v105.761h-31.928zm-56.872 0V81.18h30.93v105.761h-30.93zM77.66 81.18v105.761H45.732V81.18H77.66zM45.732 232.282v-19.399H250.27v19.735c-27.371 9.019-63.278 14.133-101.77 14.133-38.965 0-75.275-5.243-102.768-14.469z"/></svg>