<svg xmlns="http://www.w3.org/2000/svg" viewBox="0 0 511.999 511.999"><path d="M264.63 130.894V60.022C264.63 26.926 237.704 0 204.608 0c-33.096 0-60.022 26.926-60.022 60.022v20.007h30.011V60.022c0-16.548 13.463-30.011 30.011-30.011 16.548 0 30.011 13.463 30.011 30.011v70.981L.097 218.275v105.462h52.488v188.262h405.113V323.737h54.205V218.082L264.63 130.894zm163.056 351.095H82.595v-30.011h345.092v30.011zm0-60.022H82.595V293.726h345.092v128.241zm54.205-128.241h-24.194v-30.011H52.584v30.011H30.108v-54.597l219.539-81.695 232.245 81.888v54.404z"/></svg>