<svg xmlns="http://www.w3.org/2000/svg" viewBox="0 0 512 512"><path d="M256 0C114.848 0 0 114.848 0 256s114.848 256 256 256 256-114.848 256-256S397.152 0 256 0zm0 480C132.48 480 32 379.52 32 256S132.48 32 256 32s224 100.48 224 224-100.48 224-224 224z"/><path d="M256 64C150.128 64 64 150.128 64 256s86.128 192 192 192 192-86.128 192-192S361.872 64 256 64zm130.656 284.032l-23.344-23.344-22.624 22.624 24.928 24.928c-25.024 23.6-57.52 39.344-93.616 42.944V368h-32v47.184c-36.096-3.6-68.592-19.344-93.616-42.944l24.928-24.928-22.624-22.624-23.344 23.344C109.824 326.08 99.616 300.144 96.816 272H144v-32H96.816c2.8-28.144 13.024-54.08 28.528-76.032l23.344 23.344 22.624-22.624-24.928-24.928c25.024-23.6 57.52-39.344 93.616-42.944V144h32V96.816c36.096 3.6 68.592 19.344 93.616 42.944l-24.928 24.928 22.624 22.624 23.344-23.344c15.504 21.952 25.728 47.904 28.528 76.032H368v32h47.184c-2.8 28.144-13.024 54.08-28.528 76.032z"/><path d="M272 248v-72h-32v80c0 5.04 2.368 9.776 6.4 12.8l64 48 19.2-25.6L272 248z"/></svg>