<svg xmlns="http://www.w3.org/2000/svg" viewBox="0 0 32.03 32.03" fill="#707070"><path d="M31.006 24.515h-30a1 1 0 1 0 0 2h30a1 1 0 1 0 0-2zm-2-20a1 1 0 0 0-1 1v9a1 1 0 1 0 2 0v-9a1 1 0 0 0-1-1zm-26 0a1 1 0 0 0-1 1v9a1 1 0 1 0 2 0v-9a1 1 0 0 0-1-1z"/><path d="M3.249 13.065a1 1 0 0 0-1.26.643L.048 19.7a1 1 0 0 0 1.903.615l1.941-5.991a1 1 0 0 0-.643-1.259zm28.731 6.631l-1.963-5.992a1 1 0 1 0-1.901.623l1.963 5.992a1 1 0 1 0 1.901-.623z"/><path d="M29.006 13.515h-3a1 1 0 1 0 0 2h3a1 1 0 1 0 0-2zm-23 0h-3a1 1 0 1 0 0 2h3a1 1 0 1 0 0-2z"/><path d="M15.377 8.511l-8.484.004-.329-.004c-1.446 0-1.558 1.121-1.558 1.465v4.039c0 1.022.672 2.5 1.887 2.5h8.144c1.293 0 1.969-1.627 1.969-2.5V9.976c0-.344-.117-1.465-1.629-1.465zm-.37 5.504c-.001.12-.093.362-.182.5H7.144a1.351 1.351 0 0 1-.138-.5v-3.5h8.001v3.5z"/><path d="M26.597 8.917c-.428-.421-.964-.41-1.364-.404l-8.291.002c-1.348 0-1.952.865-1.952 1.722 0 .55.444.991.994.994h.006c.451 0 .833-.303.958-.716h8.058v3.5c0 .123-.081.359-.162.5h-7.812a.243.243 0 0 1-.042-.11 1 1 0 1 0-2 0c0 1.124.912 2.11 1.951 2.11h8.131c1.288 0 1.934-1.603 1.934-2.5V9.976c0-.543-.223-.876-.409-1.059zM1.006 19.515a1 1 0 0 0-1 1v6a1 1 0 1 0 2 0v-6a1 1 0 0 0-1-1zm30 0a1 1 0 0 0-1 1v6a1 1 0 1 0 2 0v-6a1 1 0 0 0-1-1zm-1-15h-28a1 1 0 1 0 0 2h28a1 1 0 1 0 0-2z"/><path d="M31.006 19.515h-30a1 1 0 1 0 0 2h30a1 1 0 1 0 0-2z"/></svg>