<svg xmlns="http://www.w3.org/2000/svg" width="325.303" height="325.303"><path d="M17.395 71.057V295.69c0 4.477 3.628 8.1 8.1 8.1a8.1 8.1 0 0 0 8.101-8.1v-15.072h258.11v15.072c0 4.477 3.629 8.1 8.101 8.1s8.1-3.623 8.1-8.1V71.057c10.072-3.407 17.397-12.841 17.397-24.053 0-14.056-11.438-25.491-25.497-25.491-14.054 0-25.492 11.436-25.492 25.491 0 11.212 7.325 20.646 17.392 24.053v17.729H33.595V71.057C43.67 67.65 50.994 58.216 50.994 47.004c0-14.056-11.438-25.491-25.5-25.491C11.438 21.513 0 32.949 0 47.004 0 58.21 7.317 67.65 17.395 71.057zm273.119-24.053c0-5.123 4.166-9.292 9.292-9.292 5.136 0 9.297 4.168 9.297 9.292 0 5.126-4.161 9.295-9.297 9.295-5.126 0-9.292-4.169-9.292-9.295zm1.191 217.414H33.595V245.57h258.111v18.848zm0-159.432v124.385h-50.667V104.986h50.667zm-66.856 124.385h-54.1V104.986h54.1v124.385zm-70.3-124.385v124.385h-54.093V104.986h54.093zm-70.293 0v124.385H33.595V104.986h50.661zM25.494 37.713c5.124 0 9.3 4.168 9.3 9.292 0 5.126-4.171 9.295-9.3 9.295-5.131 0-9.294-4.169-9.294-9.295 0-5.124 4.163-9.292 9.294-9.292z"/></svg>