<svg xmlns="http://www.w3.org/2000/svg" viewBox="0 0 512 512"><path d="M512 216.977c0-28.216-22.956-51.172-51.171-51.172h-5.671l-9.22-55.94c-5.716-34.676-35.374-59.845-70.519-59.845H136.225c-35.146 0-64.804 25.169-70.519 59.846l-9.22 55.939h-5.314C22.956 165.805 0 188.761 0 216.977c0 7.532 6.106 13.638 13.638 13.638h13.81c-12.71 14.132-20.459 32.807-20.459 53.264v53.068c0 16.589 9.473 30.999 23.289 38.13v45.629c0 22.759 18.515 41.274 41.274 41.274h25.405c22.759 0 41.275-18.515 41.275-41.274V379.84h27.623v35.093c0 9.232 7.485 16.717 16.717 16.717h146.501c9.232 0 16.717-7.485 16.717-16.717V379.84h27.623v40.866c0 22.759 18.515 41.274 41.274 41.274h25.405c22.759 0 41.275-18.515 41.275-41.274v-45.629c13.814-7.133 23.287-21.541 23.287-38.13v-53.068c0-20.457-7.75-39.133-20.459-53.264h14.166c7.533 0 13.639-6.106 13.639-13.638zM98.697 115.303c3.04-18.454 18.824-31.849 37.528-31.849h102.879V94.18h-15.972c-9.232 0-16.717 7.485-16.717 16.717s7.485 16.717 16.717 16.717h65.38c9.232 0 16.717-7.485 16.717-16.717s-7.485-16.717-16.717-16.717h-15.973V83.454h102.88c18.703 0 34.487 13.395 37.531 31.849 5.315 32.246 10.129 60.309 13.902 88.837h-9.735c-6.859-35.277-37.975-61.996-75.229-61.996-37.252 0-68.369 26.719-75.227 61.996H84.052l14.645-88.837zm283.847 88.836h-81.313c6.014-16.638 21.969-28.561 40.656-28.561s34.644 11.923 40.657 28.561zM51.172 193.082h.817l-1.691 10.257H31.559c4.322-6.196 11.503-10.257 19.613-10.257zm53.624 227.625c0 4.323-3.517 7.839-7.84 7.839H71.551c-4.323 0-7.839-3.516-7.839-7.839v-40.866h41.085v40.866zm207.56-22.49H199.29v-18.376h113.066v18.376zm127.737 30.329h-25.405c-4.323 0-7.839-3.516-7.839-7.839v-40.866h41.085v40.866c-.001 4.323-3.518 7.839-7.841 7.839zm31.129-91.598h-.001c0 5.216-4.243 9.458-9.457 9.458H49.883c-5.216 0-9.458-4.243-9.458-9.458V283.88c0-25.532 20.773-46.305 46.305-46.305h338.188c25.532 0 46.304 20.773 46.304 46.305v53.068zm-9.876-133.609l-1.691-10.257h1.174c8.11 0 15.29 4.062 19.612 10.257h-19.095z"/><circle cx="96.103" cy="301.304" r="33.873"/><circle cx="415.54" cy="301.304" r="33.873"/><path d="M329.781 284.588H183.414c-9.233 0-16.717 7.485-16.717 16.717 0 9.233 7.485 16.717 16.717 16.717h146.367c9.232 0 16.717-7.485 16.717-16.717s-7.484-16.717-16.717-16.717z"/></svg>