<svg xmlns="http://www.w3.org/2000/svg" viewBox="0 0 512 512"><path d="M230 130c0-33.084-26.916-60-60-60s-60 26.916-60 60 26.916 60 60 60 60-26.916 60-60zm-60 20c-11.028 0-20-8.972-20-20s8.972-20 20-20 20 8.972 20 20-8.972 20-20 20zm30 40h-60c-33.084 0-60 26.916-60 60v107h30v85h40V317h-30v-67c0-11.028 8.972-20 20-20h60c11.028 0 20 8.972 20 20v67h-30v125h40v-85h30V250c0-33.084-26.916-60-60-60z"/><path d="M452 0H60C26.916 0 0 26.916 0 60v392c0 33.084 26.916 60 60 60h392c33.084 0 60-26.916 60-60V60c0-33.084-26.916-60-60-60zm20 452c0 11.028-8.972 20-20 20H60c-11.028 0-20-8.972-20-20V60c0-11.028 8.972-20 20-20h392c11.028 0 20 8.972 20 20v392z"/><path d="M296.358 145.663l28.285 28.284 25.246-25.246V226h40v-78.522l26.469 26.469 28.285-28.284L370.5 71.521zm93.53 219.858V277h-40v87.299l-25.246-25.246-28.285 28.284 74.143 74.142 74.142-74.143-28.285-28.284z"/></svg>