<svg xmlns="http://www.w3.org/2000/svg" fill="#fff" viewBox="0 0 512.001 512.001"><path d="M511.156 469.4L481.899 367a21.945 21.945 0 0 0-21.099-15.914h-21.943V204.8h36.571a21.943 21.943 0 0 0 12.171-40.199L268.171 18.315a21.941 21.941 0 0 0-24.343 0L24.399 164.601c-8.046 5.363-11.633 15.361-8.83 24.615S26.902 204.8 36.572 204.8h36.571v146.286H51.2A21.943 21.943 0 0 0 30.101 367L.844 469.4a21.942 21.942 0 0 0 21.099 27.971h468.114a21.939 21.939 0 0 0 17.518-8.729 21.94 21.94 0 0 0 3.581-19.242zM256 62.942l146.957 97.972H109.045L256 62.942zM394.972 204.8v146.286h-63.39V204.8h63.39zm-107.276 0v146.286h-63.391V204.8h63.391zm-107.277 0v146.286h-63.39V204.8h63.39zM51.034 453.486l16.719-58.514H444.25l16.719 58.514H51.034z"/></svg>