<svg xmlns="http://www.w3.org/2000/svg" fill="#707070" viewBox="0 0 512 512"><path d="M484.117 277.333l-58.795-156.821a21.333 21.333 0 0 0-19.989-13.845h-64v-64c0-11.782-9.551-21.333-21.333-21.333H192c-11.782 0-21.333 9.551-21.333 21.333v64h-64a21.332 21.332 0 0 0-19.989 13.845L27.883 277.333H0V320h27.883l58.816 156.821a21.333 21.333 0 0 0 19.968 13.845h298.667a21.332 21.332 0 0 0 19.989-13.845L484.117 320H512v-42.667h-27.883zM213.333 64h85.333v42.667h-85.333V64zm177.216 384H121.451l-48-128H438.55l-48.001 128zM73.451 277.333l48-128H390.55l48 128H73.451z"/><path d="M234.667 170.667h42.667V256h-42.667zm85.333 0h42.667V256H320zm-170.667 0H192V256h-42.667zm85.334 170.666h42.667v85.333h-42.667zm85.333 0h42.667v85.333H320zm-170.667 0H192v85.333h-42.667z"/></svg>