<svg xmlns="http://www.w3.org/2000/svg" fill="#fff" viewBox="0 0 512 512"><path d="M218.98 49.94l10.325 10.325L.178 470.889 39.186 512l112.337-62.065 11.35 21.219c7.75 14.49 20.717 24.963 36.513 29.49a60.55 60.55 0 0 0 16.706 2.365c10.374 0 20.617-2.713 29.884-8.038l77.917-44.759c28.743-16.51 38.736-53.351 22.277-82.125l-11.168-19.521 117.62-64.984 9.763 9.763 28.39-28.391L247.37 21.549 218.98 49.94zm84.914 365.457l-77.918 44.76c-4.749 2.728-10.265 3.399-15.53 1.89-5.266-1.509-9.588-5-12.171-9.831l-11.598-21.683-1.287.689 114.465-63.24 11.465 20.04c5.486 9.592 2.155 21.871-7.426 27.375zm119.182-161.361L53.098 458.443 258.815 89.775l164.261 164.261zM435.79 47.64l28.39 28.39-50.688 50.687-28.39-28.39zm76.006 117.796l-59.37 22.587-14.277-37.528 59.37-22.587zM346.42.012l37.528 14.277L361.36 73.66l-37.528-14.277z"/></svg>