<svg xmlns="http://www.w3.org/2000/svg" width="83.43" height="83.43" fill="#707070"><path d="M82.316 39.792C73.947 25.331 58.39 16.348 41.715 16.348c-16.676 0-32.232 8.982-40.603 23.444L0 41.715l1.113 1.924c8.369 14.46 23.926 23.443 40.602 23.443 16.675 0 32.232-8.982 40.602-23.443l1.113-1.924-1.114-1.923zM42.132 55.354c-8.206 0-14.883-6.676-14.883-14.883 0-8.206 6.677-14.883 14.883-14.883s14.883 6.677 14.883 14.883c0 8.207-6.677 14.883-14.883 14.883zM8.95 41.715a39.347 39.347 0 0 1 13.812-12.76c-2.016 3.377-3.196 7.307-3.196 11.516 0 6.01 2.375 11.458 6.216 15.508-6.768-3.028-12.659-7.931-16.832-14.264zm50.163 13.566c3.465-3.967 5.582-9.141 5.582-14.811 0-3.898-.992-7.566-2.739-10.768a39.28 39.28 0 0 1 12.522 12.012c-3.867 5.87-9.213 10.511-15.365 13.567zM47.988 40.179a6.273 6.273 0 1 1-12.546-.002 6.273 6.273 0 0 1 12.546.002z"/></svg>