<svg xmlns="http://www.w3.org/2000/svg" fill="#fff" viewBox="0 0 512 512"><path d="M196 0h40v40h-40zm80 0h40v40h-40zm205.459 247.742l-41.071-127.068-.146-.437C431.846 96.17 409.079 80 383.59 80H356V40h-40v40h-40V40h-40v40h-40V40h-40v40h-27.59c-25.489 0-48.256 16.17-56.651 40.238L30.571 247.726C12.336 258.032 0 277.602 0 300v152c0 33.084 26.916 60 60 60s60-26.916 60-60v-10h272v10c0 33.084 26.916 60 60 60s60-26.916 60-60V300c0-22.385-12.323-41.947-30.541-52.258zM109.591 133.23A20.02 20.02 0 0 1 128.41 120h255.18c8.434 0 15.972 5.31 18.82 13.233L436.919 240H75.101l34.49-106.77zM80 452c0 11.028-8.972 20-20 20s-20-8.972-20-20v-13.427A59.736 59.736 0 0 0 60 442h20v10zm392 0c0 11.028-8.972 20-20 20s-20-8.972-20-20v-10h20a59.736 59.736 0 0 0 20-3.427V452zm0-70c0 11.028-8.972 20-20 20H60c-11.028 0-20-8.972-20-20v-82c0-11.028 8.972-20 20-20h392c11.028 0 20 8.972 20 20v82z"/><path d="M181 332h150v40H181z"/><circle cx="412" cy="332" r="20"/><circle cx="100" cy="332" r="20"/></svg>