<svg xmlns="http://www.w3.org/2000/svg" width="235.762" height="235.762"><path d="M0 209.823c0 12.652 14.949 20.731 25.245 20.731h189.791c11.43 0 20.727-9.297 20.727-20.731 0-5.181-1.904-9.918-5.059-13.558a20.62 20.62 0 0 0 5.059-13.554c0-5.609-2.259-10.683-5.89-14.417 3.5-3.364 5.89-7.663 5.89-12.693v-27.116c0-12.652-14.948-20.729-25.244-20.729H20.727C9.294 107.756 0 117.053 0 128.485c0 5.181 1.907 9.922 5.062 13.558A20.613 20.613 0 0 0 0 155.596c0 5.609 2.257 10.688 5.888 14.421C2.39 173.377 0 177.675 0 182.707v27.116zm215.036-33.5a6.4 6.4 0 0 1 6.39 6.389c0 3.52-2.866 6.385-6.39 6.385H43.318v14.337h171.718c3.523 0 6.39 2.871 6.39 6.39 0 3.523-2.866 6.394-6.39 6.394H25.245c-4.91 0-10.907-4.284-10.907-6.394v-27.111c0-2.104 5.997-6.389 10.907-6.389h189.791zM20.727 161.985a6.397 6.397 0 0 1-6.389-6.389c0-3.52 2.868-6.385 6.389-6.385h171.716v-14.337H20.727c-3.521 0-6.389-2.866-6.389-6.39s2.868-6.39 6.389-6.39h189.792c4.91 0 10.907 4.28 10.907 6.39v27.111c0 2.109-5.997 6.389-10.907 6.389H20.727zM63.883 8.625c-6.261 10.312-6.877 20.617-3.79 32.119 3.125 11.651 13.021 24.799 3.321 35.724-6.116 6.886 3.986 17.065 10.137 10.137 8.067-9.085 9.936-18.563 7.115-30.271-3.398-14.104-13.061-26.208-4.401-40.48C81.072 7.932 68.671.733 63.883 8.625zm52.57 0c-6.261 10.312-6.877 20.617-3.79 32.119 3.125 11.651 13.021 24.799 3.32 35.724-6.116 6.886 3.986 17.065 10.14 10.137 8.064-9.085 9.932-18.563 7.112-30.271-3.397-14.104-13.061-26.208-4.401-40.48 4.808-7.922-7.592-15.121-12.381-7.229zm47.791 0c-6.263 10.312-6.879 20.617-3.789 32.119 3.127 11.651 13.021 24.799 3.323 35.724-6.119 6.886 3.985 17.065 10.137 10.137 8.064-9.085 9.932-18.563 7.112-30.271-3.397-14.104-13.059-26.208-4.401-40.48 4.807-7.922-7.593-15.121-12.382-7.229z"/></svg>