<svg xmlns="http://www.w3.org/2000/svg" fill="#616161" viewBox="0 0 512 512"><path d="M492.101 254.394v-93.116h-32.54L256.001 0 52.439 161.279h-32.54v93.116h42.269v164.49H19.899V512h472.202v-93.116h-42.269v-164.49h42.269zm-236.1-216.115l155.246 122.999H100.753L256.001 38.279zm206.097 410.609v33.109H49.902v-33.109h412.196zM92.172 418.884v-164.49h33.399v164.49H92.172zm63.402 0v-164.49h53.723v164.49h-53.723zm83.726 0v-164.49h33.399v164.49H239.3zm63.403 0v-164.49h53.723v164.49h-53.723zm83.726 0v-164.49h33.399v164.49h-33.399zM49.902 224.391v-33.109h412.196v33.109H49.902z"/></svg>