<svg xmlns="http://www.w3.org/2000/svg" viewBox="0 0 512 512"><path d="M191.787 168.524c-13.808 0-25.047 11.235-25.052 25.05 0 6.692 2.607 12.982 7.337 17.714 4.732 4.731 11.021 7.336 17.713 7.336h.005c13.812-.001 25.047-11.239 25.047-25.05 0-13.812-11.237-25.05-25.05-25.05zm137.777 0c-13.808 0-25.047 11.235-25.05 25.05 0 13.813 11.236 25.05 25.048 25.05h.003c13.813 0 25.05-11.238 25.05-25.05 0-13.812-11.238-25.05-25.051-25.05zm-44.149 199.865c-3.027-1.078-5.193-3.282-5.952-4.443V289.48c9.252-8.327 17.304-21.175 21.293-33.281 3.04-10.208-4.818-18.654-17.535-18.788H238.13c-12.717.134-20.575 8.581-17.535 18.788 3.989 12.106 12.04 24.953 21.293 33.281v74.466c-.759 1.161-2.925 3.364-5.952 4.443l-43.613 13.957 11.453 35.787 43.838-14.028.361-.119a50.746 50.746 0 0 0 12.701-6.477 50.73 50.73 0 0 0 12.701 6.477l44.199 14.147 11.453-35.787-43.614-13.957zM323.3 256.203h100.202v37.576H323.3z"/><path d="M317.344 342.906l11.881-35.649 75.158 25.05-11.881 35.649zM97.847 256.203h100.202v37.576H97.847zm19.113 76.127l75.157-25.05L204 342.93l-75.158 25.05z"/><path d="M490.571 111.981c24.037-57.39 27.467-85.229 12.23-99.292-15.236-14.067-42.716-8.426-97.998 20.119-20.833 10.755-40.514 22.221-52.469 29.383-28.127-12.162-59.116-18.918-91.657-18.918-35.825 0-69.774 8.175-100.085 22.752-12.231-6.678-32.355-17.347-53.603-27.264C50.603 12.448 22.922 7.91 8.259 22.573-6.403 37.238-1.864 64.917 24.447 121.299c9.916 21.248 20.585 41.373 27.264 53.603-14.577 30.312-22.752 64.262-22.752 100.085 0 127.768 103.948 231.716 231.716 231.716s231.716-103.948 231.716-231.716c0-39.11-9.753-75.98-26.934-108.328 6.183-12.484 16.048-33.035 25.114-54.678zm-75.902-41.926c32.463-17.243 50.135-23.612 59.12-25.942-1.602 9.127-6.524 27.202-21.06 60.824A899.665 899.665 0 0 1 441.36 130.1a233.625 233.625 0 0 0-50.663-46.813 908.584 908.584 0 0 1 23.972-13.232zM38.501 52.815c9.056 1.965 26.92 7.605 59.933 23.473a904.962 904.962 0 0 1 24.675 12.357 233.704 233.704 0 0 0-48.777 48.777 904.625 904.625 0 0 1-12.271-24.497c-15.932-33.126-21.591-51.038-23.56-60.11zm222.175 416.314c-107.049 0-194.141-87.091-194.141-194.141s87.092-194.14 194.141-194.14 194.141 87.091 194.141 194.141-87.092 194.14-194.141 194.14z"/></svg>