<svg xmlns="http://www.w3.org/2000/svg" fill="#707070" viewBox="0 0 512 512"><path d="M512 288c0-25.793-18.329-47.319-42.667-52.264V85.333C469.333 38.202 431.131 0 384 0c-40.544 0-74.455 28.279-83.15 66.184-37.905 8.694-66.184 42.606-66.184 83.15 0 11.782 9.551 21.333 21.333 21.333h128c11.782 0 21.333-9.551 21.333-21.333 0-38.388-25.345-70.846-60.213-81.57 6.697-14.797 21.579-25.097 38.88-25.097 23.567 0 42.667 19.099 42.667 42.667v149.333H253.034c-9.01-31.848-37.664-55.445-72.057-56.831-14.581-17.733-36.343-28.502-60.081-28.502-39.127 0-71.867 28.942-77.235 67.409l-.2 2.485-.357 16.431C18.55 240.433 0 262.054 0 288c0 26.9 19.939 49.15 45.836 52.798l12.519 75.064c3.961 23.865 20.857 42.8 42.794 50.153l-9.568 9.568c-8.331 8.331-8.331 21.839 0 30.17 8.331 8.331 21.839 8.331 30.17 0l36.418-36.418h195.66l36.418 36.418c8.331 8.331 21.839 8.331 30.17 0 8.331-8.331 8.331-21.839 0-30.17l-9.565-9.565c21.928-7.348 38.816-26.278 42.803-50.15l12.503-75.068C492.058 337.152 512 314.902 512 288zM356.96 128h-73.92c7.376-12.754 21.165-21.333 36.96-21.333s29.584 8.579 36.96 21.333zM86.087 221.547C88.985 204.572 103.569 192 120.896 192c12.861 0 24.463 7.032 30.811 18.326a21.334 21.334 0 0 0 21.512 10.68c.725-.102.725-.102 1.365-.194l.588-.085c1.562-.223 2.229-.29 2.599-.29 11.638 0 21.969 5.589 28.457 14.229H85.802l.285-13.119zm-32.754 55.786h405.334c5.882 0 10.667 4.785 10.667 10.667s-4.785 10.667-10.667 10.667H53.333c-5.882 0-10.667-4.785-10.667-10.667s4.785-10.667 10.667-10.667zm358.238 131.514c-1.717 10.28-10.617 17.82-21.047 17.82H121.489c-10.436 0-19.341-7.542-21.045-17.808l-11.262-67.526h333.634l-11.245 67.514z"/></svg>