<svg xmlns="http://www.w3.org/2000/svg" viewBox="0 0 512 512"><path d="M456.348 0H55.652c-9.22 0-16.696 7.475-16.696 16.696v478.609c0 9.22 7.475 16.696 16.696 16.696h400.696c9.22 0 16.696-7.475 16.696-16.696V16.696C473.043 7.475 465.568 0 456.348 0zM294.957 33.391h77.913v104.146l-26.131-31.357a16.697 16.697 0 0 0-25.652 0l-26.131 31.357V33.391zM105.739 478.609H72.348V33.391h33.391v445.218zm333.914 0H139.13V33.391h122.435v150.261a16.694 16.694 0 0 0 29.522 10.687l42.825-51.39 42.827 51.391a16.693 16.693 0 0 0 18.51 5.011 16.696 16.696 0 0 0 11.012-15.698V33.391h33.391v445.218z"/><path d="M356.174 311.652H222.609c-9.22 0-16.696 7.475-16.696 16.696s7.475 16.696 16.696 16.696h133.565c9.22 0 16.696-7.475 16.696-16.696s-7.476-16.696-16.696-16.696zm33.391 66.783H189.217c-9.22 0-16.696 7.475-16.696 16.696s7.475 16.696 16.696 16.696h200.348c9.22 0 16.696-7.475 16.696-16.696s-7.475-16.696-16.696-16.696z"/></svg>