<svg width="37" height="37" fill="none" xmlns="http://www.w3.org/2000/svg"><path d="M25.243 23.611l-.397-.014v-2.664h.283c.985 0 1.479.395 1.479 1.184l.006.192h1.736v-.243c0-1.049-.244-1.763-.742-2.147-.494-.387-1.418-.576-2.764-.576v-1.037h-1.212v1.036c-1.414 0-2.38.2-2.897.604-.521.401-.781 1.148-.781 2.24 0 1.125.262 1.894.774 2.301.52.409 1.486.615 2.904.615v2.889l-.267-.01c-.727 0-1.197-.097-1.405-.285-.21-.188-.312-.611-.312-1.269v-.187h-1.801l-.01.362c0 1.075.26 1.83.77 2.266.518.436 1.408.65 2.679.65l.342.007v1.191h1.213v-1.191l.37-.007c1.272 0 2.163-.229 2.675-.683.514-.452.768-1.241.768-2.369 0-1.044-.233-1.764-.7-2.156-.47-.391-1.372-.625-2.711-.699zm-1.611-.072c-.17-.009-.254-.016-.265-.016-1.065 0-1.594-.439-1.594-1.324 0-.846.53-1.266 1.598-1.266l.26-.01v2.616zm1.472 4.45h-.26v-2.82c.812 0 1.348.086 1.604.259.256.173.385.529.385 1.073.002.99-.576 1.488-1.73 1.488zm6.85-13.131c-.15-3.755-1.64-7.465-4.501-10.325-6.043-6.044-15.876-6.044-21.92 0-6.044 6.043-6.044 15.877 0 21.92a15.376 15.376 0 0 0 7.78 4.195c2.145 3.759 6.18 6.303 10.81 6.303 6.859 0 12.439-5.578 12.439-12.438 0-3.893-1.8-7.371-4.607-9.655zm-4.04-6.544a13.397 13.397 0 0 1 1.904 5.15 12.352 12.352 0 0 0-5.662-1.393l3.758-3.757zm-15.84 11.6a6.257 6.257 0 0 1 0-8.839 6.254 6.254 0 0 1 8.838 0c.373.372.68.782.938 1.216-4.354.808-7.91 3.888-9.401 7.963a6.684 6.684 0 0 1-.375-.34zm-7.002 2.758A13.53 13.53 0 0 1 5.05 8.351l3.873 3.875a8.286 8.286 0 0 0 .02 6.574l-3.872 3.872zm18.6-18.6l-3.87 3.872a8.273 8.273 0 0 0-6.653.02l-3.87-3.869a13.524 13.524 0 0 1 14.394-.023zM9.316 26.915l2.367-2.368a12.4 12.4 0 0 0 .592 3.748 13.384 13.384 0 0 1-2.96-1.38zm14.808 8.035c-3.321 0-6.278-1.564-8.192-3.989a10.49 10.49 0 0 1-1.291-2.111 10.378 10.378 0 0 1-.955-4.336c0-.424.033-.84.082-1.251.08-.674.225-1.329.429-1.958a10.457 10.457 0 0 1 8.407-7.105 10.612 10.612 0 0 1 1.52-.124c.163 0 .32.018.483.024 1.977.091 3.816.722 5.359 1.768a10.7 10.7 0 0 1 1.875 1.643 10.383 10.383 0 0 1 2.723 7.005c-.002 5.75-4.683 10.434-10.44 10.434z" fill="#000"/><circle cx="13" cy="13" r="12" transform="translate(11 11)" stroke="#000" stroke-width="2"/></svg>