<svg xmlns="http://www.w3.org/2000/svg" fill="#707070" viewBox="0 0 507.456 507.456"><path d="M486.336 343.104a250.966 250.966 0 0 0-101.76-33.6 246.804 246.804 0 0 0 60-108.688l5.408-24.496-24.496 5.408a246.403 246.403 0 0 0-109.696 60.88l22.624 22.624a205.088 205.088 0 0 1 65.136-42.448 204.465 204.465 0 0 1-42.512 65.072 212.052 212.052 0 0 1-78.896 47.696 236.68 236.68 0 0 0 19.584-90.96 246.296 246.296 0 0 0-34.512-120.608l-13.488-21.12-13.488 21.12a246.296 246.296 0 0 0-34.512 120.608 236.804 236.804 0 0 0 19.6 91.056 211.202 211.202 0 0 1-78.912-47.744 204.702 204.702 0 0 1-42.464-65.104 204.533 204.533 0 0 1 65.088 42.48l22.624-22.624a246.407 246.407 0 0 0-109.696-60.8l-24.496-5.408 5.408 24.496a246.804 246.804 0 0 0 60 108.688 250.966 250.966 0 0 0-101.76 33.6L0 356.592l21.12 13.488a246.296 246.296 0 0 0 120.608 34.512 245.984 245.984 0 0 0 112-29.552 245.984 245.984 0 0 0 112 29.552 246.296 246.296 0 0 0 120.608-34.512l21.12-13.488-21.12-13.488zm-344.608 29.488a205.112 205.112 0 0 1-76-16 205.112 205.112 0 0 1 76-16h20.128a259.748 259.748 0 0 0 41.84 21.168 195.71 195.71 0 0 1-61.968 10.832zm112-52a205.053 205.053 0 0 1-16-76 205.112 205.112 0 0 1 16-76 205.112 205.112 0 0 1 16 76 205.053 205.053 0 0 1-16 76zm112 52a195.738 195.738 0 0 1-61.968-10.832 259.748 259.748 0 0 0 41.84-21.168h20.128a205.053 205.053 0 0 1 76 16 205.053 205.053 0 0 1-76 16z"/><path d="M125.728 132.592h32v32h-32zm224 0h32v32h-32z"/></svg>