<svg xmlns="http://www.w3.org/2000/svg" viewBox="0 0 490.387 490.387" width="24" height="24"><g fill="#FFF"><path d="M450.872 66.294H39.497C17.733 66.294 0 84.014 0 105.797V384.59c0 21.781 17.733 39.503 39.497 39.503h411.375c21.781 0 39.515-17.722 39.515-39.503V105.797c0-21.783-17.734-39.503-39.515-39.503zM348.751 409.006c-5.672 0-10.286-4.604-10.286-10.287 0-5.683 4.614-10.288 10.286-10.288 5.677 0 10.293 4.605 10.293 10.288s-4.616 10.287-10.293 10.287zm65.84 0c-5.67 0-10.286-4.604-10.286-10.287 0-5.683 4.616-10.288 10.286-10.288 5.679 0 10.287 4.605 10.287 10.288s-4.608 10.287-10.287 10.287zm26.413-34.294H49.384V115.673h391.62v259.039z"/><path d="M130.111 199.95h25.332v101.631c0 9.139 7.413 16.556 16.56 16.556 9.139 0 16.568-7.417 16.568-16.556V199.95h25.964c7.649 0 13.857-6.204 13.857-13.848 0-7.651-6.208-13.855-13.857-13.855h-84.424c-7.636 0-13.842 6.204-13.842 13.855.001 7.644 6.206 13.848 13.842 13.848zm152.704 106.832c2.168 6.767 8.477 11.355 15.575 11.355h14.85a16.331 16.331 0 0 0 15.497-11.13l38.127-113.197a16.339 16.339 0 0 0-2.218-14.755 16.318 16.318 0 0 0-13.27-6.808h-.392a16.604 16.604 0 0 0-15.735 11.332c-7.89 23.542-25.495 76.691-28.343 90.225l-27.339-89.436a17.136 17.136 0 0 0-16.381-12.121 17.147 17.147 0 0 0-13.84 7.033 17.103 17.103 0 0 0-2.473 15.328l35.942 112.174z"/></g></svg>