<svg xmlns="http://www.w3.org/2000/svg" fill="#707070" viewBox="0 0 297 297"><path d="M238.431 35.897L201.157 3.188A12.837 12.837 0 0 0 192.69 0H82.834c-7.09 0-12.582 5.747-12.582 12.837v43.448c0 7.09 5.492 12.948 12.582 12.948h27.05c-2.523 11.037-10.873 29.899-38.515 39.113-6.725 2.242-10.361 9.484-8.119 16.21 1.794 5.379 6.801 8.767 12.176 8.767a12.898 12.898 0 0 0 4.062-.669c18.86-6.287 31.374-16.166 39.665-26.109-1.537 14.583-11.27 33.035-22.246 41.35l-10.074 7.632c-18.3 13.862-32.634 42.704-32.634 65.662v28.636c0 26.136 21.263 47.175 47.398 47.175h82.946c12.937 0 24.615-4.992 32.883-14.258 8.237-9.232 11.969-21.301 10.508-34.085L210.666 97.722l29.988-45.082a12.819 12.819 0 0 0-2.223-16.743zm-40.163 230.047c-3.331 3.733-8.205 5.972-13.726 5.972h-82.946c-11.979 0-21.31-10.112-21.31-22.09V221.19c0-15.012 10.289-36.134 22.257-45.199l10.202-7.632c18.3-13.862 32.762-42.704 32.762-65.663V78.707l40.078 23.667 16.956 149.347c.618 5.415-.973 10.524-4.273 14.223zM193.41 77.333l-54.704-32.27c-1.971-1.156-4.214-1.918-6.499-1.918h-36.87V26.088h92.519l25.201 21.907-19.647 29.338z"/></svg>