<svg xmlns="http://www.w3.org/2000/svg" fill="#616161" viewBox="0 0 499.2 499.2"><path d="M469.333 394.667l-49.067 49.067-70.4-70.4c-8.533-8.533-21.333-8.533-29.867 0l-70.4 70.4-70.4-70.4c-8.533-8.533-21.333-8.533-29.867 0l-70.4 70.4-49.067-49.067L0 424.533l64 64c8.533 8.533 21.333 8.533 29.867 0l70.4-70.4 70.4 70.4c8.533 8.533 21.333 8.533 29.867 0l70.4-70.4 70.4 70.4c8.533 8.533 21.333 8.533 29.867 0l64-64-29.868-29.866z"/><path d="M249.6 4.267c-83.2 0-149.333 66.133-149.333 149.333 0 76.8 119.467 213.333 134.4 228.267 4.267 4.267 8.533 6.4 14.933 6.4s10.667-2.133 14.933-6.4c14.933-14.933 134.4-151.467 134.4-228.267C398.933 70.4 332.8 4.267 249.6 4.267zm0 330.666c-46.933-55.467-106.667-140.8-106.667-181.333 0-59.733 46.933-106.667 106.667-106.667S356.267 93.867 356.267 153.6c0 40.533-59.734 125.867-106.667 181.333z"/><path d="M249.6 89.6c-36.267 0-64 27.733-64 64s27.733 64 64 64 64-27.733 64-64-27.733-64-64-64zm0 85.333c-12.8 0-21.333-8.533-21.333-21.333 0-12.8 8.533-21.333 21.333-21.333s21.333 8.533 21.333 21.333c0 12.8-8.533 21.333-21.333 21.333z"/></svg>