<svg xmlns="http://www.w3.org/2000/svg" fill="#707070" viewBox="0 0 512 512"><path d="M503.6 79.707a20 20 0 0 0-18.146-2.605L276 149.651V96c0-11.046-8.954-20-20-20h-98V20c0-11.046-8.954-20-20-20s-20 8.954-20 20v56H20C8.954 76 0 84.954 0 96v396c0 11.046 8.954 20 20 20h472c11.046 0 20-8.954 20-20V96c0-6.47-3.13-12.541-8.4-16.293zM118 256v216H40V116h196v120h-98c-11.046 0-20 8.954-20 20zm158 216h-40v-65.999h40V472zm78 0h-38v-85.999c0-11.046-8.954-20-20-20h-80c-11.046 0-20 8.954-20 20V472h-38V276h196v196zm118 0h-78V256c0-11.046-8.954-20-20-20h-98v-44.018l196-67.889V472z"/></svg>