<svg xmlns="http://www.w3.org/2000/svg" viewBox="0 0 355.657 355.657"><path d="M355.195 92.612l-5.146-87.467L262.582 0l-39.073 43.497L84.317 3.809 5.704 82.423 142.74 133.41l-73.289 81.586-33.931-6.607L.462 243.445l77.312 34.901 34.9 77.31 35.058-35.057-6.899-35.426 80.952-72.719 50.987 137.037 78.613-78.613-39.687-139.193 43.497-39.073zM78.038 66.657L95.97 48.725l97.795 27.884-22.289 24.812-93.438-34.764zm51.404 160.021l-14.228-2.771L279.465 41.063l32.741 1.926 1.926 32.741-182.211 163.681-2.479-12.733zm177.027 32.548l-17.932 17.932-34.765-93.437 24.813-22.29 27.884 97.795z"/></svg>