<svg xmlns="http://www.w3.org/2000/svg" fill="#707070" viewBox="0 0 512.001 512.001"><path d="M245.551 138.449h20.898v47.02h-20.898zm135.837 114.939h47.02v20.898h-47.02zm-297.796 0h47.02v20.898h-47.02zm274.733-75.313l14.777 14.777-31.35 31.35-14.777-14.777zm-193.307 46.128l-31.349-31.35 14.777-14.776 31.35 31.349z"/><path d="M512 305.633H370.459c-5.298-58.498-54.604-104.49-114.459-104.49s-109.162 45.992-114.459 104.49H0v20.898h512v-20.898zm-349.457 0c5.214-46.953 45.134-83.592 93.457-83.592s88.243 36.638 93.457 83.592H162.543zm112.119 87.555c9.095-4.931 16.95-9.188 33.583-9.188v-20.898c-21.931 0-33.413 6.222-43.541 11.712-9.094 4.93-16.947 9.186-33.571 9.186-16.638 0-24.488-4.26-33.578-9.194-10.108-5.486-21.566-11.704-43.432-11.704-21.927 0-33.407 6.222-43.536 11.711C101.492 379.744 93.639 384 77.01 384c-16.562 0-24.394-4.251-33.463-9.173C33.421 369.331 21.943 363.103 0 363.103V384c16.638 0 24.488 4.26 33.578 9.194 10.108 5.486 21.566 11.704 43.432 11.704 21.927 0 33.407-6.222 43.535-11.711 9.095-4.93 16.948-9.187 33.577-9.187 16.562 0 24.394 4.251 33.463 9.173 10.126 5.496 21.603 11.725 43.547 11.725 21.925 0 33.403-6.221 43.53-11.71zm193.798 59.994c-9.095 4.93-16.948 9.186-33.573 9.186-16.642 0-24.492-4.261-33.584-9.195-10.107-5.486-21.564-11.703-43.426-11.703-21.931 0-33.413 6.222-43.541 11.712-9.094 4.93-16.947 9.186-33.572 9.186-16.562 0-24.394-4.251-33.463-9.173-10.126-5.496-21.604-11.725-43.547-11.725v20.898c16.638 0 24.488 4.26 33.578 9.194 10.108 5.486 21.565 11.704 43.432 11.704 21.923 0 33.402-6.221 43.529-11.71 9.095-4.931 16.95-9.188 33.583-9.188 16.558 0 24.39 4.251 33.459 9.172 10.126 5.496 21.605 11.726 43.552 11.726 21.923 0 33.402-6.221 43.529-11.71 9.095-4.931 16.95-9.188 33.583-9.188V441.47c-21.929 0-33.411 6.222-43.539 11.712zm-93.987-77.632c-7.626-5.546-17.115-12.448-34.881-12.448V384c10.969 0 15.843 3.545 22.589 8.45 7.626 5.546 17.115 12.448 34.881 12.448s27.255-6.902 34.881-12.448c6.746-4.905 11.619-8.45 22.589-8.45v-20.898c-17.765 0-27.255 6.902-34.881 12.448-6.746 4.905-11.619 8.45-22.589 8.45s-15.843-3.545-22.589-8.45zm-259.534 86.818c-10.969 0-15.844-3.545-22.589-8.45-7.626-5.546-17.115-12.448-34.881-12.448v20.898c10.969 0 15.844 3.545 22.589 8.45 7.626 5.546 17.115 12.448 34.881 12.448 17.765 0 27.255-6.902 34.881-12.448 6.746-4.905 11.619-8.45 22.589-8.45V441.47c-17.765 0-27.255 6.902-34.881 12.448-6.745 4.905-11.62 8.45-22.589 8.45zm256-412.735c5.762 0 10.449 4.687 10.449 10.449h20.898c0-5.762 4.687-10.449 10.449-10.449s10.449 4.687 10.449 10.449h20.898c0-17.285-14.062-31.347-31.347-31.347-8.023 0-15.349 3.032-20.898 8.008-5.549-4.976-12.875-8.008-20.898-8.008-17.285 0-31.347 14.062-31.347 31.347h20.898c0-5.761 4.687-10.449 10.449-10.449zM245.551 91.429c5.762 0 10.449 4.687 10.449 10.449h20.898c0-5.762 4.687-10.449 10.449-10.449s10.449 4.687 10.449 10.449h20.898c0-17.285-14.062-31.347-31.347-31.347-8.023 0-15.349 3.032-20.898 8.008-5.55-4.976-12.875-8.008-20.898-8.008-17.285 0-31.347 14.062-31.347 31.347h20.898c0-5.762 4.687-10.449 10.449-10.449zM88.816 70.531c5.762 0 10.449 4.687 10.449 10.449h20.898c0-5.762 4.687-10.449 10.449-10.449s10.449 4.687 10.449 10.449h20.898c0-17.285-14.062-31.347-31.347-31.347-8.023 0-15.349 3.032-20.898 8.008-5.55-4.976-12.875-8.008-20.898-8.008-17.285 0-31.347 14.062-31.347 31.347h20.898c0-5.761 4.688-10.449 10.449-10.449z"/></svg>