<svg xmlns="http://www.w3.org/2000/svg" viewBox="0 0 128 128"><path d="M75.05 113.5h-23.6C39.05 113.5 29 103.45 29 91.05V38.2c0-12.4 10.05-22.45 22.45-22.45h23.6c12.4 0 22.45 10.05 22.45 22.45v52.85c0 12.4-10.05 22.45-22.45 22.45z" fill="#666"/><path fill="#fff" d="M48.2 1.5c-3 .7-9.2 3.2-14 5.5-12.3 6.1-21.4 15.4-27.5 28.1C1.3 46.2 0 52 0 64s1.3 17.8 6.7 28.9C13 106 22 115 35.1 121.3 46.2 126.7 52 128 64 128s17.8-1.3 28.9-6.7c7.5-3.6 10.8-5.9 16.6-11.8 5.9-5.8 8.2-9.1 11.8-16.6C126.7 81.8 128 76 128 64s-1.3-17.8-6.7-28.9C115 22 106 13 92.9 6.7c-5.2-2.5-11.8-5-14.7-5.6-7-1.5-23.4-1.3-30 .4zm27 20.2c5.9 3.2 10.3 9.2 11.9 16C90.2 51.2 78.1 66 64 66S37.8 51.2 40.9 37.8c3.6-15.7 20.4-23.6 34.3-16.1zm-23 46.8c3.9 1.8 7 2.5 11.8 2.5s7.9-.7 11.8-2.5c6.3-2.9 8.9-3.1 12-.9 1.6 1.1 2.2 2.5 2.2 5.4 0 4.5-2.4 6.9-9.8 9.6-2.6 1-4.9 1.9-5.1 2.1s2.8 3.6 6.7 7.7c4 4.1 7.2 8.3 7.2 9.4 0 3.4-3.8 7.2-7.3 7.2-2.6 0-4.5-1.3-10.4-7.2L64 94.6l-7.3 7.2c-5.9 5.9-7.8 7.2-10.4 7.2-3.5 0-7.3-3.8-7.3-7.2 0-1.1 3.2-5.3 7.2-9.4 3.9-4.1 6.9-7.5 6.7-7.7s-2.5-1.1-5.1-2.1C40.4 79.9 38 77.5 38 73c0-2.9.6-4.3 2.2-5.4 3.1-2.2 5.7-2 12 .9z"/><path fill="#fff" d="M57.9 35.9C51.9 42 55.5 51 64 51s12.1-9 6.1-15.1c-4-3.9-8.2-3.9-12.2 0z"/></svg>