<svg xmlns="http://www.w3.org/2000/svg" fill="#0097A7" viewBox="0 0 512 512"><path d="M508.543 127.867c-27.992-41.472-79.585-67.235-134.648-67.235-45.437 0-88.495 17.554-117.895 46.989-29.4-29.436-72.457-46.989-117.895-46.989-55.063 0-106.656 25.763-134.648 67.235A20.124 20.124 0 0 0 .13 141.376c-.08.738-.13 1.485-.13 2.244v287.538c0 11.162 9.049 20.211 20.211 20.211H491.79c11.162 0 20.211-9.049 20.211-20.211V139.174a20.235 20.235 0 0 0-3.458-11.307zm-272.754 283.08H40.421v-13.68c21.274-27.674 58.104-44.653 97.684-44.653 39.574 0 76.411 16.966 97.684 44.632v13.701zm0-68.684c-27.369-19.114-61.785-30.069-97.684-30.069-35.895 0-70.316 10.949-97.684 30.06V145.706c21.274-27.674 58.105-44.653 97.684-44.653 39.572 0 76.408 16.966 97.684 44.63v196.58zm235.79 68.684H276.211v-13.68c21.274-27.674 58.104-44.653 97.684-44.653s76.411 16.98 97.684 44.653v13.68zm0-68.694c-27.366-19.111-61.789-30.06-97.684-30.06-35.899 0-70.316 10.955-97.684 30.069V145.706c21.274-27.674 58.105-44.653 97.684-44.653 39.572 0 76.408 16.966 97.684 44.63v196.57z"/><path d="M74.105 145.907h128v40.421h-128zm0 80.842h128v40.421h-128zm235.79-80.842h128v40.421h-128zm0 80.842h128v40.421h-128z"/></svg>