<svg xmlns="http://www.w3.org/2000/svg" fill="#707070" viewBox="0 0 512 512"><path d="M155.254 61.91C169.917 48.849 190 30.959 190 0h-40c0 12.393-8.113 20.249-21.353 32.042C115.885 43.411 100 57.56 100 80h40c0-4.503 7.755-11.41 15.254-18.09zM230 80c0-4.503 7.755-11.41 15.254-18.09C259.917 48.849 280 30.959 280 0h-40c0 12.393-8.113 20.249-21.353 32.042C205.885 43.411 190 57.56 190 80h40zm90 0c0-4.503 7.755-11.41 15.254-18.09C349.917 48.849 370 30.959 370 0h-40c0 12.393-8.113 20.249-21.353 32.042C295.885 43.411 280 57.56 280 80h40zm132 127h-37v-88H42v146.048C16.051 291.261 0 327.289 0 367c0 79.953 65.047 145 145 145 1.674 0 3.339-.039 5-.096V512h185c44.112 0 80-35.888 80-80v-33h37c33.084 0 60-26.916 60-60v-72c0-33.084-26.916-60-60-60zM145 472c-57.897 0-105-47.103-105-105 0-55.632 43.484-101.298 98.25-104.785.512 29.411 20.652 54.124 47.85 61.576 2.499 32.783 29.421 58.846 62.56 59.992C240.603 433.732 197.187 472 145 472zm230-40c0 22.056-17.944 40-40 40h-90.1c27.767-26.431 45.1-63.729 45.1-105 0-4.222-.087-8.69-1.128-12.849L285.086 339h-20.542l-3.99 1.843c-4.824 2.227-7.253 2.979-9.623 2.979-13.796 0-25.021-11.224-25.021-25.021 0-2.501.284-4.781.845-6.776l3.164-11.271-14.665-14.665h-11.992c-13.796 0-25.021-11.224-25.021-25.021 0-3.23.649-6.162 2.103-9.51l1.656-3.813v-22.229l-17.395-2.286c-6.037-.793-13-1.23-19.605-1.23-22.563 0-43.938 5.182-63 14.416V159h293v273zm97-93c0 11.028-8.972 20-20 20h-37V247h37c11.028 0 20 8.972 20 20v72z"/><circle cx="101" cy="412" r="20"/><circle cx="165" cy="389" r="20"/><circle cx="114" cy="325" r="20"/></svg>