<svg xmlns="http://www.w3.org/2000/svg" viewBox="0 0 512.004 512.004"><path d="M469.338 486.4l-32-183.467c-8.325-51.366-52.498-89.229-104.533-89.6h-12.8V64c0-35.346-28.654-64-64-64s-64 28.654-64 64v149.333h-12.8c-52.035.371-96.209 38.234-104.533 89.6l-32 183.467c-2.359 11.544 5.087 22.814 16.63 25.172 1.547.316 3.124.459 4.703.427h384c11.78.239 21.522-9.117 21.761-20.897a21.394 21.394 0 0 0-.428-4.702zM234.671 64c0-11.782 9.551-21.333 21.333-21.333S277.338 52.218 277.338 64v21.333h-42.667V64zm0 64h42.667v21.333h-42.667V128zm0 64h42.667v21.333h-42.667V192zM89.604 469.333l25.6-160c5.259-31.13 32.432-53.774 64-53.333h153.6c31.568-.441 58.741 22.204 64 53.333l25.6 160h-332.8z"/><path d="M341.338 298.667H170.671c-10.299-.208-19.275 6.973-21.333 17.067L128.004 422.4l42.667 8.533 17.067-89.6h136.533l17.067 89.6 42.667-8.533-21.333-106.667c-2.059-10.093-11.035-17.274-21.334-17.066z"/></svg>