<svg xmlns="http://www.w3.org/2000/svg" viewBox="0 0 512 512"><path d="M256 324.267c-18.773 0-34.133 15.36-34.133 34.133 0 18.773 15.36 34.133 34.133 34.133 18.773 0 34.133-15.36 34.133-34.133 0-18.773-15.36-34.133-34.133-34.133zm0 51.2c-9.387 0-17.067-7.68-17.067-17.067s7.68-17.067 17.067-17.067 17.067 7.68 17.067 17.067-7.68 17.067-17.067 17.067z"/><path d="M256.853 256.853c-27.307 0-52.907 10.24-72.533 29.867-1.707 1.707-2.56 3.413-2.56 5.973s.853 4.267 2.56 5.973l23.893 23.893c1.707 1.707 3.413 2.56 5.973 2.56 1.707 0 4.267-1.707 5.973-2.56 9.387-10.24 22.187-15.36 35.84-15.36s26.453 5.12 37.547 15.36c3.413 3.413 8.533 3.413 11.947 0l23.893-23.893c1.707-1.707 2.56-3.413 2.56-5.973s-.853-4.267-2.56-5.973c-19.626-19.627-45.226-29.867-72.533-29.867zm40.96 47.787c-11.947-9.387-26.453-14.507-41.813-14.507s-29.867 5.12-41.813 14.507l-11.947-11.947c15.36-12.8 34.133-19.627 53.76-19.627s38.4 6.827 53.76 19.627l-11.947 11.947z"/><path d="M256 187.733c-45.227 0-87.893 17.92-120.32 50.347-3.413 3.413-3.413 8.533 0 11.947l23.893 23.893c1.707 1.707 3.413 2.56 5.973 2.56s4.267-.853 5.973-2.56c23.04-22.187 52.907-34.987 84.48-34.987 31.573 0 62.293 12.8 84.48 34.987 1.707 1.707 3.413 2.56 5.973 2.56s4.267-.853 5.973-2.56l23.893-23.893c3.413-3.413 3.413-8.533 0-11.947-31.571-32.427-75.091-50.347-120.318-50.347zM346.453 256c-24.747-22.187-57.173-34.133-90.453-34.133S191.147 233.814 165.547 256L153.6 244.053c28.16-25.6 64-39.253 102.4-39.253 38.4 0 74.24 13.653 102.4 39.253L346.453 256z"/><path d="M424.96 189.44C379.733 144.213 320 119.467 256 119.467s-123.733 24.747-168.107 70.827c-3.413 3.413-3.413 8.533 0 11.947l23.893 23.893c3.413 3.413 8.533 3.413 11.947 0 34.987-35.84 81.92-55.467 132.267-55.467s97.28 19.627 133.12 54.613c1.707 1.707 3.413 2.56 5.973 2.56 1.707 0 4.267-.853 5.973-1.707l23.893-24.747c3.414-3.413 3.414-8.533.001-11.946zm-30.72 17.92C356.693 172.373 308.053 153.6 256 153.6s-100.693 18.773-139.093 53.76l-11.947-11.947c41.813-37.547 94.72-58.88 151.04-58.88s109.227 21.333 150.187 58.88L394.24 207.36z"/><path d="M256 0C115.2 0 0 115.2 0 256s115.2 256 256 256 256-115.2 256-256S396.8 0 256 0zm0 494.933c-131.413 0-238.933-107.52-238.933-238.933S124.587 17.067 256 17.067 494.933 124.587 494.933 256 387.413 494.933 256 494.933z"/></svg>