<svg xmlns="http://www.w3.org/2000/svg" fill="#707070" viewBox="0 0 512.012 512.012"><path d="M479.428 53.723l-29.427-17.656A252.946 252.946 0 0 0 322.507.025c-.875-.016-1.76-.025-2.68-.025H192.168c-.854 0-1.689.008-2.52.024A252.885 252.885 0 0 0 62.005 36.071L32.571 53.73C12.371 65.831.006 87.669.006 111.234c0 52.124 56.872 84.315 101.575 57.506l5.092-3.056v280.035c0 31.9 22.211 60.352 53.405 65.43 39.431 6.388 74.595-23.788 74.595-63.147v-83.051c0-11.697 7.83-21.728 17.593-23.317 13.369-2.166 25.074 7.879 25.074 21.034v83.051c0 31.9 22.211 60.352 53.405 65.43 39.419 6.418 74.595-23.779 74.595-63.147V165.685l5.087 3.052c44.708 26.812 101.58-5.379 101.58-57.503-.001-23.565-12.366-45.403-32.579-57.511zM316.227 42.669c-8.769 24.887-32.432 42.664-60.23 42.664-27.798 0-51.461-17.778-60.23-42.664h120.46zm116.149 89.48l-37.392-22.439c-14.219-8.533-32.311 1.709-32.311 18.292v320c0 13.162-11.706 23.211-25.073 21.035-9.763-1.589-17.593-11.62-17.593-23.317v-83.051c0-39.359-35.164-69.535-74.58-63.149-31.21 5.08-53.42 33.532-53.42 65.432v83.051c0 13.155-11.705 23.2-25.09 21.032-9.747-1.586-17.577-11.617-17.577-23.315V128.002c0-16.583-18.092-26.825-32.311-18.292l-37.397 22.443c-16.264 9.754-36.959-1.961-36.959-20.918a24.37 24.37 0 0 1 11.838-20.91l29.452-17.672a210.144 210.144 0 0 1 68.484-26.191C163.737 93.293 205.822 128 255.998 128s92.262-34.708 103.55-81.541a210.278 210.278 0 0 1 68.499 26.193l29.442 17.665a24.377 24.377 0 0 1 11.851 20.917c-.001 18.958-20.696 30.672-36.964 20.915z"/><path d="M256.002 170.669c-11.782 0-21.333 9.551-21.333 21.333v42.667c0 11.782 9.551 21.333 21.333 21.333s21.333-9.551 21.333-21.333v-42.667c0-11.782-9.551-21.333-21.333-21.333z"/></svg>