<svg viewBox="0 0 512 512" xmlns="http://www.w3.org/2000/svg"><path d="M496.332 75.309h-222.11V15.164C274.223 6.79 267.435 0 259.06 0s-15.164 6.79-15.164 15.164V75.31H15.165C6.788 75.309 0 82.098 0 90.473v406.363C0 505.21 6.79 512 15.164 512h481.168c8.375 0 15.164-6.79 15.164-15.164V90.473c0-8.375-6.789-15.164-15.164-15.164zM243.895 134.46v17.05c0 8.376 6.789 15.165 15.164 15.165s15.164-6.79 15.164-15.164V134.46c9.664 5.355 16.222 15.66 16.222 27.469 0 17.308-14.082 31.386-31.386 31.386-17.305 0-31.387-14.078-31.387-31.386 0-11.809 6.558-22.11 16.223-27.47zm237.273 347.215H30.324V105.633h203.504c-21.48 9.668-36.48 31.258-36.48 56.297 0 34.027 27.683 61.71 61.71 61.71s61.712-27.683 61.712-61.71c0-25.04-15-46.63-36.48-56.297h196.878zm0 0"/><path d="M212.266 328.516a40.181 40.181 0 0 0 5.464-20.266c0-22.297-18.14-40.434-40.437-40.434-22.293 0-40.434 18.141-40.434 40.434 0 7.383 1.996 14.3 5.465 20.266a77.593 77.593 0 0 0-13.57 10.578c-12.723 12.375-20.316 28.113-20.316 42.105 0 8.375 6.789 15.164 15.164 15.164h107.386c8.375 0 15.164-6.789 15.164-15.164 0-13.992-7.597-29.73-20.32-42.105-4.223-4.11-8.777-7.645-13.566-10.578zm-45.082-20.266c0-5.574 4.535-10.11 10.109-10.11s10.11 4.536 10.11 10.11-4.536 10.11-10.11 10.11-10.11-4.532-10.11-10.11zm-21.914 57.785c6.816-8.953 18.41-17.347 32.023-17.347 13.617 0 25.21 8.394 32.023 17.347zm0 0"/><path d="M177.293 222.137c-66.746 0-121.047 54.304-121.047 121.05s54.3 121.051 121.047 121.051c66.75 0 121.05-54.304 121.05-121.05s-54.3-121.051-121.05-121.051zm0 211.773c-50.023 0-90.723-40.7-90.723-90.722 0-50.028 40.7-90.727 90.723-90.727 50.027 0 90.727 40.7 90.727 90.726 0 50.024-40.7 90.723-90.727 90.723zm158.648-98.32h59.305c8.375 0 15.164-6.79 15.164-15.16 0-8.375-6.789-15.164-15.164-15.164h-59.305c-8.375 0-15.164 6.789-15.164 15.164 0 8.37 6.79 15.16 15.164 15.16zm0 46.594h101.762c8.371 0 15.16-6.79 15.16-15.164s-6.789-15.165-15.16-15.165H335.941c-8.375 0-15.164 6.79-15.164 15.165s6.79 15.164 15.164 15.164zm0 45.609h101.762c8.371 0 15.16-6.79 15.16-15.164s-6.789-15.164-15.16-15.164H335.941c-8.375 0-15.164 6.789-15.164 15.164s6.79 15.164 15.164 15.164zm0 0"/></svg>