<svg xmlns="http://www.w3.org/2000/svg" fill="#707070" viewBox="0 0 169.984 169.984"><circle cx="46.402" cy="128.151" r="8.5"/><circle cx="123.583" cy="128.151" r="8.5"/><path d="M62.527 35.984h42.132c4.143 0 7.5-3.358 7.5-7.5s-3.357-7.5-7.5-7.5H62.527a7.5 7.5 0 0 0 0 15z"/><path d="M157.742 36.484c-.251 0-.499.013-.744.038v-5.11C156.998 14.091 142.907 0 125.587 0H44.398c-17.32 0-31.412 14.091-31.412 31.412v5.11a7.5 7.5 0 0 0-8.244 7.462v37.5a7.5 7.5 0 0 0 8.244 7.462v59.9a7.5 7.5 0 0 0 7.5 7.5H34.38v6.138a7.5 7.5 0 0 0 7.5 7.5h9.09a7.5 7.5 0 0 0 7.5-7.5v-6.138h53.045v6.138a7.5 7.5 0 0 0 7.5 7.5h9.091a7.5 7.5 0 0 0 7.5-7.5v-6.138h13.893a7.5 7.5 0 0 0 7.5-7.5v-59.9a7.5 7.5 0 0 0 8.244-7.462v-37.5a7.501 7.501 0 0 0-7.501-7.5zM27.986 58.33h114.012v41.709H27.986V58.33zM44.398 15h81.188c9.049 0 16.411 7.362 16.411 16.412V43.33H27.986V31.412c0-9.05 7.362-16.412 16.412-16.412zM27.986 141.346v-26.307h114.012v26.307H27.986z"/></svg>