<svg xmlns="http://www.w3.org/2000/svg" viewBox="0 0 491.546 491.546"><path d="M143.373 245.76h-40.96c-11.311 0-20.48 9.169-20.48 20.48s9.169 20.48 20.48 20.48h40.96c33.941 0 61.44-27.499 61.44-61.44s-27.499-61.44-61.44-61.44c-11.32 0-20.48-9.16-20.48-20.48s9.16-20.48 20.48-20.48h40.96c11.311 0 20.48-9.169 20.48-20.48s-9.169-20.48-20.48-20.48h-40.96c-33.941 0-61.44 27.499-61.44 61.44s27.499 61.44 61.44 61.44c11.32 0 20.48 9.16 20.48 20.48s-9.16 20.48-20.48 20.48z"/><path d="M471.053 0H20.493C9.182 0 .013 9.169.013 20.48v327.68c0 11.311 9.169 20.48 20.48 20.48h204.8v102.4c0 15.224 16.022 25.126 29.639 18.318l72.761-36.38 72.761 36.38c13.617 6.809 29.639-3.093 29.639-18.318v-102.4h40.96c11.311 0 20.48-9.169 20.48-20.48V20.48c0-11.311-9.169-20.48-20.48-20.48zm-143.36 327.68c-33.93 0-61.44-27.51-61.44-61.44 0-33.93 27.51-61.44 61.44-61.44 33.93 0 61.44 27.51 61.44 61.44 0 33.93-27.51 61.44-61.44 61.44zm61.44 110.223l-52.281-26.141a20.48 20.48 0 0 0-18.318 0l-52.281 26.141v-89.737l.066.047c.943.707 1.902 1.394 2.87 2.069l.618.429c.964.662 1.938 1.311 2.926 1.94.145.092.291.181.436.272.925.583 1.861 1.152 2.806 1.706.161.094.32.191.481.284a101.081 101.081 0 0 0 3.735 2.055 99.787 99.787 0 0 0 3.201 1.615c.074.036.15.069.224.104 1.034.494 2.08.968 3.134 1.428.209.091.417.184.626.274 1.081.464 2.172.909 3.272 1.336.218.085.438.166.657.25 1.094.416 2.194.818 3.306 1.197.058.02.116.042.174.061 1.148.389 2.307.753 3.473 1.102.242.072.483.145.725.216 1.146.334 2.3.651 3.462.946.194.049.389.094.583.142 1.094.271 2.194.524 3.301.759.162.034.323.072.485.106a100.999 100.999 0 0 0 4.358.799c1.211.197 2.428.377 3.654.531.132.017.265.029.397.045 1.155.14 2.316.259 3.482.36.222.019.444.041.667.059a102.418 102.418 0 0 0 4.467.258c1.28.047 2.563.079 3.854.079s2.575-.032 3.854-.079c.257-.01.514-.018.77-.029 1.238-.055 2.47-.131 3.697-.229.223-.018.444-.04.667-.059 1.167-.101 2.328-.22 3.483-.36l.396-.045c1.225-.154 2.442-.334 3.654-.531l.775-.128c1.201-.204 2.397-.426 3.583-.671.162-.034.322-.071.484-.105 1.108-.235 2.208-.489 3.303-.76.194-.048.388-.093.582-.142a102.042 102.042 0 0 0 4.188-1.162 101.63 101.63 0 0 0 3.474-1.102c.058-.02.116-.042.174-.061a99.28 99.28 0 0 0 3.306-1.198c.219-.083.438-.165.656-.249 1.1-.427 2.191-.872 3.272-1.336.21-.09.419-.183.628-.275 1.052-.46 2.097-.933 3.13-1.426l.227-.106c1.078-.518 2.143-1.06 3.201-1.615.22-.116.441-.231.66-.348 1.035-.553 2.061-1.12 3.074-1.707.162-.094.322-.191.483-.286.944-.554 1.879-1.122 2.803-1.704.146-.092.293-.181.439-.274a100.61 100.61 0 0 0 3.544-2.37c.967-.674 1.925-1.361 2.867-2.067l.067-.048v89.74zm61.44-110.223h-20.48v-61.44c0-56.551-45.849-102.4-102.4-102.4-56.551 0-102.4 45.849-102.4 102.4v61.44H40.973V40.96h409.6v286.72z"/></svg>