<svg xmlns="http://www.w3.org/2000/svg" fill="#707070" viewBox="0 0 350 350"><path d="M335 9.999H15c-8.284 0-15 6.715-15 15v120c0 8.284 6.716 15 15 15h55v165c0 8.284 6.716 15 15 15h109.967l.017.001.021-.001H265c8.284 0 15-6.716 15-15v-165h55c8.284 0 15-6.716 15-15v-120c0-8.284-6.716-15-15-15zm-235 300V274.14a64.357 64.357 0 0 1 35.858 35.859H100zM250 310h-35.898A64.4 64.4 0 0 1 250 274.1V310zm0-67.39c-16.066 4.275-30.926 12.755-42.779 24.609-11.854 11.853-20.333 26.713-24.609 42.779H167.35c-4.275-16.057-12.749-30.906-24.597-42.754-11.847-11.848-26.697-20.321-42.753-24.596V99.999h150V242.61zm70-112.612h-40V99.127c5.822-2.062 10-7.6 10-14.128 0-8.284-6.716-15-15-15H75c-8.284 0-15 6.716-15 15 0 6.528 4.178 12.066 10 14.128v30.872H30v-90h290v89.999z"/><path d="M175.002 238.732c24.178 0 43.117-23.88 43.117-54.365 0-30.487-18.939-54.368-43.117-54.368-24.18 0-43.121 23.881-43.121 54.368 0 30.485 18.941 54.365 43.121 54.365zm0-78.734c5.349 0 13.117 9.493 13.117 24.368 0 14.873-7.768 24.365-13.117 24.365-5.35 0-13.121-9.492-13.121-24.365 0-14.874 7.771-24.368 13.121-24.368z"/></svg>