<svg xmlns="http://www.w3.org/2000/svg" fill="#616161" viewBox="0 0 512 512"><path d="M184 192c8.836 6.627 21.373 4.837 28-4l44-58.667L300 188c6.585 8.779 19.107 10.67 28 4 8.837-6.627 10.627-19.164 4-28l-60-80a20 20 0 0 0-32 0l-60 80c-6.627 8.836-4.837 21.373 4 28zm144 128c-8.837-6.627-21.373-4.837-28 4l-44 58.667L212 324c-6.627-8.836-19.162-10.629-28-4-8.837 6.627-10.627 19.164-4 28l60 80a20 20 0 0 0 32 0l60-80c6.627-8.836 4.837-21.373-4-28z"/><path d="M492 0H20C8.954 0 0 8.954 0 20v472c0 11.046 8.954 20 20 20h472c11.046 0 20-8.954 20-20V20c0-11.046-8.954-20-20-20zm-20 472H40V40h432v432z"/><path d="M196 276h120c11.046 0 20-8.954 20-20s-8.954-20-20-20H196c-11.046 0-20 8.954-20 20s8.954 20 20 20z"/></svg>