<svg xmlns="http://www.w3.org/2000/svg" fill="#616161" width="973.367" height="973.367"><path d="M1.125 0v565.479h382.283c4.293 29.471 11.418 64.189 23.185 101.183 19.36 60.863 47.349 115.438 83.186 162.205 45.082 58.831 102.567 105.198 170.861 137.812l14.007 6.688 14.006-6.688c68.294-32.614 125.779-78.981 170.861-137.812 35.837-46.768 63.824-101.342 83.186-162.205 32.747-102.946 29.545-188.293 29.393-191.876l-1.192-28.078-27.957-2.871c-34.271-3.521-66.315-11.38-94.815-20.962V0H1.125zm782 195.337h-717v-30.578h717v30.578zM66.125 65h717v34.759h-717V65zm814.631 581.958c-17.077 53.685-41.583 101.586-72.837 142.373-35.671 46.55-80.449 84.066-133.273 111.69-52.445-27.427-96.968-64.607-132.507-110.691-31.221-40.483-55.766-88.037-72.953-141.34-9.688-30.045-15.937-58.612-19.958-83.512-3.979-24.627-5.779-45.666-6.57-60.981a491.361 491.361 0 0 0 21.188-4.019c99.133-21.019 175.635-68.645 210.8-93.753 21.779 15.551 59.424 39.743 108.479 60.9 19.889 8.579 41.655 16.657 65 23.46 18.57 5.411 38.138 10.015 58.557 13.418-1.539 30.335-7.069 83.174-25.926 142.455zM766.64 387.382c-44.042-23.777-70.763-46.108-70.985-46.297l-21.009-17.8-21.011 17.801c-1.038.88-105.527 88.189-247.284 102.75l-27.955 2.871-1.194 28.078c-.048 1.128-.397 10.363.167 25.693H66.125V260.337h717v135.572a532.469 532.469 0 0 1-16.485-8.527z"/><path d="M777.99 549.207l-16.273 16.272-29.073 29.074-84.791 84.791-42.972-42.973-11.646-11.646-22.982 22.98-22.982 22.981 100.582 100.582 176.098-176.099-29.69-29.69zM100.655 405.985h62.997v62.997h-62.997z"/></svg>