<svg xmlns="http://www.w3.org/2000/svg" fill="#616161" viewBox="0 0 512.001 512.001"><path d="M211 120c0-12.923 6.491-22.225 17.963-37.553C243.236 63.376 261 39.641 261 0h-40c0 26.33-11.15 41.229-24.061 58.479C184.78 74.725 171 93.138 171 120h40zm90 0c0-12.923 6.491-22.225 17.963-37.553C333.236 63.376 351 39.641 351 0h-40c0 26.33-11.15 41.229-24.061 58.479C274.78 74.725 261 93.138 261 120h40zM138.963 82.447C153.236 63.376 171 39.641 171 0h-40c0 26.33-11.15 41.229-24.061 58.479C94.78 74.725 81 93.138 81 120h40c0-12.923 6.491-22.224 17.963-37.553zM492.05 262.961C478.952 249.444 461.579 242 443.132 242h-29.131v-82h-414v231.615c-.104 32.345 12.326 62.686 35.001 85.434C57.468 499.588 87.414 512 119.322 512h174.679c63.873 0 116.245-50.165 119.801-113.164 22.242-2.438 42.376-8.672 58.09-18.168 25.865-15.628 40.109-40.016 40.109-68.668 0-18.346-7.085-35.761-19.951-49.039zM374 392c0 44.112-35.888 80-80 80H119.322c-21.199 0-41.084-8.235-55.989-23.189-15.116-15.164-23.401-35.431-23.332-57.132V200H374v192zm40.001-33.483V282h29.131c15.649 0 28.869 13.738 28.869 30 0 28.586-27.922 42.289-58 46.517z"/></svg>