<svg xmlns="http://www.w3.org/2000/svg" viewBox="0 0 512 512"><path d="M256 0c-84.693 0-153.6 68.907-153.6 153.6v281.6a8.53 8.53 0 0 0 8.533 8.533h290.133a8.53 8.53 0 0 0 8.533-8.533V153.6C409.6 68.907 340.693 0 256 0zm136.533 426.667H119.467V153.6c0-75.281 61.244-136.533 136.533-136.533S392.533 78.319 392.533 153.6v273.067z"/><path d="M256 34.133c-65.877 0-119.467 53.589-119.467 119.467v281.6a8.53 8.53 0 0 0 8.533 8.533h221.867a8.53 8.53 0 0 0 8.533-8.533V153.6C375.467 87.723 321.877 34.133 256 34.133zm102.4 392.534H153.6V153.6c0-56.465 45.935-102.4 102.4-102.4s102.4 45.935 102.4 102.4v273.067z"/><path d="M426.667 426.667H85.333A8.53 8.53 0 0 0 76.8 435.2v34.133a8.53 8.53 0 0 0 8.533 8.533h341.333a8.53 8.53 0 0 0 8.533-8.533V435.2a8.53 8.53 0 0 0-8.532-8.533zm-8.534 34.133H93.867v-17.067h324.267V460.8z"/><path d="M416.862 464.853a8.546 8.546 0 0 0-7.262-4.053H102.4a8.557 8.557 0 0 0-7.262 4.045 8.538 8.538 0 0 0-.375 8.303l17.067 34.133a8.542 8.542 0 0 0 7.637 4.719h273.067a8.55 8.55 0 0 0 7.637-4.71l17.067-34.133a8.543 8.543 0 0 0-.376-8.304zm-29.602 30.08H124.74l-8.533-17.067h279.586l-8.533 17.067zM256 145.067H145.067a8.53 8.53 0 0 0-8.533 8.533v281.6a8.53 8.53 0 0 0 8.533 8.533H256a8.53 8.53 0 0 0 8.533-8.533V153.6a8.53 8.53 0 0 0-8.533-8.533zm-8.533 281.6H153.6V162.133h93.867v264.534z"/><path d="M256 145.067H145.067a8.53 8.53 0 0 0-8.533 8.533v136.533a8.53 8.53 0 0 0 8.533 8.533H256a8.53 8.53 0 0 0 8.533-8.533V153.6a8.53 8.53 0 0 0-8.533-8.533zM247.467 281.6H153.6V162.133h93.867V281.6z"/><path d="M256 281.6H145.067a8.53 8.53 0 0 0-8.533 8.533V435.2a8.53 8.53 0 0 0 8.533 8.533H256a8.53 8.53 0 0 0 8.533-8.533V290.133A8.53 8.53 0 0 0 256 281.6zm-8.533 145.067H153.6v-128h93.867v128z"/><path d="M366.933 145.067H256a8.53 8.53 0 0 0-8.533 8.533v281.6a8.53 8.53 0 0 0 8.533 8.533h110.933a8.53 8.53 0 0 0 8.533-8.533V153.6a8.53 8.53 0 0 0-8.533-8.533zm-8.533 281.6h-93.867V162.133H358.4v264.534z"/><path d="M366.933 145.067H256a8.53 8.53 0 0 0-8.533 8.533v136.533a8.53 8.53 0 0 0 8.533 8.533h110.933a8.53 8.53 0 0 0 8.533-8.533V153.6a8.53 8.53 0 0 0-8.533-8.533zM358.4 281.6h-93.867V162.133H358.4V281.6z"/><path d="M366.933 281.6H256a8.53 8.53 0 0 0-8.533 8.533V435.2a8.53 8.53 0 0 0 8.533 8.533h110.933a8.53 8.53 0 0 0 8.533-8.533V290.133a8.53 8.53 0 0 0-8.533-8.533zM358.4 426.667h-93.867v-128H358.4v128zm-19.567-355.9a8.523 8.523 0 0 0-12.066 0l-76.8 76.8a8.523 8.523 0 0 0 0 12.066 8.51 8.51 0 0 0 6.033 2.5 8.509 8.509 0 0 0 6.033-2.5l76.8-76.8a8.523 8.523 0 0 0 0-12.066z"/><path d="M262.033 147.567l-76.8-76.8a8.523 8.523 0 0 0-12.066 0 8.523 8.523 0 0 0 0 12.066l76.8 76.8a8.51 8.51 0 0 0 6.033 2.5 8.509 8.509 0 0 0 6.033-2.5 8.523 8.523 0 0 0 0-12.066z"/><path d="M256 34.133a8.53 8.53 0 0 0-8.533 8.533V153.6c0 4.719 3.823 8.533 8.533 8.533s8.533-3.814 8.533-8.533V42.667A8.531 8.531 0 0 0 256 34.133z"/></svg>