<svg xmlns="http://www.w3.org/2000/svg" fill="#707070" viewBox="0 0 529.578 529.578"><path d="M176.526 250.804h-4.973c-4.973 2.486-9.945 4.973-12.431 9.945-2.486 4.973-2.486 9.945-2.486 14.918 2.486 7.459 9.945 14.918 19.89 14.918h4.973c9.945-2.486 17.404-14.918 12.431-24.863 0-9.946-9.945-14.918-17.404-14.918z"/><path d="M517.147 332.851h-49.726c-7.459 0-12.431 4.973-12.431 12.431v62.157h-99.451V352.74l27.349-7.459c2.486 0 4.973-2.486 7.459-4.973 2.486-2.486 2.486-7.459 0-9.945l-9.945-37.294 131.773-37.294c7.459-2.486 9.945-9.945 7.459-14.918l-62.157-213.82c0-2.486-2.486-4.973-4.973-7.459-2.486-2.486-7.459-2.486-9.945 0L9.945 143.894c-4.973 0-9.945 4.973-9.945 9.945s2.486 9.945 7.459 12.431l57.185 22.377 4.973 17.404C29.836 218.482 7.46 260.749 19.891 300.53c9.945 34.808 39.781 57.185 74.588 57.185 7.459 0 12.431 0 19.89-2.486v4.973c2.486 4.973 7.459 9.945 12.431 9.945h2.486l131.773-37.294 9.945 34.808c0 2.486 2.486 4.973 4.973 7.459 2.486 0 4.973 2.486 4.973 2.486h2.486l44.753-12.431v59.671c0 7.459 4.973 12.431 12.431 12.431h114.37v62.157c0 7.459 4.973 12.431 12.431 12.431h49.726c7.459 0 12.431-4.973 12.431-12.431V350.255c0-12.431-4.972-17.404-12.431-17.404zM52.212 156.325l387.86-111.883 14.918 47.239L126.8 186.16l-44.753-17.404c0-2.486-4.973-2.486-7.459-2.486l-22.376-9.945zm-9.945 136.746c-7.459-27.349 7.459-54.698 34.808-64.643l29.835 99.451c-27.349 7.458-57.184-7.459-64.643-34.808zm52.212-94.479l27.349 9.945h7.459l330.676-94.479L494.77 233.4 134.259 337.824l-39.78-139.232zM285.922 320.42l72.102-19.89 7.459 24.863-72.102 19.89-7.459-24.863zm193.931 87.02h24.863v24.863h-24.863V407.44zm0-49.726h24.863v24.863h-24.863v-24.863zm24.862 124.314h-24.863v-24.863h24.863v24.863z"/><path d="M382.888 191.133L213.82 240.859c-4.973 2.486-7.459 9.945-7.459 17.404 2.486 4.973 7.459 9.945 12.431 9.945h2.486l169.067-49.726c7.459-2.486 9.945-9.945 7.459-14.918s-7.458-14.917-14.916-12.431z"/></svg>