<svg xmlns="http://www.w3.org/2000/svg" viewBox="0 0 512 512"><path d="M490.667 216.553H448v-42.667c0-36.267-27.733-64-64-64V82.153c0-42.667-42.667-72.533-83.2-61.867l-285.867 89.6C6.4 114.153 0 122.687 0 131.22v341.333c0 12.8 8.533 21.333 21.333 21.333H384c36.267 0 64-27.733 64-64V387.22h42.667c12.8 0 21.333-8.533 21.333-21.333v-128c0-12.8-8.533-21.334-21.333-21.334zM313.6 62.953c12.8-4.267 27.733 6.4 27.733 21.333v25.6h-179.2L313.6 62.953zm91.733 366.934c0 12.8-8.533 21.333-21.333 21.333H42.667V152.553H384c12.8 0 21.333 8.533 21.333 21.333v42.667c-36.267 0-64 27.733-64 64v42.667c0 36.267 27.733 64 64 64v42.667zm64-85.334h-64c-12.8 0-21.333-8.533-21.333-21.333v-42.667c0-12.8 8.533-21.333 21.333-21.333h64v85.333z"/><path d="M277.333 259.22v-21.333c0-23.467-19.2-42.667-42.667-42.667v-21.333H192v21.333c-23.467 0-42.667 19.2-42.667 42.667v42.667c0 23.467 19.2 42.667 42.667 42.667h42.667v42.667H192v-21.333h-42.667v21.333c0 23.467 19.2 42.667 42.667 42.667v21.333h42.667v-21.333c23.467 0 42.667-19.2 42.667-42.667V323.22c0-23.467-19.2-42.667-42.667-42.667H192v-42.667h42.667v21.333h42.666z"/><circle cx="426.667" cy="301.887" r="21.333"/></svg>