<svg xmlns="http://www.w3.org/2000/svg" fill="#707070" viewBox="0 0 360 360"><path d="M315 139.994a44.79 44.79 0 0 0-15 2.58v-40.181c0-23.373-19.023-42.388-42.404-42.388H102.402C79.021 60.006 60 79.021 60 102.394v40.181a44.79 44.79 0 0 0-15-2.58c-24.813 0-45 20.187-45 45v40c0 24.813 20.187 45 45 45a44.79 44.79 0 0 0 15-2.58v17.58c0 8.284 6.716 15 15 15s15-6.716 15-15v-15h180v15c0 8.284 6.716 15 15 15 8.284 0 15-6.716 15-15v-17.58a44.79 44.79 0 0 0 15 2.58c24.813 0 45-20.187 45-45v-40c0-24.814-20.187-45.001-45-45.001zM102.402 90.006h155.193c6.84 0 12.404 5.557 12.404 12.388v80.181a44.79 44.79 0 0 0-15-2.58H105a44.79 44.79 0 0 0-15 2.58v-80.181c0-6.831 5.563-12.388 12.402-12.388zM45 239.994c-8.271 0-15-6.729-15-15v-40c0-8.271 6.729-15 15-15s15 6.729 15 15v40c0 8.271-6.729 15-15 15zm60 0c-8.271 0-15-6.729-15-15s6.729-15 15-15h150c8.271 0 15 6.729 15 15s-6.729 15-15 15H105zm225-15c0 8.271-6.729 15-15 15s-15-6.729-15-15v-40c0-8.271 6.729-15 15-15s15 6.729 15 15v40z"/></svg>