<svg xmlns="http://www.w3.org/2000/svg" fill="#707070" viewBox="0 0 512 512"><path d="M469.333 64H42.667C19.103 64 0 83.103 0 106.667v298.667C0 428.898 19.103 448 42.667 448h426.667C492.898 448 512 428.898 512 405.333V106.667C512 83.103 492.898 64 469.333 64zm0 341.333H42.667V256h426.667v149.333zm0-192H42.667V192h426.667v21.333zm0-64H42.667v-42.667h426.667v42.667z"/><path d="M298.667 298.667h128v42.667h-128zM85.333 384h149.333c11.782 0 21.333-9.551 21.333-21.333v-64c0-11.782-9.551-21.333-21.333-21.333H85.333c-11.782 0-21.333 9.551-21.333 21.333v64C64 374.449 73.551 384 85.333 384zm21.334-64h106.667v21.333H106.667V320z"/></svg>