<svg xmlns="http://www.w3.org/2000/svg" fill="#707070" viewBox="0 0 512 512"><path d="M378.711 394.061c-9.87-4.963-21.892-.983-26.853 8.884-21.417 42.596-64.312 69.056-111.949 69.056-69.043 0-125.214-56.171-125.214-125.214 0-36.985 16.232-71.888 44.534-95.76 8.444-7.122 9.515-19.74 2.394-28.183-7.122-8.447-19.743-9.515-28.183-2.394-37.333 31.489-58.745 77.537-58.745 126.336 0 91.1 74.114 165.214 165.214 165.214 63.296 0 119.937-35.897 147.686-91.087 4.962-9.869.984-21.892-8.884-26.852z"/><path d="M430.654 359.107l-109.698-98.334a20 20 0 0 0-13.35-5.107h-81.271v-22.575h65.818c11.046 0 20-8.954 20-20s-8.954-20-20-20h-65.818v-12.268c40.874-9.148 71.515-45.714 71.515-89.307C297.85 41.054 256.796 0 206.335 0c-50.462 0-91.516 41.054-91.516 91.516 0 43.593 30.641 80.159 71.516 89.307v94.843c0 11.046 8.954 20 20 20h93.619l104.001 93.227c8.216 7.365 20.861 6.69 28.242-1.543 7.373-8.225 6.682-20.87-1.543-28.243zM154.819 91.516c0-28.407 23.11-51.516 51.516-51.516 28.405 0 51.515 23.109 51.515 51.515s-23.11 51.515-51.515 51.515c-28.406 0-51.516-23.109-51.516-51.514z"/></svg>