<svg xmlns="http://www.w3.org/2000/svg" fill="#707070" viewBox="0 0 512 512"><path d="M445.867 343.467v-66.133c0-59.733-46.933-106.667-106.667-106.667V64c0-36.267-29.867-64-64-64H128C91.733 0 64 27.733 64 64v362.667H42.667v42.667H0V512h170.667v-42.667H128v-42.667h-21.333V64c0-12.8 8.533-21.333 21.333-21.333h147.2c12.8 0 21.333 8.533 21.333 21.333v106.667c-59.733 0-106.667 46.933-106.667 106.667V448c0 36.267 27.733 64 64 64h170.667C471.467 512 512 475.733 512 428.8c0-40.533-27.733-76.8-66.133-85.333zM352 469.333h-98.133c-12.8 0-21.333-8.533-21.333-21.333V277.333c0-36.267 27.733-64 64-64H339.2c36.267 0 64 27.733 64 64v66.133c-38.4 10.667-64 44.8-64 83.2 0 14.934 4.267 29.867 12.8 42.667zm72.533 0c-23.467 0-42.667-19.2-42.667-42.667S401.067 384 424.533 384s42.667 19.2 42.667 42.667-19.2 42.666-42.667 42.666z"/><path d="M275.2 256h42.667v64H275.2zm0 85.333h42.667V384H275.2z"/></svg>