<svg xmlns="http://www.w3.org/2000/svg" fill="#616161" viewBox="0 0 18.5 18.5"><path d="M.381 4.013h8.29l1.669-1.739H1.417c-1.26 0-1.05.908-1.05.908l.014.831z"/><path d="M17.796 2.169h-5.304c-.2 0-.392.086-.524.237L9.9 4.744H.704A.704.704 0 0 0 0 5.448v10.181c0 .389.315.703.704.703h17.093a.702.702 0 0 0 .703-.703V2.872a.704.704 0 0 0-.704-.703zm-.704 12.757H1.406V6.152h8.811a.702.702 0 0 0 .526-.238l2.067-2.339h4.281l.001 11.351z"/><path d="M11.838 12.705H6.487v-1.749H5.461v2.263c0 .283.229.514.514.514h6.377c.285 0 .514-.23.514-.514v-2.263h-1.027l-.001 1.749z"/><path d="M7.598 10.46l1.472 1.778s.12.143.247.014c.173-.174 1.427-1.836 1.427-1.836s.224-.223-.071-.223h-.767V7.639s.003-.105-.135-.105H8.604c-.189 0-.157.125-.157.125v2.59h-.828c-.245 0-.021.211-.021.211z"/></svg>