<svg xmlns="http://www.w3.org/2000/svg" fill="#fff" width="612" height="612"><path d="M577.028 43.714H454.629c-64.243 0-118.309 18.727-148.629 48.068-30.32-29.341-84.386-48.068-148.628-48.068h-122.4C15.702 43.714 0 59.398 0 78.685v402.171c0 19.305 15.702 34.971 34.971 34.971h122.4c46.634 0 97.273 20.039 115.44 38.994a43.631 43.631 0 0 0 31.527 13.465h3.497a43.172 43.172 0 0 0 31.282-13.412c18.098-18.973 68.788-39.047 115.511-39.047h122.399c19.287 0 34.972-15.666 34.972-34.971V78.685c.001-19.287-15.684-34.971-34.971-34.971zM279.771 492.048c-31.072-17.924-73.807-28.678-122.4-28.678H52.457V96.171h104.915c74.716 0 122.4 31.072 122.4 52.457v343.42zm279.772-28.678H454.629c-48.593 0-91.328 10.754-122.4 28.678v-343.42c0-21.385 47.684-52.457 122.4-52.457h104.914V463.37z"/></svg>