<svg xmlns="http://www.w3.org/2000/svg" viewBox="0 0 512 512"><path d="M151.831 407.831c-48.137 0-87.3 39.162-87.3 87.299 0 9.317 7.553 16.87 16.87 16.87H222.26c9.317 0 16.87-7.553 16.87-16.87 0-48.137-39.162-87.299-87.299-87.299zm-50.839 70.429c7.083-21.293 27.197-36.689 50.839-36.689s43.754 15.396 50.837 36.689H100.992zm259.177-205.39c-19.264 0-36.046 10.823-44.594 26.704l-42.705-20.458V239.13h53.559c9.317 0 16.87-7.553 16.87-16.87 0-48.137-39.162-87.299-87.299-87.299s-87.3 39.162-87.3 87.299c0 9.317 7.553 16.87 16.87 16.87h53.56v39.987l-42.705 20.458c-8.549-15.883-25.329-26.704-44.594-26.704-27.906 0-50.61 22.704-50.61 50.61 0 27.907 22.704 50.61 50.61 50.61 24.044 0 44.213-16.861 49.338-39.377L256 308.446l54.831 26.268c5.125 22.516 25.294 39.377 49.338 39.377 27.906 0 50.61-22.704 50.61-50.61.001-27.907-22.703-50.611-50.61-50.611zm-208.338 67.48c-9.302 0-16.87-7.568-16.87-16.87 0-9.302 7.568-16.87 16.87-16.87 9.302 0 16.87 7.568 16.87 16.87 0 9.302-7.568 16.87-16.87 16.87zm53.331-134.96c7.083-21.293 27.197-36.689 50.838-36.689s43.754 15.396 50.837 36.689H205.162zm155.007 134.96c-9.302 0-16.87-7.568-16.87-16.87 0-9.302 7.568-16.87 16.87-16.87 9.302 0 16.87 7.568 16.87 16.87 0 9.302-7.568 16.87-16.87 16.87zm0 67.481c-48.137 0-87.299 39.162-87.299 87.299 0 9.317 7.553 16.87 16.87 16.87H430.6c9.317 0 16.87-7.553 16.87-16.87 0-48.137-39.164-87.299-87.301-87.299zm-50.837 70.429c7.083-21.293 27.196-36.689 50.837-36.689s43.755 15.396 50.839 36.689H309.332zM256 0c-27.906 0-50.61 22.704-50.61 50.61s22.704 50.61 50.61 50.61 50.61-22.704 50.61-50.61S283.906 0 256 0zm0 67.48c-9.302 0-16.87-7.568-16.87-16.87 0-9.302 7.568-16.87 16.87-16.87 9.302 0 16.87 7.568 16.87 16.87 0 9.302-7.568 16.87-16.87 16.87z"/></svg>