<svg xmlns="http://www.w3.org/2000/svg" width="512" height="512"><path d="M0 58.5v200h60v30h392v-30h60v-200H0zm362 60c11.046 0 20 8.954 20 20s-8.954 20-20 20-20-8.954-20-20 8.954-20 20-20zm60 140H90v-30h332v30zm10-100c-11.046 0-20-8.954-20-20s8.954-20 20-20 20 8.954 20 20-8.954 20-20 20zm-191 160v60c0 24.813-20.187 45-45 45v30c41.355 0 75-33.645 75-75v-60h-30zm90 0v60c0 24.813-20.187 45-45 45v30c41.355 0 75-33.645 75-75v-60h-30zm-180 0v60c0 24.813-20.187 45-45 45v30c41.355 0 75-33.645 75-75v-60h-30z" fill="#FFF"/></svg>