<svg xmlns="http://www.w3.org/2000/svg" fill="#707070" viewBox="0 0 326.984 326.984"><path d="M163.492 208.492c-24.813 0-45 20.187-45 45s20.187 45 45 45 45-20.187 45-45-20.187-45-45-45zm0 60c-8.271 0-15-6.729-15-15s6.729-15 15-15 15 6.729 15 15-6.729 15-15 15zm-74.246-89.247c-5.858 5.857-5.858 15.355 0 21.213 5.857 5.857 15.354 5.858 21.213.001 29.243-29.242 76.823-29.242 106.066 0a14.953 14.953 0 0 0 10.606 4.393c3.839 0 7.678-1.464 10.606-4.394 5.858-5.858 5.858-15.355 0-21.213-40.938-40.939-107.552-40.939-148.491 0z"/><path d="M46.819 136.819c-5.858 5.858-5.858 15.355 0 21.213 5.858 5.858 15.355 5.858 21.213 0 52.637-52.637 138.283-52.637 190.92 0 2.929 2.929 6.767 4.394 10.606 4.394s7.678-1.464 10.607-4.394c5.858-5.858 5.858-15.355 0-21.213-64.333-64.334-169.013-64.334-233.346 0z"/><path d="M322.591 94.393c-42.496-42.497-98.998-65.9-159.099-65.9S46.89 51.896 4.393 94.393c-5.858 5.858-5.858 15.355 0 21.213 5.857 5.858 15.355 5.858 21.213 0 36.83-36.83 85.799-57.113 137.886-57.113s101.056 20.283 137.886 57.113c2.929 2.929 6.768 4.394 10.607 4.394s7.678-1.464 10.606-4.394c5.858-5.858 5.858-15.355 0-21.213z"/></svg>