<svg xmlns="http://www.w3.org/2000/svg" viewBox="0 0 503.607 503.607"><path d="M495.213 109.115h-25.18v-8.393c0-5.036-3.357-8.393-8.393-8.393s-8.393 3.357-8.393 8.393v8.393h-33.574v-8.393c0-5.036-3.357-8.393-8.393-8.393s-8.393 3.357-8.393 8.393v8.393h-33.574V33.574c0-5.036-3.357-8.393-8.393-8.393h-75.541v-8.393c0-5.036-3.357-8.393-8.393-8.393s-8.393 3.357-8.393 8.393v8.393h-33.574v-8.393c0-5.036-3.357-8.393-8.393-8.393-5.036 0-8.393 3.357-8.393 8.393v8.393h-75.541c-5.036 0-8.393 3.357-8.393 8.393v75.541h-33.578v-8.393c0-5.036-3.357-8.393-8.393-8.393s-8.393 3.357-8.393 8.393v8.393H50.361v-8.393c0-5.036-3.357-8.393-8.393-8.393s-8.393 3.357-8.393 8.393v8.393H8.393c-5.036 0-8.393 3.357-8.393 8.393V486.82c0 5.036 3.357 8.393 8.393 8.393h486.819c5.036 0 8.393-3.357 8.393-8.393V117.508c.002-5.036-3.356-8.393-8.392-8.393zm-8.393 16.787v285.377H369.311V125.902H486.82zm-470.033 0h117.508v285.377H16.787V125.902zm0 302.164h117.508v50.361H16.787v-50.361zm134.295-8.394V41.967h201.443v436.459h-25.18v-75.541c0-5.036-3.357-8.393-8.393-8.393H184.656c-5.036 0-8.393 3.357-8.393 8.393v75.541h-25.18v-58.754zm41.967-8.393h50.361v67.148h-50.361v-67.148zm67.148 67.147v-67.148h50.361v67.148h-50.361zm226.623 0H369.311v-50.361H486.82v50.361z"/><path d="M201.443 134.295h16.787c9.233 0 16.787-7.554 16.787-16.787v-16.787c0-9.233-7.554-16.787-16.787-16.787h-16.787c-9.233 0-16.787 7.554-16.787 16.787v16.787c0 9.233 7.554 16.787 16.787 16.787zm0-33.574h16.787v16.787h-16.787v-16.787zm83.934 33.574h16.787c9.233 0 16.787-7.554 16.787-16.787v-16.787c0-9.233-7.554-16.787-16.787-16.787h-16.787c-9.233 0-16.787 7.554-16.787 16.787v16.787c0 9.233 7.554 16.787 16.787 16.787zm0-33.574h16.787v16.787h-16.787v-16.787zm-83.934 100.722h16.787c9.233 0 16.787-7.554 16.787-16.787v-16.787c0-9.233-7.554-16.787-16.787-16.787h-16.787c-9.233 0-16.787 7.554-16.787 16.787v16.787c0 9.233 7.554 16.787 16.787 16.787zm0-33.574h16.787v16.787h-16.787v-16.787zm83.934 33.574h16.787c9.233 0 16.787-7.554 16.787-16.787v-16.787c0-9.233-7.554-16.787-16.787-16.787h-16.787c-9.233 0-16.787 7.554-16.787 16.787v16.787c0 9.233 7.554 16.787 16.787 16.787zm0-33.574h16.787v16.787h-16.787v-16.787zM201.443 268.59h16.787c9.233 0 16.787-7.554 16.787-16.787v-16.787c0-9.233-7.554-16.787-16.787-16.787h-16.787c-9.233 0-16.787 7.554-16.787 16.787v16.787c0 9.233 7.554 16.787 16.787 16.787zm0-33.574h16.787v16.787h-16.787v-16.787zm83.934 33.574h16.787c9.233 0 16.787-7.554 16.787-16.787v-16.787c0-9.233-7.554-16.787-16.787-16.787h-16.787c-9.233 0-16.787 7.554-16.787 16.787v16.787c0 9.233 7.554 16.787 16.787 16.787zm0-33.574h16.787v16.787h-16.787v-16.787zm-83.934 100.722h16.787c9.233 0 16.787-7.554 16.787-16.787v-16.787c0-9.233-7.554-16.787-16.787-16.787h-16.787c-9.233 0-16.787 7.554-16.787 16.787v16.787c0 9.233 7.554 16.787 16.787 16.787zm0-33.574h16.787v16.787h-16.787v-16.787zm83.934 33.574h16.787c9.233 0 16.787-7.554 16.787-16.787v-16.787c0-9.233-7.554-16.787-16.787-16.787h-16.787c-9.233 0-16.787 7.554-16.787 16.787v16.787c0 9.233 7.554 16.787 16.787 16.787zm0-33.574h16.787v16.787h-16.787v-16.787zm134.295-109.115h16.787c9.233 0 16.787-7.554 16.787-16.787v-16.787c0-9.233-7.554-16.787-16.787-16.787h-16.787c-9.233 0-16.787 7.554-16.787 16.787v16.787c0 9.233 7.554 16.787 16.787 16.787zm0-33.574h16.787v16.787h-16.787v-16.787zm0 100.722h16.787c9.233 0 16.787-7.554 16.787-16.787v-16.787c0-9.233-7.554-16.787-16.787-16.787h-16.787c-9.233 0-16.787 7.554-16.787 16.787v16.787c0 9.233 7.554 16.787 16.787 16.787zm0-33.574h16.787v16.787h-16.787v-16.787zm0 100.721h16.787c9.233 0 16.787-7.554 16.787-16.787V293.77c0-9.233-7.554-16.787-16.787-16.787h-16.787c-9.233 0-16.787 7.554-16.787 16.787v16.787c0 9.233 7.554 16.787 16.787 16.787zm0-33.574h16.787v16.787h-16.787V293.77zm0 100.722h16.787c9.233 0 16.787-7.554 16.787-16.787v-16.787c0-9.233-7.554-16.787-16.787-16.787h-16.787c-9.233 0-16.787 7.554-16.787 16.787v16.787c0 9.233 7.554 16.787 16.787 16.787zm0-33.574h16.787v16.787h-16.787v-16.787zM83.934 142.689H67.148c-9.233 0-16.787 7.554-16.787 16.787v16.787c0 9.233 7.554 16.787 16.787 16.787h16.787c9.233 0 16.787-7.554 16.787-16.787v-16.787c-.001-9.233-7.555-16.787-16.788-16.787zm0 33.573H67.148v-16.787h16.787v16.787zm0 33.574H67.148c-9.233 0-16.787 7.554-16.787 16.787v16.787c0 9.233 7.554 16.787 16.787 16.787h16.787c9.233 0 16.787-7.554 16.787-16.787v-16.787c-.001-9.233-7.555-16.787-16.788-16.787zm0 33.574H67.148v-16.787h16.787v16.787zm0 33.574H67.148c-9.233 0-16.787 7.554-16.787 16.787v16.787c0 9.233 7.554 16.787 16.787 16.787h16.787c9.233 0 16.787-7.554 16.787-16.787V293.77c-.001-9.232-7.555-16.786-16.788-16.786zm0 33.573H67.148V293.77h16.787v16.787zm0 33.574H67.148c-9.233 0-16.787 7.554-16.787 16.787v16.787c0 9.233 7.554 16.787 16.787 16.787h16.787c9.233 0 16.787-7.554 16.787-16.787v-16.787c-.001-9.233-7.555-16.787-16.788-16.787zm0 33.574H67.148v-16.787h16.787v16.787z"/></svg>