<svg xmlns="http://www.w3.org/2000/svg" fill="#707070" viewBox="0 0 512 512"><path d="M471 256.101V113c0-33.084-26.916-60-60-60H100c-33.084 0-60 26.916-60 60v143.44C16.722 264.697 0 286.927 0 313v110h40v36h40v-36h352v36h40v-36h40V313c0-26.444-17.203-48.931-41-56.899zM80 113c0-11.028 8.972-20 20-20h311c11.028 0 20 8.972 20 20v140h-21v-20c0-33.084-26.916-60-60-60h-54c-15.355 0-29.376 5.805-40 15.327C245.376 178.805 231.355 173 216 173h-56c-33.084 0-60 26.916-60 60v20H80V113zm290 120v20h-94v-20c0-11.028 8.972-20 20-20h54c11.028 0 20 8.972 20 20zm-134 0v20h-96v-20c0-11.028 8.972-20 20-20h56c11.028 0 20 8.972 20 20zm236 150H40v-70c0-11.028 8.972-20 20-20h392c11.028 0 20 8.972 20 20v70z"/></svg>