<svg xmlns="http://www.w3.org/2000/svg" fill="#707070" viewBox="0 0 512 512"><path d="M490.667 0h-256c-11.782 0-21.333 9.551-21.333 21.333v149.333h-192C9.551 170.667 0 180.218 0 192v298.667C0 502.449 9.551 512 21.333 512h469.333c11.782 0 21.333-9.551 21.333-21.333V21.333C512 9.551 502.449 0 490.667 0zm-448 213.333h170.667v256H42.667v-256zm298.666 256v-42.667H384v42.667h-42.667zm128 0h-42.667v-64c0-11.782-9.551-21.333-21.333-21.333H320c-11.782 0-21.333 9.551-21.333 21.333v64H256V42.667h213.333v426.666z"/><path d="M320 192c11.782 0 21.333-9.551 21.333-21.333v-21.333H384v21.333c0 11.782 9.551 21.333 21.333 21.333 11.782 0 21.333-9.551 21.333-21.333V85.333c0-11.782-9.551-21.333-21.333-21.333C393.551 64 384 73.551 384 85.333v21.333h-42.667V85.333C341.333 73.551 331.782 64 320 64s-21.333 9.551-21.333 21.333v85.333c0 11.783 9.551 21.334 21.333 21.334zm-170.667 42.667h-42.667c-11.782 0-21.333 9.551-21.333 21.333s9.551 21.333 21.333 21.333h42.667c11.782 0 21.333-9.551 21.333-21.333s-9.551-21.333-21.333-21.333zm0 85.333h-42.667c-11.782 0-21.333 9.551-21.333 21.333 0 11.782 9.551 21.333 21.333 21.333h42.667c11.782 0 21.333-9.551 21.333-21.333.001-11.782-9.551-21.333-21.333-21.333zM384 234.667h-42.667C329.551 234.667 320 244.218 320 256s9.551 21.333 21.333 21.333H384c11.782 0 21.333-9.551 21.333-21.333s-9.551-21.333-21.333-21.333zM384 320h-42.667C329.551 320 320 329.551 320 341.333c0 11.782 9.551 21.333 21.333 21.333H384c11.782 0 21.333-9.551 21.333-21.333 0-11.782-9.551-21.333-21.333-21.333z"/></svg>