<svg xmlns="http://www.w3.org/2000/svg" fill="#707070" viewBox="0 0 512 512"><path d="M495.304 0H16.696C7.475 0 0 7.475 0 16.696v267.13c0 9.22 7.475 16.696 16.696 16.696h478.609c9.22 0 16.696-7.475 16.696-16.696V16.696C512 7.475 504.525 0 495.304 0zm-16.695 267.13H33.391V33.391h445.217V267.13z"/><path d="M428.522 200.348H83.478c-9.22 0-16.696 7.475-16.696 16.696 0 9.22 7.475 16.696 16.696 16.696h345.043c9.22 0 16.696-7.475 16.696-16.696 0-9.221-7.475-16.696-16.695-16.696zm0-66.783H83.478c-9.22 0-16.696 7.475-16.696 16.696s7.475 16.696 16.696 16.696h345.043c9.22 0 16.696-7.475 16.696-16.696s-7.475-16.696-16.695-16.696z"/><circle cx="328.348" cy="83.478" r="16.696"/><circle cx="428.522" cy="83.478" r="16.696"/><path d="M217.043 333.913c-9.22 0-16.696 7.475-16.696 16.696v100.174c0 9.22 7.475 16.696 16.696 16.696 9.22 0 16.696-7.475 16.696-16.696V350.609c0-9.221-7.475-16.696-16.696-16.696zm77.914 0c-9.22 0-16.696 7.475-16.696 16.696v100.174c0 9.22 7.475 16.696 16.696 16.696s16.696-7.475 16.696-16.696V350.609c-.001-9.221-7.476-16.696-16.696-16.696zm135.58 92.594c-6.519-6.519-17.091-6.519-23.611 0s-6.52 17.091 0 23.611c3.16 3.16 4.9 7.349 4.9 11.795s-1.74 8.635-4.9 11.795c-3.161 3.161-7.351 4.901-11.796 4.901s-8.634-1.74-11.796-4.902c-3.16-3.16-4.9-7.348-4.9-11.794V350.609c0-9.22-7.475-16.696-16.696-16.696s-16.696 7.475-16.696 16.696v111.304c0 13.367 5.215 25.941 14.68 35.405C369.19 506.785 381.764 512 395.13 512c13.365 0 25.939-5.215 35.407-14.681 9.466-9.466 14.68-22.041 14.68-35.406s-5.213-25.939-14.68-35.406zm-280.276-92.594c-9.22 0-16.696 7.475-16.696 16.696v111.304c0 4.445-1.74 8.634-4.901 11.795-3.161 3.161-7.349 4.901-11.795 4.901s-8.634-1.74-11.796-4.902c-3.16-3.16-4.9-7.348-4.9-11.794s1.74-8.634 4.9-11.794c6.521-6.52 6.521-17.091.001-23.612-6.52-6.518-17.091-6.519-23.611-.001-9.466 9.468-14.681 22.042-14.681 35.407s5.215 25.939 14.68 35.406C90.93 506.785 103.504 512 116.87 512s25.939-5.215 35.406-14.68c9.466-9.468 14.681-22.042 14.681-35.407V350.609c0-9.221-7.476-16.696-16.696-16.696z"/></svg>