<svg xmlns="http://www.w3.org/2000/svg" fill="#616161" viewBox="0 0 383.998 383.998"><path d="M379.311 180.686l-40-40-136-136c-6.248-6.248-16.376-6.248-22.624 0l-136 136-40 40c-6.248 6.248-6.248 16.376 0 22.624 3.128 3.128 7.216 4.688 11.312 4.688s8.184-1.56 11.312-4.688l12.688-12.688v177.376c0 8.832 7.168 16 16 16h88c8.832 0 16-7.168 16-16v-128h64v112h-16c-8.832 0-16 7.168-16 16s7.168 16 16 16h120c8.832 0 16-7.168 16-16V190.622l12.688 12.688c3.128 3.128 7.216 4.688 11.312 4.688s8.184-1.56 11.312-4.688c6.248-6.248 6.248-16.376 0-22.624zm-67.312 171.312h-56v-128c0-8.832-7.168-16-16-16h-96c-8.832 0-16 7.168-16 16v128h-56V158.63l120-120 120 120v193.368z"/><path d="M191.999 111.998c-13.232 0-24 10.768-24 24s10.768 24 24 24 24-10.768 24-24-10.768-24-24-24z"/></svg>