<svg xmlns="http://www.w3.org/2000/svg" viewBox="0 0 512 512"><path d="M451.026 282.919h-75.984c-11.046 0-20 8.954-20 20s8.954 20 20 20h27.715l-95.94 95.938c-7.811 7.811-7.811 20.474 0 28.284 7.81 7.81 20.473 7.812 28.284.001l95.941-95.939v27.715c0 11.046 8.954 20 20 20s20-8.954 20-20V302.91c-.006-10.868-8.838-19.999-20.016-19.991zM492.001 59h-118c-11.046 0-20 8.954-20 20v98h-98c-11.045 0-20 8.954-20 20v98h-98c-11.046 0-20 8.954-20 20v98H20c-11.046 0-20 8.954-20 20s8.954 20 20 20h118.001a19.998 19.998 0 0 0 20-20L158 335h98.001a19.998 19.998 0 0 0 20-20L276 217h98a19.996 19.996 0 0 0 20-20l-.001-98H492c11.046 0 20-8.954 20-20s-8.954-20-19.999-20z"/></svg>