<svg xmlns="http://www.w3.org/2000/svg" viewBox="0 0 512 512"><path d="M499.202 236.8l-194.133-89.6a72.534 72.534 0 0 0 36.267-61.867C341.336 38.205 303.131 0 256.002 0s-85.333 38.205-85.333 85.333h42.667c0-23.564 19.103-42.667 42.667-42.667s42.667 19.102 42.667 42.667c0 25.6-34.133 36.267-51.2 44.8C121.602 194.133 14.936 236.8 12.802 236.8c-10.611 5.121-15.061 17.874-9.94 28.485a21.333 21.333 0 0 0 18.474 12.048h42.667v213.333c0 11.782 9.551 21.333 21.333 21.333h213.333c11.782 0 21.333-9.551 21.333-21.333V277.333h85.333v149.333h-64v42.667h85.333c11.782 0 21.333-9.551 21.333-21.333V277.333h42.667c11.775-.408 20.99-10.285 20.581-22.06a21.328 21.328 0 0 0-12.047-18.473zM277.336 469.333H106.669v-64h170.667v64zm0-106.666H106.669v-85.333h170.667v85.333zm-151.467-128L256.002 172.8l136.533 61.867H125.869z"/></svg>