<svg xmlns="http://www.w3.org/2000/svg" fill="#616161" viewBox="0 0 512 512"><path d="M371.73 237.714c5.376-11.41 9.015-23.771 10.843-36.571h56.283v-36.571h-56.32c-3.109-21.632-11.63-41.49-24.174-58.222l38.565-38.565-25.856-25.856-38.565 38.565c-16.731-12.544-36.59-21.065-58.222-24.174V0h-36.571v56.32c-21.632 3.109-41.49 11.63-58.222 24.174l-38.565-38.565-25.856 25.856 38.565 38.565c-12.544 16.731-21.065 36.59-24.174 58.222h-56.32v36.571h56.283c1.81 12.8 5.467 25.161 10.843 36.571H0v36.571h512v-36.571H371.73zm-42.496 0H182.766c-11.483-14.83-18.194-34.798-18.194-54.857 0-50.414 41.015-91.429 91.429-91.429s91.429 41.015 91.429 91.429c-.001 20.06-6.712 40.009-18.196 54.857zm164.48 109.715c-5.979 0-9.582-3.365-17.627-12.27-9.271-10.258-21.979-24.302-44.763-24.302-23.424 0-35.529 15.141-43.538 25.143-7.296 9.143-9.819 11.429-14.976 11.429s-7.68-2.286-14.976-11.429c-8.009-10.002-20.114-25.143-43.52-25.143-23.424 0-35.529 15.141-43.538 25.143-7.314 9.143-9.819 11.429-14.976 11.429-5.12 0-7.643-2.286-14.921-11.41-8.009-10.021-20.114-25.161-43.52-25.161-23.424 0-35.529 15.141-43.538 25.143-7.296 9.143-9.819 11.429-14.958 11.429-5.138 0-7.662-2.286-14.976-11.429-8.009-10.002-20.114-25.143-43.52-25.143-22.784 0-35.419 14.08-44.635 24.357-7.973 8.869-11.538 12.215-17.445 12.215H0V384h18.286c22.784 0 35.419-14.08 44.635-24.357 7.954-8.869 11.538-12.215 17.445-12.215 5.157 0 7.662 2.286 14.976 11.429 7.991 10.002 20.096 25.143 43.52 25.143 23.424 0 35.511-15.141 43.52-25.143 7.296-9.143 9.838-11.429 14.976-11.429 5.12 0 7.643 2.286 14.921 11.41 8.009 10.021 20.114 25.161 43.52 25.161 23.406 0 35.511-15.141 43.52-25.143 7.296-9.143 9.838-11.429 14.976-11.429s7.662 2.286 14.976 11.429C337.28 368.878 349.385 384 372.809 384c23.424 0 35.529-15.141 43.538-25.143 7.296-9.143 9.838-11.429 14.976-11.429 5.979 0 9.582 3.365 17.627 12.27C458.24 369.957 470.93 384 493.714 384H512v-36.571h-18.286zm0 128c-5.979 0-9.582-3.365-17.627-12.27-9.271-10.258-21.979-24.302-44.763-24.302-23.424 0-35.529 15.141-43.538 25.143-7.296 9.143-9.819 11.429-14.976 11.429s-7.68-2.286-14.976-11.429c-8.009-10.002-20.114-25.143-43.52-25.143-23.424 0-35.529 15.141-43.538 25.143-7.314 9.143-9.819 11.429-14.976 11.429-5.12 0-7.643-2.286-14.921-11.41-8.009-10.021-20.114-25.161-43.52-25.161-23.424 0-35.529 15.141-43.538 25.143-7.296 9.143-9.819 11.429-14.958 11.429-5.138 0-7.662-2.286-14.976-11.429-8.009-10.002-20.114-25.143-43.52-25.143-22.784 0-35.419 14.08-44.635 24.357-7.973 8.869-11.538 12.215-17.445 12.215H0V512h18.286c22.784 0 35.419-14.08 44.635-24.357 7.954-8.869 11.538-12.215 17.445-12.215 5.157 0 7.662 2.286 14.976 11.429 7.991 10.002 20.096 25.143 43.52 25.143 23.424 0 35.511-15.141 43.52-25.143 7.296-9.143 9.838-11.429 14.976-11.429 5.12 0 7.643 2.286 14.921 11.41 8.009 10.021 20.114 25.161 43.52 25.161 23.406 0 35.511-15.141 43.52-25.143 7.296-9.143 9.838-11.429 14.976-11.429s7.662 2.286 14.976 11.429C337.28 496.878 349.385 512 372.809 512c23.424 0 35.529-15.141 43.538-25.143 7.296-9.143 9.838-11.429 14.976-11.429 5.979 0 9.582 3.365 17.627 12.27C458.24 497.957 470.93 512 493.714 512H512v-36.571h-18.286z"/></svg>