<svg xmlns="http://www.w3.org/2000/svg" fill="#707070" viewBox="0 0 491.52 491.52"><path d="M245.76 122.88h40.96v40.96h-40.96zm61.44 0h40.96v40.96H307.2zm61.44 0h40.96v40.96h-40.96zm-122.88 61.44h40.96v40.96h-40.96zm61.44 0h40.96v40.96H307.2zm61.44 0h40.96v40.96h-40.96zm-122.88 61.44h40.96v40.96h-40.96zm61.44 0h40.96v40.96H307.2zm61.44 0h40.96v40.96h-40.96z"/><path d="M471.04 20.48H20.48C9.169 20.48 0 29.649 0 40.96v327.68c0 11.311 9.169 20.48 20.48 20.48h20.48v61.44c0 11.311 9.169 20.48 20.48 20.48h122.88c11.311 0 20.48-9.169 20.48-20.48v-61.44h81.92v61.44c0 11.311 9.169 20.48 20.48 20.48h122.88c11.311 0 20.48-9.169 20.48-20.48v-61.44h20.48c11.311 0 20.48-9.169 20.48-20.48V40.96c0-11.311-9.169-20.48-20.48-20.48zm-307.2 409.6H81.92v-40.96h81.92v40.96zm245.76 0h-81.92v-40.96h81.92v40.96zm40.96-81.92H40.96V61.44h409.6v286.72z"/><path d="M143.36 286.72c45.246 0 81.92-36.674 81.92-81.92s-36.674-81.92-81.92-81.92-81.92 36.674-81.92 81.92 36.674 81.92 81.92 81.92zm0-122.88c22.625 0 40.96 18.335 40.96 40.96s-18.335 40.96-40.96 40.96-40.96-18.335-40.96-40.96 18.335-40.96 40.96-40.96z"/></svg>