<svg xmlns="http://www.w3.org/2000/svg" fill="#707070" viewBox="0 0 512 512"><path d="M512 220.716c0-21.745-17.637-39.381-39.381-39.381h-3.285V46.506c0-19.584-15.529-35.84-35.179-35.84H77.845c-19.65 0-35.179 16.256-35.179 35.84v134.829h-3.285C17.637 181.334 0 198.971 0 220.716v216.619h64v42.667c0 11.782 9.551 21.333 21.333 21.333 11.782 0 21.333-9.551 21.333-21.333v-42.667h298.667v42.667c0 11.782 9.551 21.333 21.333 21.333S448 491.783 448 480.001v-42.667h64V220.716zM85.333 53.332h341.333v128h-3.285c-21.745 0-39.381 17.637-39.381 39.381V224H128v-3.287c0-21.745-17.637-39.381-39.381-39.381h-3.285v-128zm298.667 256H128v-42.664h256v42.664zm85.333 85.336H42.667V224.001h42.667v128h341.333v-128h42.667v170.667z"/></svg>