<svg xmlns="http://www.w3.org/2000/svg" fill="#0097A7" viewBox="0 0 512 512"><path d="M341.976 17.155C314.495 5.772 285.595 0 256.082 0 164.852 0 83.346 54.461 48.434 138.745c-47.406 114.451 7.139 246.134 121.59 293.541 29.288 12.132 60.123 17.907 91.742 17.077l93.837 59.464a20.417 20.417 0 0 0 18.748 1.618 20.422 20.422 0 0 0 12.113-14.4l24.303-108.398c22.866-21.672 40.61-47.527 52.798-76.95 47.407-114.453-7.139-246.135-121.589-293.542zm83.85 277.908c-10.68 25.785-26.562 48.211-47.2 66.655a20.424 20.424 0 0 0-6.321 10.761l-19.351 86.31-74.715-47.347a20.426 20.426 0 0 0-12.083-3.138 182.98 182.98 0 0 1-10.243.287c-24.121 0-47.76-4.725-70.259-14.045-93.64-38.787-138.266-146.528-99.48-240.17 28.567-68.964 95.259-113.527 169.908-113.527 24.122 0 47.761 4.726 70.262 14.045 93.641 38.788 138.269 146.527 99.482 240.169z"/><path d="M364.93 251.953H147.071c-11.28 0-20.424 9.145-20.424 20.424s9.145 20.424 20.424 20.424H364.93c11.28 0 20.424-9.145 20.424-20.424s-9.145-20.424-20.424-20.424zm.002-95.311l-217.861-.001c-11.278 0-20.424 9.145-20.424 20.424s9.145 20.424 20.424 20.424l217.861.001c11.278 0 20.424-9.145 20.424-20.424.001-11.28-9.144-20.424-20.424-20.424z"/></svg>