<svg xmlns="http://www.w3.org/2000/svg" xmlns:xlink="http://www.w3.org/1999/xlink" id="Capa_1" width="100" height="100" x="0" y="0" fill="#0097A7" enable-background="new 0 0 512 512" version="1.1" viewBox="0 0 512 512" xml:space="preserve"><g><g><g><path d="M119.467,162.133h-51.2c-4.713,0-8.533,3.82-8.533,8.533s3.82,8.533,8.533,8.533h51.2c4.713,0,8.533-3.82,8.533-8.533 S124.18,162.133,119.467,162.133z"/><path d="M119.467,196.267h-51.2c-4.713,0-8.533,3.82-8.533,8.533s3.82,8.533,8.533,8.533h51.2c4.713,0,8.533-3.821,8.533-8.533 S124.18,196.267,119.467,196.267z"/><path d="M93.867,247.467c-18.851,0-34.133,15.282-34.133,34.133s15.282,34.133,34.133,34.133 c18.842-0.022,34.112-15.291,34.133-34.133C128,262.749,112.718,247.467,93.867,247.467z M93.867,298.667 c-9.422-0.009-17.057-7.645-17.067-17.067c0-9.426,7.641-17.067,17.067-17.067s17.067,7.641,17.067,17.067 C110.933,291.026,103.292,298.667,93.867,298.667z"/><path d="M102.4,85.333H42.667c-4.713,0-8.533,3.821-8.533,8.533c0,4.713,3.82,8.533,8.533,8.533H102.4 c4.713,0,8.533-3.821,8.533-8.533C110.933,89.154,107.113,85.333,102.4,85.333z"/><path d="M486.4,366.933c14.132-0.015,25.585-11.468,25.6-25.6V68.267c-0.015-14.132-11.468-25.585-25.6-25.6H366.933V25.6 c-0.015-14.132-11.468-25.585-25.6-25.6H170.667c-14.132,0.015-25.585,11.468-25.6,25.6v17.067H25.6 C11.468,42.682,0.015,54.135,0,68.267v273.067c0.015,14.132,11.468,25.585,25.6,25.6h59.733V460.8H68.267 c-9.422,0.009-17.057,7.645-17.067,17.067H8.533C3.82,477.867,0,481.687,0,486.4s3.82,8.533,8.533,8.533H51.2 c0.009,9.422,7.645,17.057,17.067,17.067h51.2c9.422-0.009,17.057-7.645,17.067-17.067h76.8 c0.009,9.422,7.645,17.057,17.067,17.067h51.2c9.422-0.009,17.057-7.645,17.067-17.067h76.8 c0.009,9.422,7.645,17.057,17.067,17.067h51.2c9.422-0.009,17.057-7.645,17.067-17.067h42.667c4.713,0,8.533-3.82,8.533-8.533 s-3.82-8.533-8.533-8.533H460.8c-0.009-9.422-7.645-17.057-17.067-17.067h-17.067v-93.867H486.4z M366.933,102.4h59.733 c4.713,0,8.533-3.821,8.533-8.533c0-4.713-3.82-8.533-8.533-8.533h-59.733v-25.6H486.4c4.71,0.006,8.527,3.823,8.533,8.533V128 h-128V102.4z M162.133,25.6c0.006-4.71,3.823-8.527,8.533-8.533h170.667c4.71,0.006,8.527,3.823,8.533,8.533v76.8H162.133V25.6z M162.133,119.467h187.733V384c-0.006,4.71-3.823,8.527-8.533,8.533H170.667c-4.71-0.006-8.527-3.823-8.533-8.533V119.467z M17.067,68.267c0.006-4.71,3.823-8.527,8.533-8.533h119.467v25.6h-8.533c-4.713,0-8.533,3.821-8.533,8.533 c0,4.713,3.82,8.533,8.533,8.533h8.533V128h-128V68.267z M25.6,349.867c-4.71-0.006-8.527-3.823-8.533-8.533V145.067h128v204.8 H25.6z M68.267,494.933v-17.067h51.2l0.006,8.503l-0.006,0.031l0.006,0.031l0.006,8.502H68.267z M213.333,477.867h-76.8 c-0.009-9.422-7.645-17.057-17.067-17.067H102.4v-93.867h42.667V384c0.015,14.132,11.468,25.585,25.6,25.6h76.8v51.2H230.4 C220.978,460.809,213.343,468.445,213.333,477.867z M230.4,494.933v-17.067h51.2l0.006,8.503L281.6,486.4l0.006,0.031 l0.006,8.502H230.4z M375.467,477.867h-76.8c-0.009-9.422-7.645-17.057-17.067-17.067h-17.067v-51.2h76.8 c14.132-0.015,25.585-11.468,25.6-25.6v-17.067H409.6V460.8h-17.067C383.112,460.809,375.476,468.445,375.467,477.867z M443.733,477.867l0.006,8.503l-0.006,0.031l0.006,0.031l0.006,8.502h-51.213v-17.067H443.733z M366.933,349.867v-204.8h128 v196.267c-0.006,4.71-3.823,8.527-8.533,8.533H366.933z"/><path d="M443.733,162.133h-51.2c-4.713,0-8.533,3.82-8.533,8.533s3.821,8.533,8.533,8.533h51.2c4.713,0,8.533-3.82,8.533-8.533 S448.446,162.133,443.733,162.133z"/><path d="M443.733,196.267h-51.2c-4.713,0-8.533,3.82-8.533,8.533s3.821,8.533,8.533,8.533h51.2c4.713,0,8.533-3.821,8.533-8.533 S448.446,196.267,443.733,196.267z"/><path d="M418.133,247.467c-18.851,0-34.133,15.282-34.133,34.133s15.282,34.133,34.133,34.133s34.133-15.282,34.133-34.133 C452.245,262.758,436.976,247.488,418.133,247.467z M418.133,298.667c-9.426,0-17.067-7.641-17.067-17.067 c0-9.426,7.641-17.067,17.067-17.067S435.2,272.174,435.2,281.6C435.191,291.022,427.555,298.657,418.133,298.667z"/><path d="M256,290.133c-18.851,0-34.133,15.282-34.133,34.133c0,18.851,15.282,34.133,34.133,34.133 c18.851,0,34.133-15.282,34.133-34.133C290.112,305.424,274.842,290.155,256,290.133z M256,341.333 c-9.426,0-17.067-7.641-17.067-17.067S246.574,307.2,256,307.2s17.067,7.641,17.067,17.067 C273.057,333.688,265.422,341.324,256,341.333z"/><path d="M469.333,85.333H460.8c-4.713,0-8.533,3.821-8.533,8.533c0,4.713,3.821,8.533,8.533,8.533h8.533 c4.713,0,8.533-3.821,8.533-8.533C477.867,89.154,474.046,85.333,469.333,85.333z"/><path d="M281.6,51.2h-93.867c-4.713,0-8.533,3.82-8.533,8.533s3.82,8.533,8.533,8.533H281.6c4.713,0,8.533-3.82,8.533-8.533 S286.313,51.2,281.6,51.2z"/><path d="M324.267,51.2h-8.533c-4.713,0-8.533,3.82-8.533,8.533s3.82,8.533,8.533,8.533h8.533c4.713,0,8.533-3.82,8.533-8.533 S328.979,51.2,324.267,51.2z"/><path d="M213.333,153.6h85.333c4.713,0,8.533-3.821,8.533-8.533s-3.82-8.533-8.533-8.533h-85.333 c-4.713,0-8.533,3.82-8.533,8.533S208.621,153.6,213.333,153.6z"/><path d="M213.333,187.733h85.333c4.713,0,8.533-3.82,8.533-8.533s-3.82-8.533-8.533-8.533h-85.333 c-4.713,0-8.533,3.82-8.533,8.533S208.621,187.733,213.333,187.733z"/><path d="M213.333,221.867h85.333c4.713,0,8.533-3.821,8.533-8.533c0-4.713-3.82-8.533-8.533-8.533h-85.333 c-4.713,0-8.533,3.821-8.533,8.533C204.8,218.046,208.621,221.867,213.333,221.867z"/></g></g></g></svg>