<svg xmlns="http://www.w3.org/2000/svg" xmlns:xlink="http://www.w3.org/1999/xlink" id="Capa_1" width="100" height="100" x="0" y="0" fill="#0097A7" enable-background="new 0 0 512 512" version="1.1" viewBox="0 0 512 512" xml:space="preserve"><g><g><path d="M502,0.007H10.013c-5.522,0-10,4.477-10,10V384.08c0,5.522,4.478,10,10,10h18.031 c-5.218,10.616-8.069,22.461-8.069,34.775v28.126c0,0.408,0.032,0.807,0.079,1.202C7.783,468.828,0,484.514,0,501.994 c0,5.522,4.478,10,10,10h144.676h80.361h80.123h42.177c5.522,0,10-4.478,10-10v-40.062c0-5.522-4.478-10-10-10h-43.682v-23.077 c0-12.315-2.851-24.159-8.069-34.775H502c5.522,0,10-4.478,10-10V10.006C512,4.483,507.522,0.007,502,0.007z M347.337,471.932 v20.063h-23.182c-1.508-7.41-4.66-14.229-9.054-20.063H347.337z M20.013,374.08v-54.082h39.785 c-2.009,13.455-3.053,27.044-3.053,40.614v1.623c-5.395,3.393-10.292,7.379-14.628,11.85c-0.035,0-0.07-0.005-0.105-0.005H20.013z M56.745,387.729v56.293c-5.842,0.125-11.473,1.114-16.771,2.852v-18.018C39.974,413.19,46.138,398.531,56.745,387.729z M226.041,491.994h-71.365H21.334c4.4-16.121,19.174-28.005,36.67-28.005c5.341,0,10.514,1.095,15.378,3.253 c2.584,1.149,5.535,1.147,8.119-0.002c2.584-1.148,4.561-3.338,5.441-6.025c12.318-37.618,47.207-62.893,86.817-62.893 c35.161,0,66.615,19.632,82.088,51.232c0.295,0.603,0.646,1.162,1.038,1.676v4.149 C241.274,461.499,229.453,475.231,226.041,491.994z M255.615,245.794h-3.727c-0.761-1.669-1.518-3.339-2.313-4.992 c-3.938-8.192-8.318-16.181-13.061-23.954l19.1-19.101V245.794z M256.885,360.637v7.36v47.586 c-6.811-7.639-14.674-14.345-23.399-19.901c-17.837-11.358-38.489-17.361-59.727-17.361c-40.854,0-77.582,22.066-97.016,56.638 v-66.962v-7.385c0-75.667,32.721-146.354,90.057-195.207C224.153,214.258,256.885,284.956,256.885,360.637z M246.747,491.994 c4.13-11.676,15.279-20.063,28.352-20.063c13.074,0,24.222,8.387,28.352,20.063H246.747z M315.596,265.793 c0.007,0,0.013,0.001,0.019,0.001c0.006,0,0.013-0.001,0.019-0.001h99.958c0.007,0,0.013,0.001,0.019,0.001 c0.006,0,0.013-0.001,0.019-0.001h76.368v34.206H270.102c-2.609-11.606-5.973-23.038-10.037-34.206H315.596z M275.616,245.794 v-68.046l29.999-29.999v98.045H275.616z M325.615,245.794V132.722l29.999,29.999v83.073H325.615z M375.613,245.794v-87.016 l29.999-29.999v117.015H375.613z M276.885,451.933L276.885,451.933v-15.171v-49.034c0.838,0.853,1.638,1.739,2.419,2.639 c0.054,0.067,0.111,0.131,0.166,0.196c9.009,10.467,14.186,23.952,14.186,38.292v23.077H276.885z M291.507,374.08 c-4.334-4.469-9.23-8.454-14.623-11.845v-1.598c0-13.579-1.045-27.176-3.057-40.639H492v54.082H291.507z M492,245.794h-16.39 v-72.291c0-5.523-4.478-10-10-10s-10,4.477-10,10v72.291h-29.999V111.172c0-0.74-0.086-1.459-0.239-2.153l30.238-30.238v11.934 c0,5.523,4.478,10,10,10s10-4.477,10-10V54.639c0-5.523-4.478-10-10-10h-36.075c-5.522,0-10,4.477-10,10c0,5.523,4.478,10,10,10 h11.933l-77.827,77.827L330.2,109.023c-3.906-3.905-10.236-3.905-14.143,0l-90.797,90.797 c-14.797-20.672-32.416-39.353-52.217-55.188c-3.652-2.921-8.841-2.921-12.493,0.001c-32.192,25.753-58.648,59.007-76.508,96.165 c-9.05,18.83-15.929,38.76-20.521,59.202H20.013V20.007H492V245.794z"/></g></g><g><g><path d="M166.814,245.794c-31.98,0-57.999,26.018-57.999,57.999c0,31.98,26.018,57.998,57.999,57.998 c31.98,0,57.998-26.018,57.998-57.998C224.812,271.813,198.794,245.794,166.814,245.794z M166.814,341.792 c-20.953,0-37.999-17.047-37.999-37.999s17.047-38,37.999-38s37.999,17.048,37.999,38S187.766,341.792,166.814,341.792z"/></g></g><g><g><path d="M142.768,90.493H50.771c-5.522,0-10,4.477-10,10c0,5.523,4.478,10,10,10h91.998c5.522,0,10-4.477,10-10 C152.768,94.97,148.29,90.493,142.768,90.493z"/></g></g><g><g><path d="M134.869,133.423c-1.859-1.86-4.439-2.93-7.069-2.93s-5.21,1.07-7.07,2.93c-1.86,1.86-2.93,4.44-2.93,7.07 s1.069,5.21,2.93,7.07c1.86,1.86,4.44,2.93,7.07,2.93s5.21-1.07,7.069-2.93c1.87-1.86,2.931-4.44,2.931-7.07 S136.739,135.283,134.869,133.423z"/></g></g><g><g><path d="M84.406,130.492H50.771c-5.522,0-10,4.477-10,10c0,5.523,4.478,10,10,10h33.635c5.522,0,10-4.477,10-10 C94.406,134.969,89.928,130.492,84.406,130.492z"/></g></g><g><g><path d="M106.103,50.494H50.771c-5.522,0-10,4.477-10,10s4.478,10,10,10h55.333c5.522,0,10-4.477,10-10 S111.625,50.494,106.103,50.494z"/></g></g><g><g><path d="M472.68,133.423c-1.861-1.86-4.439-2.93-7.07-2.93c-2.63,0-5.21,1.07-7.069,2.93c-1.86,1.86-2.931,4.44-2.931,7.07 s1.07,5.21,2.931,7.07c1.859,1.86,4.439,2.93,7.069,2.93c2.631,0,5.21-1.07,7.07-2.93c1.86-1.86,2.93-4.44,2.93-7.07 S474.541,135.283,472.68,133.423z"/></g></g></svg>