<svg xmlns="http://www.w3.org/2000/svg" xmlns:xlink="http://www.w3.org/1999/xlink" id="Capa_1" width="120" height="120" x="0" y="0" enable-background="new 0 0 512 512" version="1.1" viewBox="0 0 512 512" xml:space="preserve"><circle cx="256" cy="256" r="256" fill="#6FB1E1"/><path fill="#E8BB20" d="M323.62,405.448c0,21.652-29.372,39.204-65.608,39.204s-65.608-17.552-65.608-39.204v-15.512h131.212	v15.512H323.62z"/><ellipse cx="258" cy="389.92" fill="#F5EA07" rx="65.608" ry="39.204"/><path fill="#E8BB20" d="M323.62,380.448c0,21.652-29.372,39.204-65.608,39.204s-65.608-17.552-65.608-39.204v-15.512h131.212	v15.512H323.62z"/><ellipse cx="258" cy="364.92" fill="#F5EA07" rx="65.608" ry="39.204"/><path fill="#E8BB20" d="M323.62,355.448c0,21.652-29.372,39.204-65.608,39.204s-65.608-17.552-65.608-39.204v-15.512h131.212	v15.512H323.62z"/><ellipse cx="258" cy="339.94" fill="#F5EA07" rx="65.608" ry="39.204"/><path fill="#E8BB20" d="M323.62,330.452c0,21.652-29.372,39.204-65.608,39.204s-65.608-17.552-65.608-39.204V314.94h131.212	v15.512H323.62z"/><ellipse cx="258" cy="314.92" fill="#F5EA07" rx="65.608" ry="39.204"/><path fill="#E8BB20" d="M323.62,305.452c0,21.652-29.372,39.204-65.608,39.204s-65.608-17.552-65.608-39.204V289.94h131.212	v15.512H323.62z"/><ellipse cx="258" cy="289.96" fill="#F5EA07" rx="65.608" ry="39.204"/><g><path fill="#E8BB20" d="M258.012,320.98c-30.996,0-56.22-13.924-56.22-31.036s25.22-31.036,56.22-31.036 s56.22,13.924,56.22,31.036S289.008,320.98,258.012,320.98z M258.012,264.38c-25.532,0-46.304,11.468-46.304,25.564 s20.772,25.564,46.304,25.564s46.304-11.468,46.304-25.564S283.544,264.38,258.012,264.38z"/><path fill="#E8BB20" d="M471.872,405.448c0,21.652-29.372,39.204-65.608,39.204s-65.608-17.552-65.608-39.204v-15.512 h131.212v15.512H471.872z"/></g><ellipse cx="406.28" cy="389.92" fill="#F5EA07" rx="65.608" ry="39.204"/><path fill="#E8BB20" d="M471.872,380.448c0,21.652-29.372,39.204-65.608,39.204s-65.608-17.552-65.608-39.204v-15.512	h131.212v15.512H471.872z"/><ellipse cx="406.28" cy="364.92" fill="#F5EA07" rx="65.608" ry="39.204"/><path fill="#E8BB20" d="M471.872,355.448c0,21.652-29.372,39.204-65.608,39.204s-65.608-17.552-65.608-39.204v-15.512	h131.212v15.512H471.872z"/><ellipse cx="406.28" cy="339.94" fill="#F5EA07" rx="65.608" ry="39.204"/><path fill="#E8BB20" d="M471.872,330.452c0,21.652-29.372,39.204-65.608,39.204s-65.608-17.552-65.608-39.204V314.94h131.212	v15.512H471.872z"/><ellipse cx="406.28" cy="314.92" fill="#F5EA07" rx="65.608" ry="39.204"/><path fill="#E8BB20" d="M471.872,305.452c0,21.652-29.372,39.204-65.608,39.204s-65.608-17.552-65.608-39.204V289.94h131.212	v15.512H471.872z"/><ellipse cx="406.28" cy="289.96" fill="#F5EA07" rx="65.608" ry="39.204"/><path fill="#E8BB20" d="M471.872,280.456c0,21.652-29.372,39.204-65.608,39.204s-65.608-17.552-65.608-39.204v-15.512	h131.212v15.512H471.872z"/><ellipse cx="406.28" cy="264.96" fill="#F5EA07" rx="65.608" ry="39.204"/><path fill="#E8BB20" d="M471.872,255.456c0,21.652-29.372,39.204-65.608,39.204s-65.608-17.552-65.608-39.204v-15.512	h131.212v15.512H471.872z"/><ellipse cx="406.28" cy="239.948" fill="#F5EA07" rx="65.608" ry="39.204"/><path fill="#E8BB20" d="M471.872,230.46c0,21.652-29.372,39.204-65.608,39.204s-65.608-17.552-65.608-39.204v-15.512h131.212	v15.512H471.872z"/><ellipse cx="406.28" cy="214.948" fill="#F5EA07" rx="65.608" ry="39.204"/><g><path fill="#E8BB20" d="M406.26,245.984c-30.996,0-56.22-13.924-56.22-31.036s25.22-31.036,56.22-31.036 s56.22,13.924,56.22,31.036S437.26,245.984,406.26,245.984z M406.26,189.384c-25.532,0-46.304,11.468-46.304,25.564 s20.772,25.564,46.304,25.564s46.304-11.468,46.304-25.564S431.796,189.384,406.26,189.384z"/><path fill="#E8BB20" d="M171.344,405.448c0,21.652-29.372,39.204-65.608,39.204S40.128,427.1,40.128,405.448v-15.512H171.34 v15.512H171.344z"/></g><ellipse cx="105.736" cy="389.92" fill="#F5EA07" rx="65.608" ry="39.204"/><path fill="#E8BB20" d="M171.344,380.448c0,21.652-29.372,39.204-65.608,39.204S40.128,402.1,40.128,380.448v-15.512H171.34	v15.512H171.344z"/><ellipse cx="105.736" cy="364.92" fill="#F5EA07" rx="65.608" ry="39.204"/><path fill="#E8BB20" d="M171.344,355.448c0,21.652-29.372,39.204-65.608,39.204S40.128,377.1,40.128,355.448v-15.512H171.34	v15.512H171.344z"/><ellipse cx="105.736" cy="339.94" fill="#F5EA07" rx="65.608" ry="39.204"/><g><path fill="#E8BB20" d="M105.736,370.976c-30.996,0-56.22-13.924-56.22-31.036s25.22-31.036,56.22-31.036 s56.22,13.924,56.22,31.036S136.732,370.976,105.736,370.976z M105.736,314.376c-25.532,0-46.304,11.468-46.304,25.564 s20.772,25.564,46.304,25.564s46.304-11.468,46.304-25.564S131.268,314.376,105.736,314.376z"/></g><g><path fill="#F1592F" d="M99.188,269.78c-3.604-3.604-3.604-9.448,0-13.052l63.384-63.384 c15.724-15.728,41.184-15.728,56.908,0l16.204,16.204c8.492,8.492,22.312,8.492,30.808,0l95.232-95.232 c8.616-8.624,21.684,4.42,13.052,13.052L279.544,222.6c-15.688,15.688-41.22,15.692-56.908,0l-16.204-16.208 c-8.492-8.488-22.312-8.488-30.808,0L112.24,269.78C108.636,273.384,102.792,273.384,99.188,269.78z"/><path fill="#F1592F" d="M386.572,96.488l-63.152,9.184c-3.316,0.48-4.66,4.536-2.292,6.908l53.972,53.972 c2.368,2.368,6.424,1.024,6.908-2.292l9.184-63.152C391.576,98.408,389.264,96.096,386.572,96.488z"/></g></svg>