<?xml version="1.0" encoding="iso-8859-1"?>
<!-- Generator: Adobe Illustrator 19.0.0, SVG Export Plug-In . SVG Version: 6.00 Build 0)  -->
<svg version="1.1" id="Capa_1" xmlns="http://www.w3.org/2000/svg" xmlns:xlink="http://www.w3.org/1999/xlink" x="0px" y="0px" width="120" height="120"
	 viewBox="0 0 512 512" style="enable-background:new 0 0 512 512;" xml:space="preserve">
<circle style="fill:#70B1E1;" cx="256" cy="256" r="256"/>
<path style="fill:#E8E7E8;" d="M190.38,202.552c-2.568,6.136-3.72,12.356-5.068,19.016c-1.72,8.396-8.136,15.076-10.88,23.148
	c-5.244,15.36-3.004,31.436-0.48,47.104H121.98c0.412-5.048-2.152-9.944-8.768-10.988c-0.892-0.108-1.784-0.26-2.676-0.436
	c0.588-0.348,0.588-1.48-0.02-3.48c0.132-4.568-0.48-9.008-1.412-13.468c-1.784-8.396,0.196-15.992-3.592-24.084
	c-2.96-6.332-8.788-7.352-13.748-5.308v-26.152c2.416-1.304,4.568-2.544,6.396-3.7c1.196-0.74,2.22-1.436,3.112-2.112
	c0.828-0.632,1.608-1.284,2.328-1.98c2.872-2.632,4.896-5.568,6.308-8.572c5.352-11.38,1.652-23.408,1.652-23.408h67.9
	c0,0-3.48,11.268,1.196,22.344c0.956,2.284,2.264,4.548,4.024,6.724c1.392,1.72,3.068,3.372,5.068,4.896
	C189.944,202.248,190.184,202.4,190.38,202.552z"/>
<path style="fill:#F0B97C;" d="M174.832,221.412c2.876-3.088,7.212-4.072,11.16-3.208c1.104-5.404,2.256-10.56,4.392-15.656
	c-0.212-0.152-0.444-0.304-0.636-0.452c-2-1.524-3.676-3.176-5.068-4.896c-1.764-2.176-3.068-4.44-4.024-6.724
	c-4.676-11.072-1.196-22.344-1.196-22.344h-67.904c0,0,3.7,12.032-1.652,23.408c-1.412,3.004-3.436,5.94-6.308,8.572
	c-0.72,0.696-1.5,1.348-2.328,1.98c-0.892,0.676-1.916,1.372-3.112,2.112c-1.816,1.152-3.984,2.4-6.384,3.704v11.596
	c1.952-3.004,4.768-5.832,8.556-8.42c6.588-4.5,12.952-1.28,15.944,4.124c6.112-3.136,14.124-1.856,16.064,6.104
	c1.332-0.152,2.756-0.092,4.272,0.24c3.308,0.724,8.548,4.416,11.86,3.508c5.192-1.424,9.948-3.968,15.132-5.412
	c4.464-1.248,8.16-0.072,10.772,2.3C174.528,221.772,174.672,221.588,174.832,221.412z"/>
<g>
	<path style="fill:#4D535F;" d="M115.528,278.408c-0.02-3.176-0.252-6.344-0.272-9.52c-0.004-0.72,0.068-1.424,0.192-2.112
		c-0.136-0.392-0.244-0.788-0.304-1.188c-0.388-2.6-0.576-5.084-0.612-7.58h-3.18v-8.196c-2.276-2.216-3.712-5.296-3.712-8.664
		c0-0.472,0.016-0.94,0.02-1.412c-2.168-2.336-3.956-5.44-4.48-8.416c-0.2-1.12-0.316-2.204-0.328-3.264
		c-0.54-0.604-1.036-1.26-1.44-1.996c-0.868-1.584-1.576-3.312-2-5.076c-0.092-0.384-0.188-0.764-0.292-1.144
		c-0.404-0.932-0.672-1.896-0.828-2.896c-0.732-1.144-1.3-2.504-1.64-4.12c-0.572-2.748-0.668-5.18-0.432-7.448
		c-3.04,1.816-6.728,3.804-10.92,5.872c-14.208,7.116-33.7,15.36-49.3,21.692c-15.728,6.396-26,21.648-26,38.616v20.256h113.86
		v-1.908C119.06,288.288,115.56,283.7,115.528,278.408z"/>
	<path style="fill:#4D535F;" d="M175.492,278.408c0.02-3.176,0.252-6.344,0.272-9.52c0.004-0.72-0.068-1.424-0.192-2.112
		c0.136-0.392,0.244-0.788,0.304-1.188c0.388-2.6,0.576-5.084,0.612-7.58h3.18v-8.196c2.276-2.216,3.712-5.296,3.712-8.664
		c0-0.472-0.016-0.94-0.02-1.412c2.168-2.336,3.956-5.44,4.48-8.416c0.2-1.12,0.316-2.204,0.328-3.264
		c0.54-0.604,1.036-1.26,1.44-1.996c0.868-1.584,1.576-3.312,2-5.076c0.092-0.384,0.188-0.764,0.292-1.144
		c0.404-0.932,0.672-1.896,0.828-2.896c0.732-1.144,1.3-2.504,1.64-4.12c0.572-2.748,0.668-5.18,0.432-7.448
		c3.04,1.816,6.728,3.804,10.92,5.872c14.208,7.116,33.7,15.36,49.3,21.692c15.728,6.396,26,21.648,26,38.616v20.256H167.156v-1.908
		C171.956,288.288,175.456,283.7,175.492,278.408z"/>
</g>
<polygon style="fill:#5F87C4;" points="166.972,291.82 122.108,291.82 135.62,239.168 151.176,239.168 "/>
<path style="fill:#70B1E1;" d="M136.928,249.764c0,0-18.832-3.74-6.996-31.152l14.324-9.032l11.22,4.516l8.1,13.864
	c0,0-5.34,23.6-18.068,21.808h-8.58V249.764z"/>
<g>
	<path style="fill:#F7CFA3;" d="M88.1,117.624c0,41.232,24.776,74.656,55.34,74.656s55.34-33.424,55.34-74.656l-6.3-34.384
		c0,0-13.424-10.412-15.344-12.328s-20.82-6.3-20.82-6.3l-42.264,2.74l-15.54,13.152l-5.204,19.452L88.1,117.624z"/>
	<path style="fill:#F7CFA3;" d="M98.012,150.168c-10.804,4.08-24.184-31.364-13.38-35.444S108.816,146.088,98.012,150.168z"/>
	<path style="fill:#F7CFA3;" d="M189.016,129.348c-3.696,9.788-3.016,19.108,1.512,20.816c10.804,4.08,24.184-31.364,13.38-35.444
		C199.376,113.012,192.712,119.56,189.016,129.348z"/>
</g>
<g>
	<path style="fill:#FDFEFF;" d="M144.256,209.58l-21.8,31.764l-24.3-37.14c1.196-0.74,2.22-1.436,3.112-2.112
		c4.156-3.156,6.876-6.808,8.636-10.552L144.256,209.58z"/>
	<path style="fill:#FDFEFF;" d="M191.12,203.076l-25.04,38.268l-21.82-31.764l36.4-19.104c1.72,4.092,4.548,8.16,9.092,11.62
		C190.164,202.424,190.62,202.748,191.12,203.076z"/>
</g>
<g>
	<path style="fill:#656D7A;" d="M132.748,291.82h-27.696l-18.428-34.572l17.752-13.708l-21.496,2.176l2.416-34.46
		c5.112-2.524,9.528-4.94,12.856-7.048c1.196-0.74,2.22-1.436,3.112-2.112c0.828-0.632,1.608-1.284,2.328-1.98L132.748,291.82z"/>
	<path style="fill:#656D7A;" d="M182.984,243.544l17.752,13.708l-18.428,34.572h-27.696L184.68,197.2
		c1.392,1.72,3.068,3.372,5.068,4.896c0.412,0.328,0.872,0.652,1.372,0.98c2.696,1.848,6.416,3.98,10.812,6.264l2.544,36.376
		L182.984,243.544z"/>
	<path style="fill:#656D7A;" d="M174.96,77.6c0,0,24.604,3.668,15.004,50.844h7c0,0,13.604-33.24,2-53.844L174.96,77.6z"/>
</g>
<path style="fill:#4D535F;" d="M204.316,74.388c0,0-35.548,44.072-102.264,9.252c0,0-14.852,8.28-5.6,44.8h-8.524
	c0,0-10.312-37.476-0.648-52.696c0,0-6.68-7.356-4.136-14.86c0,0,3.484,7.068,8.392,8.8c0,0-9.592-10.532-1.732-21.424
	c0,0,0.144,10.82,6.852,13.776C96.656,62.04,150.556,6.784,204.316,74.388z"/>
<g>
	<path style="fill:#FDFEFF;" d="M134.84,118.976c-0.84,6.244-6.264,18.092-19.336,18.092h-3.832
		c-6.584,0-12.116-4.396-13.072-12.572v-9.672c0,0-0.284-8.872,11.604-8.36h12.008c0,0,10.86,1.08,12.628,7.108V118.976z"/>
	<path style="fill:#FDFEFF;" d="M187.976,114.824v9.672c-0.948,8.144-6.456,12.572-13.068,12.572h-3.836
		c-11.572,0-18.224-9.808-19.336-18.092v-5.404c1.764-6.028,12.632-7.108,12.632-7.108h12
		C188.26,105.952,187.976,114.824,187.976,114.824z"/>
</g>
<path style="fill:#353944;" d="M158.012,105.028c-9.592,2.484-20.192,2.46-29.692,0c-18.94-4.9-44.484,1.796-44.484,1.796
	l0.716,5.168c2.44-0.228,4.308,0.08,5.692,0.584c2.088,0.756,3.524,2.684,3.676,4.896l0.324,4.856
	c1.264,17.44,15.5,16.796,15.5,16.796h8.152c13.364,0,19.816-12.668,20.756-18.896c0.812-5.328,4.512-5.652,4.512-5.652
	s3.7,0.324,4.504,5.652c0.936,6.144,7.28,18.896,21.264,18.896h7.644c0,0,14.236,0.644,15.508-16.796l0.324-4.856
	c0.148-2.212,1.58-4.14,3.668-4.896c1.396-0.5,3.252-0.812,5.7-0.584l0.94-5.168C202.72,106.824,176.948,100.128,158.012,105.028z
	 M134.84,118.976c-0.84,6.244-6.264,18.092-19.336,18.092h-3.832c-6.584,0-12.116-4.396-13.072-12.572v-9.672
	c0,0-0.284-8.872,11.604-8.36h12.008c0,0,10.86,1.08,12.628,7.108V118.976z M187.976,114.824v9.672
	c-0.948,8.144-6.456,12.572-13.068,12.572h-3.836c-11.572,0-18.224-9.808-19.336-18.092v-5.404
	c1.764-6.028,12.632-7.108,12.632-7.108h12C188.26,105.952,187.976,114.824,187.976,114.824z"/>
<path style="fill:#F0B97C;" d="M154.032,169.776h-21.184c-2.044,0-3.704-1.656-3.704-3.704v-0.312c0-2.044,1.656-3.704,3.704-3.704
	h21.184c2.044,0,3.704,1.656,3.704,3.704v0.312C157.736,168.116,156.076,169.776,154.032,169.776z"/>
<ellipse style="fill:#DA8D27;" cx="368.92" cy="363" rx="59.852" ry="103.24"/>
<path style="fill:#E8E7E8;" d="M411.364,401.808c-2.568,6.136-3.72,12.356-5.068,19.016c-1.72,8.396-8.136,15.076-10.88,23.148
	c-5.244,15.36-3.004,31.436-0.48,47.104h-51.972c0.412-5.048-2.152-9.944-8.768-10.988c-0.892-0.108-1.784-0.26-2.676-0.436
	c0.588-0.348,0.588-1.48-0.02-3.48c0.132-4.568-0.48-9.008-1.412-13.468c-1.784-8.396,0.196-15.992-3.592-24.084
	c-2.96-6.332-8.788-7.352-13.748-5.308V407.16c2.416-1.304,4.568-2.544,6.396-3.7c1.196-0.74,2.22-1.436,3.112-2.112
	c0.828-0.632,1.608-1.284,2.328-1.98c2.872-2.632,4.896-5.568,6.308-8.572c5.352-11.38,1.652-23.408,1.652-23.408h67.9
	c0,0-3.48,11.268,1.196,22.344c0.956,2.284,2.264,4.548,4.024,6.724c1.392,1.72,3.068,3.372,5.068,4.896
	C410.928,401.504,411.168,401.656,411.364,401.808z"/>
<path style="fill:#F0B97C;" d="M395.816,420.668c2.876-3.088,7.212-4.072,11.16-3.208c1.104-5.404,2.256-10.56,4.392-15.656
	c-0.212-0.152-0.444-0.304-0.636-0.452c-2-1.524-3.676-3.176-5.068-4.896c-1.764-2.176-3.068-4.44-4.024-6.724
	c-4.676-11.072-1.196-22.344-1.196-22.344H332.54c0,0,3.7,12.032-1.652,23.408c-1.412,3.004-3.436,5.94-6.308,8.572
	c-0.72,0.696-1.5,1.348-2.328,1.98c-0.892,0.676-1.916,1.372-3.112,2.112c-1.816,1.152-3.984,2.4-6.384,3.704v11.596
	c1.952-3.004,4.768-5.832,8.556-8.42c6.588-4.5,12.952-1.28,15.944,4.124c6.112-3.136,14.124-1.856,16.064,6.104
	c1.332-0.152,2.756-0.092,4.272,0.24c3.308,0.724,8.548,4.416,11.86,3.508c5.192-1.424,9.948-3.968,15.132-5.412
	c4.464-1.248,8.16-0.072,10.772,2.3C395.512,421.028,395.652,420.844,395.816,420.668z"/>
<g>
	<path style="fill:#4D535F;" d="M336.508,477.664c-0.016-2.424-0.468-9.468-0.08-11.632c-0.628-1.808-0.888-6.832-0.916-8.764h-3.18
		v-8.196c-3.148-3.064-3.736-6.164-3.692-10.076c-3.32-3.58-4.76-7.46-4.812-11.68c-2.26-2.532-4.088-8.16-4.56-11.108
		c-1.968-3.08-2.448-7.948-2.072-11.568c-3.04,1.816-6.728,3.804-10.92,5.872c-14.208,7.116-33.7,15.36-49.3,21.692
		c-15.728,6.396-26,21.648-26,38.616v20.256h113.86v-1.908C340.044,487.544,336.544,482.956,336.508,477.664z"/>
	<path style="fill:#4D535F;" d="M396.472,477.664c0.016-2.424,0.468-9.468,0.08-11.632c0.628-1.808,0.888-6.832,0.916-8.764h3.18
		v-8.196c3.148-3.064,3.736-6.164,3.692-10.076c3.32-3.58,4.76-7.46,4.812-11.68c2.352-2.636,4.124-8.388,4.56-11.108
		c1.968-3.08,2.448-7.948,2.072-11.568c3.04,1.816,6.728,3.804,10.92,5.872c14.208,7.116,33.7,15.36,49.3,21.692
		c15.728,6.396,26,21.648,26,38.616v20.256H388.14v-1.908C392.94,487.544,396.44,482.956,396.472,477.664z"/>
</g>
<polygon style="fill:#5F87C4;" points="387.952,491.076 343.092,491.076 356.604,438.424 372.16,438.424 "/>
<path style="fill:#70B1E1;" d="M357.912,449.02c0,0-18.832-3.74-6.996-31.152l14.324-9.032l11.22,4.516l8.1,13.864
	c0,0-5.34,23.6-18.068,21.808h-8.58V449.02z"/>
<g>
	<path style="fill:#F7CFA3;" d="M309.084,316.88c0,41.232,24.776,74.656,55.34,74.656s55.34-33.424,55.34-74.656l-6.3-34.384
		c0,0-13.424-10.412-15.344-12.328s-20.82-6.3-20.82-6.3l-42.264,2.74l-15.54,13.152l-5.204,19.452L309.084,316.88z"/>
	<path style="fill:#F7CFA3;" d="M318.992,349.424c-10.804,4.08-24.184-31.364-13.38-35.444
		C316.42,309.9,329.796,345.344,318.992,349.424z"/>
	<path style="fill:#F7CFA3;" d="M410,328.604c-3.696,9.788-3.016,19.108,1.512,20.816c10.804,4.08,24.184-31.364,13.38-35.444
		C420.36,312.268,413.692,318.816,410,328.604z"/>
</g>
<g>
	<path style="fill:#FDFEFF;" d="M365.24,408.836l-21.8,31.764l-24.3-37.14c1.196-0.74,2.22-1.436,3.112-2.112
		c4.156-3.156,6.876-6.808,8.636-10.552L365.24,408.836z"/>
	<path style="fill:#FDFEFF;" d="M412.104,402.332l-25.04,38.268l-21.82-31.764l36.4-19.104c1.72,4.092,4.548,8.16,9.092,11.62
		C411.148,401.68,411.604,402.004,412.104,402.332z"/>
</g>
<g>
	<path style="fill:#656D7A;" d="M353.732,491.076h-27.696l-18.428-34.572l17.752-13.708l-21.496,2.176l2.416-34.46
		c5.112-2.524,9.528-4.94,12.86-7.048c1.196-0.74,2.22-1.436,3.112-2.112c0.828-0.632,1.608-1.284,2.328-1.98L353.732,491.076z"/>
	<path style="fill:#656D7A;" d="M403.968,442.796l17.752,13.708l-18.428,34.572h-27.696l30.068-94.616
		c1.392,1.72,3.068,3.372,5.068,4.896c0.412,0.328,0.872,0.652,1.372,0.98c2.696,1.848,6.416,3.98,10.812,6.264l2.544,36.376
		L403.968,442.796z"/>
</g>
<g>
	<path style="fill:#FDFEFF;" d="M355.824,318.228c-0.84,6.244-6.264,18.092-19.336,18.092h-3.832
		c-6.584,0-12.116-4.396-13.072-12.572v-9.668c0,0-0.284-8.872,11.604-8.36h12.008c0,0,10.86,1.08,12.628,7.108V318.228z"/>
	<path style="fill:#FDFEFF;" d="M408.96,314.08v9.672c-0.948,8.144-6.456,12.572-13.068,12.572h-3.836
		c-11.572,0-18.224-9.808-19.336-18.092v-5.404c1.764-6.028,12.632-7.108,12.632-7.108h12
		C409.244,305.208,408.96,314.08,408.96,314.08z"/>
</g>
<path style="fill:#353944;" d="M378.996,304.284c-9.592,2.484-20.192,2.46-29.692,0c-18.94-4.9-44.484,1.796-44.484,1.796
	l0.716,5.168c2.44-0.228,4.308,0.08,5.692,0.584c2.088,0.756,3.524,2.684,3.676,4.896l0.324,4.856
	c1.264,17.44,15.5,16.796,15.5,16.796h8.152c13.364,0,19.816-12.668,20.756-18.896c0.812-5.328,4.512-5.652,4.512-5.652
	s3.7,0.324,4.504,5.652c0.936,6.144,7.28,18.896,21.264,18.896h7.644c0,0,14.236,0.644,15.508-16.796l0.324-4.856
	c0.148-2.212,1.58-4.14,3.668-4.896c1.396-0.5,3.252-0.812,5.7-0.584l0.94-5.168C423.7,306.08,397.928,299.384,378.996,304.284z
	 M355.824,318.228c-0.84,6.244-6.264,18.092-19.336,18.092h-3.832c-6.584,0-12.116-4.396-13.072-12.572v-9.668
	c0,0-0.284-8.872,11.604-8.36h12.008c0,0,10.86,1.08,12.628,7.108V318.228z M408.96,314.08v9.672
	c-0.948,8.144-6.456,12.572-13.068,12.572h-3.836c-11.572,0-18.224-9.808-19.336-18.092v-5.404
	c1.764-6.028,12.632-7.108,12.632-7.108h12C409.244,305.208,408.96,314.08,408.96,314.08z"/>
<path style="fill:#F0B97C;" d="M375.528,369.032H353.32c-1.76,0-3.192-1.428-3.192-3.192v-1.34c0-1.76,1.428-3.192,3.192-3.192
	h22.208c1.76,0,3.192,1.428,3.192,3.192v1.34C378.72,367.6,377.292,369.032,375.528,369.032z"/>
<path style="fill:#E8BB20;" d="M340.976,267c0,0,93.856,32.724,79.684,143.48c0,0,51.404-103.436-12.168-158.576
	c-17.428-15.116-36.152-13.244-44.656-13L340.976,267z"/>
<g>
	<path style="fill:#F5EA07;" d="M316.244,410.48c-8.1-9.26-63.448-164.372,47.588-171.576
		C342.008,275.188,303.936,319.86,316.244,410.48z"/>
	<path style="fill:#F5EA07;" d="M382.652,18.568c-61.856,0-112,37.14-112,82.952c0,14.38,4.944,27.9,13.636,39.692l-48.46,39.076
		l84.968-9.62c17.728,8.716,38.984,13.804,61.856,13.804c61.856,0,112-37.14,112-82.952S444.508,18.568,382.652,18.568z"/>
</g>
<g>
	<path style="fill:#F1592F;" d="M185.524,341.332c-17.728-8.716-38.984-13.804-61.856-13.804c-61.856,0-112,37.14-112,82.952
		s50.144,82.952,112,82.952s112-37.14,112-82.952c0-14.38-4.944-27.9-13.636-39.692l48.46-39.076L185.524,341.332z"/>
	<path style="fill:#F1592F;" d="M366.544,139.124c-0.032,0-0.06,0-0.092,0c-2.56-0.024-5.004-1.08-6.78-2.924l-29.76-30.92
		c-3.652-3.792-3.536-9.832,0.26-13.484c3.792-3.652,9.832-3.54,13.484,0.26l23.016,23.912l55.1-55.1
		c3.72-3.728,9.764-3.728,13.488,0c3.728,3.724,3.728,9.764,0,13.488l-61.972,61.976C371.5,138.124,369.076,139.124,366.544,139.124
		z"/>
</g>
<path style="fill:#FDFEFF;" d="M100.684,445.156l-29.76-30.92c-3.652-3.792-3.536-9.832,0.26-13.484
	c3.792-3.652,9.832-3.54,13.484,0.26l23.016,23.912l55.1-55.1c3.72-3.728,9.764-3.728,13.488,0c3.724,3.724,3.724,9.764,0,13.488
	L114.3,445.288C110.54,449.056,104.392,449.012,100.684,445.156z"/>
<g>
</g>
<g>
</g>
<g>
</g>
<g>
</g>
<g>
</g>
<g>
</g>
<g>
</g>
<g>
</g>
<g>
</g>
<g>
</g>
<g>
</g>
<g>
</g>
<g>
</g>
<g>
</g>
<g>
</g>
</svg>
