<svg xmlns="http://www.w3.org/2000/svg" width="91" height="52" fill="none" viewBox="0 0 549 313"><path fill="#5181B8" d="M545.451 282.55C544.787 281.119 544.168 279.932 543.593 278.981C534.079 261.846 515.898 240.814 489.061 215.879L488.494 215.308L488.21 215.028L487.923 214.741H487.635C475.455 203.13 467.742 195.323 464.512 191.326C458.602 183.712 457.278 176.005 460.508 168.196C462.79 162.296 471.362 149.836 486.204 130.799C494.011 120.71 500.194 112.624 504.76 106.532C537.691 62.7516 551.968 34.7756 547.588 22.5926L545.887 19.7456C544.744 18.0316 541.794 16.4636 537.041 15.0336C532.277 13.6066 526.188 13.3706 518.763 14.3216L436.539 14.8896C435.207 14.4176 433.305 14.4616 430.827 15.0336C428.352 15.6056 427.114 15.8926 427.114 15.8926L425.683 16.6076L424.547 17.4666C423.595 18.0346 422.548 19.0336 421.405 20.4616C420.268 21.8846 419.317 23.5546 418.557 25.4576C409.605 48.4886 399.427 69.9016 388.004 89.6956C380.961 101.499 374.493 111.728 368.586 120.389C362.687 129.047 357.738 135.426 353.744 139.515C349.744 143.608 346.134 146.887 342.892 149.364C339.655 151.842 337.184 152.889 335.473 152.506C333.758 152.123 332.143 151.743 330.614 151.363C327.951 149.649 325.809 147.318 324.194 144.368C322.572 141.418 321.48 137.705 320.909 133.232C320.341 128.756 320.005 124.906 319.909 121.669C319.82 118.436 319.861 113.863 320.054 107.963C320.252 102.06 320.341 98.0656 320.341 95.9716C320.341 88.7376 320.482 80.8866 320.765 72.4166C321.053 63.9466 321.286 57.2356 321.481 52.2916C321.675 47.3426 321.765 42.1066 321.765 36.5866C321.765 31.0666 321.429 26.7376 320.765 23.5956C320.109 20.4576 319.102 17.4116 317.775 14.4586C316.44 11.5086 314.486 9.22663 311.922 7.60663C309.353 5.98863 306.159 4.70462 302.358 3.75062C292.269 1.46762 279.422 0.232624 263.811 0.0406238C228.41 -0.339376 205.663 1.94662 195.575 6.89562C191.578 8.98662 187.961 11.8436 184.727 15.4576C181.3 19.6466 180.822 21.9326 183.296 22.3086C194.718 24.0196 202.804 28.1126 207.563 34.5836L209.278 38.0126C210.612 40.4866 211.944 44.8666 213.277 51.1466C214.608 57.4266 215.467 64.3736 215.845 71.9836C216.795 85.8806 216.795 97.7766 215.845 107.673C214.892 117.573 213.992 125.28 213.133 130.8C212.274 136.32 210.99 140.793 209.278 144.218C207.563 147.644 206.422 149.738 205.85 150.498C205.279 151.258 204.803 151.737 204.425 151.925C201.951 152.873 199.378 153.356 196.715 153.356C194.048 153.356 190.814 152.022 187.008 149.356C183.203 146.69 179.254 143.028 175.161 138.364C171.068 133.699 166.452 127.18 161.311 118.806C156.174 110.432 150.844 100.535 145.324 89.1146L140.757 80.8326C137.902 75.5046 134.002 67.7466 129.053 57.5656C124.101 47.3806 119.724 37.5286 115.919 28.0116C114.398 24.0146 112.113 20.9716 109.068 18.8776L107.639 18.0186C106.689 17.2586 105.164 16.4516 103.072 15.5916C100.977 14.7326 98.791 14.1166 96.505 13.7376L18.276 14.3056C10.282 14.3056 4.858 16.1166 2.002 19.7336L0.859 21.4446C0.288 22.3976 0 23.9196 0 26.0146C0 28.1086 0.571 30.6786 1.714 33.7216C13.134 60.5616 25.553 86.4466 38.971 111.381C52.389 136.315 64.049 156.4 73.944 171.618C83.841 186.847 93.929 201.22 104.208 214.73C114.487 228.245 121.291 236.906 124.62 240.711C127.953 244.523 130.571 247.373 132.474 249.276L139.613 256.127C144.181 260.696 150.889 266.168 159.74 272.543C168.593 278.922 178.394 285.202 189.148 291.393C199.904 297.574 212.417 302.618 226.694 306.519C240.969 310.424 254.863 311.991 268.378 311.235H301.212C307.871 310.66 312.916 308.566 316.345 304.952L317.481 303.521C318.245 302.385 318.96 300.62 319.62 298.245C320.288 295.866 320.62 293.245 320.62 290.394C320.425 282.211 321.048 274.836 322.472 268.27C323.895 261.706 325.517 256.757 327.331 253.424C329.144 250.094 331.19 247.284 333.467 245.006C335.749 242.723 337.375 241.34 338.329 240.864C339.277 240.385 340.034 240.06 340.605 239.865C345.173 238.343 350.549 239.817 356.741 244.294C362.928 248.767 368.731 254.29 374.159 260.854C379.584 267.424 386.102 274.795 393.714 282.978C401.331 291.164 407.991 297.249 413.699 301.252L419.407 304.678C423.219 306.964 428.168 309.058 434.26 310.961C440.341 312.863 445.669 313.339 450.244 312.388L523.331 311.248C530.56 311.248 536.185 310.051 540.175 307.676C544.173 305.297 546.548 302.676 547.314 299.825C548.078 296.971 548.119 293.733 547.459 290.113C546.782 286.502 546.115 283.977 545.451 282.55Z"/></svg>