<svg width="257" height="52" viewBox="0 0 217 44" fill="none" xmlns="http://www.w3.org/2000/svg">
<path d="M111.231 20.769C109.447 20.769 108.161 21.354 106.857 21.95V35.436C108.106 35.555 108.822 35.555 110.007 35.555C114.289 35.555 114.876 33.594 114.876 30.856V24.415C114.876 22.393 114.205 20.769 111.231 20.769V20.769ZM82.793 20.033C79.822 20.033 79.144 21.664 79.144 23.684V24.819H86.438V23.684C86.438 21.664 85.76 20.033 82.793 20.033ZM27.703 34.07C27.703 35.668 28.457 36.498 30.121 36.498C31.906 36.498 32.963 35.916 34.266 35.318V32.119H30.363C28.515 32.119 27.703 32.463 27.703 34.07ZM138.894 20.769C135.918 20.769 134.887 22.393 134.887 24.415V31.794C134.887 33.821 135.918 35.45 138.894 35.45C141.862 35.45 142.901 33.821 142.901 31.794V24.415C142.9 22.393 141.861 20.769 138.894 20.769V20.769ZM13.119 42.344H4.371V21.17H0V13.874H4.372V9.492C4.372 3.539 6.839 0 13.851 0H19.689V7.298H16.04C13.31 7.298 13.13 8.318 13.13 10.221L13.119 13.873H19.729L18.956 21.169H13.119V42.344V42.344ZM43.016 42.399H35.725L35.41 40.555C32.081 42.399 29.11 42.698 27.15 42.698C21.803 42.698 18.957 39.126 18.957 34.186C18.957 28.358 22.278 26.278 28.219 26.278H34.266V25.018C34.266 22.043 33.925 21.17 29.35 21.17H21.87L22.601 13.874H30.777C40.815 13.874 43.016 17.045 43.016 25.077V42.399V42.399ZM67.809 21.705C63.272 20.927 61.969 20.756 59.786 20.756C55.865 20.756 54.68 21.621 54.68 24.951V31.25C54.68 34.58 55.865 35.449 59.786 35.449C61.969 35.449 63.272 35.275 67.809 34.494V41.611C63.835 42.502 61.246 42.736 59.058 42.736C49.666 42.736 45.933 37.797 45.933 30.662V25.551C45.933 18.41 49.666 13.462 59.058 13.462C61.246 13.462 63.835 13.697 67.809 14.592V21.705V21.705ZM95.185 30.662H79.143V31.25C79.143 34.58 80.329 35.449 84.249 35.449C87.773 35.449 89.924 35.275 94.453 34.494V41.611C90.085 42.502 87.809 42.736 83.524 42.736C74.131 42.736 70.396 37.797 70.396 30.662V24.818C70.396 18.575 73.167 13.462 82.792 13.462C92.417 13.462 95.185 18.516 95.185 24.818V30.662V30.662ZM123.622 30.797C123.622 37.693 121.651 42.723 109.711 42.723C105.399 42.723 102.87 42.344 98.111 41.612V2.192L106.856 0.733002V14.522C108.746 13.82 111.192 13.463 113.418 13.463C122.164 13.463 123.621 17.384 123.621 23.685V30.797H123.622ZM151.655 30.947C151.655 36.896 149.199 42.666 138.923 42.666C128.642 42.666 126.14 36.896 126.14 30.947V25.203C126.14 19.251 128.642 13.48 138.923 13.48C149.199 13.48 151.655 19.251 151.655 25.203V30.947ZM179.669 30.947C179.669 36.896 177.21 42.666 166.936 42.666C156.655 42.666 154.153 36.896 154.153 30.947V25.203C154.153 19.251 156.655 13.48 166.936 13.48C177.21 13.48 179.669 19.251 179.669 25.203V30.947ZM208.418 42.344H198.939L190.922 28.961V42.344H182.174V2.191L190.922 0.732V26.581L198.939 13.874H208.418L199.666 27.741L208.418 42.344V42.344ZM166.906 20.769C163.935 20.769 162.904 22.393 162.904 24.415V31.794C162.904 33.821 163.935 35.45 166.906 35.45C169.873 35.45 170.923 33.821 170.923 31.794V24.415C170.923 22.393 169.873 20.769 166.906 20.769ZM213.411 37.35C214.884 37.35 216.057 38.551 216.057 40.051C216.057 41.574 214.883 42.762 213.4 42.762C211.924 42.762 210.727 41.574 210.727 40.051C210.727 38.551 211.924 37.35 213.4 37.35H213.411V37.35ZM213.4 37.77C212.213 37.77 211.242 38.791 211.242 40.051C211.242 41.334 212.214 42.342 213.411 42.342C214.609 42.354 215.566 41.334 215.566 40.063C215.566 38.792 214.609 37.77 213.411 37.77H213.4V37.77ZM212.897 41.623H212.417V38.609C212.669 38.574 212.909 38.539 213.269 38.539C213.725 38.539 214.023 38.635 214.206 38.766C214.383 38.899 214.478 39.102 214.478 39.389C214.478 39.787 214.216 40.026 213.893 40.123V40.146C214.156 40.195 214.335 40.433 214.396 40.876C214.466 41.345 214.539 41.524 214.586 41.622H214.083C214.012 41.524 213.939 41.249 213.879 40.852C213.809 40.469 213.615 40.325 213.231 40.325H212.898V41.623H212.897ZM212.897 39.955H213.245C213.639 39.955 213.974 39.81 213.974 39.437C213.974 39.173 213.784 38.91 213.245 38.91C213.088 38.91 212.979 38.922 212.897 38.933V39.955Z" transform="translate(0.790001 0.828003)" fill="#3B5998"/>
</svg>
