<?xml version="1.0" encoding="iso-8859-1"?>
<!-- Generator: Adobe Illustrator 19.0.0, SVG Export Plug-In . SVG Version: 6.00 Build 0)  -->
<svg version="1.1" id="Capa_1" xmlns="http://www.w3.org/2000/svg" xmlns:xlink="http://www.w3.org/1999/xlink" x="0px" y="0px" width="100" height="100"
	 viewBox="0 0 512 512" style="enable-background:new 0 0 512 512;" xml:space="preserve">
<path style="fill:#0261A5;" d="M104.727,383.851h34.909c6.982,0,11.636-4.655,11.636-11.636v-23.273h-46.545V383.851z"/>
<path style="fill:#99B4CD;" d="M465.455,209.306c25.6,0,46.545,20.945,46.545,46.545s-20.945,46.545-46.545,46.545V209.306z"/>
<path style="fill:#6C9ABB;" d="M465.455,279.124v23.273c25.6,0,46.545-20.945,46.545-46.545c0-3.491-1.164-8.145-1.164-11.636
	C505.018,263.996,487.564,279.124,465.455,279.124z"/>
<path style="fill:#D5E3EF;" d="M34.909,302.396H11.636C4.655,302.396,0,297.742,0,290.76v-69.818
	c0-6.982,4.655-11.636,11.636-11.636h23.273V302.396z"/>
<path style="fill:#B0C4D9;" d="M23.273,209.306v46.545c0,6.982-4.655,11.636-11.636,11.636H0v23.273
	c0,6.982,4.655,11.636,11.636,11.636h23.273v-34.909v-58.182H23.273z"/>
<path style="fill:#4C9CD6;" d="M197.818,348.942H46.545c-6.982,0-11.636-4.655-11.636-11.636V174.396
	c0-6.982,4.655-11.636,11.636-11.636h151.273c6.982,0,11.636,4.655,11.636,11.636v162.909
	C209.455,344.287,204.8,348.942,197.818,348.942z"/>
<path style="fill:#3689C9;" d="M197.818,162.76L197.818,162.76c-6.982,0-11.636,4.655-11.636,11.636v104.727
	c0,6.982-4.655,11.636-11.636,11.636h-128c-6.982,0-11.636,4.655-11.636,11.636v34.909l0,0c0,6.982,4.655,11.636,11.636,11.636
	h151.273c6.982,0,11.636-4.655,11.636-11.636V174.396C209.455,167.415,204.8,162.76,197.818,162.76z"/>
<path style="fill:#D5E3EF;" d="M418.909,418.76l-2.327-2.327c-54.691-58.182-129.164-90.764-207.127-90.764l0,0V186.033l0,0
	c77.964,0,152.436-32.582,207.127-90.764l2.327-2.327V418.76z"/>
<path style="fill:#FFFFFF;" d="M320,191.851c-2.327,0-4.655-1.164-5.818-3.491c-1.164-3.491,1.164-5.818,3.491-6.982
	c27.927-9.309,54.691-25.6,75.636-47.709c2.327-2.327,5.818-2.327,8.145,0s2.327,5.818,0,8.145
	c-22.109,23.273-50.036,41.891-80.291,51.2C321.164,191.851,321.164,191.851,320,191.851z"/>
<path style="fill:#B0C4D9;" d="M232.727,267.487v-59.345c0-12.8-10.473-22.109-23.273-22.109l0,0v139.636
	c77.964,0,152.436,32.582,207.127,90.764l2.327,2.327v-76.8c-46.545-37.236-103.564-48.873-164.073-50.036
	C242.036,290.76,232.727,280.287,232.727,267.487z"/>
<path style="fill:#4C9CD6;" d="M442.182,442.033L442.182,442.033c-12.8,0-23.273-10.473-23.273-23.273V92.942
	c0-12.8,10.473-23.273,23.273-23.273l0,0c12.8,0,23.273,10.473,23.273,23.273V418.76
	C465.455,431.56,454.982,442.033,442.182,442.033z"/>
<path style="fill:#3689C9;" d="M95.418,442.033L95.418,442.033c-8.145,0-13.964-5.818-13.964-13.964v-79.127h58.182l-31.418,83.782
	C105.891,438.542,101.236,442.033,95.418,442.033z"/>
<path style="fill:#1470B8;" d="M81.455,348.942v11.636h5.818c15.127,0,25.6,13.964,23.273,27.927l-11.636,52.364
	c3.491-1.164,6.982-4.655,8.145-8.145l32.582-83.782H81.455z"/>
<path style="fill:#3689C9;" d="M442.182,69.669v314.182c0,12.8-10.473,23.273-23.273,23.273l0,0v10.473
	c0,11.636,8.145,22.109,19.782,24.436c15.127,2.327,26.764-9.309,26.764-23.273V92.942
	C465.455,80.142,454.982,69.669,442.182,69.669z"/>
<path style="fill:#70B7E5;" d="M430.545,267.487L430.545,267.487c-6.982,0-11.636-4.655-11.636-11.636V116.215
	c0-6.982,4.655-11.636,11.636-11.636l0,0c6.982,0,11.636,4.655,11.636,11.636v139.636
	C442.182,262.833,437.527,267.487,430.545,267.487z"/>
<g>
	<path style="fill:#1470B8;" d="M453.818,407.124L453.818,407.124c-6.982,0-11.636-4.655-11.636-11.636v-81.455
		c0-6.982,4.655-11.636,11.636-11.636l0,0c6.982,0,11.636,4.655,11.636,11.636v81.455
		C465.455,402.469,460.8,407.124,453.818,407.124z"/>
	<path style="fill:#1470B8;" d="M87.273,220.942h69.818c3.491,0,5.818,2.327,5.818,5.818l0,0c0,3.491-2.327,5.818-5.818,5.818
		H87.273c-3.491,0-5.818-2.327-5.818-5.818l0,0C81.455,223.269,83.782,220.942,87.273,220.942z"/>
</g>
<path style="fill:#70B7E5;" d="M52.364,174.396h69.818c3.491,0,5.818,2.327,5.818,5.818l0,0c0,3.491-2.327,5.818-5.818,5.818H52.364
	c-3.491,0-5.818-2.327-5.818-5.818l0,0C46.545,176.724,48.873,174.396,52.364,174.396z"/>
<g>
	<path style="fill:#1470B8;" d="M87.273,244.215h69.818c3.491,0,5.818,2.327,5.818,5.818l0,0c0,3.491-2.327,5.818-5.818,5.818
		H87.273c-3.491,0-5.818-2.327-5.818-5.818l0,0C81.455,246.542,83.782,244.215,87.273,244.215z"/>
	<path style="fill:#1470B8;" d="M87.273,267.487h69.818c3.491,0,5.818,2.327,5.818,5.818l0,0c0,3.491-2.327,5.818-5.818,5.818
		H87.273c-3.491,0-5.818-2.327-5.818-5.818l0,0C81.455,269.815,83.782,267.487,87.273,267.487z"/>
</g>
<path style="fill:#70B7E5;" d="M145.455,186.033L145.455,186.033c-3.491,0-5.818-2.327-5.818-5.818l0,0
	c0-3.491,2.327-5.818,5.818-5.818l0,0c3.491,0,5.818,2.327,5.818,5.818l0,0C151.273,183.706,148.945,186.033,145.455,186.033z"/>
<g>
</g>
<g>
</g>
<g>
</g>
<g>
</g>
<g>
</g>
<g>
</g>
<g>
</g>
<g>
</g>
<g>
</g>
<g>
</g>
<g>
</g>
<g>
</g>
<g>
</g>
<g>
</g>
<g>
</g>
</svg>
