<svg xmlns="http://www.w3.org/2000/svg" xmlns:xlink="http://www.w3.org/1999/xlink" id="Capa_1" width="100" height="100" x="0" y="0" fill="#0097A7" enable-background="new 0 0 496 496" version="1.1" viewBox="0 0 496 496" xml:space="preserve"><g><g><path d="M288,97.472V72c0-22.056-17.944-40-40-40c-22.056,0-40,17.944-40,40v25.472c-9.288,3.312-16,12.112-16,22.528v64 c0,13.232,10.768,24,24,24h64c13.232,0,24-10.768,24-24v-64C304,109.584,297.288,100.784,288,97.472z M224,72 c0-13.232,10.768-24,24-24s24,10.768,24,24v24h-48V72z M288,184c0,4.408-3.592,8-8,8h-64c-4.408,0-8-3.592-8-8v-64 c0-4.408,3.592-8,8-8h64c4.408,0,8,3.592,8,8V184z"/></g></g><g><g><path d="M248,120c-13.232,0-24,10.768-24,24c0,10.416,6.712,19.216,16,22.528V184h16v-17.472c9.288-3.312,16-12.112,16-22.528 C272,130.768,261.232,120,248,120z M248,152c-4.408,0-8-3.592-8-8s3.592-8,8-8s8,3.592,8,8S252.408,152,248,152z"/></g></g><g><g><path d="M24,336c-13.232,0-24,10.768-24,24c0,10.416,6.712,19.216,16,22.528V472h16v-89.472c9.288-3.312,16-12.112,16-22.528 C48,346.768,37.232,336,24,336z M24,368c-4.408,0-8-3.584-8-8c0-4.416,3.592-8,8-8s8,3.584,8,8C32,364.416,28.408,368,24,368z"/></g></g><g><g><path d="M80,449.472V360H64v89.472c-9.288,3.312-16,12.112-16,22.528c0,13.232,10.768,24,24,24s24-10.768,24-24 C96,461.584,89.288,452.784,80,449.472z M72,480c-4.408,0-8-3.584-8-8c0-4.416,3.592-8,8-8s8,3.584,8,8 C80,476.416,76.408,480,72,480z"/></g></g><g><g><path d="M472,336c-13.232,0-24,10.768-24,24c0,10.416,6.712,19.216,16,22.528V472h16v-89.472c9.288-3.312,16-12.112,16-22.528 C496,346.768,485.232,336,472,336z M472,368c-4.408,0-8-3.584-8-8c0-4.416,3.592-8,8-8c4.408,0,8,3.584,8,8 C480,364.416,476.408,368,472,368z"/></g></g><g><g><path d="M432,449.472V360h-16v89.472c-9.288,3.312-16,12.112-16,22.528c0,13.232,10.768,24,24,24s24-10.768,24-24 C448,461.584,441.288,452.784,432,449.472z M424,480c-4.408,0-8-3.584-8-8c0-4.416,3.592-8,8-8c4.408,0,8,3.584,8,8 C432,476.416,428.408,480,424,480z"/></g></g><g><g><rect width="16" height="16" x="168" y="256"/></g></g><g><g><rect width="16" height="16" x="312" y="256"/></g></g><g><g><rect width="16" height="16" x="168" y="352"/></g></g><g><g><rect width="16" height="16" x="200" y="352"/></g></g><g><g><rect width="16" height="16" x="312" y="448"/></g></g><g><g><rect width="16" height="16" x="280" y="448"/></g></g><g><g><path d="M424,272c0,17.648-14.352,32-32,32v16c26.472,0,48-21.528,48-48H424z"/></g></g><g><g><path d="M399.632,192.36c-1.832-19.048-10.544-36.888-24.464-50.184c0.52-4.664,0.832-9.384,0.832-14.176 C376,57.424,318.576,0,248,0c-66.856,0-121.824,51.552-127.44,116.984c-14.336,16.984-22.864,38.032-24.312,60.424 C54.592,184.872,24,220.928,24,264c0,48.52,39.48,88,88,88h24v48h24v16h-24v80h224v-80h-24v-16h24v-48h32 c44.112,0,80-35.888,80-80C472,230.464,440.176,196.216,399.632,192.36z M248,16c61.76,0,112,50.24,112,112s-50.24,112-112,112 s-112-50.24-112-112S186.24,16,248,16z M152,288v-48h34.168c18.344,10.168,39.408,16,61.832,16s43.488-5.832,61.832-16H344v48H152 z M320,304v16H176v-16H320z M136,336h-24c-39.696,0-72-32.296-72-72c0-37.176,27.864-67.976,64.808-71.64l7.192-1.112V184 c0-13.72,3.224-27.104,9.232-39.184c4.152,31.416,19.696,59.216,42.384,79.184H136v80h24v16h-24V336z M344,432v48H152v-48H344z M176,416v-16h144v16H176z M344,384H152v-48h192V384z M392,336h-32v-16h-24v-16h24v-80h-27.624 c18.496-16.28,32.232-37.76,38.936-62.184C379.464,172.776,384,186.152,384,200v8h8c35.288,0,64,28.712,64,64 C456,307.288,427.288,336,392,336z"/></g></g></svg>