<?xml version="1.0" encoding="iso-8859-1"?>
<!-- Generator: Adobe Illustrator 19.0.0, SVG Export Plug-In . SVG Version: 6.00 Build 0)  -->
<svg version="1.1" id="Capa_1" xmlns="http://www.w3.org/2000/svg" xmlns:xlink="http://www.w3.org/1999/xlink" x="0px" y="0px" width="100" height="100" fill="#1fa1af"
	 viewBox="0 0 512 512" style="enable-background:new 0 0 512 512;" xml:space="preserve">
<g>
	<g>
		<path d="M302.541,0H72.934C56.243,0,42.667,13.577,42.667,30.268V76.8c0,4.71,3.823,8.533,8.533,8.533h273.067
			c4.71,0,8.533-3.823,8.533-8.533V30.268C332.8,13.577,319.223,0,302.541,0z M315.733,68.267h-256V30.268
			c0-7.279,5.922-13.201,13.201-13.201h229.598c7.279,0,13.201,5.922,13.201,13.201V68.267z"/>
	</g>
</g>
<g>
	<g>
		<path d="M324.267,426.667H51.2c-4.71,0-8.533,3.823-8.533,8.533v46.532c0,16.691,13.576,30.268,30.268,30.268h229.598
			c16.691,0,30.268-13.576,30.268-30.268V435.2C332.8,430.49,328.977,426.667,324.267,426.667z M315.733,481.732
			c0,7.279-5.922,13.201-13.193,13.201H72.934c-7.279,0-13.201-5.922-13.201-13.201v-37.999h256V481.732z"/>
	</g>
</g>
<g>
	<g>
		<path d="M187.733,426.667c-23.526,0-42.667,19.14-42.667,42.667c0,23.526,19.14,42.667,42.667,42.667
			c23.526,0,42.667-19.14,42.667-42.667C230.4,445.807,211.26,426.667,187.733,426.667z M187.733,494.933
			c-14.114,0-25.6-11.486-25.6-25.6s11.486-25.6,25.6-25.6s25.6,11.486,25.6,25.6S201.847,494.933,187.733,494.933z"/>
	</g>
</g>
<g>
	<g>
		<path d="M213.333,34.133h-51.2c-4.71,0-8.533,3.823-8.533,8.533c0,4.71,3.823,8.533,8.533,8.533h51.2
			c4.71,0,8.533-3.823,8.533-8.533C221.867,37.956,218.044,34.133,213.333,34.133z"/>
	</g>
</g>
<g>
	<g>
		<path d="M238.677,392.533H85.333c-4.71,0-8.533,3.823-8.533,8.533s3.823,8.533,8.533,8.533h153.344
			c4.71,0,8.533-3.823,8.533-8.533S243.388,392.533,238.677,392.533z"/>
	</g>
</g>
<g>
	<g>
		<path d="M290.133,392.533h-17.067c-4.71,0-8.533,3.823-8.533,8.533s3.823,8.533,8.533,8.533h17.067
			c4.71,0,8.533-3.823,8.533-8.533S294.844,392.533,290.133,392.533z"/>
	</g>
</g>
<g>
	<g>
		<path d="M290.133,358.4H256c-4.71,0-8.533,3.823-8.533,8.533s3.823,8.533,8.533,8.533h34.133c4.71,0,8.533-3.823,8.533-8.533
			S294.844,358.4,290.133,358.4z"/>
	</g>
</g>
<g>
	<g>
		<path d="M102.4,358.4H85.333c-4.71,0-8.533,3.823-8.533,8.533s3.823,8.533,8.533,8.533H102.4c4.71,0,8.533-3.823,8.533-8.533
			S107.11,358.4,102.4,358.4z"/>
	</g>
</g>
<g>
	<g>
		<path d="M221.867,358.4h-85.333c-4.71,0-8.533,3.823-8.533,8.533s3.823,8.533,8.533,8.533h85.333c4.71,0,8.533-3.823,8.533-8.533
			S226.577,358.4,221.867,358.4z"/>
	</g>
</g>
<g>
	<g>
		<path d="M230.4,187.733h-25.6v-25.6h25.6c4.71,0,8.533-3.823,8.533-8.533c0-4.71-3.823-8.533-8.533-8.533h-34.133
			c-4.71,0-8.533,3.823-8.533,8.533v42.667c0,4.71,3.823,8.533,8.533,8.533h25.6v25.6h-25.6c-4.71,0-8.533,3.823-8.533,8.533
			s3.823,8.533,8.533,8.533H230.4c4.71,0,8.533-3.823,8.533-8.533v-42.667C238.933,191.556,235.11,187.733,230.4,187.733z"/>
	</g>
</g>
<g>
	<g>
		<path d="M418.133,187.733h-25.6v-25.6h25.6c4.71,0,8.533-3.823,8.533-8.533c0-4.71-3.823-8.533-8.533-8.533H384
			c-4.71,0-8.533,3.823-8.533,8.533v42.667c0,4.71,3.823,8.533,8.533,8.533h25.6v25.6H384c-4.71,0-8.533,3.823-8.533,8.533
			s3.823,8.533,8.533,8.533h34.133c4.71,0,8.533-3.823,8.533-8.533v-42.667C426.667,191.556,422.844,187.733,418.133,187.733z"/>
	</g>
</g>
<g>
	<g>
		<path d="M273.067,145.067c-4.71,0-8.533,3.823-8.533,8.533v85.333c0,4.71,3.823,8.533,8.533,8.533c4.71,0,8.533-3.823,8.533-8.533
			V153.6C281.6,148.89,277.777,145.067,273.067,145.067z"/>
	</g>
</g>
<g>
	<g>
		<path d="M313.873,190.942l-34.133-42.667c-2.944-3.678-8.32-4.284-11.998-1.331c-3.678,2.935-4.275,8.311-1.331,11.989
			l34.133,42.667c1.681,2.108,4.164,3.2,6.665,3.2c1.869,0,3.746-0.614,5.333-1.869C316.22,199.996,316.817,194.62,313.873,190.942z
			"/>
	</g>
</g>
<g>
	<g>
		<path d="M341.333,145.067c-4.71,0-8.533,3.823-8.533,8.533v85.333c0,4.71,3.823,8.533,8.533,8.533s8.533-3.823,8.533-8.533V153.6
			C349.867,148.89,346.044,145.067,341.333,145.067z"/>
	</g>
</g>
<g>
	<g>
		<path d="M346.667,146.944c-3.686-2.953-9.054-2.347-11.998,1.331l-34.133,42.667c-2.944,3.678-2.347,9.045,1.331,11.989
			c1.57,1.254,3.456,1.869,5.325,1.869c2.509,0,4.983-1.092,6.673-3.2l34.133-42.667
			C350.942,155.255,350.345,149.888,346.667,146.944z"/>
	</g>
</g>
<g>
	<g>
		<path d="M460.8,110.933H153.6c-4.71,0-8.533,3.823-8.533,8.533v204.8c0,3.448,2.082,6.562,5.274,7.885
			c1.05,0.435,2.159,0.648,3.26,0.648c2.219,0,4.403-0.87,6.033-2.5l48.7-48.7H460.8c4.71,0,8.533-3.823,8.533-8.533v-153.6
			C469.333,114.756,465.51,110.933,460.8,110.933z M452.267,264.533H204.8c-2.261,0-4.437,0.896-6.033,2.5l-36.634,36.634V128
			h290.133V264.533z"/>
	</g>
</g>
<g>
	<g>
		<path d="M324.267,128c4.71,0,8.533-3.823,8.533-8.533V30.268C332.8,13.577,319.223,0,302.541,0H72.934
			C56.243,0,42.667,13.577,42.667,30.268v451.465c0,16.691,13.576,30.268,30.268,30.268h229.598
			c16.691,0,30.268-13.576,30.268-30.268V273.067c0-4.71-3.823-8.533-8.533-8.533H204.8c-2.261,0-4.437,0.896-6.033,2.5
			l-36.634,36.634V128H324.267z M150.332,332.151c3.183,1.314,6.861,0.589,9.301-1.852l48.7-48.7h107.401v200.132
			c0,7.279-5.922,13.201-13.193,13.201H72.934c-7.279,0-13.201-5.922-13.201-13.201V30.268c0-7.279,5.922-13.201,13.201-13.201
			h229.598c7.279,0,13.201,5.922,13.201,13.201v80.666H153.6c-4.71,0-8.533,3.823-8.533,8.533v204.8
			C145.067,327.714,147.149,330.829,150.332,332.151z"/>
	</g>
</g>
<g>
</g>
<g>
</g>
<g>
</g>
<g>
</g>
<g>
</g>
<g>
</g>
<g>
</g>
<g>
</g>
<g>
</g>
<g>
</g>
<g>
</g>
<g>
</g>
<g>
</g>
<g>
</g>
<g>
</g>
</svg>
