<svg xmlns="http://www.w3.org/2000/svg" width="80" height="85" viewBox="0 0 80 84.6"><path d="M30.8 34.1c0-5.4 4.4-9.8 9.8-9.8s9.8 4.4 9.8 9.8-4.4 9.8-9.8 9.8-9.8-4.4-9.8-9.8" fill="#76b836"/><path d="M47.4 21.7c0-3.1 2.5-5.6 5.6-5.6s5.6 2.5 5.6 5.6-2.5 5.6-5.6 5.6c-3.1 0-5.6-2.5-5.6-5.6M18.5 34.1c0-12.1 9.8-22 22-22v8c-7.8 0-14 6.3-14 14.1s6.3 14.1 14.1 14.1c7.7 0 14.1-6.2 14.1-14.1h8c0 12.2-9.9 22.1-22 22.1-12.3-.2-22.2-10-22.2-22.2" fill="#01684d"/><path d="M75.4 65.4l-1.8 1.9c.9 2.4 1.1 2.7 1.9 4.8l-.1.2-2.7.1-.1-.1c-.3-.9-1.1-3.5-1.5-4.6-.4 1.7-.6 2.6-.9 4.5l-.1.1-2.7.1-.1-.1.7-2.8.3-1.1c.3-1.4.6-2.8.8-4.2L69 64c.9-.1 1.8-.3 2.7-.4l.1.1-.2.9-.3 1.6-.3 1.2c1-1.1 1.8-2 2.9-3.5l.2-.1h2.7v.2l-1.4 1.4zm-8.5.8l-.3-.3c-.4-.3-.9-.5-1.4-.5-1.6 0-2.6 1.6-2.6 3.1 0 1.6 1 2.1 1.9 2.1.6 0 1.3-.2 1.8-.6h.1l-.5 2-.1.1c-.2.1-.3.1-.5.2-.5.2-1.1.2-1.6.2-2.3 0-3.8-1.4-3.8-3.8 0-2.2 1.5-5 5-5 .4 0 .8 0 1.3.1.3 0 .5.1.7.2.2.1.4.2.5.3v.1l-.5 1.8zm-7.7 5.5l-.2.6-.1.1H49v-.1c.1-.4.3-.9.5-1.6v-.1l.1-.2.1-.1c.2-.1 1.2-.7 2.5-2.9 1.1-2 1.7-3.5 1.7-3.5l.2-.1h5.1l.1.1-.2.7-.3 1.6-.2.9-.2 1c-.2.9-.3 1.5-.5 2.3h1.5l.1.1-.1.4-.2.8zm-2.8-5.9h-1.1L54.2 68c-.4.9-1 1.7-1.7 2.4h3l.2-.9.3-1.1c.2-1.2.3-1.9.4-2.6z" fill="#006c3f"/><path d="M48.2 67.1c-.6 2.4-.7 3-1 4.9l-.1.1h-1.5l-.1-.1.1-.6c-.7.5-1.5.8-2.4.8-1.7 0-3-1.1-3-3.1 0-1.2.5-2.4 1.3-3.4 1.5-1.7 3.6-1.8 5.1-1.8h2.3l.1.1-.8 3.1zm-1.9-2c-.9 0-1.8.2-2.6.7-1 .7-1.7 1.9-1.7 3.2 0 .8.4 2 1.9 2 .5 0 1-.1 1.4-.4.2-.1.4-.3.5-.4l1.2-5.1h-.7zm-7.2.5L37 67.5l2.5 4.6-.1.1h-1.8l-.1-.1c-.4-1-.5-1.2-1.1-2.3l-1.1-2.2c-.4 1.5-.6 2.5-1 4.5l-.1.1h-1.7l-.1-.1.7-2.7.3-1.2c.3-1.3.6-2.6.8-4l.1-.1c.6-.1 1.2-.2 1.7-.3l.1.1-.2.8-.4 1.3c-.1.5-.2.9-.3 1.3.4-.3.6-.5 1.2-1s2-1.9 2.2-2.2l.2-.1h1.9v.1c-.2.1-.2.2-.9.7-.3.3-.4.5-.7.8zm-7.2.4c-.6 2.6-.8 3.5-1.3 6.1l-.1.1h-1.7l-.1-.1.7-2.7.2-.9h-3.5c-.2 1.1-.4 2-.8 3.5l-.1.1h-1.7l-.1-.1.7-2.7.3-1.2c.3-1.3.6-2.6.8-4l.1-.1c.6-.1 1.2-.2 1.7-.3v.3l-.2.8-.2 1.2-.3 1.1h3.6c.2-1 .3-1.5.5-2.8l.1-.1c.6-.1 1.2-.2 1.7-.3l.1.1-.2.8-.2 1.2zm-10.2 6l-.1.1h-1.5L20 72l.1-.6c-.7.5-1.5.8-2.4.8-1.7 0-3-1.1-3-3.1 0-1.2.5-2.4 1.3-3.4 1.5-1.7 3.6-1.8 5.1-1.8h2.3l.1.1-.7 3c-.7 2.5-.8 3.1-1.1 5zm-.9-6.9c-.9 0-1.8.2-2.6.7-1.1.7-1.7 1.9-1.7 3.2 0 .8.4 2 1.9 2 .5 0 1-.1 1.4-.4.2-.1.4-.3.5-.4l1.2-5c0-.1-.7-.1-.7-.1zm-7.1 2c0 .6-.1 1.1-.2 1.7-.4 1.4-1.4 3.7-4.4 3.7-2.2 0-3.4-1.1-3.4-3.2 0-.3 0-.6.1-.9v-.2c.6-3.5 2.2-6.9 5.7-6.9.7 0 1.4-.1 2.1-.2l-.2 1.4c-.8.2-1.5.2-2.3.2-.6 0-1.2.2-1.6.6-.2.1-.3.3-.4.5-.1.1-.2.3-.2.4.5-.2 1-.2 1.6-.2 1.9 0 3.2 1.1 3.2 3.1zm-6.4 2.4c0 1.3.8 1.8 1.7 1.8 1.8 0 2.4-1.7 2.7-3 .1-.4.2-.9.2-1.4 0-1.6-1.1-1.9-1.7-1.9-2.5.1-2.9 3.9-2.9 4.5z" fill="#4db848"/></svg>