<svg xmlns="http://www.w3.org/2000/svg" width="80" height="47"><path d="M34.3 7.4h22.3S49.1 4 40.5 4.3c-1.7 0-4.1 0-6.2 3.1zM22.7 25L39.3 9.1h-6.6L16 25.4l-3 1.1 48.6.3-3.8-1.6z" fill="#010202"/><path d="M55.1 23.9l-27.9-.3L42 9.1h12.4l-3.7 3.8h-6.2l-1.3 1.6h6.7v4H39L37.5 20h12.9s2.4 3.6 4.7 3.9z" fill="#e9492c"/><path d="M5.2 32.1V40h-1v-7.8h1zM6.9 40v-7.8H8l2.5 4c.6.9 1 1.7 1.4 2.5-.1-1-.1-2-.1-3.2v-3.3h1V40h-1l-2.5-4c-.5-.9-1.1-1.8-1.5-2.6.1 1 .1 1.9.1 3.2V40h-1zm9.2-7h-2.4v-.9h5.8v.9h-2.4v7h-1v-7zm8.3 3.3h-3v2.8h3.4v.9h-4.4v-7.8h4.2v.8h-3.2v2.5h3v.8zm1.7-4.2h1v7h3.3v.9H26v-7.9zm6.5 0V40h-1v-7.8h1zm5.8 4.2h-3v2.8h3.4v.9h-4.4v-7.8h4.2v.8h-3.2v2.5h3v.8zm5.9 3.7l-1-1.7c-.4-.7-.7-1.1-.9-1.5-.2.5-.4.9-.8 1.6l-1 1.6h-1.2l2.4-4-2.3-3.9h1.2l1 1.8c.3.5.5.9.7 1.3.2-.5.4-.8.7-1.3l1.1-1.8h1.2L43 35.9l2.4 4h-1.1zm2.4-7.8c.5-.1 1.1-.2 1.9-.2 1 0 1.7.2 2.2.7.4.4.7.9.7 1.6 0 .7-.2 1.3-.6 1.7-.5.6-1.4.9-2.4.9-.3 0-.6 0-.8-.1V40h-1v-7.8zm1 3.8c.2.1.5.1.8.1 1.2 0 2-.6 2-1.7 0-1-.7-1.5-1.8-1.5-.4 0-.8 0-1 .1v3zm5.2-3.8c.5-.1 1.2-.2 1.9-.2 1.1 0 1.8.2 2.3.6.4.3.6.9.6 1.5 0 1-.7 1.7-1.5 2 .6.2 1 .8 1.2 1.6.3 1.1.4 1.8.6 2.2h-1c-.1-.2-.3-.9-.5-1.9-.2-1.1-.7-1.5-1.6-1.5h-1V40h-1v-7.8zm1 3.6h1c1.1 0 1.8-.6 1.8-1.5 0-1-.7-1.5-1.8-1.5-.5 0-.8 0-1 .1v2.9zm9.3.5h-3v2.8h3.4v.9h-4.4v-7.8h4.2v.8h-3.2v2.5h3v.8zm1.5 2.4c.5.3 1.1.5 1.8.5 1 0 1.6-.5 1.6-1.3 0-.7-.4-1.2-1.5-1.6-1.3-.5-2.1-1.1-2.1-2.2 0-1.2 1-2.1 2.5-2.1.8 0 1.4.2 1.7.4l-.3.8c-.3-.1-.8-.4-1.5-.4-1.1 0-1.5.6-1.5 1.2 0 .7.5 1.1 1.6 1.5 1.3.5 2 1.2 2 2.3 0 1.2-.9 2.3-2.7 2.3-.8 0-1.6-.2-2-.5l.4-.9zm5.7 0c.5.3 1.1.5 1.8.5 1 0 1.6-.5 1.6-1.3 0-.7-.4-1.2-1.5-1.6-1.3-.5-2.1-1.1-2.1-2.2 0-1.2 1-2.1 2.5-2.1.8 0 1.4.2 1.7.4l-.3.8c-.3-.1-.8-.4-1.5-.4-1.1 0-1.5.6-1.5 1.2 0 .7.5 1.1 1.6 1.5 1.3.5 2 1.2 2 2.3 0 1.2-.9 2.3-2.7 2.3-.8 0-1.6-.2-2-.5l.4-.9z"/></svg>