<svg xmlns="http://www.w3.org/2000/svg" width="80" height="80" viewBox="0 0 58 58"><path d="M54.783 50H3.217A3.217 3.217 0 0 1 0 46.783V11.217A3.217 3.217 0 0 1 3.217 8h51.566A3.217 3.217 0 0 1 58 11.217v35.566A3.217 3.217 0 0 1 54.783 50" fill="#f0c41b"/><path fill="#806f5e" d="M0 13h58v8H0z"/><path d="M15 28H6a1 1 0 0 1 0-2h9a1 1 0 0 1 0 2m13 0h-9a1 1 0 0 1 0-2h9a1 1 0 0 1 0 2M7 33H6a1 1 0 0 1 0-2h1a1 1 0 0 1 0 2m6 0h-2a1 1 0 0 1 0-2h2a1 1 0 0 1 0 2m5 0h-1a1 1 0 0 1 0-2h1a1 1 0 0 1 0 2m6 0h-2a1 1 0 0 1 0-2h2a1 1 0 0 1 0 2m4 0c-.26 0-.52-.11-.71-.29-.18-.19-.29-.44-.29-.71 0-.26.11-.52.29-.71.37-.37 1.04-.37 1.42 0 .18.19.29.45.29.71s-.11.52-.29.71c-.19.18-.45.29-.71.29" fill="#f9eab0"/><path d="M46 39a6 6 0 1 1-12 0 6 6 0 0 1 12 0" fill="#db2215"/><path d="M53 39a6 6 0 1 1-12 0 6 6 0 0 1 12 0" fill="#245ea9"/></svg>