<svg xmlns="http://www.w3.org/2000/svg" width="48" height="48" fill="#0097A7" viewBox="0 0 512 512"><circle cx="186.182" cy="116.364" r="11.636"/><circle cx="139.636" cy="116.364" r="11.636"/><circle cx="232.727" cy="116.364" r="11.636"/><path d="M195.491 260.655c-3.491-5.818-15.127-5.818-18.618 0s-37.236 57.018-37.236 86.109c0 26.764 20.945 48.873 46.545 48.873s46.545-22.109 46.545-48.873c0-29.091-32.582-80.291-37.236-86.109zm-9.309 111.709c-12.8 0-23.273-11.636-23.273-25.6 0-12.8 11.636-37.236 23.273-57.018 11.636 19.782 23.273 44.218 23.273 57.018 0 13.963-10.473 25.6-23.273 25.6z"/><path d="M508.509 143.127l-58.182-58.182c-4.655-4.655-11.636-4.655-16.291 0-4.655 4.655-4.655 11.636 0 16.291l29.091 29.091c-11.636 5.818-20.945 18.618-20.945 32.582 0 19.782 15.127 34.909 34.909 34.909 4.655 0 8.145-1.164 11.636-2.327v211.782c0 19.782-15.127 34.909-34.909 34.909-19.782 0-34.909-15.127-34.909-34.909V221.091c0-32.582-25.6-58.182-58.182-58.182h-23.273V58.182C337.455 25.6 311.855 0 279.273 0H93.091C60.509 0 34.909 25.6 34.909 58.182v384C15.127 442.182 0 457.309 0 477.091 0 496.873 15.127 512 34.909 512h302.545c19.782 0 34.909-15.127 34.909-34.909 0-19.782-15.127-34.909-34.909-34.909H93.091c-6.982 0-11.636 4.655-11.636 11.636s4.655 11.636 11.636 11.636h244.364c6.982 0 11.636 4.655 11.636 11.636s-4.655 11.636-11.636 11.636H34.909c-6.982 0-11.636-4.655-11.636-11.636s4.655-11.636 11.636-11.636h11.636c6.982 0 11.636-4.655 11.636-11.636V58.182c0-19.782 15.127-34.909 34.909-34.909h186.182c19.782 0 34.909 15.127 34.909 34.909v349.091c0 6.982 4.655 11.636 11.636 11.636s11.636-4.655 11.636-11.636V186.182h23.273c19.782 0 34.909 15.127 34.909 34.909v186.182c0 32.582 25.6 58.182 58.182 58.182s58.182-25.6 58.182-58.182v-256c.001-3.491-1.163-5.818-3.49-8.146zm-31.418 31.418c-6.982 0-11.636-4.655-11.636-11.636 0-6.982 4.655-11.636 11.636-11.636s11.636 4.655 11.636 11.636c0 6.982-4.654 11.636-11.636 11.636z"/><path d="M279.273 46.545H93.091c-6.982 0-11.636 4.655-11.636 11.636v116.364c0 6.982 4.655 11.636 11.636 11.636h186.182c6.982 0 11.636-4.655 11.636-11.636V58.182c0-6.982-4.654-11.637-11.636-11.637zm-11.637 116.364H104.727V69.818h162.909v93.091z"/></svg>