<svg xmlns="http://www.w3.org/2000/svg" width="48" height="48" fill="#0097A7" viewBox="0 0 480 480"><path d="M240 286.722c62.477 0 113.305-50.829 113.305-113.306S302.477 60.11 240 60.11s-113.305 50.829-113.305 113.306S177.523 286.722 240 286.722zm-92.768-103.306h31.409c2.062 36.078 15.083 60.997 28.145 77.191-32.114-12.275-55.766-41.804-59.554-77.191zM250 256.384v-72.968h31.319c-1.602 24.673-9.219 45.938-22.723 63.312a96.412 96.412 0 0 1-8.596 9.656zm0-92.968V90.449a96.537 96.537 0 0 1 8.597 9.656c13.503 17.374 21.12 38.638 22.723 63.311H250zm-20-72.967v72.967h-31.319c1.602-24.673 9.219-45.937 22.723-63.311A96.536 96.536 0 0 1 230 90.449zm0 92.967v72.999c-12.49-12.282-28.82-35.295-31.318-72.999H230zm43.214 77.191c13.062-16.194 26.083-41.113 28.145-77.191h31.409c-3.788 35.387-27.44 64.916-59.554 77.191zm59.554-97.191h-31.409c-2.062-36.078-15.084-60.997-28.146-77.191 32.114 12.275 55.767 41.803 59.555 77.191zm-125.98-77.191c-13.062 16.194-26.084 41.114-28.146 77.191h-31.409c3.787-35.388 27.44-64.916 59.555-77.191z"/><path d="M390.016 0H45.939v480h344.076c24.286 0 44.045-19.758 44.045-44.045V44.045C434.061 19.758 414.302 0 390.016 0zm24.045 435.955c0 13.258-10.786 24.045-24.045 24.045H65.939V20h324.076c13.259 0 24.045 10.787 24.045 24.045v391.91z"/><path d="M155.948 346.028H126.4v69.238h15.992v-22.332h14.043c13.263 0 22.137-11.409 22.137-23.502 0-11.506-9.459-23.404-22.624-23.404zm-.487 32.961h-13.068v-18.918h12.482c3.706 0 7.51 2.925 7.51 9.361 0 6.242-3.219 9.557-6.924 9.557zm46.025-32.961l-26.623 69.238h16.969l5.266-15.506h21.551l5.364 15.506h16.968l-26.525-69.238h-12.97zm-1.853 42.713l8.289-25.745 7.996 25.745h-16.285zm76.157-14.822c-9.265-2.536-14.433-3.804-14.433-8.484 0-3.804 3.023-5.754 8.484-5.754 8.289 0 17.553 5.559 18.528 6.632l6.924-13.263c-6.046-3.608-15.116-7.606-24.965-7.606-13.848 0-25.55 7.898-25.55 22.526 0 10.435 5.948 15.213 18.723 19.114 9.558 2.925 16.676 4.193 16.676 9.361 0 3.315-2.73 5.169-8.483 5.169-10.63 0-21.552-6.729-22.819-8.095l-7.021 13.945c8.191 5.364 19.406 8.582 29.549 8.582 13.359 0 26.037-5.461 26.037-21.162-.001-12.871-8.387-17.358-21.65-20.965zm60.067 0c-9.265-2.536-14.434-3.804-14.434-8.484 0-3.804 3.023-5.754 8.484-5.754 8.289 0 17.554 5.559 18.529 6.632l6.924-13.263c-6.047-3.608-15.116-7.606-24.965-7.606-13.848 0-25.551 7.898-25.551 22.526 0 10.435 5.949 15.213 18.725 19.114 9.557 2.925 16.675 4.193 16.675 9.361 0 3.315-2.73 5.169-8.483 5.169-10.63 0-21.553-6.729-22.82-8.095l-7.021 13.945c8.191 5.364 19.406 8.582 29.549 8.582 13.359 0 26.037-5.461 26.037-21.162 0-12.871-8.387-17.358-21.649-20.965z"/></svg>