<svg xmlns="http://www.w3.org/2000/svg" width="48" height="48" fill="#0097A7" viewBox="0 0 512 512"><path d="M253.614 333.891c-14.336 0-25.999 11.663-25.999 25.999s11.664 25.999 25.999 25.999 25.999-11.663 25.999-25.999-11.662-25.999-25.999-25.999zm0 31.999c-3.309 0-6-2.691-6-6s2.691-6 6-6 6 2.691 6 6-2.691 6-6 6zm80.264-65.14a10.077 10.077 0 0 0-7.07-2.931c-2.63 0-5.21 1.07-7.07 2.931a10.029 10.029 0 0 0-2.93 7.069 10.03 10.03 0 0 0 2.93 7.07 10.071 10.071 0 0 0 7.07 2.93c2.63 0 5.21-1.069 7.07-2.93a10.072 10.072 0 0 0 2.93-7.07c0-2.63-1.07-5.21-2.93-7.069z"/><path d="M461.994 143.987h-10.781L310.158 2.932c-3.905-3.905-10.238-3.905-14.142 0L259.88 39.069 115.356.344c-5.335-1.431-10.819 1.736-12.248 7.071L66.516 143.987h-24.51c-23.158 0-41.999 18.84-41.999 41.999 0 .555.021 1.106.042 1.656a9.944 9.944 0 0 0-.042.832v273.528C.007 489.57 22.437 512 50.006 512h357.989c.155 0 .307-.01.462-.012h53.536c27.569 0 49.998-22.429 49.998-49.999V193.985c.001-27.57-22.428-49.998-49.997-49.998zm-8.934 19.999h8.934c16.542 0 29.999 13.458 29.999 29.999v80.143c0 13.069-10.633 23.701-23.701 23.701h-10.298v-39.846c0-27.221-21.869-49.415-48.959-49.973l44.025-44.024zM269.94 57.293l.003-.004 33.145-33.145L433.854 154.91l-52.75 52.75H362.81l23.928-23.929c3.905-3.905 3.905-10.237 0-14.142-8.095-8.095-8.095-21.265 0-29.36 3.905-3.905 3.905-10.237 0-14.143L331.91 71.26c-3.905-3.905-10.237-3.905-14.143 0-8.095 8.096-21.266 8.096-29.36 0-3.905-3.905-10.238-3.905-14.142 0l-136.4 136.401h-18.294L269.94 57.293zm-29.429 112.798c-22.828 0-41.954 16.119-46.619 37.57h-27.745L282.213 91.595c12.811 7.636 28.937 7.636 41.748 0l42.441 42.441c-7.635 12.81-7.635 28.938 0 41.748l-31.877 31.877H287.13c-4.665-21.452-23.79-37.57-46.619-37.57zm25.786 37.57h-51.568c4.058-10.277 14.083-17.57 25.784-17.57s21.725 7.293 25.784 17.57zm-157.295-17.715l26.482-98.833c7.261.117 14.484-1.737 20.953-5.474 6.47-3.735 11.676-9.046 15.217-15.409l45.005 12.059-65.311 65.311-42.346 42.346zM119.839 22.25L243.55 55.398 232.989 65.96l-64.63-17.318a9.996 9.996 0 0 0-12.247 7.071 20.631 20.631 0 0 1-9.673 12.606 20.628 20.628 0 0 1-15.755 2.074c-5.333-1.43-10.818 1.736-12.247 7.071L83.463 207.985H70.071L119.839 22.25zM42.006 163.986h19.149l-11.79 43.999h-7.36c-12.131 0-21.999-9.869-21.999-21.999.001-12.131 9.871-22 22-22zm449.987 298.003c0 16.542-13.458 29.999-29.999 29.999h-14.018c6.287-8.36 10.018-18.745 10.018-29.987v-40.176h6c10.444 0 20.111-3.363 27.999-9.049v49.213zm0-88.162c0 15.439-12.561 27.999-27.999 27.999H254c-23.158 0-41.999-18.84-41.999-41.999s18.84-41.999 41.999-41.999h30.306c5.523 0 10-4.478 10-10s-4.477-10-10-10H254c-34.186 0-61.998 27.812-61.998 61.998 0 34.186 27.812 61.998 61.998 61.998h183.995V462c0 16.387-13.209 29.75-29.537 29.999H68.005V379.39c0-5.522-4.477-10-10-10s-10 4.478-10 10v112.536c-15.612-1.033-27.999-14.056-27.999-29.924v-240.26a41.738 41.738 0 0 0 21.999 6.242h365.989c16.542 0 29.999 13.458 29.999 29.999v39.846H365.69c-5.523 0-10 4.478-10 10s4.477 10 10 10h102.602a43.425 43.425 0 0 0 23.701-7.015v63.013z"/><path d="M65.076 333.318c-1.86-1.859-4.44-2.93-7.07-2.93s-5.21 1.07-7.07 2.93a10.076 10.076 0 0 0-2.93 7.07c0 2.63 1.07 5.21 2.93 7.07 1.86 1.86 4.44 2.93 7.07 2.93s5.21-1.07 7.07-2.93c1.86-1.86 2.93-4.44 2.93-7.07a10.084 10.084 0 0 0-2.93-7.07z"/></svg>